<?xml version="1.0" encoding="utf-8"?>
<svg xmlns="http://www.w3.org/2000/svg" xmlns:xlink="http://www.w3.org/1999/xlink" width="600" height="400" viewBox="0 0 2400 1600">
<defs>
  <clipPath id="clip310">
    <rect x="0" y="0" width="2400" height="1600"/>
  </clipPath>
</defs>
<path clip-path="url(#clip310)" d="M0 1600 L2400 1600 L2400 0 L0 0  Z" fill="#ffffff" fill-rule="evenodd" fill-opacity="1"/>
<defs>
  <clipPath id="clip311">
    <rect x="480" y="0" width="1681" height="1600"/>
  </clipPath>
</defs>
<path clip-path="url(#clip310)" d="M262.551 1423.18 L2352.76 1423.18 L2352.76 47.2441 L262.551 47.2441  Z" fill="#ffffff" fill-rule="evenodd" fill-opacity="1"/>
<defs>
  <clipPath id="clip312">
    <rect x="262" y="47" width="2091" height="1377"/>
  </clipPath>
</defs>
<polyline clip-path="url(#clip312)" style="stroke:#000000; stroke-linecap:round; stroke-linejoin:round; stroke-width:2; stroke-opacity:0.1; fill:none" points="321.708,1423.18 321.708,47.2441 "/>
<polyline clip-path="url(#clip312)" style="stroke:#000000; stroke-linecap:round; stroke-linejoin:round; stroke-width:2; stroke-opacity:0.1; fill:none" points="814.681,1423.18 814.681,47.2441 "/>
<polyline clip-path="url(#clip312)" style="stroke:#000000; stroke-linecap:round; stroke-linejoin:round; stroke-width:2; stroke-opacity:0.1; fill:none" points="1307.65,1423.18 1307.65,47.2441 "/>
<polyline clip-path="url(#clip312)" style="stroke:#000000; stroke-linecap:round; stroke-linejoin:round; stroke-width:2; stroke-opacity:0.1; fill:none" points="1800.63,1423.18 1800.63,47.2441 "/>
<polyline clip-path="url(#clip312)" style="stroke:#000000; stroke-linecap:round; stroke-linejoin:round; stroke-width:2; stroke-opacity:0.1; fill:none" points="2293.6,1423.18 2293.6,47.2441 "/>
<polyline clip-path="url(#clip310)" style="stroke:#000000; stroke-linecap:round; stroke-linejoin:round; stroke-width:4; stroke-opacity:1; fill:none" points="262.551,1423.18 2352.76,1423.18 "/>
<polyline clip-path="url(#clip310)" style="stroke:#000000; stroke-linecap:round; stroke-linejoin:round; stroke-width:4; stroke-opacity:1; fill:none" points="321.708,1423.18 321.708,1404.28 "/>
<polyline clip-path="url(#clip310)" style="stroke:#000000; stroke-linecap:round; stroke-linejoin:round; stroke-width:4; stroke-opacity:1; fill:none" points="814.681,1423.18 814.681,1404.28 "/>
<polyline clip-path="url(#clip310)" style="stroke:#000000; stroke-linecap:round; stroke-linejoin:round; stroke-width:4; stroke-opacity:1; fill:none" points="1307.65,1423.18 1307.65,1404.28 "/>
<polyline clip-path="url(#clip310)" style="stroke:#000000; stroke-linecap:round; stroke-linejoin:round; stroke-width:4; stroke-opacity:1; fill:none" points="1800.63,1423.18 1800.63,1404.28 "/>
<polyline clip-path="url(#clip310)" style="stroke:#000000; stroke-linecap:round; stroke-linejoin:round; stroke-width:4; stroke-opacity:1; fill:none" points="2293.6,1423.18 2293.6,1404.28 "/>
<path clip-path="url(#clip310)" d="M291.65 1468.75 L321.326 1468.75 L321.326 1472.69 L291.65 1472.69 L291.65 1468.75 Z" fill="#000000" fill-rule="nonzero" fill-opacity="1" /><path clip-path="url(#clip310)" d="M335.446 1481.64 L351.766 1481.64 L351.766 1485.58 L329.821 1485.58 L329.821 1481.64 Q332.483 1478.89 337.067 1474.26 Q341.673 1469.61 342.854 1468.27 Q345.099 1465.74 345.979 1464.01 Q346.881 1462.25 346.881 1460.56 Q346.881 1457.8 344.937 1456.07 Q343.016 1454.33 339.914 1454.33 Q337.715 1454.33 335.261 1455.09 Q332.831 1455.86 330.053 1457.41 L330.053 1452.69 Q332.877 1451.55 335.331 1450.97 Q337.784 1450.39 339.821 1450.39 Q345.192 1450.39 348.386 1453.08 Q351.58 1455.77 351.58 1460.26 Q351.58 1462.39 350.77 1464.31 Q349.983 1466.2 347.877 1468.8 Q347.298 1469.47 344.196 1472.69 Q341.094 1475.88 335.446 1481.64 Z" fill="#000000" fill-rule="nonzero" fill-opacity="1" /><path clip-path="url(#clip310)" d="M784.438 1468.75 L814.114 1468.75 L814.114 1472.69 L784.438 1472.69 L784.438 1468.75 Z" fill="#000000" fill-rule="nonzero" fill-opacity="1" /><path clip-path="url(#clip310)" d="M825.016 1481.64 L832.655 1481.64 L832.655 1455.28 L824.345 1456.95 L824.345 1452.69 L832.609 1451.02 L837.285 1451.02 L837.285 1481.64 L844.924 1481.64 L844.924 1485.58 L825.016 1485.58 L825.016 1481.64 Z" fill="#000000" fill-rule="nonzero" fill-opacity="1" /><path clip-path="url(#clip310)" d="M1307.65 1454.1 Q1304.04 1454.1 1302.21 1457.66 Q1300.41 1461.2 1300.41 1468.33 Q1300.41 1475.44 1302.21 1479.01 Q1304.04 1482.55 1307.65 1482.55 Q1311.29 1482.55 1313.09 1479.01 Q1314.92 1475.44 1314.92 1468.33 Q1314.92 1461.2 1313.09 1457.66 Q1311.29 1454.1 1307.65 1454.1 M1307.65 1450.39 Q1313.46 1450.39 1316.52 1455 Q1319.6 1459.58 1319.6 1468.33 Q1319.6 1477.06 1316.52 1481.67 Q1313.46 1486.25 1307.65 1486.25 Q1301.84 1486.25 1298.76 1481.67 Q1295.71 1477.06 1295.71 1468.33 Q1295.71 1459.58 1298.76 1455 Q1301.84 1450.39 1307.65 1450.39 Z" fill="#000000" fill-rule="nonzero" fill-opacity="1" /><path clip-path="url(#clip310)" d="M1791.01 1481.64 L1798.65 1481.64 L1798.65 1455.28 L1790.34 1456.95 L1790.34 1452.69 L1798.6 1451.02 L1803.28 1451.02 L1803.28 1481.64 L1810.92 1481.64 L1810.92 1485.58 L1791.01 1485.58 L1791.01 1481.64 Z" fill="#000000" fill-rule="nonzero" fill-opacity="1" /><path clip-path="url(#clip310)" d="M2288.25 1481.64 L2304.57 1481.64 L2304.57 1485.58 L2282.63 1485.58 L2282.63 1481.64 Q2285.29 1478.89 2289.87 1474.26 Q2294.48 1469.61 2295.66 1468.27 Q2297.9 1465.74 2298.78 1464.01 Q2299.69 1462.25 2299.69 1460.56 Q2299.69 1457.8 2297.74 1456.07 Q2295.82 1454.33 2292.72 1454.33 Q2290.52 1454.33 2288.07 1455.09 Q2285.64 1455.86 2282.86 1457.41 L2282.86 1452.69 Q2285.68 1451.55 2288.14 1450.97 Q2290.59 1450.39 2292.63 1450.39 Q2298 1450.39 2301.19 1453.08 Q2304.39 1455.77 2304.39 1460.26 Q2304.39 1462.39 2303.58 1464.31 Q2302.79 1466.2 2300.68 1468.8 Q2300.1 1469.47 2297 1472.69 Q2293.9 1475.88 2288.25 1481.64 Z" fill="#000000" fill-rule="nonzero" fill-opacity="1" /><path clip-path="url(#clip310)" d="M1324.27 1532.4 L1311.38 1549.74 L1324.94 1568.04 L1318.03 1568.04 L1307.65 1554.04 L1297.28 1568.04 L1290.37 1568.04 L1304.22 1549.39 L1291.55 1532.4 L1298.46 1532.4 L1307.91 1545.1 L1317.36 1532.4 L1324.27 1532.4 Z" fill="#000000" fill-rule="nonzero" fill-opacity="1" /><polyline clip-path="url(#clip312)" style="stroke:#000000; stroke-linecap:round; stroke-linejoin:round; stroke-width:2; stroke-opacity:0.1; fill:none" points="262.551,1384.33 2352.76,1384.33 "/>
<polyline clip-path="url(#clip312)" style="stroke:#000000; stroke-linecap:round; stroke-linejoin:round; stroke-width:2; stroke-opacity:0.1; fill:none" points="262.551,1034.75 2352.76,1034.75 "/>
<polyline clip-path="url(#clip312)" style="stroke:#000000; stroke-linecap:round; stroke-linejoin:round; stroke-width:2; stroke-opacity:0.1; fill:none" points="262.551,685.172 2352.76,685.172 "/>
<polyline clip-path="url(#clip312)" style="stroke:#000000; stroke-linecap:round; stroke-linejoin:round; stroke-width:2; stroke-opacity:0.1; fill:none" points="262.551,335.592 2352.76,335.592 "/>
<polyline clip-path="url(#clip310)" style="stroke:#000000; stroke-linecap:round; stroke-linejoin:round; stroke-width:4; stroke-opacity:1; fill:none" points="262.551,1423.18 262.551,47.2441 "/>
<polyline clip-path="url(#clip310)" style="stroke:#000000; stroke-linecap:round; stroke-linejoin:round; stroke-width:4; stroke-opacity:1; fill:none" points="262.551,1384.33 281.449,1384.33 "/>
<polyline clip-path="url(#clip310)" style="stroke:#000000; stroke-linecap:round; stroke-linejoin:round; stroke-width:4; stroke-opacity:1; fill:none" points="262.551,1034.75 281.449,1034.75 "/>
<polyline clip-path="url(#clip310)" style="stroke:#000000; stroke-linecap:round; stroke-linejoin:round; stroke-width:4; stroke-opacity:1; fill:none" points="262.551,685.172 281.449,685.172 "/>
<polyline clip-path="url(#clip310)" style="stroke:#000000; stroke-linecap:round; stroke-linejoin:round; stroke-width:4; stroke-opacity:1; fill:none" points="262.551,335.592 281.449,335.592 "/>
<path clip-path="url(#clip310)" d="M214.607 1370.13 Q210.996 1370.13 209.167 1373.7 Q207.362 1377.24 207.362 1384.37 Q207.362 1391.47 209.167 1395.04 Q210.996 1398.58 214.607 1398.58 Q218.241 1398.58 220.047 1395.04 Q221.875 1391.47 221.875 1384.37 Q221.875 1377.24 220.047 1373.7 Q218.241 1370.13 214.607 1370.13 M214.607 1366.43 Q220.417 1366.43 223.473 1371.03 Q226.551 1375.62 226.551 1384.37 Q226.551 1393.09 223.473 1397.7 Q220.417 1402.28 214.607 1402.28 Q208.797 1402.28 205.718 1397.7 Q202.662 1393.09 202.662 1384.37 Q202.662 1375.62 205.718 1371.03 Q208.797 1366.43 214.607 1366.43 Z" fill="#000000" fill-rule="nonzero" fill-opacity="1" /><path clip-path="url(#clip310)" d="M144.329 1017.47 L162.686 1017.47 L162.686 1021.41 L148.612 1021.41 L148.612 1029.88 Q149.63 1029.53 150.649 1029.37 Q151.667 1029.19 152.686 1029.19 Q158.473 1029.19 161.852 1032.36 Q165.232 1035.53 165.232 1040.94 Q165.232 1046.52 161.76 1049.63 Q158.288 1052.7 151.968 1052.7 Q149.792 1052.7 147.524 1052.33 Q145.279 1051.96 142.871 1051.22 L142.871 1046.52 Q144.954 1047.66 147.177 1048.21 Q149.399 1048.77 151.876 1048.77 Q155.88 1048.77 158.218 1046.66 Q160.556 1044.56 160.556 1040.94 Q160.556 1037.33 158.218 1035.23 Q155.88 1033.12 151.876 1033.12 Q150.001 1033.12 148.126 1033.54 Q146.274 1033.95 144.329 1034.83 L144.329 1017.47 Z" fill="#000000" fill-rule="nonzero" fill-opacity="1" /><path clip-path="url(#clip310)" d="M184.445 1020.55 Q180.834 1020.55 179.005 1024.12 Q177.2 1027.66 177.2 1034.79 Q177.2 1041.89 179.005 1045.46 Q180.834 1049 184.445 1049 Q188.079 1049 189.885 1045.46 Q191.713 1041.89 191.713 1034.79 Q191.713 1027.66 189.885 1024.12 Q188.079 1020.55 184.445 1020.55 M184.445 1016.85 Q190.255 1016.85 193.311 1021.45 Q196.389 1026.04 196.389 1034.79 Q196.389 1043.51 193.311 1048.12 Q190.255 1052.7 184.445 1052.7 Q178.635 1052.7 175.556 1048.12 Q172.501 1043.51 172.501 1034.79 Q172.501 1026.04 175.556 1021.45 Q178.635 1016.85 184.445 1016.85 Z" fill="#000000" fill-rule="nonzero" fill-opacity="1" /><path clip-path="url(#clip310)" d="M214.607 1020.55 Q210.996 1020.55 209.167 1024.12 Q207.362 1027.66 207.362 1034.79 Q207.362 1041.89 209.167 1045.46 Q210.996 1049 214.607 1049 Q218.241 1049 220.047 1045.46 Q221.875 1041.89 221.875 1034.79 Q221.875 1027.66 220.047 1024.12 Q218.241 1020.55 214.607 1020.55 M214.607 1016.85 Q220.417 1016.85 223.473 1021.45 Q226.551 1026.04 226.551 1034.79 Q226.551 1043.51 223.473 1048.12 Q220.417 1052.7 214.607 1052.7 Q208.797 1052.7 205.718 1048.12 Q202.662 1043.51 202.662 1034.79 Q202.662 1026.04 205.718 1021.45 Q208.797 1016.85 214.607 1016.85 Z" fill="#000000" fill-rule="nonzero" fill-opacity="1" /><path clip-path="url(#clip310)" d="M114.931 698.517 L122.57 698.517 L122.57 672.152 L114.26 673.818 L114.26 669.559 L122.524 667.892 L127.2 667.892 L127.2 698.517 L134.839 698.517 L134.839 702.452 L114.931 702.452 L114.931 698.517 Z" fill="#000000" fill-rule="nonzero" fill-opacity="1" /><path clip-path="url(#clip310)" d="M154.283 670.971 Q150.672 670.971 148.843 674.536 Q147.038 678.077 147.038 685.207 Q147.038 692.313 148.843 695.878 Q150.672 699.42 154.283 699.42 Q157.917 699.42 159.723 695.878 Q161.552 692.313 161.552 685.207 Q161.552 678.077 159.723 674.536 Q157.917 670.971 154.283 670.971 M154.283 667.267 Q160.093 667.267 163.149 671.874 Q166.227 676.457 166.227 685.207 Q166.227 693.934 163.149 698.54 Q160.093 703.124 154.283 703.124 Q148.473 703.124 145.394 698.54 Q142.339 693.934 142.339 685.207 Q142.339 676.457 145.394 671.874 Q148.473 667.267 154.283 667.267 Z" fill="#000000" fill-rule="nonzero" fill-opacity="1" /><path clip-path="url(#clip310)" d="M184.445 670.971 Q180.834 670.971 179.005 674.536 Q177.2 678.077 177.2 685.207 Q177.2 692.313 179.005 695.878 Q180.834 699.42 184.445 699.42 Q188.079 699.42 189.885 695.878 Q191.713 692.313 191.713 685.207 Q191.713 678.077 189.885 674.536 Q188.079 670.971 184.445 670.971 M184.445 667.267 Q190.255 667.267 193.311 671.874 Q196.389 676.457 196.389 685.207 Q196.389 693.934 193.311 698.54 Q190.255 703.124 184.445 703.124 Q178.635 703.124 175.556 698.54 Q172.501 693.934 172.501 685.207 Q172.501 676.457 175.556 671.874 Q178.635 667.267 184.445 667.267 Z" fill="#000000" fill-rule="nonzero" fill-opacity="1" /><path clip-path="url(#clip310)" d="M214.607 670.971 Q210.996 670.971 209.167 674.536 Q207.362 678.077 207.362 685.207 Q207.362 692.313 209.167 695.878 Q210.996 699.42 214.607 699.42 Q218.241 699.42 220.047 695.878 Q221.875 692.313 221.875 685.207 Q221.875 678.077 220.047 674.536 Q218.241 670.971 214.607 670.971 M214.607 667.267 Q220.417 667.267 223.473 671.874 Q226.551 676.457 226.551 685.207 Q226.551 693.934 223.473 698.54 Q220.417 703.124 214.607 703.124 Q208.797 703.124 205.718 698.54 Q202.662 693.934 202.662 685.207 Q202.662 676.457 205.718 671.874 Q208.797 667.267 214.607 667.267 Z" fill="#000000" fill-rule="nonzero" fill-opacity="1" /><path clip-path="url(#clip310)" d="M114.931 348.937 L122.57 348.937 L122.57 322.571 L114.26 324.238 L114.26 319.979 L122.524 318.312 L127.2 318.312 L127.2 348.937 L134.839 348.937 L134.839 352.872 L114.931 352.872 L114.931 348.937 Z" fill="#000000" fill-rule="nonzero" fill-opacity="1" /><path clip-path="url(#clip310)" d="M144.329 318.312 L162.686 318.312 L162.686 322.247 L148.612 322.247 L148.612 330.719 Q149.63 330.372 150.649 330.21 Q151.667 330.025 152.686 330.025 Q158.473 330.025 161.852 333.196 Q165.232 336.367 165.232 341.784 Q165.232 347.363 161.76 350.465 Q158.288 353.543 151.968 353.543 Q149.792 353.543 147.524 353.173 Q145.279 352.803 142.871 352.062 L142.871 347.363 Q144.954 348.497 147.177 349.053 Q149.399 349.608 151.876 349.608 Q155.88 349.608 158.218 347.502 Q160.556 345.395 160.556 341.784 Q160.556 338.173 158.218 336.067 Q155.88 333.96 151.876 333.96 Q150.001 333.96 148.126 334.377 Q146.274 334.793 144.329 335.673 L144.329 318.312 Z" fill="#000000" fill-rule="nonzero" fill-opacity="1" /><path clip-path="url(#clip310)" d="M184.445 321.391 Q180.834 321.391 179.005 324.955 Q177.2 328.497 177.2 335.627 Q177.2 342.733 179.005 346.298 Q180.834 349.84 184.445 349.84 Q188.079 349.84 189.885 346.298 Q191.713 342.733 191.713 335.627 Q191.713 328.497 189.885 324.955 Q188.079 321.391 184.445 321.391 M184.445 317.687 Q190.255 317.687 193.311 322.293 Q196.389 326.877 196.389 335.627 Q196.389 344.354 193.311 348.96 Q190.255 353.543 184.445 353.543 Q178.635 353.543 175.556 348.96 Q172.501 344.354 172.501 335.627 Q172.501 326.877 175.556 322.293 Q178.635 317.687 184.445 317.687 Z" fill="#000000" fill-rule="nonzero" fill-opacity="1" /><path clip-path="url(#clip310)" d="M214.607 321.391 Q210.996 321.391 209.167 324.955 Q207.362 328.497 207.362 335.627 Q207.362 342.733 209.167 346.298 Q210.996 349.84 214.607 349.84 Q218.241 349.84 220.047 346.298 Q221.875 342.733 221.875 335.627 Q221.875 328.497 220.047 324.955 Q218.241 321.391 214.607 321.391 M214.607 317.687 Q220.417 317.687 223.473 322.293 Q226.551 326.877 226.551 335.627 Q226.551 344.354 223.473 348.96 Q220.417 353.543 214.607 353.543 Q208.797 353.543 205.718 348.96 Q202.662 344.354 202.662 335.627 Q202.662 326.877 205.718 322.293 Q208.797 317.687 214.607 317.687 Z" fill="#000000" fill-rule="nonzero" fill-opacity="1" /><path clip-path="url(#clip310)" d="M67.3143 733.525 Q73.68 736.008 75.6216 738.363 Q77.5631 740.718 77.5631 744.665 L77.5631 749.344 L72.6615 749.344 L72.6615 745.906 Q72.6615 743.487 71.5157 742.151 Q70.3699 740.814 66.1048 739.191 L63.4312 738.14 L28.3562 752.559 L28.3562 746.352 L56.238 735.212 L28.3562 724.072 L28.3562 717.865 L67.3143 733.525 Z" fill="#000000" fill-rule="nonzero" fill-opacity="1" /><polyline clip-path="url(#clip312)" style="stroke:#009af9; stroke-linecap:round; stroke-linejoin:round; stroke-width:8; stroke-opacity:1; fill:none" points="321.708,1384.24 371.005,1384.23 420.303,1384.22 469.6,1384.21 518.897,1384.19 568.194,1384.18 617.492,1384.16 666.789,1384.14 716.086,1384.12 765.383,1384.1 814.681,1384.08 863.978,1384.05 913.275,1384.02 962.573,1383.99 1011.87,1383.95 1061.17,1383.91 1110.46,1383.86 1159.76,1383.81 1209.06,1383.76 1258.36,1383.7 1307.65,1383.63 1356.95,1383.56 1406.25,1383.48 1455.55,1383.39 1504.84,1383.29 1554.14,1383.18 1603.44,1383.06 1652.73,1382.92 1702.03,1382.78 1751.33,1382.61 1800.63,1382.43 1849.92,1382.23 1899.22,1382.01 1948.52,1381.77 1997.82,1381.5 2047.11,1381.2 2096.41,1380.87 2145.71,1380.51 2195,1380.1 2244.3,1379.66 2293.6,1379.17 "/>
<polyline clip-path="url(#clip312)" style="stroke:#e26f46; stroke-linecap:round; stroke-linejoin:round; stroke-width:8; stroke-opacity:1; fill:none" points="321.708,90.897 371.005,330.799 420.303,535.665 469.6,709.084 518.897,854.451 568.194,974.967 617.492,1073.64 666.789,1153.28 716.086,1216.51 765.383,1265.76 814.681,1303.25 863.978,1331.02 913.275,1350.91 962.573,1364.58 1011.87,1373.47 1061.17,1378.86 1110.46,1381.8 1159.76,1383.16 1209.06,1383.63 1258.36,1383.69 1307.65,1383.63 1356.95,1383.55 1406.25,1383.35 1455.55,1382.73 1504.84,1381.22 1554.14,1378.13 1603.44,1372.58 1652.73,1363.52 1702.03,1349.67 1751.33,1329.58 1800.63,1301.61 1849.92,1263.9 1899.22,1214.42 1948.52,1150.94 1997.82,1071.03 2047.11,972.062 2096.41,851.233 2145.71,705.531 2195,531.752 2244.3,326.501 2293.6,86.1857 "/>
<path clip-path="url(#clip310)" d="M332.225 248.629 L791.73 248.629 L791.73 93.1086 L332.225 93.1086  Z" fill="#ffffff" fill-rule="evenodd" fill-opacity="1"/>
<polyline clip-path="url(#clip310)" style="stroke:#000000; stroke-linecap:round; stroke-linejoin:round; stroke-width:4; stroke-opacity:1; fill:none" points="332.225,248.629 791.73,248.629 791.73,93.1086 332.225,93.1086 332.225,248.629 "/>
<polyline clip-path="url(#clip310)" style="stroke:#009af9; stroke-linecap:round; stroke-linejoin:round; stroke-width:8; stroke-opacity:1; fill:none" points="355.449,144.949 494.796,144.949 "/>
<path clip-path="url(#clip310)" d="M542.048 148.201 L542.048 150.284 L522.465 150.284 Q522.743 154.682 525.104 156.997 Q527.488 159.289 531.724 159.289 Q534.178 159.289 536.47 158.687 Q538.784 158.085 541.053 156.881 L541.053 160.909 Q538.761 161.881 536.354 162.391 Q533.947 162.9 531.47 162.9 Q525.266 162.9 521.632 159.289 Q518.021 155.678 518.021 149.52 Q518.021 143.155 521.447 139.428 Q524.896 135.678 530.729 135.678 Q535.96 135.678 538.993 139.057 Q542.048 142.414 542.048 148.201 M537.789 146.951 Q537.743 143.456 535.822 141.372 Q533.923 139.289 530.775 139.289 Q527.21 139.289 525.058 141.303 Q522.928 143.317 522.604 146.974 L537.789 146.951 Z" fill="#000000" fill-rule="nonzero" fill-opacity="1" /><path clip-path="url(#clip310)" d="M566.701 127.669 L579.27 140.562 L574.618 140.562 L564.432 131.419 L554.247 140.562 L549.595 140.562 L562.164 127.669 L566.701 127.669 Z" fill="#000000" fill-rule="nonzero" fill-opacity="1" /><path clip-path="url(#clip310)" d="M610.312 136.303 L600.937 148.919 L610.798 162.229 L605.775 162.229 L598.229 152.043 L590.682 162.229 L585.659 162.229 L595.729 148.664 L586.516 136.303 L591.539 136.303 L598.414 145.539 L605.289 136.303 L610.312 136.303 Z" fill="#000000" fill-rule="nonzero" fill-opacity="1" /><polyline clip-path="url(#clip310)" style="stroke:#e26f46; stroke-linecap:round; stroke-linejoin:round; stroke-width:8; stroke-opacity:1; fill:none" points="355.449,196.789 494.796,196.789 "/>
<path clip-path="url(#clip310)" d="M518.021 179.509 L547.257 179.509 L547.257 183.444 L534.988 183.444 L534.988 214.069 L530.289 214.069 L530.289 183.444 L518.021 183.444 L518.021 179.509 Z" fill="#000000" fill-rule="nonzero" fill-opacity="1" /><path clip-path="url(#clip310)" d="M555.52 201.036 Q550.358 201.036 548.368 202.217 Q546.377 203.397 546.377 206.245 Q546.377 208.513 547.858 209.856 Q549.363 211.175 551.933 211.175 Q555.474 211.175 557.604 208.675 Q559.757 206.152 559.757 201.985 L559.757 201.036 L555.52 201.036 M564.016 199.277 L564.016 214.069 L559.757 214.069 L559.757 210.133 Q558.298 212.495 556.122 213.629 Q553.946 214.74 550.798 214.74 Q546.817 214.74 544.456 212.518 Q542.118 210.272 542.118 206.522 Q542.118 202.147 545.034 199.925 Q547.974 197.703 553.784 197.703 L559.757 197.703 L559.757 197.286 Q559.757 194.347 557.812 192.749 Q555.891 191.129 552.395 191.129 Q550.173 191.129 548.067 191.661 Q545.96 192.194 544.016 193.259 L544.016 189.323 Q546.354 188.421 548.553 187.981 Q550.752 187.518 552.835 187.518 Q558.46 187.518 561.238 190.434 Q564.016 193.351 564.016 199.277 Z" fill="#000000" fill-rule="nonzero" fill-opacity="1" /><path clip-path="url(#clip310)" d="M583.576 216.476 Q581.77 221.106 580.057 222.518 Q578.344 223.93 575.474 223.93 L572.071 223.93 L572.071 220.365 L574.571 220.365 Q576.331 220.365 577.303 219.532 Q578.275 218.698 579.456 215.596 L580.219 213.652 L569.733 188.143 L574.247 188.143 L582.349 208.421 L590.451 188.143 L594.965 188.143 L583.576 216.476 Z" fill="#000000" fill-rule="nonzero" fill-opacity="1" /><path clip-path="url(#clip310)" d="M600.844 178.05 L605.104 178.05 L605.104 214.069 L600.844 214.069 L600.844 178.05 Z" fill="#000000" fill-rule="nonzero" fill-opacity="1" /><path clip-path="url(#clip310)" d="M624.062 191.129 Q620.636 191.129 618.645 193.814 Q616.654 196.476 616.654 201.129 Q616.654 205.782 618.622 208.467 Q620.613 211.129 624.062 211.129 Q627.465 211.129 629.455 208.444 Q631.446 205.758 631.446 201.129 Q631.446 196.522 629.455 193.837 Q627.465 191.129 624.062 191.129 M624.062 187.518 Q629.617 187.518 632.789 191.129 Q635.96 194.74 635.96 201.129 Q635.96 207.495 632.789 211.129 Q629.617 214.74 624.062 214.74 Q618.483 214.74 615.312 211.129 Q612.164 207.495 612.164 201.129 Q612.164 194.74 615.312 191.129 Q618.483 187.518 624.062 187.518 Z" fill="#000000" fill-rule="nonzero" fill-opacity="1" /><path clip-path="url(#clip310)" d="M658.043 192.124 Q657.325 191.708 656.469 191.522 Q655.636 191.314 654.617 191.314 Q651.006 191.314 649.062 193.675 Q647.14 196.013 647.14 200.411 L647.14 214.069 L642.858 214.069 L642.858 188.143 L647.14 188.143 L647.14 192.171 Q648.483 189.809 650.636 188.675 Q652.788 187.518 655.867 187.518 Q656.307 187.518 656.839 187.587 Q657.372 187.634 658.02 187.749 L658.043 192.124 Z" fill="#000000" fill-rule="nonzero" fill-opacity="1" /><path clip-path="url(#clip310)" d="M699.756 200.041 L699.756 202.124 L680.173 202.124 Q680.45 206.522 682.811 208.837 Q685.196 211.129 689.432 211.129 Q691.885 211.129 694.177 210.527 Q696.492 209.925 698.76 208.721 L698.76 212.749 Q696.469 213.721 694.061 214.231 Q691.654 214.74 689.177 214.74 Q682.974 214.74 679.339 211.129 Q675.728 207.518 675.728 201.36 Q675.728 194.995 679.154 191.268 Q682.603 187.518 688.436 187.518 Q693.668 187.518 696.7 190.897 Q699.756 194.254 699.756 200.041 M695.497 198.791 Q695.45 195.296 693.529 193.212 Q691.631 191.129 688.483 191.129 Q684.918 191.129 682.765 193.143 Q680.636 195.157 680.311 198.814 L695.497 198.791 Z" fill="#000000" fill-rule="nonzero" fill-opacity="1" /><path clip-path="url(#clip310)" d="M724.408 179.509 L736.978 192.402 L732.325 192.402 L722.14 183.259 L711.955 192.402 L707.302 192.402 L719.871 179.509 L724.408 179.509 Z" fill="#000000" fill-rule="nonzero" fill-opacity="1" /><path clip-path="url(#clip310)" d="M768.019 188.143 L758.644 200.759 L768.505 214.069 L763.482 214.069 L755.936 203.883 L748.39 214.069 L743.367 214.069 L753.436 200.504 L744.223 188.143 L749.246 188.143 L756.121 197.379 L762.996 188.143 L768.019 188.143 Z" fill="#000000" fill-rule="nonzero" fill-opacity="1" /></svg>