<?xml version="1.0" encoding="utf-8"?>
<svg xmlns="http://www.w3.org/2000/svg" xmlns:xlink="http://www.w3.org/1999/xlink" width="600" height="400" viewBox="0 0 2400 1600">
<defs>
  <clipPath id="clip510">
    <rect x="0" y="0" width="2400" height="1600"/>
  </clipPath>
</defs>
<path clip-path="url(#clip510)" d="M0 1600 L2400 1600 L2400 0 L0 0  Z" fill="#ffffff" fill-rule="evenodd" fill-opacity="1"/>
<defs>
  <clipPath id="clip511">
    <rect x="480" y="0" width="1681" height="1600"/>
  </clipPath>
</defs>
<path clip-path="url(#clip510)" d="M149.191 1486.45 L2352.76 1486.45 L2352.76 47.2441 L149.191 47.2441  Z" fill="#ffffff" fill-rule="evenodd" fill-opacity="1"/>
<defs>
  <clipPath id="clip512">
    <rect x="149" y="47" width="2205" height="1440"/>
  </clipPath>
</defs>
<polyline clip-path="url(#clip512)" style="stroke:#000000; stroke-linecap:round; stroke-linejoin:round; stroke-width:2; stroke-opacity:0.1; fill:none" points="181.431,1486.45 181.431,47.2441 "/>
<polyline clip-path="url(#clip512)" style="stroke:#000000; stroke-linecap:round; stroke-linejoin:round; stroke-width:2; stroke-opacity:0.1; fill:none" points="636.495,1486.45 636.495,47.2441 "/>
<polyline clip-path="url(#clip512)" style="stroke:#000000; stroke-linecap:round; stroke-linejoin:round; stroke-width:2; stroke-opacity:0.1; fill:none" points="1091.56,1486.45 1091.56,47.2441 "/>
<polyline clip-path="url(#clip512)" style="stroke:#000000; stroke-linecap:round; stroke-linejoin:round; stroke-width:2; stroke-opacity:0.1; fill:none" points="1546.62,1486.45 1546.62,47.2441 "/>
<polyline clip-path="url(#clip512)" style="stroke:#000000; stroke-linecap:round; stroke-linejoin:round; stroke-width:2; stroke-opacity:0.1; fill:none" points="2001.69,1486.45 2001.69,47.2441 "/>
<polyline clip-path="url(#clip510)" style="stroke:#000000; stroke-linecap:round; stroke-linejoin:round; stroke-width:4; stroke-opacity:1; fill:none" points="149.191,1486.45 2352.76,1486.45 "/>
<polyline clip-path="url(#clip510)" style="stroke:#000000; stroke-linecap:round; stroke-linejoin:round; stroke-width:4; stroke-opacity:1; fill:none" points="181.431,1486.45 181.431,1467.55 "/>
<polyline clip-path="url(#clip510)" style="stroke:#000000; stroke-linecap:round; stroke-linejoin:round; stroke-width:4; stroke-opacity:1; fill:none" points="636.495,1486.45 636.495,1467.55 "/>
<polyline clip-path="url(#clip510)" style="stroke:#000000; stroke-linecap:round; stroke-linejoin:round; stroke-width:4; stroke-opacity:1; fill:none" points="1091.56,1486.45 1091.56,1467.55 "/>
<polyline clip-path="url(#clip510)" style="stroke:#000000; stroke-linecap:round; stroke-linejoin:round; stroke-width:4; stroke-opacity:1; fill:none" points="1546.62,1486.45 1546.62,1467.55 "/>
<polyline clip-path="url(#clip510)" style="stroke:#000000; stroke-linecap:round; stroke-linejoin:round; stroke-width:4; stroke-opacity:1; fill:none" points="2001.69,1486.45 2001.69,1467.55 "/>
<path clip-path="url(#clip510)" d="M127.959 1532.02 L157.635 1532.02 L157.635 1535.95 L127.959 1535.95 L127.959 1532.02 Z" fill="#000000" fill-rule="nonzero" fill-opacity="1" /><path clip-path="url(#clip510)" d="M167.774 1514.29 L186.13 1514.29 L186.13 1518.22 L172.056 1518.22 L172.056 1526.7 Q173.074 1526.35 174.093 1526.19 Q175.111 1526 176.13 1526 Q181.917 1526 185.297 1529.17 Q188.676 1532.34 188.676 1537.76 Q188.676 1543.34 185.204 1546.44 Q181.732 1549.52 175.412 1549.52 Q173.236 1549.52 170.968 1549.15 Q168.723 1548.78 166.315 1548.04 L166.315 1543.34 Q168.399 1544.47 170.621 1545.03 Q172.843 1545.58 175.32 1545.58 Q179.324 1545.58 181.662 1543.48 Q184 1541.37 184 1537.76 Q184 1534.15 181.662 1532.04 Q179.324 1529.94 175.32 1529.94 Q173.445 1529.94 171.57 1530.35 Q169.718 1530.77 167.774 1531.65 L167.774 1514.29 Z" fill="#000000" fill-rule="nonzero" fill-opacity="1" /><path clip-path="url(#clip510)" d="M197.889 1542.97 L202.773 1542.97 L202.773 1548.85 L197.889 1548.85 L197.889 1542.97 Z" fill="#000000" fill-rule="nonzero" fill-opacity="1" /><path clip-path="url(#clip510)" d="M222.958 1517.37 Q219.347 1517.37 217.519 1520.93 Q215.713 1524.47 215.713 1531.6 Q215.713 1538.71 217.519 1542.27 Q219.347 1545.82 222.958 1545.82 Q226.593 1545.82 228.398 1542.27 Q230.227 1538.71 230.227 1531.6 Q230.227 1524.47 228.398 1520.93 Q226.593 1517.37 222.958 1517.37 M222.958 1513.66 Q228.769 1513.66 231.824 1518.27 Q234.903 1522.85 234.903 1531.6 Q234.903 1540.33 231.824 1544.94 Q228.769 1549.52 222.958 1549.52 Q217.148 1549.52 214.07 1544.94 Q211.014 1540.33 211.014 1531.6 Q211.014 1522.85 214.07 1518.27 Q217.148 1513.66 222.958 1513.66 Z" fill="#000000" fill-rule="nonzero" fill-opacity="1" /><path clip-path="url(#clip510)" d="M583.521 1532.02 L613.196 1532.02 L613.196 1535.95 L583.521 1535.95 L583.521 1532.02 Z" fill="#000000" fill-rule="nonzero" fill-opacity="1" /><path clip-path="url(#clip510)" d="M627.317 1544.91 L643.636 1544.91 L643.636 1548.85 L621.692 1548.85 L621.692 1544.91 Q624.354 1542.16 628.937 1537.53 Q633.544 1532.88 634.724 1531.53 Q636.969 1529.01 637.849 1527.27 Q638.752 1525.51 638.752 1523.82 Q638.752 1521.07 636.807 1519.33 Q634.886 1517.6 631.784 1517.6 Q629.585 1517.6 627.132 1518.36 Q624.701 1519.13 621.923 1520.68 L621.923 1515.95 Q624.747 1514.82 627.201 1514.24 Q629.655 1513.66 631.692 1513.66 Q637.062 1513.66 640.256 1516.35 Q643.451 1519.03 643.451 1523.52 Q643.451 1525.65 642.641 1527.57 Q641.854 1529.47 639.747 1532.07 Q639.168 1532.74 636.067 1535.95 Q632.965 1539.15 627.317 1544.91 Z" fill="#000000" fill-rule="nonzero" fill-opacity="1" /><path clip-path="url(#clip510)" d="M653.451 1542.97 L658.335 1542.97 L658.335 1548.85 L653.451 1548.85 L653.451 1542.97 Z" fill="#000000" fill-rule="nonzero" fill-opacity="1" /><path clip-path="url(#clip510)" d="M668.566 1514.29 L686.923 1514.29 L686.923 1518.22 L672.849 1518.22 L672.849 1526.7 Q673.867 1526.35 674.886 1526.19 Q675.904 1526 676.923 1526 Q682.71 1526 686.09 1529.17 Q689.469 1532.34 689.469 1537.76 Q689.469 1543.34 685.997 1546.44 Q682.525 1549.52 676.205 1549.52 Q674.029 1549.52 671.761 1549.15 Q669.516 1548.78 667.108 1548.04 L667.108 1543.34 Q669.191 1544.47 671.414 1545.03 Q673.636 1545.58 676.113 1545.58 Q680.117 1545.58 682.455 1543.48 Q684.793 1541.37 684.793 1537.76 Q684.793 1534.15 682.455 1532.04 Q680.117 1529.94 676.113 1529.94 Q674.238 1529.94 672.363 1530.35 Q670.511 1530.77 668.566 1531.65 L668.566 1514.29 Z" fill="#000000" fill-rule="nonzero" fill-opacity="1" /><path clip-path="url(#clip510)" d="M1068.94 1517.37 Q1065.33 1517.37 1063.5 1520.93 Q1061.7 1524.47 1061.7 1531.6 Q1061.7 1538.71 1063.5 1542.27 Q1065.33 1545.82 1068.94 1545.82 Q1072.58 1545.82 1074.38 1542.27 Q1076.21 1538.71 1076.21 1531.6 Q1076.21 1524.47 1074.38 1520.93 Q1072.58 1517.37 1068.94 1517.37 M1068.94 1513.66 Q1074.75 1513.66 1077.81 1518.27 Q1080.89 1522.85 1080.89 1531.6 Q1080.89 1540.33 1077.81 1544.94 Q1074.75 1549.52 1068.94 1549.52 Q1063.13 1549.52 1060.05 1544.94 Q1057 1540.33 1057 1531.6 Q1057 1522.85 1060.05 1518.27 Q1063.13 1513.66 1068.94 1513.66 Z" fill="#000000" fill-rule="nonzero" fill-opacity="1" /><path clip-path="url(#clip510)" d="M1089.11 1542.97 L1093.99 1542.97 L1093.99 1548.85 L1089.11 1548.85 L1089.11 1542.97 Z" fill="#000000" fill-rule="nonzero" fill-opacity="1" /><path clip-path="url(#clip510)" d="M1114.17 1517.37 Q1110.56 1517.37 1108.73 1520.93 Q1106.93 1524.47 1106.93 1531.6 Q1106.93 1538.71 1108.73 1542.27 Q1110.56 1545.82 1114.17 1545.82 Q1117.81 1545.82 1119.61 1542.27 Q1121.44 1538.71 1121.44 1531.6 Q1121.44 1524.47 1119.61 1520.93 Q1117.81 1517.37 1114.17 1517.37 M1114.17 1513.66 Q1119.98 1513.66 1123.04 1518.27 Q1126.12 1522.85 1126.12 1531.6 Q1126.12 1540.33 1123.04 1544.94 Q1119.98 1549.52 1114.17 1549.52 Q1108.36 1549.52 1105.29 1544.94 Q1102.23 1540.33 1102.23 1531.6 Q1102.23 1522.85 1105.29 1518.27 Q1108.36 1513.66 1114.17 1513.66 Z" fill="#000000" fill-rule="nonzero" fill-opacity="1" /><path clip-path="url(#clip510)" d="M1518.36 1544.91 L1534.68 1544.91 L1534.68 1548.85 L1512.73 1548.85 L1512.73 1544.91 Q1515.4 1542.16 1519.98 1537.53 Q1524.59 1532.88 1525.77 1531.53 Q1528.01 1529.01 1528.89 1527.27 Q1529.79 1525.51 1529.79 1523.82 Q1529.79 1521.07 1527.85 1519.33 Q1525.93 1517.6 1522.83 1517.6 Q1520.63 1517.6 1518.17 1518.36 Q1515.74 1519.13 1512.97 1520.68 L1512.97 1515.95 Q1515.79 1514.82 1518.24 1514.24 Q1520.7 1513.66 1522.73 1513.66 Q1528.1 1513.66 1531.3 1516.35 Q1534.49 1519.03 1534.49 1523.52 Q1534.49 1525.65 1533.68 1527.57 Q1532.9 1529.47 1530.79 1532.07 Q1530.21 1532.74 1527.11 1535.95 Q1524.01 1539.15 1518.36 1544.91 Z" fill="#000000" fill-rule="nonzero" fill-opacity="1" /><path clip-path="url(#clip510)" d="M1544.49 1542.97 L1549.38 1542.97 L1549.38 1548.85 L1544.49 1548.85 L1544.49 1542.97 Z" fill="#000000" fill-rule="nonzero" fill-opacity="1" /><path clip-path="url(#clip510)" d="M1559.61 1514.29 L1577.97 1514.29 L1577.97 1518.22 L1563.89 1518.22 L1563.89 1526.7 Q1564.91 1526.35 1565.93 1526.19 Q1566.95 1526 1567.97 1526 Q1573.75 1526 1577.13 1529.17 Q1580.51 1532.34 1580.51 1537.76 Q1580.51 1543.34 1577.04 1546.44 Q1573.57 1549.52 1567.25 1549.52 Q1565.07 1549.52 1562.8 1549.15 Q1560.56 1548.78 1558.15 1548.04 L1558.15 1543.34 Q1560.23 1544.47 1562.46 1545.03 Q1564.68 1545.58 1567.16 1545.58 Q1571.16 1545.58 1573.5 1543.48 Q1575.84 1541.37 1575.84 1537.76 Q1575.84 1534.15 1573.5 1532.04 Q1571.16 1529.94 1567.16 1529.94 Q1565.28 1529.94 1563.41 1530.35 Q1561.55 1530.77 1559.61 1531.65 L1559.61 1514.29 Z" fill="#000000" fill-rule="nonzero" fill-opacity="1" /><path clip-path="url(#clip510)" d="M1968.85 1514.29 L1987.21 1514.29 L1987.21 1518.22 L1973.13 1518.22 L1973.13 1526.7 Q1974.15 1526.35 1975.17 1526.19 Q1976.19 1526 1977.21 1526 Q1982.99 1526 1986.37 1529.17 Q1989.75 1532.34 1989.75 1537.76 Q1989.75 1543.34 1986.28 1546.44 Q1982.81 1549.52 1976.49 1549.52 Q1974.31 1549.52 1972.05 1549.15 Q1969.8 1548.78 1967.39 1548.04 L1967.39 1543.34 Q1969.48 1544.47 1971.7 1545.03 Q1973.92 1545.58 1976.4 1545.58 Q1980.4 1545.58 1982.74 1543.48 Q1985.08 1541.37 1985.08 1537.76 Q1985.08 1534.15 1982.74 1532.04 Q1980.4 1529.94 1976.4 1529.94 Q1974.52 1529.94 1972.65 1530.35 Q1970.8 1530.77 1968.85 1531.65 L1968.85 1514.29 Z" fill="#000000" fill-rule="nonzero" fill-opacity="1" /><path clip-path="url(#clip510)" d="M1998.97 1542.97 L2003.85 1542.97 L2003.85 1548.85 L1998.97 1548.85 L1998.97 1542.97 Z" fill="#000000" fill-rule="nonzero" fill-opacity="1" /><path clip-path="url(#clip510)" d="M2024.04 1517.37 Q2020.43 1517.37 2018.6 1520.93 Q2016.79 1524.47 2016.79 1531.6 Q2016.79 1538.71 2018.6 1542.27 Q2020.43 1545.82 2024.04 1545.82 Q2027.67 1545.82 2029.48 1542.27 Q2031.3 1538.71 2031.3 1531.6 Q2031.3 1524.47 2029.48 1520.93 Q2027.67 1517.37 2024.04 1517.37 M2024.04 1513.66 Q2029.85 1513.66 2032.9 1518.27 Q2035.98 1522.85 2035.98 1531.6 Q2035.98 1540.33 2032.9 1544.94 Q2029.85 1549.52 2024.04 1549.52 Q2018.23 1549.52 2015.15 1544.94 Q2012.09 1540.33 2012.09 1531.6 Q2012.09 1522.85 2015.15 1518.27 Q2018.23 1513.66 2024.04 1513.66 Z" fill="#000000" fill-rule="nonzero" fill-opacity="1" /><polyline clip-path="url(#clip512)" style="stroke:#000000; stroke-linecap:round; stroke-linejoin:round; stroke-width:2; stroke-opacity:0.1; fill:none" points="149.191,1216.7 2352.76,1216.7 "/>
<polyline clip-path="url(#clip512)" style="stroke:#000000; stroke-linecap:round; stroke-linejoin:round; stroke-width:2; stroke-opacity:0.1; fill:none" points="149.191,938.959 2352.76,938.959 "/>
<polyline clip-path="url(#clip512)" style="stroke:#000000; stroke-linecap:round; stroke-linejoin:round; stroke-width:2; stroke-opacity:0.1; fill:none" points="149.191,661.218 2352.76,661.218 "/>
<polyline clip-path="url(#clip512)" style="stroke:#000000; stroke-linecap:round; stroke-linejoin:round; stroke-width:2; stroke-opacity:0.1; fill:none" points="149.191,383.477 2352.76,383.477 "/>
<polyline clip-path="url(#clip512)" style="stroke:#000000; stroke-linecap:round; stroke-linejoin:round; stroke-width:2; stroke-opacity:0.1; fill:none" points="149.191,105.736 2352.76,105.736 "/>
<polyline clip-path="url(#clip510)" style="stroke:#000000; stroke-linecap:round; stroke-linejoin:round; stroke-width:4; stroke-opacity:1; fill:none" points="149.191,1486.45 149.191,47.2441 "/>
<polyline clip-path="url(#clip510)" style="stroke:#000000; stroke-linecap:round; stroke-linejoin:round; stroke-width:4; stroke-opacity:1; fill:none" points="149.191,1216.7 168.089,1216.7 "/>
<polyline clip-path="url(#clip510)" style="stroke:#000000; stroke-linecap:round; stroke-linejoin:round; stroke-width:4; stroke-opacity:1; fill:none" points="149.191,938.959 168.089,938.959 "/>
<polyline clip-path="url(#clip510)" style="stroke:#000000; stroke-linecap:round; stroke-linejoin:round; stroke-width:4; stroke-opacity:1; fill:none" points="149.191,661.218 168.089,661.218 "/>
<polyline clip-path="url(#clip510)" style="stroke:#000000; stroke-linecap:round; stroke-linejoin:round; stroke-width:4; stroke-opacity:1; fill:none" points="149.191,383.477 168.089,383.477 "/>
<polyline clip-path="url(#clip510)" style="stroke:#000000; stroke-linecap:round; stroke-linejoin:round; stroke-width:4; stroke-opacity:1; fill:none" points="149.191,105.736 168.089,105.736 "/>
<path clip-path="url(#clip510)" d="M50.9921 1217.15 L80.6679 1217.15 L80.6679 1221.09 L50.9921 1221.09 L50.9921 1217.15 Z" fill="#000000" fill-rule="nonzero" fill-opacity="1" /><path clip-path="url(#clip510)" d="M103.608 1203.49 L91.8021 1221.94 L103.608 1221.94 L103.608 1203.49 M102.381 1199.42 L108.26 1199.42 L108.26 1221.94 L113.191 1221.94 L113.191 1225.83 L108.26 1225.83 L108.26 1233.98 L103.608 1233.98 L103.608 1225.83 L88.0058 1225.83 L88.0058 1221.32 L102.381 1199.42 Z" fill="#000000" fill-rule="nonzero" fill-opacity="1" /><path clip-path="url(#clip510)" d="M53.0754 939.41 L82.7512 939.41 L82.7512 943.345 L53.0754 943.345 L53.0754 939.41 Z" fill="#000000" fill-rule="nonzero" fill-opacity="1" /><path clip-path="url(#clip510)" d="M96.8715 952.303 L113.191 952.303 L113.191 956.239 L91.2465 956.239 L91.2465 952.303 Q93.9086 949.549 98.4919 944.919 Q103.098 940.267 104.279 938.924 Q106.524 936.401 107.404 934.665 Q108.307 932.905 108.307 931.216 Q108.307 928.461 106.362 926.725 Q104.441 924.989 101.339 924.989 Q99.14 924.989 96.6863 925.753 Q94.2558 926.517 91.478 928.067 L91.478 923.345 Q94.3021 922.211 96.7558 921.632 Q99.2095 921.054 101.246 921.054 Q106.617 921.054 109.811 923.739 Q113.006 926.424 113.006 930.915 Q113.006 933.044 112.196 934.966 Q111.408 936.864 109.302 939.456 Q108.723 940.128 105.621 943.345 Q102.52 946.54 96.8715 952.303 Z" fill="#000000" fill-rule="nonzero" fill-opacity="1" /><path clip-path="url(#clip510)" d="M101.246 647.017 Q97.6354 647.017 95.8067 650.581 Q94.0012 654.123 94.0012 661.253 Q94.0012 668.359 95.8067 671.924 Q97.6354 675.465 101.246 675.465 Q104.881 675.465 106.686 671.924 Q108.515 668.359 108.515 661.253 Q108.515 654.123 106.686 650.581 Q104.881 647.017 101.246 647.017 M101.246 643.313 Q107.057 643.313 110.112 647.919 Q113.191 652.503 113.191 661.253 Q113.191 669.979 110.112 674.586 Q107.057 679.169 101.246 679.169 Q95.4363 679.169 92.3576 674.586 Q89.3021 669.979 89.3021 661.253 Q89.3021 652.503 92.3576 647.919 Q95.4363 643.313 101.246 643.313 Z" fill="#000000" fill-rule="nonzero" fill-opacity="1" /><path clip-path="url(#clip510)" d="M96.8715 396.822 L113.191 396.822 L113.191 400.757 L91.2465 400.757 L91.2465 396.822 Q93.9086 394.067 98.4919 389.438 Q103.098 384.785 104.279 383.442 Q106.524 380.919 107.404 379.183 Q108.307 377.424 108.307 375.734 Q108.307 372.979 106.362 371.243 Q104.441 369.507 101.339 369.507 Q99.14 369.507 96.6863 370.271 Q94.2558 371.035 91.478 372.586 L91.478 367.864 Q94.3021 366.729 96.7558 366.151 Q99.2095 365.572 101.246 365.572 Q106.617 365.572 109.811 368.257 Q113.006 370.942 113.006 375.433 Q113.006 377.563 112.196 379.484 Q111.408 381.382 109.302 383.975 Q108.723 384.646 105.621 387.864 Q102.52 391.058 96.8715 396.822 Z" fill="#000000" fill-rule="nonzero" fill-opacity="1" /><path clip-path="url(#clip510)" d="M103.608 92.5302 L91.8021 110.979 L103.608 110.979 L103.608 92.5302 M102.381 88.4562 L108.26 88.4562 L108.26 110.979 L113.191 110.979 L113.191 114.868 L108.26 114.868 L108.26 123.016 L103.608 123.016 L103.608 114.868 L88.0058 114.868 L88.0058 110.354 L102.381 88.4562 Z" fill="#000000" fill-rule="nonzero" fill-opacity="1" /><polyline clip-path="url(#clip512)" style="stroke:#008000; stroke-linecap:round; stroke-linejoin:round; stroke-width:4; stroke-opacity:1; fill:none" points="1273.58,661.218 1273.73,634.431 1267.1,607.602 1253.69,581.725 1233.72,557.803 1207.69,536.799 1176.33,519.609 1140.59,507.021 1101.65,499.682 1060.81,498.068 1019.54,502.461 979.341,512.932 941.76,529.327 908.293,551.265 880.347,578.146 859.174,609.161 845.825,643.316 841.102,679.464 845.513,716.335 859.251,752.587 882.165,786.847 913.76,817.761 953.196,844.052 999.311,864.56 1050.65,878.299 1105.5,884.493 1161.96,882.621 1218,872.439 1271.5,854.002 1320.39,827.677 1362.66,794.137 1396.48,754.349 1420.27,709.552 1432.76,661.218 1433.03,611.008 1420.61,560.717 1395.47,512.213 1358.04,467.371 1309.24,428 1250.45,395.779 1183.47,372.183 1110.46,358.426 1033.92,355.4 956.558,363.636 881.212,383.263 810.767,413.994 748.036,455.116 695.651,505.503 655.963,563.639 630.942,627.662 622.088,695.419 630.358,764.533 656.108,832.485 699.06,896.703 758.282,954.652 832.204,1003.93 918.644,1042.37 1014.87,1068.13 1117.69,1079.74 1223.53,1076.23 1328.56,1057.14 1428.85,1022.58 1520.49,973.238 1599.72,910.369 1663.12,835.788 1707.72,751.818 1731.12,661.218 1731.64,567.101 1708.35,472.833 1661.22,381.915 1591.06,297.86 1499.59,224.062 1389.4,163.664 1263.84,119.435 1127,93.6475 983.527,87.9763 838.506,103.413 697.273,140.204 565.227,197.808 447.64,274.889 349.447,369.337 275.054,478.31 228.153,598.319 211.556,725.326 227.057,854.877 275.325,982.251 355.837,1102.63 466.847,1211.25 605.409,1303.62 767.438,1375.68 947.816,1423.95 1140.54,1445.72 1338.93,1439.14 1535.81,1403.36 1723.8,1338.58 1895.57,1246.09 2044.09,1128.24 2162.93,988.443 2246.53,831.044 2290.39,661.218 "/>
<path clip-path="url(#clip510)" d="M2006.52 198.898 L2279.3 198.898 L2279.3 95.2176 L2006.52 95.2176  Z" fill="#ffffff" fill-rule="evenodd" fill-opacity="1"/>
<polyline clip-path="url(#clip510)" style="stroke:#000000; stroke-linecap:round; stroke-linejoin:round; stroke-width:4; stroke-opacity:1; fill:none" points="2006.52,198.898 2279.3,198.898 2279.3,95.2176 2006.52,95.2176 2006.52,198.898 "/>
<polyline clip-path="url(#clip510)" style="stroke:#008000; stroke-linecap:round; stroke-linejoin:round; stroke-width:4; stroke-opacity:1; fill:none" points="2031,147.058 2177.91,147.058 "/>
<path clip-path="url(#clip510)" d="M2216.23 166.745 Q2214.43 171.375 2212.71 172.787 Q2211 174.199 2208.13 174.199 L2204.73 174.199 L2204.73 170.634 L2207.23 170.634 Q2208.99 170.634 2209.96 169.8 Q2210.93 168.967 2212.11 165.865 L2212.88 163.921 L2202.39 138.412 L2206.9 138.412 L2215.01 158.689 L2223.11 138.412 L2227.62 138.412 L2216.23 166.745 Z" fill="#000000" fill-rule="nonzero" fill-opacity="1" /><path clip-path="url(#clip510)" d="M2234.91 160.402 L2242.55 160.402 L2242.55 134.037 L2234.24 135.703 L2234.24 131.444 L2242.5 129.778 L2247.18 129.778 L2247.18 160.402 L2254.82 160.402 L2254.82 164.338 L2234.91 164.338 L2234.91 160.402 Z" fill="#000000" fill-rule="nonzero" fill-opacity="1" /></svg>