<?xml version="1.0" encoding="utf-8"?>
<svg xmlns="http://www.w3.org/2000/svg" xmlns:xlink="http://www.w3.org/1999/xlink" width="600" height="400" viewBox="0 0 2400 1600">
<defs>
  <clipPath id="clip050">
    <rect x="0" y="0" width="2400" height="1600"/>
  </clipPath>
</defs>
<path clip-path="url(#clip050)" d="M0 1600 L2400 1600 L2400 0 L0 0  Z" fill="#ffffff" fill-rule="evenodd" fill-opacity="1"/>
<defs>
  <clipPath id="clip051">
    <rect x="480" y="0" width="1681" height="1600"/>
  </clipPath>
</defs>
<path clip-path="url(#clip050)" d="M169.121 1486.45 L2352.76 1486.45 L2352.76 47.2441 L169.121 47.2441  Z" fill="#ffffff" fill-rule="evenodd" fill-opacity="1"/>
<defs>
  <clipPath id="clip052">
    <rect x="169" y="47" width="2185" height="1440"/>
  </clipPath>
</defs>
<polyline clip-path="url(#clip052)" style="stroke:#000000; stroke-linecap:round; stroke-linejoin:round; stroke-width:2; stroke-opacity:0.1; fill:none" points="222.445,1486.45 222.445,47.2441 "/>
<polyline clip-path="url(#clip052)" style="stroke:#000000; stroke-linecap:round; stroke-linejoin:round; stroke-width:2; stroke-opacity:0.1; fill:none" points="646.32,1486.45 646.32,47.2441 "/>
<polyline clip-path="url(#clip052)" style="stroke:#000000; stroke-linecap:round; stroke-linejoin:round; stroke-width:2; stroke-opacity:0.1; fill:none" points="1070.19,1486.45 1070.19,47.2441 "/>
<polyline clip-path="url(#clip052)" style="stroke:#000000; stroke-linecap:round; stroke-linejoin:round; stroke-width:2; stroke-opacity:0.1; fill:none" points="1494.07,1486.45 1494.07,47.2441 "/>
<polyline clip-path="url(#clip052)" style="stroke:#000000; stroke-linecap:round; stroke-linejoin:round; stroke-width:2; stroke-opacity:0.1; fill:none" points="1917.94,1486.45 1917.94,47.2441 "/>
<polyline clip-path="url(#clip052)" style="stroke:#000000; stroke-linecap:round; stroke-linejoin:round; stroke-width:2; stroke-opacity:0.1; fill:none" points="2341.82,1486.45 2341.82,47.2441 "/>
<polyline clip-path="url(#clip050)" style="stroke:#000000; stroke-linecap:round; stroke-linejoin:round; stroke-width:4; stroke-opacity:1; fill:none" points="169.121,1486.45 2352.76,1486.45 "/>
<polyline clip-path="url(#clip050)" style="stroke:#000000; stroke-linecap:round; stroke-linejoin:round; stroke-width:4; stroke-opacity:1; fill:none" points="222.445,1486.45 222.445,1467.55 "/>
<polyline clip-path="url(#clip050)" style="stroke:#000000; stroke-linecap:round; stroke-linejoin:round; stroke-width:4; stroke-opacity:1; fill:none" points="646.32,1486.45 646.32,1467.55 "/>
<polyline clip-path="url(#clip050)" style="stroke:#000000; stroke-linecap:round; stroke-linejoin:round; stroke-width:4; stroke-opacity:1; fill:none" points="1070.19,1486.45 1070.19,1467.55 "/>
<polyline clip-path="url(#clip050)" style="stroke:#000000; stroke-linecap:round; stroke-linejoin:round; stroke-width:4; stroke-opacity:1; fill:none" points="1494.07,1486.45 1494.07,1467.55 "/>
<polyline clip-path="url(#clip050)" style="stroke:#000000; stroke-linecap:round; stroke-linejoin:round; stroke-width:4; stroke-opacity:1; fill:none" points="1917.94,1486.45 1917.94,1467.55 "/>
<polyline clip-path="url(#clip050)" style="stroke:#000000; stroke-linecap:round; stroke-linejoin:round; stroke-width:4; stroke-opacity:1; fill:none" points="2341.82,1486.45 2341.82,1467.55 "/>
<path clip-path="url(#clip050)" d="M222.445 1517.37 Q218.834 1517.37 217.005 1520.93 Q215.199 1524.47 215.199 1531.6 Q215.199 1538.71 217.005 1542.27 Q218.834 1545.82 222.445 1545.82 Q226.079 1545.82 227.885 1542.27 Q229.713 1538.71 229.713 1531.6 Q229.713 1524.47 227.885 1520.93 Q226.079 1517.37 222.445 1517.37 M222.445 1513.66 Q228.255 1513.66 231.31 1518.27 Q234.389 1522.85 234.389 1531.6 Q234.389 1540.33 231.31 1544.94 Q228.255 1549.52 222.445 1549.52 Q216.635 1549.52 213.556 1544.94 Q210.5 1540.33 210.5 1531.6 Q210.5 1522.85 213.556 1518.27 Q216.635 1513.66 222.445 1513.66 Z" fill="#000000" fill-rule="nonzero" fill-opacity="1" /><path clip-path="url(#clip050)" d="M621.019 1514.29 L639.375 1514.29 L639.375 1518.22 L625.301 1518.22 L625.301 1526.7 Q626.32 1526.35 627.338 1526.19 Q628.357 1526 629.375 1526 Q635.162 1526 638.542 1529.17 Q641.922 1532.34 641.922 1537.76 Q641.922 1543.34 638.449 1546.44 Q634.977 1549.52 628.658 1549.52 Q626.482 1549.52 624.213 1549.15 Q621.968 1548.78 619.561 1548.04 L619.561 1543.34 Q621.644 1544.47 623.866 1545.03 Q626.088 1545.58 628.565 1545.58 Q632.57 1545.58 634.908 1543.48 Q637.246 1541.37 637.246 1537.76 Q637.246 1534.15 634.908 1532.04 Q632.57 1529.94 628.565 1529.94 Q626.69 1529.94 624.815 1530.35 Q622.963 1530.77 621.019 1531.65 L621.019 1514.29 Z" fill="#000000" fill-rule="nonzero" fill-opacity="1" /><path clip-path="url(#clip050)" d="M661.135 1517.37 Q657.523 1517.37 655.695 1520.93 Q653.889 1524.47 653.889 1531.6 Q653.889 1538.71 655.695 1542.27 Q657.523 1545.82 661.135 1545.82 Q664.769 1545.82 666.574 1542.27 Q668.403 1538.71 668.403 1531.6 Q668.403 1524.47 666.574 1520.93 Q664.769 1517.37 661.135 1517.37 M661.135 1513.66 Q666.945 1513.66 670 1518.27 Q673.079 1522.85 673.079 1531.6 Q673.079 1540.33 670 1544.94 Q666.945 1549.52 661.135 1549.52 Q655.324 1549.52 652.246 1544.94 Q649.19 1540.33 649.19 1531.6 Q649.19 1522.85 652.246 1518.27 Q655.324 1513.66 661.135 1513.66 Z" fill="#000000" fill-rule="nonzero" fill-opacity="1" /><path clip-path="url(#clip050)" d="M1029.8 1544.91 L1037.44 1544.91 L1037.44 1518.55 L1029.13 1520.21 L1029.13 1515.95 L1037.39 1514.29 L1042.07 1514.29 L1042.07 1544.91 L1049.71 1544.91 L1049.71 1548.85 L1029.8 1548.85 L1029.8 1544.91 Z" fill="#000000" fill-rule="nonzero" fill-opacity="1" /><path clip-path="url(#clip050)" d="M1069.15 1517.37 Q1065.54 1517.37 1063.71 1520.93 Q1061.91 1524.47 1061.91 1531.6 Q1061.91 1538.71 1063.71 1542.27 Q1065.54 1545.82 1069.15 1545.82 Q1072.79 1545.82 1074.59 1542.27 Q1076.42 1538.71 1076.42 1531.6 Q1076.42 1524.47 1074.59 1520.93 Q1072.79 1517.37 1069.15 1517.37 M1069.15 1513.66 Q1074.96 1513.66 1078.02 1518.27 Q1081.1 1522.85 1081.1 1531.6 Q1081.1 1540.33 1078.02 1544.94 Q1074.96 1549.52 1069.15 1549.52 Q1063.34 1549.52 1060.26 1544.94 Q1057.21 1540.33 1057.21 1531.6 Q1057.21 1522.85 1060.26 1518.27 Q1063.34 1513.66 1069.15 1513.66 Z" fill="#000000" fill-rule="nonzero" fill-opacity="1" /><path clip-path="url(#clip050)" d="M1099.32 1517.37 Q1095.7 1517.37 1093.88 1520.93 Q1092.07 1524.47 1092.07 1531.6 Q1092.07 1538.71 1093.88 1542.27 Q1095.7 1545.82 1099.32 1545.82 Q1102.95 1545.82 1104.75 1542.27 Q1106.58 1538.71 1106.58 1531.6 Q1106.58 1524.47 1104.75 1520.93 Q1102.95 1517.37 1099.32 1517.37 M1099.32 1513.66 Q1105.13 1513.66 1108.18 1518.27 Q1111.26 1522.85 1111.26 1531.6 Q1111.26 1540.33 1108.18 1544.94 Q1105.13 1549.52 1099.32 1549.52 Q1093.5 1549.52 1090.43 1544.94 Q1087.37 1540.33 1087.37 1531.6 Q1087.37 1522.85 1090.43 1518.27 Q1093.5 1513.66 1099.32 1513.66 Z" fill="#000000" fill-rule="nonzero" fill-opacity="1" /><path clip-path="url(#clip050)" d="M1453.68 1544.91 L1461.32 1544.91 L1461.32 1518.55 L1453.01 1520.21 L1453.01 1515.95 L1461.27 1514.29 L1465.95 1514.29 L1465.95 1544.91 L1473.58 1544.91 L1473.58 1548.85 L1453.68 1548.85 L1453.68 1544.91 Z" fill="#000000" fill-rule="nonzero" fill-opacity="1" /><path clip-path="url(#clip050)" d="M1483.07 1514.29 L1501.43 1514.29 L1501.43 1518.22 L1487.36 1518.22 L1487.36 1526.7 Q1488.38 1526.35 1489.39 1526.19 Q1490.41 1526 1491.43 1526 Q1497.22 1526 1500.6 1529.17 Q1503.98 1532.34 1503.98 1537.76 Q1503.98 1543.34 1500.51 1546.44 Q1497.03 1549.52 1490.71 1549.52 Q1488.54 1549.52 1486.27 1549.15 Q1484.02 1548.78 1481.62 1548.04 L1481.62 1543.34 Q1483.7 1544.47 1485.92 1545.03 Q1488.14 1545.58 1490.62 1545.58 Q1494.63 1545.58 1496.96 1543.48 Q1499.3 1541.37 1499.3 1537.76 Q1499.3 1534.15 1496.96 1532.04 Q1494.63 1529.94 1490.62 1529.94 Q1488.75 1529.94 1486.87 1530.35 Q1485.02 1530.77 1483.07 1531.65 L1483.07 1514.29 Z" fill="#000000" fill-rule="nonzero" fill-opacity="1" /><path clip-path="url(#clip050)" d="M1523.19 1517.37 Q1519.58 1517.37 1517.75 1520.93 Q1515.94 1524.47 1515.94 1531.6 Q1515.94 1538.71 1517.75 1542.27 Q1519.58 1545.82 1523.19 1545.82 Q1526.82 1545.82 1528.63 1542.27 Q1530.46 1538.71 1530.46 1531.6 Q1530.46 1524.47 1528.63 1520.93 Q1526.82 1517.37 1523.19 1517.37 M1523.19 1513.66 Q1529 1513.66 1532.06 1518.27 Q1535.13 1522.85 1535.13 1531.6 Q1535.13 1540.33 1532.06 1544.94 Q1529 1549.52 1523.19 1549.52 Q1517.38 1549.52 1514.3 1544.94 Q1511.25 1540.33 1511.25 1531.6 Q1511.25 1522.85 1514.3 1518.27 Q1517.38 1513.66 1523.19 1513.66 Z" fill="#000000" fill-rule="nonzero" fill-opacity="1" /><path clip-path="url(#clip050)" d="M1881.64 1544.91 L1897.96 1544.91 L1897.96 1548.85 L1876.01 1548.85 L1876.01 1544.91 Q1878.67 1542.16 1883.26 1537.53 Q1887.86 1532.88 1889.04 1531.53 Q1891.29 1529.01 1892.17 1527.27 Q1893.07 1525.51 1893.07 1523.82 Q1893.07 1521.07 1891.13 1519.33 Q1889.21 1517.6 1886.1 1517.6 Q1883.91 1517.6 1881.45 1518.36 Q1879.02 1519.13 1876.24 1520.68 L1876.24 1515.95 Q1879.07 1514.82 1881.52 1514.24 Q1883.98 1513.66 1886.01 1513.66 Q1891.38 1513.66 1894.58 1516.35 Q1897.77 1519.03 1897.77 1523.52 Q1897.77 1525.65 1896.96 1527.57 Q1896.17 1529.47 1894.07 1532.07 Q1893.49 1532.74 1890.39 1535.95 Q1887.29 1539.15 1881.64 1544.91 Z" fill="#000000" fill-rule="nonzero" fill-opacity="1" /><path clip-path="url(#clip050)" d="M1917.77 1517.37 Q1914.16 1517.37 1912.33 1520.93 Q1910.53 1524.47 1910.53 1531.6 Q1910.53 1538.71 1912.33 1542.27 Q1914.16 1545.82 1917.77 1545.82 Q1921.41 1545.82 1923.21 1542.27 Q1925.04 1538.71 1925.04 1531.6 Q1925.04 1524.47 1923.21 1520.93 Q1921.41 1517.37 1917.77 1517.37 M1917.77 1513.66 Q1923.58 1513.66 1926.64 1518.27 Q1929.72 1522.85 1929.72 1531.6 Q1929.72 1540.33 1926.64 1544.94 Q1923.58 1549.52 1917.77 1549.52 Q1911.96 1549.52 1908.88 1544.94 Q1905.83 1540.33 1905.83 1531.6 Q1905.83 1522.85 1908.88 1518.27 Q1911.96 1513.66 1917.77 1513.66 Z" fill="#000000" fill-rule="nonzero" fill-opacity="1" /><path clip-path="url(#clip050)" d="M1947.93 1517.37 Q1944.32 1517.37 1942.49 1520.93 Q1940.69 1524.47 1940.69 1531.6 Q1940.69 1538.71 1942.49 1542.27 Q1944.32 1545.82 1947.93 1545.82 Q1951.57 1545.82 1953.37 1542.27 Q1955.2 1538.71 1955.2 1531.6 Q1955.2 1524.47 1953.37 1520.93 Q1951.57 1517.37 1947.93 1517.37 M1947.93 1513.66 Q1953.74 1513.66 1956.8 1518.27 Q1959.88 1522.85 1959.88 1531.6 Q1959.88 1540.33 1956.8 1544.94 Q1953.74 1549.52 1947.93 1549.52 Q1942.12 1549.52 1939.04 1544.94 Q1935.99 1540.33 1935.99 1531.6 Q1935.99 1522.85 1939.04 1518.27 Q1942.12 1513.66 1947.93 1513.66 Z" fill="#000000" fill-rule="nonzero" fill-opacity="1" /><path clip-path="url(#clip050)" d="M2305.51 1544.91 L2321.83 1544.91 L2321.83 1548.85 L2299.89 1548.85 L2299.89 1544.91 Q2302.55 1542.16 2307.13 1537.53 Q2311.74 1532.88 2312.92 1531.53 Q2315.16 1529.01 2316.04 1527.27 Q2316.95 1525.51 2316.95 1523.82 Q2316.95 1521.07 2315 1519.33 Q2313.08 1517.6 2309.98 1517.6 Q2307.78 1517.6 2305.33 1518.36 Q2302.9 1519.13 2300.12 1520.68 L2300.12 1515.95 Q2302.94 1514.82 2305.4 1514.24 Q2307.85 1513.66 2309.89 1513.66 Q2315.26 1513.66 2318.45 1516.35 Q2321.65 1519.03 2321.65 1523.52 Q2321.65 1525.65 2320.84 1527.57 Q2320.05 1529.47 2317.94 1532.07 Q2317.36 1532.74 2314.26 1535.95 Q2311.16 1539.15 2305.51 1544.91 Z" fill="#000000" fill-rule="nonzero" fill-opacity="1" /><path clip-path="url(#clip050)" d="M2331.69 1514.29 L2350.05 1514.29 L2350.05 1518.22 L2335.98 1518.22 L2335.98 1526.7 Q2336.99 1526.35 2338.01 1526.19 Q2339.03 1526 2340.05 1526 Q2345.84 1526 2349.22 1529.17 Q2352.6 1532.34 2352.6 1537.76 Q2352.6 1543.34 2349.12 1546.44 Q2345.65 1549.52 2339.33 1549.52 Q2337.16 1549.52 2334.89 1549.15 Q2332.64 1548.78 2330.23 1548.04 L2330.23 1543.34 Q2332.32 1544.47 2334.54 1545.03 Q2336.76 1545.58 2339.24 1545.58 Q2343.24 1545.58 2345.58 1543.48 Q2347.92 1541.37 2347.92 1537.76 Q2347.92 1534.15 2345.58 1532.04 Q2343.24 1529.94 2339.24 1529.94 Q2337.36 1529.94 2335.49 1530.35 Q2333.64 1530.77 2331.69 1531.65 L2331.69 1514.29 Z" fill="#000000" fill-rule="nonzero" fill-opacity="1" /><path clip-path="url(#clip050)" d="M2371.81 1517.37 Q2368.2 1517.37 2366.37 1520.93 Q2364.56 1524.47 2364.56 1531.6 Q2364.56 1538.71 2366.37 1542.27 Q2368.2 1545.82 2371.81 1545.82 Q2375.44 1545.82 2377.25 1542.27 Q2379.08 1538.71 2379.08 1531.6 Q2379.08 1524.47 2377.25 1520.93 Q2375.44 1517.37 2371.81 1517.37 M2371.81 1513.66 Q2377.62 1513.66 2380.67 1518.27 Q2383.75 1522.85 2383.75 1531.6 Q2383.75 1540.33 2380.67 1544.94 Q2377.62 1549.52 2371.81 1549.52 Q2366 1549.52 2362.92 1544.94 Q2359.86 1540.33 2359.86 1531.6 Q2359.86 1522.85 2362.92 1518.27 Q2366 1513.66 2371.81 1513.66 Z" fill="#000000" fill-rule="nonzero" fill-opacity="1" /><polyline clip-path="url(#clip052)" style="stroke:#000000; stroke-linecap:round; stroke-linejoin:round; stroke-width:2; stroke-opacity:0.1; fill:none" points="169.121,1248.09 2352.76,1248.09 "/>
<polyline clip-path="url(#clip052)" style="stroke:#000000; stroke-linecap:round; stroke-linejoin:round; stroke-width:2; stroke-opacity:0.1; fill:none" points="169.121,994.175 2352.76,994.175 "/>
<polyline clip-path="url(#clip052)" style="stroke:#000000; stroke-linecap:round; stroke-linejoin:round; stroke-width:2; stroke-opacity:0.1; fill:none" points="169.121,740.264 2352.76,740.264 "/>
<polyline clip-path="url(#clip052)" style="stroke:#000000; stroke-linecap:round; stroke-linejoin:round; stroke-width:2; stroke-opacity:0.1; fill:none" points="169.121,486.353 2352.76,486.353 "/>
<polyline clip-path="url(#clip052)" style="stroke:#000000; stroke-linecap:round; stroke-linejoin:round; stroke-width:2; stroke-opacity:0.1; fill:none" points="169.121,232.441 2352.76,232.441 "/>
<polyline clip-path="url(#clip050)" style="stroke:#000000; stroke-linecap:round; stroke-linejoin:round; stroke-width:4; stroke-opacity:1; fill:none" points="169.121,1486.45 169.121,47.2441 "/>
<polyline clip-path="url(#clip050)" style="stroke:#000000; stroke-linecap:round; stroke-linejoin:round; stroke-width:4; stroke-opacity:1; fill:none" points="169.121,1248.09 188.019,1248.09 "/>
<polyline clip-path="url(#clip050)" style="stroke:#000000; stroke-linecap:round; stroke-linejoin:round; stroke-width:4; stroke-opacity:1; fill:none" points="169.121,994.175 188.019,994.175 "/>
<polyline clip-path="url(#clip050)" style="stroke:#000000; stroke-linecap:round; stroke-linejoin:round; stroke-width:4; stroke-opacity:1; fill:none" points="169.121,740.264 188.019,740.264 "/>
<polyline clip-path="url(#clip050)" style="stroke:#000000; stroke-linecap:round; stroke-linejoin:round; stroke-width:4; stroke-opacity:1; fill:none" points="169.121,486.353 188.019,486.353 "/>
<polyline clip-path="url(#clip050)" style="stroke:#000000; stroke-linecap:round; stroke-linejoin:round; stroke-width:4; stroke-opacity:1; fill:none" points="169.121,232.441 188.019,232.441 "/>
<path clip-path="url(#clip050)" d="M91.5938 1246.22 Q88.4456 1246.22 86.5938 1248.38 Q84.7651 1250.53 84.7651 1254.28 Q84.7651 1258.01 86.5938 1260.18 Q88.4456 1262.33 91.5938 1262.33 Q94.7419 1262.33 96.5706 1260.18 Q98.4224 1258.01 98.4224 1254.28 Q98.4224 1250.53 96.5706 1248.38 Q94.7419 1246.22 91.5938 1246.22 M100.876 1231.57 L100.876 1235.83 Q99.1169 1235 97.3113 1234.56 Q95.5289 1234.12 93.7697 1234.12 Q89.1401 1234.12 86.6864 1237.24 Q84.2558 1240.37 83.9086 1246.69 Q85.2743 1244.67 87.3345 1243.61 Q89.3947 1242.52 91.8715 1242.52 Q97.0798 1242.52 100.089 1245.69 Q103.121 1248.84 103.121 1254.28 Q103.121 1259.6 99.9733 1262.82 Q96.8252 1266.04 91.5938 1266.04 Q85.5984 1266.04 82.4271 1261.45 Q79.2559 1256.85 79.2559 1248.12 Q79.2559 1239.93 83.1447 1235.07 Q87.0336 1230.18 93.5845 1230.18 Q95.3437 1230.18 97.1261 1230.53 Q98.9317 1230.88 100.876 1231.57 Z" fill="#000000" fill-rule="nonzero" fill-opacity="1" /><path clip-path="url(#clip050)" d="M121.177 1233.89 Q117.566 1233.89 115.737 1237.45 Q113.932 1240.99 113.932 1248.12 Q113.932 1255.23 115.737 1258.79 Q117.566 1262.33 121.177 1262.33 Q124.811 1262.33 126.617 1258.79 Q128.445 1255.23 128.445 1248.12 Q128.445 1240.99 126.617 1237.45 Q124.811 1233.89 121.177 1233.89 M121.177 1230.18 Q126.987 1230.18 130.043 1234.79 Q133.121 1239.37 133.121 1248.12 Q133.121 1256.85 130.043 1261.45 Q126.987 1266.04 121.177 1266.04 Q115.367 1266.04 112.288 1261.45 Q109.233 1256.85 109.233 1248.12 Q109.233 1239.37 112.288 1234.79 Q115.367 1230.18 121.177 1230.18 Z" fill="#000000" fill-rule="nonzero" fill-opacity="1" /><path clip-path="url(#clip050)" d="M81.154 1010.74 L81.154 1006.48 Q82.9133 1007.31 84.7188 1007.75 Q86.5243 1008.19 88.2604 1008.19 Q92.89 1008.19 95.3206 1005.09 Q97.7743 1001.96 98.1215 995.622 Q96.7789 997.613 94.7187 998.678 Q92.6586 999.743 90.1586 999.743 Q84.9734 999.743 81.941 996.618 Q78.9318 993.469 78.9318 988.03 Q78.9318 982.706 82.0799 979.488 Q85.2281 976.27 90.4595 976.27 Q96.4548 976.27 99.603 980.877 Q102.774 985.46 102.774 994.21 Q102.774 1002.38 98.8854 1007.27 Q95.0197 1012.13 88.4688 1012.13 Q86.7095 1012.13 84.904 1011.78 Q83.0984 1011.43 81.154 1010.74 M90.4595 996.085 Q93.6076 996.085 95.4363 993.932 Q97.2882 991.78 97.2882 988.03 Q97.2882 984.303 95.4363 982.15 Q93.6076 979.974 90.4595 979.974 Q87.3114 979.974 85.4595 982.15 Q83.6308 984.303 83.6308 988.03 Q83.6308 991.78 85.4595 993.932 Q87.3114 996.085 90.4595 996.085 Z" fill="#000000" fill-rule="nonzero" fill-opacity="1" /><path clip-path="url(#clip050)" d="M121.177 979.974 Q117.566 979.974 115.737 983.539 Q113.932 987.081 113.932 994.21 Q113.932 1001.32 115.737 1004.88 Q117.566 1008.42 121.177 1008.42 Q124.811 1008.42 126.617 1004.88 Q128.445 1001.32 128.445 994.21 Q128.445 987.081 126.617 983.539 Q124.811 979.974 121.177 979.974 M121.177 976.27 Q126.987 976.27 130.043 980.877 Q133.121 985.46 133.121 994.21 Q133.121 1002.94 130.043 1007.54 Q126.987 1012.13 121.177 1012.13 Q115.367 1012.13 112.288 1007.54 Q109.233 1002.94 109.233 994.21 Q109.233 985.46 112.288 980.877 Q115.367 976.27 121.177 976.27 Z" fill="#000000" fill-rule="nonzero" fill-opacity="1" /><path clip-path="url(#clip050)" d="M51.6634 753.609 L59.3023 753.609 L59.3023 727.243 L50.9921 728.91 L50.9921 724.651 L59.256 722.984 L63.9319 722.984 L63.9319 753.609 L71.5707 753.609 L71.5707 757.544 L51.6634 757.544 L51.6634 753.609 Z" fill="#000000" fill-rule="nonzero" fill-opacity="1" /><path clip-path="url(#clip050)" d="M85.0429 753.609 L101.362 753.609 L101.362 757.544 L79.4179 757.544 L79.4179 753.609 Q82.0799 750.854 86.6632 746.225 Q91.2697 741.572 92.4502 740.229 Q94.6956 737.706 95.5752 735.97 Q96.478 734.211 96.478 732.521 Q96.478 729.766 94.5336 728.03 Q92.6123 726.294 89.5104 726.294 Q87.3114 726.294 84.8577 727.058 Q82.4271 727.822 79.6494 729.373 L79.6494 724.651 Q82.4734 723.517 84.9271 722.938 Q87.3808 722.359 89.4178 722.359 Q94.7882 722.359 97.9826 725.044 Q101.177 727.729 101.177 732.22 Q101.177 734.35 100.367 736.271 Q99.5798 738.169 97.4734 740.762 Q96.8947 741.433 93.7928 744.651 Q90.691 747.845 85.0429 753.609 Z" fill="#000000" fill-rule="nonzero" fill-opacity="1" /><path clip-path="url(#clip050)" d="M121.177 726.063 Q117.566 726.063 115.737 729.628 Q113.932 733.169 113.932 740.299 Q113.932 747.405 115.737 750.97 Q117.566 754.512 121.177 754.512 Q124.811 754.512 126.617 750.97 Q128.445 747.405 128.445 740.299 Q128.445 733.169 126.617 729.628 Q124.811 726.063 121.177 726.063 M121.177 722.359 Q126.987 722.359 130.043 726.966 Q133.121 731.549 133.121 740.299 Q133.121 749.026 130.043 753.632 Q126.987 758.215 121.177 758.215 Q115.367 758.215 112.288 753.632 Q109.233 749.026 109.233 740.299 Q109.233 731.549 112.288 726.966 Q115.367 722.359 121.177 722.359 Z" fill="#000000" fill-rule="nonzero" fill-opacity="1" /><path clip-path="url(#clip050)" d="M51.6634 499.698 L59.3023 499.698 L59.3023 473.332 L50.9921 474.999 L50.9921 470.739 L59.256 469.073 L63.9319 469.073 L63.9319 499.698 L71.5707 499.698 L71.5707 503.633 L51.6634 503.633 L51.6634 499.698 Z" fill="#000000" fill-rule="nonzero" fill-opacity="1" /><path clip-path="url(#clip050)" d="M81.0614 469.073 L99.4178 469.073 L99.4178 473.008 L85.3438 473.008 L85.3438 481.48 Q86.3623 481.133 87.3808 480.971 Q88.3993 480.786 89.4178 480.786 Q95.2049 480.786 98.5845 483.957 Q101.964 487.128 101.964 492.545 Q101.964 498.124 98.4919 501.225 Q95.0197 504.304 88.7003 504.304 Q86.5243 504.304 84.2558 503.934 Q82.0105 503.563 79.6031 502.823 L79.6031 498.124 Q81.6864 499.258 83.9086 499.813 Q86.1308 500.369 88.6077 500.369 Q92.6123 500.369 94.9502 498.262 Q97.2882 496.156 97.2882 492.545 Q97.2882 488.934 94.9502 486.827 Q92.6123 484.721 88.6077 484.721 Q86.7327 484.721 84.8577 485.138 Q83.0058 485.554 81.0614 486.434 L81.0614 469.073 Z" fill="#000000" fill-rule="nonzero" fill-opacity="1" /><path clip-path="url(#clip050)" d="M121.177 472.151 Q117.566 472.151 115.737 475.716 Q113.932 479.258 113.932 486.388 Q113.932 493.494 115.737 497.059 Q117.566 500.6 121.177 500.6 Q124.811 500.6 126.617 497.059 Q128.445 493.494 128.445 486.388 Q128.445 479.258 126.617 475.716 Q124.811 472.151 121.177 472.151 M121.177 468.448 Q126.987 468.448 130.043 473.054 Q133.121 477.638 133.121 486.388 Q133.121 495.114 130.043 499.721 Q126.987 504.304 121.177 504.304 Q115.367 504.304 112.288 499.721 Q109.233 495.114 109.233 486.388 Q109.233 477.638 112.288 473.054 Q115.367 468.448 121.177 468.448 Z" fill="#000000" fill-rule="nonzero" fill-opacity="1" /><path clip-path="url(#clip050)" d="M51.6634 245.786 L59.3023 245.786 L59.3023 219.421 L50.9921 221.087 L50.9921 216.828 L59.256 215.161 L63.9319 215.161 L63.9319 245.786 L71.5707 245.786 L71.5707 249.721 L51.6634 249.721 L51.6634 245.786 Z" fill="#000000" fill-rule="nonzero" fill-opacity="1" /><path clip-path="url(#clip050)" d="M91.0151 233.31 Q87.6817 233.31 85.7605 235.092 Q83.8623 236.874 83.8623 239.999 Q83.8623 243.124 85.7605 244.907 Q87.6817 246.689 91.0151 246.689 Q94.3484 246.689 96.2697 244.907 Q98.1909 243.101 98.1909 239.999 Q98.1909 236.874 96.2697 235.092 Q94.3715 233.31 91.0151 233.31 M86.3392 231.319 Q83.3299 230.578 81.6401 228.518 Q79.9735 226.458 79.9735 223.495 Q79.9735 219.351 82.9133 216.944 Q85.8762 214.536 91.0151 214.536 Q96.1771 214.536 99.1169 216.944 Q102.057 219.351 102.057 223.495 Q102.057 226.458 100.367 228.518 Q98.7002 230.578 95.7141 231.319 Q99.0937 232.106 100.969 234.397 Q102.867 236.689 102.867 239.999 Q102.867 245.022 99.7882 247.708 Q96.7326 250.393 91.0151 250.393 Q85.2975 250.393 82.2188 247.708 Q79.1633 245.022 79.1633 239.999 Q79.1633 236.689 81.0614 234.397 Q82.9595 232.106 86.3392 231.319 M84.6262 223.935 Q84.6262 226.62 86.2929 228.124 Q87.9827 229.629 91.0151 229.629 Q94.0243 229.629 95.7141 228.124 Q97.4271 226.62 97.4271 223.935 Q97.4271 221.249 95.7141 219.745 Q94.0243 218.24 91.0151 218.24 Q87.9827 218.24 86.2929 219.745 Q84.6262 221.249 84.6262 223.935 Z" fill="#000000" fill-rule="nonzero" fill-opacity="1" /><path clip-path="url(#clip050)" d="M121.177 218.24 Q117.566 218.24 115.737 221.805 Q113.932 225.347 113.932 232.476 Q113.932 239.583 115.737 243.147 Q117.566 246.689 121.177 246.689 Q124.811 246.689 126.617 243.147 Q128.445 239.583 128.445 232.476 Q128.445 225.347 126.617 221.805 Q124.811 218.24 121.177 218.24 M121.177 214.536 Q126.987 214.536 130.043 219.143 Q133.121 223.726 133.121 232.476 Q133.121 241.203 130.043 245.809 Q126.987 250.393 121.177 250.393 Q115.367 250.393 112.288 245.809 Q109.233 241.203 109.233 232.476 Q109.233 223.726 112.288 219.143 Q115.367 214.536 121.177 214.536 Z" fill="#000000" fill-rule="nonzero" fill-opacity="1" /><polyline clip-path="url(#clip052)" style="stroke:#009af9; stroke-linecap:round; stroke-linejoin:round; stroke-width:8; stroke-opacity:1; fill:none" points="230.922,1342.22 239.4,1378.4 247.877,1400.27 256.355,1434.32 264.832,1425.75 273.31,1445.72 281.787,1432.48 290.265,1425.42 298.742,1401.71 307.22,1400.59 315.697,1393.9 324.175,1386.84 332.652,1383.26 341.13,1357.95 349.607,1360.3 358.085,1346.11 366.562,1358.23 375.04,1329.22 383.517,1334.29 391.995,1318.13 400.472,1319.44 408.95,1321.39 417.427,1322.6 425.905,1352.12 434.382,1377.43 442.86,1343.79 451.337,1348.94 459.815,1334.71 468.292,1335.45 476.77,1330.92 485.247,1327.88 493.725,1318.45 502.202,1310.79 510.68,1337.53 519.157,1327.54 527.635,1322.35 536.112,1321.85 544.59,1281.91 553.067,1276.52 561.545,1270.08 570.022,1255.98 578.5,1242.64 586.977,1235.33 595.455,1243.13 603.932,1201.29 612.41,1193.22 620.887,1190.03 629.365,1190.44 637.842,1195.73 646.32,1183.82 654.797,1189.62 663.275,1181.38 671.752,1162.92 680.23,1164.32 688.707,1155.83 697.185,1156.22 705.662,1139.94 714.14,1136.33 722.617,1099.04 731.095,1092.1 739.572,1091.17 748.05,1084.66 756.527,1079.54 765.005,1078.33 773.482,1141.97 781.96,1173.04 790.437,1229.59 798.915,1234.51 807.392,1230.78 815.87,1243.03 824.347,1243.47 832.825,1191.78 841.302,1157.85 849.78,1163.26 858.257,1121.83 866.735,1107.17 875.212,1087.63 883.69,1010.5 892.167,1029.4 900.645,1003.04 909.122,983.5 917.6,927.181 926.077,933.689 934.555,946.409 943.032,825.536 951.51,826.294 959.987,779.369 968.465,788.188 976.942,706.07 985.42,696.462 993.897,777.234 1002.37,789.681 1010.85,830.186 1019.33,708.177 1027.81,756.379 1036.28,791.941 1044.76,753.184 1053.24,721.003 1061.72,707.972 1070.19,683.391 1078.67,601.128 1087.15,608.178 1095.63,660.28 1104.1,660.415 1112.58,648.707 1121.06,551.248 1129.54,556.934 1138.01,576.99 1146.49,669.274 1154.97,677.03 1163.45,713.004 1171.92,731.714 1180.4,712.449 1188.88,716.407 1197.36,713.868 1205.83,680.768 1214.31,622.661 1222.79,623.914 1231.27,613.139 1239.74,624.712 1248.22,632.83 1256.7,674.818 1265.18,695.813 1273.65,694.226 1282.13,681.115 1290.61,655.425 1299.09,638.641 1307.56,628.015 1316.04,606.133 1324.52,548.328 1333,546.233 1341.47,526.416 1349.95,503.312 1358.43,510.851 1366.91,490.265 1375.38,432.059 1383.86,507.706 1392.34,504.531 1400.82,517.942 1409.29,524.48 1417.77,518.942 1426.25,536.837 1434.73,559.042 1443.2,494.109 1451.68,464.585 1460.16,496.086 1468.64,476.971 1477.11,475.892 1485.59,492.275 1494.07,339.816 1502.55,244.952 1511.02,254.941 1519.5,276.136 1527.98,294.068 1536.46,277.506 1544.93,264.814 1553.41,234.409 1561.89,215.434 1570.37,290.206 1578.84,311.859 1587.32,400.249 1595.8,340.304 1604.28,278.677 1612.75,329.347 1621.23,363.465 1629.71,403.565 1638.19,464.417 1646.66,355.267 1655.14,282.389 1663.62,348.41 1672.1,330.422 1680.57,347.019 1689.05,372.39 1697.53,496.321 1706.01,519.552 1714.48,612.286 1722.96,498.509 1731.44,502.448 1739.92,558.446 1748.39,577.304 1756.87,568.09 1765.35,511.973 1773.83,440.719 1782.3,386.347 1790.78,357.245 1799.26,360.387 1807.74,270.93 1816.21,320.96 1824.69,428.365 1833.17,443.654 1841.65,465.796 1850.12,504.313 1858.6,576.46 1867.08,554.508 1875.56,436.984 1884.03,501.472 1892.51,474.835 1900.99,545.582 1909.47,546.769 1917.94,592.167 1926.42,641.032 1934.9,604.447 1943.38,645.688 1951.85,656.605 1960.33,691.436 1968.81,661.284 1977.29,567.024 1985.76,474.071 1994.24,479.287 2002.72,472.528 2011.2,489.457 2019.67,467.265 2028.15,442.986 2036.63,408.026 2045.11,354.9 2053.58,394.952 2062.06,344.132 2070.54,337.719 2079.02,341.356 2087.49,303.163 2095.97,273.554 2104.45,291.323 2112.93,273.107 2121.4,225.705 2129.88,233.788 2138.36,166.485 2146.84,116.428 2155.31,164.727 2163.79,144.116 2172.27,143.677 2180.75,115.326 2189.22,119.358 2197.7,87.9763 2206.18,98.6821 2214.66,258.937 2223.13,224.766 2231.61,171.402 2240.09,155.207 2248.57,263.084 2257.04,237.059 2265.52,249.639 2274,271.123 2282.48,262.226 2290.95,298.462 "/>
<polyline clip-path="url(#clip052)" style="stroke:#e26f46; stroke-linecap:round; stroke-linejoin:round; stroke-width:8; stroke-opacity:1; fill:none" points="230.922,1345.06 239.4,1382.05 247.877,1397.05 256.355,1425.51 264.832,1425.34 273.31,1442.9 281.787,1432.02 290.265,1428.62 298.742,1403.73 307.22,1403.57 315.697,1394.23 324.175,1385.9 332.652,1383.82 341.13,1358.07 349.607,1361.23 358.085,1351.66 366.562,1356.55 375.04,1333.78 383.517,1334.35 391.995,1316.9 400.472,1321.55 408.95,1322.97 417.427,1326.59 425.905,1351.94 434.382,1375.76 442.86,1348.42 451.337,1348.09 459.815,1336 468.292,1333.87 476.77,1333.27 485.247,1329.44 493.725,1317.45 502.202,1312.24 510.68,1334.76 519.157,1325.47 527.635,1321.02 536.112,1320.66 544.59,1282.01 553.067,1281.1 561.545,1269.06 570.022,1257.99 578.5,1240.51 586.977,1234.16 595.455,1241.19 603.932,1201.62 612.41,1190.75 620.887,1189.18 629.365,1190.43 637.842,1193.96 646.32,1183.11 654.797,1187.83 663.275,1181.52 671.752,1163.75 680.23,1164.63 688.707,1154.99 697.185,1154.41 705.662,1142.71 714.14,1134.57 722.617,1099.27 731.095,1094.3 739.572,1088.88 748.05,1083.7 756.527,1078.75 765.005,1075.53 773.482,1146.35 781.96,1192.71 790.437,1220.88 798.915,1233.97 807.392,1237.97 815.87,1246.16 824.347,1245.1 832.825,1188.86 841.302,1156.74 849.78,1166.45 858.257,1126.29 866.735,1100.95 875.212,1082.81 883.69,1009.33 892.167,1030.17 900.645,1007.65 909.122,984.019 917.6,947.815 926.077,928.793 934.555,941.785 943.032,827.737 951.51,824.372 959.987,782.498 968.465,785.905 976.942,703.278 985.42,699.575 993.897,732.139 1002.37,779.536 1010.85,839.967 1019.33,703.024 1027.81,761.339 1036.28,783.006 1044.76,748.474 1053.24,717.243 1061.72,703.193 1070.19,683.896 1078.67,599.005 1087.15,614.409 1095.63,684.404 1104.1,664.26 1112.58,648.094 1121.06,544.245 1129.54,553.555 1138.01,595.619 1146.49,658.081 1154.97,689.482 1163.45,694.983 1171.92,735.778 1180.4,711.572 1188.88,722.067 1197.36,714.873 1205.83,673.401 1214.31,618.133 1222.79,620.418 1231.27,614.663 1239.74,626.173 1248.22,643.27 1256.7,673.824 1265.18,690.244 1273.65,699.215 1282.13,681.864 1290.61,658.674 1299.09,640.477 1307.56,629.305 1316.04,602.052 1324.52,553.893 1333,543.567 1341.47,525.286 1349.95,498.541 1358.43,514.283 1366.91,488.807 1375.38,429.731 1383.86,494.563 1392.34,496.594 1400.82,519.7 1409.29,521.477 1417.77,513.183 1426.25,547.207 1434.73,558.21 1443.2,492.616 1451.68,464.601 1460.16,488.046 1468.64,486.183 1477.11,473.742 1485.59,486.437 1494.07,356.689 1502.55,237.097 1511.02,268.497 1519.5,280.431 1527.98,307.43 1536.46,269.343 1544.93,263.926 1553.41,238.451 1561.89,215.429 1570.37,291.095 1578.84,318.771 1587.32,408.317 1595.8,314.286 1604.28,276.199 1612.75,326.558 1621.23,358.382 1629.71,423.383 1638.19,481.105 1646.66,356.181 1655.14,277.13 1663.62,353.049 1672.1,336.884 1680.57,339.084 1689.05,370.908 1697.53,515.976 1706.01,524.101 1714.48,591.387 1722.96,496.171 1731.44,497.271 1739.92,556.94 1748.39,592.657 1756.87,557.787 1765.35,511.405 1773.83,424.144 1782.3,380.472 1790.78,356.435 1799.26,360.074 1807.74,278.569 1816.21,316.825 1824.69,423.975 1833.17,453.852 1841.65,466.294 1850.12,487.707 1858.6,585.04 1867.08,550.592 1875.56,437.771 1884.03,496.594 1892.51,477.297 1900.99,546.36 1909.47,532.988 1917.94,600.613 1926.42,636.16 1934.9,609.5 1943.38,636.753 1951.85,658.928 1960.33,697.353 1968.81,649.449 1977.29,555.247 1985.76,478.989 1994.24,477.804 2002.72,464.77 2011.2,499.218 2019.67,482.375 2028.15,444.034 2036.63,399.6 2045.11,354.065 2053.58,394.945 2062.06,346.955 2070.54,337.138 2079.02,345.432 2087.49,294.311 2095.97,273.406 2104.45,291.772 2112.93,271.121 2121.4,235.996 2129.88,250.892 2138.36,164.224 2146.84,114.203 2155.31,159.569 2163.79,143.234 2172.27,141.964 2180.75,114.034 2189.22,116.235 2197.7,104.639 2206.18,100.323 2214.66,255.886 2223.13,222.962 2231.61,167.694 2240.09,150.343 2248.57,253.093 2257.04,247.845 2265.52,237.858 2274,283.816 2282.48,265.619 2290.95,296.766 "/>
<path clip-path="url(#clip050)" d="M241.909 250.738 L673.859 250.738 L673.859 95.2176 L241.909 95.2176  Z" fill="#ffffff" fill-rule="evenodd" fill-opacity="1"/>
<polyline clip-path="url(#clip050)" style="stroke:#000000; stroke-linecap:round; stroke-linejoin:round; stroke-width:4; stroke-opacity:1; fill:none" points="241.909,250.738 673.859,250.738 673.859,95.2176 241.909,95.2176 241.909,250.738 "/>
<polyline clip-path="url(#clip050)" style="stroke:#009af9; stroke-linecap:round; stroke-linejoin:round; stroke-width:8; stroke-opacity:1; fill:none" points="266.172,147.058 411.747,147.058 "/>
<path clip-path="url(#clip050)" d="M440.686 133.62 L440.686 146.606 L446.565 146.606 Q449.829 146.606 451.612 144.916 Q453.394 143.227 453.394 140.102 Q453.394 137 451.612 135.31 Q449.829 133.62 446.565 133.62 L440.686 133.62 M436.01 129.778 L446.565 129.778 Q452.376 129.778 455.339 132.416 Q458.325 135.032 458.325 140.102 Q458.325 145.217 455.339 147.833 Q452.376 150.449 446.565 150.449 L440.686 150.449 L440.686 164.338 L436.01 164.338 L436.01 129.778 Z" fill="#000000" fill-rule="nonzero" fill-opacity="1" /><path clip-path="url(#clip050)" d="M478.602 142.393 Q477.885 141.977 477.028 141.791 Q476.195 141.583 475.176 141.583 Q471.565 141.583 469.621 143.944 Q467.7 146.282 467.7 150.68 L467.7 164.338 L463.417 164.338 L463.417 138.412 L467.7 138.412 L467.7 142.44 Q469.042 140.078 471.195 138.944 Q473.348 137.787 476.426 137.787 Q476.866 137.787 477.399 137.856 Q477.931 137.903 478.579 138.018 L478.602 142.393 Z" fill="#000000" fill-rule="nonzero" fill-opacity="1" /><path clip-path="url(#clip050)" d="M504.204 150.31 L504.204 152.393 L484.621 152.393 Q484.899 156.791 487.26 159.106 Q489.644 161.398 493.88 161.398 Q496.334 161.398 498.625 160.796 Q500.94 160.194 503.209 158.99 L503.209 163.018 Q500.917 163.99 498.51 164.5 Q496.102 165.009 493.625 165.009 Q487.422 165.009 483.788 161.398 Q480.176 157.787 480.176 151.629 Q480.176 145.264 483.602 141.537 Q487.051 137.787 492.885 137.787 Q498.116 137.787 501.149 141.166 Q504.204 144.523 504.204 150.31 M499.945 149.06 Q499.899 145.565 497.977 143.481 Q496.079 141.398 492.931 141.398 Q489.366 141.398 487.213 143.412 Q485.084 145.426 484.76 149.083 L499.945 149.06 Z" fill="#000000" fill-rule="nonzero" fill-opacity="1" /><path clip-path="url(#clip050)" d="M528.255 142.347 L528.255 128.319 L532.514 128.319 L532.514 164.338 L528.255 164.338 L528.255 160.449 Q526.912 162.763 524.852 163.898 Q522.815 165.009 519.945 165.009 Q515.246 165.009 512.283 161.259 Q509.343 157.509 509.343 151.398 Q509.343 145.287 512.283 141.537 Q515.246 137.787 519.945 137.787 Q522.815 137.787 524.852 138.921 Q526.912 140.032 528.255 142.347 M513.741 151.398 Q513.741 156.097 515.662 158.782 Q517.607 161.444 520.986 161.444 Q524.366 161.444 526.31 158.782 Q528.255 156.097 528.255 151.398 Q528.255 146.699 526.31 144.037 Q524.366 141.352 520.986 141.352 Q517.607 141.352 515.662 144.037 Q513.741 146.699 513.741 151.398 Z" fill="#000000" fill-rule="nonzero" fill-opacity="1" /><path clip-path="url(#clip050)" d="M541.287 138.412 L545.546 138.412 L545.546 164.338 L541.287 164.338 L541.287 138.412 M541.287 128.319 L545.546 128.319 L545.546 133.713 L541.287 133.713 L541.287 128.319 Z" fill="#000000" fill-rule="nonzero" fill-opacity="1" /><path clip-path="url(#clip050)" d="M573.116 139.407 L573.116 143.389 Q571.31 142.393 569.481 141.907 Q567.676 141.398 565.824 141.398 Q561.681 141.398 559.389 144.037 Q557.097 146.652 557.097 151.398 Q557.097 156.143 559.389 158.782 Q561.681 161.398 565.824 161.398 Q567.676 161.398 569.481 160.912 Q571.31 160.402 573.116 159.407 L573.116 163.342 Q571.333 164.176 569.412 164.592 Q567.514 165.009 565.361 165.009 Q559.505 165.009 556.056 161.328 Q552.607 157.648 552.607 151.398 Q552.607 145.055 556.079 141.421 Q559.574 137.787 565.639 137.787 Q567.607 137.787 569.481 138.203 Q571.356 138.597 573.116 139.407 Z" fill="#000000" fill-rule="nonzero" fill-opacity="1" /><path clip-path="url(#clip050)" d="M584.736 131.051 L584.736 138.412 L593.509 138.412 L593.509 141.722 L584.736 141.722 L584.736 155.796 Q584.736 158.967 585.593 159.87 Q586.472 160.773 589.134 160.773 L593.509 160.773 L593.509 164.338 L589.134 164.338 Q584.204 164.338 582.329 162.509 Q580.454 160.657 580.454 155.796 L580.454 141.722 L577.329 141.722 L577.329 138.412 L580.454 138.412 L580.454 131.051 L584.736 131.051 Z" fill="#000000" fill-rule="nonzero" fill-opacity="1" /><path clip-path="url(#clip050)" d="M621.287 150.31 L621.287 152.393 L601.704 152.393 Q601.981 156.791 604.342 159.106 Q606.727 161.398 610.963 161.398 Q613.416 161.398 615.708 160.796 Q618.023 160.194 620.291 158.99 L620.291 163.018 Q618 163.99 615.592 164.5 Q613.185 165.009 610.708 165.009 Q604.504 165.009 600.87 161.398 Q597.259 157.787 597.259 151.629 Q597.259 145.264 600.685 141.537 Q604.134 137.787 609.967 137.787 Q615.199 137.787 618.231 141.166 Q621.287 144.523 621.287 150.31 M617.028 149.06 Q616.981 145.565 615.06 143.481 Q613.162 141.398 610.014 141.398 Q606.449 141.398 604.296 143.412 Q602.167 145.426 601.842 149.083 L617.028 149.06 Z" fill="#000000" fill-rule="nonzero" fill-opacity="1" /><path clip-path="url(#clip050)" d="M645.338 142.347 L645.338 128.319 L649.597 128.319 L649.597 164.338 L645.338 164.338 L645.338 160.449 Q643.995 162.763 641.935 163.898 Q639.898 165.009 637.027 165.009 Q632.328 165.009 629.365 161.259 Q626.426 157.509 626.426 151.398 Q626.426 145.287 629.365 141.537 Q632.328 137.787 637.027 137.787 Q639.898 137.787 641.935 138.921 Q643.995 140.032 645.338 142.347 M630.824 151.398 Q630.824 156.097 632.745 158.782 Q634.689 161.444 638.069 161.444 Q641.449 161.444 643.393 158.782 Q645.338 156.097 645.338 151.398 Q645.338 146.699 643.393 144.037 Q641.449 141.352 638.069 141.352 Q634.689 141.352 632.745 144.037 Q630.824 146.699 630.824 151.398 Z" fill="#000000" fill-rule="nonzero" fill-opacity="1" /><polyline clip-path="url(#clip050)" style="stroke:#e26f46; stroke-linecap:round; stroke-linejoin:round; stroke-width:8; stroke-opacity:1; fill:none" points="266.172,198.898 411.747,198.898 "/>
<path clip-path="url(#clip050)" d="M451.843 186.224 L445.501 203.423 L458.209 203.423 L451.843 186.224 M449.204 181.618 L454.505 181.618 L467.676 216.178 L462.815 216.178 L459.667 207.312 L444.089 207.312 L440.941 216.178 L436.01 216.178 L449.204 181.618 Z" fill="#000000" fill-rule="nonzero" fill-opacity="1" /><path clip-path="url(#clip050)" d="M490.362 191.247 L490.362 195.229 Q488.556 194.233 486.727 193.747 Q484.922 193.238 483.07 193.238 Q478.926 193.238 476.635 195.877 Q474.343 198.492 474.343 203.238 Q474.343 207.983 476.635 210.622 Q478.926 213.238 483.07 213.238 Q484.922 213.238 486.727 212.752 Q488.556 212.242 490.362 211.247 L490.362 215.182 Q488.579 216.016 486.658 216.432 Q484.76 216.849 482.607 216.849 Q476.751 216.849 473.301 213.168 Q469.852 209.488 469.852 203.238 Q469.852 196.895 473.325 193.261 Q476.82 189.627 482.885 189.627 Q484.852 189.627 486.727 190.043 Q488.602 190.437 490.362 191.247 Z" fill="#000000" fill-rule="nonzero" fill-opacity="1" /><path clip-path="url(#clip050)" d="M501.982 182.891 L501.982 190.252 L510.755 190.252 L510.755 193.562 L501.982 193.562 L501.982 207.636 Q501.982 210.807 502.838 211.71 Q503.718 212.613 506.38 212.613 L510.755 212.613 L510.755 216.178 L506.38 216.178 Q501.449 216.178 499.574 214.349 Q497.699 212.497 497.699 207.636 L497.699 193.562 L494.574 193.562 L494.574 190.252 L497.699 190.252 L497.699 182.891 L501.982 182.891 Z" fill="#000000" fill-rule="nonzero" fill-opacity="1" /><path clip-path="url(#clip050)" d="M515.917 205.946 L515.917 190.252 L520.176 190.252 L520.176 205.784 Q520.176 209.465 521.611 211.316 Q523.047 213.145 525.917 213.145 Q529.366 213.145 531.357 210.946 Q533.371 208.747 533.371 204.951 L533.371 190.252 L537.63 190.252 L537.63 216.178 L533.371 216.178 L533.371 212.196 Q531.82 214.557 529.759 215.715 Q527.722 216.849 525.014 216.849 Q520.547 216.849 518.232 214.071 Q515.917 211.293 515.917 205.946 M526.635 189.627 L526.635 189.627 Z" fill="#000000" fill-rule="nonzero" fill-opacity="1" /><path clip-path="url(#clip050)" d="M558.185 203.145 Q553.023 203.145 551.033 204.326 Q549.042 205.506 549.042 208.354 Q549.042 210.622 550.523 211.965 Q552.028 213.284 554.597 213.284 Q558.139 213.284 560.269 210.784 Q562.421 208.261 562.421 204.094 L562.421 203.145 L558.185 203.145 M566.681 201.386 L566.681 216.178 L562.421 216.178 L562.421 212.242 Q560.963 214.603 558.787 215.738 Q556.611 216.849 553.463 216.849 Q549.482 216.849 547.121 214.627 Q544.783 212.381 544.783 208.631 Q544.783 204.256 547.699 202.034 Q550.639 199.812 556.449 199.812 L562.421 199.812 L562.421 199.395 Q562.421 196.455 560.477 194.858 Q558.556 193.238 555.06 193.238 Q552.838 193.238 550.732 193.77 Q548.625 194.303 546.681 195.367 L546.681 191.432 Q549.019 190.53 551.218 190.09 Q553.417 189.627 555.5 189.627 Q561.125 189.627 563.903 192.543 Q566.681 195.46 566.681 201.386 Z" fill="#000000" fill-rule="nonzero" fill-opacity="1" /><path clip-path="url(#clip050)" d="M575.454 180.159 L579.713 180.159 L579.713 216.178 L575.454 216.178 L575.454 180.159 Z" fill="#000000" fill-rule="nonzero" fill-opacity="1" /></svg>