<?xml version="1.0" encoding="utf-8"?>
<svg xmlns="http://www.w3.org/2000/svg" xmlns:xlink="http://www.w3.org/1999/xlink" width="600" height="400" viewBox="0 0 2400 1600">
<defs>
  <clipPath id="clip020">
    <rect x="0" y="0" width="2400" height="1600"/>
  </clipPath>
</defs>
<path clip-path="url(#clip020)" d="M0 1600 L2400 1600 L2400 0 L0 0  Z" fill="#ffffff" fill-rule="evenodd" fill-opacity="1"/>
<defs>
  <clipPath id="clip021">
    <rect x="480" y="0" width="1681" height="1600"/>
  </clipPath>
</defs>
<path clip-path="url(#clip020)" d="M205.121 1423.18 L2352.76 1423.18 L2352.76 123.472 L205.121 123.472  Z" fill="#ffffff" fill-rule="evenodd" fill-opacity="1"/>
<defs>
  <clipPath id="clip022">
    <rect x="205" y="123" width="2149" height="1301"/>
  </clipPath>
</defs>
<polyline clip-path="url(#clip022)" style="stroke:#000000; stroke-linecap:round; stroke-linejoin:round; stroke-width:2; stroke-opacity:0.1; fill:none" points="265.903,1423.18 265.903,123.472 "/>
<polyline clip-path="url(#clip022)" style="stroke:#000000; stroke-linecap:round; stroke-linejoin:round; stroke-width:2; stroke-opacity:0.1; fill:none" points="671.117,1423.18 671.117,123.472 "/>
<polyline clip-path="url(#clip022)" style="stroke:#000000; stroke-linecap:round; stroke-linejoin:round; stroke-width:2; stroke-opacity:0.1; fill:none" points="1076.33,1423.18 1076.33,123.472 "/>
<polyline clip-path="url(#clip022)" style="stroke:#000000; stroke-linecap:round; stroke-linejoin:round; stroke-width:2; stroke-opacity:0.1; fill:none" points="1481.55,1423.18 1481.55,123.472 "/>
<polyline clip-path="url(#clip022)" style="stroke:#000000; stroke-linecap:round; stroke-linejoin:round; stroke-width:2; stroke-opacity:0.1; fill:none" points="1886.76,1423.18 1886.76,123.472 "/>
<polyline clip-path="url(#clip022)" style="stroke:#000000; stroke-linecap:round; stroke-linejoin:round; stroke-width:2; stroke-opacity:0.1; fill:none" points="2291.97,1423.18 2291.97,123.472 "/>
<polyline clip-path="url(#clip020)" style="stroke:#000000; stroke-linecap:round; stroke-linejoin:round; stroke-width:4; stroke-opacity:1; fill:none" points="205.121,1423.18 2352.76,1423.18 "/>
<polyline clip-path="url(#clip020)" style="stroke:#000000; stroke-linecap:round; stroke-linejoin:round; stroke-width:4; stroke-opacity:1; fill:none" points="265.903,1423.18 265.903,1404.28 "/>
<polyline clip-path="url(#clip020)" style="stroke:#000000; stroke-linecap:round; stroke-linejoin:round; stroke-width:4; stroke-opacity:1; fill:none" points="671.117,1423.18 671.117,1404.28 "/>
<polyline clip-path="url(#clip020)" style="stroke:#000000; stroke-linecap:round; stroke-linejoin:round; stroke-width:4; stroke-opacity:1; fill:none" points="1076.33,1423.18 1076.33,1404.28 "/>
<polyline clip-path="url(#clip020)" style="stroke:#000000; stroke-linecap:round; stroke-linejoin:round; stroke-width:4; stroke-opacity:1; fill:none" points="1481.55,1423.18 1481.55,1404.28 "/>
<polyline clip-path="url(#clip020)" style="stroke:#000000; stroke-linecap:round; stroke-linejoin:round; stroke-width:4; stroke-opacity:1; fill:none" points="1886.76,1423.18 1886.76,1404.28 "/>
<polyline clip-path="url(#clip020)" style="stroke:#000000; stroke-linecap:round; stroke-linejoin:round; stroke-width:4; stroke-opacity:1; fill:none" points="2291.97,1423.18 2291.97,1404.28 "/>
<path clip-path="url(#clip020)" d="M265.903 1454.1 Q262.292 1454.1 260.463 1457.66 Q258.658 1461.2 258.658 1468.33 Q258.658 1475.44 260.463 1479.01 Q262.292 1482.55 265.903 1482.55 Q269.537 1482.55 271.343 1479.01 Q273.172 1475.44 273.172 1468.33 Q273.172 1461.2 271.343 1457.66 Q269.537 1454.1 265.903 1454.1 M265.903 1450.39 Q271.713 1450.39 274.769 1455 Q277.847 1459.58 277.847 1468.33 Q277.847 1477.06 274.769 1481.67 Q271.713 1486.25 265.903 1486.25 Q260.093 1486.25 257.014 1481.67 Q253.959 1477.06 253.959 1468.33 Q253.959 1459.58 257.014 1455 Q260.093 1450.39 265.903 1450.39 Z" fill="#000000" fill-rule="nonzero" fill-opacity="1" /><path clip-path="url(#clip020)" d="M661.395 1451.02 L679.751 1451.02 L679.751 1454.96 L665.677 1454.96 L665.677 1463.43 Q666.696 1463.08 667.714 1462.92 Q668.733 1462.73 669.751 1462.73 Q675.539 1462.73 678.918 1465.9 Q682.298 1469.08 682.298 1474.49 Q682.298 1480.07 678.826 1483.17 Q675.353 1486.25 669.034 1486.25 Q666.858 1486.25 664.589 1485.88 Q662.344 1485.51 659.937 1484.77 L659.937 1480.07 Q662.02 1481.2 664.242 1481.76 Q666.464 1482.32 668.941 1482.32 Q672.946 1482.32 675.284 1480.21 Q677.622 1478.1 677.622 1474.49 Q677.622 1470.88 675.284 1468.77 Q672.946 1466.67 668.941 1466.67 Q667.066 1466.67 665.191 1467.08 Q663.339 1467.5 661.395 1468.38 L661.395 1451.02 Z" fill="#000000" fill-rule="nonzero" fill-opacity="1" /><path clip-path="url(#clip020)" d="M1051.02 1481.64 L1058.66 1481.64 L1058.66 1455.28 L1050.35 1456.95 L1050.35 1452.69 L1058.61 1451.02 L1063.29 1451.02 L1063.29 1481.64 L1070.93 1481.64 L1070.93 1485.58 L1051.02 1485.58 L1051.02 1481.64 Z" fill="#000000" fill-rule="nonzero" fill-opacity="1" /><path clip-path="url(#clip020)" d="M1090.37 1454.1 Q1086.76 1454.1 1084.93 1457.66 Q1083.13 1461.2 1083.13 1468.33 Q1083.13 1475.44 1084.93 1479.01 Q1086.76 1482.55 1090.37 1482.55 Q1094 1482.55 1095.81 1479.01 Q1097.64 1475.44 1097.64 1468.33 Q1097.64 1461.2 1095.81 1457.66 Q1094 1454.1 1090.37 1454.1 M1090.37 1450.39 Q1096.18 1450.39 1099.24 1455 Q1102.32 1459.58 1102.32 1468.33 Q1102.32 1477.06 1099.24 1481.67 Q1096.18 1486.25 1090.37 1486.25 Q1084.56 1486.25 1081.48 1481.67 Q1078.43 1477.06 1078.43 1468.33 Q1078.43 1459.58 1081.48 1455 Q1084.56 1450.39 1090.37 1450.39 Z" fill="#000000" fill-rule="nonzero" fill-opacity="1" /><path clip-path="url(#clip020)" d="M1456.73 1481.64 L1464.37 1481.64 L1464.37 1455.28 L1456.06 1456.95 L1456.06 1452.69 L1464.32 1451.02 L1469 1451.02 L1469 1481.64 L1476.64 1481.64 L1476.64 1485.58 L1456.73 1485.58 L1456.73 1481.64 Z" fill="#000000" fill-rule="nonzero" fill-opacity="1" /><path clip-path="url(#clip020)" d="M1486.13 1451.02 L1504.49 1451.02 L1504.49 1454.96 L1490.41 1454.96 L1490.41 1463.43 Q1491.43 1463.08 1492.45 1462.92 Q1493.47 1462.73 1494.49 1462.73 Q1500.27 1462.73 1503.65 1465.9 Q1507.03 1469.08 1507.03 1474.49 Q1507.03 1480.07 1503.56 1483.17 Q1500.09 1486.25 1493.77 1486.25 Q1491.59 1486.25 1489.32 1485.88 Q1487.08 1485.51 1484.67 1484.77 L1484.67 1480.07 Q1486.75 1481.2 1488.98 1481.76 Q1491.2 1482.32 1493.68 1482.32 Q1497.68 1482.32 1500.02 1480.21 Q1502.36 1478.1 1502.36 1474.49 Q1502.36 1470.88 1500.02 1468.77 Q1497.68 1466.67 1493.68 1466.67 Q1491.8 1466.67 1489.93 1467.08 Q1488.07 1467.5 1486.13 1468.38 L1486.13 1451.02 Z" fill="#000000" fill-rule="nonzero" fill-opacity="1" /><path clip-path="url(#clip020)" d="M1865.53 1481.64 L1881.85 1481.64 L1881.85 1485.58 L1859.91 1485.58 L1859.91 1481.64 Q1862.57 1478.89 1867.15 1474.26 Q1871.76 1469.61 1872.94 1468.27 Q1875.19 1465.74 1876.07 1464.01 Q1876.97 1462.25 1876.97 1460.56 Q1876.97 1457.8 1875.02 1456.07 Q1873.1 1454.33 1870 1454.33 Q1867.8 1454.33 1865.35 1455.09 Q1862.92 1455.86 1860.14 1457.41 L1860.14 1452.69 Q1862.96 1451.55 1865.42 1450.97 Q1867.87 1450.39 1869.91 1450.39 Q1875.28 1450.39 1878.47 1453.08 Q1881.67 1455.77 1881.67 1460.26 Q1881.67 1462.39 1880.86 1464.31 Q1880.07 1466.2 1877.96 1468.8 Q1877.38 1469.47 1874.28 1472.69 Q1871.18 1475.88 1865.53 1481.64 Z" fill="#000000" fill-rule="nonzero" fill-opacity="1" /><path clip-path="url(#clip020)" d="M1901.67 1454.1 Q1898.06 1454.1 1896.23 1457.66 Q1894.42 1461.2 1894.42 1468.33 Q1894.42 1475.44 1896.23 1479.01 Q1898.06 1482.55 1901.67 1482.55 Q1905.3 1482.55 1907.11 1479.01 Q1908.94 1475.44 1908.94 1468.33 Q1908.94 1461.2 1907.11 1457.66 Q1905.3 1454.1 1901.67 1454.1 M1901.67 1450.39 Q1907.48 1450.39 1910.53 1455 Q1913.61 1459.58 1913.61 1468.33 Q1913.61 1477.06 1910.53 1481.67 Q1907.48 1486.25 1901.67 1486.25 Q1895.86 1486.25 1892.78 1481.67 Q1889.72 1477.06 1889.72 1468.33 Q1889.72 1459.58 1892.78 1455 Q1895.86 1450.39 1901.67 1450.39 Z" fill="#000000" fill-rule="nonzero" fill-opacity="1" /><path clip-path="url(#clip020)" d="M2271.24 1481.64 L2287.56 1481.64 L2287.56 1485.58 L2265.62 1485.58 L2265.62 1481.64 Q2268.28 1478.89 2272.87 1474.26 Q2277.47 1469.61 2278.65 1468.27 Q2280.9 1465.74 2281.78 1464.01 Q2282.68 1462.25 2282.68 1460.56 Q2282.68 1457.8 2280.74 1456.07 Q2278.81 1454.33 2275.71 1454.33 Q2273.51 1454.33 2271.06 1455.09 Q2268.63 1455.86 2265.85 1457.41 L2265.85 1452.69 Q2268.68 1451.55 2271.13 1450.97 Q2273.58 1450.39 2275.62 1450.39 Q2280.99 1450.39 2284.18 1453.08 Q2287.38 1455.77 2287.38 1460.26 Q2287.38 1462.39 2286.57 1464.31 Q2285.78 1466.2 2283.68 1468.8 Q2283.1 1469.47 2279.99 1472.69 Q2276.89 1475.88 2271.24 1481.64 Z" fill="#000000" fill-rule="nonzero" fill-opacity="1" /><path clip-path="url(#clip020)" d="M2297.43 1451.02 L2315.78 1451.02 L2315.78 1454.96 L2301.71 1454.96 L2301.71 1463.43 Q2302.73 1463.08 2303.74 1462.92 Q2304.76 1462.73 2305.78 1462.73 Q2311.57 1462.73 2314.95 1465.9 Q2318.33 1469.08 2318.33 1474.49 Q2318.33 1480.07 2314.86 1483.17 Q2311.38 1486.25 2305.06 1486.25 Q2302.89 1486.25 2300.62 1485.88 Q2298.37 1485.51 2295.97 1484.77 L2295.97 1480.07 Q2298.05 1481.2 2300.27 1481.76 Q2302.49 1482.32 2304.97 1482.32 Q2308.98 1482.32 2311.31 1480.21 Q2313.65 1478.1 2313.65 1474.49 Q2313.65 1470.88 2311.31 1468.77 Q2308.98 1466.67 2304.97 1466.67 Q2303.1 1466.67 2301.22 1467.08 Q2299.37 1467.5 2297.43 1468.38 L2297.43 1451.02 Z" fill="#000000" fill-rule="nonzero" fill-opacity="1" /><path clip-path="url(#clip020)" d="M1231.64 1525.81 L1231.64 1543.66 L1239.73 1543.66 Q1244.21 1543.66 1246.66 1541.34 Q1249.12 1539.02 1249.12 1534.72 Q1249.12 1530.45 1246.66 1528.13 Q1244.21 1525.81 1239.73 1525.81 L1231.64 1525.81 M1225.21 1520.52 L1239.73 1520.52 Q1247.71 1520.52 1251.79 1524.15 Q1255.89 1527.75 1255.89 1534.72 Q1255.89 1541.75 1251.79 1545.35 Q1247.71 1548.95 1239.73 1548.95 L1231.64 1548.95 L1231.64 1568.04 L1225.21 1568.04 L1225.21 1520.52 Z" fill="#000000" fill-rule="nonzero" fill-opacity="1" /><path clip-path="url(#clip020)" d="M1283.78 1537.87 Q1282.79 1537.3 1281.61 1537.04 Q1280.47 1536.76 1279.07 1536.76 Q1274.1 1536.76 1271.43 1540 Q1268.79 1543.22 1268.79 1549.27 L1268.79 1568.04 L1262.9 1568.04 L1262.9 1532.4 L1268.79 1532.4 L1268.79 1537.93 Q1270.63 1534.69 1273.59 1533.13 Q1276.55 1531.54 1280.78 1531.54 Q1281.39 1531.54 1282.12 1531.63 Q1282.85 1531.7 1283.74 1531.85 L1283.78 1537.87 Z" fill="#000000" fill-rule="nonzero" fill-opacity="1" /><path clip-path="url(#clip020)" d="M1289.92 1532.4 L1295.78 1532.4 L1295.78 1568.04 L1289.92 1568.04 L1289.92 1532.4 M1289.92 1518.52 L1295.78 1518.52 L1295.78 1525.93 L1289.92 1525.93 L1289.92 1518.52 Z" fill="#000000" fill-rule="nonzero" fill-opacity="1" /><path clip-path="url(#clip020)" d="M1330.76 1533.45 L1330.76 1538.98 Q1328.27 1537.71 1325.6 1537.07 Q1322.93 1536.44 1320.06 1536.44 Q1315.7 1536.44 1313.5 1537.77 Q1311.34 1539.11 1311.34 1541.79 Q1311.34 1543.82 1312.9 1545 Q1314.46 1546.15 1319.17 1547.2 L1321.17 1547.64 Q1327.41 1548.98 1330.02 1551.43 Q1332.67 1553.85 1332.67 1558.21 Q1332.67 1563.17 1328.72 1566.07 Q1324.8 1568.97 1317.93 1568.97 Q1315.06 1568.97 1311.94 1568.39 Q1308.86 1567.85 1305.42 1566.74 L1305.42 1560.69 Q1308.67 1562.38 1311.82 1563.24 Q1314.97 1564.07 1318.06 1564.07 Q1322.19 1564.07 1324.42 1562.66 Q1326.65 1561.23 1326.65 1558.65 Q1326.65 1556.27 1325.03 1554.99 Q1323.43 1553.72 1317.99 1552.54 L1315.96 1552.07 Q1310.51 1550.92 1308.09 1548.56 Q1305.67 1546.18 1305.67 1542.04 Q1305.67 1537.01 1309.24 1534.27 Q1312.8 1531.54 1319.36 1531.54 Q1322.61 1531.54 1325.47 1532.01 Q1328.34 1532.49 1330.76 1533.45 Z" fill="#000000" fill-rule="nonzero" fill-opacity="1" /><polyline clip-path="url(#clip022)" style="stroke:#000000; stroke-linecap:round; stroke-linejoin:round; stroke-width:2; stroke-opacity:0.1; fill:none" points="205.121,1386.4 2352.76,1386.4 "/>
<polyline clip-path="url(#clip022)" style="stroke:#000000; stroke-linecap:round; stroke-linejoin:round; stroke-width:2; stroke-opacity:0.1; fill:none" points="205.121,1141.17 2352.76,1141.17 "/>
<polyline clip-path="url(#clip022)" style="stroke:#000000; stroke-linecap:round; stroke-linejoin:round; stroke-width:2; stroke-opacity:0.1; fill:none" points="205.121,895.94 2352.76,895.94 "/>
<polyline clip-path="url(#clip022)" style="stroke:#000000; stroke-linecap:round; stroke-linejoin:round; stroke-width:2; stroke-opacity:0.1; fill:none" points="205.121,650.712 2352.76,650.712 "/>
<polyline clip-path="url(#clip022)" style="stroke:#000000; stroke-linecap:round; stroke-linejoin:round; stroke-width:2; stroke-opacity:0.1; fill:none" points="205.121,405.484 2352.76,405.484 "/>
<polyline clip-path="url(#clip022)" style="stroke:#000000; stroke-linecap:round; stroke-linejoin:round; stroke-width:2; stroke-opacity:0.1; fill:none" points="205.121,160.256 2352.76,160.256 "/>
<polyline clip-path="url(#clip020)" style="stroke:#000000; stroke-linecap:round; stroke-linejoin:round; stroke-width:4; stroke-opacity:1; fill:none" points="205.121,1423.18 205.121,123.472 "/>
<polyline clip-path="url(#clip020)" style="stroke:#000000; stroke-linecap:round; stroke-linejoin:round; stroke-width:4; stroke-opacity:1; fill:none" points="205.121,1386.4 224.019,1386.4 "/>
<polyline clip-path="url(#clip020)" style="stroke:#000000; stroke-linecap:round; stroke-linejoin:round; stroke-width:4; stroke-opacity:1; fill:none" points="205.121,1141.17 224.019,1141.17 "/>
<polyline clip-path="url(#clip020)" style="stroke:#000000; stroke-linecap:round; stroke-linejoin:round; stroke-width:4; stroke-opacity:1; fill:none" points="205.121,895.94 224.019,895.94 "/>
<polyline clip-path="url(#clip020)" style="stroke:#000000; stroke-linecap:round; stroke-linejoin:round; stroke-width:4; stroke-opacity:1; fill:none" points="205.121,650.712 224.019,650.712 "/>
<polyline clip-path="url(#clip020)" style="stroke:#000000; stroke-linecap:round; stroke-linejoin:round; stroke-width:4; stroke-opacity:1; fill:none" points="205.121,405.484 224.019,405.484 "/>
<polyline clip-path="url(#clip020)" style="stroke:#000000; stroke-linecap:round; stroke-linejoin:round; stroke-width:4; stroke-opacity:1; fill:none" points="205.121,160.256 224.019,160.256 "/>
<path clip-path="url(#clip020)" d="M157.177 1372.19 Q153.566 1372.19 151.737 1375.76 Q149.931 1379.3 149.931 1386.43 Q149.931 1393.54 151.737 1397.1 Q153.566 1400.64 157.177 1400.64 Q160.811 1400.64 162.616 1397.1 Q164.445 1393.54 164.445 1386.43 Q164.445 1379.3 162.616 1375.76 Q160.811 1372.19 157.177 1372.19 M157.177 1368.49 Q162.987 1368.49 166.042 1373.1 Q169.121 1377.68 169.121 1386.43 Q169.121 1395.16 166.042 1399.76 Q162.987 1404.35 157.177 1404.35 Q151.366 1404.35 148.288 1399.76 Q145.232 1395.16 145.232 1386.43 Q145.232 1377.68 148.288 1373.1 Q151.366 1368.49 157.177 1368.49 Z" fill="#000000" fill-rule="nonzero" fill-opacity="1" /><path clip-path="url(#clip020)" d="M117.825 1154.51 L125.464 1154.51 L125.464 1128.15 L117.154 1129.81 L117.154 1125.55 L125.418 1123.89 L130.093 1123.89 L130.093 1154.51 L137.732 1154.51 L137.732 1158.45 L117.825 1158.45 L117.825 1154.51 Z" fill="#000000" fill-rule="nonzero" fill-opacity="1" /><path clip-path="url(#clip020)" d="M157.177 1126.97 Q153.566 1126.97 151.737 1130.53 Q149.931 1134.07 149.931 1141.2 Q149.931 1148.31 151.737 1151.87 Q153.566 1155.42 157.177 1155.42 Q160.811 1155.42 162.616 1151.87 Q164.445 1148.31 164.445 1141.2 Q164.445 1134.07 162.616 1130.53 Q160.811 1126.97 157.177 1126.97 M157.177 1123.26 Q162.987 1123.26 166.042 1127.87 Q169.121 1132.45 169.121 1141.2 Q169.121 1149.93 166.042 1154.54 Q162.987 1159.12 157.177 1159.12 Q151.366 1159.12 148.288 1154.54 Q145.232 1149.93 145.232 1141.2 Q145.232 1132.45 148.288 1127.87 Q151.366 1123.26 157.177 1123.26 Z" fill="#000000" fill-rule="nonzero" fill-opacity="1" /><path clip-path="url(#clip020)" d="M121.043 909.285 L137.362 909.285 L137.362 913.22 L115.418 913.22 L115.418 909.285 Q118.08 906.53 122.663 901.901 Q127.269 897.248 128.45 895.905 Q130.695 893.382 131.575 891.646 Q132.478 889.887 132.478 888.197 Q132.478 885.442 130.533 883.706 Q128.612 881.97 125.51 881.97 Q123.311 881.97 120.857 882.734 Q118.427 883.498 115.649 885.049 L115.649 880.327 Q118.473 879.192 120.927 878.614 Q123.38 878.035 125.418 878.035 Q130.788 878.035 133.982 880.72 Q137.177 883.405 137.177 887.896 Q137.177 890.026 136.367 891.947 Q135.579 893.845 133.473 896.438 Q132.894 897.109 129.792 900.326 Q126.691 903.521 121.043 909.285 Z" fill="#000000" fill-rule="nonzero" fill-opacity="1" /><path clip-path="url(#clip020)" d="M157.177 881.739 Q153.566 881.739 151.737 885.303 Q149.931 888.845 149.931 895.975 Q149.931 903.081 151.737 906.646 Q153.566 910.188 157.177 910.188 Q160.811 910.188 162.616 906.646 Q164.445 903.081 164.445 895.975 Q164.445 888.845 162.616 885.303 Q160.811 881.739 157.177 881.739 M157.177 878.035 Q162.987 878.035 166.042 882.641 Q169.121 887.225 169.121 895.975 Q169.121 904.701 166.042 909.308 Q162.987 913.891 157.177 913.891 Q151.366 913.891 148.288 909.308 Q145.232 904.701 145.232 895.975 Q145.232 887.225 148.288 882.641 Q151.366 878.035 157.177 878.035 Z" fill="#000000" fill-rule="nonzero" fill-opacity="1" /><path clip-path="url(#clip020)" d="M131.181 649.358 Q134.538 650.075 136.413 652.344 Q138.311 654.612 138.311 657.946 Q138.311 663.062 134.792 665.862 Q131.274 668.663 124.793 668.663 Q122.617 668.663 120.302 668.224 Q118.01 667.807 115.556 666.95 L115.556 662.437 Q117.501 663.571 119.816 664.149 Q122.13 664.728 124.654 664.728 Q129.052 664.728 131.343 662.992 Q133.658 661.256 133.658 657.946 Q133.658 654.89 131.505 653.177 Q129.376 651.441 125.556 651.441 L121.529 651.441 L121.529 647.599 L125.742 647.599 Q129.191 647.599 131.019 646.233 Q132.848 644.844 132.848 642.251 Q132.848 639.589 130.95 638.177 Q129.075 636.742 125.556 636.742 Q123.635 636.742 121.436 637.159 Q119.237 637.576 116.598 638.455 L116.598 634.289 Q119.26 633.548 121.575 633.177 Q123.913 632.807 125.973 632.807 Q131.297 632.807 134.399 635.238 Q137.501 637.645 137.501 641.765 Q137.501 644.636 135.857 646.626 Q134.214 648.594 131.181 649.358 Z" fill="#000000" fill-rule="nonzero" fill-opacity="1" /><path clip-path="url(#clip020)" d="M157.177 636.511 Q153.566 636.511 151.737 640.076 Q149.931 643.617 149.931 650.747 Q149.931 657.853 151.737 661.418 Q153.566 664.96 157.177 664.96 Q160.811 664.96 162.616 661.418 Q164.445 657.853 164.445 650.747 Q164.445 643.617 162.616 640.076 Q160.811 636.511 157.177 636.511 M157.177 632.807 Q162.987 632.807 166.042 637.414 Q169.121 641.997 169.121 650.747 Q169.121 659.474 166.042 664.08 Q162.987 668.663 157.177 668.663 Q151.366 668.663 148.288 664.08 Q145.232 659.474 145.232 650.747 Q145.232 641.997 148.288 637.414 Q151.366 632.807 157.177 632.807 Z" fill="#000000" fill-rule="nonzero" fill-opacity="1" /><path clip-path="url(#clip020)" d="M129.862 392.278 L118.056 410.727 L129.862 410.727 L129.862 392.278 M128.635 388.204 L134.515 388.204 L134.515 410.727 L139.445 410.727 L139.445 414.616 L134.515 414.616 L134.515 422.764 L129.862 422.764 L129.862 414.616 L114.26 414.616 L114.26 410.102 L128.635 388.204 Z" fill="#000000" fill-rule="nonzero" fill-opacity="1" /><path clip-path="url(#clip020)" d="M157.177 391.283 Q153.566 391.283 151.737 394.848 Q149.931 398.389 149.931 405.519 Q149.931 412.625 151.737 416.19 Q153.566 419.732 157.177 419.732 Q160.811 419.732 162.616 416.19 Q164.445 412.625 164.445 405.519 Q164.445 398.389 162.616 394.848 Q160.811 391.283 157.177 391.283 M157.177 387.579 Q162.987 387.579 166.042 392.186 Q169.121 396.769 169.121 405.519 Q169.121 414.246 166.042 418.852 Q162.987 423.435 157.177 423.435 Q151.366 423.435 148.288 418.852 Q145.232 414.246 145.232 405.519 Q145.232 396.769 148.288 392.186 Q151.366 387.579 157.177 387.579 Z" fill="#000000" fill-rule="nonzero" fill-opacity="1" /><path clip-path="url(#clip020)" d="M117.061 142.976 L135.417 142.976 L135.417 146.911 L121.343 146.911 L121.343 155.384 Q122.362 155.036 123.38 154.874 Q124.399 154.689 125.418 154.689 Q131.205 154.689 134.584 157.86 Q137.964 161.032 137.964 166.448 Q137.964 172.027 134.492 175.129 Q131.019 178.208 124.7 178.208 Q122.524 178.208 120.255 177.837 Q118.01 177.467 115.603 176.726 L115.603 172.027 Q117.686 173.161 119.908 173.717 Q122.13 174.272 124.607 174.272 Q128.612 174.272 130.95 172.166 Q133.288 170.059 133.288 166.448 Q133.288 162.837 130.95 160.731 Q128.612 158.624 124.607 158.624 Q122.732 158.624 120.857 159.041 Q119.006 159.458 117.061 160.337 L117.061 142.976 Z" fill="#000000" fill-rule="nonzero" fill-opacity="1" /><path clip-path="url(#clip020)" d="M157.177 146.055 Q153.566 146.055 151.737 149.62 Q149.931 153.161 149.931 160.291 Q149.931 167.397 151.737 170.962 Q153.566 174.504 157.177 174.504 Q160.811 174.504 162.616 170.962 Q164.445 167.397 164.445 160.291 Q164.445 153.161 162.616 149.62 Q160.811 146.055 157.177 146.055 M157.177 142.351 Q162.987 142.351 166.042 146.958 Q169.121 151.541 169.121 160.291 Q169.121 169.018 166.042 173.624 Q162.987 178.208 157.177 178.208 Q151.366 178.208 148.288 173.624 Q145.232 169.018 145.232 160.291 Q145.232 151.541 148.288 146.958 Q151.366 142.351 157.177 142.351 Z" fill="#000000" fill-rule="nonzero" fill-opacity="1" /><path clip-path="url(#clip020)" d="M16.4842 963.772 L16.4842 933.726 L21.895 933.726 L21.895 957.343 L35.9632 957.343 L35.9632 934.713 L41.3741 934.713 L41.3741 957.343 L58.5933 957.343 L58.5933 933.153 L64.0042 933.153 L64.0042 963.772 L16.4842 963.772 Z" fill="#000000" fill-rule="nonzero" fill-opacity="1" /><path clip-path="url(#clip020)" d="M18.2347 917.048 L28.3562 917.048 L28.3562 904.985 L32.9077 904.985 L32.9077 917.048 L52.2594 917.048 Q56.6199 917.048 57.8613 915.87 Q59.1026 914.661 59.1026 911 L59.1026 904.985 L64.0042 904.985 L64.0042 911 Q64.0042 917.78 61.4897 920.358 Q58.9434 922.936 52.2594 922.936 L32.9077 922.936 L32.9077 927.233 L28.3562 927.233 L28.3562 922.936 L18.2347 922.936 L18.2347 917.048 Z" fill="#000000" fill-rule="nonzero" fill-opacity="1" /><path clip-path="url(#clip020)" d="M18.2347 891.489 L28.3562 891.489 L28.3562 879.426 L32.9077 879.426 L32.9077 891.489 L52.2594 891.489 Q56.6199 891.489 57.8613 890.312 Q59.1026 889.102 59.1026 885.442 L59.1026 879.426 L64.0042 879.426 L64.0042 885.442 Q64.0042 892.221 61.4897 894.8 Q58.9434 897.378 52.2594 897.378 L32.9077 897.378 L32.9077 901.675 L28.3562 901.675 L28.3562 897.378 L18.2347 897.378 L18.2347 891.489 Z" fill="#000000" fill-rule="nonzero" fill-opacity="1" /><path clip-path="url(#clip020)" d="M44.7161 841.232 L47.5806 841.232 L47.5806 868.159 Q53.6281 867.777 56.8109 864.531 Q59.9619 861.252 59.9619 855.428 Q59.9619 852.054 59.1344 848.903 Q58.3069 845.72 56.6518 842.601 L62.1899 842.601 Q63.5267 845.752 64.227 849.062 Q64.9272 852.372 64.9272 855.778 Q64.9272 864.308 59.9619 869.305 Q54.9967 874.27 46.5303 874.27 Q37.7774 874.27 32.6531 869.56 Q27.4968 864.817 27.4968 856.796 Q27.4968 849.603 32.1438 845.434 Q36.7589 841.232 44.7161 841.232 M42.9973 847.089 Q38.1912 847.152 35.3266 849.794 Q32.4621 852.404 32.4621 856.733 Q32.4621 861.634 35.2312 864.594 Q38.0002 867.523 43.0292 867.968 L42.9973 847.089 Z" fill="#000000" fill-rule="nonzero" fill-opacity="1" /><path clip-path="url(#clip020)" d="M33.8307 810.963 Q33.2578 811.95 33.0032 813.128 Q32.7167 814.273 32.7167 815.674 Q32.7167 820.639 35.9632 823.313 Q39.1779 825.954 45.2253 825.954 L64.0042 825.954 L64.0042 831.843 L28.3562 831.843 L28.3562 825.954 L33.8944 825.954 Q30.6479 824.108 29.0883 821.148 Q27.4968 818.188 27.4968 813.955 Q27.4968 813.35 27.5923 812.618 Q27.656 811.886 27.8151 810.995 L33.8307 810.963 Z" fill="#000000" fill-rule="nonzero" fill-opacity="1" /><path clip-path="url(#clip020)" d="M29.4065 782.095 L34.9447 782.095 Q33.6716 784.577 33.035 787.251 Q32.3984 789.925 32.3984 792.789 Q32.3984 797.15 33.7352 799.346 Q35.072 801.51 37.7456 801.51 Q39.7826 801.51 40.9603 799.951 Q42.1061 798.391 43.1565 793.68 L43.6021 791.675 Q44.9389 785.437 47.3897 782.827 Q49.8086 780.185 54.1691 780.185 Q59.1344 780.185 62.0308 784.132 Q64.9272 788.047 64.9272 794.922 Q64.9272 797.786 64.3543 800.905 Q63.8132 803.993 62.6992 807.43 L56.6518 807.43 Q58.3387 804.184 59.198 801.033 Q60.0256 797.882 60.0256 794.794 Q60.0256 790.657 58.6251 788.429 Q57.1929 786.201 54.6147 786.201 Q52.2276 786.201 50.9545 787.824 Q49.6813 789.415 48.5037 794.858 L48.0262 796.895 Q46.8804 802.338 44.5251 804.757 Q42.138 807.176 38.0002 807.176 Q32.9713 807.176 30.2341 803.611 Q27.4968 800.046 27.4968 793.489 Q27.4968 790.243 27.9743 787.378 Q28.4517 784.514 29.4065 782.095 Z" fill="#000000" fill-rule="nonzero" fill-opacity="1" /><path clip-path="url(#clip020)" d="M58.657 765.194 L77.5631 765.194 L77.5631 771.082 L28.3562 771.082 L28.3562 765.194 L33.7671 765.194 Q30.5842 763.348 29.0564 760.547 Q27.4968 757.714 27.4968 753.799 Q27.4968 747.306 32.6531 743.264 Q37.8093 739.19 46.212 739.19 Q54.6147 739.19 59.771 743.264 Q64.9272 747.306 64.9272 753.799 Q64.9272 757.714 63.3994 760.547 Q61.8398 763.348 58.657 765.194 M46.212 745.269 Q39.7508 745.269 36.0905 747.943 Q32.3984 750.584 32.3984 755.231 Q32.3984 759.878 36.0905 762.552 Q39.7508 765.194 46.212 765.194 Q52.6732 765.194 56.3653 762.552 Q60.0256 759.878 60.0256 755.231 Q60.0256 750.584 56.3653 747.943 Q52.6732 745.269 46.212 745.269 Z" fill="#000000" fill-rule="nonzero" fill-opacity="1" /><path clip-path="url(#clip020)" d="M38.5095 706.82 L57.352 722.321 Q58.6888 721.016 59.3254 719.393 Q59.9619 717.737 59.9619 715.669 Q59.9619 710.99 56.2698 708.253 Q52.5777 705.515 46.212 705.515 Q43.6976 705.515 41.8515 705.834 Q39.9736 706.152 38.5095 706.82 M35.072 709.08 Q33.7671 710.417 33.1305 712.072 Q32.4621 713.695 32.4621 715.669 Q32.4621 720.475 36.2178 723.18 Q39.9418 725.854 46.6576 725.854 Q48.9493 725.854 50.6998 725.567 Q52.4504 725.249 53.9145 724.612 L35.072 709.08 M58.7206 728.591 Q56.2698 730.31 53.1506 731.169 Q49.9996 732.028 46.212 732.028 Q37.4273 732.028 32.4621 727.7 Q27.4968 723.339 27.4968 715.669 Q27.4968 712.709 28.3244 710.194 Q29.1201 707.648 30.7752 705.515 L25.428 701.091 L27.9424 698.067 L33.6397 702.714 Q36.0905 701.027 39.2416 700.168 Q42.3926 699.309 46.212 699.309 Q54.9649 699.309 59.9619 703.669 Q64.9272 708.03 64.9272 715.669 Q64.9272 718.724 64.0996 721.302 Q63.2721 723.849 61.6488 725.854 L66.996 730.278 L64.5134 733.333 L58.7206 728.591 Z" fill="#000000" fill-rule="nonzero" fill-opacity="1" /><path clip-path="url(#clip020)" d="M33.8307 668.944 Q33.2578 669.931 33.0032 671.109 Q32.7167 672.254 32.7167 673.655 Q32.7167 678.62 35.9632 681.294 Q39.1779 683.936 45.2253 683.936 L64.0042 683.936 L64.0042 689.824 L28.3562 689.824 L28.3562 683.936 L33.8944 683.936 Q30.6479 682.089 29.0883 679.129 Q27.4968 676.169 27.4968 671.936 Q27.4968 671.331 27.5923 670.599 Q27.656 669.867 27.8151 668.976 L33.8307 668.944 Z" fill="#000000" fill-rule="nonzero" fill-opacity="1" /><path clip-path="url(#clip020)" d="M29.4065 640.076 L34.9447 640.076 Q33.6716 642.558 33.035 645.232 Q32.3984 647.906 32.3984 650.77 Q32.3984 655.131 33.7352 657.327 Q35.072 659.491 37.7456 659.491 Q39.7826 659.491 40.9603 657.932 Q42.1061 656.372 43.1565 651.661 L43.6021 649.656 Q44.9389 643.418 47.3897 640.808 Q49.8086 638.166 54.1691 638.166 Q59.1344 638.166 62.0308 642.113 Q64.9272 646.028 64.9272 652.903 Q64.9272 655.767 64.3543 658.886 Q63.8132 661.974 62.6992 665.411 L56.6518 665.411 Q58.3387 662.165 59.198 659.014 Q60.0256 655.863 60.0256 652.775 Q60.0256 648.638 58.6251 646.41 Q57.1929 644.182 54.6147 644.182 Q52.2276 644.182 50.9545 645.805 Q49.6813 647.396 48.5037 652.839 L48.0262 654.876 Q46.8804 660.319 44.5251 662.738 Q42.138 665.157 38.0002 665.157 Q32.9713 665.157 30.2341 661.592 Q27.4968 658.027 27.4968 651.47 Q27.4968 648.224 27.9743 645.359 Q28.4517 642.495 29.4065 640.076 Z" fill="#000000" fill-rule="nonzero" fill-opacity="1" /><path clip-path="url(#clip020)" d="M44.7161 598.349 L47.5806 598.349 L47.5806 625.276 Q53.6281 624.894 56.8109 621.647 Q59.9619 618.369 59.9619 612.544 Q59.9619 609.17 59.1344 606.019 Q58.3069 602.836 56.6518 599.717 L62.1899 599.717 Q63.5267 602.868 64.227 606.178 Q64.9272 609.489 64.9272 612.894 Q64.9272 621.424 59.9619 626.421 Q54.9967 631.387 46.5303 631.387 Q37.7774 631.387 32.6531 626.676 Q27.4968 621.934 27.4968 613.913 Q27.4968 606.72 32.1438 602.55 Q36.7589 598.349 44.7161 598.349 M42.9973 604.205 Q38.1912 604.269 35.3266 606.91 Q32.4621 609.52 32.4621 613.849 Q32.4621 618.751 35.2312 621.711 Q38.0002 624.639 43.0292 625.085 L42.9973 604.205 Z" fill="#000000" fill-rule="nonzero" fill-opacity="1" /><path clip-path="url(#clip020)" d="M14.479 588.736 L14.479 582.88 L64.0042 582.88 L64.0042 588.736 L14.479 588.736 Z" fill="#000000" fill-rule="nonzero" fill-opacity="1" /><path clip-path="url(#clip020)" d="M592.047 12.096 L630.287 12.096 L630.287 18.9825 L600.23 18.9825 L600.23 36.8875 L629.032 36.8875 L629.032 43.7741 L600.23 43.7741 L600.23 65.6895 L631.017 65.6895 L631.017 72.576 L592.047 72.576 L592.047 12.096 Z" fill="#000000" fill-rule="nonzero" fill-opacity="1" /><path clip-path="url(#clip020)" d="M651.514 14.324 L651.514 27.2059 L666.867 27.2059 L666.867 32.9987 L651.514 32.9987 L651.514 57.6282 Q651.514 63.1779 653.013 64.7578 Q654.552 66.3376 659.211 66.3376 L666.867 66.3376 L666.867 72.576 L659.211 72.576 Q650.582 72.576 647.301 69.3758 Q644.02 66.1351 644.02 57.6282 L644.02 32.9987 L638.551 32.9987 L638.551 27.2059 L644.02 27.2059 L644.02 14.324 L651.514 14.324 Z" fill="#000000" fill-rule="nonzero" fill-opacity="1" /><path clip-path="url(#clip020)" d="M684.043 14.324 L684.043 27.2059 L699.396 27.2059 L699.396 32.9987 L684.043 32.9987 L684.043 57.6282 Q684.043 63.1779 685.542 64.7578 Q687.081 66.3376 691.74 66.3376 L699.396 66.3376 L699.396 72.576 L691.74 72.576 Q683.111 72.576 679.83 69.3758 Q676.549 66.1351 676.549 57.6282 L676.549 32.9987 L671.08 32.9987 L671.08 27.2059 L676.549 27.2059 L676.549 14.324 L684.043 14.324 Z" fill="#000000" fill-rule="nonzero" fill-opacity="1" /><path clip-path="url(#clip020)" d="M748.007 48.0275 L748.007 51.6733 L713.736 51.6733 Q714.222 59.3701 718.354 63.421 Q722.526 67.4314 729.94 67.4314 Q734.234 67.4314 738.244 66.3781 Q742.295 65.3249 746.265 63.2184 L746.265 70.267 Q742.254 71.9684 738.041 72.8596 Q733.829 73.7508 729.494 73.7508 Q718.638 73.7508 712.278 67.4314 Q705.958 61.1119 705.958 50.3365 Q705.958 39.1965 711.954 32.6746 Q717.989 26.1121 728.198 26.1121 Q737.353 26.1121 742.659 32.0264 Q748.007 37.9003 748.007 48.0275 M740.553 45.84 Q740.472 39.7232 737.11 36.0774 Q733.788 32.4315 728.279 32.4315 Q722.04 32.4315 718.273 35.9558 Q714.546 39.4801 713.979 45.8805 L740.553 45.84 Z" fill="#000000" fill-rule="nonzero" fill-opacity="1" /><path clip-path="url(#clip020)" d="M786.531 34.1734 Q785.275 33.4443 783.776 33.1202 Q782.318 32.7556 780.535 32.7556 Q774.216 32.7556 770.813 36.8875 Q767.451 40.9789 767.451 48.6757 L767.451 72.576 L759.957 72.576 L759.957 27.2059 L767.451 27.2059 L767.451 34.2544 Q769.801 30.1225 773.568 28.1376 Q777.335 26.1121 782.723 26.1121 Q783.493 26.1121 784.424 26.2337 Q785.356 26.3147 786.49 26.5172 L786.531 34.1734 Z" fill="#000000" fill-rule="nonzero" fill-opacity="1" /><path clip-path="url(#clip020)" d="M823.272 28.5427 L823.272 35.5912 Q820.113 33.9709 816.71 33.1607 Q813.307 32.3505 809.661 32.3505 Q804.112 32.3505 801.317 34.0519 Q798.562 35.7533 798.562 39.156 Q798.562 41.7486 800.547 43.2475 Q802.532 44.7058 808.527 46.0426 L811.079 46.6097 Q819.019 48.3111 822.341 51.4303 Q825.703 54.509 825.703 60.0587 Q825.703 66.3781 820.68 70.0644 Q815.697 73.7508 806.947 73.7508 Q803.302 73.7508 799.332 73.0216 Q795.402 72.3329 791.027 70.9151 L791.027 63.2184 Q795.159 65.3654 799.17 66.4591 Q803.18 67.5124 807.109 67.5124 Q812.376 67.5124 815.211 65.73 Q818.047 63.9071 818.047 60.6258 Q818.047 57.5877 815.981 55.9673 Q813.955 54.3469 807.028 52.8481 L804.436 52.2405 Q797.509 50.7821 794.43 47.7845 Q791.351 44.7463 791.351 39.4801 Q791.351 33.0797 795.888 29.5959 Q800.425 26.1121 808.77 26.1121 Q812.902 26.1121 816.548 26.7198 Q820.194 27.3274 823.272 28.5427 Z" fill="#000000" fill-rule="nonzero" fill-opacity="1" /><path clip-path="url(#clip020)" d="M844.783 65.7705 L844.783 89.8329 L837.289 89.8329 L837.289 27.2059 L844.783 27.2059 L844.783 34.0924 Q847.132 30.0415 850.697 28.0971 Q854.302 26.1121 859.285 26.1121 Q867.549 26.1121 872.694 32.6746 Q877.879 39.2371 877.879 49.9314 Q877.879 60.6258 872.694 67.1883 Q867.549 73.7508 859.285 73.7508 Q854.302 73.7508 850.697 71.8063 Q847.132 69.8214 844.783 65.7705 M870.141 49.9314 Q870.141 41.7081 866.739 37.0496 Q863.376 32.3505 857.462 32.3505 Q851.548 32.3505 848.145 37.0496 Q844.783 41.7081 844.783 49.9314 Q844.783 58.1548 848.145 62.8538 Q851.548 67.5124 857.462 67.5124 Q863.376 67.5124 866.739 62.8538 Q870.141 58.1548 870.141 49.9314 Z" fill="#000000" fill-rule="nonzero" fill-opacity="1" /><path clip-path="url(#clip020)" d="M919.076 40.1283 L899.348 64.1096 Q901.009 65.811 903.075 66.6212 Q905.182 67.4314 907.815 67.4314 Q913.77 67.4314 917.253 62.7323 Q920.737 58.0333 920.737 49.9314 Q920.737 46.7312 920.332 44.3817 Q919.927 41.9917 919.076 40.1283 M916.2 35.7533 Q914.499 34.0924 912.392 33.2822 Q910.326 32.4315 907.815 32.4315 Q901.698 32.4315 898.255 37.2116 Q894.852 41.9512 894.852 50.4986 Q894.852 53.4152 895.217 55.6432 Q895.622 57.8712 896.432 59.7346 L916.2 35.7533 M891.368 65.8515 Q889.181 62.7323 888.087 58.7624 Q886.993 54.752 886.993 49.9314 Q886.993 38.7509 892.502 32.4315 Q898.052 26.1121 907.815 26.1121 Q911.582 26.1121 914.782 27.1654 Q918.023 28.1781 920.737 30.2846 L926.368 23.479 L930.216 26.6793 L924.302 33.9304 Q926.449 37.0496 927.543 41.06 Q928.636 45.0704 928.636 49.9314 Q928.636 61.0714 923.087 67.4314 Q917.537 73.7508 907.815 73.7508 Q903.926 73.7508 900.645 72.6975 Q897.404 71.6443 894.852 69.5783 L889.221 76.3838 L885.332 73.2241 L891.368 65.8515 Z" fill="#000000" fill-rule="nonzero" fill-opacity="1" /><path clip-path="url(#clip020)" d="M967.282 34.1734 Q966.026 33.4443 964.528 33.1202 Q963.069 32.7556 961.287 32.7556 Q954.967 32.7556 951.565 36.8875 Q948.202 40.9789 948.202 48.6757 L948.202 72.576 L940.708 72.576 L940.708 27.2059 L948.202 27.2059 L948.202 34.2544 Q950.552 30.1225 954.319 28.1376 Q958.087 26.1121 963.474 26.1121 Q964.244 26.1121 965.176 26.2337 Q966.107 26.3147 967.242 26.5172 L967.282 34.1734 Z" fill="#000000" fill-rule="nonzero" fill-opacity="1" /><path clip-path="url(#clip020)" d="M1004.02 28.5427 L1004.02 35.5912 Q1000.86 33.9709 997.461 33.1607 Q994.059 32.3505 990.413 32.3505 Q984.863 32.3505 982.068 34.0519 Q979.313 35.7533 979.313 39.156 Q979.313 41.7486 981.298 43.2475 Q983.283 44.7058 989.279 46.0426 L991.831 46.6097 Q999.77 48.3111 1003.09 51.4303 Q1006.45 54.509 1006.45 60.0587 Q1006.45 66.3781 1001.43 70.0644 Q996.449 73.7508 987.699 73.7508 Q984.053 73.7508 980.083 73.0216 Q976.154 72.3329 971.779 70.9151 L971.779 63.2184 Q975.911 65.3654 979.921 66.4591 Q983.931 67.5124 987.861 67.5124 Q993.127 67.5124 995.963 65.73 Q998.798 63.9071 998.798 60.6258 Q998.798 57.5877 996.732 55.9673 Q994.707 54.3469 987.78 52.8481 L985.187 52.2405 Q978.26 50.7821 975.181 47.7845 Q972.103 44.7463 972.103 39.4801 Q972.103 33.0797 976.64 29.5959 Q981.177 26.1121 989.522 26.1121 Q993.654 26.1121 997.299 26.7198 Q1000.95 27.3274 1004.02 28.5427 Z" fill="#000000" fill-rule="nonzero" fill-opacity="1" /><path clip-path="url(#clip020)" d="M1057.13 48.0275 L1057.13 51.6733 L1022.86 51.6733 Q1023.35 59.3701 1027.48 63.421 Q1031.65 67.4314 1039.06 67.4314 Q1043.36 67.4314 1047.37 66.3781 Q1051.42 65.3249 1055.39 63.2184 L1055.39 70.267 Q1051.38 71.9684 1047.17 72.8596 Q1042.95 73.7508 1038.62 73.7508 Q1027.76 73.7508 1021.4 67.4314 Q1015.08 61.1119 1015.08 50.3365 Q1015.08 39.1965 1021.08 32.6746 Q1027.11 26.1121 1037.32 26.1121 Q1046.48 26.1121 1051.78 32.0264 Q1057.13 37.9003 1057.13 48.0275 M1049.68 45.84 Q1049.6 39.7232 1046.23 36.0774 Q1042.91 32.4315 1037.4 32.4315 Q1031.16 32.4315 1027.4 35.9558 Q1023.67 39.4801 1023.1 45.8805 L1049.68 45.84 Z" fill="#000000" fill-rule="nonzero" fill-opacity="1" /><path clip-path="url(#clip020)" d="M1069.36 9.54393 L1076.82 9.54393 L1076.82 72.576 L1069.36 72.576 L1069.36 9.54393 Z" fill="#000000" fill-rule="nonzero" fill-opacity="1" /><path clip-path="url(#clip020)" d="M1147.71 28.5427 L1147.71 35.5912 Q1144.55 33.9709 1141.15 33.1607 Q1137.74 32.3505 1134.1 32.3505 Q1128.55 32.3505 1125.75 34.0519 Q1123 35.7533 1123 39.156 Q1123 41.7486 1124.98 43.2475 Q1126.97 44.7058 1132.96 46.0426 L1135.52 46.6097 Q1143.46 48.3111 1146.78 51.4303 Q1150.14 54.509 1150.14 60.0587 Q1150.14 66.3781 1145.12 70.0644 Q1140.13 73.7508 1131.38 73.7508 Q1127.74 73.7508 1123.77 73.0216 Q1119.84 72.3329 1115.46 70.9151 L1115.46 63.2184 Q1119.6 65.3654 1123.61 66.4591 Q1127.62 67.5124 1131.55 67.5124 Q1136.81 67.5124 1139.65 65.73 Q1142.48 63.9071 1142.48 60.6258 Q1142.48 57.5877 1140.42 55.9673 Q1138.39 54.3469 1131.47 52.8481 L1128.87 52.2405 Q1121.95 50.7821 1118.87 47.7845 Q1115.79 44.7463 1115.79 39.4801 Q1115.79 33.0797 1120.33 29.5959 Q1124.86 26.1121 1133.21 26.1121 Q1137.34 26.1121 1140.98 26.7198 Q1144.63 27.3274 1147.71 28.5427 Z" fill="#000000" fill-rule="nonzero" fill-opacity="1" /><path clip-path="url(#clip020)" d="M1179.59 32.4315 Q1173.59 32.4315 1170.11 37.1306 Q1166.63 41.7891 1166.63 49.9314 Q1166.63 58.0738 1170.07 62.7728 Q1173.55 67.4314 1179.59 67.4314 Q1185.54 67.4314 1189.03 62.7323 Q1192.51 58.0333 1192.51 49.9314 Q1192.51 41.8701 1189.03 37.1711 Q1185.54 32.4315 1179.59 32.4315 M1179.59 26.1121 Q1189.31 26.1121 1194.86 32.4315 Q1200.41 38.7509 1200.41 49.9314 Q1200.41 61.0714 1194.86 67.4314 Q1189.31 73.7508 1179.59 73.7508 Q1169.83 73.7508 1164.28 67.4314 Q1158.77 61.0714 1158.77 49.9314 Q1158.77 38.7509 1164.28 32.4315 Q1169.83 26.1121 1179.59 26.1121 Z" fill="#000000" fill-rule="nonzero" fill-opacity="1" /><path clip-path="url(#clip020)" d="M1248.09 35.9153 Q1250.89 30.8922 1254.77 28.5022 Q1258.66 26.1121 1263.93 26.1121 Q1271.02 26.1121 1274.87 31.0947 Q1278.72 36.0368 1278.72 45.1919 L1278.72 72.576 L1271.22 72.576 L1271.22 45.4349 Q1271.22 38.913 1268.91 35.7533 Q1266.6 32.5936 1261.86 32.5936 Q1256.07 32.5936 1252.71 36.4419 Q1249.35 40.2903 1249.35 46.9338 L1249.35 72.576 L1241.85 72.576 L1241.85 45.4349 Q1241.85 38.8725 1239.54 35.7533 Q1237.23 32.5936 1232.41 32.5936 Q1226.7 32.5936 1223.34 36.4824 Q1219.98 40.3308 1219.98 46.9338 L1219.98 72.576 L1212.48 72.576 L1212.48 27.2059 L1219.98 27.2059 L1219.98 34.2544 Q1222.53 30.082 1226.09 28.0971 Q1229.66 26.1121 1234.56 26.1121 Q1239.5 26.1121 1242.95 28.6237 Q1246.43 31.1352 1248.09 35.9153 Z" fill="#000000" fill-rule="nonzero" fill-opacity="1" /><path clip-path="url(#clip020)" d="M1342.92 9.54393 L1342.92 15.7418 L1335.79 15.7418 Q1331.78 15.7418 1330.2 17.3622 Q1328.66 18.9825 1328.66 23.1955 L1328.66 27.2059 L1340.94 27.2059 L1340.94 32.9987 L1328.66 32.9987 L1328.66 72.576 L1321.17 72.576 L1321.17 32.9987 L1314.04 32.9987 L1314.04 27.2059 L1321.17 27.2059 L1321.17 24.0462 Q1321.17 16.471 1324.69 13.0277 Q1328.22 9.54393 1335.87 9.54393 L1342.92 9.54393 Z" fill="#000000" fill-rule="nonzero" fill-opacity="1" /><path clip-path="url(#clip020)" d="M1348.39 54.671 L1348.39 27.2059 L1355.84 27.2059 L1355.84 54.3874 Q1355.84 60.8284 1358.36 64.0691 Q1360.87 67.2693 1365.89 67.2693 Q1371.93 67.2693 1375.41 63.421 Q1378.94 59.5726 1378.94 52.9291 L1378.94 27.2059 L1386.39 27.2059 L1386.39 72.576 L1378.94 72.576 L1378.94 65.6084 Q1376.22 69.7404 1372.62 71.7658 Q1369.05 73.7508 1364.31 73.7508 Q1356.49 73.7508 1352.44 68.8897 Q1348.39 64.0286 1348.39 54.671 M1367.15 26.1121 L1367.15 26.1121 Z" fill="#000000" fill-rule="nonzero" fill-opacity="1" /><path clip-path="url(#clip020)" d="M1439.46 45.1919 L1439.46 72.576 L1432 72.576 L1432 45.4349 Q1432 38.994 1429.49 35.7938 Q1426.98 32.5936 1421.96 32.5936 Q1415.92 32.5936 1412.44 36.4419 Q1408.95 40.2903 1408.95 46.9338 L1408.95 72.576 L1401.46 72.576 L1401.46 27.2059 L1408.95 27.2059 L1408.95 34.2544 Q1411.63 30.163 1415.23 28.1376 Q1418.88 26.1121 1423.62 26.1121 Q1431.43 26.1121 1435.45 30.9732 Q1439.46 35.7938 1439.46 45.1919 Z" fill="#000000" fill-rule="nonzero" fill-opacity="1" /><path clip-path="url(#clip020)" d="M1454.04 9.54393 L1461.53 9.54393 L1461.53 46.7717 L1483.77 27.2059 L1493.29 27.2059 L1469.23 48.4326 L1494.3 72.576 L1484.58 72.576 L1461.53 50.4176 L1461.53 72.576 L1454.04 72.576 L1454.04 9.54393 Z" fill="#000000" fill-rule="nonzero" fill-opacity="1" /><path clip-path="url(#clip020)" d="M1531.29 28.5427 L1531.29 35.5912 Q1528.13 33.9709 1524.73 33.1607 Q1521.32 32.3505 1517.68 32.3505 Q1512.13 32.3505 1509.33 34.0519 Q1506.58 35.7533 1506.58 39.156 Q1506.58 41.7486 1508.56 43.2475 Q1510.55 44.7058 1516.54 46.0426 L1519.1 46.6097 Q1527.04 48.3111 1530.36 51.4303 Q1533.72 54.509 1533.72 60.0587 Q1533.72 66.3781 1528.7 70.0644 Q1523.71 73.7508 1514.96 73.7508 Q1511.32 73.7508 1507.35 73.0216 Q1503.42 72.3329 1499.04 70.9151 L1499.04 63.2184 Q1503.18 65.3654 1507.19 66.4591 Q1511.2 67.5124 1515.13 67.5124 Q1520.39 67.5124 1523.23 65.73 Q1526.06 63.9071 1526.06 60.6258 Q1526.06 57.5877 1524 55.9673 Q1521.97 54.3469 1515.05 52.8481 L1512.45 52.2405 Q1505.53 50.7821 1502.45 47.7845 Q1499.37 44.7463 1499.37 39.4801 Q1499.37 33.0797 1503.91 29.5959 Q1508.44 26.1121 1516.79 26.1121 Q1520.92 26.1121 1524.57 26.7198 Q1528.21 27.3274 1531.29 28.5427 Z" fill="#000000" fill-rule="nonzero" fill-opacity="1" /><path clip-path="url(#clip020)" d="M1545.59 27.2059 L1553.04 27.2059 L1553.04 73.3862 Q1553.04 82.0551 1549.72 85.944 Q1546.44 89.8329 1539.11 89.8329 L1536.27 89.8329 L1536.27 83.5134 L1538.26 83.5134 Q1542.51 83.5134 1544.05 81.5285 Q1545.59 79.5841 1545.59 73.3862 L1545.59 27.2059 M1545.59 9.54393 L1553.04 9.54393 L1553.04 18.9825 L1545.59 18.9825 L1545.59 9.54393 Z" fill="#000000" fill-rule="nonzero" fill-opacity="1" /><path clip-path="url(#clip020)" d="M1586.22 32.4315 Q1580.22 32.4315 1576.74 37.1306 Q1573.26 41.7891 1573.26 49.9314 Q1573.26 58.0738 1576.7 62.7728 Q1580.18 67.4314 1586.22 67.4314 Q1592.17 67.4314 1595.66 62.7323 Q1599.14 58.0333 1599.14 49.9314 Q1599.14 41.8701 1595.66 37.1711 Q1592.17 32.4315 1586.22 32.4315 M1586.22 26.1121 Q1595.94 26.1121 1601.49 32.4315 Q1607.04 38.7509 1607.04 49.9314 Q1607.04 61.0714 1601.49 67.4314 Q1595.94 73.7508 1586.22 73.7508 Q1576.46 73.7508 1570.91 67.4314 Q1565.4 61.0714 1565.4 49.9314 Q1565.4 38.7509 1570.91 32.4315 Q1576.46 26.1121 1586.22 26.1121 Z" fill="#000000" fill-rule="nonzero" fill-opacity="1" /><path clip-path="url(#clip020)" d="M1657.11 45.1919 L1657.11 72.576 L1649.66 72.576 L1649.66 45.4349 Q1649.66 38.994 1647.15 35.7938 Q1644.63 32.5936 1639.61 32.5936 Q1633.57 32.5936 1630.09 36.4419 Q1626.61 40.2903 1626.61 46.9338 L1626.61 72.576 L1619.11 72.576 L1619.11 27.2059 L1626.61 27.2059 L1626.61 34.2544 Q1629.28 30.163 1632.89 28.1376 Q1636.53 26.1121 1641.27 26.1121 Q1649.09 26.1121 1653.1 30.9732 Q1657.11 35.7938 1657.11 45.1919 Z" fill="#000000" fill-rule="nonzero" fill-opacity="1" /><path clip-path="url(#clip020)" d="M1718.97 49.7694 Q1709.93 49.7694 1706.45 51.8354 Q1702.97 53.9013 1702.97 58.8839 Q1702.97 62.8538 1705.56 65.2034 Q1708.19 67.5124 1712.69 67.5124 Q1718.89 67.5124 1722.61 63.1374 Q1726.38 58.7219 1726.38 51.4303 L1726.38 49.7694 L1718.97 49.7694 M1733.83 46.6907 L1733.83 72.576 L1726.38 72.576 L1726.38 65.6895 Q1723.83 69.8214 1720.02 71.8063 Q1716.21 73.7508 1710.7 73.7508 Q1703.74 73.7508 1699.6 69.8619 Q1695.51 65.9325 1695.51 59.3701 Q1695.51 51.7138 1700.62 47.825 Q1705.76 43.9361 1715.93 43.9361 L1726.38 43.9361 L1726.38 43.2069 Q1726.38 38.0623 1722.98 35.2672 Q1719.62 32.4315 1713.5 32.4315 Q1709.61 32.4315 1705.92 33.3632 Q1702.24 34.295 1698.83 36.1584 L1698.83 29.2718 Q1702.93 27.692 1706.77 26.9223 Q1710.62 26.1121 1714.27 26.1121 Q1724.11 26.1121 1728.97 31.2163 Q1733.83 36.3204 1733.83 46.6907 Z" fill="#000000" fill-rule="nonzero" fill-opacity="1" /><path clip-path="url(#clip020)" d="M1743.84 27.2059 L1751.74 27.2059 L1765.92 65.2844 L1780.1 27.2059 L1788 27.2059 L1770.98 72.576 L1760.85 72.576 L1743.84 27.2059 Z" fill="#000000" fill-rule="nonzero" fill-opacity="1" /><path clip-path="url(#clip020)" d="M1831.87 65.7705 L1831.87 89.8329 L1824.37 89.8329 L1824.37 27.2059 L1831.87 27.2059 L1831.87 34.0924 Q1834.22 30.0415 1837.78 28.0971 Q1841.39 26.1121 1846.37 26.1121 Q1854.63 26.1121 1859.78 32.6746 Q1864.96 39.2371 1864.96 49.9314 Q1864.96 60.6258 1859.78 67.1883 Q1854.63 73.7508 1846.37 73.7508 Q1841.39 73.7508 1837.78 71.8063 Q1834.22 69.8214 1831.87 65.7705 M1857.23 49.9314 Q1857.23 41.7081 1853.82 37.0496 Q1850.46 32.3505 1844.55 32.3505 Q1838.63 32.3505 1835.23 37.0496 Q1831.87 41.7081 1831.87 49.9314 Q1831.87 58.1548 1835.23 62.8538 Q1838.63 67.5124 1844.55 67.5124 Q1850.46 67.5124 1853.82 62.8538 Q1857.23 58.1548 1857.23 49.9314 Z" fill="#000000" fill-rule="nonzero" fill-opacity="1" /><path clip-path="url(#clip020)" d="M1903.61 34.1734 Q1902.35 33.4443 1900.85 33.1202 Q1899.4 32.7556 1897.61 32.7556 Q1891.29 32.7556 1887.89 36.8875 Q1884.53 40.9789 1884.53 48.6757 L1884.53 72.576 L1877.03 72.576 L1877.03 27.2059 L1884.53 27.2059 L1884.53 34.2544 Q1886.88 30.1225 1890.65 28.1376 Q1894.41 26.1121 1899.8 26.1121 Q1900.57 26.1121 1901.5 26.2337 Q1902.43 26.3147 1903.57 26.5172 L1903.61 34.1734 Z" fill="#000000" fill-rule="nonzero" fill-opacity="1" /><path clip-path="url(#clip020)" d="M1911.43 27.2059 L1918.88 27.2059 L1918.88 72.576 L1911.43 72.576 L1911.43 27.2059 M1911.43 9.54393 L1918.88 9.54393 L1918.88 18.9825 L1911.43 18.9825 L1911.43 9.54393 Z" fill="#000000" fill-rule="nonzero" fill-opacity="1" /><path clip-path="url(#clip020)" d="M1963.4 28.5427 L1963.4 35.5912 Q1960.24 33.9709 1956.84 33.1607 Q1953.43 32.3505 1949.79 32.3505 Q1944.24 32.3505 1941.44 34.0519 Q1938.69 35.7533 1938.69 39.156 Q1938.69 41.7486 1940.67 43.2475 Q1942.66 44.7058 1948.65 46.0426 L1951.21 46.6097 Q1959.15 48.3111 1962.47 51.4303 Q1965.83 54.509 1965.83 60.0587 Q1965.83 66.3781 1960.81 70.0644 Q1955.82 73.7508 1947.07 73.7508 Q1943.43 73.7508 1939.46 73.0216 Q1935.53 72.3329 1931.15 70.9151 L1931.15 63.2184 Q1935.29 65.3654 1939.3 66.4591 Q1943.31 67.5124 1947.24 67.5124 Q1952.5 67.5124 1955.34 65.73 Q1958.17 63.9071 1958.17 60.6258 Q1958.17 57.5877 1956.11 55.9673 Q1954.08 54.3469 1947.16 52.8481 L1944.56 52.2405 Q1937.64 50.7821 1934.56 47.7845 Q1931.48 44.7463 1931.48 39.4801 Q1931.48 33.0797 1936.02 29.5959 Q1940.55 26.1121 1948.9 26.1121 Q1953.03 26.1121 1956.67 26.7198 Q1960.32 27.3274 1963.4 28.5427 Z" fill="#000000" fill-rule="nonzero" fill-opacity="1" /><polyline clip-path="url(#clip022)" style="stroke:#009af9; stroke-linecap:round; stroke-linejoin:round; stroke-width:4; stroke-opacity:1; fill:none" points="265.903,160.256 346.946,209.302 427.989,258.347 509.032,307.393 590.074,356.439 671.117,405.484 752.16,454.53 833.203,503.575 914.246,552.621 995.289,601.666 1076.33,650.712 1157.37,699.758 1238.42,748.803 1319.46,797.849 1400.5,846.894 1481.55,895.94 1562.59,944.985 1643.63,994.031 1724.67,1043.08 1805.72,1092.12 1886.76,1141.17 1967.8,1190.21 2048.85,1239.26 2129.89,1288.3 2210.93,1337.35 2291.97,1386.4 "/>
<path clip-path="url(#clip020)" d="M1789.39 270.476 L2281.17 270.476 L2281.17 166.796 L1789.39 166.796  Z" fill="#ffffff" fill-rule="evenodd" fill-opacity="1"/>
<polyline clip-path="url(#clip020)" style="stroke:#000000; stroke-linecap:round; stroke-linejoin:round; stroke-width:4; stroke-opacity:1; fill:none" points="1789.39,270.476 2281.17,270.476 2281.17,166.796 1789.39,166.796 1789.39,270.476 "/>
<polyline clip-path="url(#clip020)" style="stroke:#009af9; stroke-linecap:round; stroke-linejoin:round; stroke-width:4; stroke-opacity:1; fill:none" points="1813.25,218.636 1956.43,218.636 "/>
<path clip-path="url(#clip020)" d="M1980.29 201.356 L2002.14 201.356 L2002.14 205.291 L1984.97 205.291 L1984.97 215.522 L2001.43 215.522 L2001.43 219.457 L1984.97 219.457 L1984.97 231.981 L2002.56 231.981 L2002.56 235.916 L1980.29 235.916 L1980.29 201.356 Z" fill="#000000" fill-rule="nonzero" fill-opacity="1" /><path clip-path="url(#clip020)" d="M2014.27 202.629 L2014.27 209.99 L2023.05 209.99 L2023.05 213.3 L2014.27 213.3 L2014.27 227.374 Q2014.27 230.545 2015.13 231.448 Q2016.01 232.351 2018.67 232.351 L2023.05 232.351 L2023.05 235.916 L2018.67 235.916 Q2013.74 235.916 2011.87 234.087 Q2009.99 232.235 2009.99 227.374 L2009.99 213.3 L2006.87 213.3 L2006.87 209.99 L2009.99 209.99 L2009.99 202.629 L2014.27 202.629 Z" fill="#000000" fill-rule="nonzero" fill-opacity="1" /><path clip-path="url(#clip020)" d="M2032.86 202.629 L2032.86 209.99 L2041.64 209.99 L2041.64 213.3 L2032.86 213.3 L2032.86 227.374 Q2032.86 230.545 2033.72 231.448 Q2034.6 232.351 2037.26 232.351 L2041.64 232.351 L2041.64 235.916 L2037.26 235.916 Q2032.33 235.916 2030.45 234.087 Q2028.58 232.235 2028.58 227.374 L2028.58 213.3 L2025.45 213.3 L2025.45 209.99 L2028.58 209.99 L2028.58 202.629 L2032.86 202.629 Z" fill="#000000" fill-rule="nonzero" fill-opacity="1" /><path clip-path="url(#clip020)" d="M2069.41 221.888 L2069.41 223.971 L2049.83 223.971 Q2050.11 228.369 2052.47 230.684 Q2054.85 232.976 2059.09 232.976 Q2061.54 232.976 2063.83 232.374 Q2066.15 231.772 2068.42 230.569 L2068.42 234.596 Q2066.13 235.568 2063.72 236.078 Q2061.31 236.587 2058.83 236.587 Q2052.63 236.587 2049 232.976 Q2045.39 229.365 2045.39 223.207 Q2045.39 216.842 2048.81 213.115 Q2052.26 209.365 2058.09 209.365 Q2063.33 209.365 2066.36 212.745 Q2069.41 216.101 2069.41 221.888 M2065.15 220.638 Q2065.11 217.143 2063.19 215.059 Q2061.29 212.976 2058.14 212.976 Q2054.58 212.976 2052.42 214.99 Q2050.29 217.004 2049.97 220.661 L2065.15 220.638 Z" fill="#000000" fill-rule="nonzero" fill-opacity="1" /><path clip-path="url(#clip020)" d="M2091.43 213.971 Q2090.71 213.555 2089.85 213.37 Q2089.02 213.161 2088 213.161 Q2084.39 213.161 2082.45 215.522 Q2080.52 217.86 2080.52 222.258 L2080.52 235.916 L2076.24 235.916 L2076.24 209.99 L2080.52 209.99 L2080.52 214.018 Q2081.87 211.657 2084.02 210.522 Q2086.17 209.365 2089.25 209.365 Q2089.69 209.365 2090.22 209.434 Q2090.76 209.481 2091.4 209.596 L2091.43 213.971 Z" fill="#000000" fill-rule="nonzero" fill-opacity="1" /><path clip-path="url(#clip020)" d="M2112.42 210.754 L2112.42 214.782 Q2110.62 213.856 2108.67 213.393 Q2106.73 212.93 2104.64 212.93 Q2101.47 212.93 2099.88 213.902 Q2098.3 214.874 2098.3 216.819 Q2098.3 218.3 2099.44 219.157 Q2100.57 219.99 2104 220.754 L2105.45 221.078 Q2109.99 222.05 2111.89 223.832 Q2113.81 225.592 2113.81 228.763 Q2113.81 232.374 2110.94 234.481 Q2108.09 236.587 2103.09 236.587 Q2101.01 236.587 2098.74 236.17 Q2096.5 235.777 2094 234.967 L2094 230.569 Q2096.36 231.795 2098.65 232.42 Q2100.94 233.022 2103.19 233.022 Q2106.2 233.022 2107.82 232.004 Q2109.44 230.962 2109.44 229.087 Q2109.44 227.351 2108.26 226.425 Q2107.1 225.499 2103.14 224.643 L2101.66 224.295 Q2097.7 223.462 2095.94 221.749 Q2094.18 220.013 2094.18 217.004 Q2094.18 213.346 2096.77 211.356 Q2099.37 209.365 2104.13 209.365 Q2106.5 209.365 2108.58 209.712 Q2110.66 210.059 2112.42 210.754 Z" fill="#000000" fill-rule="nonzero" fill-opacity="1" /><path clip-path="url(#clip020)" d="M2124.71 232.027 L2124.71 245.777 L2120.43 245.777 L2120.43 209.99 L2124.71 209.99 L2124.71 213.925 Q2126.06 211.61 2128.09 210.499 Q2130.15 209.365 2133 209.365 Q2137.72 209.365 2140.66 213.115 Q2143.63 216.865 2143.63 222.976 Q2143.63 229.087 2140.66 232.837 Q2137.72 236.587 2133 236.587 Q2130.15 236.587 2128.09 235.476 Q2126.06 234.342 2124.71 232.027 M2139.2 222.976 Q2139.2 218.277 2137.26 215.615 Q2135.34 212.93 2131.96 212.93 Q2128.58 212.93 2126.63 215.615 Q2124.71 218.277 2124.71 222.976 Q2124.71 227.675 2126.63 230.36 Q2128.58 233.022 2131.96 233.022 Q2135.34 233.022 2137.26 230.36 Q2139.2 227.675 2139.2 222.976 Z" fill="#000000" fill-rule="nonzero" fill-opacity="1" /><path clip-path="url(#clip020)" d="M2167.17 217.374 L2155.89 231.078 Q2156.84 232.05 2158.02 232.513 Q2159.23 232.976 2160.73 232.976 Q2164.13 232.976 2166.13 230.291 Q2168.12 227.606 2168.12 222.976 Q2168.12 221.147 2167.88 219.805 Q2167.65 218.439 2167.17 217.374 M2165.52 214.874 Q2164.55 213.925 2163.35 213.462 Q2162.17 212.976 2160.73 212.976 Q2157.24 212.976 2155.27 215.707 Q2153.32 218.416 2153.32 223.3 Q2153.32 224.967 2153.53 226.24 Q2153.76 227.513 2154.23 228.578 L2165.52 214.874 M2151.33 232.073 Q2150.08 230.291 2149.46 228.022 Q2148.83 225.731 2148.83 222.976 Q2148.83 216.587 2151.98 212.976 Q2155.15 209.365 2160.73 209.365 Q2162.88 209.365 2164.71 209.967 Q2166.57 210.545 2168.12 211.749 L2171.33 207.86 L2173.53 209.689 L2170.15 213.833 Q2171.38 215.615 2172 217.907 Q2172.63 220.198 2172.63 222.976 Q2172.63 229.342 2169.46 232.976 Q2166.29 236.587 2160.73 236.587 Q2158.51 236.587 2156.63 235.985 Q2154.78 235.383 2153.32 234.203 L2150.11 238.092 L2147.88 236.286 L2151.33 232.073 Z" fill="#000000" fill-rule="nonzero" fill-opacity="1" /><path clip-path="url(#clip020)" d="M2194.71 213.971 Q2194 213.555 2193.14 213.37 Q2192.31 213.161 2191.29 213.161 Q2187.68 213.161 2185.73 215.522 Q2183.81 217.86 2183.81 222.258 L2183.81 235.916 L2179.53 235.916 L2179.53 209.99 L2183.81 209.99 L2183.81 214.018 Q2185.15 211.657 2187.31 210.522 Q2189.46 209.365 2192.54 209.365 Q2192.98 209.365 2193.51 209.434 Q2194.04 209.481 2194.69 209.596 L2194.71 213.971 Z" fill="#000000" fill-rule="nonzero" fill-opacity="1" /><path clip-path="url(#clip020)" d="M2215.71 210.754 L2215.71 214.782 Q2213.9 213.856 2211.96 213.393 Q2210.01 212.93 2207.93 212.93 Q2204.76 212.93 2203.16 213.902 Q2201.59 214.874 2201.59 216.819 Q2201.59 218.3 2202.72 219.157 Q2203.86 219.99 2207.28 220.754 L2208.74 221.078 Q2213.28 222.05 2215.18 223.832 Q2217.1 225.592 2217.1 228.763 Q2217.1 232.374 2214.23 234.481 Q2211.38 236.587 2206.38 236.587 Q2204.3 236.587 2202.03 236.17 Q2199.78 235.777 2197.28 234.967 L2197.28 230.569 Q2199.64 231.795 2201.94 232.42 Q2204.23 233.022 2206.47 233.022 Q2209.48 233.022 2211.1 232.004 Q2212.72 230.962 2212.72 229.087 Q2212.72 227.351 2211.54 226.425 Q2210.38 225.499 2206.43 224.643 L2204.94 224.295 Q2200.99 223.462 2199.23 221.749 Q2197.47 220.013 2197.47 217.004 Q2197.47 213.346 2200.06 211.356 Q2202.65 209.365 2207.42 209.365 Q2209.78 209.365 2211.87 209.712 Q2213.95 210.059 2215.71 210.754 Z" fill="#000000" fill-rule="nonzero" fill-opacity="1" /><path clip-path="url(#clip020)" d="M2246.06 221.888 L2246.06 223.971 L2226.47 223.971 Q2226.75 228.369 2229.11 230.684 Q2231.5 232.976 2235.73 232.976 Q2238.19 232.976 2240.48 232.374 Q2242.79 231.772 2245.06 230.569 L2245.06 234.596 Q2242.77 235.568 2240.36 236.078 Q2237.95 236.587 2235.48 236.587 Q2229.27 236.587 2225.64 232.976 Q2222.03 229.365 2222.03 223.207 Q2222.03 216.842 2225.45 213.115 Q2228.9 209.365 2234.74 209.365 Q2239.97 209.365 2243 212.745 Q2246.06 216.101 2246.06 221.888 M2241.8 220.638 Q2241.75 217.143 2239.83 215.059 Q2237.93 212.976 2234.78 212.976 Q2231.22 212.976 2229.06 214.99 Q2226.94 217.004 2226.61 220.661 L2241.8 220.638 Z" fill="#000000" fill-rule="nonzero" fill-opacity="1" /><path clip-path="url(#clip020)" d="M2253.05 199.897 L2257.31 199.897 L2257.31 235.916 L2253.05 235.916 L2253.05 199.897 Z" fill="#000000" fill-rule="nonzero" fill-opacity="1" /></svg>