<?xml version="1.0" encoding="utf-8"?>
<svg xmlns="http://www.w3.org/2000/svg" xmlns:xlink="http://www.w3.org/1999/xlink" width="600" height="400" viewBox="0 0 2400 1600">
<defs>
  <clipPath id="clip750">
    <rect x="0" y="0" width="2400" height="1600"/>
  </clipPath>
</defs>
<path clip-path="url(#clip750)" d="M0 1600 L2400 1600 L2400 0 L0 0  Z" fill="#ffffff" fill-rule="evenodd" fill-opacity="1"/>
<defs>
  <clipPath id="clip751">
    <rect x="480" y="0" width="1681" height="1600"/>
  </clipPath>
</defs>
<path clip-path="url(#clip750)" d="M138.959 1486.45 L2352.76 1486.45 L2352.76 47.2441 L138.959 47.2441  Z" fill="#ffffff" fill-rule="evenodd" fill-opacity="1"/>
<defs>
  <clipPath id="clip752">
    <rect x="138" y="47" width="2215" height="1440"/>
  </clipPath>
</defs>
<polyline clip-path="url(#clip752)" style="stroke:#000000; stroke-linecap:round; stroke-linejoin:round; stroke-width:2; stroke-opacity:0.1; fill:none" points="416.007,1486.45 416.007,47.2441 "/>
<polyline clip-path="url(#clip752)" style="stroke:#000000; stroke-linecap:round; stroke-linejoin:round; stroke-width:2; stroke-opacity:0.1; fill:none" points="833.705,1486.45 833.705,47.2441 "/>
<polyline clip-path="url(#clip752)" style="stroke:#000000; stroke-linecap:round; stroke-linejoin:round; stroke-width:2; stroke-opacity:0.1; fill:none" points="1251.4,1486.45 1251.4,47.2441 "/>
<polyline clip-path="url(#clip752)" style="stroke:#000000; stroke-linecap:round; stroke-linejoin:round; stroke-width:2; stroke-opacity:0.1; fill:none" points="1669.1,1486.45 1669.1,47.2441 "/>
<polyline clip-path="url(#clip752)" style="stroke:#000000; stroke-linecap:round; stroke-linejoin:round; stroke-width:2; stroke-opacity:0.1; fill:none" points="2086.8,1486.45 2086.8,47.2441 "/>
<polyline clip-path="url(#clip750)" style="stroke:#000000; stroke-linecap:round; stroke-linejoin:round; stroke-width:4; stroke-opacity:1; fill:none" points="138.959,1486.45 2352.76,1486.45 "/>
<polyline clip-path="url(#clip750)" style="stroke:#000000; stroke-linecap:round; stroke-linejoin:round; stroke-width:4; stroke-opacity:1; fill:none" points="416.007,1486.45 416.007,1467.55 "/>
<polyline clip-path="url(#clip750)" style="stroke:#000000; stroke-linecap:round; stroke-linejoin:round; stroke-width:4; stroke-opacity:1; fill:none" points="833.705,1486.45 833.705,1467.55 "/>
<polyline clip-path="url(#clip750)" style="stroke:#000000; stroke-linecap:round; stroke-linejoin:round; stroke-width:4; stroke-opacity:1; fill:none" points="1251.4,1486.45 1251.4,1467.55 "/>
<polyline clip-path="url(#clip750)" style="stroke:#000000; stroke-linecap:round; stroke-linejoin:round; stroke-width:4; stroke-opacity:1; fill:none" points="1669.1,1486.45 1669.1,1467.55 "/>
<polyline clip-path="url(#clip750)" style="stroke:#000000; stroke-linecap:round; stroke-linejoin:round; stroke-width:4; stroke-opacity:1; fill:none" points="2086.8,1486.45 2086.8,1467.55 "/>
<path clip-path="url(#clip750)" d="M362.535 1532.02 L392.211 1532.02 L392.211 1535.95 L362.535 1535.95 L362.535 1532.02 Z" fill="#000000" fill-rule="nonzero" fill-opacity="1" /><path clip-path="url(#clip750)" d="M402.35 1514.29 L420.706 1514.29 L420.706 1518.22 L406.632 1518.22 L406.632 1526.7 Q407.651 1526.35 408.669 1526.19 Q409.688 1526 410.706 1526 Q416.493 1526 419.873 1529.17 Q423.253 1532.34 423.253 1537.76 Q423.253 1543.34 419.78 1546.44 Q416.308 1549.52 409.989 1549.52 Q407.813 1549.52 405.544 1549.15 Q403.299 1548.78 400.892 1548.04 L400.892 1543.34 Q402.975 1544.47 405.197 1545.03 Q407.419 1545.58 409.896 1545.58 Q413.901 1545.58 416.239 1543.48 Q418.577 1541.37 418.577 1537.76 Q418.577 1534.15 416.239 1532.04 Q413.901 1529.94 409.896 1529.94 Q408.021 1529.94 406.146 1530.35 Q404.294 1530.77 402.35 1531.65 L402.35 1514.29 Z" fill="#000000" fill-rule="nonzero" fill-opacity="1" /><path clip-path="url(#clip750)" d="M432.466 1542.97 L437.35 1542.97 L437.35 1548.85 L432.466 1548.85 L432.466 1542.97 Z" fill="#000000" fill-rule="nonzero" fill-opacity="1" /><path clip-path="url(#clip750)" d="M457.535 1517.37 Q453.924 1517.37 452.095 1520.93 Q450.29 1524.47 450.29 1531.6 Q450.29 1538.71 452.095 1542.27 Q453.924 1545.82 457.535 1545.82 Q461.169 1545.82 462.975 1542.27 Q464.803 1538.71 464.803 1531.6 Q464.803 1524.47 462.975 1520.93 Q461.169 1517.37 457.535 1517.37 M457.535 1513.66 Q463.345 1513.66 466.401 1518.27 Q469.479 1522.85 469.479 1531.6 Q469.479 1540.33 466.401 1544.94 Q463.345 1549.52 457.535 1549.52 Q451.725 1549.52 448.646 1544.94 Q445.591 1540.33 445.591 1531.6 Q445.591 1522.85 448.646 1518.27 Q451.725 1513.66 457.535 1513.66 Z" fill="#000000" fill-rule="nonzero" fill-opacity="1" /><path clip-path="url(#clip750)" d="M780.731 1532.02 L810.406 1532.02 L810.406 1535.95 L780.731 1535.95 L780.731 1532.02 Z" fill="#000000" fill-rule="nonzero" fill-opacity="1" /><path clip-path="url(#clip750)" d="M824.527 1544.91 L840.846 1544.91 L840.846 1548.85 L818.902 1548.85 L818.902 1544.91 Q821.564 1542.16 826.147 1537.53 Q830.753 1532.88 831.934 1531.53 Q834.179 1529.01 835.059 1527.27 Q835.962 1525.51 835.962 1523.82 Q835.962 1521.07 834.017 1519.33 Q832.096 1517.6 828.994 1517.6 Q826.795 1517.6 824.341 1518.36 Q821.911 1519.13 819.133 1520.68 L819.133 1515.95 Q821.957 1514.82 824.411 1514.24 Q826.865 1513.66 828.902 1513.66 Q834.272 1513.66 837.466 1516.35 Q840.661 1519.03 840.661 1523.52 Q840.661 1525.65 839.851 1527.57 Q839.064 1529.47 836.957 1532.07 Q836.378 1532.74 833.277 1535.95 Q830.175 1539.15 824.527 1544.91 Z" fill="#000000" fill-rule="nonzero" fill-opacity="1" /><path clip-path="url(#clip750)" d="M850.661 1542.97 L855.545 1542.97 L855.545 1548.85 L850.661 1548.85 L850.661 1542.97 Z" fill="#000000" fill-rule="nonzero" fill-opacity="1" /><path clip-path="url(#clip750)" d="M865.776 1514.29 L884.133 1514.29 L884.133 1518.22 L870.059 1518.22 L870.059 1526.7 Q871.077 1526.35 872.096 1526.19 Q873.114 1526 874.133 1526 Q879.92 1526 883.299 1529.17 Q886.679 1532.34 886.679 1537.76 Q886.679 1543.34 883.207 1546.44 Q879.735 1549.52 873.415 1549.52 Q871.239 1549.52 868.971 1549.15 Q866.725 1548.78 864.318 1548.04 L864.318 1543.34 Q866.401 1544.47 868.624 1545.03 Q870.846 1545.58 873.323 1545.58 Q877.327 1545.58 879.665 1543.48 Q882.003 1541.37 882.003 1537.76 Q882.003 1534.15 879.665 1532.04 Q877.327 1529.94 873.323 1529.94 Q871.448 1529.94 869.573 1530.35 Q867.721 1530.77 865.776 1531.65 L865.776 1514.29 Z" fill="#000000" fill-rule="nonzero" fill-opacity="1" /><path clip-path="url(#clip750)" d="M1228.79 1517.37 Q1225.18 1517.37 1223.35 1520.93 Q1221.54 1524.47 1221.54 1531.6 Q1221.54 1538.71 1223.35 1542.27 Q1225.18 1545.82 1228.79 1545.82 Q1232.42 1545.82 1234.23 1542.27 Q1236.06 1538.71 1236.06 1531.6 Q1236.06 1524.47 1234.23 1520.93 Q1232.42 1517.37 1228.79 1517.37 M1228.79 1513.66 Q1234.6 1513.66 1237.65 1518.27 Q1240.73 1522.85 1240.73 1531.6 Q1240.73 1540.33 1237.65 1544.94 Q1234.6 1549.52 1228.79 1549.52 Q1222.98 1549.52 1219.9 1544.94 Q1216.84 1540.33 1216.84 1531.6 Q1216.84 1522.85 1219.9 1518.27 Q1222.98 1513.66 1228.79 1513.66 Z" fill="#000000" fill-rule="nonzero" fill-opacity="1" /><path clip-path="url(#clip750)" d="M1248.95 1542.97 L1253.83 1542.97 L1253.83 1548.85 L1248.95 1548.85 L1248.95 1542.97 Z" fill="#000000" fill-rule="nonzero" fill-opacity="1" /><path clip-path="url(#clip750)" d="M1274.02 1517.37 Q1270.41 1517.37 1268.58 1520.93 Q1266.77 1524.47 1266.77 1531.6 Q1266.77 1538.71 1268.58 1542.27 Q1270.41 1545.82 1274.02 1545.82 Q1277.65 1545.82 1279.46 1542.27 Q1281.29 1538.71 1281.29 1531.6 Q1281.29 1524.47 1279.46 1520.93 Q1277.65 1517.37 1274.02 1517.37 M1274.02 1513.66 Q1279.83 1513.66 1282.88 1518.27 Q1285.96 1522.85 1285.96 1531.6 Q1285.96 1540.33 1282.88 1544.94 Q1279.83 1549.52 1274.02 1549.52 Q1268.21 1549.52 1265.13 1544.94 Q1262.07 1540.33 1262.07 1531.6 Q1262.07 1522.85 1265.13 1518.27 Q1268.21 1513.66 1274.02 1513.66 Z" fill="#000000" fill-rule="nonzero" fill-opacity="1" /><path clip-path="url(#clip750)" d="M1640.84 1544.91 L1657.16 1544.91 L1657.16 1548.85 L1635.21 1548.85 L1635.21 1544.91 Q1637.87 1542.16 1642.46 1537.53 Q1647.06 1532.88 1648.24 1531.53 Q1650.49 1529.01 1651.37 1527.27 Q1652.27 1525.51 1652.27 1523.82 Q1652.27 1521.07 1650.33 1519.33 Q1648.41 1517.6 1645.3 1517.6 Q1643.1 1517.6 1640.65 1518.36 Q1638.22 1519.13 1635.44 1520.68 L1635.44 1515.95 Q1638.27 1514.82 1640.72 1514.24 Q1643.17 1513.66 1645.21 1513.66 Q1650.58 1513.66 1653.78 1516.35 Q1656.97 1519.03 1656.97 1523.52 Q1656.97 1525.65 1656.16 1527.57 Q1655.37 1529.47 1653.27 1532.07 Q1652.69 1532.74 1649.59 1535.95 Q1646.48 1539.15 1640.84 1544.91 Z" fill="#000000" fill-rule="nonzero" fill-opacity="1" /><path clip-path="url(#clip750)" d="M1666.97 1542.97 L1671.85 1542.97 L1671.85 1548.85 L1666.97 1548.85 L1666.97 1542.97 Z" fill="#000000" fill-rule="nonzero" fill-opacity="1" /><path clip-path="url(#clip750)" d="M1682.09 1514.29 L1700.44 1514.29 L1700.44 1518.22 L1686.37 1518.22 L1686.37 1526.7 Q1687.39 1526.35 1688.41 1526.19 Q1689.42 1526 1690.44 1526 Q1696.23 1526 1699.61 1529.17 Q1702.99 1532.34 1702.99 1537.76 Q1702.99 1543.34 1699.52 1546.44 Q1696.04 1549.52 1689.72 1549.52 Q1687.55 1549.52 1685.28 1549.15 Q1683.03 1548.78 1680.63 1548.04 L1680.63 1543.34 Q1682.71 1544.47 1684.93 1545.03 Q1687.16 1545.58 1689.63 1545.58 Q1693.64 1545.58 1695.97 1543.48 Q1698.31 1541.37 1698.31 1537.76 Q1698.31 1534.15 1695.97 1532.04 Q1693.64 1529.94 1689.63 1529.94 Q1687.76 1529.94 1685.88 1530.35 Q1684.03 1530.77 1682.09 1531.65 L1682.09 1514.29 Z" fill="#000000" fill-rule="nonzero" fill-opacity="1" /><path clip-path="url(#clip750)" d="M2053.96 1514.29 L2072.32 1514.29 L2072.32 1518.22 L2058.24 1518.22 L2058.24 1526.7 Q2059.26 1526.35 2060.28 1526.19 Q2061.3 1526 2062.32 1526 Q2068.11 1526 2071.48 1529.17 Q2074.86 1532.34 2074.86 1537.76 Q2074.86 1543.34 2071.39 1546.44 Q2067.92 1549.52 2061.6 1549.52 Q2059.42 1549.52 2057.16 1549.15 Q2054.91 1548.78 2052.5 1548.04 L2052.5 1543.34 Q2054.59 1544.47 2056.81 1545.03 Q2059.03 1545.58 2061.51 1545.58 Q2065.51 1545.58 2067.85 1543.48 Q2070.19 1541.37 2070.19 1537.76 Q2070.19 1534.15 2067.85 1532.04 Q2065.51 1529.94 2061.51 1529.94 Q2059.63 1529.94 2057.76 1530.35 Q2055.91 1530.77 2053.96 1531.65 L2053.96 1514.29 Z" fill="#000000" fill-rule="nonzero" fill-opacity="1" /><path clip-path="url(#clip750)" d="M2084.08 1542.97 L2088.96 1542.97 L2088.96 1548.85 L2084.08 1548.85 L2084.08 1542.97 Z" fill="#000000" fill-rule="nonzero" fill-opacity="1" /><path clip-path="url(#clip750)" d="M2109.15 1517.37 Q2105.54 1517.37 2103.71 1520.93 Q2101.9 1524.47 2101.9 1531.6 Q2101.9 1538.71 2103.71 1542.27 Q2105.54 1545.82 2109.15 1545.82 Q2112.78 1545.82 2114.59 1542.27 Q2116.42 1538.71 2116.42 1531.6 Q2116.42 1524.47 2114.59 1520.93 Q2112.78 1517.37 2109.15 1517.37 M2109.15 1513.66 Q2114.96 1513.66 2118.01 1518.27 Q2121.09 1522.85 2121.09 1531.6 Q2121.09 1540.33 2118.01 1544.94 Q2114.96 1549.52 2109.15 1549.52 Q2103.34 1549.52 2100.26 1544.94 Q2097.2 1540.33 2097.2 1531.6 Q2097.2 1522.85 2100.26 1518.27 Q2103.34 1513.66 2109.15 1513.66 Z" fill="#000000" fill-rule="nonzero" fill-opacity="1" /><polyline clip-path="url(#clip752)" style="stroke:#000000; stroke-linecap:round; stroke-linejoin:round; stroke-width:2; stroke-opacity:0.1; fill:none" points="138.959,1486.45 2352.76,1486.45 "/>
<polyline clip-path="url(#clip752)" style="stroke:#000000; stroke-linecap:round; stroke-linejoin:round; stroke-width:2; stroke-opacity:0.1; fill:none" points="138.959,1198.61 2352.76,1198.61 "/>
<polyline clip-path="url(#clip752)" style="stroke:#000000; stroke-linecap:round; stroke-linejoin:round; stroke-width:2; stroke-opacity:0.1; fill:none" points="138.959,910.766 2352.76,910.766 "/>
<polyline clip-path="url(#clip752)" style="stroke:#000000; stroke-linecap:round; stroke-linejoin:round; stroke-width:2; stroke-opacity:0.1; fill:none" points="138.959,622.926 2352.76,622.926 "/>
<polyline clip-path="url(#clip752)" style="stroke:#000000; stroke-linecap:round; stroke-linejoin:round; stroke-width:2; stroke-opacity:0.1; fill:none" points="138.959,335.085 2352.76,335.085 "/>
<polyline clip-path="url(#clip752)" style="stroke:#000000; stroke-linecap:round; stroke-linejoin:round; stroke-width:2; stroke-opacity:0.1; fill:none" points="138.959,47.2441 2352.76,47.2441 "/>
<polyline clip-path="url(#clip750)" style="stroke:#000000; stroke-linecap:round; stroke-linejoin:round; stroke-width:4; stroke-opacity:1; fill:none" points="138.959,1486.45 138.959,47.2441 "/>
<polyline clip-path="url(#clip750)" style="stroke:#000000; stroke-linecap:round; stroke-linejoin:round; stroke-width:4; stroke-opacity:1; fill:none" points="138.959,1486.45 157.857,1486.45 "/>
<polyline clip-path="url(#clip750)" style="stroke:#000000; stroke-linecap:round; stroke-linejoin:round; stroke-width:4; stroke-opacity:1; fill:none" points="138.959,1198.61 157.857,1198.61 "/>
<polyline clip-path="url(#clip750)" style="stroke:#000000; stroke-linecap:round; stroke-linejoin:round; stroke-width:4; stroke-opacity:1; fill:none" points="138.959,910.766 157.857,910.766 "/>
<polyline clip-path="url(#clip750)" style="stroke:#000000; stroke-linecap:round; stroke-linejoin:round; stroke-width:4; stroke-opacity:1; fill:none" points="138.959,622.926 157.857,622.926 "/>
<polyline clip-path="url(#clip750)" style="stroke:#000000; stroke-linecap:round; stroke-linejoin:round; stroke-width:4; stroke-opacity:1; fill:none" points="138.959,335.085 157.857,335.085 "/>
<polyline clip-path="url(#clip750)" style="stroke:#000000; stroke-linecap:round; stroke-linejoin:round; stroke-width:4; stroke-opacity:1; fill:none" points="138.959,47.2441 157.857,47.2441 "/>
<path clip-path="url(#clip750)" d="M91.0151 1472.25 Q87.404 1472.25 85.5753 1475.81 Q83.7697 1479.35 83.7697 1486.48 Q83.7697 1493.59 85.5753 1497.15 Q87.404 1500.7 91.0151 1500.7 Q94.6493 1500.7 96.4548 1497.15 Q98.2835 1493.59 98.2835 1486.48 Q98.2835 1479.35 96.4548 1475.81 Q94.6493 1472.25 91.0151 1472.25 M91.0151 1468.54 Q96.8252 1468.54 99.8808 1473.15 Q102.959 1477.73 102.959 1486.48 Q102.959 1495.21 99.8808 1499.82 Q96.8252 1504.4 91.0151 1504.4 Q85.2049 1504.4 82.1262 1499.82 Q79.0707 1495.21 79.0707 1486.48 Q79.0707 1477.73 82.1262 1473.15 Q85.2049 1468.54 91.0151 1468.54 Z" fill="#000000" fill-rule="nonzero" fill-opacity="1" /><path clip-path="url(#clip750)" d="M86.6401 1211.95 L102.959 1211.95 L102.959 1215.89 L81.0151 1215.89 L81.0151 1211.95 Q83.6771 1209.2 88.2604 1204.57 Q92.8669 1199.91 94.0475 1198.57 Q96.2928 1196.05 97.1724 1194.31 Q98.0752 1192.55 98.0752 1190.86 Q98.0752 1188.11 96.1308 1186.37 Q94.2095 1184.64 91.1077 1184.64 Q88.9086 1184.64 86.4549 1185.4 Q84.0244 1186.17 81.2466 1187.72 L81.2466 1182.99 Q84.0707 1181.86 86.5243 1181.28 Q88.978 1180.7 91.0151 1180.7 Q96.3854 1180.7 99.5798 1183.39 Q102.774 1186.07 102.774 1190.56 Q102.774 1192.69 101.964 1194.61 Q101.177 1196.51 99.0706 1199.1 Q98.4919 1199.78 95.39 1202.99 Q92.2882 1206.19 86.6401 1211.95 Z" fill="#000000" fill-rule="nonzero" fill-opacity="1" /><path clip-path="url(#clip750)" d="M93.3762 897.56 L81.5707 916.009 L93.3762 916.009 L93.3762 897.56 M92.1493 893.486 L98.0289 893.486 L98.0289 916.009 L102.959 916.009 L102.959 919.898 L98.0289 919.898 L98.0289 928.046 L93.3762 928.046 L93.3762 919.898 L77.7744 919.898 L77.7744 915.384 L92.1493 893.486 Z" fill="#000000" fill-rule="nonzero" fill-opacity="1" /><path clip-path="url(#clip750)" d="M91.4317 621.062 Q88.2836 621.062 86.4318 623.215 Q84.6031 625.368 84.6031 629.118 Q84.6031 632.845 86.4318 635.02 Q88.2836 637.173 91.4317 637.173 Q94.5799 637.173 96.4085 635.02 Q98.2604 632.845 98.2604 629.118 Q98.2604 625.368 96.4085 623.215 Q94.5799 621.062 91.4317 621.062 M100.714 606.409 L100.714 610.669 Q98.9548 609.835 97.1493 609.396 Q95.3669 608.956 93.6076 608.956 Q88.978 608.956 86.5243 612.081 Q84.0938 615.206 83.7466 621.525 Q85.1123 619.511 87.1725 618.446 Q89.2327 617.359 91.7095 617.359 Q96.9178 617.359 99.927 620.53 Q102.959 623.678 102.959 629.118 Q102.959 634.442 99.8113 637.659 Q96.6632 640.877 91.4317 640.877 Q85.4364 640.877 82.2651 636.294 Q79.0938 631.687 79.0938 622.96 Q79.0938 614.766 82.9827 609.905 Q86.8716 605.021 93.4225 605.021 Q95.1817 605.021 96.9641 605.368 Q98.7696 605.715 100.714 606.409 Z" fill="#000000" fill-rule="nonzero" fill-opacity="1" /><path clip-path="url(#clip750)" d="M91.1077 335.953 Q87.7743 335.953 85.8531 337.735 Q83.9549 339.518 83.9549 342.643 Q83.9549 345.768 85.8531 347.55 Q87.7743 349.332 91.1077 349.332 Q94.441 349.332 96.3623 347.55 Q98.2835 345.745 98.2835 342.643 Q98.2835 339.518 96.3623 337.735 Q94.4641 335.953 91.1077 335.953 M86.4318 333.962 Q83.4225 333.221 81.7327 331.161 Q80.066 329.101 80.066 326.138 Q80.066 321.995 83.0058 319.587 Q85.9688 317.18 91.1077 317.18 Q96.2697 317.18 99.2095 319.587 Q102.149 321.995 102.149 326.138 Q102.149 329.101 100.459 331.161 Q98.7928 333.221 95.8067 333.962 Q99.1863 334.749 101.061 337.041 Q102.959 339.333 102.959 342.643 Q102.959 347.666 99.8808 350.351 Q96.8252 353.036 91.1077 353.036 Q85.3901 353.036 82.3114 350.351 Q79.2559 347.666 79.2559 342.643 Q79.2559 339.333 81.154 337.041 Q83.0521 334.749 86.4318 333.962 M84.7188 326.578 Q84.7188 329.263 86.3855 330.768 Q88.0753 332.272 91.1077 332.272 Q94.1169 332.272 95.8067 330.768 Q97.5197 329.263 97.5197 326.578 Q97.5197 323.893 95.8067 322.388 Q94.1169 320.884 91.1077 320.884 Q88.0753 320.884 86.3855 322.388 Q84.7188 323.893 84.7188 326.578 Z" fill="#000000" fill-rule="nonzero" fill-opacity="1" /><path clip-path="url(#clip750)" d="M51.6634 60.5889 L59.3023 60.5889 L59.3023 34.2233 L50.9921 35.89 L50.9921 31.6308 L59.256 29.9641 L63.9319 29.9641 L63.9319 60.5889 L71.5707 60.5889 L71.5707 64.5241 L51.6634 64.5241 L51.6634 60.5889 Z" fill="#000000" fill-rule="nonzero" fill-opacity="1" /><path clip-path="url(#clip750)" d="M91.0151 33.0428 Q87.404 33.0428 85.5753 36.6076 Q83.7697 40.1492 83.7697 47.2788 Q83.7697 54.3853 85.5753 57.9501 Q87.404 61.4917 91.0151 61.4917 Q94.6493 61.4917 96.4548 57.9501 Q98.2835 54.3853 98.2835 47.2788 Q98.2835 40.1492 96.4548 36.6076 Q94.6493 33.0428 91.0151 33.0428 M91.0151 29.3391 Q96.8252 29.3391 99.8808 33.9456 Q102.959 38.5289 102.959 47.2788 Q102.959 56.0056 99.8808 60.6121 Q96.8252 65.1954 91.0151 65.1954 Q85.2049 65.1954 82.1262 60.6121 Q79.0707 56.0056 79.0707 47.2788 Q79.0707 38.5289 82.1262 33.9456 Q85.2049 29.3391 91.0151 29.3391 Z" fill="#000000" fill-rule="nonzero" fill-opacity="1" /><polyline clip-path="url(#clip752)" style="stroke:#009af9; stroke-linecap:round; stroke-linejoin:round; stroke-width:4; stroke-opacity:1; fill:none" points="201.614,1486.45 218.322,1472.08 235.03,1457.86 251.738,1443.92 268.446,1430.4 285.154,1417.45 301.861,1405.18 318.569,1393.73 335.277,1383.21 351.985,1373.71 368.693,1365.34 385.401,1358.18 402.109,1352.31 418.817,1347.77 435.525,1344.62 452.233,1342.89 468.94,1342.59 485.648,1343.73 502.356,1346.29 519.064,1350.26 535.772,1355.58 552.48,1362.21 569.188,1370.09 585.896,1379.13 602.604,1389.23 619.312,1400.32 636.019,1412.26 652.727,1424.94 669.435,1438.24 686.143,1452.02 702.851,1466.14 719.559,1480.46 736.267,1494.85 752.975,1509.15 769.683,1523.23 786.39,1536.93 803.098,1550.14 819.806,1562.7 836.514,1574.51 853.222,1585.43 869.93,1595.37 886.638,1604.21 903.346,1611.89 920.054,1618.3 936.762,1623.4 953.469,1627.13 970.177,1629.46 986.885,1630.36 1003.59,1629.82 1020.3,1627.84 1037.01,1624.46 1053.72,1619.69 1070.42,1613.6 1087.13,1606.23 1103.84,1597.66 1120.55,1587.99 1137.26,1577.3 1153.96,1565.7 1170.67,1553.31 1187.38,1540.26 1204.09,1526.66 1220.8,1512.66 1237.5,1498.41 1254.21,1484.03 1270.92,1469.67 1287.63,1455.49 1304.34,1441.61 1321.04,1428.18 1337.75,1415.33 1354.46,1403.2 1371.17,1391.89 1387.87,1381.53 1404.58,1372.22 1421.29,1364.05 1438,1357.11 1454.71,1351.45 1471.41,1347.14 1488.12,1344.23 1504.83,1342.74 1521.54,1342.68 1538.25,1344.06 1554.95,1346.86 1571.66,1351.06 1588.37,1356.61 1605.08,1363.45 1621.79,1371.53 1638.49,1380.75 1655.2,1391.03 1671.91,1402.27 1688.62,1414.34 1705.32,1427.14 1722.03,1440.52 1738.74,1454.37 1755.45,1468.54 1772.16,1482.88 1788.86,1497.26 1805.57,1511.54 1822.28,1525.56 1838.99,1539.19 1855.7,1552.3 1872.4,1564.74 1889.11,1576.41 1905.82,1587.17 1922.53,1596.93 1939.24,1605.59 1955.94,1613.05 1972.65,1619.25 1989.36,1624.13 2006.07,1627.62 2022.77,1629.71 2039.48,1630.37 2056.19,1629.58 2072.9,1627.37 2089.61,1623.75 2106.31,1618.76 2123.02,1612.44 2139.73,1604.87 2156.44,1596.11 2173.15,1586.26 2189.85,1575.41 2206.56,1563.67 2223.27,1551.16 2239.98,1538 2256.69,1524.33 2273.39,1510.28 2290.1,1495.99 "/>
<polyline clip-path="url(#clip752)" style="stroke:#e26f46; stroke-linecap:round; stroke-linejoin:round; stroke-width:4; stroke-opacity:1; fill:none" points="201.614,1486.18 218.322,1486.15 235.03,1486.12 251.738,1486.09 268.446,1486.05 285.154,1486 301.861,1485.96 318.569,1485.91 335.277,1485.85 351.985,1485.79 368.693,1485.72 385.401,1485.64 402.109,1485.56 418.817,1485.46 435.525,1485.36 452.233,1485.24 468.94,1485.12 485.648,1484.98 502.356,1484.82 519.064,1484.65 535.772,1484.46 552.48,1484.25 569.188,1484.02 585.896,1483.77 602.604,1483.49 619.312,1483.17 636.019,1482.83 652.727,1482.45 669.435,1482.03 686.143,1481.56 702.851,1481.05 719.559,1480.48 736.267,1479.85 752.975,1479.16 769.683,1478.39 786.39,1477.55 803.098,1476.61 819.806,1475.58 836.514,1474.43 853.222,1473.17 869.93,1471.77 886.638,1470.23 903.346,1468.53 920.054,1466.64 936.762,1464.56 953.469,1462.25 970.177,1459.71 986.885,1456.9 1003.59,1453.79 1020.3,1450.36 1037.01,1446.56 1053.72,1442.36 1070.42,1437.73 1087.13,1432.6 1103.84,1426.94 1120.55,1420.68 1137.26,1413.77 1153.96,1406.12 1170.67,1397.68 1187.38,1388.34 1204.09,1378.02 1220.8,1366.62 1237.5,1354.02 1254.21,1340.09 1270.92,1324.69 1287.63,1307.68 1304.34,1288.88 1321.04,1268.1 1337.75,1245.14 1354.46,1219.76 1371.17,1191.71 1387.87,1160.72 1404.58,1126.46 1421.29,1088.6 1438,1046.76 1454.71,1000.51 1471.41,949.407 1488.12,892.926 1504.83,830.504 1521.54,761.518 1538.25,685.276 1554.95,601.017 1571.66,507.895 1588.37,404.98 1605.08,291.241 1621.79,165.54 1638.49,26.6184 1655.2,-126.913 1671.91,-296.592 1688.62,-484.116 1705.32,-691.362 1722.03,-920.404 1738.74,-1173.53 1755.45,-1453.29 1772.16,-1762.46 1788.86,-2104.15 1805.57,-2481.78 1822.28,-2899.12 1838.99,-3360.36 1855.7,-3870.1 1872.4,-4433.45 1889.11,-5056.05 1905.82,-5744.13 1922.53,-6504.58 1939.24,-7345.01 1955.94,-8273.82 1972.65,-9300.31 1989.36,-10434.8 2006.07,-11688.5 2022.77,-13074.2 2039.48,-14605.5 2056.19,-16297.9 2072.9,-18168.3 2089.61,-20235.4 2106.31,-22519.9 2123.02,-25044.7 2139.73,-27835 2156.44,-30918.8 2173.15,-34326.9 2189.85,-38093.4 2206.56,-42256 2223.27,-46856.5 2239.98,-51940.7 2256.69,-57559.7 2273.39,-63769.7 2290.1,-70632.7 "/>
<path clip-path="url(#clip750)" d="M1832.19 250.738 L2278.96 250.738 L2278.96 95.2176 L1832.19 95.2176  Z" fill="#ffffff" fill-rule="evenodd" fill-opacity="1"/>
<polyline clip-path="url(#clip750)" style="stroke:#000000; stroke-linecap:round; stroke-linejoin:round; stroke-width:4; stroke-opacity:1; fill:none" points="1832.19,250.738 2278.96,250.738 2278.96,95.2176 1832.19,95.2176 1832.19,250.738 "/>
<polyline clip-path="url(#clip750)" style="stroke:#009af9; stroke-linecap:round; stroke-linejoin:round; stroke-width:4; stroke-opacity:1; fill:none" points="1856.79,147.058 2004.37,147.058 "/>
<path clip-path="url(#clip750)" d="M2042.82 166.745 Q2041.01 171.375 2039.3 172.787 Q2037.58 174.199 2034.71 174.199 L2031.31 174.199 L2031.31 170.634 L2033.81 170.634 Q2035.57 170.634 2036.54 169.8 Q2037.51 168.967 2038.69 165.865 L2039.46 163.921 L2028.97 138.412 L2033.49 138.412 L2041.59 158.689 L2049.69 138.412 L2054.2 138.412 L2042.82 166.745 Z" fill="#000000" fill-rule="nonzero" fill-opacity="1" /><path clip-path="url(#clip750)" d="M2075.71 142.81 L2105.38 142.81 L2105.38 146.699 L2075.71 146.699 L2075.71 142.81 M2075.71 152.254 L2105.38 152.254 L2105.38 156.189 L2075.71 156.189 L2075.71 152.254 Z" fill="#000000" fill-rule="nonzero" fill-opacity="1" /><path clip-path="url(#clip750)" d="M2146.47 139.176 L2146.47 143.203 Q2144.67 142.277 2142.72 141.815 Q2140.78 141.352 2138.69 141.352 Q2135.52 141.352 2133.93 142.324 Q2132.35 143.296 2132.35 145.24 Q2132.35 146.722 2133.49 147.578 Q2134.62 148.412 2138.05 149.176 L2139.5 149.5 Q2144.04 150.472 2145.94 152.254 Q2147.86 154.014 2147.86 157.185 Q2147.86 160.796 2144.99 162.902 Q2142.14 165.009 2137.14 165.009 Q2135.06 165.009 2132.79 164.592 Q2130.55 164.199 2128.05 163.388 L2128.05 158.99 Q2130.41 160.217 2132.7 160.842 Q2134.99 161.444 2137.24 161.444 Q2140.25 161.444 2141.87 160.426 Q2143.49 159.384 2143.49 157.509 Q2143.49 155.773 2142.31 154.847 Q2141.15 153.921 2137.19 153.064 L2135.71 152.717 Q2131.75 151.884 2129.99 150.171 Q2128.23 148.435 2128.23 145.426 Q2128.23 141.768 2130.82 139.778 Q2133.42 137.787 2138.19 137.787 Q2140.55 137.787 2142.63 138.134 Q2144.71 138.481 2146.47 139.176 Z" fill="#000000" fill-rule="nonzero" fill-opacity="1" /><path clip-path="url(#clip750)" d="M2154.64 138.412 L2158.9 138.412 L2158.9 164.338 L2154.64 164.338 L2154.64 138.412 M2154.64 128.319 L2158.9 128.319 L2158.9 133.713 L2154.64 133.713 L2154.64 128.319 Z" fill="#000000" fill-rule="nonzero" fill-opacity="1" /><path clip-path="url(#clip750)" d="M2189.37 148.689 L2189.37 164.338 L2185.11 164.338 L2185.11 148.828 Q2185.11 145.148 2183.67 143.319 Q2182.24 141.49 2179.37 141.49 Q2175.92 141.49 2173.93 143.69 Q2171.93 145.889 2171.93 149.685 L2171.93 164.338 L2167.65 164.338 L2167.65 138.412 L2171.93 138.412 L2171.93 142.44 Q2173.46 140.102 2175.52 138.944 Q2177.61 137.787 2180.31 137.787 Q2184.78 137.787 2187.07 140.565 Q2189.37 143.319 2189.37 148.689 Z" fill="#000000" fill-rule="nonzero" fill-opacity="1" /><path clip-path="url(#clip750)" d="M2208.09 128.366 Q2204.99 133.69 2203.49 138.898 Q2201.98 144.106 2201.98 149.453 Q2201.98 154.801 2203.49 160.055 Q2205.01 165.287 2208.09 170.588 L2204.39 170.588 Q2200.92 165.148 2199.18 159.893 Q2197.47 154.639 2197.47 149.453 Q2197.47 144.291 2199.18 139.06 Q2200.89 133.828 2204.39 128.366 L2208.09 128.366 Z" fill="#000000" fill-rule="nonzero" fill-opacity="1" /><path clip-path="url(#clip750)" d="M2237.91 138.412 L2228.53 151.027 L2238.39 164.338 L2233.37 164.338 L2225.82 154.152 L2218.28 164.338 L2213.25 164.338 L2223.32 150.773 L2214.11 138.412 L2219.13 138.412 L2226.01 147.648 L2232.88 138.412 L2237.91 138.412 Z" fill="#000000" fill-rule="nonzero" fill-opacity="1" /><path clip-path="url(#clip750)" d="M2243.74 128.366 L2247.44 128.366 Q2250.92 133.828 2252.63 139.06 Q2254.36 144.291 2254.36 149.453 Q2254.36 154.639 2252.63 159.893 Q2250.92 165.148 2247.44 170.588 L2243.74 170.588 Q2246.82 165.287 2248.32 160.055 Q2249.85 154.801 2249.85 149.453 Q2249.85 144.106 2248.32 138.898 Q2246.82 133.69 2243.74 128.366 Z" fill="#000000" fill-rule="nonzero" fill-opacity="1" /><polyline clip-path="url(#clip750)" style="stroke:#e26f46; stroke-linecap:round; stroke-linejoin:round; stroke-width:4; stroke-opacity:1; fill:none" points="1856.79,198.898 2004.37,198.898 "/>
<path clip-path="url(#clip750)" d="M2042.82 218.585 Q2041.01 223.215 2039.3 224.627 Q2037.58 226.039 2034.71 226.039 L2031.31 226.039 L2031.31 222.474 L2033.81 222.474 Q2035.57 222.474 2036.54 221.64 Q2037.51 220.807 2038.69 217.705 L2039.46 215.761 L2028.97 190.252 L2033.49 190.252 L2041.59 210.529 L2049.69 190.252 L2054.2 190.252 L2042.82 218.585 Z" fill="#000000" fill-rule="nonzero" fill-opacity="1" /><path clip-path="url(#clip750)" d="M2075.71 194.65 L2105.38 194.65 L2105.38 198.539 L2075.71 198.539 L2075.71 194.65 M2075.71 204.094 L2105.38 204.094 L2105.38 208.029 L2075.71 208.029 L2075.71 204.094 Z" fill="#000000" fill-rule="nonzero" fill-opacity="1" /><path clip-path="url(#clip750)" d="M2152.12 202.15 L2152.12 204.233 L2132.54 204.233 Q2132.81 208.631 2135.18 210.946 Q2137.56 213.238 2141.8 213.238 Q2144.25 213.238 2146.54 212.636 Q2148.86 212.034 2151.12 210.83 L2151.12 214.858 Q2148.83 215.83 2146.43 216.34 Q2144.02 216.849 2141.54 216.849 Q2135.34 216.849 2131.7 213.238 Q2128.09 209.627 2128.09 203.469 Q2128.09 197.104 2131.52 193.377 Q2134.97 189.627 2140.8 189.627 Q2146.03 189.627 2149.06 193.006 Q2152.12 196.363 2152.12 202.15 M2147.86 200.9 Q2147.81 197.405 2145.89 195.321 Q2144 193.238 2140.85 193.238 Q2137.28 193.238 2135.13 195.252 Q2133 197.266 2132.68 200.923 L2147.86 200.9 Z" fill="#000000" fill-rule="nonzero" fill-opacity="1" /><path clip-path="url(#clip750)" d="M2176.77 181.618 L2189.34 194.511 L2184.69 194.511 L2174.5 185.368 L2164.32 194.511 L2159.67 194.511 L2172.24 181.618 L2176.77 181.618 Z" fill="#000000" fill-rule="nonzero" fill-opacity="1" /><path clip-path="url(#clip750)" d="M2220.38 190.252 L2211.01 202.867 L2220.87 216.178 L2215.85 216.178 L2208.3 205.992 L2200.75 216.178 L2195.73 216.178 L2205.8 202.613 L2196.59 190.252 L2201.61 190.252 L2208.49 199.488 L2215.36 190.252 L2220.38 190.252 Z" fill="#000000" fill-rule="nonzero" fill-opacity="1" /></svg>