<?xml version="1.0" encoding="utf-8"?>
<svg xmlns="http://www.w3.org/2000/svg" xmlns:xlink="http://www.w3.org/1999/xlink" width="600" height="400" viewBox="0 0 2400 1600">
<defs>
  <clipPath id="clip220">
    <rect x="0" y="0" width="2400" height="1600"/>
  </clipPath>
</defs>
<path clip-path="url(#clip220)" d="M0 1600 L2400 1600 L2400 0 L0 0  Z" fill="#ffffff" fill-rule="evenodd" fill-opacity="1"/>
<defs>
  <clipPath id="clip221">
    <rect x="480" y="0" width="1681" height="1600"/>
  </clipPath>
</defs>
<path clip-path="url(#clip220)" d="M302.458 1423.18 L2352.76 1423.18 L2352.76 47.2441 L302.458 47.2441  Z" fill="#ffffff" fill-rule="evenodd" fill-opacity="1"/>
<defs>
  <clipPath id="clip222">
    <rect x="302" y="47" width="2051" height="1377"/>
  </clipPath>
</defs>
<polyline clip-path="url(#clip222)" style="stroke:#000000; stroke-linecap:round; stroke-linejoin:round; stroke-width:2; stroke-opacity:0.1; fill:none" points="360.486,1423.18 360.486,47.2441 "/>
<polyline clip-path="url(#clip222)" style="stroke:#000000; stroke-linecap:round; stroke-linejoin:round; stroke-width:2; stroke-opacity:0.1; fill:none" points="844.046,1423.18 844.046,47.2441 "/>
<polyline clip-path="url(#clip222)" style="stroke:#000000; stroke-linecap:round; stroke-linejoin:round; stroke-width:2; stroke-opacity:0.1; fill:none" points="1327.61,1423.18 1327.61,47.2441 "/>
<polyline clip-path="url(#clip222)" style="stroke:#000000; stroke-linecap:round; stroke-linejoin:round; stroke-width:2; stroke-opacity:0.1; fill:none" points="1811.17,1423.18 1811.17,47.2441 "/>
<polyline clip-path="url(#clip222)" style="stroke:#000000; stroke-linecap:round; stroke-linejoin:round; stroke-width:2; stroke-opacity:0.1; fill:none" points="2294.73,1423.18 2294.73,47.2441 "/>
<polyline clip-path="url(#clip220)" style="stroke:#000000; stroke-linecap:round; stroke-linejoin:round; stroke-width:4; stroke-opacity:1; fill:none" points="302.458,1423.18 2352.76,1423.18 "/>
<polyline clip-path="url(#clip220)" style="stroke:#000000; stroke-linecap:round; stroke-linejoin:round; stroke-width:4; stroke-opacity:1; fill:none" points="360.486,1423.18 360.486,1404.28 "/>
<polyline clip-path="url(#clip220)" style="stroke:#000000; stroke-linecap:round; stroke-linejoin:round; stroke-width:4; stroke-opacity:1; fill:none" points="844.046,1423.18 844.046,1404.28 "/>
<polyline clip-path="url(#clip220)" style="stroke:#000000; stroke-linecap:round; stroke-linejoin:round; stroke-width:4; stroke-opacity:1; fill:none" points="1327.61,1423.18 1327.61,1404.28 "/>
<polyline clip-path="url(#clip220)" style="stroke:#000000; stroke-linecap:round; stroke-linejoin:round; stroke-width:4; stroke-opacity:1; fill:none" points="1811.17,1423.18 1811.17,1404.28 "/>
<polyline clip-path="url(#clip220)" style="stroke:#000000; stroke-linecap:round; stroke-linejoin:round; stroke-width:4; stroke-opacity:1; fill:none" points="2294.73,1423.18 2294.73,1404.28 "/>
<path clip-path="url(#clip220)" d="M314.548 1468.75 L344.224 1468.75 L344.224 1472.69 L314.548 1472.69 L314.548 1468.75 Z" fill="#000000" fill-rule="nonzero" fill-opacity="1" /><path clip-path="url(#clip220)" d="M355.127 1481.64 L362.766 1481.64 L362.766 1455.28 L354.456 1456.95 L354.456 1452.69 L362.719 1451.02 L367.395 1451.02 L367.395 1481.64 L375.034 1481.64 L375.034 1485.58 L355.127 1485.58 L355.127 1481.64 Z" fill="#000000" fill-rule="nonzero" fill-opacity="1" /><path clip-path="url(#clip220)" d="M394.479 1454.1 Q390.867 1454.1 389.039 1457.66 Q387.233 1461.2 387.233 1468.33 Q387.233 1475.44 389.039 1479.01 Q390.867 1482.55 394.479 1482.55 Q398.113 1482.55 399.918 1479.01 Q401.747 1475.44 401.747 1468.33 Q401.747 1461.2 399.918 1457.66 Q398.113 1454.1 394.479 1454.1 M394.479 1450.39 Q400.289 1450.39 403.344 1455 Q406.423 1459.58 406.423 1468.33 Q406.423 1477.06 403.344 1481.67 Q400.289 1486.25 394.479 1486.25 Q388.668 1486.25 385.59 1481.67 Q382.534 1477.06 382.534 1468.33 Q382.534 1459.58 385.59 1455 Q388.668 1450.39 394.479 1450.39 Z" fill="#000000" fill-rule="nonzero" fill-opacity="1" /><path clip-path="url(#clip220)" d="M813.688 1468.75 L843.364 1468.75 L843.364 1472.69 L813.688 1472.69 L813.688 1468.75 Z" fill="#000000" fill-rule="nonzero" fill-opacity="1" /><path clip-path="url(#clip220)" d="M853.502 1451.02 L871.859 1451.02 L871.859 1454.96 L857.785 1454.96 L857.785 1463.43 Q858.803 1463.08 859.822 1462.92 Q860.84 1462.73 861.859 1462.73 Q867.646 1462.73 871.025 1465.9 Q874.405 1469.08 874.405 1474.49 Q874.405 1480.07 870.933 1483.17 Q867.461 1486.25 861.141 1486.25 Q858.965 1486.25 856.697 1485.88 Q854.451 1485.51 852.044 1484.77 L852.044 1480.07 Q854.127 1481.2 856.35 1481.76 Q858.572 1482.32 861.049 1482.32 Q865.053 1482.32 867.391 1480.21 Q869.729 1478.1 869.729 1474.49 Q869.729 1470.88 867.391 1468.77 Q865.053 1466.67 861.049 1466.67 Q859.174 1466.67 857.299 1467.08 Q855.447 1467.5 853.502 1468.38 L853.502 1451.02 Z" fill="#000000" fill-rule="nonzero" fill-opacity="1" /><path clip-path="url(#clip220)" d="M1327.61 1454.1 Q1324 1454.1 1322.17 1457.66 Q1320.36 1461.2 1320.36 1468.33 Q1320.36 1475.44 1322.17 1479.01 Q1324 1482.55 1327.61 1482.55 Q1331.24 1482.55 1333.05 1479.01 Q1334.88 1475.44 1334.88 1468.33 Q1334.88 1461.2 1333.05 1457.66 Q1331.24 1454.1 1327.61 1454.1 M1327.61 1450.39 Q1333.42 1450.39 1336.47 1455 Q1339.55 1459.58 1339.55 1468.33 Q1339.55 1477.06 1336.47 1481.67 Q1333.42 1486.25 1327.61 1486.25 Q1321.8 1486.25 1318.72 1481.67 Q1315.66 1477.06 1315.66 1468.33 Q1315.66 1459.58 1318.72 1455 Q1321.8 1450.39 1327.61 1450.39 Z" fill="#000000" fill-rule="nonzero" fill-opacity="1" /><path clip-path="url(#clip220)" d="M1801.45 1451.02 L1819.8 1451.02 L1819.8 1454.96 L1805.73 1454.96 L1805.73 1463.43 Q1806.75 1463.08 1807.77 1462.92 Q1808.78 1462.73 1809.8 1462.73 Q1815.59 1462.73 1818.97 1465.9 Q1822.35 1469.08 1822.35 1474.49 Q1822.35 1480.07 1818.88 1483.17 Q1815.4 1486.25 1809.08 1486.25 Q1806.91 1486.25 1804.64 1485.88 Q1802.39 1485.51 1799.99 1484.77 L1799.99 1480.07 Q1802.07 1481.2 1804.29 1481.76 Q1806.52 1482.32 1808.99 1482.32 Q1813 1482.32 1815.33 1480.21 Q1817.67 1478.1 1817.67 1474.49 Q1817.67 1470.88 1815.33 1468.77 Q1813 1466.67 1808.99 1466.67 Q1807.12 1466.67 1805.24 1467.08 Q1803.39 1467.5 1801.45 1468.38 L1801.45 1451.02 Z" fill="#000000" fill-rule="nonzero" fill-opacity="1" /><path clip-path="url(#clip220)" d="M2269.42 1481.64 L2277.06 1481.64 L2277.06 1455.28 L2268.74 1456.95 L2268.74 1452.69 L2277.01 1451.02 L2281.68 1451.02 L2281.68 1481.64 L2289.32 1481.64 L2289.32 1485.58 L2269.42 1485.58 L2269.42 1481.64 Z" fill="#000000" fill-rule="nonzero" fill-opacity="1" /><path clip-path="url(#clip220)" d="M2308.77 1454.1 Q2305.16 1454.1 2303.33 1457.66 Q2301.52 1461.2 2301.52 1468.33 Q2301.52 1475.44 2303.33 1479.01 Q2305.16 1482.55 2308.77 1482.55 Q2312.4 1482.55 2314.21 1479.01 Q2316.04 1475.44 2316.04 1468.33 Q2316.04 1461.2 2314.21 1457.66 Q2312.4 1454.1 2308.77 1454.1 M2308.77 1450.39 Q2314.58 1450.39 2317.63 1455 Q2320.71 1459.58 2320.71 1468.33 Q2320.71 1477.06 2317.63 1481.67 Q2314.58 1486.25 2308.77 1486.25 Q2302.96 1486.25 2299.88 1481.67 Q2296.82 1477.06 2296.82 1468.33 Q2296.82 1459.58 2299.88 1455 Q2302.96 1450.39 2308.77 1450.39 Z" fill="#000000" fill-rule="nonzero" fill-opacity="1" /><path clip-path="url(#clip220)" d="M1344.22 1532.4 L1331.33 1549.74 L1344.89 1568.04 L1337.98 1568.04 L1327.61 1554.04 L1317.23 1568.04 L1310.32 1568.04 L1324.17 1549.39 L1311.5 1532.4 L1318.41 1532.4 L1327.86 1545.1 L1337.31 1532.4 L1344.22 1532.4 Z" fill="#000000" fill-rule="nonzero" fill-opacity="1" /><polyline clip-path="url(#clip222)" style="stroke:#000000; stroke-linecap:round; stroke-linejoin:round; stroke-width:2; stroke-opacity:0.1; fill:none" points="302.458,1405.65 2352.76,1405.65 "/>
<polyline clip-path="url(#clip222)" style="stroke:#000000; stroke-linecap:round; stroke-linejoin:round; stroke-width:2; stroke-opacity:0.1; fill:none" points="302.458,1071.1 2352.76,1071.1 "/>
<polyline clip-path="url(#clip222)" style="stroke:#000000; stroke-linecap:round; stroke-linejoin:round; stroke-width:2; stroke-opacity:0.1; fill:none" points="302.458,736.55 2352.76,736.55 "/>
<polyline clip-path="url(#clip222)" style="stroke:#000000; stroke-linecap:round; stroke-linejoin:round; stroke-width:2; stroke-opacity:0.1; fill:none" points="302.458,402.001 2352.76,402.001 "/>
<polyline clip-path="url(#clip222)" style="stroke:#000000; stroke-linecap:round; stroke-linejoin:round; stroke-width:2; stroke-opacity:0.1; fill:none" points="302.458,67.4509 2352.76,67.4509 "/>
<polyline clip-path="url(#clip220)" style="stroke:#000000; stroke-linecap:round; stroke-linejoin:round; stroke-width:4; stroke-opacity:1; fill:none" points="302.458,1423.18 302.458,47.2441 "/>
<polyline clip-path="url(#clip220)" style="stroke:#000000; stroke-linecap:round; stroke-linejoin:round; stroke-width:4; stroke-opacity:1; fill:none" points="302.458,1405.65 321.356,1405.65 "/>
<polyline clip-path="url(#clip220)" style="stroke:#000000; stroke-linecap:round; stroke-linejoin:round; stroke-width:4; stroke-opacity:1; fill:none" points="302.458,1071.1 321.356,1071.1 "/>
<polyline clip-path="url(#clip220)" style="stroke:#000000; stroke-linecap:round; stroke-linejoin:round; stroke-width:4; stroke-opacity:1; fill:none" points="302.458,736.55 321.356,736.55 "/>
<polyline clip-path="url(#clip220)" style="stroke:#000000; stroke-linecap:round; stroke-linejoin:round; stroke-width:4; stroke-opacity:1; fill:none" points="302.458,402.001 321.356,402.001 "/>
<polyline clip-path="url(#clip220)" style="stroke:#000000; stroke-linecap:round; stroke-linejoin:round; stroke-width:4; stroke-opacity:1; fill:none" points="302.458,67.4509 321.356,67.4509 "/>
<path clip-path="url(#clip220)" d="M114.26 1406.1 L143.936 1406.1 L143.936 1410.04 L114.26 1410.04 L114.26 1406.1 Z" fill="#000000" fill-rule="nonzero" fill-opacity="1" /><path clip-path="url(#clip220)" d="M154.839 1418.99 L162.477 1418.99 L162.477 1392.63 L154.167 1394.3 L154.167 1390.04 L162.431 1388.37 L167.107 1388.37 L167.107 1418.99 L174.746 1418.99 L174.746 1422.93 L154.839 1422.93 L154.839 1418.99 Z" fill="#000000" fill-rule="nonzero" fill-opacity="1" /><path clip-path="url(#clip220)" d="M194.19 1391.45 Q190.579 1391.45 188.75 1395.01 Q186.945 1398.55 186.945 1405.68 Q186.945 1412.79 188.75 1416.36 Q190.579 1419.9 194.19 1419.9 Q197.825 1419.9 199.63 1416.36 Q201.459 1412.79 201.459 1405.68 Q201.459 1398.55 199.63 1395.01 Q197.825 1391.45 194.19 1391.45 M194.19 1387.74 Q200 1387.74 203.056 1392.35 Q206.135 1396.93 206.135 1405.68 Q206.135 1414.41 203.056 1419.02 Q200 1423.6 194.19 1423.6 Q188.38 1423.6 185.301 1419.02 Q182.246 1414.41 182.246 1405.68 Q182.246 1396.93 185.301 1392.35 Q188.38 1387.74 194.19 1387.74 Z" fill="#000000" fill-rule="nonzero" fill-opacity="1" /><path clip-path="url(#clip220)" d="M224.352 1391.45 Q220.741 1391.45 218.912 1395.01 Q217.107 1398.55 217.107 1405.68 Q217.107 1412.79 218.912 1416.36 Q220.741 1419.9 224.352 1419.9 Q227.986 1419.9 229.792 1416.36 Q231.621 1412.79 231.621 1405.68 Q231.621 1398.55 229.792 1395.01 Q227.986 1391.45 224.352 1391.45 M224.352 1387.74 Q230.162 1387.74 233.218 1392.35 Q236.297 1396.93 236.297 1405.68 Q236.297 1414.41 233.218 1419.02 Q230.162 1423.6 224.352 1423.6 Q218.542 1423.6 215.463 1419.02 Q212.408 1414.41 212.408 1405.68 Q212.408 1396.93 215.463 1392.35 Q218.542 1387.74 224.352 1387.74 Z" fill="#000000" fill-rule="nonzero" fill-opacity="1" /><path clip-path="url(#clip220)" d="M254.514 1391.45 Q250.903 1391.45 249.074 1395.01 Q247.269 1398.55 247.269 1405.68 Q247.269 1412.79 249.074 1416.36 Q250.903 1419.9 254.514 1419.9 Q258.148 1419.9 259.954 1416.36 Q261.783 1412.79 261.783 1405.68 Q261.783 1398.55 259.954 1395.01 Q258.148 1391.45 254.514 1391.45 M254.514 1387.74 Q260.324 1387.74 263.38 1392.35 Q266.458 1396.93 266.458 1405.68 Q266.458 1414.41 263.38 1419.02 Q260.324 1423.6 254.514 1423.6 Q248.704 1423.6 245.625 1419.02 Q242.57 1414.41 242.57 1405.68 Q242.57 1396.93 245.625 1392.35 Q248.704 1387.74 254.514 1387.74 Z" fill="#000000" fill-rule="nonzero" fill-opacity="1" /><path clip-path="url(#clip220)" d="M144.422 1071.55 L174.098 1071.55 L174.098 1075.49 L144.422 1075.49 L144.422 1071.55 Z" fill="#000000" fill-rule="nonzero" fill-opacity="1" /><path clip-path="url(#clip220)" d="M184.237 1053.82 L202.593 1053.82 L202.593 1057.75 L188.519 1057.75 L188.519 1066.23 Q189.538 1065.88 190.556 1065.72 Q191.575 1065.53 192.593 1065.53 Q198.38 1065.53 201.76 1068.7 Q205.139 1071.88 205.139 1077.29 Q205.139 1082.87 201.667 1085.97 Q198.195 1089.05 191.875 1089.05 Q189.7 1089.05 187.431 1088.68 Q185.186 1088.31 182.778 1087.57 L182.778 1082.87 Q184.862 1084 187.084 1084.56 Q189.306 1085.12 191.783 1085.12 Q195.787 1085.12 198.125 1083.01 Q200.463 1080.9 200.463 1077.29 Q200.463 1073.68 198.125 1071.57 Q195.787 1069.47 191.783 1069.47 Q189.908 1069.47 188.033 1069.88 Q186.181 1070.3 184.237 1071.18 L184.237 1053.82 Z" fill="#000000" fill-rule="nonzero" fill-opacity="1" /><path clip-path="url(#clip220)" d="M224.352 1056.9 Q220.741 1056.9 218.912 1060.46 Q217.107 1064 217.107 1071.13 Q217.107 1078.24 218.912 1081.81 Q220.741 1085.35 224.352 1085.35 Q227.986 1085.35 229.792 1081.81 Q231.621 1078.24 231.621 1071.13 Q231.621 1064 229.792 1060.46 Q227.986 1056.9 224.352 1056.9 M224.352 1053.19 Q230.162 1053.19 233.218 1057.8 Q236.297 1062.38 236.297 1071.13 Q236.297 1079.86 233.218 1084.47 Q230.162 1089.05 224.352 1089.05 Q218.542 1089.05 215.463 1084.47 Q212.408 1079.86 212.408 1071.13 Q212.408 1062.38 215.463 1057.8 Q218.542 1053.19 224.352 1053.19 Z" fill="#000000" fill-rule="nonzero" fill-opacity="1" /><path clip-path="url(#clip220)" d="M254.514 1056.9 Q250.903 1056.9 249.074 1060.46 Q247.269 1064 247.269 1071.13 Q247.269 1078.24 249.074 1081.81 Q250.903 1085.35 254.514 1085.35 Q258.148 1085.35 259.954 1081.81 Q261.783 1078.24 261.783 1071.13 Q261.783 1064 259.954 1060.46 Q258.148 1056.9 254.514 1056.9 M254.514 1053.19 Q260.324 1053.19 263.38 1057.8 Q266.458 1062.38 266.458 1071.13 Q266.458 1079.86 263.38 1084.47 Q260.324 1089.05 254.514 1089.05 Q248.704 1089.05 245.625 1084.47 Q242.57 1079.86 242.57 1071.13 Q242.57 1062.38 245.625 1057.8 Q248.704 1053.19 254.514 1053.19 Z" fill="#000000" fill-rule="nonzero" fill-opacity="1" /><path clip-path="url(#clip220)" d="M254.514 722.349 Q250.903 722.349 249.074 725.914 Q247.269 729.455 247.269 736.585 Q247.269 743.691 249.074 747.256 Q250.903 750.798 254.514 750.798 Q258.148 750.798 259.954 747.256 Q261.783 743.691 261.783 736.585 Q261.783 729.455 259.954 725.914 Q258.148 722.349 254.514 722.349 M254.514 718.645 Q260.324 718.645 263.38 723.252 Q266.458 727.835 266.458 736.585 Q266.458 745.312 263.38 749.918 Q260.324 754.501 254.514 754.501 Q248.704 754.501 245.625 749.918 Q242.57 745.312 242.57 736.585 Q242.57 727.835 245.625 723.252 Q248.704 718.645 254.514 718.645 Z" fill="#000000" fill-rule="nonzero" fill-opacity="1" /><path clip-path="url(#clip220)" d="M184.237 384.721 L202.593 384.721 L202.593 388.656 L188.519 388.656 L188.519 397.128 Q189.538 396.781 190.556 396.619 Q191.575 396.433 192.593 396.433 Q198.38 396.433 201.76 399.605 Q205.139 402.776 205.139 408.193 Q205.139 413.771 201.667 416.873 Q198.195 419.952 191.875 419.952 Q189.7 419.952 187.431 419.581 Q185.186 419.211 182.778 418.47 L182.778 413.771 Q184.862 414.906 187.084 415.461 Q189.306 416.017 191.783 416.017 Q195.787 416.017 198.125 413.91 Q200.463 411.804 200.463 408.193 Q200.463 404.582 198.125 402.475 Q195.787 400.369 191.783 400.369 Q189.908 400.369 188.033 400.785 Q186.181 401.202 184.237 402.082 L184.237 384.721 Z" fill="#000000" fill-rule="nonzero" fill-opacity="1" /><path clip-path="url(#clip220)" d="M224.352 387.799 Q220.741 387.799 218.912 391.364 Q217.107 394.906 217.107 402.035 Q217.107 409.142 218.912 412.706 Q220.741 416.248 224.352 416.248 Q227.986 416.248 229.792 412.706 Q231.621 409.142 231.621 402.035 Q231.621 394.906 229.792 391.364 Q227.986 387.799 224.352 387.799 M224.352 384.096 Q230.162 384.096 233.218 388.702 Q236.297 393.285 236.297 402.035 Q236.297 410.762 233.218 415.369 Q230.162 419.952 224.352 419.952 Q218.542 419.952 215.463 415.369 Q212.408 410.762 212.408 402.035 Q212.408 393.285 215.463 388.702 Q218.542 384.096 224.352 384.096 Z" fill="#000000" fill-rule="nonzero" fill-opacity="1" /><path clip-path="url(#clip220)" d="M254.514 387.799 Q250.903 387.799 249.074 391.364 Q247.269 394.906 247.269 402.035 Q247.269 409.142 249.074 412.706 Q250.903 416.248 254.514 416.248 Q258.148 416.248 259.954 412.706 Q261.783 409.142 261.783 402.035 Q261.783 394.906 259.954 391.364 Q258.148 387.799 254.514 387.799 M254.514 384.096 Q260.324 384.096 263.38 388.702 Q266.458 393.285 266.458 402.035 Q266.458 410.762 263.38 415.369 Q260.324 419.952 254.514 419.952 Q248.704 419.952 245.625 415.369 Q242.57 410.762 242.57 402.035 Q242.57 393.285 245.625 388.702 Q248.704 384.096 254.514 384.096 Z" fill="#000000" fill-rule="nonzero" fill-opacity="1" /><path clip-path="url(#clip220)" d="M154.839 80.7957 L162.477 80.7957 L162.477 54.4301 L154.167 56.0968 L154.167 51.8376 L162.431 50.1709 L167.107 50.1709 L167.107 80.7957 L174.746 80.7957 L174.746 84.7309 L154.839 84.7309 L154.839 80.7957 Z" fill="#000000" fill-rule="nonzero" fill-opacity="1" /><path clip-path="url(#clip220)" d="M194.19 53.2496 Q190.579 53.2496 188.75 56.8144 Q186.945 60.356 186.945 67.4856 Q186.945 74.5921 188.75 78.1569 Q190.579 81.6985 194.19 81.6985 Q197.825 81.6985 199.63 78.1569 Q201.459 74.5921 201.459 67.4856 Q201.459 60.356 199.63 56.8144 Q197.825 53.2496 194.19 53.2496 M194.19 49.5459 Q200 49.5459 203.056 54.1524 Q206.135 58.7357 206.135 67.4856 Q206.135 76.2124 203.056 80.8189 Q200 85.4022 194.19 85.4022 Q188.38 85.4022 185.301 80.8189 Q182.246 76.2124 182.246 67.4856 Q182.246 58.7357 185.301 54.1524 Q188.38 49.5459 194.19 49.5459 Z" fill="#000000" fill-rule="nonzero" fill-opacity="1" /><path clip-path="url(#clip220)" d="M224.352 53.2496 Q220.741 53.2496 218.912 56.8144 Q217.107 60.356 217.107 67.4856 Q217.107 74.5921 218.912 78.1569 Q220.741 81.6985 224.352 81.6985 Q227.986 81.6985 229.792 78.1569 Q231.621 74.5921 231.621 67.4856 Q231.621 60.356 229.792 56.8144 Q227.986 53.2496 224.352 53.2496 M224.352 49.5459 Q230.162 49.5459 233.218 54.1524 Q236.297 58.7357 236.297 67.4856 Q236.297 76.2124 233.218 80.8189 Q230.162 85.4022 224.352 85.4022 Q218.542 85.4022 215.463 80.8189 Q212.408 76.2124 212.408 67.4856 Q212.408 58.7357 215.463 54.1524 Q218.542 49.5459 224.352 49.5459 Z" fill="#000000" fill-rule="nonzero" fill-opacity="1" /><path clip-path="url(#clip220)" d="M254.514 53.2496 Q250.903 53.2496 249.074 56.8144 Q247.269 60.356 247.269 67.4856 Q247.269 74.5921 249.074 78.1569 Q250.903 81.6985 254.514 81.6985 Q258.148 81.6985 259.954 78.1569 Q261.783 74.5921 261.783 67.4856 Q261.783 60.356 259.954 56.8144 Q258.148 53.2496 254.514 53.2496 M254.514 49.5459 Q260.324 49.5459 263.38 54.1524 Q266.458 58.7357 266.458 67.4856 Q266.458 76.2124 263.38 80.8189 Q260.324 85.4022 254.514 85.4022 Q248.704 85.4022 245.625 80.8189 Q242.57 76.2124 242.57 67.4856 Q242.57 58.7357 245.625 54.1524 Q248.704 49.5459 254.514 49.5459 Z" fill="#000000" fill-rule="nonzero" fill-opacity="1" /><path clip-path="url(#clip220)" d="M67.3143 733.525 Q73.68 736.008 75.6216 738.363 Q77.5631 740.718 77.5631 744.665 L77.5631 749.344 L72.6615 749.344 L72.6615 745.906 Q72.6615 743.487 71.5157 742.151 Q70.3699 740.814 66.1048 739.191 L63.4312 738.14 L28.3562 752.559 L28.3562 746.352 L56.238 735.212 L28.3562 724.072 L28.3562 717.865 L67.3143 733.525 Z" fill="#000000" fill-rule="nonzero" fill-opacity="1" /><polyline clip-path="url(#clip222)" style="stroke:#009af9; stroke-linecap:round; stroke-linejoin:round; stroke-width:8; stroke-opacity:1; fill:none" points="360.486,1384.24 370.157,1364.57 379.828,1345.29 389.499,1326.41 399.171,1307.92 408.842,1289.81 418.513,1272.09 428.184,1254.74 437.855,1237.76 447.527,1221.16 457.198,1204.92 466.869,1189.04 476.54,1173.52 486.211,1158.35 495.883,1143.53 505.554,1129.06 515.225,1114.93 524.896,1101.13 534.568,1087.67 544.239,1074.54 553.91,1061.73 563.581,1049.25 573.252,1037.08 582.924,1025.22 592.595,1013.68 602.266,1002.43 611.937,991.493 621.608,980.85 631.28,970.499 640.951,960.438 650.622,950.662 660.293,941.167 669.965,931.949 679.636,923.003 689.307,914.327 698.978,905.916 708.649,897.766 718.321,889.872 727.992,882.232 737.663,874.84 747.334,867.694 757.006,860.788 766.677,854.119 776.348,847.683 786.019,841.476 795.69,835.493 805.362,829.732 815.033,824.187 824.704,818.855 834.375,813.731 844.046,808.813 853.718,804.095 863.389,799.574 873.06,795.246 882.731,791.106 892.403,787.151 902.074,783.376 911.745,779.779 921.416,776.354 931.087,773.097 940.759,770.005 950.43,767.074 960.101,764.299 969.772,761.677 979.443,759.203 989.115,756.874 998.786,754.685 1008.46,752.633 1018.13,750.714 1027.8,748.922 1037.47,747.256 1047.14,745.709 1056.81,744.28 1066.48,742.962 1076.16,741.753 1085.83,740.648 1095.5,739.644 1105.17,738.736 1114.84,737.92 1124.51,737.193 1134.18,736.55 1143.85,735.987 1153.53,735.501 1163.2,735.087 1172.87,734.741 1182.54,734.459 1192.21,734.238 1201.88,734.072 1211.55,733.959 1221.22,733.895 1230.9,733.874 1240.57,733.893 1250.24,733.949 1259.91,734.036 1269.58,734.152 1279.25,734.292 1288.92,734.452 1298.59,734.628 1308.26,734.816 1317.94,735.012 1327.61,735.212 1337.28,735.412 1346.95,735.608 1356.62,735.796 1366.29,735.972 1375.96,736.132 1385.63,736.272 1395.31,736.388 1404.98,736.475 1414.65,736.531 1424.32,736.55 1433.99,736.529 1443.66,736.465 1453.33,736.351 1463,736.186 1472.68,735.965 1482.35,735.683 1492.02,735.337 1501.69,734.923 1511.36,734.436 1521.03,733.874 1530.7,733.231 1540.37,732.503 1550.05,731.688 1559.72,730.78 1569.39,729.776 1579.06,728.671 1588.73,727.462 1598.4,726.144 1608.07,724.714 1617.74,723.168 1627.41,721.501 1637.09,719.71 1646.76,717.791 1656.43,715.739 1666.1,713.55 1675.77,711.221 1685.44,708.747 1695.11,706.125 1704.78,703.35 1714.46,700.419 1724.13,697.327 1733.8,694.07 1743.47,690.645 1753.14,687.048 1762.81,683.273 1772.48,679.318 1782.15,675.178 1791.83,670.85 1801.5,666.329 1811.17,661.611 1820.84,656.692 1830.51,651.569 1840.18,646.237 1849.85,640.692 1859.52,634.931 1869.2,628.948 1878.87,622.741 1888.54,616.305 1898.21,609.636 1907.88,602.73 1917.55,595.584 1927.22,588.192 1936.89,580.552 1946.56,572.658 1956.24,564.508 1965.91,556.097 1975.58,547.421 1985.25,538.475 1994.92,529.257 2004.59,519.762 2014.26,509.986 2023.93,499.925 2033.61,489.574 2043.28,478.931 2052.95,467.99 2062.62,456.749 2072.29,445.202 2081.96,433.346 2091.63,421.178 2101.3,408.692 2110.98,395.884 2120.65,382.752 2130.32,369.29 2139.99,355.495 2149.66,341.363 2159.33,326.89 2169,312.072 2178.67,296.904 2188.35,281.383 2198.02,265.504 2207.69,249.265 2217.36,232.66 2227.03,215.685 2236.7,198.337 2246.37,180.612 2256.04,162.506 2265.71,144.014 2275.39,125.133 2285.06,105.858 2294.73,86.1857 "/>
<polyline clip-path="url(#clip222)" style="stroke:#e26f46; stroke-linecap:round; stroke-linejoin:round; stroke-width:8; stroke-opacity:1; fill:none" points="360.486,537.828 370.157,541.822 379.828,545.777 389.499,549.691 399.171,553.565 408.842,557.399 418.513,561.193 428.184,564.946 437.855,568.66 447.527,572.333 457.198,575.966 466.869,579.559 476.54,583.112 486.211,586.625 495.883,590.098 505.554,593.53 515.225,596.923 524.896,600.275 534.568,603.587 544.239,606.859 553.91,610.09 563.581,613.282 573.252,616.433 582.924,619.545 592.595,622.616 602.266,625.647 611.937,628.638 621.608,631.589 631.28,634.499 640.951,637.37 650.622,640.2 660.293,642.99 669.965,645.74 679.636,648.45 689.307,651.12 698.978,653.749 708.649,656.339 718.321,658.888 727.992,661.397 737.663,663.866 747.334,666.295 757.006,668.683 766.677,671.032 776.348,673.34 786.019,675.609 795.69,677.837 805.362,680.025 815.033,682.172 824.704,684.28 834.375,686.348 844.046,688.375 853.718,690.362 863.389,692.309 873.06,694.216 882.731,696.083 892.403,697.91 902.074,699.696 911.745,701.443 921.416,703.149 931.087,704.815 940.759,706.441 950.43,708.026 960.101,709.572 969.772,711.078 979.443,712.543 989.115,713.968 998.786,715.353 1008.46,716.698 1018.13,718.003 1027.8,719.267 1037.47,720.492 1047.14,721.676 1056.81,722.82 1066.48,723.924 1076.16,724.988 1085.83,726.012 1095.5,726.995 1105.17,727.939 1114.84,728.842 1124.51,729.705 1134.18,730.528 1143.85,731.311 1153.53,732.054 1163.2,732.756 1172.87,733.419 1182.54,734.041 1192.21,734.623 1201.88,735.165 1211.55,735.667 1221.22,736.129 1230.9,736.55 1240.57,736.932 1250.24,737.273 1259.91,737.574 1269.58,737.835 1279.25,738.056 1288.92,738.236 1298.59,738.377 1308.26,738.477 1317.94,738.537 1327.61,738.557 1337.28,738.537 1346.95,738.477 1356.62,738.377 1366.29,738.236 1375.96,738.056 1385.63,737.835 1395.31,737.574 1404.98,737.273 1414.65,736.932 1424.32,736.55 1433.99,736.129 1443.66,735.667 1453.33,735.165 1463,734.623 1472.68,734.041 1482.35,733.419 1492.02,732.756 1501.69,732.054 1511.36,731.311 1521.03,730.528 1530.7,729.705 1540.37,728.842 1550.05,727.939 1559.72,726.995 1569.39,726.012 1579.06,724.988 1588.73,723.924 1598.4,722.82 1608.07,721.676 1617.74,720.492 1627.41,719.267 1637.09,718.003 1646.76,716.698 1656.43,715.353 1666.1,713.968 1675.77,712.543 1685.44,711.078 1695.11,709.572 1704.78,708.026 1714.46,706.441 1724.13,704.815 1733.8,703.149 1743.47,701.443 1753.14,699.696 1762.81,697.91 1772.48,696.083 1782.15,694.216 1791.83,692.309 1801.5,690.362 1811.17,688.375 1820.84,686.348 1830.51,684.28 1840.18,682.172 1849.85,680.025 1859.52,677.837 1869.2,675.609 1878.87,673.34 1888.54,671.032 1898.21,668.683 1907.88,666.295 1917.55,663.866 1927.22,661.397 1936.89,658.888 1946.56,656.339 1956.24,653.749 1965.91,651.12 1975.58,648.45 1985.25,645.74 1994.92,642.99 2004.59,640.2 2014.26,637.37 2023.93,634.499 2033.61,631.589 2043.28,628.638 2052.95,625.647 2062.62,622.616 2072.29,619.545 2081.96,616.433 2091.63,613.282 2101.3,610.09 2110.98,606.859 2120.65,603.587 2130.32,600.275 2139.99,596.923 2149.66,593.53 2159.33,590.098 2169,586.625 2178.67,583.112 2188.35,579.559 2198.02,575.966 2207.69,572.333 2217.36,568.66 2227.03,564.946 2236.7,561.193 2246.37,557.399 2256.04,553.565 2265.71,549.691 2275.39,545.777 2285.06,541.822 2294.73,537.828 "/>
<path clip-path="url(#clip220)" d="M370.802 248.629 L932.103 248.629 L932.103 93.1086 L370.802 93.1086  Z" fill="#ffffff" fill-rule="evenodd" fill-opacity="1"/>
<polyline clip-path="url(#clip220)" style="stroke:#000000; stroke-linecap:round; stroke-linejoin:round; stroke-width:4; stroke-opacity:1; fill:none" points="370.802,248.629 932.103,248.629 932.103,93.1086 370.802,93.1086 370.802,248.629 "/>
<polyline clip-path="url(#clip220)" style="stroke:#009af9; stroke-linecap:round; stroke-linejoin:round; stroke-width:8; stroke-opacity:1; fill:none" points="393.583,144.949 530.269,144.949 "/>
<path clip-path="url(#clip220)" d="M574.763 146.581 L574.763 162.229 L570.504 162.229 L570.504 146.719 Q570.504 143.039 569.069 141.21 Q567.634 139.382 564.763 139.382 Q561.314 139.382 559.323 141.581 Q557.333 143.78 557.333 147.576 L557.333 162.229 L553.05 162.229 L553.05 126.21 L557.333 126.21 L557.333 140.331 Q558.86 137.993 560.921 136.835 Q563.004 135.678 565.712 135.678 Q570.18 135.678 572.472 138.456 Q574.763 141.21 574.763 146.581 Z" fill="#000000" fill-rule="nonzero" fill-opacity="1" /><path clip-path="url(#clip220)" d="M593.49 126.257 Q590.388 131.581 588.883 136.789 Q587.379 141.997 587.379 147.344 Q587.379 152.692 588.883 157.946 Q590.411 163.178 593.49 168.479 L589.786 168.479 Q586.314 163.039 584.578 157.784 Q582.865 152.53 582.865 147.344 Q582.865 142.182 584.578 136.951 Q586.291 131.72 589.786 126.257 L593.49 126.257 Z" fill="#000000" fill-rule="nonzero" fill-opacity="1" /><path clip-path="url(#clip220)" d="M623.305 136.303 L613.93 148.919 L623.791 162.229 L618.768 162.229 L611.221 152.043 L603.675 162.229 L598.652 162.229 L608.721 148.664 L599.508 136.303 L604.532 136.303 L611.407 145.539 L618.281 136.303 L623.305 136.303 Z" fill="#000000" fill-rule="nonzero" fill-opacity="1" /><path clip-path="url(#clip220)" d="M629.138 126.257 L632.842 126.257 Q636.314 131.72 638.027 136.951 Q639.763 142.182 639.763 147.344 Q639.763 152.53 638.027 157.784 Q636.314 163.039 632.842 168.479 L629.138 168.479 Q632.217 163.178 633.721 157.946 Q635.249 152.692 635.249 147.344 Q635.249 141.997 633.721 136.789 Q632.217 131.581 629.138 126.257 Z" fill="#000000" fill-rule="nonzero" fill-opacity="1" /><polyline clip-path="url(#clip220)" style="stroke:#e26f46; stroke-linecap:round; stroke-linejoin:round; stroke-width:8; stroke-opacity:1; fill:none" points="393.583,196.789 530.269,196.789 "/>
<path clip-path="url(#clip220)" d="M553.05 179.509 L559.347 179.509 L574.671 208.421 L574.671 179.509 L579.208 179.509 L579.208 214.069 L572.911 214.069 L557.587 185.157 L557.587 214.069 L553.05 214.069 L553.05 179.509 Z" fill="#000000" fill-rule="nonzero" fill-opacity="1" /><path clip-path="url(#clip220)" d="M587.888 203.837 L587.888 188.143 L592.147 188.143 L592.147 203.675 Q592.147 207.356 593.583 209.208 Q595.018 211.036 597.888 211.036 Q601.337 211.036 603.328 208.837 Q605.342 206.638 605.342 202.842 L605.342 188.143 L609.601 188.143 L609.601 214.069 L605.342 214.069 L605.342 210.087 Q603.791 212.448 601.731 213.606 Q599.694 214.74 596.985 214.74 Q592.518 214.74 590.203 211.962 Q587.888 209.184 587.888 203.837 M598.606 187.518 L598.606 187.518 Z" fill="#000000" fill-rule="nonzero" fill-opacity="1" /><path clip-path="url(#clip220)" d="M638.559 193.12 Q640.156 190.249 642.379 188.884 Q644.601 187.518 647.61 187.518 Q651.661 187.518 653.86 190.365 Q656.059 193.189 656.059 198.421 L656.059 214.069 L651.777 214.069 L651.777 198.559 Q651.777 194.833 650.457 193.027 Q649.138 191.222 646.429 191.222 Q643.119 191.222 641.198 193.421 Q639.277 195.62 639.277 199.416 L639.277 214.069 L634.994 214.069 L634.994 198.559 Q634.994 194.809 633.675 193.027 Q632.355 191.222 629.601 191.222 Q626.337 191.222 624.416 193.444 Q622.494 195.643 622.494 199.416 L622.494 214.069 L618.212 214.069 L618.212 188.143 L622.494 188.143 L622.494 192.171 Q623.953 189.786 625.99 188.652 Q628.027 187.518 630.828 187.518 Q633.652 187.518 635.619 188.953 Q637.61 190.388 638.559 193.12 Z" fill="#000000" fill-rule="nonzero" fill-opacity="1" /><path clip-path="url(#clip220)" d="M686.73 200.041 L686.73 202.124 L667.147 202.124 Q667.425 206.522 669.786 208.837 Q672.17 211.129 676.406 211.129 Q678.86 211.129 681.151 210.527 Q683.466 209.925 685.735 208.721 L685.735 212.749 Q683.443 213.721 681.036 214.231 Q678.628 214.74 676.152 214.74 Q669.948 214.74 666.314 211.129 Q662.703 207.518 662.703 201.36 Q662.703 194.995 666.128 191.268 Q669.577 187.518 675.411 187.518 Q680.642 187.518 683.675 190.897 Q686.73 194.254 686.73 200.041 M682.471 198.791 Q682.425 195.296 680.503 193.212 Q678.605 191.129 675.457 191.129 Q671.892 191.129 669.74 193.143 Q667.61 195.157 667.286 198.814 L682.471 198.791 Z" fill="#000000" fill-rule="nonzero" fill-opacity="1" /><path clip-path="url(#clip220)" d="M708.744 192.124 Q708.026 191.708 707.17 191.522 Q706.337 191.314 705.318 191.314 Q701.707 191.314 699.763 193.675 Q697.841 196.013 697.841 200.411 L697.841 214.069 L693.559 214.069 L693.559 188.143 L697.841 188.143 L697.841 192.171 Q699.184 189.809 701.337 188.675 Q703.489 187.518 706.568 187.518 Q707.008 187.518 707.54 187.587 Q708.073 187.634 708.721 187.749 L708.744 192.124 Z" fill="#000000" fill-rule="nonzero" fill-opacity="1" /><path clip-path="url(#clip220)" d="M713.212 188.143 L717.471 188.143 L717.471 214.069 L713.212 214.069 L713.212 188.143 M713.212 178.05 L717.471 178.05 L717.471 183.444 L713.212 183.444 L713.212 178.05 Z" fill="#000000" fill-rule="nonzero" fill-opacity="1" /><path clip-path="url(#clip220)" d="M745.04 189.138 L745.04 193.12 Q743.234 192.124 741.406 191.638 Q739.6 191.129 737.748 191.129 Q733.605 191.129 731.313 193.768 Q729.022 196.384 729.022 201.129 Q729.022 205.874 731.313 208.513 Q733.605 211.129 737.748 211.129 Q739.6 211.129 741.406 210.643 Q743.234 210.133 745.04 209.138 L745.04 213.073 Q743.258 213.907 741.336 214.323 Q739.438 214.74 737.285 214.74 Q731.429 214.74 727.98 211.059 Q724.531 207.379 724.531 201.129 Q724.531 194.786 728.003 191.152 Q731.498 187.518 737.563 187.518 Q739.531 187.518 741.406 187.935 Q743.281 188.328 745.04 189.138 Z" fill="#000000" fill-rule="nonzero" fill-opacity="1" /><path clip-path="url(#clip220)" d="M764.23 201.036 Q759.068 201.036 757.077 202.217 Q755.086 203.397 755.086 206.245 Q755.086 208.513 756.568 209.856 Q758.072 211.175 760.642 211.175 Q764.183 211.175 766.313 208.675 Q768.466 206.152 768.466 201.985 L768.466 201.036 L764.23 201.036 M772.725 199.277 L772.725 214.069 L768.466 214.069 L768.466 210.133 Q767.008 212.495 764.832 213.629 Q762.656 214.74 759.508 214.74 Q755.526 214.74 753.165 212.518 Q750.827 210.272 750.827 206.522 Q750.827 202.147 753.744 199.925 Q756.683 197.703 762.494 197.703 L768.466 197.703 L768.466 197.286 Q768.466 194.347 766.521 192.749 Q764.6 191.129 761.105 191.129 Q758.883 191.129 756.776 191.661 Q754.67 192.194 752.725 193.259 L752.725 189.323 Q755.063 188.421 757.262 187.981 Q759.461 187.518 761.545 187.518 Q767.17 187.518 769.947 190.434 Q772.725 193.351 772.725 199.277 Z" fill="#000000" fill-rule="nonzero" fill-opacity="1" /><path clip-path="url(#clip220)" d="M781.498 178.05 L785.757 178.05 L785.757 214.069 L781.498 214.069 L781.498 178.05 Z" fill="#000000" fill-rule="nonzero" fill-opacity="1" /><path clip-path="url(#clip220)" d="M831.29 198.421 L831.29 214.069 L827.03 214.069 L827.03 198.559 Q827.03 194.879 825.595 193.05 Q824.16 191.222 821.29 191.222 Q817.841 191.222 815.85 193.421 Q813.859 195.62 813.859 199.416 L813.859 214.069 L809.577 214.069 L809.577 178.05 L813.859 178.05 L813.859 192.171 Q815.387 189.833 817.447 188.675 Q819.53 187.518 822.239 187.518 Q826.706 187.518 828.998 190.296 Q831.29 193.05 831.29 198.421 Z" fill="#000000" fill-rule="nonzero" fill-opacity="1" /><path clip-path="url(#clip220)" d="M843.813 179.509 L843.813 192.356 L839.877 192.356 L839.877 179.509 L843.813 179.509 Z" fill="#000000" fill-rule="nonzero" fill-opacity="1" /><path clip-path="url(#clip220)" d="M863.049 178.097 Q859.947 183.421 858.442 188.629 Q856.938 193.837 856.938 199.184 Q856.938 204.532 858.442 209.786 Q859.97 215.018 863.049 220.319 L859.345 220.319 Q855.873 214.879 854.137 209.624 Q852.424 204.37 852.424 199.184 Q852.424 194.022 854.137 188.791 Q855.85 183.56 859.345 178.097 L863.049 178.097 Z" fill="#000000" fill-rule="nonzero" fill-opacity="1" /><path clip-path="url(#clip220)" d="M892.863 188.143 L883.488 200.759 L893.349 214.069 L888.326 214.069 L880.78 203.883 L873.234 214.069 L868.211 214.069 L878.28 200.504 L869.067 188.143 L874.09 188.143 L880.965 197.379 L887.84 188.143 L892.863 188.143 Z" fill="#000000" fill-rule="nonzero" fill-opacity="1" /><path clip-path="url(#clip220)" d="M898.697 178.097 L902.4 178.097 Q905.873 183.56 907.585 188.791 Q909.322 194.022 909.322 199.184 Q909.322 204.37 907.585 209.624 Q905.873 214.879 902.4 220.319 L898.697 220.319 Q901.775 215.018 903.28 209.786 Q904.808 204.532 904.808 199.184 Q904.808 193.837 903.28 188.629 Q901.775 183.421 898.697 178.097 Z" fill="#000000" fill-rule="nonzero" fill-opacity="1" /></svg>