<?xml version="1.0" encoding="utf-8"?>
<svg xmlns="http://www.w3.org/2000/svg" xmlns:xlink="http://www.w3.org/1999/xlink" width="600" height="400" viewBox="0 0 2400 1600">
<defs>
  <clipPath id="clip840">
    <rect x="0" y="0" width="2400" height="1600"/>
  </clipPath>
</defs>
<path clip-path="url(#clip840)" d="M0 1600 L2400 1600 L2400 0 L0 0  Z" fill="#ffffff" fill-rule="evenodd" fill-opacity="1"/>
<defs>
  <clipPath id="clip841">
    <rect x="480" y="0" width="1681" height="1600"/>
  </clipPath>
</defs>
<path clip-path="url(#clip840)" d="M339.542 1423.18 L2352.76 1423.18 L2352.76 123.472 L339.542 123.472  Z" fill="#ffffff" fill-rule="evenodd" fill-opacity="1"/>
<defs>
  <clipPath id="clip842">
    <rect x="339" y="123" width="2014" height="1301"/>
  </clipPath>
</defs>
<polyline clip-path="url(#clip842)" style="stroke:#000000; stroke-linecap:round; stroke-linejoin:round; stroke-width:2; stroke-opacity:0.1; fill:none" points="396.519,1423.18 396.519,123.472 "/>
<polyline clip-path="url(#clip842)" style="stroke:#000000; stroke-linecap:round; stroke-linejoin:round; stroke-width:2; stroke-opacity:0.1; fill:none" points="871.334,1423.18 871.334,123.472 "/>
<polyline clip-path="url(#clip842)" style="stroke:#000000; stroke-linecap:round; stroke-linejoin:round; stroke-width:2; stroke-opacity:0.1; fill:none" points="1346.15,1423.18 1346.15,123.472 "/>
<polyline clip-path="url(#clip842)" style="stroke:#000000; stroke-linecap:round; stroke-linejoin:round; stroke-width:2; stroke-opacity:0.1; fill:none" points="1820.96,1423.18 1820.96,123.472 "/>
<polyline clip-path="url(#clip842)" style="stroke:#000000; stroke-linecap:round; stroke-linejoin:round; stroke-width:2; stroke-opacity:0.1; fill:none" points="2295.78,1423.18 2295.78,123.472 "/>
<polyline clip-path="url(#clip840)" style="stroke:#000000; stroke-linecap:round; stroke-linejoin:round; stroke-width:4; stroke-opacity:1; fill:none" points="339.542,1423.18 2352.76,1423.18 "/>
<polyline clip-path="url(#clip840)" style="stroke:#000000; stroke-linecap:round; stroke-linejoin:round; stroke-width:4; stroke-opacity:1; fill:none" points="396.519,1423.18 396.519,1404.28 "/>
<polyline clip-path="url(#clip840)" style="stroke:#000000; stroke-linecap:round; stroke-linejoin:round; stroke-width:4; stroke-opacity:1; fill:none" points="871.334,1423.18 871.334,1404.28 "/>
<polyline clip-path="url(#clip840)" style="stroke:#000000; stroke-linecap:round; stroke-linejoin:round; stroke-width:4; stroke-opacity:1; fill:none" points="1346.15,1423.18 1346.15,1404.28 "/>
<polyline clip-path="url(#clip840)" style="stroke:#000000; stroke-linecap:round; stroke-linejoin:round; stroke-width:4; stroke-opacity:1; fill:none" points="1820.96,1423.18 1820.96,1404.28 "/>
<polyline clip-path="url(#clip840)" style="stroke:#000000; stroke-linecap:round; stroke-linejoin:round; stroke-width:4; stroke-opacity:1; fill:none" points="2295.78,1423.18 2295.78,1404.28 "/>
<path clip-path="url(#clip840)" d="M396.519 1454.1 Q392.908 1454.1 391.08 1457.66 Q389.274 1461.2 389.274 1468.33 Q389.274 1475.44 391.08 1479.01 Q392.908 1482.55 396.519 1482.55 Q400.154 1482.55 401.959 1479.01 Q403.788 1475.44 403.788 1468.33 Q403.788 1461.2 401.959 1457.66 Q400.154 1454.1 396.519 1454.1 M396.519 1450.39 Q402.329 1450.39 405.385 1455 Q408.464 1459.58 408.464 1468.33 Q408.464 1477.06 405.385 1481.67 Q402.329 1486.25 396.519 1486.25 Q390.709 1486.25 387.63 1481.67 Q384.575 1477.06 384.575 1468.33 Q384.575 1459.58 387.63 1455 Q390.709 1450.39 396.519 1450.39 Z" fill="#000000" fill-rule="nonzero" fill-opacity="1" /><path clip-path="url(#clip840)" d="M861.612 1451.02 L879.968 1451.02 L879.968 1454.96 L865.894 1454.96 L865.894 1463.43 Q866.913 1463.08 867.931 1462.92 Q868.95 1462.73 869.968 1462.73 Q875.755 1462.73 879.135 1465.9 Q882.515 1469.08 882.515 1474.49 Q882.515 1480.07 879.042 1483.17 Q875.57 1486.25 869.251 1486.25 Q867.075 1486.25 864.806 1485.88 Q862.561 1485.51 860.154 1484.77 L860.154 1480.07 Q862.237 1481.2 864.459 1481.76 Q866.681 1482.32 869.158 1482.32 Q873.163 1482.32 875.501 1480.21 Q877.839 1478.1 877.839 1474.49 Q877.839 1470.88 875.501 1468.77 Q873.163 1466.67 869.158 1466.67 Q867.283 1466.67 865.408 1467.08 Q863.556 1467.5 861.612 1468.38 L861.612 1451.02 Z" fill="#000000" fill-rule="nonzero" fill-opacity="1" /><path clip-path="url(#clip840)" d="M1320.84 1481.64 L1328.48 1481.64 L1328.48 1455.28 L1320.17 1456.95 L1320.17 1452.69 L1328.43 1451.02 L1333.1 1451.02 L1333.1 1481.64 L1340.74 1481.64 L1340.74 1485.58 L1320.84 1485.58 L1320.84 1481.64 Z" fill="#000000" fill-rule="nonzero" fill-opacity="1" /><path clip-path="url(#clip840)" d="M1360.19 1454.1 Q1356.58 1454.1 1354.75 1457.66 Q1352.94 1461.2 1352.94 1468.33 Q1352.94 1475.44 1354.75 1479.01 Q1356.58 1482.55 1360.19 1482.55 Q1363.82 1482.55 1365.63 1479.01 Q1367.46 1475.44 1367.46 1468.33 Q1367.46 1461.2 1365.63 1457.66 Q1363.82 1454.1 1360.19 1454.1 M1360.19 1450.39 Q1366 1450.39 1369.05 1455 Q1372.13 1459.58 1372.13 1468.33 Q1372.13 1477.06 1369.05 1481.67 Q1366 1486.25 1360.19 1486.25 Q1354.38 1486.25 1351.3 1481.67 Q1348.24 1477.06 1348.24 1468.33 Q1348.24 1459.58 1351.3 1455 Q1354.38 1450.39 1360.19 1450.39 Z" fill="#000000" fill-rule="nonzero" fill-opacity="1" /><path clip-path="url(#clip840)" d="M1796.15 1481.64 L1803.79 1481.64 L1803.79 1455.28 L1795.48 1456.95 L1795.48 1452.69 L1803.74 1451.02 L1808.42 1451.02 L1808.42 1481.64 L1816.06 1481.64 L1816.06 1485.58 L1796.15 1485.58 L1796.15 1481.64 Z" fill="#000000" fill-rule="nonzero" fill-opacity="1" /><path clip-path="url(#clip840)" d="M1825.55 1451.02 L1843.9 1451.02 L1843.9 1454.96 L1829.83 1454.96 L1829.83 1463.43 Q1830.85 1463.08 1831.87 1462.92 Q1832.88 1462.73 1833.9 1462.73 Q1839.69 1462.73 1843.07 1465.9 Q1846.45 1469.08 1846.45 1474.49 Q1846.45 1480.07 1842.98 1483.17 Q1839.51 1486.25 1833.19 1486.25 Q1831.01 1486.25 1828.74 1485.88 Q1826.5 1485.51 1824.09 1484.77 L1824.09 1480.07 Q1826.17 1481.2 1828.39 1481.76 Q1830.62 1482.32 1833.09 1482.32 Q1837.1 1482.32 1839.44 1480.21 Q1841.77 1478.1 1841.77 1474.49 Q1841.77 1470.88 1839.44 1468.77 Q1837.1 1466.67 1833.09 1466.67 Q1831.22 1466.67 1829.34 1467.08 Q1827.49 1467.5 1825.55 1468.38 L1825.55 1451.02 Z" fill="#000000" fill-rule="nonzero" fill-opacity="1" /><path clip-path="url(#clip840)" d="M2274.55 1481.64 L2290.87 1481.64 L2290.87 1485.58 L2268.93 1485.58 L2268.93 1481.64 Q2271.59 1478.89 2276.17 1474.26 Q2280.78 1469.61 2281.96 1468.27 Q2284.2 1465.74 2285.08 1464.01 Q2285.99 1462.25 2285.99 1460.56 Q2285.99 1457.8 2284.04 1456.07 Q2282.12 1454.33 2279.02 1454.33 Q2276.82 1454.33 2274.37 1455.09 Q2271.94 1455.86 2269.16 1457.41 L2269.16 1452.69 Q2271.98 1451.55 2274.44 1450.97 Q2276.89 1450.39 2278.93 1450.39 Q2284.3 1450.39 2287.49 1453.08 Q2290.69 1455.77 2290.69 1460.26 Q2290.69 1462.39 2289.88 1464.31 Q2289.09 1466.2 2286.98 1468.8 Q2286.4 1469.47 2283.3 1472.69 Q2280.2 1475.88 2274.55 1481.64 Z" fill="#000000" fill-rule="nonzero" fill-opacity="1" /><path clip-path="url(#clip840)" d="M2310.69 1454.1 Q2307.07 1454.1 2305.25 1457.66 Q2303.44 1461.2 2303.44 1468.33 Q2303.44 1475.44 2305.25 1479.01 Q2307.07 1482.55 2310.69 1482.55 Q2314.32 1482.55 2316.13 1479.01 Q2317.95 1475.44 2317.95 1468.33 Q2317.95 1461.2 2316.13 1457.66 Q2314.32 1454.1 2310.69 1454.1 M2310.69 1450.39 Q2316.5 1450.39 2319.55 1455 Q2322.63 1459.58 2322.63 1468.33 Q2322.63 1477.06 2319.55 1481.67 Q2316.5 1486.25 2310.69 1486.25 Q2304.88 1486.25 2301.8 1481.67 Q2298.74 1477.06 2298.74 1468.33 Q2298.74 1459.58 2301.8 1455 Q2304.88 1450.39 2310.69 1450.39 Z" fill="#000000" fill-rule="nonzero" fill-opacity="1" /><path clip-path="url(#clip840)" d="M1231.04 1520.52 L1271.24 1520.52 L1271.24 1525.93 L1254.37 1525.93 L1254.37 1568.04 L1247.91 1568.04 L1247.91 1525.93 L1231.04 1525.93 L1231.04 1520.52 Z" fill="#000000" fill-rule="nonzero" fill-opacity="1" /><path clip-path="url(#clip840)" d="M1275.19 1532.4 L1281.04 1532.4 L1281.04 1568.04 L1275.19 1568.04 L1275.19 1532.4 M1275.19 1518.52 L1281.04 1518.52 L1281.04 1525.93 L1275.19 1525.93 L1275.19 1518.52 Z" fill="#000000" fill-rule="nonzero" fill-opacity="1" /><path clip-path="url(#clip840)" d="M1316.76 1537.81 L1316.76 1518.52 L1322.61 1518.52 L1322.61 1568.04 L1316.76 1568.04 L1316.76 1562.7 Q1314.91 1565.88 1312.08 1567.44 Q1309.28 1568.97 1305.33 1568.97 Q1298.87 1568.97 1294.79 1563.81 Q1290.75 1558.65 1290.75 1550.25 Q1290.75 1541.85 1294.79 1536.69 Q1298.87 1531.54 1305.33 1531.54 Q1309.28 1531.54 1312.08 1533.1 Q1314.91 1534.62 1316.76 1537.81 M1296.8 1550.25 Q1296.8 1556.71 1299.44 1560.4 Q1302.11 1564.07 1306.76 1564.07 Q1311.41 1564.07 1314.08 1560.4 Q1316.76 1556.71 1316.76 1550.25 Q1316.76 1543.79 1314.08 1540.13 Q1311.41 1536.44 1306.76 1536.44 Q1302.11 1536.44 1299.44 1540.13 Q1296.8 1543.79 1296.8 1550.25 Z" fill="#000000" fill-rule="nonzero" fill-opacity="1" /><path clip-path="url(#clip840)" d="M1369.46 1518.58 Q1365.2 1525.9 1363.13 1533.06 Q1361.06 1540.23 1361.06 1547.58 Q1361.06 1554.93 1363.13 1562.16 Q1365.23 1569.35 1369.46 1576.64 L1364.37 1576.64 Q1359.6 1569.16 1357.21 1561.93 Q1354.85 1554.71 1354.85 1547.58 Q1354.85 1540.48 1357.21 1533.29 Q1359.56 1526.09 1364.37 1518.58 L1369.46 1518.58 Z" fill="#000000" fill-rule="nonzero" fill-opacity="1" /><path clip-path="url(#clip840)" d="M1397.03 1550.12 Q1389.93 1550.12 1387.19 1551.75 Q1384.45 1553.37 1384.45 1557.29 Q1384.45 1560.4 1386.49 1562.25 Q1388.56 1564.07 1392.09 1564.07 Q1396.96 1564.07 1399.89 1560.63 Q1402.85 1557.16 1402.85 1551.43 L1402.85 1550.12 L1397.03 1550.12 M1408.71 1547.71 L1408.71 1568.04 L1402.85 1568.04 L1402.85 1562.63 Q1400.85 1565.88 1397.85 1567.44 Q1394.86 1568.97 1390.53 1568.97 Q1385.06 1568.97 1381.81 1565.91 Q1378.6 1562.82 1378.6 1557.67 Q1378.6 1551.65 1382.61 1548.6 Q1386.65 1545.54 1394.64 1545.54 L1402.85 1545.54 L1402.85 1544.97 Q1402.85 1540.93 1400.18 1538.73 Q1397.54 1536.5 1392.73 1536.5 Q1389.67 1536.5 1386.78 1537.23 Q1383.88 1537.97 1381.21 1539.43 L1381.21 1534.02 Q1384.42 1532.78 1387.45 1532.17 Q1390.47 1531.54 1393.33 1531.54 Q1401.07 1531.54 1404.89 1535.55 Q1408.71 1539.56 1408.71 1547.71 M1398.43 1519.54 Q1398.43 1517.53 1397.03 1516.13 Q1395.63 1514.73 1393.59 1514.73 Q1391.52 1514.73 1390.12 1516.13 Q1388.75 1517.5 1388.75 1519.54 Q1388.75 1521.61 1390.12 1523.01 Q1391.52 1524.38 1393.59 1524.38 Q1395.63 1524.38 1397.03 1522.97 Q1398.43 1521.57 1398.43 1519.54 M1402.31 1519.54 Q1402.31 1523.2 1399.76 1525.74 Q1397.25 1528.29 1393.59 1528.29 Q1389.93 1528.29 1387.38 1525.74 Q1384.87 1523.2 1384.87 1519.54 Q1384.87 1515.88 1387.38 1513.36 Q1389.93 1510.82 1393.59 1510.82 Q1397.25 1510.82 1399.76 1513.36 Q1402.31 1515.88 1402.31 1519.54 Z" fill="#000000" fill-rule="nonzero" fill-opacity="1" /><path clip-path="url(#clip840)" d="M1441.43 1537.87 Q1440.44 1537.3 1439.26 1537.04 Q1438.12 1536.76 1436.72 1536.76 Q1431.75 1536.76 1429.08 1540 Q1426.44 1543.22 1426.44 1549.27 L1426.44 1568.04 L1420.55 1568.04 L1420.55 1532.4 L1426.44 1532.4 L1426.44 1537.93 Q1428.28 1534.69 1431.24 1533.13 Q1434.2 1531.54 1438.44 1531.54 Q1439.04 1531.54 1439.77 1531.63 Q1440.5 1531.7 1441.4 1531.85 L1441.43 1537.87 Z" fill="#000000" fill-rule="nonzero" fill-opacity="1" /><path clip-path="url(#clip840)" d="M1446.65 1518.58 L1451.74 1518.58 Q1456.51 1526.09 1458.87 1533.29 Q1461.26 1540.48 1461.26 1547.58 Q1461.26 1554.71 1458.87 1561.93 Q1456.51 1569.16 1451.74 1576.64 L1446.65 1576.64 Q1450.88 1569.35 1452.95 1562.16 Q1455.05 1554.93 1455.05 1547.58 Q1455.05 1540.23 1452.95 1533.06 Q1450.88 1525.9 1446.65 1518.58 Z" fill="#000000" fill-rule="nonzero" fill-opacity="1" /><polyline clip-path="url(#clip842)" style="stroke:#000000; stroke-linecap:round; stroke-linejoin:round; stroke-width:2; stroke-opacity:0.1; fill:none" points="339.542,1419.23 2352.76,1419.23 "/>
<polyline clip-path="url(#clip842)" style="stroke:#000000; stroke-linecap:round; stroke-linejoin:round; stroke-width:2; stroke-opacity:0.1; fill:none" points="339.542,1090.84 2352.76,1090.84 "/>
<polyline clip-path="url(#clip842)" style="stroke:#000000; stroke-linecap:round; stroke-linejoin:round; stroke-width:2; stroke-opacity:0.1; fill:none" points="339.542,762.45 2352.76,762.45 "/>
<polyline clip-path="url(#clip842)" style="stroke:#000000; stroke-linecap:round; stroke-linejoin:round; stroke-width:2; stroke-opacity:0.1; fill:none" points="339.542,434.057 2352.76,434.057 "/>
<polyline clip-path="url(#clip840)" style="stroke:#000000; stroke-linecap:round; stroke-linejoin:round; stroke-width:4; stroke-opacity:1; fill:none" points="339.542,1423.18 339.542,123.472 "/>
<polyline clip-path="url(#clip840)" style="stroke:#000000; stroke-linecap:round; stroke-linejoin:round; stroke-width:4; stroke-opacity:1; fill:none" points="339.542,1419.23 358.439,1419.23 "/>
<polyline clip-path="url(#clip840)" style="stroke:#000000; stroke-linecap:round; stroke-linejoin:round; stroke-width:4; stroke-opacity:1; fill:none" points="339.542,1090.84 358.439,1090.84 "/>
<polyline clip-path="url(#clip840)" style="stroke:#000000; stroke-linecap:round; stroke-linejoin:round; stroke-width:4; stroke-opacity:1; fill:none" points="339.542,762.45 358.439,762.45 "/>
<polyline clip-path="url(#clip840)" style="stroke:#000000; stroke-linecap:round; stroke-linejoin:round; stroke-width:4; stroke-opacity:1; fill:none" points="339.542,434.057 358.439,434.057 "/>
<path clip-path="url(#clip840)" d="M291.597 1405.03 Q287.986 1405.03 286.157 1408.6 Q284.352 1412.14 284.352 1419.27 Q284.352 1426.38 286.157 1429.94 Q287.986 1433.48 291.597 1433.48 Q295.231 1433.48 297.037 1429.94 Q298.866 1426.38 298.866 1419.27 Q298.866 1412.14 297.037 1408.6 Q295.231 1405.03 291.597 1405.03 M291.597 1401.33 Q297.407 1401.33 300.463 1405.94 Q303.542 1410.52 303.542 1419.27 Q303.542 1428 300.463 1432.6 Q297.407 1437.19 291.597 1437.19 Q285.787 1437.19 282.708 1432.6 Q279.653 1428 279.653 1419.27 Q279.653 1410.52 282.708 1405.94 Q285.787 1401.33 291.597 1401.33 Z" fill="#000000" fill-rule="nonzero" fill-opacity="1" /><path clip-path="url(#clip840)" d="M116.668 1110.63 L124.306 1110.63 L124.306 1084.27 L115.996 1085.94 L115.996 1081.68 L124.26 1080.01 L128.936 1080.01 L128.936 1110.63 L136.575 1110.63 L136.575 1114.57 L116.668 1114.57 L116.668 1110.63 Z" fill="#000000" fill-rule="nonzero" fill-opacity="1" /><path clip-path="url(#clip840)" d="M146.019 1108.69 L150.903 1108.69 L150.903 1114.57 L146.019 1114.57 L146.019 1108.69 Z" fill="#000000" fill-rule="nonzero" fill-opacity="1" /><path clip-path="url(#clip840)" d="M171.089 1083.09 Q167.477 1083.09 165.649 1086.65 Q163.843 1090.2 163.843 1097.32 Q163.843 1104.43 165.649 1108 Q167.477 1111.54 171.089 1111.54 Q174.723 1111.54 176.528 1108 Q178.357 1104.43 178.357 1097.32 Q178.357 1090.2 176.528 1086.65 Q174.723 1083.09 171.089 1083.09 M171.089 1079.38 Q176.899 1079.38 179.954 1083.99 Q183.033 1088.57 183.033 1097.32 Q183.033 1106.05 179.954 1110.66 Q176.899 1115.24 171.089 1115.24 Q165.278 1115.24 162.2 1110.66 Q159.144 1106.05 159.144 1097.32 Q159.144 1088.57 162.2 1083.99 Q165.278 1079.38 171.089 1079.38 Z" fill="#000000" fill-rule="nonzero" fill-opacity="1" /><path clip-path="url(#clip840)" d="M219.422 1089.11 L208.843 1099.73 L219.422 1110.31 L216.667 1113.11 L206.042 1102.49 L195.417 1113.11 L192.686 1110.31 L203.241 1099.73 L192.686 1089.11 L195.417 1086.31 L206.042 1096.93 L216.667 1086.31 L219.422 1089.11 Z" fill="#000000" fill-rule="nonzero" fill-opacity="1" /><path clip-path="url(#clip840)" d="M231.783 1110.63 L239.422 1110.63 L239.422 1084.27 L231.111 1085.94 L231.111 1081.68 L239.375 1080.01 L244.051 1080.01 L244.051 1110.63 L251.69 1110.63 L251.69 1114.57 L231.783 1114.57 L231.783 1110.63 Z" fill="#000000" fill-rule="nonzero" fill-opacity="1" /><path clip-path="url(#clip840)" d="M271.134 1083.09 Q267.523 1083.09 265.695 1086.65 Q263.889 1090.2 263.889 1097.32 Q263.889 1104.43 265.695 1108 Q267.523 1111.54 271.134 1111.54 Q274.769 1111.54 276.574 1108 Q278.403 1104.43 278.403 1097.32 Q278.403 1090.2 276.574 1086.65 Q274.769 1083.09 271.134 1083.09 M271.134 1079.38 Q276.944 1079.38 280 1083.99 Q283.079 1088.57 283.079 1097.32 Q283.079 1106.05 280 1110.66 Q276.944 1115.24 271.134 1115.24 Q265.324 1115.24 262.245 1110.66 Q259.19 1106.05 259.19 1097.32 Q259.19 1088.57 262.245 1083.99 Q265.324 1079.38 271.134 1079.38 Z" fill="#000000" fill-rule="nonzero" fill-opacity="1" /><path clip-path="url(#clip840)" d="M295.755 1062.39 L286.163 1077.38 L295.755 1077.38 L295.755 1062.39 M294.758 1059.08 L299.535 1059.08 L299.535 1077.38 L303.542 1077.38 L303.542 1080.54 L299.535 1080.54 L299.535 1087.16 L295.755 1087.16 L295.755 1080.54 L283.079 1080.54 L283.079 1076.87 L294.758 1059.08 Z" fill="#000000" fill-rule="nonzero" fill-opacity="1" /><path clip-path="url(#clip840)" d="M119.885 782.242 L136.204 782.242 L136.204 786.177 L114.26 786.177 L114.26 782.242 Q116.922 779.487 121.505 774.858 Q126.112 770.205 127.292 768.862 Q129.538 766.339 130.417 764.603 Q131.32 762.844 131.32 761.154 Q131.32 758.4 129.376 756.663 Q127.455 754.927 124.353 754.927 Q122.154 754.927 119.7 755.691 Q117.269 756.455 114.492 758.006 L114.492 753.284 Q117.316 752.15 119.769 751.571 Q122.223 750.992 124.26 750.992 Q129.63 750.992 132.825 753.677 Q136.019 756.363 136.019 760.853 Q136.019 762.983 135.209 764.904 Q134.422 766.802 132.316 769.395 Q131.737 770.066 128.635 773.284 Q125.533 776.478 119.885 782.242 Z" fill="#000000" fill-rule="nonzero" fill-opacity="1" /><path clip-path="url(#clip840)" d="M146.019 780.298 L150.903 780.298 L150.903 786.177 L146.019 786.177 L146.019 780.298 Z" fill="#000000" fill-rule="nonzero" fill-opacity="1" /><path clip-path="url(#clip840)" d="M171.089 754.696 Q167.477 754.696 165.649 758.261 Q163.843 761.802 163.843 768.932 Q163.843 776.038 165.649 779.603 Q167.477 783.145 171.089 783.145 Q174.723 783.145 176.528 779.603 Q178.357 776.038 178.357 768.932 Q178.357 761.802 176.528 758.261 Q174.723 754.696 171.089 754.696 M171.089 750.992 Q176.899 750.992 179.954 755.599 Q183.033 760.182 183.033 768.932 Q183.033 777.659 179.954 782.265 Q176.899 786.849 171.089 786.849 Q165.278 786.849 162.2 782.265 Q159.144 777.659 159.144 768.932 Q159.144 760.182 162.2 755.599 Q165.278 750.992 171.089 750.992 Z" fill="#000000" fill-rule="nonzero" fill-opacity="1" /><path clip-path="url(#clip840)" d="M219.422 760.714 L208.843 771.339 L219.422 781.918 L216.667 784.719 L206.042 774.094 L195.417 784.719 L192.686 781.918 L203.241 771.339 L192.686 760.714 L195.417 757.913 L206.042 768.538 L216.667 757.913 L219.422 760.714 Z" fill="#000000" fill-rule="nonzero" fill-opacity="1" /><path clip-path="url(#clip840)" d="M231.783 782.242 L239.422 782.242 L239.422 755.876 L231.111 757.543 L231.111 753.284 L239.375 751.617 L244.051 751.617 L244.051 782.242 L251.69 782.242 L251.69 786.177 L231.783 786.177 L231.783 782.242 Z" fill="#000000" fill-rule="nonzero" fill-opacity="1" /><path clip-path="url(#clip840)" d="M271.134 754.696 Q267.523 754.696 265.695 758.261 Q263.889 761.802 263.889 768.932 Q263.889 776.038 265.695 779.603 Q267.523 783.145 271.134 783.145 Q274.769 783.145 276.574 779.603 Q278.403 776.038 278.403 768.932 Q278.403 761.802 276.574 758.261 Q274.769 754.696 271.134 754.696 M271.134 750.992 Q276.944 750.992 280 755.599 Q283.079 760.182 283.079 768.932 Q283.079 777.659 280 782.265 Q276.944 786.849 271.134 786.849 Q265.324 786.849 262.245 782.265 Q259.19 777.659 259.19 768.932 Q259.19 760.182 262.245 755.599 Q265.324 750.992 271.134 750.992 Z" fill="#000000" fill-rule="nonzero" fill-opacity="1" /><path clip-path="url(#clip840)" d="M295.755 733.997 L286.163 748.987 L295.755 748.987 L295.755 733.997 M294.758 730.687 L299.535 730.687 L299.535 748.987 L303.542 748.987 L303.542 752.146 L299.535 752.146 L299.535 758.767 L295.755 758.767 L295.755 752.146 L283.079 752.146 L283.079 748.479 L294.758 730.687 Z" fill="#000000" fill-rule="nonzero" fill-opacity="1" /><path clip-path="url(#clip840)" d="M130.024 439.15 Q133.38 439.868 135.255 442.136 Q137.154 444.405 137.154 447.738 Q137.154 452.854 133.635 455.655 Q130.117 458.456 123.635 458.456 Q121.459 458.456 119.144 458.016 Q116.853 457.599 114.399 456.743 L114.399 452.229 Q116.343 453.363 118.658 453.942 Q120.973 454.521 123.496 454.521 Q127.894 454.521 130.186 452.785 Q132.501 451.048 132.501 447.738 Q132.501 444.683 130.348 442.97 Q128.218 441.234 124.399 441.234 L120.371 441.234 L120.371 437.391 L124.584 437.391 Q128.033 437.391 129.862 436.025 Q131.691 434.637 131.691 432.044 Q131.691 429.382 129.792 427.97 Q127.917 426.535 124.399 426.535 Q122.478 426.535 120.279 426.951 Q118.08 427.368 115.441 428.248 L115.441 424.081 Q118.103 423.34 120.418 422.97 Q122.755 422.6 124.816 422.6 Q130.14 422.6 133.242 425.03 Q136.343 427.438 136.343 431.558 Q136.343 434.428 134.7 436.419 Q133.056 438.387 130.024 439.15 Z" fill="#000000" fill-rule="nonzero" fill-opacity="1" /><path clip-path="url(#clip840)" d="M146.019 451.905 L150.903 451.905 L150.903 457.785 L146.019 457.785 L146.019 451.905 Z" fill="#000000" fill-rule="nonzero" fill-opacity="1" /><path clip-path="url(#clip840)" d="M171.089 426.303 Q167.477 426.303 165.649 429.868 Q163.843 433.41 163.843 440.539 Q163.843 447.646 165.649 451.211 Q167.477 454.752 171.089 454.752 Q174.723 454.752 176.528 451.211 Q178.357 447.646 178.357 440.539 Q178.357 433.41 176.528 429.868 Q174.723 426.303 171.089 426.303 M171.089 422.6 Q176.899 422.6 179.954 427.206 Q183.033 431.789 183.033 440.539 Q183.033 449.266 179.954 453.873 Q176.899 458.456 171.089 458.456 Q165.278 458.456 162.2 453.873 Q159.144 449.266 159.144 440.539 Q159.144 431.789 162.2 427.206 Q165.278 422.6 171.089 422.6 Z" fill="#000000" fill-rule="nonzero" fill-opacity="1" /><path clip-path="url(#clip840)" d="M219.422 432.322 L208.843 442.947 L219.422 453.525 L216.667 456.326 L206.042 445.701 L195.417 456.326 L192.686 453.525 L203.241 442.947 L192.686 432.322 L195.417 429.521 L206.042 440.146 L216.667 429.521 L219.422 432.322 Z" fill="#000000" fill-rule="nonzero" fill-opacity="1" /><path clip-path="url(#clip840)" d="M231.783 453.849 L239.422 453.849 L239.422 427.484 L231.111 429.15 L231.111 424.891 L239.375 423.225 L244.051 423.225 L244.051 453.849 L251.69 453.849 L251.69 457.785 L231.783 457.785 L231.783 453.849 Z" fill="#000000" fill-rule="nonzero" fill-opacity="1" /><path clip-path="url(#clip840)" d="M271.134 426.303 Q267.523 426.303 265.695 429.868 Q263.889 433.41 263.889 440.539 Q263.889 447.646 265.695 451.211 Q267.523 454.752 271.134 454.752 Q274.769 454.752 276.574 451.211 Q278.403 447.646 278.403 440.539 Q278.403 433.41 276.574 429.868 Q274.769 426.303 271.134 426.303 M271.134 422.6 Q276.944 422.6 280 427.206 Q283.079 431.789 283.079 440.539 Q283.079 449.266 280 453.873 Q276.944 458.456 271.134 458.456 Q265.324 458.456 262.245 453.873 Q259.19 449.266 259.19 440.539 Q259.19 431.789 262.245 427.206 Q265.324 422.6 271.134 422.6 Z" fill="#000000" fill-rule="nonzero" fill-opacity="1" /><path clip-path="url(#clip840)" d="M295.755 405.604 L286.163 420.594 L295.755 420.594 L295.755 405.604 M294.758 402.294 L299.535 402.294 L299.535 420.594 L303.542 420.594 L303.542 423.754 L299.535 423.754 L299.535 430.374 L295.755 430.374 L295.755 423.754 L283.079 423.754 L283.079 420.086 L294.758 402.294 Z" fill="#000000" fill-rule="nonzero" fill-opacity="1" /><path clip-path="url(#clip840)" d="M41.3104 854.011 L58.7206 854.011 L58.7206 843.699 Q58.7206 838.511 56.5881 836.028 Q54.4238 833.514 49.9996 833.514 Q45.5436 833.514 43.4429 836.028 Q41.3104 838.511 41.3104 843.699 L41.3104 854.011 M21.7677 854.011 L36.0905 854.011 L36.0905 844.495 Q36.0905 839.784 34.34 837.492 Q32.5576 835.169 28.9291 835.169 Q25.3325 835.169 23.5501 837.492 Q21.7677 839.784 21.7677 844.495 L21.7677 854.011 M16.4842 860.441 L16.4842 844.017 Q16.4842 836.665 19.5397 832.686 Q22.5952 828.708 28.2289 828.708 Q32.5894 828.708 35.1675 830.745 Q37.7456 832.782 38.3822 836.728 Q39.4007 831.986 42.6472 829.376 Q45.8619 826.734 50.6998 826.734 Q57.0655 826.734 60.5348 831.063 Q64.0042 835.392 64.0042 843.381 L64.0042 860.441 L16.4842 860.441 Z" fill="#000000" fill-rule="nonzero" fill-opacity="1" /><path clip-path="url(#clip840)" d="M44.7161 785.484 L47.5806 785.484 L47.5806 812.411 Q53.6281 812.029 56.8109 808.783 Q59.9619 805.505 59.9619 799.68 Q59.9619 796.306 59.1344 793.155 Q58.3069 789.972 56.6518 786.853 L62.1899 786.853 Q63.5267 790.004 64.227 793.314 Q64.9272 796.624 64.9272 800.03 Q64.9272 808.56 59.9619 813.557 Q54.9967 818.523 46.5303 818.523 Q37.7774 818.523 32.6531 813.812 Q27.4968 809.069 27.4968 801.049 Q27.4968 793.855 32.1438 789.686 Q36.7589 785.484 44.7161 785.484 M42.9973 791.341 Q38.1912 791.405 35.3266 794.046 Q32.4621 796.656 32.4621 800.985 Q32.4621 805.887 35.2312 808.847 Q38.0002 811.775 43.0292 812.22 L42.9973 791.341 Z" fill="#000000" fill-rule="nonzero" fill-opacity="1" /><path clip-path="url(#clip840)" d="M14.479 775.872 L14.479 770.016 L64.0042 770.016 L64.0042 775.872 L14.479 775.872 Z" fill="#000000" fill-rule="nonzero" fill-opacity="1" /><path clip-path="url(#clip840)" d="M38.5095 735.1 L57.352 750.6 Q58.6888 749.295 59.3254 747.672 Q59.9619 746.017 59.9619 743.948 Q59.9619 739.269 56.2698 736.532 Q52.5777 733.795 46.212 733.795 Q43.6976 733.795 41.8515 734.113 Q39.9736 734.432 38.5095 735.1 M35.072 737.36 Q33.7671 738.697 33.1305 740.352 Q32.4621 741.975 32.4621 743.948 Q32.4621 748.754 36.2178 751.46 Q39.9418 754.133 46.6576 754.133 Q48.9493 754.133 50.6998 753.847 Q52.4504 753.529 53.9145 752.892 L35.072 737.36 M58.7206 756.871 Q56.2698 758.589 53.1506 759.449 Q49.9996 760.308 46.212 760.308 Q37.4273 760.308 32.4621 755.979 Q27.4968 751.619 27.4968 743.948 Q27.4968 740.988 28.3244 738.474 Q29.1201 735.927 30.7752 733.795 L25.428 729.371 L27.9424 726.347 L33.6397 730.994 Q36.0905 729.307 39.2416 728.448 Q42.3926 727.588 46.212 727.588 Q54.9649 727.588 59.9619 731.949 Q64.9272 736.309 64.9272 743.948 Q64.9272 747.004 64.0996 749.582 Q63.2721 752.128 61.6488 754.133 L66.996 758.558 L64.5134 761.613 L58.7206 756.871 Z" fill="#000000" fill-rule="nonzero" fill-opacity="1" /><path clip-path="url(#clip840)" d="M58.657 712.215 L77.5631 712.215 L77.5631 718.103 L28.3562 718.103 L28.3562 712.215 L33.7671 712.215 Q30.5842 710.369 29.0564 707.568 Q27.4968 704.735 27.4968 700.821 Q27.4968 694.328 32.6531 690.285 Q37.8093 686.211 46.212 686.211 Q54.6147 686.211 59.771 690.285 Q64.9272 694.328 64.9272 700.821 Q64.9272 704.735 63.3994 707.568 Q61.8398 710.369 58.657 712.215 M46.212 692.291 Q39.7508 692.291 36.0905 694.964 Q32.3984 697.606 32.3984 702.253 Q32.3984 706.9 36.0905 709.573 Q39.7508 712.215 46.212 712.215 Q52.6732 712.215 56.3653 709.573 Q60.0256 706.9 60.0256 702.253 Q60.0256 697.606 56.3653 694.964 Q52.6732 692.291 46.212 692.291 Z" fill="#000000" fill-rule="nonzero" fill-opacity="1" /><path clip-path="url(#clip840)" d="M769.421 12.096 L807.662 12.096 L807.662 18.9825 L777.604 18.9825 L777.604 36.8875 L806.406 36.8875 L806.406 43.7741 L777.604 43.7741 L777.604 65.6895 L808.391 65.6895 L808.391 72.576 L769.421 72.576 L769.421 12.096 Z" fill="#000000" fill-rule="nonzero" fill-opacity="1" /><path clip-path="url(#clip840)" d="M821.233 9.54393 L828.727 9.54393 L828.727 46.7717 L850.966 27.2059 L860.486 27.2059 L836.423 48.4326 L861.499 72.576 L851.776 72.576 L828.727 50.4176 L828.727 72.576 L821.233 72.576 L821.233 9.54393 Z" fill="#000000" fill-rule="nonzero" fill-opacity="1" /><path clip-path="url(#clip840)" d="M898.483 28.5427 L898.483 35.5912 Q895.324 33.9709 891.921 33.1607 Q888.518 32.3505 884.872 32.3505 Q879.323 32.3505 876.527 34.0519 Q873.773 35.7533 873.773 39.156 Q873.773 41.7486 875.758 43.2475 Q877.743 44.7058 883.738 46.0426 L886.29 46.6097 Q894.23 48.3111 897.552 51.4303 Q900.914 54.509 900.914 60.0587 Q900.914 66.3781 895.891 70.0644 Q890.908 73.7508 882.158 73.7508 Q878.512 73.7508 874.542 73.0216 Q870.613 72.3329 866.238 70.9151 L866.238 63.2184 Q870.37 65.3654 874.38 66.4591 Q878.391 67.5124 882.32 67.5124 Q887.586 67.5124 890.422 65.73 Q893.258 63.9071 893.258 60.6258 Q893.258 57.5877 891.192 55.9673 Q889.166 54.3469 882.239 52.8481 L879.647 52.2405 Q872.72 50.7821 869.641 47.7845 Q866.562 44.7463 866.562 39.4801 Q866.562 33.0797 871.099 29.5959 Q875.636 26.1121 883.981 26.1121 Q888.113 26.1121 891.759 26.7198 Q895.405 27.3274 898.483 28.5427 Z" fill="#000000" fill-rule="nonzero" fill-opacity="1" /><path clip-path="url(#clip840)" d="M919.994 65.7705 L919.994 89.8329 L912.499 89.8329 L912.499 27.2059 L919.994 27.2059 L919.994 34.0924 Q922.343 30.0415 925.908 28.0971 Q929.513 26.1121 934.496 26.1121 Q942.76 26.1121 947.904 32.6746 Q953.089 39.2371 953.089 49.9314 Q953.089 60.6258 947.904 67.1883 Q942.76 73.7508 934.496 73.7508 Q929.513 73.7508 925.908 71.8063 Q922.343 69.8214 919.994 65.7705 M945.352 49.9314 Q945.352 41.7081 941.95 37.0496 Q938.587 32.3505 932.673 32.3505 Q926.759 32.3505 923.356 37.0496 Q919.994 41.7081 919.994 49.9314 Q919.994 58.1548 923.356 62.8538 Q926.759 67.5124 932.673 67.5124 Q938.587 67.5124 941.95 62.8538 Q945.352 58.1548 945.352 49.9314 Z" fill="#000000" fill-rule="nonzero" fill-opacity="1" /><path clip-path="url(#clip840)" d="M983.026 32.4315 Q977.03 32.4315 973.547 37.1306 Q970.063 41.7891 970.063 49.9314 Q970.063 58.0738 973.506 62.7728 Q976.99 67.4314 983.026 67.4314 Q988.981 67.4314 992.464 62.7323 Q995.948 58.0333 995.948 49.9314 Q995.948 41.8701 992.464 37.1711 Q988.981 32.4315 983.026 32.4315 M983.026 26.1121 Q992.748 26.1121 998.298 32.4315 Q1003.85 38.7509 1003.85 49.9314 Q1003.85 61.0714 998.298 67.4314 Q992.748 73.7508 983.026 73.7508 Q973.263 73.7508 967.713 67.4314 Q962.204 61.0714 962.204 49.9314 Q962.204 38.7509 967.713 32.4315 Q973.263 26.1121 983.026 26.1121 Z" fill="#000000" fill-rule="nonzero" fill-opacity="1" /><path clip-path="url(#clip840)" d="M1053.92 45.1919 L1053.92 72.576 L1046.46 72.576 L1046.46 45.4349 Q1046.46 38.994 1043.95 35.7938 Q1041.44 32.5936 1036.42 32.5936 Q1030.38 32.5936 1026.9 36.4419 Q1023.41 40.2903 1023.41 46.9338 L1023.41 72.576 L1015.92 72.576 L1015.92 27.2059 L1023.41 27.2059 L1023.41 34.2544 Q1026.09 30.163 1029.69 28.1376 Q1033.34 26.1121 1038.08 26.1121 Q1045.9 26.1121 1049.91 30.9732 Q1053.92 35.7938 1053.92 45.1919 Z" fill="#000000" fill-rule="nonzero" fill-opacity="1" /><path clip-path="url(#clip840)" d="M1107.59 48.0275 L1107.59 51.6733 L1073.32 51.6733 Q1073.81 59.3701 1077.94 63.421 Q1082.11 67.4314 1089.52 67.4314 Q1093.82 67.4314 1097.83 66.3781 Q1101.88 65.3249 1105.85 63.2184 L1105.85 70.267 Q1101.84 71.9684 1097.63 72.8596 Q1093.41 73.7508 1089.08 73.7508 Q1078.22 73.7508 1071.86 67.4314 Q1065.54 61.1119 1065.54 50.3365 Q1065.54 39.1965 1071.54 32.6746 Q1077.57 26.1121 1087.78 26.1121 Q1096.94 26.1121 1102.24 32.0264 Q1107.59 37.9003 1107.59 48.0275 M1100.14 45.84 Q1100.06 39.7232 1096.69 36.0774 Q1093.37 32.4315 1087.86 32.4315 Q1081.62 32.4315 1077.86 35.9558 Q1074.13 39.4801 1073.56 45.8805 L1100.14 45.84 Z" fill="#000000" fill-rule="nonzero" fill-opacity="1" /><path clip-path="url(#clip840)" d="M1157.54 45.1919 L1157.54 72.576 L1150.08 72.576 L1150.08 45.4349 Q1150.08 38.994 1147.57 35.7938 Q1145.06 32.5936 1140.04 32.5936 Q1134 32.5936 1130.52 36.4419 Q1127.04 40.2903 1127.04 46.9338 L1127.04 72.576 L1119.54 72.576 L1119.54 27.2059 L1127.04 27.2059 L1127.04 34.2544 Q1129.71 30.163 1133.31 28.1376 Q1136.96 26.1121 1141.7 26.1121 Q1149.52 26.1121 1153.53 30.9732 Q1157.54 35.7938 1157.54 45.1919 Z" fill="#000000" fill-rule="nonzero" fill-opacity="1" /><path clip-path="url(#clip840)" d="M1179.78 14.324 L1179.78 27.2059 L1195.13 27.2059 L1195.13 32.9987 L1179.78 32.9987 L1179.78 57.6282 Q1179.78 63.1779 1181.28 64.7578 Q1182.82 66.3376 1187.47 66.3376 L1195.13 66.3376 L1195.13 72.576 L1187.47 72.576 Q1178.85 72.576 1175.57 69.3758 Q1172.28 66.1351 1172.28 57.6282 L1172.28 32.9987 L1166.82 32.9987 L1166.82 27.2059 L1172.28 27.2059 L1172.28 14.324 L1179.78 14.324 Z" fill="#000000" fill-rule="nonzero" fill-opacity="1" /><path clip-path="url(#clip840)" d="M1204.93 27.2059 L1212.39 27.2059 L1212.39 72.576 L1204.93 72.576 L1204.93 27.2059 M1204.93 9.54393 L1212.39 9.54393 L1212.39 18.9825 L1204.93 18.9825 L1204.93 9.54393 Z" fill="#000000" fill-rule="nonzero" fill-opacity="1" /><path clip-path="url(#clip840)" d="M1266.79 48.0275 L1266.79 51.6733 L1232.52 51.6733 Q1233.01 59.3701 1237.14 63.421 Q1241.31 67.4314 1248.72 67.4314 Q1253.02 67.4314 1257.03 66.3781 Q1261.08 65.3249 1265.05 63.2184 L1265.05 70.267 Q1261.04 71.9684 1256.83 72.8596 Q1252.61 73.7508 1248.28 73.7508 Q1237.42 73.7508 1231.06 67.4314 Q1224.74 61.1119 1224.74 50.3365 Q1224.74 39.1965 1230.74 32.6746 Q1236.77 26.1121 1246.98 26.1121 Q1256.14 26.1121 1261.44 32.0264 Q1266.79 37.9003 1266.79 48.0275 M1259.34 45.84 Q1259.26 39.7232 1255.89 36.0774 Q1252.57 32.4315 1247.06 32.4315 Q1240.83 32.4315 1237.06 35.9558 Q1233.33 39.4801 1232.76 45.8805 L1259.34 45.84 Z" fill="#000000" fill-rule="nonzero" fill-opacity="1" /><path clip-path="url(#clip840)" d="M1279.03 9.54393 L1286.48 9.54393 L1286.48 72.576 L1279.03 72.576 L1279.03 9.54393 Z" fill="#000000" fill-rule="nonzero" fill-opacity="1" /><path clip-path="url(#clip840)" d="M1302.07 9.54393 L1309.53 9.54393 L1309.53 72.576 L1302.07 72.576 L1302.07 9.54393 Z" fill="#000000" fill-rule="nonzero" fill-opacity="1" /><path clip-path="url(#clip840)" d="M1367.42 72.576 L1344.33 12.096 L1352.87 12.096 L1372.03 63.0159 L1391.24 12.096 L1399.74 12.096 L1376.69 72.576 L1367.42 72.576 Z" fill="#000000" fill-rule="nonzero" fill-opacity="1" /><path clip-path="url(#clip840)" d="M1440.62 48.0275 L1440.62 51.6733 L1406.35 51.6733 Q1406.83 59.3701 1410.96 63.421 Q1415.14 67.4314 1422.55 67.4314 Q1426.84 67.4314 1430.85 66.3781 Q1434.9 65.3249 1438.87 63.2184 L1438.87 70.267 Q1434.86 71.9684 1430.65 72.8596 Q1426.44 73.7508 1422.1 73.7508 Q1411.25 73.7508 1404.89 67.4314 Q1398.57 61.1119 1398.57 50.3365 Q1398.57 39.1965 1404.56 32.6746 Q1410.6 26.1121 1420.81 26.1121 Q1429.96 26.1121 1435.27 32.0264 Q1440.62 37.9003 1440.62 48.0275 M1433.16 45.84 Q1433.08 39.7232 1429.72 36.0774 Q1426.4 32.4315 1420.89 32.4315 Q1414.65 32.4315 1410.88 35.9558 Q1407.16 39.4801 1406.59 45.8805 L1433.16 45.84 Z" fill="#000000" fill-rule="nonzero" fill-opacity="1" /><path clip-path="url(#clip840)" d="M1452.57 9.54393 L1460.06 9.54393 L1460.06 46.7717 L1482.3 27.2059 L1491.82 27.2059 L1467.76 48.4326 L1492.83 72.576 L1483.11 72.576 L1460.06 50.4176 L1460.06 72.576 L1452.57 72.576 L1452.57 9.54393 Z" fill="#000000" fill-rule="nonzero" fill-opacity="1" /><path clip-path="url(#clip840)" d="M1529.82 28.5427 L1529.82 35.5912 Q1526.66 33.9709 1523.25 33.1607 Q1519.85 32.3505 1516.21 32.3505 Q1510.66 32.3505 1507.86 34.0519 Q1505.11 35.7533 1505.11 39.156 Q1505.11 41.7486 1507.09 43.2475 Q1509.08 44.7058 1515.07 46.0426 L1517.62 46.6097 Q1525.56 48.3111 1528.89 51.4303 Q1532.25 54.509 1532.25 60.0587 Q1532.25 66.3781 1527.22 70.0644 Q1522.24 73.7508 1513.49 73.7508 Q1509.85 73.7508 1505.88 73.0216 Q1501.95 72.3329 1497.57 70.9151 L1497.57 63.2184 Q1501.7 65.3654 1505.71 66.4591 Q1509.72 67.5124 1513.65 67.5124 Q1518.92 67.5124 1521.76 65.73 Q1524.59 63.9071 1524.59 60.6258 Q1524.59 57.5877 1522.53 55.9673 Q1520.5 54.3469 1513.57 52.8481 L1510.98 52.2405 Q1504.05 50.7821 1500.97 47.7845 Q1497.9 44.7463 1497.9 39.4801 Q1497.9 33.0797 1502.43 29.5959 Q1506.97 26.1121 1515.31 26.1121 Q1519.45 26.1121 1523.09 26.7198 Q1526.74 27.3274 1529.82 28.5427 Z" fill="#000000" fill-rule="nonzero" fill-opacity="1" /><path clip-path="url(#clip840)" d="M1551.49 14.324 L1551.49 27.2059 L1566.84 27.2059 L1566.84 32.9987 L1551.49 32.9987 L1551.49 57.6282 Q1551.49 63.1779 1552.99 64.7578 Q1554.53 66.3376 1559.19 66.3376 L1566.84 66.3376 L1566.84 72.576 L1559.19 72.576 Q1550.56 72.576 1547.28 69.3758 Q1543.99 66.1351 1543.99 57.6282 L1543.99 32.9987 L1538.53 32.9987 L1538.53 27.2059 L1543.99 27.2059 L1543.99 14.324 L1551.49 14.324 Z" fill="#000000" fill-rule="nonzero" fill-opacity="1" /><path clip-path="url(#clip840)" d="M1620.6 32.4315 Q1614.6 32.4315 1611.12 37.1306 Q1607.63 41.7891 1607.63 49.9314 Q1607.63 58.0738 1611.08 62.7728 Q1614.56 67.4314 1620.6 67.4314 Q1626.55 67.4314 1630.04 62.7323 Q1633.52 58.0333 1633.52 49.9314 Q1633.52 41.8701 1630.04 37.1711 Q1626.55 32.4315 1620.6 32.4315 M1620.6 26.1121 Q1630.32 26.1121 1635.87 32.4315 Q1641.42 38.7509 1641.42 49.9314 Q1641.42 61.0714 1635.87 67.4314 Q1630.32 73.7508 1620.6 73.7508 Q1610.83 73.7508 1605.29 67.4314 Q1599.78 61.0714 1599.78 49.9314 Q1599.78 38.7509 1605.29 32.4315 Q1610.83 26.1121 1620.6 26.1121 Z" fill="#000000" fill-rule="nonzero" fill-opacity="1" /><path clip-path="url(#clip840)" d="M1648.43 27.2059 L1656.33 27.2059 L1670.5 65.2844 L1684.68 27.2059 L1692.58 27.2059 L1675.57 72.576 L1665.44 72.576 L1648.43 27.2059 Z" fill="#000000" fill-rule="nonzero" fill-opacity="1" /><path clip-path="url(#clip840)" d="M1741.68 48.0275 L1741.68 51.6733 L1707.41 51.6733 Q1707.89 59.3701 1712.03 63.421 Q1716.2 67.4314 1723.61 67.4314 Q1727.91 67.4314 1731.92 66.3781 Q1735.97 65.3249 1739.94 63.2184 L1739.94 70.267 Q1735.93 71.9684 1731.71 72.8596 Q1727.5 73.7508 1723.17 73.7508 Q1712.31 73.7508 1705.95 67.4314 Q1699.63 61.1119 1699.63 50.3365 Q1699.63 39.1965 1705.63 32.6746 Q1711.66 26.1121 1721.87 26.1121 Q1731.03 26.1121 1736.33 32.0264 Q1741.68 37.9003 1741.68 48.0275 M1734.23 45.84 Q1734.14 39.7232 1730.78 36.0774 Q1727.46 32.4315 1721.95 32.4315 Q1715.71 32.4315 1711.95 35.9558 Q1708.22 39.4801 1707.65 45.8805 L1734.23 45.84 Z" fill="#000000" fill-rule="nonzero" fill-opacity="1" /><path clip-path="url(#clip840)" d="M1780.2 34.1734 Q1778.95 33.4443 1777.45 33.1202 Q1775.99 32.7556 1774.21 32.7556 Q1767.89 32.7556 1764.49 36.8875 Q1761.12 40.9789 1761.12 48.6757 L1761.12 72.576 L1753.63 72.576 L1753.63 27.2059 L1761.12 27.2059 L1761.12 34.2544 Q1763.47 30.1225 1767.24 28.1376 Q1771.01 26.1121 1776.4 26.1121 Q1777.16 26.1121 1778.1 26.2337 Q1779.03 26.3147 1780.16 26.5172 L1780.2 34.1734 Z" fill="#000000" fill-rule="nonzero" fill-opacity="1" /><path clip-path="url(#clip840)" d="M1806.33 12.096 L1857.49 12.096 L1857.49 18.9825 L1836.02 18.9825 L1836.02 72.576 L1827.8 72.576 L1827.8 18.9825 L1806.33 18.9825 L1806.33 12.096 Z" fill="#000000" fill-rule="nonzero" fill-opacity="1" /><path clip-path="url(#clip840)" d="M1862.52 27.2059 L1869.97 27.2059 L1869.97 72.576 L1862.52 72.576 L1862.52 27.2059 M1862.52 9.54393 L1869.97 9.54393 L1869.97 18.9825 L1862.52 18.9825 L1862.52 9.54393 Z" fill="#000000" fill-rule="nonzero" fill-opacity="1" /><path clip-path="url(#clip840)" d="M1915.42 34.0924 L1915.42 9.54393 L1922.88 9.54393 L1922.88 72.576 L1915.42 72.576 L1915.42 65.7705 Q1913.07 69.8214 1909.47 71.8063 Q1905.9 73.7508 1900.88 73.7508 Q1892.66 73.7508 1887.47 67.1883 Q1882.33 60.6258 1882.33 49.9314 Q1882.33 39.2371 1887.47 32.6746 Q1892.66 26.1121 1900.88 26.1121 Q1905.9 26.1121 1909.47 28.0971 Q1913.07 30.0415 1915.42 34.0924 M1890.02 49.9314 Q1890.02 58.1548 1893.39 62.8538 Q1896.79 67.5124 1902.7 67.5124 Q1908.62 67.5124 1912.02 62.8538 Q1915.42 58.1548 1915.42 49.9314 Q1915.42 41.7081 1912.02 37.0496 Q1908.62 32.3505 1902.7 32.3505 Q1896.79 32.3505 1893.39 37.0496 Q1890.02 41.7081 1890.02 49.9314 Z" fill="#000000" fill-rule="nonzero" fill-opacity="1" /><polyline clip-path="url(#clip842)" style="stroke:#009af9; stroke-linecap:round; stroke-linejoin:round; stroke-width:4; stroke-opacity:1; fill:none" points="396.519,1386.4 491.482,1384.75 586.445,1383.03 681.408,1381.22 776.371,1379.32 871.334,1377.32 966.297,1375.23 1061.26,1373.03 1156.22,1370.72 1251.19,1368.29 1346.15,1365.74 1441.11,1363.07 1536.07,1360.26 1631.04,1357.31 1726,1354.22 1820.96,1350.96 1915.93,1347.55 2010.89,1343.97 2105.85,1340.2 2200.82,1336.25 2295.78,1332.1 "/>
<polyline clip-path="url(#clip842)" style="stroke:#e26f46; stroke-linecap:round; stroke-linejoin:round; stroke-width:4; stroke-opacity:1; fill:none" points="396.519,1386.4 491.482,1383.11 586.445,1379.5 681.408,1375.53 776.371,1371.15 871.334,1366.35 966.297,1361.06 1061.26,1355.24 1156.22,1348.84 1251.19,1341.8 1346.15,1334.06 1441.11,1325.54 1536.07,1316.17 1631.04,1305.86 1726,1294.53 1820.96,1282.06 1915.93,1268.34 2010.89,1253.25 2105.85,1236.65 2200.82,1218.39 2295.78,1198.31 "/>
<polyline clip-path="url(#clip842)" style="stroke:#3da44d; stroke-linecap:round; stroke-linejoin:round; stroke-width:4; stroke-opacity:1; fill:none" points="396.519,1386.4 491.482,1379.83 586.445,1371.95 681.408,1362.49 776.371,1351.14 871.334,1337.52 966.297,1321.18 1061.26,1301.57 1156.22,1278.03 1251.19,1249.79 1346.15,1215.9 1441.11,1175.24 1536.07,1126.44 1631.04,1067.88 1726,997.606 1820.96,913.28 1915.93,812.089 2010.89,690.659 2105.85,544.944 2200.82,370.086 2295.78,160.256 "/>
<path clip-path="url(#clip840)" d="M406.649 374.156 L1443.68 374.156 L1443.68 166.796 L406.649 166.796  Z" fill="#ffffff" fill-rule="evenodd" fill-opacity="1"/>
<polyline clip-path="url(#clip840)" style="stroke:#000000; stroke-linecap:round; stroke-linejoin:round; stroke-width:4; stroke-opacity:1; fill:none" points="406.649,374.156 1443.68,374.156 1443.68,166.796 406.649,166.796 406.649,374.156 "/>
<polyline clip-path="url(#clip840)" style="stroke:#009af9; stroke-linecap:round; stroke-linejoin:round; stroke-width:4; stroke-opacity:1; fill:none" points="429.018,218.636 563.232,218.636 "/>
<path clip-path="url(#clip840)" d="M585.601 201.356 L607.453 201.356 L607.453 205.291 L590.277 205.291 L590.277 215.522 L606.735 215.522 L606.735 219.457 L590.277 219.457 L590.277 231.981 L607.869 231.981 L607.869 235.916 L585.601 235.916 L585.601 201.356 Z" fill="#000000" fill-rule="nonzero" fill-opacity="1" /><path clip-path="url(#clip840)" d="M615.207 199.897 L619.49 199.897 L619.49 221.17 L632.198 209.99 L637.638 209.99 L623.888 222.119 L638.217 235.916 L632.661 235.916 L619.49 223.254 L619.49 235.916 L615.207 235.916 L615.207 199.897 Z" fill="#000000" fill-rule="nonzero" fill-opacity="1" /><path clip-path="url(#clip840)" d="M659.351 210.754 L659.351 214.782 Q657.545 213.856 655.601 213.393 Q653.656 212.93 651.573 212.93 Q648.402 212.93 646.804 213.902 Q645.23 214.874 645.23 216.819 Q645.23 218.3 646.365 219.157 Q647.499 219.99 650.925 220.754 L652.383 221.078 Q656.92 222.05 658.818 223.832 Q660.74 225.592 660.74 228.763 Q660.74 232.374 657.869 234.481 Q655.022 236.587 650.022 236.587 Q647.939 236.587 645.67 236.17 Q643.425 235.777 640.925 234.967 L640.925 230.569 Q643.286 231.795 645.578 232.42 Q647.869 233.022 650.115 233.022 Q653.124 233.022 654.744 232.004 Q656.365 230.962 656.365 229.087 Q656.365 227.351 655.184 226.425 Q654.027 225.499 650.068 224.643 L648.587 224.295 Q644.629 223.462 642.869 221.749 Q641.11 220.013 641.11 217.004 Q641.11 213.346 643.703 211.356 Q646.295 209.365 651.064 209.365 Q653.425 209.365 655.508 209.712 Q657.591 210.059 659.351 210.754 Z" fill="#000000" fill-rule="nonzero" fill-opacity="1" /><path clip-path="url(#clip840)" d="M671.642 232.027 L671.642 245.777 L667.36 245.777 L667.36 209.99 L671.642 209.99 L671.642 213.925 Q672.985 211.61 675.022 210.499 Q677.082 209.365 679.929 209.365 Q684.651 209.365 687.591 213.115 Q690.554 216.865 690.554 222.976 Q690.554 229.087 687.591 232.837 Q684.651 236.587 679.929 236.587 Q677.082 236.587 675.022 235.476 Q672.985 234.342 671.642 232.027 M686.133 222.976 Q686.133 218.277 684.189 215.615 Q682.267 212.93 678.888 212.93 Q675.508 212.93 673.564 215.615 Q671.642 218.277 671.642 222.976 Q671.642 227.675 673.564 230.36 Q675.508 233.022 678.888 233.022 Q682.267 233.022 684.189 230.36 Q686.133 227.675 686.133 222.976 Z" fill="#000000" fill-rule="nonzero" fill-opacity="1" /><path clip-path="url(#clip840)" d="M707.661 212.976 Q704.235 212.976 702.244 215.661 Q700.253 218.323 700.253 222.976 Q700.253 227.629 702.221 230.314 Q704.212 232.976 707.661 232.976 Q711.063 232.976 713.054 230.291 Q715.045 227.606 715.045 222.976 Q715.045 218.37 713.054 215.684 Q711.063 212.976 707.661 212.976 M707.661 209.365 Q713.216 209.365 716.387 212.976 Q719.559 216.587 719.559 222.976 Q719.559 229.342 716.387 232.976 Q713.216 236.587 707.661 236.587 Q702.082 236.587 698.911 232.976 Q695.763 229.342 695.763 222.976 Q695.763 216.587 698.911 212.976 Q702.082 209.365 707.661 209.365 Z" fill="#000000" fill-rule="nonzero" fill-opacity="1" /><path clip-path="url(#clip840)" d="M748.17 220.268 L748.17 235.916 L743.91 235.916 L743.91 220.407 Q743.91 216.726 742.475 214.897 Q741.04 213.069 738.17 213.069 Q734.721 213.069 732.73 215.268 Q730.739 217.467 730.739 221.263 L730.739 235.916 L726.457 235.916 L726.457 209.99 L730.739 209.99 L730.739 214.018 Q732.267 211.68 734.327 210.522 Q736.41 209.365 739.119 209.365 Q743.586 209.365 745.878 212.143 Q748.17 214.897 748.17 220.268 Z" fill="#000000" fill-rule="nonzero" fill-opacity="1" /><path clip-path="url(#clip840)" d="M778.841 221.888 L778.841 223.971 L759.258 223.971 Q759.535 228.369 761.896 230.684 Q764.281 232.976 768.517 232.976 Q770.97 232.976 773.262 232.374 Q775.577 231.772 777.845 230.569 L777.845 234.596 Q775.554 235.568 773.146 236.078 Q770.739 236.587 768.262 236.587 Q762.058 236.587 758.424 232.976 Q754.813 229.365 754.813 223.207 Q754.813 216.842 758.239 213.115 Q761.688 209.365 767.521 209.365 Q772.753 209.365 775.785 212.745 Q778.841 216.101 778.841 221.888 M774.582 220.638 Q774.535 217.143 772.614 215.059 Q770.716 212.976 767.568 212.976 Q764.003 212.976 761.85 214.99 Q759.721 217.004 759.396 220.661 L774.582 220.638 Z" fill="#000000" fill-rule="nonzero" fill-opacity="1" /><path clip-path="url(#clip840)" d="M807.382 220.268 L807.382 235.916 L803.123 235.916 L803.123 220.407 Q803.123 216.726 801.688 214.897 Q800.253 213.069 797.382 213.069 Q793.933 213.069 791.943 215.268 Q789.952 217.467 789.952 221.263 L789.952 235.916 L785.669 235.916 L785.669 209.99 L789.952 209.99 L789.952 214.018 Q791.48 211.68 793.54 210.522 Q795.623 209.365 798.331 209.365 Q802.799 209.365 805.091 212.143 Q807.382 214.897 807.382 220.268 Z" fill="#000000" fill-rule="nonzero" fill-opacity="1" /><path clip-path="url(#clip840)" d="M820.091 202.629 L820.091 209.99 L828.864 209.99 L828.864 213.3 L820.091 213.3 L820.091 227.374 Q820.091 230.545 820.947 231.448 Q821.827 232.351 824.489 232.351 L828.864 232.351 L828.864 235.916 L824.489 235.916 Q819.558 235.916 817.683 234.087 Q815.808 232.235 815.808 227.374 L815.808 213.3 L812.683 213.3 L812.683 209.99 L815.808 209.99 L815.808 202.629 L820.091 202.629 Z" fill="#000000" fill-rule="nonzero" fill-opacity="1" /><path clip-path="url(#clip840)" d="M834.465 209.99 L838.725 209.99 L838.725 235.916 L834.465 235.916 L834.465 209.99 M834.465 199.897 L838.725 199.897 L838.725 205.291 L834.465 205.291 L834.465 199.897 Z" fill="#000000" fill-rule="nonzero" fill-opacity="1" /><path clip-path="url(#clip840)" d="M869.813 221.888 L869.813 223.971 L850.229 223.971 Q850.507 228.369 852.868 230.684 Q855.252 232.976 859.489 232.976 Q861.942 232.976 864.234 232.374 Q866.549 231.772 868.817 230.569 L868.817 234.596 Q866.526 235.568 864.118 236.078 Q861.711 236.587 859.234 236.587 Q853.03 236.587 849.396 232.976 Q845.785 229.365 845.785 223.207 Q845.785 216.842 849.211 213.115 Q852.66 209.365 858.493 209.365 Q863.725 209.365 866.757 212.745 Q869.813 216.101 869.813 221.888 M865.553 220.638 Q865.507 217.143 863.586 215.059 Q861.688 212.976 858.539 212.976 Q854.975 212.976 852.822 214.99 Q850.692 217.004 850.368 220.661 L865.553 220.638 Z" fill="#000000" fill-rule="nonzero" fill-opacity="1" /><path clip-path="url(#clip840)" d="M876.803 199.897 L881.062 199.897 L881.062 235.916 L876.803 235.916 L876.803 199.897 Z" fill="#000000" fill-rule="nonzero" fill-opacity="1" /><path clip-path="url(#clip840)" d="M889.974 199.897 L894.234 199.897 L894.234 235.916 L889.974 235.916 L889.974 199.897 Z" fill="#000000" fill-rule="nonzero" fill-opacity="1" /><path clip-path="url(#clip840)" d="M927.312 235.916 L914.118 201.356 L919.002 201.356 L929.951 230.453 L940.923 201.356 L945.784 201.356 L932.613 235.916 L927.312 235.916 Z" fill="#000000" fill-rule="nonzero" fill-opacity="1" /><path clip-path="url(#clip840)" d="M969.141 221.888 L969.141 223.971 L949.557 223.971 Q949.835 228.369 952.196 230.684 Q954.581 232.976 958.817 232.976 Q961.27 232.976 963.562 232.374 Q965.877 231.772 968.145 230.569 L968.145 234.596 Q965.854 235.568 963.446 236.078 Q961.039 236.587 958.562 236.587 Q952.358 236.587 948.724 232.976 Q945.113 229.365 945.113 223.207 Q945.113 216.842 948.539 213.115 Q951.988 209.365 957.821 209.365 Q963.053 209.365 966.085 212.745 Q969.141 216.101 969.141 221.888 M964.881 220.638 Q964.835 217.143 962.914 215.059 Q961.016 212.976 957.868 212.976 Q954.303 212.976 952.15 214.99 Q950.02 217.004 949.696 220.661 L964.881 220.638 Z" fill="#000000" fill-rule="nonzero" fill-opacity="1" /><path clip-path="url(#clip840)" d="M975.969 199.897 L980.252 199.897 L980.252 221.17 L992.96 209.99 L998.4 209.99 L984.65 222.119 L998.978 235.916 L993.423 235.916 L980.252 223.254 L980.252 235.916 L975.969 235.916 L975.969 199.897 Z" fill="#000000" fill-rule="nonzero" fill-opacity="1" /><path clip-path="url(#clip840)" d="M1020.11 210.754 L1020.11 214.782 Q1018.31 213.856 1016.36 213.393 Q1014.42 212.93 1012.33 212.93 Q1009.16 212.93 1007.57 213.902 Q1005.99 214.874 1005.99 216.819 Q1005.99 218.3 1007.13 219.157 Q1008.26 219.99 1011.69 220.754 L1013.15 221.078 Q1017.68 222.05 1019.58 223.832 Q1021.5 225.592 1021.5 228.763 Q1021.5 232.374 1018.63 234.481 Q1015.78 236.587 1010.78 236.587 Q1008.7 236.587 1006.43 236.17 Q1004.19 235.777 1001.69 234.967 L1001.69 230.569 Q1004.05 231.795 1006.34 232.42 Q1008.63 233.022 1010.88 233.022 Q1013.89 233.022 1015.51 232.004 Q1017.13 230.962 1017.13 229.087 Q1017.13 227.351 1015.95 226.425 Q1014.79 225.499 1010.83 224.643 L1009.35 224.295 Q1005.39 223.462 1003.63 221.749 Q1001.87 220.013 1001.87 217.004 Q1001.87 213.346 1004.46 211.356 Q1007.06 209.365 1011.83 209.365 Q1014.19 209.365 1016.27 209.712 Q1018.35 210.059 1020.11 210.754 Z" fill="#000000" fill-rule="nonzero" fill-opacity="1" /><path clip-path="url(#clip840)" d="M1032.5 202.629 L1032.5 209.99 L1041.27 209.99 L1041.27 213.3 L1032.5 213.3 L1032.5 227.374 Q1032.5 230.545 1033.35 231.448 Q1034.23 232.351 1036.89 232.351 L1041.27 232.351 L1041.27 235.916 L1036.89 235.916 Q1031.96 235.916 1030.09 234.087 Q1028.21 232.235 1028.21 227.374 L1028.21 213.3 L1025.09 213.3 L1025.09 209.99 L1028.21 209.99 L1028.21 202.629 L1032.5 202.629 Z" fill="#000000" fill-rule="nonzero" fill-opacity="1" /><polyline clip-path="url(#clip840)" style="stroke:#e26f46; stroke-linecap:round; stroke-linejoin:round; stroke-width:4; stroke-opacity:1; fill:none" points="429.018,270.476 563.232,270.476 "/>
<path clip-path="url(#clip840)" d="M585.601 253.196 L607.453 253.196 L607.453 257.131 L590.277 257.131 L590.277 267.362 L606.735 267.362 L606.735 271.297 L590.277 271.297 L590.277 283.821 L607.869 283.821 L607.869 287.756 L585.601 287.756 L585.601 253.196 Z" fill="#000000" fill-rule="nonzero" fill-opacity="1" /><path clip-path="url(#clip840)" d="M615.207 251.737 L619.49 251.737 L619.49 273.01 L632.198 261.83 L637.638 261.83 L623.888 273.959 L638.217 287.756 L632.661 287.756 L619.49 275.094 L619.49 287.756 L615.207 287.756 L615.207 251.737 Z" fill="#000000" fill-rule="nonzero" fill-opacity="1" /><path clip-path="url(#clip840)" d="M659.351 262.594 L659.351 266.622 Q657.545 265.696 655.601 265.233 Q653.656 264.77 651.573 264.77 Q648.402 264.77 646.804 265.742 Q645.23 266.714 645.23 268.659 Q645.23 270.14 646.365 270.997 Q647.499 271.83 650.925 272.594 L652.383 272.918 Q656.92 273.89 658.818 275.672 Q660.74 277.432 660.74 280.603 Q660.74 284.214 657.869 286.321 Q655.022 288.427 650.022 288.427 Q647.939 288.427 645.67 288.01 Q643.425 287.617 640.925 286.807 L640.925 282.409 Q643.286 283.635 645.578 284.26 Q647.869 284.862 650.115 284.862 Q653.124 284.862 654.744 283.844 Q656.365 282.802 656.365 280.927 Q656.365 279.191 655.184 278.265 Q654.027 277.339 650.068 276.483 L648.587 276.135 Q644.629 275.302 642.869 273.589 Q641.11 271.853 641.11 268.844 Q641.11 265.186 643.703 263.196 Q646.295 261.205 651.064 261.205 Q653.425 261.205 655.508 261.552 Q657.591 261.899 659.351 262.594 Z" fill="#000000" fill-rule="nonzero" fill-opacity="1" /><path clip-path="url(#clip840)" d="M671.642 283.867 L671.642 297.617 L667.36 297.617 L667.36 261.83 L671.642 261.83 L671.642 265.765 Q672.985 263.45 675.022 262.339 Q677.082 261.205 679.929 261.205 Q684.651 261.205 687.591 264.955 Q690.554 268.705 690.554 274.816 Q690.554 280.927 687.591 284.677 Q684.651 288.427 679.929 288.427 Q677.082 288.427 675.022 287.316 Q672.985 286.182 671.642 283.867 M686.133 274.816 Q686.133 270.117 684.189 267.455 Q682.267 264.77 678.888 264.77 Q675.508 264.77 673.564 267.455 Q671.642 270.117 671.642 274.816 Q671.642 279.515 673.564 282.2 Q675.508 284.862 678.888 284.862 Q682.267 284.862 684.189 282.2 Q686.133 279.515 686.133 274.816 Z" fill="#000000" fill-rule="nonzero" fill-opacity="1" /><path clip-path="url(#clip840)" d="M707.661 264.816 Q704.235 264.816 702.244 267.501 Q700.253 270.163 700.253 274.816 Q700.253 279.469 702.221 282.154 Q704.212 284.816 707.661 284.816 Q711.063 284.816 713.054 282.131 Q715.045 279.446 715.045 274.816 Q715.045 270.21 713.054 267.524 Q711.063 264.816 707.661 264.816 M707.661 261.205 Q713.216 261.205 716.387 264.816 Q719.559 268.427 719.559 274.816 Q719.559 281.182 716.387 284.816 Q713.216 288.427 707.661 288.427 Q702.082 288.427 698.911 284.816 Q695.763 281.182 695.763 274.816 Q695.763 268.427 698.911 264.816 Q702.082 261.205 707.661 261.205 Z" fill="#000000" fill-rule="nonzero" fill-opacity="1" /><path clip-path="url(#clip840)" d="M748.17 272.108 L748.17 287.756 L743.91 287.756 L743.91 272.247 Q743.91 268.566 742.475 266.737 Q741.04 264.909 738.17 264.909 Q734.721 264.909 732.73 267.108 Q730.739 269.307 730.739 273.103 L730.739 287.756 L726.457 287.756 L726.457 261.83 L730.739 261.83 L730.739 265.858 Q732.267 263.52 734.327 262.362 Q736.41 261.205 739.119 261.205 Q743.586 261.205 745.878 263.983 Q748.17 266.737 748.17 272.108 Z" fill="#000000" fill-rule="nonzero" fill-opacity="1" /><path clip-path="url(#clip840)" d="M778.841 273.728 L778.841 275.811 L759.258 275.811 Q759.535 280.209 761.896 282.524 Q764.281 284.816 768.517 284.816 Q770.97 284.816 773.262 284.214 Q775.577 283.612 777.845 282.409 L777.845 286.436 Q775.554 287.408 773.146 287.918 Q770.739 288.427 768.262 288.427 Q762.058 288.427 758.424 284.816 Q754.813 281.205 754.813 275.047 Q754.813 268.682 758.239 264.955 Q761.688 261.205 767.521 261.205 Q772.753 261.205 775.785 264.585 Q778.841 267.941 778.841 273.728 M774.582 272.478 Q774.535 268.983 772.614 266.899 Q770.716 264.816 767.568 264.816 Q764.003 264.816 761.85 266.83 Q759.721 268.844 759.396 272.501 L774.582 272.478 Z" fill="#000000" fill-rule="nonzero" fill-opacity="1" /><path clip-path="url(#clip840)" d="M807.382 272.108 L807.382 287.756 L803.123 287.756 L803.123 272.247 Q803.123 268.566 801.688 266.737 Q800.253 264.909 797.382 264.909 Q793.933 264.909 791.943 267.108 Q789.952 269.307 789.952 273.103 L789.952 287.756 L785.669 287.756 L785.669 261.83 L789.952 261.83 L789.952 265.858 Q791.48 263.52 793.54 262.362 Q795.623 261.205 798.331 261.205 Q802.799 261.205 805.091 263.983 Q807.382 266.737 807.382 272.108 Z" fill="#000000" fill-rule="nonzero" fill-opacity="1" /><path clip-path="url(#clip840)" d="M820.091 254.469 L820.091 261.83 L828.864 261.83 L828.864 265.14 L820.091 265.14 L820.091 279.214 Q820.091 282.385 820.947 283.288 Q821.827 284.191 824.489 284.191 L828.864 284.191 L828.864 287.756 L824.489 287.756 Q819.558 287.756 817.683 285.927 Q815.808 284.075 815.808 279.214 L815.808 265.14 L812.683 265.14 L812.683 261.83 L815.808 261.83 L815.808 254.469 L820.091 254.469 Z" fill="#000000" fill-rule="nonzero" fill-opacity="1" /><path clip-path="url(#clip840)" d="M834.465 261.83 L838.725 261.83 L838.725 287.756 L834.465 287.756 L834.465 261.83 M834.465 251.737 L838.725 251.737 L838.725 257.131 L834.465 257.131 L834.465 251.737 Z" fill="#000000" fill-rule="nonzero" fill-opacity="1" /><path clip-path="url(#clip840)" d="M869.813 273.728 L869.813 275.811 L850.229 275.811 Q850.507 280.209 852.868 282.524 Q855.252 284.816 859.489 284.816 Q861.942 284.816 864.234 284.214 Q866.549 283.612 868.817 282.409 L868.817 286.436 Q866.526 287.408 864.118 287.918 Q861.711 288.427 859.234 288.427 Q853.03 288.427 849.396 284.816 Q845.785 281.205 845.785 275.047 Q845.785 268.682 849.211 264.955 Q852.66 261.205 858.493 261.205 Q863.725 261.205 866.757 264.585 Q869.813 267.941 869.813 273.728 M865.553 272.478 Q865.507 268.983 863.586 266.899 Q861.688 264.816 858.539 264.816 Q854.975 264.816 852.822 266.83 Q850.692 268.844 850.368 272.501 L865.553 272.478 Z" fill="#000000" fill-rule="nonzero" fill-opacity="1" /><path clip-path="url(#clip840)" d="M876.803 251.737 L881.062 251.737 L881.062 287.756 L876.803 287.756 L876.803 251.737 Z" fill="#000000" fill-rule="nonzero" fill-opacity="1" /><path clip-path="url(#clip840)" d="M889.974 251.737 L894.234 251.737 L894.234 287.756 L889.974 287.756 L889.974 251.737 Z" fill="#000000" fill-rule="nonzero" fill-opacity="1" /><path clip-path="url(#clip840)" d="M927.312 287.756 L914.118 253.196 L919.002 253.196 L929.951 282.293 L940.923 253.196 L945.784 253.196 L932.613 287.756 L927.312 287.756 Z" fill="#000000" fill-rule="nonzero" fill-opacity="1" /><path clip-path="url(#clip840)" d="M969.141 273.728 L969.141 275.811 L949.557 275.811 Q949.835 280.209 952.196 282.524 Q954.581 284.816 958.817 284.816 Q961.27 284.816 963.562 284.214 Q965.877 283.612 968.145 282.409 L968.145 286.436 Q965.854 287.408 963.446 287.918 Q961.039 288.427 958.562 288.427 Q952.358 288.427 948.724 284.816 Q945.113 281.205 945.113 275.047 Q945.113 268.682 948.539 264.955 Q951.988 261.205 957.821 261.205 Q963.053 261.205 966.085 264.585 Q969.141 267.941 969.141 273.728 M964.881 272.478 Q964.835 268.983 962.914 266.899 Q961.016 264.816 957.868 264.816 Q954.303 264.816 952.15 266.83 Q950.02 268.844 949.696 272.501 L964.881 272.478 Z" fill="#000000" fill-rule="nonzero" fill-opacity="1" /><path clip-path="url(#clip840)" d="M975.969 251.737 L980.252 251.737 L980.252 273.01 L992.96 261.83 L998.4 261.83 L984.65 273.959 L998.978 287.756 L993.423 287.756 L980.252 275.094 L980.252 287.756 L975.969 287.756 L975.969 251.737 Z" fill="#000000" fill-rule="nonzero" fill-opacity="1" /><path clip-path="url(#clip840)" d="M1020.11 262.594 L1020.11 266.622 Q1018.31 265.696 1016.36 265.233 Q1014.42 264.77 1012.33 264.77 Q1009.16 264.77 1007.57 265.742 Q1005.99 266.714 1005.99 268.659 Q1005.99 270.14 1007.13 270.997 Q1008.26 271.83 1011.69 272.594 L1013.15 272.918 Q1017.68 273.89 1019.58 275.672 Q1021.5 277.432 1021.5 280.603 Q1021.5 284.214 1018.63 286.321 Q1015.78 288.427 1010.78 288.427 Q1008.7 288.427 1006.43 288.01 Q1004.19 287.617 1001.69 286.807 L1001.69 282.409 Q1004.05 283.635 1006.34 284.26 Q1008.63 284.862 1010.88 284.862 Q1013.89 284.862 1015.51 283.844 Q1017.13 282.802 1017.13 280.927 Q1017.13 279.191 1015.95 278.265 Q1014.79 277.339 1010.83 276.483 L1009.35 276.135 Q1005.39 275.302 1003.63 273.589 Q1001.87 271.853 1001.87 268.844 Q1001.87 265.186 1004.46 263.196 Q1007.06 261.205 1011.83 261.205 Q1014.19 261.205 1016.27 261.552 Q1018.35 261.899 1020.11 262.594 Z" fill="#000000" fill-rule="nonzero" fill-opacity="1" /><path clip-path="url(#clip840)" d="M1032.5 254.469 L1032.5 261.83 L1041.27 261.83 L1041.27 265.14 L1032.5 265.14 L1032.5 279.214 Q1032.5 282.385 1033.35 283.288 Q1034.23 284.191 1036.89 284.191 L1041.27 284.191 L1041.27 287.756 L1036.89 287.756 Q1031.96 287.756 1030.09 285.927 Q1028.21 284.075 1028.21 279.214 L1028.21 265.14 L1025.09 265.14 L1025.09 261.83 L1028.21 261.83 L1028.21 254.469 L1032.5 254.469 Z" fill="#000000" fill-rule="nonzero" fill-opacity="1" /><path clip-path="url(#clip840)" d="M1082.13 266.807 Q1083.72 263.936 1085.95 262.571 Q1088.17 261.205 1091.18 261.205 Q1095.23 261.205 1097.43 264.052 Q1099.63 266.876 1099.63 272.108 L1099.63 287.756 L1095.34 287.756 L1095.34 272.247 Q1095.34 268.52 1094.02 266.714 Q1092.7 264.909 1090 264.909 Q1086.69 264.909 1084.77 267.108 Q1082.84 269.307 1082.84 273.103 L1082.84 287.756 L1078.56 287.756 L1078.56 272.247 Q1078.56 268.497 1077.24 266.714 Q1075.92 264.909 1073.17 264.909 Q1069.9 264.909 1067.98 267.131 Q1066.06 269.33 1066.06 273.103 L1066.06 287.756 L1061.78 287.756 L1061.78 261.83 L1066.06 261.83 L1066.06 265.858 Q1067.52 263.473 1069.56 262.339 Q1071.59 261.205 1074.39 261.205 Q1077.22 261.205 1079.19 262.64 Q1081.18 264.075 1082.13 266.807 Z" fill="#000000" fill-rule="nonzero" fill-opacity="1" /><path clip-path="url(#clip840)" d="M1130.3 273.728 L1130.3 275.811 L1110.71 275.811 Q1110.99 280.209 1113.35 282.524 Q1115.74 284.816 1119.97 284.816 Q1122.43 284.816 1124.72 284.214 Q1127.03 283.612 1129.3 282.409 L1129.3 286.436 Q1127.01 287.408 1124.6 287.918 Q1122.2 288.427 1119.72 288.427 Q1113.51 288.427 1109.88 284.816 Q1106.27 281.205 1106.27 275.047 Q1106.27 268.682 1109.7 264.955 Q1113.14 261.205 1118.98 261.205 Q1124.21 261.205 1127.24 264.585 Q1130.3 267.941 1130.3 273.728 M1126.04 272.478 Q1125.99 268.983 1124.07 266.899 Q1122.17 264.816 1119.02 264.816 Q1115.46 264.816 1113.31 266.83 Q1111.18 268.844 1110.85 272.501 L1126.04 272.478 Z" fill="#000000" fill-rule="nonzero" fill-opacity="1" /><path clip-path="url(#clip840)" d="M1154.35 265.765 L1154.35 251.737 L1158.61 251.737 L1158.61 287.756 L1154.35 287.756 L1154.35 283.867 Q1153.01 286.182 1150.95 287.316 Q1148.91 288.427 1146.04 288.427 Q1141.34 288.427 1138.38 284.677 Q1135.44 280.927 1135.44 274.816 Q1135.44 268.705 1138.38 264.955 Q1141.34 261.205 1146.04 261.205 Q1148.91 261.205 1150.95 262.339 Q1153.01 263.45 1154.35 265.765 M1139.83 274.816 Q1139.83 279.515 1141.76 282.2 Q1143.7 284.862 1147.08 284.862 Q1150.46 284.862 1152.4 282.2 Q1154.35 279.515 1154.35 274.816 Q1154.35 270.117 1152.4 267.455 Q1150.46 264.77 1147.08 264.77 Q1143.7 264.77 1141.76 267.455 Q1139.83 270.117 1139.83 274.816 Z" fill="#000000" fill-rule="nonzero" fill-opacity="1" /><path clip-path="url(#clip840)" d="M1183.86 283.821 L1191.5 283.821 L1191.5 257.455 L1183.19 259.122 L1183.19 254.862 L1191.45 253.196 L1196.13 253.196 L1196.13 283.821 L1203.77 283.821 L1203.77 287.756 L1183.86 287.756 L1183.86 283.821 Z" fill="#000000" fill-rule="nonzero" fill-opacity="1" /><path clip-path="url(#clip840)" d="M1223.21 256.274 Q1219.6 256.274 1217.77 259.839 Q1215.97 263.381 1215.97 270.51 Q1215.97 277.617 1217.77 281.182 Q1219.6 284.723 1223.21 284.723 Q1226.85 284.723 1228.65 281.182 Q1230.48 277.617 1230.48 270.51 Q1230.48 263.381 1228.65 259.839 Q1226.85 256.274 1223.21 256.274 M1223.21 252.571 Q1229.02 252.571 1232.08 257.177 Q1235.16 261.76 1235.16 270.51 Q1235.16 279.237 1232.08 283.844 Q1229.02 288.427 1223.21 288.427 Q1217.4 288.427 1214.32 283.844 Q1211.27 279.237 1211.27 270.51 Q1211.27 261.76 1214.32 257.177 Q1217.4 252.571 1223.21 252.571 Z" fill="#000000" fill-rule="nonzero" fill-opacity="1" /><path clip-path="url(#clip840)" d="M1272.77 272.547 Q1270.76 272.547 1269.6 274.26 Q1268.47 275.973 1268.47 279.029 Q1268.47 282.038 1269.6 283.774 Q1270.76 285.487 1272.77 285.487 Q1274.74 285.487 1275.88 283.774 Q1277.03 282.038 1277.03 279.029 Q1277.03 275.997 1275.88 274.284 Q1274.74 272.547 1272.77 272.547 M1272.77 269.608 Q1276.43 269.608 1278.58 272.154 Q1280.74 274.7 1280.74 279.029 Q1280.74 283.358 1278.56 285.904 Q1276.41 288.427 1272.77 288.427 Q1269.07 288.427 1266.92 285.904 Q1264.76 283.358 1264.76 279.029 Q1264.76 274.677 1266.92 272.154 Q1269.09 269.608 1272.77 269.608 M1248.88 255.511 Q1246.89 255.511 1245.74 257.247 Q1244.6 258.96 1244.6 261.969 Q1244.6 265.024 1245.74 266.737 Q1246.87 268.45 1248.88 268.45 Q1250.9 268.45 1252.03 266.737 Q1253.19 265.024 1253.19 261.969 Q1253.19 258.983 1252.03 257.247 Q1250.88 255.511 1248.88 255.511 M1269.79 252.571 L1273.49 252.571 L1251.87 288.427 L1248.17 288.427 L1269.79 252.571 M1248.88 252.571 Q1252.54 252.571 1254.72 255.117 Q1256.89 257.64 1256.89 261.969 Q1256.89 266.344 1254.72 268.867 Q1252.57 271.39 1248.88 271.39 Q1245.2 271.39 1243.05 268.867 Q1240.92 266.321 1240.92 261.969 Q1240.92 257.663 1243.07 255.117 Q1245.23 252.571 1248.88 252.571 Z" fill="#000000" fill-rule="nonzero" fill-opacity="1" /><path clip-path="url(#clip840)" d="M1317.91 265.811 Q1317.19 265.395 1316.34 265.21 Q1315.5 265.001 1314.49 265.001 Q1310.87 265.001 1308.93 267.362 Q1307.01 269.7 1307.01 274.098 L1307.01 287.756 L1302.73 287.756 L1302.73 261.83 L1307.01 261.83 L1307.01 265.858 Q1308.35 263.497 1310.5 262.362 Q1312.66 261.205 1315.74 261.205 Q1316.18 261.205 1316.71 261.274 Q1317.24 261.321 1317.89 261.436 L1317.91 265.811 Z" fill="#000000" fill-rule="nonzero" fill-opacity="1" /><path clip-path="url(#clip840)" d="M1343.51 273.728 L1343.51 275.811 L1323.93 275.811 Q1324.21 280.209 1326.57 282.524 Q1328.95 284.816 1333.19 284.816 Q1335.64 284.816 1337.94 284.214 Q1340.25 283.612 1342.52 282.409 L1342.52 286.436 Q1340.23 287.408 1337.82 287.918 Q1335.41 288.427 1332.94 288.427 Q1326.73 288.427 1323.1 284.816 Q1319.49 281.205 1319.49 275.047 Q1319.49 268.682 1322.91 264.955 Q1326.36 261.205 1332.19 261.205 Q1337.43 261.205 1340.46 264.585 Q1343.51 267.941 1343.51 273.728 M1339.25 272.478 Q1339.21 268.983 1337.29 266.899 Q1335.39 264.816 1332.24 264.816 Q1328.68 264.816 1326.52 266.83 Q1324.39 268.844 1324.07 272.501 L1339.25 272.478 Z" fill="#000000" fill-rule="nonzero" fill-opacity="1" /><path clip-path="url(#clip840)" d="M1372.06 272.108 L1372.06 287.756 L1367.8 287.756 L1367.8 272.247 Q1367.8 268.566 1366.36 266.737 Q1364.93 264.909 1362.06 264.909 Q1358.61 264.909 1356.62 267.108 Q1354.62 269.307 1354.62 273.103 L1354.62 287.756 L1350.34 287.756 L1350.34 261.83 L1354.62 261.83 L1354.62 265.858 Q1356.15 263.52 1358.21 262.362 Q1360.3 261.205 1363 261.205 Q1367.47 261.205 1369.76 263.983 Q1372.06 266.737 1372.06 272.108 Z" fill="#000000" fill-rule="nonzero" fill-opacity="1" /><path clip-path="url(#clip840)" d="M1384.76 254.469 L1384.76 261.83 L1393.54 261.83 L1393.54 265.14 L1384.76 265.14 L1384.76 279.214 Q1384.76 282.385 1385.62 283.288 Q1386.5 284.191 1389.16 284.191 L1393.54 284.191 L1393.54 287.756 L1389.16 287.756 Q1384.23 287.756 1382.36 285.927 Q1380.48 284.075 1380.48 279.214 L1380.48 265.14 L1377.36 265.14 L1377.36 261.83 L1380.48 261.83 L1380.48 254.469 L1384.76 254.469 Z" fill="#000000" fill-rule="nonzero" fill-opacity="1" /><path clip-path="url(#clip840)" d="M1421.31 273.728 L1421.31 275.811 L1401.73 275.811 Q1402.01 280.209 1404.37 282.524 Q1406.75 284.816 1410.99 284.816 Q1413.44 284.816 1415.74 284.214 Q1418.05 283.612 1420.32 282.409 L1420.32 286.436 Q1418.03 287.408 1415.62 287.918 Q1413.21 288.427 1410.74 288.427 Q1404.53 288.427 1400.9 284.816 Q1397.29 281.205 1397.29 275.047 Q1397.29 268.682 1400.71 264.955 Q1404.16 261.205 1409.99 261.205 Q1415.23 261.205 1418.26 264.585 Q1421.31 267.941 1421.31 273.728 M1417.05 272.478 Q1417.01 268.983 1415.09 266.899 Q1413.19 264.816 1410.04 264.816 Q1406.48 264.816 1404.32 266.83 Q1402.19 268.844 1401.87 272.501 L1417.05 272.478 Z" fill="#000000" fill-rule="nonzero" fill-opacity="1" /><polyline clip-path="url(#clip840)" style="stroke:#3da44d; stroke-linecap:round; stroke-linejoin:round; stroke-width:4; stroke-opacity:1; fill:none" points="429.018,322.316 563.232,322.316 "/>
<path clip-path="url(#clip840)" d="M585.601 305.036 L607.453 305.036 L607.453 308.971 L590.277 308.971 L590.277 319.202 L606.735 319.202 L606.735 323.137 L590.277 323.137 L590.277 335.661 L607.869 335.661 L607.869 339.596 L585.601 339.596 L585.601 305.036 Z" fill="#000000" fill-rule="nonzero" fill-opacity="1" /><path clip-path="url(#clip840)" d="M615.207 303.577 L619.49 303.577 L619.49 324.85 L632.198 313.67 L637.638 313.67 L623.888 325.799 L638.217 339.596 L632.661 339.596 L619.49 326.934 L619.49 339.596 L615.207 339.596 L615.207 303.577 Z" fill="#000000" fill-rule="nonzero" fill-opacity="1" /><path clip-path="url(#clip840)" d="M659.351 314.434 L659.351 318.462 Q657.545 317.536 655.601 317.073 Q653.656 316.61 651.573 316.61 Q648.402 316.61 646.804 317.582 Q645.23 318.554 645.23 320.499 Q645.23 321.98 646.365 322.837 Q647.499 323.67 650.925 324.434 L652.383 324.758 Q656.92 325.73 658.818 327.512 Q660.74 329.272 660.74 332.443 Q660.74 336.054 657.869 338.161 Q655.022 340.267 650.022 340.267 Q647.939 340.267 645.67 339.85 Q643.425 339.457 640.925 338.647 L640.925 334.249 Q643.286 335.475 645.578 336.1 Q647.869 336.702 650.115 336.702 Q653.124 336.702 654.744 335.684 Q656.365 334.642 656.365 332.767 Q656.365 331.031 655.184 330.105 Q654.027 329.179 650.068 328.323 L648.587 327.975 Q644.629 327.142 642.869 325.429 Q641.11 323.693 641.11 320.684 Q641.11 317.026 643.703 315.036 Q646.295 313.045 651.064 313.045 Q653.425 313.045 655.508 313.392 Q657.591 313.739 659.351 314.434 Z" fill="#000000" fill-rule="nonzero" fill-opacity="1" /><path clip-path="url(#clip840)" d="M671.642 335.707 L671.642 349.457 L667.36 349.457 L667.36 313.67 L671.642 313.67 L671.642 317.605 Q672.985 315.29 675.022 314.179 Q677.082 313.045 679.929 313.045 Q684.651 313.045 687.591 316.795 Q690.554 320.545 690.554 326.656 Q690.554 332.767 687.591 336.517 Q684.651 340.267 679.929 340.267 Q677.082 340.267 675.022 339.156 Q672.985 338.022 671.642 335.707 M686.133 326.656 Q686.133 321.957 684.189 319.295 Q682.267 316.61 678.888 316.61 Q675.508 316.61 673.564 319.295 Q671.642 321.957 671.642 326.656 Q671.642 331.355 673.564 334.04 Q675.508 336.702 678.888 336.702 Q682.267 336.702 684.189 334.04 Q686.133 331.355 686.133 326.656 Z" fill="#000000" fill-rule="nonzero" fill-opacity="1" /><path clip-path="url(#clip840)" d="M707.661 316.656 Q704.235 316.656 702.244 319.341 Q700.253 322.003 700.253 326.656 Q700.253 331.309 702.221 333.994 Q704.212 336.656 707.661 336.656 Q711.063 336.656 713.054 333.971 Q715.045 331.286 715.045 326.656 Q715.045 322.05 713.054 319.364 Q711.063 316.656 707.661 316.656 M707.661 313.045 Q713.216 313.045 716.387 316.656 Q719.559 320.267 719.559 326.656 Q719.559 333.022 716.387 336.656 Q713.216 340.267 707.661 340.267 Q702.082 340.267 698.911 336.656 Q695.763 333.022 695.763 326.656 Q695.763 320.267 698.911 316.656 Q702.082 313.045 707.661 313.045 Z" fill="#000000" fill-rule="nonzero" fill-opacity="1" /><path clip-path="url(#clip840)" d="M748.17 323.948 L748.17 339.596 L743.91 339.596 L743.91 324.087 Q743.91 320.406 742.475 318.577 Q741.04 316.749 738.17 316.749 Q734.721 316.749 732.73 318.948 Q730.739 321.147 730.739 324.943 L730.739 339.596 L726.457 339.596 L726.457 313.67 L730.739 313.67 L730.739 317.698 Q732.267 315.36 734.327 314.202 Q736.41 313.045 739.119 313.045 Q743.586 313.045 745.878 315.823 Q748.17 318.577 748.17 323.948 Z" fill="#000000" fill-rule="nonzero" fill-opacity="1" /><path clip-path="url(#clip840)" d="M778.841 325.568 L778.841 327.651 L759.258 327.651 Q759.535 332.049 761.896 334.364 Q764.281 336.656 768.517 336.656 Q770.97 336.656 773.262 336.054 Q775.577 335.452 777.845 334.249 L777.845 338.276 Q775.554 339.248 773.146 339.758 Q770.739 340.267 768.262 340.267 Q762.058 340.267 758.424 336.656 Q754.813 333.045 754.813 326.887 Q754.813 320.522 758.239 316.795 Q761.688 313.045 767.521 313.045 Q772.753 313.045 775.785 316.425 Q778.841 319.781 778.841 325.568 M774.582 324.318 Q774.535 320.823 772.614 318.739 Q770.716 316.656 767.568 316.656 Q764.003 316.656 761.85 318.67 Q759.721 320.684 759.396 324.341 L774.582 324.318 Z" fill="#000000" fill-rule="nonzero" fill-opacity="1" /><path clip-path="url(#clip840)" d="M807.382 323.948 L807.382 339.596 L803.123 339.596 L803.123 324.087 Q803.123 320.406 801.688 318.577 Q800.253 316.749 797.382 316.749 Q793.933 316.749 791.943 318.948 Q789.952 321.147 789.952 324.943 L789.952 339.596 L785.669 339.596 L785.669 313.67 L789.952 313.67 L789.952 317.698 Q791.48 315.36 793.54 314.202 Q795.623 313.045 798.331 313.045 Q802.799 313.045 805.091 315.823 Q807.382 318.577 807.382 323.948 Z" fill="#000000" fill-rule="nonzero" fill-opacity="1" /><path clip-path="url(#clip840)" d="M820.091 306.309 L820.091 313.67 L828.864 313.67 L828.864 316.98 L820.091 316.98 L820.091 331.054 Q820.091 334.225 820.947 335.128 Q821.827 336.031 824.489 336.031 L828.864 336.031 L828.864 339.596 L824.489 339.596 Q819.558 339.596 817.683 337.767 Q815.808 335.915 815.808 331.054 L815.808 316.98 L812.683 316.98 L812.683 313.67 L815.808 313.67 L815.808 306.309 L820.091 306.309 Z" fill="#000000" fill-rule="nonzero" fill-opacity="1" /><path clip-path="url(#clip840)" d="M834.465 313.67 L838.725 313.67 L838.725 339.596 L834.465 339.596 L834.465 313.67 M834.465 303.577 L838.725 303.577 L838.725 308.971 L834.465 308.971 L834.465 303.577 Z" fill="#000000" fill-rule="nonzero" fill-opacity="1" /><path clip-path="url(#clip840)" d="M869.813 325.568 L869.813 327.651 L850.229 327.651 Q850.507 332.049 852.868 334.364 Q855.252 336.656 859.489 336.656 Q861.942 336.656 864.234 336.054 Q866.549 335.452 868.817 334.249 L868.817 338.276 Q866.526 339.248 864.118 339.758 Q861.711 340.267 859.234 340.267 Q853.03 340.267 849.396 336.656 Q845.785 333.045 845.785 326.887 Q845.785 320.522 849.211 316.795 Q852.66 313.045 858.493 313.045 Q863.725 313.045 866.757 316.425 Q869.813 319.781 869.813 325.568 M865.553 324.318 Q865.507 320.823 863.586 318.739 Q861.688 316.656 858.539 316.656 Q854.975 316.656 852.822 318.67 Q850.692 320.684 850.368 324.341 L865.553 324.318 Z" fill="#000000" fill-rule="nonzero" fill-opacity="1" /><path clip-path="url(#clip840)" d="M876.803 303.577 L881.062 303.577 L881.062 339.596 L876.803 339.596 L876.803 303.577 Z" fill="#000000" fill-rule="nonzero" fill-opacity="1" /><path clip-path="url(#clip840)" d="M889.974 303.577 L894.234 303.577 L894.234 339.596 L889.974 339.596 L889.974 303.577 Z" fill="#000000" fill-rule="nonzero" fill-opacity="1" /><path clip-path="url(#clip840)" d="M927.312 339.596 L914.118 305.036 L919.002 305.036 L929.951 334.133 L940.923 305.036 L945.784 305.036 L932.613 339.596 L927.312 339.596 Z" fill="#000000" fill-rule="nonzero" fill-opacity="1" /><path clip-path="url(#clip840)" d="M969.141 325.568 L969.141 327.651 L949.557 327.651 Q949.835 332.049 952.196 334.364 Q954.581 336.656 958.817 336.656 Q961.27 336.656 963.562 336.054 Q965.877 335.452 968.145 334.249 L968.145 338.276 Q965.854 339.248 963.446 339.758 Q961.039 340.267 958.562 340.267 Q952.358 340.267 948.724 336.656 Q945.113 333.045 945.113 326.887 Q945.113 320.522 948.539 316.795 Q951.988 313.045 957.821 313.045 Q963.053 313.045 966.085 316.425 Q969.141 319.781 969.141 325.568 M964.881 324.318 Q964.835 320.823 962.914 318.739 Q961.016 316.656 957.868 316.656 Q954.303 316.656 952.15 318.67 Q950.02 320.684 949.696 324.341 L964.881 324.318 Z" fill="#000000" fill-rule="nonzero" fill-opacity="1" /><path clip-path="url(#clip840)" d="M975.969 303.577 L980.252 303.577 L980.252 324.85 L992.96 313.67 L998.4 313.67 L984.65 325.799 L998.978 339.596 L993.423 339.596 L980.252 326.934 L980.252 339.596 L975.969 339.596 L975.969 303.577 Z" fill="#000000" fill-rule="nonzero" fill-opacity="1" /><path clip-path="url(#clip840)" d="M1020.11 314.434 L1020.11 318.462 Q1018.31 317.536 1016.36 317.073 Q1014.42 316.61 1012.33 316.61 Q1009.16 316.61 1007.57 317.582 Q1005.99 318.554 1005.99 320.499 Q1005.99 321.98 1007.13 322.837 Q1008.26 323.67 1011.69 324.434 L1013.15 324.758 Q1017.68 325.73 1019.58 327.512 Q1021.5 329.272 1021.5 332.443 Q1021.5 336.054 1018.63 338.161 Q1015.78 340.267 1010.78 340.267 Q1008.7 340.267 1006.43 339.85 Q1004.19 339.457 1001.69 338.647 L1001.69 334.249 Q1004.05 335.475 1006.34 336.1 Q1008.63 336.702 1010.88 336.702 Q1013.89 336.702 1015.51 335.684 Q1017.13 334.642 1017.13 332.767 Q1017.13 331.031 1015.95 330.105 Q1014.79 329.179 1010.83 328.323 L1009.35 327.975 Q1005.39 327.142 1003.63 325.429 Q1001.87 323.693 1001.87 320.684 Q1001.87 317.026 1004.46 315.036 Q1007.06 313.045 1011.83 313.045 Q1014.19 313.045 1016.27 313.392 Q1018.35 313.739 1020.11 314.434 Z" fill="#000000" fill-rule="nonzero" fill-opacity="1" /><path clip-path="url(#clip840)" d="M1032.5 306.309 L1032.5 313.67 L1041.27 313.67 L1041.27 316.98 L1032.5 316.98 L1032.5 331.054 Q1032.5 334.225 1033.35 335.128 Q1034.23 336.031 1036.89 336.031 L1041.27 336.031 L1041.27 339.596 L1036.89 339.596 Q1031.96 339.596 1030.09 337.767 Q1028.21 335.915 1028.21 331.054 L1028.21 316.98 L1025.09 316.98 L1025.09 313.67 L1028.21 313.67 L1028.21 306.309 L1032.5 306.309 Z" fill="#000000" fill-rule="nonzero" fill-opacity="1" /><path clip-path="url(#clip840)" d="M1082.13 318.647 Q1083.72 315.776 1085.95 314.411 Q1088.17 313.045 1091.18 313.045 Q1095.23 313.045 1097.43 315.892 Q1099.63 318.716 1099.63 323.948 L1099.63 339.596 L1095.34 339.596 L1095.34 324.087 Q1095.34 320.36 1094.02 318.554 Q1092.7 316.749 1090 316.749 Q1086.69 316.749 1084.77 318.948 Q1082.84 321.147 1082.84 324.943 L1082.84 339.596 L1078.56 339.596 L1078.56 324.087 Q1078.56 320.337 1077.24 318.554 Q1075.92 316.749 1073.17 316.749 Q1069.9 316.749 1067.98 318.971 Q1066.06 321.17 1066.06 324.943 L1066.06 339.596 L1061.78 339.596 L1061.78 313.67 L1066.06 313.67 L1066.06 317.698 Q1067.52 315.313 1069.56 314.179 Q1071.59 313.045 1074.39 313.045 Q1077.22 313.045 1079.19 314.48 Q1081.18 315.915 1082.13 318.647 Z" fill="#000000" fill-rule="nonzero" fill-opacity="1" /><path clip-path="url(#clip840)" d="M1130.3 325.568 L1130.3 327.651 L1110.71 327.651 Q1110.99 332.049 1113.35 334.364 Q1115.74 336.656 1119.97 336.656 Q1122.43 336.656 1124.72 336.054 Q1127.03 335.452 1129.3 334.249 L1129.3 338.276 Q1127.01 339.248 1124.6 339.758 Q1122.2 340.267 1119.72 340.267 Q1113.51 340.267 1109.88 336.656 Q1106.27 333.045 1106.27 326.887 Q1106.27 320.522 1109.7 316.795 Q1113.14 313.045 1118.98 313.045 Q1124.21 313.045 1127.24 316.425 Q1130.3 319.781 1130.3 325.568 M1126.04 324.318 Q1125.99 320.823 1124.07 318.739 Q1122.17 316.656 1119.02 316.656 Q1115.46 316.656 1113.31 318.67 Q1111.18 320.684 1110.85 324.341 L1126.04 324.318 Z" fill="#000000" fill-rule="nonzero" fill-opacity="1" /><path clip-path="url(#clip840)" d="M1154.35 317.605 L1154.35 303.577 L1158.61 303.577 L1158.61 339.596 L1154.35 339.596 L1154.35 335.707 Q1153.01 338.022 1150.95 339.156 Q1148.91 340.267 1146.04 340.267 Q1141.34 340.267 1138.38 336.517 Q1135.44 332.767 1135.44 326.656 Q1135.44 320.545 1138.38 316.795 Q1141.34 313.045 1146.04 313.045 Q1148.91 313.045 1150.95 314.179 Q1153.01 315.29 1154.35 317.605 M1139.83 326.656 Q1139.83 331.355 1141.76 334.04 Q1143.7 336.702 1147.08 336.702 Q1150.46 336.702 1152.4 334.04 Q1154.35 331.355 1154.35 326.656 Q1154.35 321.957 1152.4 319.295 Q1150.46 316.61 1147.08 316.61 Q1143.7 316.61 1141.76 319.295 Q1139.83 321.957 1139.83 326.656 Z" fill="#000000" fill-rule="nonzero" fill-opacity="1" /><path clip-path="url(#clip840)" d="M1187.08 335.661 L1203.4 335.661 L1203.4 339.596 L1181.45 339.596 L1181.45 335.661 Q1184.12 332.906 1188.7 328.276 Q1193.31 323.624 1194.49 322.281 Q1196.73 319.758 1197.61 318.022 Q1198.51 316.263 1198.51 314.573 Q1198.51 311.818 1196.57 310.082 Q1194.65 308.346 1191.55 308.346 Q1189.35 308.346 1186.89 309.11 Q1184.46 309.874 1181.69 311.425 L1181.69 306.702 Q1184.51 305.568 1186.96 304.989 Q1189.42 304.411 1191.45 304.411 Q1196.82 304.411 1200.02 307.096 Q1203.21 309.781 1203.21 314.272 Q1203.21 316.401 1202.4 318.323 Q1201.62 320.221 1199.51 322.813 Q1198.93 323.485 1195.83 326.702 Q1192.73 329.897 1187.08 335.661 Z" fill="#000000" fill-rule="nonzero" fill-opacity="1" /><path clip-path="url(#clip840)" d="M1223.21 308.114 Q1219.6 308.114 1217.77 311.679 Q1215.97 315.221 1215.97 322.35 Q1215.97 329.457 1217.77 333.022 Q1219.6 336.563 1223.21 336.563 Q1226.85 336.563 1228.65 333.022 Q1230.48 329.457 1230.48 322.35 Q1230.48 315.221 1228.65 311.679 Q1226.85 308.114 1223.21 308.114 M1223.21 304.411 Q1229.02 304.411 1232.08 309.017 Q1235.16 313.6 1235.16 322.35 Q1235.16 331.077 1232.08 335.684 Q1229.02 340.267 1223.21 340.267 Q1217.4 340.267 1214.32 335.684 Q1211.27 331.077 1211.27 322.35 Q1211.27 313.6 1214.32 309.017 Q1217.4 304.411 1223.21 304.411 Z" fill="#000000" fill-rule="nonzero" fill-opacity="1" /><path clip-path="url(#clip840)" d="M1272.77 324.387 Q1270.76 324.387 1269.6 326.1 Q1268.47 327.813 1268.47 330.869 Q1268.47 333.878 1269.6 335.614 Q1270.76 337.327 1272.77 337.327 Q1274.74 337.327 1275.88 335.614 Q1277.03 333.878 1277.03 330.869 Q1277.03 327.837 1275.88 326.124 Q1274.74 324.387 1272.77 324.387 M1272.77 321.448 Q1276.43 321.448 1278.58 323.994 Q1280.74 326.54 1280.74 330.869 Q1280.74 335.198 1278.56 337.744 Q1276.41 340.267 1272.77 340.267 Q1269.07 340.267 1266.92 337.744 Q1264.76 335.198 1264.76 330.869 Q1264.76 326.517 1266.92 323.994 Q1269.09 321.448 1272.77 321.448 M1248.88 307.351 Q1246.89 307.351 1245.74 309.087 Q1244.6 310.8 1244.6 313.809 Q1244.6 316.864 1245.74 318.577 Q1246.87 320.29 1248.88 320.29 Q1250.9 320.29 1252.03 318.577 Q1253.19 316.864 1253.19 313.809 Q1253.19 310.823 1252.03 309.087 Q1250.88 307.351 1248.88 307.351 M1269.79 304.411 L1273.49 304.411 L1251.87 340.267 L1248.17 340.267 L1269.79 304.411 M1248.88 304.411 Q1252.54 304.411 1254.72 306.957 Q1256.89 309.48 1256.89 313.809 Q1256.89 318.184 1254.72 320.707 Q1252.57 323.23 1248.88 323.23 Q1245.2 323.23 1243.05 320.707 Q1240.92 318.161 1240.92 313.809 Q1240.92 309.503 1243.07 306.957 Q1245.23 304.411 1248.88 304.411 Z" fill="#000000" fill-rule="nonzero" fill-opacity="1" /><path clip-path="url(#clip840)" d="M1317.91 317.651 Q1317.19 317.235 1316.34 317.05 Q1315.5 316.841 1314.49 316.841 Q1310.87 316.841 1308.93 319.202 Q1307.01 321.54 1307.01 325.938 L1307.01 339.596 L1302.73 339.596 L1302.73 313.67 L1307.01 313.67 L1307.01 317.698 Q1308.35 315.337 1310.5 314.202 Q1312.66 313.045 1315.74 313.045 Q1316.18 313.045 1316.71 313.114 Q1317.24 313.161 1317.89 313.276 L1317.91 317.651 Z" fill="#000000" fill-rule="nonzero" fill-opacity="1" /><path clip-path="url(#clip840)" d="M1343.51 325.568 L1343.51 327.651 L1323.93 327.651 Q1324.21 332.049 1326.57 334.364 Q1328.95 336.656 1333.19 336.656 Q1335.64 336.656 1337.94 336.054 Q1340.25 335.452 1342.52 334.249 L1342.52 338.276 Q1340.23 339.248 1337.82 339.758 Q1335.41 340.267 1332.94 340.267 Q1326.73 340.267 1323.1 336.656 Q1319.49 333.045 1319.49 326.887 Q1319.49 320.522 1322.91 316.795 Q1326.36 313.045 1332.19 313.045 Q1337.43 313.045 1340.46 316.425 Q1343.51 319.781 1343.51 325.568 M1339.25 324.318 Q1339.21 320.823 1337.29 318.739 Q1335.39 316.656 1332.24 316.656 Q1328.68 316.656 1326.52 318.67 Q1324.39 320.684 1324.07 324.341 L1339.25 324.318 Z" fill="#000000" fill-rule="nonzero" fill-opacity="1" /><path clip-path="url(#clip840)" d="M1372.06 323.948 L1372.06 339.596 L1367.8 339.596 L1367.8 324.087 Q1367.8 320.406 1366.36 318.577 Q1364.93 316.749 1362.06 316.749 Q1358.61 316.749 1356.62 318.948 Q1354.62 321.147 1354.62 324.943 L1354.62 339.596 L1350.34 339.596 L1350.34 313.67 L1354.62 313.67 L1354.62 317.698 Q1356.15 315.36 1358.21 314.202 Q1360.3 313.045 1363 313.045 Q1367.47 313.045 1369.76 315.823 Q1372.06 318.577 1372.06 323.948 Z" fill="#000000" fill-rule="nonzero" fill-opacity="1" /><path clip-path="url(#clip840)" d="M1384.76 306.309 L1384.76 313.67 L1393.54 313.67 L1393.54 316.98 L1384.76 316.98 L1384.76 331.054 Q1384.76 334.225 1385.62 335.128 Q1386.5 336.031 1389.16 336.031 L1393.54 336.031 L1393.54 339.596 L1389.16 339.596 Q1384.23 339.596 1382.36 337.767 Q1380.48 335.915 1380.48 331.054 L1380.48 316.98 L1377.36 316.98 L1377.36 313.67 L1380.48 313.67 L1380.48 306.309 L1384.76 306.309 Z" fill="#000000" fill-rule="nonzero" fill-opacity="1" /><path clip-path="url(#clip840)" d="M1421.31 325.568 L1421.31 327.651 L1401.73 327.651 Q1402.01 332.049 1404.37 334.364 Q1406.75 336.656 1410.99 336.656 Q1413.44 336.656 1415.74 336.054 Q1418.05 335.452 1420.32 334.249 L1420.32 338.276 Q1418.03 339.248 1415.62 339.758 Q1413.21 340.267 1410.74 340.267 Q1404.53 340.267 1400.9 336.656 Q1397.29 333.045 1397.29 326.887 Q1397.29 320.522 1400.71 316.795 Q1404.16 313.045 1409.99 313.045 Q1415.23 313.045 1418.26 316.425 Q1421.31 319.781 1421.31 325.568 M1417.05 324.318 Q1417.01 320.823 1415.09 318.739 Q1413.19 316.656 1410.04 316.656 Q1406.48 316.656 1404.32 318.67 Q1402.19 320.684 1401.87 324.341 L1417.05 324.318 Z" fill="#000000" fill-rule="nonzero" fill-opacity="1" /></svg>