<?xml version="1.0" encoding="utf-8"?>
<svg xmlns="http://www.w3.org/2000/svg" xmlns:xlink="http://www.w3.org/1999/xlink" width="600" height="400" viewBox="0 0 2400 1600">
<defs>
  <clipPath id="clip660">
    <rect x="0" y="0" width="2400" height="1600"/>
  </clipPath>
</defs>
<path clip-path="url(#clip660)" d="M0 1600 L2400 1600 L2400 0 L0 0  Z" fill="#ffffff" fill-rule="evenodd" fill-opacity="1"/>
<defs>
  <clipPath id="clip661">
    <rect x="480" y="0" width="1681" height="1600"/>
  </clipPath>
</defs>
<path clip-path="url(#clip660)" d="M172.015 1486.45 L2352.76 1486.45 L2352.76 47.2441 L172.015 47.2441  Z" fill="#ffffff" fill-rule="evenodd" fill-opacity="1"/>
<defs>
  <clipPath id="clip662">
    <rect x="172" y="47" width="2182" height="1440"/>
  </clipPath>
</defs>
<polyline clip-path="url(#clip662)" style="stroke:#000000; stroke-linecap:round; stroke-linejoin:round; stroke-width:2; stroke-opacity:0.1; fill:none" points="444.926,1486.45 444.926,47.2441 "/>
<polyline clip-path="url(#clip662)" style="stroke:#000000; stroke-linecap:round; stroke-linejoin:round; stroke-width:2; stroke-opacity:0.1; fill:none" points="856.387,1486.45 856.387,47.2441 "/>
<polyline clip-path="url(#clip662)" style="stroke:#000000; stroke-linecap:round; stroke-linejoin:round; stroke-width:2; stroke-opacity:0.1; fill:none" points="1267.85,1486.45 1267.85,47.2441 "/>
<polyline clip-path="url(#clip662)" style="stroke:#000000; stroke-linecap:round; stroke-linejoin:round; stroke-width:2; stroke-opacity:0.1; fill:none" points="1679.31,1486.45 1679.31,47.2441 "/>
<polyline clip-path="url(#clip662)" style="stroke:#000000; stroke-linecap:round; stroke-linejoin:round; stroke-width:2; stroke-opacity:0.1; fill:none" points="2090.77,1486.45 2090.77,47.2441 "/>
<polyline clip-path="url(#clip660)" style="stroke:#000000; stroke-linecap:round; stroke-linejoin:round; stroke-width:4; stroke-opacity:1; fill:none" points="172.015,1486.45 2352.76,1486.45 "/>
<polyline clip-path="url(#clip660)" style="stroke:#000000; stroke-linecap:round; stroke-linejoin:round; stroke-width:4; stroke-opacity:1; fill:none" points="444.926,1486.45 444.926,1467.55 "/>
<polyline clip-path="url(#clip660)" style="stroke:#000000; stroke-linecap:round; stroke-linejoin:round; stroke-width:4; stroke-opacity:1; fill:none" points="856.387,1486.45 856.387,1467.55 "/>
<polyline clip-path="url(#clip660)" style="stroke:#000000; stroke-linecap:round; stroke-linejoin:round; stroke-width:4; stroke-opacity:1; fill:none" points="1267.85,1486.45 1267.85,1467.55 "/>
<polyline clip-path="url(#clip660)" style="stroke:#000000; stroke-linecap:round; stroke-linejoin:round; stroke-width:4; stroke-opacity:1; fill:none" points="1679.31,1486.45 1679.31,1467.55 "/>
<polyline clip-path="url(#clip660)" style="stroke:#000000; stroke-linecap:round; stroke-linejoin:round; stroke-width:4; stroke-opacity:1; fill:none" points="2090.77,1486.45 2090.77,1467.55 "/>
<path clip-path="url(#clip660)" d="M391.454 1532.02 L421.13 1532.02 L421.13 1535.95 L391.454 1535.95 L391.454 1532.02 Z" fill="#000000" fill-rule="nonzero" fill-opacity="1" /><path clip-path="url(#clip660)" d="M431.269 1514.29 L449.625 1514.29 L449.625 1518.22 L435.551 1518.22 L435.551 1526.7 Q436.57 1526.35 437.588 1526.19 Q438.607 1526 439.625 1526 Q445.412 1526 448.792 1529.17 Q452.171 1532.34 452.171 1537.76 Q452.171 1543.34 448.699 1546.44 Q445.227 1549.52 438.907 1549.52 Q436.732 1549.52 434.463 1549.15 Q432.218 1548.78 429.81 1548.04 L429.81 1543.34 Q431.894 1544.47 434.116 1545.03 Q436.338 1545.58 438.815 1545.58 Q442.82 1545.58 445.157 1543.48 Q447.495 1541.37 447.495 1537.76 Q447.495 1534.15 445.157 1532.04 Q442.82 1529.94 438.815 1529.94 Q436.94 1529.94 435.065 1530.35 Q433.213 1530.77 431.269 1531.65 L431.269 1514.29 Z" fill="#000000" fill-rule="nonzero" fill-opacity="1" /><path clip-path="url(#clip660)" d="M461.384 1542.97 L466.268 1542.97 L466.268 1548.85 L461.384 1548.85 L461.384 1542.97 Z" fill="#000000" fill-rule="nonzero" fill-opacity="1" /><path clip-path="url(#clip660)" d="M486.454 1517.37 Q482.842 1517.37 481.014 1520.93 Q479.208 1524.47 479.208 1531.6 Q479.208 1538.71 481.014 1542.27 Q482.842 1545.82 486.454 1545.82 Q490.088 1545.82 491.893 1542.27 Q493.722 1538.71 493.722 1531.6 Q493.722 1524.47 491.893 1520.93 Q490.088 1517.37 486.454 1517.37 M486.454 1513.66 Q492.264 1513.66 495.319 1518.27 Q498.398 1522.85 498.398 1531.6 Q498.398 1540.33 495.319 1544.94 Q492.264 1549.52 486.454 1549.52 Q480.643 1549.52 477.565 1544.94 Q474.509 1540.33 474.509 1531.6 Q474.509 1522.85 477.565 1518.27 Q480.643 1513.66 486.454 1513.66 Z" fill="#000000" fill-rule="nonzero" fill-opacity="1" /><path clip-path="url(#clip660)" d="M803.412 1532.02 L833.088 1532.02 L833.088 1535.95 L803.412 1535.95 L803.412 1532.02 Z" fill="#000000" fill-rule="nonzero" fill-opacity="1" /><path clip-path="url(#clip660)" d="M847.208 1544.91 L863.528 1544.91 L863.528 1548.85 L841.583 1548.85 L841.583 1544.91 Q844.245 1542.16 848.829 1537.53 Q853.435 1532.88 854.616 1531.53 Q856.861 1529.01 857.741 1527.27 Q858.643 1525.51 858.643 1523.82 Q858.643 1521.07 856.699 1519.33 Q854.778 1517.6 851.676 1517.6 Q849.477 1517.6 847.023 1518.36 Q844.593 1519.13 841.815 1520.68 L841.815 1515.95 Q844.639 1514.82 847.093 1514.24 Q849.546 1513.66 851.583 1513.66 Q856.954 1513.66 860.148 1516.35 Q863.343 1519.03 863.343 1523.52 Q863.343 1525.65 862.532 1527.57 Q861.745 1529.47 859.639 1532.07 Q859.06 1532.74 855.958 1535.95 Q852.856 1539.15 847.208 1544.91 Z" fill="#000000" fill-rule="nonzero" fill-opacity="1" /><path clip-path="url(#clip660)" d="M873.342 1542.97 L878.227 1542.97 L878.227 1548.85 L873.342 1548.85 L873.342 1542.97 Z" fill="#000000" fill-rule="nonzero" fill-opacity="1" /><path clip-path="url(#clip660)" d="M888.458 1514.29 L906.815 1514.29 L906.815 1518.22 L892.741 1518.22 L892.741 1526.7 Q893.759 1526.35 894.778 1526.19 Q895.796 1526 896.815 1526 Q902.602 1526 905.981 1529.17 Q909.361 1532.34 909.361 1537.76 Q909.361 1543.34 905.889 1546.44 Q902.416 1549.52 896.097 1549.52 Q893.921 1549.52 891.653 1549.15 Q889.407 1548.78 887 1548.04 L887 1543.34 Q889.083 1544.47 891.305 1545.03 Q893.528 1545.58 896.004 1545.58 Q900.009 1545.58 902.347 1543.48 Q904.685 1541.37 904.685 1537.76 Q904.685 1534.15 902.347 1532.04 Q900.009 1529.94 896.004 1529.94 Q894.129 1529.94 892.254 1530.35 Q890.403 1530.77 888.458 1531.65 L888.458 1514.29 Z" fill="#000000" fill-rule="nonzero" fill-opacity="1" /><path clip-path="url(#clip660)" d="M1245.23 1517.37 Q1241.62 1517.37 1239.79 1520.93 Q1237.99 1524.47 1237.99 1531.6 Q1237.99 1538.71 1239.79 1542.27 Q1241.62 1545.82 1245.23 1545.82 Q1248.87 1545.82 1250.67 1542.27 Q1252.5 1538.71 1252.5 1531.6 Q1252.5 1524.47 1250.67 1520.93 Q1248.87 1517.37 1245.23 1517.37 M1245.23 1513.66 Q1251.04 1513.66 1254.1 1518.27 Q1257.18 1522.85 1257.18 1531.6 Q1257.18 1540.33 1254.1 1544.94 Q1251.04 1549.52 1245.23 1549.52 Q1239.42 1549.52 1236.34 1544.94 Q1233.29 1540.33 1233.29 1531.6 Q1233.29 1522.85 1236.34 1518.27 Q1239.42 1513.66 1245.23 1513.66 Z" fill="#000000" fill-rule="nonzero" fill-opacity="1" /><path clip-path="url(#clip660)" d="M1265.39 1542.97 L1270.28 1542.97 L1270.28 1548.85 L1265.39 1548.85 L1265.39 1542.97 Z" fill="#000000" fill-rule="nonzero" fill-opacity="1" /><path clip-path="url(#clip660)" d="M1290.46 1517.37 Q1286.85 1517.37 1285.02 1520.93 Q1283.22 1524.47 1283.22 1531.6 Q1283.22 1538.71 1285.02 1542.27 Q1286.85 1545.82 1290.46 1545.82 Q1294.1 1545.82 1295.9 1542.27 Q1297.73 1538.71 1297.73 1531.6 Q1297.73 1524.47 1295.9 1520.93 Q1294.1 1517.37 1290.46 1517.37 M1290.46 1513.66 Q1296.27 1513.66 1299.33 1518.27 Q1302.41 1522.85 1302.41 1531.6 Q1302.41 1540.33 1299.33 1544.94 Q1296.27 1549.52 1290.46 1549.52 Q1284.65 1549.52 1281.57 1544.94 Q1278.52 1540.33 1278.52 1531.6 Q1278.52 1522.85 1281.57 1518.27 Q1284.65 1513.66 1290.46 1513.66 Z" fill="#000000" fill-rule="nonzero" fill-opacity="1" /><path clip-path="url(#clip660)" d="M1651.04 1544.91 L1667.36 1544.91 L1667.36 1548.85 L1645.42 1548.85 L1645.42 1544.91 Q1648.08 1542.16 1652.66 1537.53 Q1657.27 1532.88 1658.45 1531.53 Q1660.7 1529.01 1661.58 1527.27 Q1662.48 1525.51 1662.48 1523.82 Q1662.48 1521.07 1660.53 1519.33 Q1658.61 1517.6 1655.51 1517.6 Q1653.31 1517.6 1650.86 1518.36 Q1648.43 1519.13 1645.65 1520.68 L1645.65 1515.95 Q1648.47 1514.82 1650.93 1514.24 Q1653.38 1513.66 1655.42 1513.66 Q1660.79 1513.66 1663.98 1516.35 Q1667.18 1519.03 1667.18 1523.52 Q1667.18 1525.65 1666.37 1527.57 Q1665.58 1529.47 1663.47 1532.07 Q1662.9 1532.74 1659.79 1535.95 Q1656.69 1539.15 1651.04 1544.91 Z" fill="#000000" fill-rule="nonzero" fill-opacity="1" /><path clip-path="url(#clip660)" d="M1677.18 1542.97 L1682.06 1542.97 L1682.06 1548.85 L1677.18 1548.85 L1677.18 1542.97 Z" fill="#000000" fill-rule="nonzero" fill-opacity="1" /><path clip-path="url(#clip660)" d="M1692.29 1514.29 L1710.65 1514.29 L1710.65 1518.22 L1696.58 1518.22 L1696.58 1526.7 Q1697.59 1526.35 1698.61 1526.19 Q1699.63 1526 1700.65 1526 Q1706.44 1526 1709.82 1529.17 Q1713.2 1532.34 1713.2 1537.76 Q1713.2 1543.34 1709.72 1546.44 Q1706.25 1549.52 1699.93 1549.52 Q1697.76 1549.52 1695.49 1549.15 Q1693.24 1548.78 1690.84 1548.04 L1690.84 1543.34 Q1692.92 1544.47 1695.14 1545.03 Q1697.36 1545.58 1699.84 1545.58 Q1703.84 1545.58 1706.18 1543.48 Q1708.52 1541.37 1708.52 1537.76 Q1708.52 1534.15 1706.18 1532.04 Q1703.84 1529.94 1699.84 1529.94 Q1697.97 1529.94 1696.09 1530.35 Q1694.24 1530.77 1692.29 1531.65 L1692.29 1514.29 Z" fill="#000000" fill-rule="nonzero" fill-opacity="1" /><path clip-path="url(#clip660)" d="M2057.93 1514.29 L2076.29 1514.29 L2076.29 1518.22 L2062.22 1518.22 L2062.22 1526.7 Q2063.23 1526.35 2064.25 1526.19 Q2065.27 1526 2066.29 1526 Q2072.08 1526 2075.46 1529.17 Q2078.84 1532.34 2078.84 1537.76 Q2078.84 1543.34 2075.36 1546.44 Q2071.89 1549.52 2065.57 1549.52 Q2063.4 1549.52 2061.13 1549.15 Q2058.88 1548.78 2056.47 1548.04 L2056.47 1543.34 Q2058.56 1544.47 2060.78 1545.03 Q2063 1545.58 2065.48 1545.58 Q2069.48 1545.58 2071.82 1543.48 Q2074.16 1541.37 2074.16 1537.76 Q2074.16 1534.15 2071.82 1532.04 Q2069.48 1529.94 2065.48 1529.94 Q2063.6 1529.94 2061.73 1530.35 Q2059.88 1530.77 2057.93 1531.65 L2057.93 1514.29 Z" fill="#000000" fill-rule="nonzero" fill-opacity="1" /><path clip-path="url(#clip660)" d="M2088.05 1542.97 L2092.93 1542.97 L2092.93 1548.85 L2088.05 1548.85 L2088.05 1542.97 Z" fill="#000000" fill-rule="nonzero" fill-opacity="1" /><path clip-path="url(#clip660)" d="M2113.12 1517.37 Q2109.51 1517.37 2107.68 1520.93 Q2105.87 1524.47 2105.87 1531.6 Q2105.87 1538.71 2107.68 1542.27 Q2109.51 1545.82 2113.12 1545.82 Q2116.75 1545.82 2118.56 1542.27 Q2120.39 1538.71 2120.39 1531.6 Q2120.39 1524.47 2118.56 1520.93 Q2116.75 1517.37 2113.12 1517.37 M2113.12 1513.66 Q2118.93 1513.66 2121.98 1518.27 Q2125.06 1522.85 2125.06 1531.6 Q2125.06 1540.33 2121.98 1544.94 Q2118.93 1549.52 2113.12 1549.52 Q2107.31 1549.52 2104.23 1544.94 Q2101.17 1540.33 2101.17 1531.6 Q2101.17 1522.85 2104.23 1518.27 Q2107.31 1513.66 2113.12 1513.66 Z" fill="#000000" fill-rule="nonzero" fill-opacity="1" /><polyline clip-path="url(#clip662)" style="stroke:#000000; stroke-linecap:round; stroke-linejoin:round; stroke-width:2; stroke-opacity:0.1; fill:none" points="172.015,1443.01 2352.76,1443.01 "/>
<polyline clip-path="url(#clip662)" style="stroke:#000000; stroke-linecap:round; stroke-linejoin:round; stroke-width:2; stroke-opacity:0.1; fill:none" points="172.015,1172.6 2352.76,1172.6 "/>
<polyline clip-path="url(#clip662)" style="stroke:#000000; stroke-linecap:round; stroke-linejoin:round; stroke-width:2; stroke-opacity:0.1; fill:none" points="172.015,902.192 2352.76,902.192 "/>
<polyline clip-path="url(#clip662)" style="stroke:#000000; stroke-linecap:round; stroke-linejoin:round; stroke-width:2; stroke-opacity:0.1; fill:none" points="172.015,631.782 2352.76,631.782 "/>
<polyline clip-path="url(#clip662)" style="stroke:#000000; stroke-linecap:round; stroke-linejoin:round; stroke-width:2; stroke-opacity:0.1; fill:none" points="172.015,361.373 2352.76,361.373 "/>
<polyline clip-path="url(#clip662)" style="stroke:#000000; stroke-linecap:round; stroke-linejoin:round; stroke-width:2; stroke-opacity:0.1; fill:none" points="172.015,90.963 2352.76,90.963 "/>
<polyline clip-path="url(#clip660)" style="stroke:#000000; stroke-linecap:round; stroke-linejoin:round; stroke-width:4; stroke-opacity:1; fill:none" points="172.015,1486.45 172.015,47.2441 "/>
<polyline clip-path="url(#clip660)" style="stroke:#000000; stroke-linecap:round; stroke-linejoin:round; stroke-width:4; stroke-opacity:1; fill:none" points="172.015,1443.01 190.912,1443.01 "/>
<polyline clip-path="url(#clip660)" style="stroke:#000000; stroke-linecap:round; stroke-linejoin:round; stroke-width:4; stroke-opacity:1; fill:none" points="172.015,1172.6 190.912,1172.6 "/>
<polyline clip-path="url(#clip660)" style="stroke:#000000; stroke-linecap:round; stroke-linejoin:round; stroke-width:4; stroke-opacity:1; fill:none" points="172.015,902.192 190.912,902.192 "/>
<polyline clip-path="url(#clip660)" style="stroke:#000000; stroke-linecap:round; stroke-linejoin:round; stroke-width:4; stroke-opacity:1; fill:none" points="172.015,631.782 190.912,631.782 "/>
<polyline clip-path="url(#clip660)" style="stroke:#000000; stroke-linecap:round; stroke-linejoin:round; stroke-width:4; stroke-opacity:1; fill:none" points="172.015,361.373 190.912,361.373 "/>
<polyline clip-path="url(#clip660)" style="stroke:#000000; stroke-linecap:round; stroke-linejoin:round; stroke-width:4; stroke-opacity:1; fill:none" points="172.015,90.963 190.912,90.963 "/>
<path clip-path="url(#clip660)" d="M124.07 1428.81 Q120.459 1428.81 118.631 1432.38 Q116.825 1435.92 116.825 1443.05 Q116.825 1450.15 118.631 1453.72 Q120.459 1457.26 124.07 1457.26 Q127.705 1457.26 129.51 1453.72 Q131.339 1450.15 131.339 1443.05 Q131.339 1435.92 129.51 1432.38 Q127.705 1428.81 124.07 1428.81 M124.07 1425.11 Q129.881 1425.11 132.936 1429.71 Q136.015 1434.3 136.015 1443.05 Q136.015 1451.77 132.936 1456.38 Q129.881 1460.96 124.07 1460.96 Q118.26 1460.96 115.182 1456.38 Q112.126 1451.77 112.126 1443.05 Q112.126 1434.3 115.182 1429.71 Q118.26 1425.11 124.07 1425.11 Z" fill="#000000" fill-rule="nonzero" fill-opacity="1" /><path clip-path="url(#clip660)" d="M54.5569 1185.95 L62.1958 1185.95 L62.1958 1159.58 L53.8856 1161.25 L53.8856 1156.99 L62.1495 1155.32 L66.8254 1155.32 L66.8254 1185.95 L74.4642 1185.95 L74.4642 1189.88 L54.5569 1189.88 L54.5569 1185.95 Z" fill="#000000" fill-rule="nonzero" fill-opacity="1" /><path clip-path="url(#clip660)" d="M93.9086 1158.4 Q90.2975 1158.4 88.4688 1161.97 Q86.6632 1165.51 86.6632 1172.64 Q86.6632 1179.74 88.4688 1183.31 Q90.2975 1186.85 93.9086 1186.85 Q97.5428 1186.85 99.3483 1183.31 Q101.177 1179.74 101.177 1172.64 Q101.177 1165.51 99.3483 1161.97 Q97.5428 1158.4 93.9086 1158.4 M93.9086 1154.7 Q99.7187 1154.7 102.774 1159.3 Q105.853 1163.89 105.853 1172.64 Q105.853 1181.36 102.774 1185.97 Q99.7187 1190.55 93.9086 1190.55 Q88.0984 1190.55 85.0197 1185.97 Q81.9642 1181.36 81.9642 1172.64 Q81.9642 1163.89 85.0197 1159.3 Q88.0984 1154.7 93.9086 1154.7 Z" fill="#000000" fill-rule="nonzero" fill-opacity="1" /><path clip-path="url(#clip660)" d="M124.07 1158.4 Q120.459 1158.4 118.631 1161.97 Q116.825 1165.51 116.825 1172.64 Q116.825 1179.74 118.631 1183.31 Q120.459 1186.85 124.07 1186.85 Q127.705 1186.85 129.51 1183.31 Q131.339 1179.74 131.339 1172.64 Q131.339 1165.51 129.51 1161.97 Q127.705 1158.4 124.07 1158.4 M124.07 1154.7 Q129.881 1154.7 132.936 1159.3 Q136.015 1163.89 136.015 1172.64 Q136.015 1181.36 132.936 1185.97 Q129.881 1190.55 124.07 1190.55 Q118.26 1190.55 115.182 1185.97 Q112.126 1181.36 112.126 1172.64 Q112.126 1163.89 115.182 1159.3 Q118.26 1154.7 124.07 1154.7 Z" fill="#000000" fill-rule="nonzero" fill-opacity="1" /><path clip-path="url(#clip660)" d="M57.7745 915.537 L74.0939 915.537 L74.0939 919.472 L52.1495 919.472 L52.1495 915.537 Q54.8115 912.782 59.3949 908.153 Q64.0013 903.5 65.1819 902.157 Q67.4272 899.634 68.3068 897.898 Q69.2096 896.139 69.2096 894.449 Q69.2096 891.695 67.2652 889.958 Q65.3439 888.222 62.2421 888.222 Q60.043 888.222 57.5893 888.986 Q55.1588 889.75 52.381 891.301 L52.381 886.579 Q55.2051 885.445 57.6588 884.866 Q60.1124 884.287 62.1495 884.287 Q67.5198 884.287 70.7142 886.972 Q73.9087 889.658 73.9087 894.148 Q73.9087 896.278 73.0985 898.199 Q72.3115 900.097 70.205 902.69 Q69.6263 903.361 66.5245 906.579 Q63.4226 909.773 57.7745 915.537 Z" fill="#000000" fill-rule="nonzero" fill-opacity="1" /><path clip-path="url(#clip660)" d="M93.9086 887.991 Q90.2975 887.991 88.4688 891.556 Q86.6632 895.097 86.6632 902.227 Q86.6632 909.333 88.4688 912.898 Q90.2975 916.44 93.9086 916.44 Q97.5428 916.44 99.3483 912.898 Q101.177 909.333 101.177 902.227 Q101.177 895.097 99.3483 891.556 Q97.5428 887.991 93.9086 887.991 M93.9086 884.287 Q99.7187 884.287 102.774 888.894 Q105.853 893.477 105.853 902.227 Q105.853 910.954 102.774 915.56 Q99.7187 920.143 93.9086 920.143 Q88.0984 920.143 85.0197 915.56 Q81.9642 910.954 81.9642 902.227 Q81.9642 893.477 85.0197 888.894 Q88.0984 884.287 93.9086 884.287 Z" fill="#000000" fill-rule="nonzero" fill-opacity="1" /><path clip-path="url(#clip660)" d="M124.07 887.991 Q120.459 887.991 118.631 891.556 Q116.825 895.097 116.825 902.227 Q116.825 909.333 118.631 912.898 Q120.459 916.44 124.07 916.44 Q127.705 916.44 129.51 912.898 Q131.339 909.333 131.339 902.227 Q131.339 895.097 129.51 891.556 Q127.705 887.991 124.07 887.991 M124.07 884.287 Q129.881 884.287 132.936 888.894 Q136.015 893.477 136.015 902.227 Q136.015 910.954 132.936 915.56 Q129.881 920.143 124.07 920.143 Q118.26 920.143 115.182 915.56 Q112.126 910.954 112.126 902.227 Q112.126 893.477 115.182 888.894 Q118.26 884.287 124.07 884.287 Z" fill="#000000" fill-rule="nonzero" fill-opacity="1" /><path clip-path="url(#clip660)" d="M67.9133 630.428 Q71.2698 631.146 73.1448 633.414 Q75.0429 635.683 75.0429 639.016 Q75.0429 644.132 71.5244 646.933 Q68.0059 649.734 61.5245 649.734 Q59.3486 649.734 57.0338 649.294 Q54.7421 648.877 52.2884 648.021 L52.2884 643.507 Q54.2328 644.641 56.5477 645.22 Q58.8625 645.799 61.3856 645.799 Q65.7837 645.799 68.0754 644.062 Q70.3902 642.326 70.3902 639.016 Q70.3902 635.961 68.2374 634.248 Q66.1078 632.512 62.2884 632.512 L58.2606 632.512 L58.2606 628.669 L62.4735 628.669 Q65.9226 628.669 67.7513 627.303 Q69.58 625.914 69.58 623.322 Q69.58 620.66 67.6819 619.248 Q65.8069 617.813 62.2884 617.813 Q60.3671 617.813 58.168 618.229 Q55.969 618.646 53.3301 619.526 L53.3301 615.359 Q55.9921 614.618 58.3069 614.248 Q60.6449 613.877 62.705 613.877 Q68.0291 613.877 71.1309 616.308 Q74.2327 618.715 74.2327 622.836 Q74.2327 625.706 72.5892 627.697 Q70.9457 629.664 67.9133 630.428 Z" fill="#000000" fill-rule="nonzero" fill-opacity="1" /><path clip-path="url(#clip660)" d="M93.9086 617.581 Q90.2975 617.581 88.4688 621.146 Q86.6632 624.688 86.6632 631.817 Q86.6632 638.924 88.4688 642.488 Q90.2975 646.03 93.9086 646.03 Q97.5428 646.03 99.3483 642.488 Q101.177 638.924 101.177 631.817 Q101.177 624.688 99.3483 621.146 Q97.5428 617.581 93.9086 617.581 M93.9086 613.877 Q99.7187 613.877 102.774 618.484 Q105.853 623.067 105.853 631.817 Q105.853 640.544 102.774 645.15 Q99.7187 649.734 93.9086 649.734 Q88.0984 649.734 85.0197 645.15 Q81.9642 640.544 81.9642 631.817 Q81.9642 623.067 85.0197 618.484 Q88.0984 613.877 93.9086 613.877 Z" fill="#000000" fill-rule="nonzero" fill-opacity="1" /><path clip-path="url(#clip660)" d="M124.07 617.581 Q120.459 617.581 118.631 621.146 Q116.825 624.688 116.825 631.817 Q116.825 638.924 118.631 642.488 Q120.459 646.03 124.07 646.03 Q127.705 646.03 129.51 642.488 Q131.339 638.924 131.339 631.817 Q131.339 624.688 129.51 621.146 Q127.705 617.581 124.07 617.581 M124.07 613.877 Q129.881 613.877 132.936 618.484 Q136.015 623.067 136.015 631.817 Q136.015 640.544 132.936 645.15 Q129.881 649.734 124.07 649.734 Q118.26 649.734 115.182 645.15 Q112.126 640.544 112.126 631.817 Q112.126 623.067 115.182 618.484 Q118.26 613.877 124.07 613.877 Z" fill="#000000" fill-rule="nonzero" fill-opacity="1" /><path clip-path="url(#clip660)" d="M66.5939 348.167 L54.7884 366.616 L66.5939 366.616 L66.5939 348.167 M65.367 344.093 L71.2466 344.093 L71.2466 366.616 L76.1772 366.616 L76.1772 370.505 L71.2466 370.505 L71.2466 378.653 L66.5939 378.653 L66.5939 370.505 L50.9921 370.505 L50.9921 365.991 L65.367 344.093 Z" fill="#000000" fill-rule="nonzero" fill-opacity="1" /><path clip-path="url(#clip660)" d="M93.9086 347.171 Q90.2975 347.171 88.4688 350.736 Q86.6632 354.278 86.6632 361.407 Q86.6632 368.514 88.4688 372.079 Q90.2975 375.62 93.9086 375.62 Q97.5428 375.62 99.3483 372.079 Q101.177 368.514 101.177 361.407 Q101.177 354.278 99.3483 350.736 Q97.5428 347.171 93.9086 347.171 M93.9086 343.468 Q99.7187 343.468 102.774 348.074 Q105.853 352.657 105.853 361.407 Q105.853 370.134 102.774 374.741 Q99.7187 379.324 93.9086 379.324 Q88.0984 379.324 85.0197 374.741 Q81.9642 370.134 81.9642 361.407 Q81.9642 352.657 85.0197 348.074 Q88.0984 343.468 93.9086 343.468 Z" fill="#000000" fill-rule="nonzero" fill-opacity="1" /><path clip-path="url(#clip660)" d="M124.07 347.171 Q120.459 347.171 118.631 350.736 Q116.825 354.278 116.825 361.407 Q116.825 368.514 118.631 372.079 Q120.459 375.62 124.07 375.62 Q127.705 375.62 129.51 372.079 Q131.339 368.514 131.339 361.407 Q131.339 354.278 129.51 350.736 Q127.705 347.171 124.07 347.171 M124.07 343.468 Q129.881 343.468 132.936 348.074 Q136.015 352.657 136.015 361.407 Q136.015 370.134 132.936 374.741 Q129.881 379.324 124.07 379.324 Q118.26 379.324 115.182 374.741 Q112.126 370.134 112.126 361.407 Q112.126 352.657 115.182 348.074 Q118.26 343.468 124.07 343.468 Z" fill="#000000" fill-rule="nonzero" fill-opacity="1" /><path clip-path="url(#clip660)" d="M53.793 73.683 L72.1494 73.683 L72.1494 77.6182 L58.0754 77.6182 L58.0754 86.0903 Q59.0939 85.7431 60.1124 85.5811 Q61.131 85.3959 62.1495 85.3959 Q67.9365 85.3959 71.3161 88.5672 Q74.6957 91.7385 74.6957 97.1551 Q74.6957 102.734 71.2235 105.836 Q67.7513 108.914 61.4319 108.914 Q59.256 108.914 56.9875 108.544 Q54.7421 108.174 52.3347 107.433 L52.3347 102.734 Q54.418 103.868 56.6402 104.424 Q58.8625 104.979 61.3393 104.979 Q65.3439 104.979 67.6819 102.873 Q70.0198 100.766 70.0198 97.1551 Q70.0198 93.544 67.6819 91.4375 Q65.3439 89.3311 61.3393 89.3311 Q59.4643 89.3311 57.5893 89.7477 Q55.7375 90.1644 53.793 91.044 L53.793 73.683 Z" fill="#000000" fill-rule="nonzero" fill-opacity="1" /><path clip-path="url(#clip660)" d="M93.9086 76.7617 Q90.2975 76.7617 88.4688 80.3265 Q86.6632 83.8681 86.6632 90.9977 Q86.6632 98.1042 88.4688 101.669 Q90.2975 105.211 93.9086 105.211 Q97.5428 105.211 99.3483 101.669 Q101.177 98.1042 101.177 90.9977 Q101.177 83.8681 99.3483 80.3265 Q97.5428 76.7617 93.9086 76.7617 M93.9086 73.058 Q99.7187 73.058 102.774 77.6645 Q105.853 82.2478 105.853 90.9977 Q105.853 99.7245 102.774 104.331 Q99.7187 108.914 93.9086 108.914 Q88.0984 108.914 85.0197 104.331 Q81.9642 99.7245 81.9642 90.9977 Q81.9642 82.2478 85.0197 77.6645 Q88.0984 73.058 93.9086 73.058 Z" fill="#000000" fill-rule="nonzero" fill-opacity="1" /><path clip-path="url(#clip660)" d="M124.07 76.7617 Q120.459 76.7617 118.631 80.3265 Q116.825 83.8681 116.825 90.9977 Q116.825 98.1042 118.631 101.669 Q120.459 105.211 124.07 105.211 Q127.705 105.211 129.51 101.669 Q131.339 98.1042 131.339 90.9977 Q131.339 83.8681 129.51 80.3265 Q127.705 76.7617 124.07 76.7617 M124.07 73.058 Q129.881 73.058 132.936 77.6645 Q136.015 82.2478 136.015 90.9977 Q136.015 99.7245 132.936 104.331 Q129.881 108.914 124.07 108.914 Q118.26 108.914 115.182 104.331 Q112.126 99.7245 112.126 90.9977 Q112.126 82.2478 115.182 77.6645 Q118.26 73.058 124.07 73.058 Z" fill="#000000" fill-rule="nonzero" fill-opacity="1" /><polyline clip-path="url(#clip662)" style="stroke:#009af9; stroke-linecap:round; stroke-linejoin:round; stroke-width:4; stroke-opacity:1; fill:none" points="233.734,1443.01 250.192,1442.74 266.651,1442.47 283.109,1442.21 299.568,1441.96 316.026,1441.72 332.484,1441.48 348.943,1441.27 365.401,1441.07 381.86,1440.89 398.318,1440.74 414.777,1440.6 431.235,1440.49 447.693,1440.41 464.152,1440.35 480.61,1440.31 497.069,1440.31 513.527,1440.33 529.986,1440.38 546.444,1440.45 562.902,1440.55 579.361,1440.68 595.819,1440.83 612.278,1441 628.736,1441.19 645.194,1441.39 661.653,1441.62 678.111,1441.86 694.57,1442.11 711.028,1442.36 727.487,1442.63 743.945,1442.9 760.403,1443.17 776.862,1443.44 793.32,1443.7 809.779,1443.96 826.237,1444.21 842.696,1444.44 859.154,1444.67 875.612,1444.87 892.071,1445.06 908.529,1445.22 924.988,1445.37 941.446,1445.49 957.905,1445.58 974.363,1445.65 990.821,1445.7 1007.28,1445.72 1023.74,1445.71 1040.2,1445.67 1056.66,1445.6 1073.11,1445.52 1089.57,1445.4 1106.03,1445.26 1122.49,1445.1 1138.95,1444.92 1155.41,1444.72 1171.86,1444.5 1188.32,1444.27 1204.78,1444.02 1221.24,1443.77 1237.7,1443.5 1254.16,1443.24 1270.61,1442.97 1287.07,1442.7 1303.53,1442.43 1319.99,1442.17 1336.45,1441.92 1352.91,1441.68 1369.37,1441.45 1385.82,1441.24 1402.28,1441.04 1418.74,1440.87 1435.2,1440.71 1451.66,1440.58 1468.12,1440.48 1484.57,1440.39 1501.03,1440.34 1517.49,1440.31 1533.95,1440.31 1550.41,1440.34 1566.87,1440.39 1583.32,1440.47 1599.78,1440.57 1616.24,1440.7 1632.7,1440.85 1649.16,1441.03 1665.62,1441.22 1682.08,1441.43 1698.53,1441.66 1714.99,1441.9 1731.45,1442.15 1747.91,1442.41 1764.37,1442.68 1780.83,1442.94 1797.28,1443.21 1813.74,1443.48 1830.2,1443.75 1846.66,1444 1863.12,1444.25 1879.58,1444.48 1896.03,1444.7 1912.49,1444.9 1928.95,1445.09 1945.41,1445.25 1961.87,1445.39 1978.33,1445.51 1994.79,1445.6 2011.24,1445.66 2027.7,1445.7 2044.16,1445.72 2060.62,1445.7 2077.08,1445.66 2093.54,1445.59 2109.99,1445.5 2126.45,1445.38 2142.91,1445.24 2159.37,1445.07 2175.83,1444.89 2192.29,1444.68 2208.74,1444.46 2225.2,1444.23 2241.66,1443.98 2258.12,1443.72 2274.58,1443.46 2291.04,1443.19 "/>
<polyline clip-path="url(#clip662)" style="stroke:#e26f46; stroke-linecap:round; stroke-linejoin:round; stroke-width:4; stroke-opacity:1; fill:none" points="233.734,1443.01 250.192,1443.01 266.651,1443.01 283.109,1443 299.568,1443 316.026,1443 332.484,1443 348.943,1443 365.401,1443 381.86,1443 398.318,1443 414.777,1443 431.235,1442.99 447.693,1442.99 464.152,1442.99 480.61,1442.99 497.069,1442.99 513.527,1442.98 529.986,1442.98 546.444,1442.98 562.902,1442.97 579.361,1442.97 595.819,1442.97 612.278,1442.96 628.736,1442.96 645.194,1442.95 661.653,1442.94 678.111,1442.94 694.57,1442.93 711.028,1442.92 727.487,1442.91 743.945,1442.9 760.403,1442.89 776.862,1442.87 793.32,1442.86 809.779,1442.84 826.237,1442.83 842.696,1442.81 859.154,1442.79 875.612,1442.76 892.071,1442.74 908.529,1442.71 924.988,1442.67 941.446,1442.64 957.905,1442.6 974.363,1442.56 990.821,1442.51 1007.28,1442.46 1023.74,1442.4 1040.2,1442.33 1056.66,1442.26 1073.11,1442.18 1089.57,1442.1 1106.03,1442 1122.49,1441.89 1138.95,1441.78 1155.41,1441.65 1171.86,1441.5 1188.32,1441.34 1204.78,1441.17 1221.24,1440.97 1237.7,1440.76 1254.16,1440.52 1270.61,1440.26 1287.07,1439.97 1303.53,1439.65 1319.99,1439.3 1336.45,1438.91 1352.91,1438.48 1369.37,1438 1385.82,1437.47 1402.28,1436.89 1418.74,1436.25 1435.2,1435.54 1451.66,1434.75 1468.12,1433.88 1484.57,1432.92 1501.03,1431.86 1517.49,1430.69 1533.95,1429.39 1550.41,1427.96 1566.87,1426.38 1583.32,1424.63 1599.78,1422.69 1616.24,1420.56 1632.7,1418.19 1649.16,1415.58 1665.62,1412.7 1682.08,1409.51 1698.53,1405.99 1714.99,1402.09 1731.45,1397.79 1747.91,1393.03 1764.37,1387.78 1780.83,1381.97 1797.28,1375.55 1813.74,1368.45 1830.2,1360.61 1846.66,1351.95 1863.12,1342.37 1879.58,1331.78 1896.03,1320.09 1912.49,1307.16 1928.95,1292.87 1945.41,1277.08 1961.87,1259.63 1978.33,1240.34 1994.79,1219.03 2011.24,1195.47 2027.7,1169.43 2044.16,1140.66 2060.62,1108.86 2077.08,1073.72 2093.54,1034.88 2109.99,991.96 2126.45,944.522 2142.91,892.095 2159.37,834.155 2175.83,770.121 2192.29,699.352 2208.74,621.141 2225.2,534.704 2241.66,439.177 2258.12,333.603 2274.58,216.925 2291.04,87.9763 "/>
<path clip-path="url(#clip660)" d="M244.706 250.738 L688.173 250.738 L688.173 95.2176 L244.706 95.2176  Z" fill="#ffffff" fill-rule="evenodd" fill-opacity="1"/>
<polyline clip-path="url(#clip660)" style="stroke:#000000; stroke-linecap:round; stroke-linejoin:round; stroke-width:4; stroke-opacity:1; fill:none" points="244.706,250.738 688.173,250.738 688.173,95.2176 244.706,95.2176 244.706,250.738 "/>
<polyline clip-path="url(#clip660)" style="stroke:#009af9; stroke-linecap:round; stroke-linejoin:round; stroke-width:4; stroke-opacity:1; fill:none" points="268.937,147.058 414.319,147.058 "/>
<path clip-path="url(#clip660)" d="M452.392 166.745 Q450.587 171.375 448.874 172.787 Q447.161 174.199 444.291 174.199 L440.888 174.199 L440.888 170.634 L443.388 170.634 Q445.147 170.634 446.119 169.8 Q447.091 168.967 448.272 165.865 L449.036 163.921 L438.55 138.412 L443.064 138.412 L451.166 158.689 L459.267 138.412 L463.781 138.412 L452.392 166.745 Z" fill="#000000" fill-rule="nonzero" fill-opacity="1" /><path clip-path="url(#clip660)" d="M485.286 142.81 L514.961 142.81 L514.961 146.699 L485.286 146.699 L485.286 142.81 M485.286 152.254 L514.961 152.254 L514.961 156.189 L485.286 156.189 L485.286 152.254 Z" fill="#000000" fill-rule="nonzero" fill-opacity="1" /><path clip-path="url(#clip660)" d="M556.049 139.176 L556.049 143.203 Q554.244 142.277 552.299 141.815 Q550.355 141.352 548.271 141.352 Q545.1 141.352 543.503 142.324 Q541.929 143.296 541.929 145.24 Q541.929 146.722 543.063 147.578 Q544.197 148.412 547.623 149.176 L549.082 149.5 Q553.619 150.472 555.517 152.254 Q557.438 154.014 557.438 157.185 Q557.438 160.796 554.568 162.902 Q551.721 165.009 546.721 165.009 Q544.637 165.009 542.369 164.592 Q540.123 164.199 537.623 163.388 L537.623 158.99 Q539.984 160.217 542.276 160.842 Q544.568 161.444 546.813 161.444 Q549.822 161.444 551.443 160.426 Q553.063 159.384 553.063 157.509 Q553.063 155.773 551.883 154.847 Q550.725 153.921 546.767 153.064 L545.285 152.717 Q541.327 151.884 539.568 150.171 Q537.809 148.435 537.809 145.426 Q537.809 141.768 540.401 139.778 Q542.994 137.787 547.762 137.787 Q550.123 137.787 552.207 138.134 Q554.29 138.481 556.049 139.176 Z" fill="#000000" fill-rule="nonzero" fill-opacity="1" /><path clip-path="url(#clip660)" d="M564.22 138.412 L568.48 138.412 L568.48 164.338 L564.22 164.338 L564.22 138.412 M564.22 128.319 L568.48 128.319 L568.48 133.713 L564.22 133.713 L564.22 128.319 Z" fill="#000000" fill-rule="nonzero" fill-opacity="1" /><path clip-path="url(#clip660)" d="M598.942 148.689 L598.942 164.338 L594.683 164.338 L594.683 148.828 Q594.683 145.148 593.248 143.319 Q591.813 141.49 588.943 141.49 Q585.493 141.49 583.503 143.69 Q581.512 145.889 581.512 149.685 L581.512 164.338 L577.23 164.338 L577.23 138.412 L581.512 138.412 L581.512 142.44 Q583.04 140.102 585.1 138.944 Q587.183 137.787 589.892 137.787 Q594.359 137.787 596.651 140.565 Q598.942 143.319 598.942 148.689 Z" fill="#000000" fill-rule="nonzero" fill-opacity="1" /><path clip-path="url(#clip660)" d="M617.669 128.366 Q614.567 133.69 613.063 138.898 Q611.558 144.106 611.558 149.453 Q611.558 154.801 613.063 160.055 Q614.591 165.287 617.669 170.588 L613.966 170.588 Q610.493 165.148 608.757 159.893 Q607.044 154.639 607.044 149.453 Q607.044 144.291 608.757 139.06 Q610.47 133.828 613.966 128.366 L617.669 128.366 Z" fill="#000000" fill-rule="nonzero" fill-opacity="1" /><path clip-path="url(#clip660)" d="M647.484 138.412 L638.109 151.027 L647.97 164.338 L642.947 164.338 L635.401 154.152 L627.854 164.338 L622.831 164.338 L632.901 150.773 L623.688 138.412 L628.711 138.412 L635.586 147.648 L642.461 138.412 L647.484 138.412 Z" fill="#000000" fill-rule="nonzero" fill-opacity="1" /><path clip-path="url(#clip660)" d="M653.317 128.366 L657.021 128.366 Q660.493 133.828 662.206 139.06 Q663.942 144.291 663.942 149.453 Q663.942 154.639 662.206 159.893 Q660.493 165.148 657.021 170.588 L653.317 170.588 Q656.396 165.287 657.901 160.055 Q659.428 154.801 659.428 149.453 Q659.428 144.106 657.901 138.898 Q656.396 133.69 653.317 128.366 Z" fill="#000000" fill-rule="nonzero" fill-opacity="1" /><polyline clip-path="url(#clip660)" style="stroke:#e26f46; stroke-linecap:round; stroke-linejoin:round; stroke-width:4; stroke-opacity:1; fill:none" points="268.937,198.898 414.319,198.898 "/>
<path clip-path="url(#clip660)" d="M452.392 218.585 Q450.587 223.215 448.874 224.627 Q447.161 226.039 444.291 226.039 L440.888 226.039 L440.888 222.474 L443.388 222.474 Q445.147 222.474 446.119 221.64 Q447.091 220.807 448.272 217.705 L449.036 215.761 L438.55 190.252 L443.064 190.252 L451.166 210.529 L459.267 190.252 L463.781 190.252 L452.392 218.585 Z" fill="#000000" fill-rule="nonzero" fill-opacity="1" /><path clip-path="url(#clip660)" d="M485.286 194.65 L514.961 194.65 L514.961 198.539 L485.286 198.539 L485.286 194.65 M485.286 204.094 L514.961 204.094 L514.961 208.029 L485.286 208.029 L485.286 204.094 Z" fill="#000000" fill-rule="nonzero" fill-opacity="1" /><path clip-path="url(#clip660)" d="M561.697 202.15 L561.697 204.233 L542.114 204.233 Q542.392 208.631 544.753 210.946 Q547.137 213.238 551.373 213.238 Q553.827 213.238 556.119 212.636 Q558.433 212.034 560.702 210.83 L560.702 214.858 Q558.41 215.83 556.003 216.34 Q553.596 216.849 551.119 216.849 Q544.915 216.849 541.281 213.238 Q537.67 209.627 537.67 203.469 Q537.67 197.104 541.096 193.377 Q544.545 189.627 550.378 189.627 Q555.609 189.627 558.642 193.006 Q561.697 196.363 561.697 202.15 M557.438 200.9 Q557.392 197.405 555.471 195.321 Q553.572 193.238 550.424 193.238 Q546.859 193.238 544.707 195.252 Q542.577 197.266 542.253 200.923 L557.438 200.9 Z" fill="#000000" fill-rule="nonzero" fill-opacity="1" /><path clip-path="url(#clip660)" d="M586.35 181.618 L598.919 194.511 L594.267 194.511 L584.081 185.368 L573.896 194.511 L569.244 194.511 L581.813 181.618 L586.35 181.618 Z" fill="#000000" fill-rule="nonzero" fill-opacity="1" /><path clip-path="url(#clip660)" d="M629.961 190.252 L620.586 202.867 L630.447 216.178 L625.424 216.178 L617.878 205.992 L610.331 216.178 L605.308 216.178 L615.378 202.613 L606.165 190.252 L611.188 190.252 L618.063 199.488 L624.938 190.252 L629.961 190.252 Z" fill="#000000" fill-rule="nonzero" fill-opacity="1" /></svg>