<?xml version="1.0" encoding="utf-8"?>
<svg xmlns="http://www.w3.org/2000/svg" xmlns:xlink="http://www.w3.org/1999/xlink" width="600" height="400" viewBox="0 0 2400 1600">
<defs>
  <clipPath id="clip550">
    <rect x="0" y="0" width="2400" height="1600"/>
  </clipPath>
</defs>
<path clip-path="url(#clip550)" d="M0 1600 L2400 1600 L2400 0 L0 0  Z" fill="#ffffff" fill-rule="evenodd" fill-opacity="1"/>
<defs>
  <clipPath id="clip551">
    <rect x="480" y="0" width="1681" height="1600"/>
  </clipPath>
</defs>
<path clip-path="url(#clip550)" d="M235.283 1423.18 L2352.76 1423.18 L2352.76 123.472 L235.283 123.472  Z" fill="#ffffff" fill-rule="evenodd" fill-opacity="1"/>
<defs>
  <clipPath id="clip552">
    <rect x="235" y="123" width="2118" height="1301"/>
  </clipPath>
</defs>
<polyline clip-path="url(#clip552)" style="stroke:#000000; stroke-linecap:round; stroke-linejoin:round; stroke-width:2; stroke-opacity:0.1; fill:none" points="295.211,1423.18 295.211,123.472 "/>
<polyline clip-path="url(#clip552)" style="stroke:#000000; stroke-linecap:round; stroke-linejoin:round; stroke-width:2; stroke-opacity:0.1; fill:none" points="961.083,1423.18 961.083,123.472 "/>
<polyline clip-path="url(#clip552)" style="stroke:#000000; stroke-linecap:round; stroke-linejoin:round; stroke-width:2; stroke-opacity:0.1; fill:none" points="1626.96,1423.18 1626.96,123.472 "/>
<polyline clip-path="url(#clip552)" style="stroke:#000000; stroke-linecap:round; stroke-linejoin:round; stroke-width:2; stroke-opacity:0.1; fill:none" points="2292.83,1423.18 2292.83,123.472 "/>
<polyline clip-path="url(#clip550)" style="stroke:#000000; stroke-linecap:round; stroke-linejoin:round; stroke-width:4; stroke-opacity:1; fill:none" points="235.283,1423.18 2352.76,1423.18 "/>
<polyline clip-path="url(#clip550)" style="stroke:#000000; stroke-linecap:round; stroke-linejoin:round; stroke-width:4; stroke-opacity:1; fill:none" points="295.211,1423.18 295.211,1404.28 "/>
<polyline clip-path="url(#clip550)" style="stroke:#000000; stroke-linecap:round; stroke-linejoin:round; stroke-width:4; stroke-opacity:1; fill:none" points="961.083,1423.18 961.083,1404.28 "/>
<polyline clip-path="url(#clip550)" style="stroke:#000000; stroke-linecap:round; stroke-linejoin:round; stroke-width:4; stroke-opacity:1; fill:none" points="1626.96,1423.18 1626.96,1404.28 "/>
<polyline clip-path="url(#clip550)" style="stroke:#000000; stroke-linecap:round; stroke-linejoin:round; stroke-width:4; stroke-opacity:1; fill:none" points="2292.83,1423.18 2292.83,1404.28 "/>
<path clip-path="url(#clip550)" d="M167.006 1481.64 L183.325 1481.64 L183.325 1485.58 L161.381 1485.58 L161.381 1481.64 Q164.043 1478.89 168.626 1474.26 Q173.233 1469.61 174.413 1468.27 Q176.659 1465.74 177.538 1464.01 Q178.441 1462.25 178.441 1460.56 Q178.441 1457.8 176.497 1456.07 Q174.575 1454.33 171.474 1454.33 Q169.275 1454.33 166.821 1455.09 Q164.39 1455.86 161.613 1457.41 L161.613 1452.69 Q164.437 1451.55 166.89 1450.97 Q169.344 1450.39 171.381 1450.39 Q176.751 1450.39 179.946 1453.08 Q183.14 1455.77 183.14 1460.26 Q183.14 1462.39 182.33 1464.31 Q181.543 1466.2 179.436 1468.8 Q178.858 1469.47 175.756 1472.69 Q172.654 1475.88 167.006 1481.64 Z" fill="#000000" fill-rule="nonzero" fill-opacity="1" /><path clip-path="url(#clip550)" d="M203.14 1454.1 Q199.529 1454.1 197.7 1457.66 Q195.895 1461.2 195.895 1468.33 Q195.895 1475.44 197.7 1479.01 Q199.529 1482.55 203.14 1482.55 Q206.774 1482.55 208.58 1479.01 Q210.409 1475.44 210.409 1468.33 Q210.409 1461.2 208.58 1457.66 Q206.774 1454.1 203.14 1454.1 M203.14 1450.39 Q208.95 1450.39 212.006 1455 Q215.084 1459.58 215.084 1468.33 Q215.084 1477.06 212.006 1481.67 Q208.95 1486.25 203.14 1486.25 Q197.33 1486.25 194.251 1481.67 Q191.196 1477.06 191.196 1468.33 Q191.196 1459.58 194.251 1455 Q197.33 1450.39 203.14 1450.39 Z" fill="#000000" fill-rule="nonzero" fill-opacity="1" /><path clip-path="url(#clip550)" d="M227.33 1481.64 L243.649 1481.64 L243.649 1485.58 L221.705 1485.58 L221.705 1481.64 Q224.367 1478.89 228.95 1474.26 Q233.557 1469.61 234.737 1468.27 Q236.982 1465.74 237.862 1464.01 Q238.765 1462.25 238.765 1460.56 Q238.765 1457.8 236.82 1456.07 Q234.899 1454.33 231.797 1454.33 Q229.598 1454.33 227.145 1455.09 Q224.714 1455.86 221.936 1457.41 L221.936 1452.69 Q224.76 1451.55 227.214 1450.97 Q229.668 1450.39 231.705 1450.39 Q237.075 1450.39 240.269 1453.08 Q243.464 1455.77 243.464 1460.26 Q243.464 1462.39 242.654 1464.31 Q241.867 1466.2 239.76 1468.8 Q239.182 1469.47 236.08 1472.69 Q232.978 1475.88 227.33 1481.64 Z" fill="#000000" fill-rule="nonzero" fill-opacity="1" /><path clip-path="url(#clip550)" d="M267.63 1466.95 Q270.987 1467.66 272.862 1469.93 Q274.76 1472.2 274.76 1475.53 Q274.76 1480.65 271.242 1483.45 Q267.723 1486.25 261.242 1486.25 Q259.066 1486.25 256.751 1485.81 Q254.459 1485.39 252.006 1484.54 L252.006 1480.02 Q253.95 1481.16 256.265 1481.74 Q258.58 1482.32 261.103 1482.32 Q265.501 1482.32 267.792 1480.58 Q270.107 1478.84 270.107 1475.53 Q270.107 1472.48 267.955 1470.77 Q265.825 1469.03 262.005 1469.03 L257.978 1469.03 L257.978 1465.19 L262.191 1465.19 Q265.64 1465.19 267.468 1463.82 Q269.297 1462.43 269.297 1459.84 Q269.297 1457.18 267.399 1455.77 Q265.524 1454.33 262.005 1454.33 Q260.084 1454.33 257.885 1454.75 Q255.686 1455.16 253.047 1456.04 L253.047 1451.88 Q255.709 1451.14 258.024 1450.77 Q260.362 1450.39 262.422 1450.39 Q267.746 1450.39 270.848 1452.83 Q273.95 1455.23 273.95 1459.35 Q273.95 1462.22 272.306 1464.21 Q270.663 1466.18 267.63 1466.95 Z" fill="#000000" fill-rule="nonzero" fill-opacity="1" /><path clip-path="url(#clip550)" d="M280.871 1470.7 L293.348 1470.7 L293.348 1474.49 L280.871 1474.49 L280.871 1470.7 Z" fill="#000000" fill-rule="nonzero" fill-opacity="1" /><path clip-path="url(#clip550)" d="M310.732 1454.1 Q307.121 1454.1 305.292 1457.66 Q303.487 1461.2 303.487 1468.33 Q303.487 1475.44 305.292 1479.01 Q307.121 1482.55 310.732 1482.55 Q314.366 1482.55 316.172 1479.01 Q318.001 1475.44 318.001 1468.33 Q318.001 1461.2 316.172 1457.66 Q314.366 1454.1 310.732 1454.1 M310.732 1450.39 Q316.542 1450.39 319.598 1455 Q322.676 1459.58 322.676 1468.33 Q322.676 1477.06 319.598 1481.67 Q316.542 1486.25 310.732 1486.25 Q304.922 1486.25 301.843 1481.67 Q298.788 1477.06 298.788 1468.33 Q298.788 1459.58 301.843 1455 Q304.922 1450.39 310.732 1450.39 Z" fill="#000000" fill-rule="nonzero" fill-opacity="1" /><path clip-path="url(#clip550)" d="M331.704 1481.64 L339.343 1481.64 L339.343 1455.28 L331.033 1456.95 L331.033 1452.69 L339.297 1451.02 L343.973 1451.02 L343.973 1481.64 L351.611 1481.64 L351.611 1485.58 L331.704 1485.58 L331.704 1481.64 Z" fill="#000000" fill-rule="nonzero" fill-opacity="1" /><path clip-path="url(#clip550)" d="M358.301 1470.7 L370.778 1470.7 L370.778 1474.49 L358.301 1474.49 L358.301 1470.7 Z" fill="#000000" fill-rule="nonzero" fill-opacity="1" /><path clip-path="url(#clip550)" d="M388.162 1454.1 Q384.551 1454.1 382.722 1457.66 Q380.917 1461.2 380.917 1468.33 Q380.917 1475.44 382.722 1479.01 Q384.551 1482.55 388.162 1482.55 Q391.796 1482.55 393.602 1479.01 Q395.431 1475.44 395.431 1468.33 Q395.431 1461.2 393.602 1457.66 Q391.796 1454.1 388.162 1454.1 M388.162 1450.39 Q393.972 1450.39 397.028 1455 Q400.107 1459.58 400.107 1468.33 Q400.107 1477.06 397.028 1481.67 Q393.972 1486.25 388.162 1486.25 Q382.352 1486.25 379.273 1481.67 Q376.218 1477.06 376.218 1468.33 Q376.218 1459.58 379.273 1455 Q382.352 1450.39 388.162 1450.39 Z" fill="#000000" fill-rule="nonzero" fill-opacity="1" /><path clip-path="url(#clip550)" d="M409.134 1481.64 L416.773 1481.64 L416.773 1455.28 L408.463 1456.95 L408.463 1452.69 L416.727 1451.02 L421.403 1451.02 L421.403 1481.64 L429.042 1481.64 L429.042 1485.58 L409.134 1485.58 L409.134 1481.64 Z" fill="#000000" fill-rule="nonzero" fill-opacity="1" /><path clip-path="url(#clip550)" d="M833.063 1481.64 L849.383 1481.64 L849.383 1485.58 L827.438 1485.58 L827.438 1481.64 Q830.1 1478.89 834.684 1474.26 Q839.29 1469.61 840.471 1468.27 Q842.716 1465.74 843.596 1464.01 Q844.498 1462.25 844.498 1460.56 Q844.498 1457.8 842.554 1456.07 Q840.633 1454.33 837.531 1454.33 Q835.332 1454.33 832.878 1455.09 Q830.447 1455.86 827.67 1457.41 L827.67 1452.69 Q830.494 1451.55 832.947 1450.97 Q835.401 1450.39 837.438 1450.39 Q842.809 1450.39 846.003 1453.08 Q849.197 1455.77 849.197 1460.26 Q849.197 1462.39 848.387 1464.31 Q847.6 1466.2 845.494 1468.8 Q844.915 1469.47 841.813 1472.69 Q838.711 1475.88 833.063 1481.64 Z" fill="#000000" fill-rule="nonzero" fill-opacity="1" /><path clip-path="url(#clip550)" d="M869.197 1454.1 Q865.586 1454.1 863.757 1457.66 Q861.952 1461.2 861.952 1468.33 Q861.952 1475.44 863.757 1479.01 Q865.586 1482.55 869.197 1482.55 Q872.832 1482.55 874.637 1479.01 Q876.466 1475.44 876.466 1468.33 Q876.466 1461.2 874.637 1457.66 Q872.832 1454.1 869.197 1454.1 M869.197 1450.39 Q875.007 1450.39 878.063 1455 Q881.142 1459.58 881.142 1468.33 Q881.142 1477.06 878.063 1481.67 Q875.007 1486.25 869.197 1486.25 Q863.387 1486.25 860.308 1481.67 Q857.253 1477.06 857.253 1468.33 Q857.253 1459.58 860.308 1455 Q863.387 1450.39 869.197 1450.39 Z" fill="#000000" fill-rule="nonzero" fill-opacity="1" /><path clip-path="url(#clip550)" d="M893.387 1481.64 L909.706 1481.64 L909.706 1485.58 L887.762 1485.58 L887.762 1481.64 Q890.424 1478.89 895.007 1474.26 Q899.614 1469.61 900.794 1468.27 Q903.04 1465.74 903.919 1464.01 Q904.822 1462.25 904.822 1460.56 Q904.822 1457.8 902.878 1456.07 Q900.956 1454.33 897.855 1454.33 Q895.655 1454.33 893.202 1455.09 Q890.771 1455.86 887.993 1457.41 L887.993 1452.69 Q890.818 1451.55 893.271 1450.97 Q895.725 1450.39 897.762 1450.39 Q903.132 1450.39 906.327 1453.08 Q909.521 1455.77 909.521 1460.26 Q909.521 1462.39 908.711 1464.31 Q907.924 1466.2 905.817 1468.8 Q905.239 1469.47 902.137 1472.69 Q899.035 1475.88 893.387 1481.64 Z" fill="#000000" fill-rule="nonzero" fill-opacity="1" /><path clip-path="url(#clip550)" d="M933.688 1466.95 Q937.044 1467.66 938.919 1469.93 Q940.817 1472.2 940.817 1475.53 Q940.817 1480.65 937.299 1483.45 Q933.78 1486.25 927.299 1486.25 Q925.123 1486.25 922.808 1485.81 Q920.516 1485.39 918.063 1484.54 L918.063 1480.02 Q920.007 1481.16 922.322 1481.74 Q924.637 1482.32 927.16 1482.32 Q931.558 1482.32 933.85 1480.58 Q936.165 1478.84 936.165 1475.53 Q936.165 1472.48 934.012 1470.77 Q931.882 1469.03 928.063 1469.03 L924.035 1469.03 L924.035 1465.19 L928.248 1465.19 Q931.697 1465.19 933.526 1463.82 Q935.354 1462.43 935.354 1459.84 Q935.354 1457.18 933.456 1455.77 Q931.581 1454.33 928.063 1454.33 Q926.141 1454.33 923.942 1454.75 Q921.743 1455.16 919.104 1456.04 L919.104 1451.88 Q921.766 1451.14 924.081 1450.77 Q926.419 1450.39 928.479 1450.39 Q933.803 1450.39 936.905 1452.83 Q940.007 1455.23 940.007 1459.35 Q940.007 1462.22 938.364 1464.21 Q936.72 1466.18 933.688 1466.95 Z" fill="#000000" fill-rule="nonzero" fill-opacity="1" /><path clip-path="url(#clip550)" d="M946.928 1470.7 L959.405 1470.7 L959.405 1474.49 L946.928 1474.49 L946.928 1470.7 Z" fill="#000000" fill-rule="nonzero" fill-opacity="1" /><path clip-path="url(#clip550)" d="M976.789 1454.1 Q973.178 1454.1 971.35 1457.66 Q969.544 1461.2 969.544 1468.33 Q969.544 1475.44 971.35 1479.01 Q973.178 1482.55 976.789 1482.55 Q980.424 1482.55 982.229 1479.01 Q984.058 1475.44 984.058 1468.33 Q984.058 1461.2 982.229 1457.66 Q980.424 1454.1 976.789 1454.1 M976.789 1450.39 Q982.599 1450.39 985.655 1455 Q988.734 1459.58 988.734 1468.33 Q988.734 1477.06 985.655 1481.67 Q982.599 1486.25 976.789 1486.25 Q970.979 1486.25 967.9 1481.67 Q964.845 1477.06 964.845 1468.33 Q964.845 1459.58 967.9 1455 Q970.979 1450.39 976.789 1450.39 Z" fill="#000000" fill-rule="nonzero" fill-opacity="1" /><path clip-path="url(#clip550)" d="M997.761 1481.64 L1005.4 1481.64 L1005.4 1455.28 L997.09 1456.95 L997.09 1452.69 L1005.35 1451.02 L1010.03 1451.02 L1010.03 1481.64 L1017.67 1481.64 L1017.67 1485.58 L997.761 1485.58 L997.761 1481.64 Z" fill="#000000" fill-rule="nonzero" fill-opacity="1" /><path clip-path="url(#clip550)" d="M1024.36 1470.7 L1036.84 1470.7 L1036.84 1474.49 L1024.36 1474.49 L1024.36 1470.7 Z" fill="#000000" fill-rule="nonzero" fill-opacity="1" /><path clip-path="url(#clip550)" d="M1054.22 1454.1 Q1050.61 1454.1 1048.78 1457.66 Q1046.97 1461.2 1046.97 1468.33 Q1046.97 1475.44 1048.78 1479.01 Q1050.61 1482.55 1054.22 1482.55 Q1057.85 1482.55 1059.66 1479.01 Q1061.49 1475.44 1061.49 1468.33 Q1061.49 1461.2 1059.66 1457.66 Q1057.85 1454.1 1054.22 1454.1 M1054.22 1450.39 Q1060.03 1450.39 1063.09 1455 Q1066.16 1459.58 1066.16 1468.33 Q1066.16 1477.06 1063.09 1481.67 Q1060.03 1486.25 1054.22 1486.25 Q1048.41 1486.25 1045.33 1481.67 Q1042.28 1477.06 1042.28 1468.33 Q1042.28 1459.58 1045.33 1455 Q1048.41 1450.39 1054.22 1450.39 Z" fill="#000000" fill-rule="nonzero" fill-opacity="1" /><path clip-path="url(#clip550)" d="M1078.41 1481.64 L1094.73 1481.64 L1094.73 1485.58 L1072.78 1485.58 L1072.78 1481.64 Q1075.45 1478.89 1080.03 1474.26 Q1084.64 1469.61 1085.82 1468.27 Q1088.06 1465.74 1088.94 1464.01 Q1089.84 1462.25 1089.84 1460.56 Q1089.84 1457.8 1087.9 1456.07 Q1085.98 1454.33 1082.88 1454.33 Q1080.68 1454.33 1078.22 1455.09 Q1075.79 1455.86 1073.02 1457.41 L1073.02 1452.69 Q1075.84 1451.55 1078.29 1450.97 Q1080.75 1450.39 1082.78 1450.39 Q1088.15 1450.39 1091.35 1453.08 Q1094.54 1455.77 1094.54 1460.26 Q1094.54 1462.39 1093.73 1464.31 Q1092.95 1466.2 1090.84 1468.8 Q1090.26 1469.47 1087.16 1472.69 Q1084.06 1475.88 1078.41 1481.64 Z" fill="#000000" fill-rule="nonzero" fill-opacity="1" /><path clip-path="url(#clip550)" d="M1498.46 1481.64 L1514.78 1481.64 L1514.78 1485.58 L1492.84 1485.58 L1492.84 1481.64 Q1495.5 1478.89 1500.08 1474.26 Q1504.69 1469.61 1505.87 1468.27 Q1508.11 1465.74 1508.99 1464.01 Q1509.9 1462.25 1509.9 1460.56 Q1509.9 1457.8 1507.95 1456.07 Q1506.03 1454.33 1502.93 1454.33 Q1500.73 1454.33 1498.28 1455.09 Q1495.84 1455.86 1493.07 1457.41 L1493.07 1452.69 Q1495.89 1451.55 1498.34 1450.97 Q1500.8 1450.39 1502.84 1450.39 Q1508.21 1450.39 1511.4 1453.08 Q1514.59 1455.77 1514.59 1460.26 Q1514.59 1462.39 1513.78 1464.31 Q1513 1466.2 1510.89 1468.8 Q1510.31 1469.47 1507.21 1472.69 Q1504.11 1475.88 1498.46 1481.64 Z" fill="#000000" fill-rule="nonzero" fill-opacity="1" /><path clip-path="url(#clip550)" d="M1534.59 1454.1 Q1530.98 1454.1 1529.15 1457.66 Q1527.35 1461.2 1527.35 1468.33 Q1527.35 1475.44 1529.15 1479.01 Q1530.98 1482.55 1534.59 1482.55 Q1538.23 1482.55 1540.03 1479.01 Q1541.86 1475.44 1541.86 1468.33 Q1541.86 1461.2 1540.03 1457.66 Q1538.23 1454.1 1534.59 1454.1 M1534.59 1450.39 Q1540.4 1450.39 1543.46 1455 Q1546.54 1459.58 1546.54 1468.33 Q1546.54 1477.06 1543.46 1481.67 Q1540.4 1486.25 1534.59 1486.25 Q1528.78 1486.25 1525.71 1481.67 Q1522.65 1477.06 1522.65 1468.33 Q1522.65 1459.58 1525.71 1455 Q1528.78 1450.39 1534.59 1450.39 Z" fill="#000000" fill-rule="nonzero" fill-opacity="1" /><path clip-path="url(#clip550)" d="M1558.78 1481.64 L1575.1 1481.64 L1575.1 1485.58 L1553.16 1485.58 L1553.16 1481.64 Q1555.82 1478.89 1560.4 1474.26 Q1565.01 1469.61 1566.19 1468.27 Q1568.44 1465.74 1569.32 1464.01 Q1570.22 1462.25 1570.22 1460.56 Q1570.22 1457.8 1568.28 1456.07 Q1566.35 1454.33 1563.25 1454.33 Q1561.05 1454.33 1558.6 1455.09 Q1556.17 1455.86 1553.39 1457.41 L1553.39 1452.69 Q1556.22 1451.55 1558.67 1450.97 Q1561.12 1450.39 1563.16 1450.39 Q1568.53 1450.39 1571.72 1453.08 Q1574.92 1455.77 1574.92 1460.26 Q1574.92 1462.39 1574.11 1464.31 Q1573.32 1466.2 1571.21 1468.8 Q1570.64 1469.47 1567.53 1472.69 Q1564.43 1475.88 1558.78 1481.64 Z" fill="#000000" fill-rule="nonzero" fill-opacity="1" /><path clip-path="url(#clip550)" d="M1599.09 1466.95 Q1602.44 1467.66 1604.32 1469.93 Q1606.21 1472.2 1606.21 1475.53 Q1606.21 1480.65 1602.7 1483.45 Q1599.18 1486.25 1592.7 1486.25 Q1590.52 1486.25 1588.21 1485.81 Q1585.91 1485.39 1583.46 1484.54 L1583.46 1480.02 Q1585.4 1481.16 1587.72 1481.74 Q1590.03 1482.32 1592.56 1482.32 Q1596.96 1482.32 1599.25 1480.58 Q1601.56 1478.84 1601.56 1475.53 Q1601.56 1472.48 1599.41 1470.77 Q1597.28 1469.03 1593.46 1469.03 L1589.43 1469.03 L1589.43 1465.19 L1593.65 1465.19 Q1597.09 1465.19 1598.92 1463.82 Q1600.75 1462.43 1600.75 1459.84 Q1600.75 1457.18 1598.85 1455.77 Q1596.98 1454.33 1593.46 1454.33 Q1591.54 1454.33 1589.34 1454.75 Q1587.14 1455.16 1584.5 1456.04 L1584.5 1451.88 Q1587.16 1451.14 1589.48 1450.77 Q1591.82 1450.39 1593.88 1450.39 Q1599.2 1450.39 1602.3 1452.83 Q1605.4 1455.23 1605.4 1459.35 Q1605.4 1462.22 1603.76 1464.21 Q1602.12 1466.18 1599.09 1466.95 Z" fill="#000000" fill-rule="nonzero" fill-opacity="1" /><path clip-path="url(#clip550)" d="M1612.33 1470.7 L1624.8 1470.7 L1624.8 1474.49 L1612.33 1474.49 L1612.33 1470.7 Z" fill="#000000" fill-rule="nonzero" fill-opacity="1" /><path clip-path="url(#clip550)" d="M1642.19 1454.1 Q1638.58 1454.1 1636.75 1457.66 Q1634.94 1461.2 1634.94 1468.33 Q1634.94 1475.44 1636.75 1479.01 Q1638.58 1482.55 1642.19 1482.55 Q1645.82 1482.55 1647.63 1479.01 Q1649.46 1475.44 1649.46 1468.33 Q1649.46 1461.2 1647.63 1457.66 Q1645.82 1454.1 1642.19 1454.1 M1642.19 1450.39 Q1648 1450.39 1651.05 1455 Q1654.13 1459.58 1654.13 1468.33 Q1654.13 1477.06 1651.05 1481.67 Q1648 1486.25 1642.19 1486.25 Q1636.38 1486.25 1633.3 1481.67 Q1630.24 1477.06 1630.24 1468.33 Q1630.24 1459.58 1633.3 1455 Q1636.38 1450.39 1642.19 1450.39 Z" fill="#000000" fill-rule="nonzero" fill-opacity="1" /><path clip-path="url(#clip550)" d="M1663.16 1481.64 L1670.8 1481.64 L1670.8 1455.28 L1662.49 1456.95 L1662.49 1452.69 L1670.75 1451.02 L1675.43 1451.02 L1675.43 1481.64 L1683.07 1481.64 L1683.07 1485.58 L1663.16 1485.58 L1663.16 1481.64 Z" fill="#000000" fill-rule="nonzero" fill-opacity="1" /><path clip-path="url(#clip550)" d="M1689.76 1470.7 L1702.23 1470.7 L1702.23 1474.49 L1689.76 1474.49 L1689.76 1470.7 Z" fill="#000000" fill-rule="nonzero" fill-opacity="1" /><path clip-path="url(#clip550)" d="M1719.62 1454.1 Q1716.01 1454.1 1714.18 1457.66 Q1712.37 1461.2 1712.37 1468.33 Q1712.37 1475.44 1714.18 1479.01 Q1716.01 1482.55 1719.62 1482.55 Q1723.25 1482.55 1725.06 1479.01 Q1726.89 1475.44 1726.89 1468.33 Q1726.89 1461.2 1725.06 1457.66 Q1723.25 1454.1 1719.62 1454.1 M1719.62 1450.39 Q1725.43 1450.39 1728.48 1455 Q1731.56 1459.58 1731.56 1468.33 Q1731.56 1477.06 1728.48 1481.67 Q1725.43 1486.25 1719.62 1486.25 Q1713.81 1486.25 1710.73 1481.67 Q1707.67 1477.06 1707.67 1468.33 Q1707.67 1459.58 1710.73 1455 Q1713.81 1450.39 1719.62 1450.39 Z" fill="#000000" fill-rule="nonzero" fill-opacity="1" /><path clip-path="url(#clip550)" d="M1753.95 1466.95 Q1757.3 1467.66 1759.18 1469.93 Q1761.08 1472.2 1761.08 1475.53 Q1761.08 1480.65 1757.56 1483.45 Q1754.04 1486.25 1747.56 1486.25 Q1745.38 1486.25 1743.07 1485.81 Q1740.77 1485.39 1738.32 1484.54 L1738.32 1480.02 Q1740.26 1481.16 1742.58 1481.74 Q1744.89 1482.32 1747.42 1482.32 Q1751.82 1482.32 1754.11 1480.58 Q1756.42 1478.84 1756.42 1475.53 Q1756.42 1472.48 1754.27 1470.77 Q1752.14 1469.03 1748.32 1469.03 L1744.29 1469.03 L1744.29 1465.19 L1748.51 1465.19 Q1751.95 1465.19 1753.78 1463.82 Q1755.61 1462.43 1755.61 1459.84 Q1755.61 1457.18 1753.71 1455.77 Q1751.84 1454.33 1748.32 1454.33 Q1746.4 1454.33 1744.2 1454.75 Q1742 1455.16 1739.36 1456.04 L1739.36 1451.88 Q1742.02 1451.14 1744.34 1450.77 Q1746.68 1450.39 1748.74 1450.39 Q1754.06 1450.39 1757.16 1452.83 Q1760.26 1455.23 1760.26 1459.35 Q1760.26 1462.22 1758.62 1464.21 Q1756.98 1466.18 1753.95 1466.95 Z" fill="#000000" fill-rule="nonzero" fill-opacity="1" /><path clip-path="url(#clip550)" d="M2163.77 1481.64 L2180.08 1481.64 L2180.08 1485.58 L2158.14 1485.58 L2158.14 1481.64 Q2160.8 1478.89 2165.39 1474.26 Q2169.99 1469.61 2171.17 1468.27 Q2173.42 1465.74 2174.3 1464.01 Q2175.2 1462.25 2175.2 1460.56 Q2175.2 1457.8 2173.26 1456.07 Q2171.34 1454.33 2168.23 1454.33 Q2166.03 1454.33 2163.58 1455.09 Q2161.15 1455.86 2158.37 1457.41 L2158.37 1452.69 Q2161.2 1451.55 2163.65 1450.97 Q2166.1 1450.39 2168.14 1450.39 Q2173.51 1450.39 2176.71 1453.08 Q2179.9 1455.77 2179.9 1460.26 Q2179.9 1462.39 2179.09 1464.31 Q2178.3 1466.2 2176.2 1468.8 Q2175.62 1469.47 2172.52 1472.69 Q2169.41 1475.88 2163.77 1481.64 Z" fill="#000000" fill-rule="nonzero" fill-opacity="1" /><path clip-path="url(#clip550)" d="M2199.9 1454.1 Q2196.29 1454.1 2194.46 1457.66 Q2192.65 1461.2 2192.65 1468.33 Q2192.65 1475.44 2194.46 1479.01 Q2196.29 1482.55 2199.9 1482.55 Q2203.53 1482.55 2205.34 1479.01 Q2207.17 1475.44 2207.17 1468.33 Q2207.17 1461.2 2205.34 1457.66 Q2203.53 1454.1 2199.9 1454.1 M2199.9 1450.39 Q2205.71 1450.39 2208.77 1455 Q2211.84 1459.58 2211.84 1468.33 Q2211.84 1477.06 2208.77 1481.67 Q2205.71 1486.25 2199.9 1486.25 Q2194.09 1486.25 2191.01 1481.67 Q2187.96 1477.06 2187.96 1468.33 Q2187.96 1459.58 2191.01 1455 Q2194.09 1450.39 2199.9 1450.39 Z" fill="#000000" fill-rule="nonzero" fill-opacity="1" /><path clip-path="url(#clip550)" d="M2224.09 1481.64 L2240.41 1481.64 L2240.41 1485.58 L2218.46 1485.58 L2218.46 1481.64 Q2221.13 1478.89 2225.71 1474.26 Q2230.32 1469.61 2231.5 1468.27 Q2233.74 1465.74 2234.62 1464.01 Q2235.52 1462.25 2235.52 1460.56 Q2235.52 1457.8 2233.58 1456.07 Q2231.66 1454.33 2228.56 1454.33 Q2226.36 1454.33 2223.9 1455.09 Q2221.47 1455.86 2218.7 1457.41 L2218.7 1452.69 Q2221.52 1451.55 2223.97 1450.97 Q2226.43 1450.39 2228.46 1450.39 Q2233.83 1450.39 2237.03 1453.08 Q2240.22 1455.77 2240.22 1460.26 Q2240.22 1462.39 2239.41 1464.31 Q2238.63 1466.2 2236.52 1468.8 Q2235.94 1469.47 2232.84 1472.69 Q2229.74 1475.88 2224.09 1481.64 Z" fill="#000000" fill-rule="nonzero" fill-opacity="1" /><path clip-path="url(#clip550)" d="M2264.39 1466.95 Q2267.75 1467.66 2269.62 1469.93 Q2271.52 1472.2 2271.52 1475.53 Q2271.52 1480.65 2268 1483.45 Q2264.48 1486.25 2258 1486.25 Q2255.83 1486.25 2253.51 1485.81 Q2251.22 1485.39 2248.77 1484.54 L2248.77 1480.02 Q2250.71 1481.16 2253.02 1481.74 Q2255.34 1482.32 2257.86 1482.32 Q2262.26 1482.32 2264.55 1480.58 Q2266.87 1478.84 2266.87 1475.53 Q2266.87 1472.48 2264.71 1470.77 Q2262.58 1469.03 2258.77 1469.03 L2254.74 1469.03 L2254.74 1465.19 L2258.95 1465.19 Q2262.4 1465.19 2264.23 1463.82 Q2266.06 1462.43 2266.06 1459.84 Q2266.06 1457.18 2264.16 1455.77 Q2262.28 1454.33 2258.77 1454.33 Q2256.84 1454.33 2254.64 1454.75 Q2252.45 1455.16 2249.81 1456.04 L2249.81 1451.88 Q2252.47 1451.14 2254.78 1450.77 Q2257.12 1450.39 2259.18 1450.39 Q2264.51 1450.39 2267.61 1452.83 Q2270.71 1455.23 2270.71 1459.35 Q2270.71 1462.22 2269.07 1464.21 Q2267.42 1466.18 2264.39 1466.95 Z" fill="#000000" fill-rule="nonzero" fill-opacity="1" /><path clip-path="url(#clip550)" d="M2277.63 1470.7 L2290.11 1470.7 L2290.11 1474.49 L2277.63 1474.49 L2277.63 1470.7 Z" fill="#000000" fill-rule="nonzero" fill-opacity="1" /><path clip-path="url(#clip550)" d="M2307.49 1454.1 Q2303.88 1454.1 2302.05 1457.66 Q2300.25 1461.2 2300.25 1468.33 Q2300.25 1475.44 2302.05 1479.01 Q2303.88 1482.55 2307.49 1482.55 Q2311.13 1482.55 2312.93 1479.01 Q2314.76 1475.44 2314.76 1468.33 Q2314.76 1461.2 2312.93 1457.66 Q2311.13 1454.1 2307.49 1454.1 M2307.49 1450.39 Q2313.3 1450.39 2316.36 1455 Q2319.44 1459.58 2319.44 1468.33 Q2319.44 1477.06 2316.36 1481.67 Q2313.3 1486.25 2307.49 1486.25 Q2301.68 1486.25 2298.6 1481.67 Q2295.55 1477.06 2295.55 1468.33 Q2295.55 1459.58 2298.6 1455 Q2301.68 1450.39 2307.49 1450.39 Z" fill="#000000" fill-rule="nonzero" fill-opacity="1" /><path clip-path="url(#clip550)" d="M2328.46 1481.64 L2336.1 1481.64 L2336.1 1455.28 L2327.79 1456.95 L2327.79 1452.69 L2336.06 1451.02 L2340.73 1451.02 L2340.73 1481.64 L2348.37 1481.64 L2348.37 1485.58 L2328.46 1485.58 L2328.46 1481.64 Z" fill="#000000" fill-rule="nonzero" fill-opacity="1" /><path clip-path="url(#clip550)" d="M2355.06 1470.7 L2367.54 1470.7 L2367.54 1474.49 L2355.06 1474.49 L2355.06 1470.7 Z" fill="#000000" fill-rule="nonzero" fill-opacity="1" /><path clip-path="url(#clip550)" d="M2384.92 1454.1 Q2381.31 1454.1 2379.48 1457.66 Q2377.68 1461.2 2377.68 1468.33 Q2377.68 1475.44 2379.48 1479.01 Q2381.31 1482.55 2384.92 1482.55 Q2388.56 1482.55 2390.36 1479.01 Q2392.19 1475.44 2392.19 1468.33 Q2392.19 1461.2 2390.36 1457.66 Q2388.56 1454.1 2384.92 1454.1 M2384.92 1450.39 Q2390.73 1450.39 2393.79 1455 Q2396.87 1459.58 2396.87 1468.33 Q2396.87 1477.06 2393.79 1481.67 Q2390.73 1486.25 2384.92 1486.25 Q2379.11 1486.25 2376.03 1481.67 Q2372.98 1477.06 2372.98 1468.33 Q2372.98 1459.58 2376.03 1455 Q2379.11 1450.39 2384.92 1450.39 Z" fill="#000000" fill-rule="nonzero" fill-opacity="1" /><path clip-path="url(#clip550)" d="M2417.93 1455.09 L2406.13 1473.54 L2417.93 1473.54 L2417.93 1455.09 M2416.7 1451.02 L2422.58 1451.02 L2422.58 1473.54 L2427.51 1473.54 L2427.51 1477.43 L2422.58 1477.43 L2422.58 1485.58 L2417.93 1485.58 L2417.93 1477.43 L2402.33 1477.43 L2402.33 1472.92 L2416.7 1451.02 Z" fill="#000000" fill-rule="nonzero" fill-opacity="1" /><path clip-path="url(#clip550)" d="M1227.64 1525.81 L1227.64 1562.76 L1235.41 1562.76 Q1245.24 1562.76 1249.79 1558.3 Q1254.38 1553.85 1254.38 1544.24 Q1254.38 1534.69 1249.79 1530.26 Q1245.24 1525.81 1235.41 1525.81 L1227.64 1525.81 M1221.21 1520.52 L1234.42 1520.52 Q1248.23 1520.52 1254.7 1526.28 Q1261.16 1532.01 1261.16 1544.24 Q1261.16 1556.52 1254.66 1562.28 Q1248.17 1568.04 1234.42 1568.04 L1221.21 1568.04 L1221.21 1520.52 Z" fill="#000000" fill-rule="nonzero" fill-opacity="1" /><path clip-path="url(#clip550)" d="M1287.35 1550.12 Q1280.25 1550.12 1277.52 1551.75 Q1274.78 1553.37 1274.78 1557.29 Q1274.78 1560.4 1276.82 1562.25 Q1278.88 1564.07 1282.42 1564.07 Q1287.29 1564.07 1290.22 1560.63 Q1293.18 1557.16 1293.18 1551.43 L1293.18 1550.12 L1287.35 1550.12 M1299.03 1547.71 L1299.03 1568.04 L1293.18 1568.04 L1293.18 1562.63 Q1291.17 1565.88 1288.18 1567.44 Q1285.19 1568.97 1280.86 1568.97 Q1275.38 1568.97 1272.14 1565.91 Q1268.92 1562.82 1268.92 1557.67 Q1268.92 1551.65 1272.93 1548.6 Q1276.98 1545.54 1284.96 1545.54 L1293.18 1545.54 L1293.18 1544.97 Q1293.18 1540.93 1290.5 1538.73 Q1287.86 1536.5 1283.05 1536.5 Q1280 1536.5 1277.1 1537.23 Q1274.21 1537.97 1271.53 1539.43 L1271.53 1534.02 Q1274.75 1532.78 1277.77 1532.17 Q1280.79 1531.54 1283.66 1531.54 Q1291.39 1531.54 1295.21 1535.55 Q1299.03 1539.56 1299.03 1547.71 Z" fill="#000000" fill-rule="nonzero" fill-opacity="1" /><path clip-path="url(#clip550)" d="M1316.89 1522.27 L1316.89 1532.4 L1328.95 1532.4 L1328.95 1536.95 L1316.89 1536.95 L1316.89 1556.3 Q1316.89 1560.66 1318.07 1561.9 Q1319.28 1563.14 1322.94 1563.14 L1328.95 1563.14 L1328.95 1568.04 L1322.94 1568.04 Q1316.16 1568.04 1313.58 1565.53 Q1311 1562.98 1311 1556.3 L1311 1536.95 L1306.7 1536.95 L1306.7 1532.4 L1311 1532.4 L1311 1522.27 L1316.89 1522.27 Z" fill="#000000" fill-rule="nonzero" fill-opacity="1" /><path clip-path="url(#clip550)" d="M1350.47 1536.5 Q1345.76 1536.5 1343.02 1540.19 Q1340.28 1543.85 1340.28 1550.25 Q1340.28 1556.65 1342.99 1560.34 Q1345.72 1564 1350.47 1564 Q1355.15 1564 1357.88 1560.31 Q1360.62 1556.62 1360.62 1550.25 Q1360.62 1543.92 1357.88 1540.23 Q1355.15 1536.5 1350.47 1536.5 M1350.47 1531.54 Q1358.11 1531.54 1362.47 1536.5 Q1366.83 1541.47 1366.83 1550.25 Q1366.83 1559 1362.47 1564 Q1358.11 1568.97 1350.47 1568.97 Q1342.8 1568.97 1338.44 1564 Q1334.11 1559 1334.11 1550.25 Q1334.11 1541.47 1338.44 1536.5 Q1342.8 1531.54 1350.47 1531.54 Z" fill="#000000" fill-rule="nonzero" fill-opacity="1" /><polyline clip-path="url(#clip552)" style="stroke:#000000; stroke-linecap:round; stroke-linejoin:round; stroke-width:2; stroke-opacity:0.1; fill:none" points="235.283,1386.4 2352.76,1386.4 "/>
<polyline clip-path="url(#clip552)" style="stroke:#000000; stroke-linecap:round; stroke-linejoin:round; stroke-width:2; stroke-opacity:0.1; fill:none" points="235.283,1079.86 2352.76,1079.86 "/>
<polyline clip-path="url(#clip552)" style="stroke:#000000; stroke-linecap:round; stroke-linejoin:round; stroke-width:2; stroke-opacity:0.1; fill:none" points="235.283,773.326 2352.76,773.326 "/>
<polyline clip-path="url(#clip552)" style="stroke:#000000; stroke-linecap:round; stroke-linejoin:round; stroke-width:2; stroke-opacity:0.1; fill:none" points="235.283,466.791 2352.76,466.791 "/>
<polyline clip-path="url(#clip552)" style="stroke:#000000; stroke-linecap:round; stroke-linejoin:round; stroke-width:2; stroke-opacity:0.1; fill:none" points="235.283,160.256 2352.76,160.256 "/>
<polyline clip-path="url(#clip550)" style="stroke:#000000; stroke-linecap:round; stroke-linejoin:round; stroke-width:4; stroke-opacity:1; fill:none" points="235.283,1423.18 235.283,123.472 "/>
<polyline clip-path="url(#clip550)" style="stroke:#000000; stroke-linecap:round; stroke-linejoin:round; stroke-width:4; stroke-opacity:1; fill:none" points="235.283,1386.4 254.18,1386.4 "/>
<polyline clip-path="url(#clip550)" style="stroke:#000000; stroke-linecap:round; stroke-linejoin:round; stroke-width:4; stroke-opacity:1; fill:none" points="235.283,1079.86 254.18,1079.86 "/>
<polyline clip-path="url(#clip550)" style="stroke:#000000; stroke-linecap:round; stroke-linejoin:round; stroke-width:4; stroke-opacity:1; fill:none" points="235.283,773.326 254.18,773.326 "/>
<polyline clip-path="url(#clip550)" style="stroke:#000000; stroke-linecap:round; stroke-linejoin:round; stroke-width:4; stroke-opacity:1; fill:none" points="235.283,466.791 254.18,466.791 "/>
<polyline clip-path="url(#clip550)" style="stroke:#000000; stroke-linecap:round; stroke-linejoin:round; stroke-width:4; stroke-opacity:1; fill:none" points="235.283,160.256 254.18,160.256 "/>
<path clip-path="url(#clip550)" d="M121.043 1399.74 L137.362 1399.74 L137.362 1403.68 L115.418 1403.68 L115.418 1399.74 Q118.08 1396.99 122.663 1392.36 Q127.269 1387.7 128.45 1386.36 Q130.695 1383.84 131.575 1382.1 Q132.478 1380.34 132.478 1378.65 Q132.478 1375.9 130.533 1374.16 Q128.612 1372.43 125.51 1372.43 Q123.311 1372.43 120.857 1373.19 Q118.427 1373.95 115.649 1375.5 L115.649 1370.78 Q118.473 1369.65 120.927 1369.07 Q123.38 1368.49 125.418 1368.49 Q130.788 1368.49 133.982 1371.18 Q137.177 1373.86 137.177 1378.35 Q137.177 1380.48 136.367 1382.4 Q135.579 1384.3 133.473 1386.89 Q132.894 1387.56 129.792 1390.78 Q126.691 1393.98 121.043 1399.74 Z" fill="#000000" fill-rule="nonzero" fill-opacity="1" /><path clip-path="url(#clip550)" d="M157.177 1372.19 Q153.566 1372.19 151.737 1375.76 Q149.931 1379.3 149.931 1386.43 Q149.931 1393.54 151.737 1397.1 Q153.566 1400.64 157.177 1400.64 Q160.811 1400.64 162.616 1397.1 Q164.445 1393.54 164.445 1386.43 Q164.445 1379.3 162.616 1375.76 Q160.811 1372.19 157.177 1372.19 M157.177 1368.49 Q162.987 1368.49 166.042 1373.1 Q169.121 1377.68 169.121 1386.43 Q169.121 1395.16 166.042 1399.76 Q162.987 1404.35 157.177 1404.35 Q151.366 1404.35 148.288 1399.76 Q145.232 1395.16 145.232 1386.43 Q145.232 1377.68 148.288 1373.1 Q151.366 1368.49 157.177 1368.49 Z" fill="#000000" fill-rule="nonzero" fill-opacity="1" /><path clip-path="url(#clip550)" d="M187.338 1372.19 Q183.727 1372.19 181.899 1375.76 Q180.093 1379.3 180.093 1386.43 Q180.093 1393.54 181.899 1397.1 Q183.727 1400.64 187.338 1400.64 Q190.973 1400.64 192.778 1397.1 Q194.607 1393.54 194.607 1386.43 Q194.607 1379.3 192.778 1375.76 Q190.973 1372.19 187.338 1372.19 M187.338 1368.49 Q193.149 1368.49 196.204 1373.1 Q199.283 1377.68 199.283 1386.43 Q199.283 1395.16 196.204 1399.76 Q193.149 1404.35 187.338 1404.35 Q181.528 1404.35 178.45 1399.76 Q175.394 1395.16 175.394 1386.43 Q175.394 1377.68 178.45 1373.1 Q181.528 1368.49 187.338 1368.49 Z" fill="#000000" fill-rule="nonzero" fill-opacity="1" /><path clip-path="url(#clip550)" d="M131.181 1078.51 Q134.538 1079.22 136.413 1081.49 Q138.311 1083.76 138.311 1087.09 Q138.311 1092.21 134.792 1095.01 Q131.274 1097.81 124.793 1097.81 Q122.617 1097.81 120.302 1097.37 Q118.01 1096.96 115.556 1096.1 L115.556 1091.59 Q117.501 1092.72 119.816 1093.3 Q122.13 1093.88 124.654 1093.88 Q129.052 1093.88 131.343 1092.14 Q133.658 1090.4 133.658 1087.09 Q133.658 1084.04 131.505 1082.33 Q129.376 1080.59 125.556 1080.59 L121.529 1080.59 L121.529 1076.75 L125.742 1076.75 Q129.191 1076.75 131.019 1075.38 Q132.848 1073.99 132.848 1071.4 Q132.848 1068.74 130.95 1067.33 Q129.075 1065.89 125.556 1065.89 Q123.635 1065.89 121.436 1066.31 Q119.237 1066.72 116.598 1067.6 L116.598 1063.44 Q119.26 1062.7 121.575 1062.33 Q123.913 1061.96 125.973 1061.96 Q131.297 1061.96 134.399 1064.39 Q137.501 1066.79 137.501 1070.91 Q137.501 1073.78 135.857 1075.78 Q134.214 1077.74 131.181 1078.51 Z" fill="#000000" fill-rule="nonzero" fill-opacity="1" /><path clip-path="url(#clip550)" d="M157.177 1065.66 Q153.566 1065.66 151.737 1069.22 Q149.931 1072.77 149.931 1079.9 Q149.931 1087 151.737 1090.57 Q153.566 1094.11 157.177 1094.11 Q160.811 1094.11 162.616 1090.57 Q164.445 1087 164.445 1079.9 Q164.445 1072.77 162.616 1069.22 Q160.811 1065.66 157.177 1065.66 M157.177 1061.96 Q162.987 1061.96 166.042 1066.56 Q169.121 1071.15 169.121 1079.9 Q169.121 1088.62 166.042 1093.23 Q162.987 1097.81 157.177 1097.81 Q151.366 1097.81 148.288 1093.23 Q145.232 1088.62 145.232 1079.9 Q145.232 1071.15 148.288 1066.56 Q151.366 1061.96 157.177 1061.96 Z" fill="#000000" fill-rule="nonzero" fill-opacity="1" /><path clip-path="url(#clip550)" d="M187.338 1065.66 Q183.727 1065.66 181.899 1069.22 Q180.093 1072.77 180.093 1079.9 Q180.093 1087 181.899 1090.57 Q183.727 1094.11 187.338 1094.11 Q190.973 1094.11 192.778 1090.57 Q194.607 1087 194.607 1079.9 Q194.607 1072.77 192.778 1069.22 Q190.973 1065.66 187.338 1065.66 M187.338 1061.96 Q193.149 1061.96 196.204 1066.56 Q199.283 1071.15 199.283 1079.9 Q199.283 1088.62 196.204 1093.23 Q193.149 1097.81 187.338 1097.81 Q181.528 1097.81 178.45 1093.23 Q175.394 1088.62 175.394 1079.9 Q175.394 1071.15 178.45 1066.56 Q181.528 1061.96 187.338 1061.96 Z" fill="#000000" fill-rule="nonzero" fill-opacity="1" /><path clip-path="url(#clip550)" d="M129.862 760.12 L118.056 778.569 L129.862 778.569 L129.862 760.12 M128.635 756.046 L134.515 756.046 L134.515 778.569 L139.445 778.569 L139.445 782.458 L134.515 782.458 L134.515 790.606 L129.862 790.606 L129.862 782.458 L114.26 782.458 L114.26 777.944 L128.635 756.046 Z" fill="#000000" fill-rule="nonzero" fill-opacity="1" /><path clip-path="url(#clip550)" d="M157.177 759.125 Q153.566 759.125 151.737 762.689 Q149.931 766.231 149.931 773.361 Q149.931 780.467 151.737 784.032 Q153.566 787.574 157.177 787.574 Q160.811 787.574 162.616 784.032 Q164.445 780.467 164.445 773.361 Q164.445 766.231 162.616 762.689 Q160.811 759.125 157.177 759.125 M157.177 755.421 Q162.987 755.421 166.042 760.027 Q169.121 764.611 169.121 773.361 Q169.121 782.088 166.042 786.694 Q162.987 791.277 157.177 791.277 Q151.366 791.277 148.288 786.694 Q145.232 782.088 145.232 773.361 Q145.232 764.611 148.288 760.027 Q151.366 755.421 157.177 755.421 Z" fill="#000000" fill-rule="nonzero" fill-opacity="1" /><path clip-path="url(#clip550)" d="M187.338 759.125 Q183.727 759.125 181.899 762.689 Q180.093 766.231 180.093 773.361 Q180.093 780.467 181.899 784.032 Q183.727 787.574 187.338 787.574 Q190.973 787.574 192.778 784.032 Q194.607 780.467 194.607 773.361 Q194.607 766.231 192.778 762.689 Q190.973 759.125 187.338 759.125 M187.338 755.421 Q193.149 755.421 196.204 760.027 Q199.283 764.611 199.283 773.361 Q199.283 782.088 196.204 786.694 Q193.149 791.277 187.338 791.277 Q181.528 791.277 178.45 786.694 Q175.394 782.088 175.394 773.361 Q175.394 764.611 178.45 760.027 Q181.528 755.421 187.338 755.421 Z" fill="#000000" fill-rule="nonzero" fill-opacity="1" /><path clip-path="url(#clip550)" d="M117.061 449.511 L135.417 449.511 L135.417 453.446 L121.343 453.446 L121.343 461.918 Q122.362 461.571 123.38 461.409 Q124.399 461.224 125.418 461.224 Q131.205 461.224 134.584 464.395 Q137.964 467.567 137.964 472.983 Q137.964 478.562 134.492 481.664 Q131.019 484.742 124.7 484.742 Q122.524 484.742 120.255 484.372 Q118.01 484.002 115.603 483.261 L115.603 478.562 Q117.686 479.696 119.908 480.252 Q122.13 480.807 124.607 480.807 Q128.612 480.807 130.95 478.701 Q133.288 476.594 133.288 472.983 Q133.288 469.372 130.95 467.266 Q128.612 465.159 124.607 465.159 Q122.732 465.159 120.857 465.576 Q119.006 465.993 117.061 466.872 L117.061 449.511 Z" fill="#000000" fill-rule="nonzero" fill-opacity="1" /><path clip-path="url(#clip550)" d="M157.177 452.59 Q153.566 452.59 151.737 456.155 Q149.931 459.696 149.931 466.826 Q149.931 473.932 151.737 477.497 Q153.566 481.039 157.177 481.039 Q160.811 481.039 162.616 477.497 Q164.445 473.932 164.445 466.826 Q164.445 459.696 162.616 456.155 Q160.811 452.59 157.177 452.59 M157.177 448.886 Q162.987 448.886 166.042 453.493 Q169.121 458.076 169.121 466.826 Q169.121 475.553 166.042 480.159 Q162.987 484.742 157.177 484.742 Q151.366 484.742 148.288 480.159 Q145.232 475.553 145.232 466.826 Q145.232 458.076 148.288 453.493 Q151.366 448.886 157.177 448.886 Z" fill="#000000" fill-rule="nonzero" fill-opacity="1" /><path clip-path="url(#clip550)" d="M187.338 452.59 Q183.727 452.59 181.899 456.155 Q180.093 459.696 180.093 466.826 Q180.093 473.932 181.899 477.497 Q183.727 481.039 187.338 481.039 Q190.973 481.039 192.778 477.497 Q194.607 473.932 194.607 466.826 Q194.607 459.696 192.778 456.155 Q190.973 452.59 187.338 452.59 M187.338 448.886 Q193.149 448.886 196.204 453.493 Q199.283 458.076 199.283 466.826 Q199.283 475.553 196.204 480.159 Q193.149 484.742 187.338 484.742 Q181.528 484.742 178.45 480.159 Q175.394 475.553 175.394 466.826 Q175.394 458.076 178.45 453.493 Q181.528 448.886 187.338 448.886 Z" fill="#000000" fill-rule="nonzero" fill-opacity="1" /><path clip-path="url(#clip550)" d="M127.593 158.393 Q124.445 158.393 122.593 160.546 Q120.765 162.698 120.765 166.448 Q120.765 170.175 122.593 172.351 Q124.445 174.504 127.593 174.504 Q130.742 174.504 132.57 172.351 Q134.422 170.175 134.422 166.448 Q134.422 162.698 132.57 160.546 Q130.742 158.393 127.593 158.393 M136.876 143.74 L136.876 147.999 Q135.117 147.166 133.311 146.726 Q131.529 146.286 129.769 146.286 Q125.14 146.286 122.686 149.411 Q120.255 152.536 119.908 158.856 Q121.274 156.842 123.334 155.777 Q125.394 154.689 127.871 154.689 Q133.08 154.689 136.089 157.86 Q139.121 161.009 139.121 166.448 Q139.121 171.772 135.973 174.99 Q132.825 178.208 127.593 178.208 Q121.598 178.208 118.427 173.624 Q115.256 169.018 115.256 160.291 Q115.256 152.097 119.144 147.236 Q123.033 142.351 129.584 142.351 Q131.343 142.351 133.126 142.699 Q134.931 143.046 136.876 143.74 Z" fill="#000000" fill-rule="nonzero" fill-opacity="1" /><path clip-path="url(#clip550)" d="M157.177 146.055 Q153.566 146.055 151.737 149.62 Q149.931 153.161 149.931 160.291 Q149.931 167.397 151.737 170.962 Q153.566 174.504 157.177 174.504 Q160.811 174.504 162.616 170.962 Q164.445 167.397 164.445 160.291 Q164.445 153.161 162.616 149.62 Q160.811 146.055 157.177 146.055 M157.177 142.351 Q162.987 142.351 166.042 146.958 Q169.121 151.541 169.121 160.291 Q169.121 169.018 166.042 173.624 Q162.987 178.208 157.177 178.208 Q151.366 178.208 148.288 173.624 Q145.232 169.018 145.232 160.291 Q145.232 151.541 148.288 146.958 Q151.366 142.351 157.177 142.351 Z" fill="#000000" fill-rule="nonzero" fill-opacity="1" /><path clip-path="url(#clip550)" d="M187.338 146.055 Q183.727 146.055 181.899 149.62 Q180.093 153.161 180.093 160.291 Q180.093 167.397 181.899 170.962 Q183.727 174.504 187.338 174.504 Q190.973 174.504 192.778 170.962 Q194.607 167.397 194.607 160.291 Q194.607 153.161 192.778 149.62 Q190.973 146.055 187.338 146.055 M187.338 142.351 Q193.149 142.351 196.204 146.958 Q199.283 151.541 199.283 160.291 Q199.283 169.018 196.204 173.624 Q193.149 178.208 187.338 178.208 Q181.528 178.208 178.45 173.624 Q175.394 169.018 175.394 160.291 Q175.394 151.541 178.45 146.958 Q181.528 142.351 187.338 142.351 Z" fill="#000000" fill-rule="nonzero" fill-opacity="1" /><path clip-path="url(#clip550)" d="M18.0438 875.082 L24.314 875.082 Q22.5634 878.742 21.704 881.989 Q20.8447 885.235 20.8447 888.259 Q20.8447 893.511 22.8817 896.375 Q24.9187 899.208 28.6745 899.208 Q31.8255 899.208 33.4488 897.33 Q35.0402 895.42 36.0269 890.137 L36.8226 886.254 Q38.1912 879.06 41.6605 875.655 Q45.098 872.217 50.8908 872.217 Q57.7976 872.217 61.3624 876.864 Q64.9272 881.479 64.9272 890.423 Q64.9272 893.797 64.1633 897.616 Q63.3994 901.404 61.9035 905.478 L55.2831 905.478 Q57.4793 901.563 58.5933 897.807 Q59.7073 894.052 59.7073 890.423 Q59.7073 884.917 57.543 881.925 Q55.3786 878.933 51.3682 878.933 Q47.8671 878.933 45.8937 881.097 Q43.9204 883.23 42.9337 888.132 L42.1698 892.046 Q40.7375 899.24 37.682 902.454 Q34.6264 905.669 29.1837 905.669 Q22.8817 905.669 19.2532 901.245 Q15.6248 896.789 15.6248 888.991 Q15.6248 885.649 16.2295 882.18 Q16.8343 878.71 18.0438 875.082 Z" fill="#000000" fill-rule="nonzero" fill-opacity="1" /><path clip-path="url(#clip550)" d="M14.479 862.446 L14.479 856.589 L64.0042 856.589 L64.0042 862.446 L14.479 862.446 Z" fill="#000000" fill-rule="nonzero" fill-opacity="1" /><path clip-path="url(#clip550)" d="M49.9359 844.94 L28.3562 844.94 L28.3562 839.084 L49.7131 839.084 Q54.7739 839.084 57.3202 837.11 Q59.8346 835.137 59.8346 831.19 Q59.8346 826.448 56.8109 823.711 Q53.7872 820.941 48.5673 820.941 L28.3562 820.941 L28.3562 815.085 L64.0042 815.085 L64.0042 820.941 L58.5296 820.941 Q61.7762 823.074 63.3676 825.907 Q64.9272 828.708 64.9272 832.432 Q64.9272 838.574 61.1078 841.757 Q57.2883 844.94 49.9359 844.94 M27.4968 830.204 L27.4968 830.204 Z" fill="#000000" fill-rule="nonzero" fill-opacity="1" /><path clip-path="url(#clip550)" d="M18.2347 797.229 L28.3562 797.229 L28.3562 785.166 L32.9077 785.166 L32.9077 797.229 L52.2594 797.229 Q56.6199 797.229 57.8613 796.052 Q59.1026 794.842 59.1026 791.182 L59.1026 785.166 L64.0042 785.166 L64.0042 791.182 Q64.0042 797.961 61.4897 800.539 Q58.9434 803.117 52.2594 803.117 L32.9077 803.117 L32.9077 807.414 L28.3562 807.414 L28.3562 803.117 L18.2347 803.117 L18.2347 797.229 Z" fill="#000000" fill-rule="nonzero" fill-opacity="1" /><path clip-path="url(#clip550)" d="M18.2347 771.671 L28.3562 771.671 L28.3562 759.608 L32.9077 759.608 L32.9077 771.671 L52.2594 771.671 Q56.6199 771.671 57.8613 770.493 Q59.1026 769.284 59.1026 765.623 L59.1026 759.608 L64.0042 759.608 L64.0042 765.623 Q64.0042 772.403 61.4897 774.981 Q58.9434 777.559 52.2594 777.559 L32.9077 777.559 L32.9077 781.856 L28.3562 781.856 L28.3562 777.559 L18.2347 777.559 L18.2347 771.671 Z" fill="#000000" fill-rule="nonzero" fill-opacity="1" /><path clip-path="url(#clip550)" d="M58.657 746.24 L77.5631 746.24 L77.5631 752.128 L28.3562 752.128 L28.3562 746.24 L33.7671 746.24 Q30.5842 744.394 29.0564 741.593 Q27.4968 738.76 27.4968 734.845 Q27.4968 728.352 32.6531 724.31 Q37.8093 720.236 46.212 720.236 Q54.6147 720.236 59.771 724.31 Q64.9272 728.352 64.9272 734.845 Q64.9272 738.76 63.3994 741.593 Q61.8398 744.394 58.657 746.24 M46.212 726.315 Q39.7508 726.315 36.0905 728.989 Q32.3984 731.631 32.3984 736.278 Q32.3984 740.925 36.0905 743.598 Q39.7508 746.24 46.212 746.24 Q52.6732 746.24 56.3653 743.598 Q60.0256 740.925 60.0256 736.278 Q60.0256 731.631 56.3653 728.989 Q52.6732 726.315 46.212 726.315 Z" fill="#000000" fill-rule="nonzero" fill-opacity="1" /><path clip-path="url(#clip550)" d="M33.8307 689.872 Q33.2578 690.858 33.0032 692.036 Q32.7167 693.182 32.7167 694.582 Q32.7167 699.547 35.9632 702.221 Q39.1779 704.863 45.2253 704.863 L64.0042 704.863 L64.0042 710.751 L28.3562 710.751 L28.3562 704.863 L33.8944 704.863 Q30.6479 703.017 29.0883 700.057 Q27.4968 697.097 27.4968 692.863 Q27.4968 692.259 27.5923 691.527 Q27.656 690.795 27.8151 689.903 L33.8307 689.872 Z" fill="#000000" fill-rule="nonzero" fill-opacity="1" /><path clip-path="url(#clip550)" d="M28.3562 683.729 L28.3562 677.872 L64.0042 677.872 L64.0042 683.729 L28.3562 683.729 M14.479 683.729 L14.479 677.872 L21.895 677.872 L21.895 683.729 L14.479 683.729 Z" fill="#000000" fill-rule="nonzero" fill-opacity="1" /><path clip-path="url(#clip550)" d="M29.4065 642.893 L34.9447 642.893 Q33.6716 645.375 33.035 648.049 Q32.3984 650.722 32.3984 653.587 Q32.3984 657.948 33.7352 660.144 Q35.072 662.308 37.7456 662.308 Q39.7826 662.308 40.9603 660.748 Q42.1061 659.189 43.1565 654.478 L43.6021 652.473 Q44.9389 646.235 47.3897 643.625 Q49.8086 640.983 54.1691 640.983 Q59.1344 640.983 62.0308 644.93 Q64.9272 648.845 64.9272 655.72 Q64.9272 658.584 64.3543 661.703 Q63.8132 664.791 62.6992 668.228 L56.6518 668.228 Q58.3387 664.982 59.198 661.831 Q60.0256 658.68 60.0256 655.592 Q60.0256 651.455 58.6251 649.227 Q57.1929 646.999 54.6147 646.999 Q52.2276 646.999 50.9545 648.622 Q49.6813 650.213 48.5037 655.656 L48.0262 657.693 Q46.8804 663.136 44.5251 665.555 Q42.138 667.974 38.0002 667.974 Q32.9713 667.974 30.2341 664.409 Q27.4968 660.844 27.4968 654.287 Q27.4968 651.041 27.9743 648.176 Q28.4517 645.312 29.4065 642.893 Z" fill="#000000" fill-rule="nonzero" fill-opacity="1" /><path clip-path="url(#clip550)" d="M773.944 14.0809 L773.944 22.0612 Q769.285 19.8332 765.154 18.7395 Q761.022 17.6457 757.173 17.6457 Q750.489 17.6457 746.843 20.2383 Q743.238 22.8309 743.238 27.611 Q743.238 31.6214 745.628 33.6873 Q748.059 35.7128 754.783 36.9686 L759.725 37.9813 Q768.88 39.7232 773.215 44.1387 Q777.59 48.5136 777.59 55.8863 Q777.59 64.6767 771.676 69.2137 Q765.802 73.7508 754.419 73.7508 Q750.125 73.7508 745.264 72.7785 Q740.443 71.8063 735.258 69.9024 L735.258 61.4765 Q740.241 64.2716 745.021 65.6895 Q749.801 67.1073 754.419 67.1073 Q761.427 67.1073 765.235 64.3527 Q769.042 61.598 769.042 56.4939 Q769.042 52.0379 766.288 49.5264 Q763.574 47.0148 757.335 45.759 L752.353 44.7868 Q743.198 42.9639 739.106 39.075 Q735.015 35.1862 735.015 28.2591 Q735.015 20.2383 740.646 15.6203 Q746.317 11.0023 756.242 11.0023 Q760.495 11.0023 764.911 11.7719 Q769.326 12.5416 773.944 14.0809 Z" fill="#000000" fill-rule="nonzero" fill-opacity="1" /><path clip-path="url(#clip550)" d="M790.026 9.54393 L797.48 9.54393 L797.48 72.576 L790.026 72.576 L790.026 9.54393 Z" fill="#000000" fill-rule="nonzero" fill-opacity="1" /><path clip-path="url(#clip550)" d="M812.306 54.671 L812.306 27.2059 L819.76 27.2059 L819.76 54.3874 Q819.76 60.8284 822.271 64.0691 Q824.783 67.2693 829.806 67.2693 Q835.842 67.2693 839.326 63.421 Q842.85 59.5726 842.85 52.9291 L842.85 27.2059 L850.304 27.2059 L850.304 72.576 L842.85 72.576 L842.85 65.6084 Q840.136 69.7404 836.531 71.7658 Q832.966 73.7508 828.226 73.7508 Q820.408 73.7508 816.357 68.8897 Q812.306 64.0286 812.306 54.671 M831.062 26.1121 L831.062 26.1121 Z" fill="#000000" fill-rule="nonzero" fill-opacity="1" /><path clip-path="url(#clip550)" d="M873.029 14.324 L873.029 27.2059 L888.382 27.2059 L888.382 32.9987 L873.029 32.9987 L873.029 57.6282 Q873.029 63.1779 874.528 64.7578 Q876.067 66.3376 880.726 66.3376 L888.382 66.3376 L888.382 72.576 L880.726 72.576 Q872.097 72.576 868.816 69.3758 Q865.535 66.1351 865.535 57.6282 L865.535 32.9987 L860.066 32.9987 L860.066 27.2059 L865.535 27.2059 L865.535 14.324 L873.029 14.324 Z" fill="#000000" fill-rule="nonzero" fill-opacity="1" /><path clip-path="url(#clip550)" d="M905.558 14.324 L905.558 27.2059 L920.911 27.2059 L920.911 32.9987 L905.558 32.9987 L905.558 57.6282 Q905.558 63.1779 907.057 64.7578 Q908.596 66.3376 913.255 66.3376 L920.911 66.3376 L920.911 72.576 L913.255 72.576 Q904.626 72.576 901.345 69.3758 Q898.064 66.1351 898.064 57.6282 L898.064 32.9987 L892.595 32.9987 L892.595 27.2059 L898.064 27.2059 L898.064 14.324 L905.558 14.324 Z" fill="#000000" fill-rule="nonzero" fill-opacity="1" /><path clip-path="url(#clip550)" d="M937.925 65.7705 L937.925 89.8329 L930.43 89.8329 L930.43 27.2059 L937.925 27.2059 L937.925 34.0924 Q940.274 30.0415 943.839 28.0971 Q947.444 26.1121 952.427 26.1121 Q960.691 26.1121 965.835 32.6746 Q971.021 39.2371 971.021 49.9314 Q971.021 60.6258 965.835 67.1883 Q960.691 73.7508 952.427 73.7508 Q947.444 73.7508 943.839 71.8063 Q940.274 69.8214 937.925 65.7705 M963.283 49.9314 Q963.283 41.7081 959.881 37.0496 Q956.518 32.3505 950.604 32.3505 Q944.69 32.3505 941.287 37.0496 Q937.925 41.7081 937.925 49.9314 Q937.925 58.1548 941.287 62.8538 Q944.69 67.5124 950.604 67.5124 Q956.518 67.5124 959.881 62.8538 Q963.283 58.1548 963.283 49.9314 Z" fill="#000000" fill-rule="nonzero" fill-opacity="1" /><path clip-path="url(#clip550)" d="M1009.67 34.1734 Q1008.41 33.4443 1006.91 33.1202 Q1005.45 32.7556 1003.67 32.7556 Q997.351 32.7556 993.949 36.8875 Q990.586 40.9789 990.586 48.6757 L990.586 72.576 L983.092 72.576 L983.092 27.2059 L990.586 27.2059 L990.586 34.2544 Q992.936 30.1225 996.703 28.1376 Q1000.47 26.1121 1005.86 26.1121 Q1006.63 26.1121 1007.56 26.2337 Q1008.49 26.3147 1009.63 26.5172 L1009.67 34.1734 Z" fill="#000000" fill-rule="nonzero" fill-opacity="1" /><path clip-path="url(#clip550)" d="M1017.48 27.2059 L1024.94 27.2059 L1024.94 72.576 L1017.48 72.576 L1017.48 27.2059 M1017.48 9.54393 L1024.94 9.54393 L1024.94 18.9825 L1017.48 18.9825 L1017.48 9.54393 Z" fill="#000000" fill-rule="nonzero" fill-opacity="1" /><path clip-path="url(#clip550)" d="M1069.46 28.5427 L1069.46 35.5912 Q1066.3 33.9709 1062.9 33.1607 Q1059.49 32.3505 1055.85 32.3505 Q1050.3 32.3505 1047.5 34.0519 Q1044.75 35.7533 1044.75 39.156 Q1044.75 41.7486 1046.73 43.2475 Q1048.72 44.7058 1054.71 46.0426 L1057.26 46.6097 Q1065.2 48.3111 1068.53 51.4303 Q1071.89 54.509 1071.89 60.0587 Q1071.89 66.3781 1066.86 70.0644 Q1061.88 73.7508 1053.13 73.7508 Q1049.49 73.7508 1045.52 73.0216 Q1041.59 72.3329 1037.21 70.9151 L1037.21 63.2184 Q1041.34 65.3654 1045.35 66.4591 Q1049.37 67.5124 1053.29 67.5124 Q1058.56 67.5124 1061.4 65.73 Q1064.23 63.9071 1064.23 60.6258 Q1064.23 57.5877 1062.17 55.9673 Q1060.14 54.3469 1053.21 52.8481 L1050.62 52.2405 Q1043.69 50.7821 1040.62 47.7845 Q1037.54 44.7463 1037.54 39.4801 Q1037.54 33.0797 1042.07 29.5959 Q1046.61 26.1121 1054.96 26.1121 Q1059.09 26.1121 1062.73 26.7198 Q1066.38 27.3274 1069.46 28.5427 Z" fill="#000000" fill-rule="nonzero" fill-opacity="1" /><path clip-path="url(#clip550)" d="M1133.1 9.54393 L1133.1 15.7418 L1125.97 15.7418 Q1121.96 15.7418 1120.38 17.3622 Q1118.84 18.9825 1118.84 23.1955 L1118.84 27.2059 L1131.11 27.2059 L1131.11 32.9987 L1118.84 32.9987 L1118.84 72.576 L1111.34 72.576 L1111.34 32.9987 L1104.21 32.9987 L1104.21 27.2059 L1111.34 27.2059 L1111.34 24.0462 Q1111.34 16.471 1114.87 13.0277 Q1118.39 9.54393 1126.05 9.54393 L1133.1 9.54393 Z" fill="#000000" fill-rule="nonzero" fill-opacity="1" /><path clip-path="url(#clip550)" d="M1156.92 32.4315 Q1150.92 32.4315 1147.44 37.1306 Q1143.95 41.7891 1143.95 49.9314 Q1143.95 58.0738 1147.4 62.7728 Q1150.88 67.4314 1156.92 67.4314 Q1162.87 67.4314 1166.36 62.7323 Q1169.84 58.0333 1169.84 49.9314 Q1169.84 41.8701 1166.36 37.1711 Q1162.87 32.4315 1156.92 32.4315 M1156.92 26.1121 Q1166.64 26.1121 1172.19 32.4315 Q1177.74 38.7509 1177.74 49.9314 Q1177.74 61.0714 1172.19 67.4314 Q1166.64 73.7508 1156.92 73.7508 Q1147.15 73.7508 1141.6 67.4314 Q1136.09 61.0714 1136.09 49.9314 Q1136.09 38.7509 1141.6 32.4315 Q1147.15 26.1121 1156.92 26.1121 Z" fill="#000000" fill-rule="nonzero" fill-opacity="1" /><path clip-path="url(#clip550)" d="M1216.38 34.1734 Q1215.13 33.4443 1213.63 33.1202 Q1212.17 32.7556 1210.39 32.7556 Q1204.07 32.7556 1200.67 36.8875 Q1197.3 40.9789 1197.3 48.6757 L1197.3 72.576 L1189.81 72.576 L1189.81 27.2059 L1197.3 27.2059 L1197.3 34.2544 Q1199.65 30.1225 1203.42 28.1376 Q1207.19 26.1121 1212.58 26.1121 Q1213.35 26.1121 1214.28 26.2337 Q1215.21 26.3147 1216.34 26.5172 L1216.38 34.1734 Z" fill="#000000" fill-rule="nonzero" fill-opacity="1" /><path clip-path="url(#clip550)" d="M1271.11 20.1573 L1260.01 50.2555 L1282.25 50.2555 L1271.11 20.1573 M1266.49 12.096 L1275.77 12.096 L1298.82 72.576 L1290.31 72.576 L1284.8 57.061 L1257.54 57.061 L1252.03 72.576 L1243.4 72.576 L1266.49 12.096 Z" fill="#000000" fill-rule="nonzero" fill-opacity="1" /><path clip-path="url(#clip550)" d="M1307.04 9.54393 L1314.54 9.54393 L1314.54 46.7717 L1336.78 27.2059 L1346.3 27.2059 L1322.23 48.4326 L1347.31 72.576 L1337.59 72.576 L1314.54 50.4176 L1314.54 72.576 L1307.04 72.576 L1307.04 9.54393 Z" fill="#000000" fill-rule="nonzero" fill-opacity="1" /><path clip-path="url(#clip550)" d="M1384.29 28.5427 L1384.29 35.5912 Q1381.13 33.9709 1377.73 33.1607 Q1374.33 32.3505 1370.68 32.3505 Q1365.13 32.3505 1362.34 34.0519 Q1359.58 35.7533 1359.58 39.156 Q1359.58 41.7486 1361.57 43.2475 Q1363.55 44.7058 1369.55 46.0426 L1372.1 46.6097 Q1380.04 48.3111 1383.36 51.4303 Q1386.72 54.509 1386.72 60.0587 Q1386.72 66.3781 1381.7 70.0644 Q1376.72 73.7508 1367.97 73.7508 Q1364.32 73.7508 1360.35 73.0216 Q1356.42 72.3329 1352.05 70.9151 L1352.05 63.2184 Q1356.18 65.3654 1360.19 66.4591 Q1364.2 67.5124 1368.13 67.5124 Q1373.4 67.5124 1376.23 65.73 Q1379.07 63.9071 1379.07 60.6258 Q1379.07 57.5877 1377 55.9673 Q1374.98 54.3469 1368.05 52.8481 L1365.46 52.2405 Q1358.53 50.7821 1355.45 47.7845 Q1352.37 44.7463 1352.37 39.4801 Q1352.37 33.0797 1356.91 29.5959 Q1361.45 26.1121 1369.79 26.1121 Q1373.92 26.1121 1377.57 26.7198 Q1381.22 27.3274 1384.29 28.5427 Z" fill="#000000" fill-rule="nonzero" fill-opacity="1" /><path clip-path="url(#clip550)" d="M1398.59 27.2059 L1406.05 27.2059 L1406.05 73.3862 Q1406.05 82.0551 1402.73 85.944 Q1399.44 89.8329 1392.11 89.8329 L1389.28 89.8329 L1389.28 83.5134 L1391.26 83.5134 Q1395.51 83.5134 1397.05 81.5285 Q1398.59 79.5841 1398.59 73.3862 L1398.59 27.2059 M1398.59 9.54393 L1406.05 9.54393 L1406.05 18.9825 L1398.59 18.9825 L1398.59 9.54393 Z" fill="#000000" fill-rule="nonzero" fill-opacity="1" /><path clip-path="url(#clip550)" d="M1460.45 48.0275 L1460.45 51.6733 L1426.18 51.6733 Q1426.67 59.3701 1430.8 63.421 Q1434.97 67.4314 1442.38 67.4314 Q1446.68 67.4314 1450.69 66.3781 Q1454.74 65.3249 1458.71 63.2184 L1458.71 70.267 Q1454.7 71.9684 1450.49 72.8596 Q1446.27 73.7508 1441.94 73.7508 Q1431.08 73.7508 1424.72 67.4314 Q1418.4 61.1119 1418.4 50.3365 Q1418.4 39.1965 1424.4 32.6746 Q1430.43 26.1121 1440.64 26.1121 Q1449.8 26.1121 1455.1 32.0264 Q1460.45 37.9003 1460.45 48.0275 M1453 45.84 Q1452.92 39.7232 1449.55 36.0774 Q1446.23 32.4315 1440.72 32.4315 Q1434.48 32.4315 1430.72 35.9558 Q1426.99 39.4801 1426.42 45.8805 L1453 45.84 Z" fill="#000000" fill-rule="nonzero" fill-opacity="1" /><path clip-path="url(#clip550)" d="M1498.97 34.1734 Q1497.72 33.4443 1496.22 33.1202 Q1494.76 32.7556 1492.98 32.7556 Q1486.66 32.7556 1483.26 36.8875 Q1479.9 40.9789 1479.9 48.6757 L1479.9 72.576 L1472.4 72.576 L1472.4 27.2059 L1479.9 27.2059 L1479.9 34.2544 Q1482.24 30.1225 1486.01 28.1376 Q1489.78 26.1121 1495.17 26.1121 Q1495.94 26.1121 1496.87 26.2337 Q1497.8 26.3147 1498.93 26.5172 L1498.97 34.1734 Z" fill="#000000" fill-rule="nonzero" fill-opacity="1" /><path clip-path="url(#clip550)" d="M1550.75 32.4315 Q1544.75 32.4315 1541.27 37.1306 Q1537.78 41.7891 1537.78 49.9314 Q1537.78 58.0738 1541.23 62.7728 Q1544.71 67.4314 1550.75 67.4314 Q1556.7 67.4314 1560.18 62.7323 Q1563.67 58.0333 1563.67 49.9314 Q1563.67 41.8701 1560.18 37.1711 Q1556.7 32.4315 1550.75 32.4315 M1550.75 26.1121 Q1560.47 26.1121 1566.02 32.4315 Q1571.57 38.7509 1571.57 49.9314 Q1571.57 61.0714 1566.02 67.4314 Q1560.47 73.7508 1550.75 73.7508 Q1540.98 73.7508 1535.43 67.4314 Q1529.92 61.0714 1529.92 49.9314 Q1529.92 38.7509 1535.43 32.4315 Q1540.98 26.1121 1550.75 26.1121 Z" fill="#000000" fill-rule="nonzero" fill-opacity="1" /><path clip-path="url(#clip550)" d="M1578.58 27.2059 L1586.47 27.2059 L1600.65 65.2844 L1614.83 27.2059 L1622.73 27.2059 L1605.72 72.576 L1595.59 72.576 L1578.58 27.2059 Z" fill="#000000" fill-rule="nonzero" fill-opacity="1" /><path clip-path="url(#clip550)" d="M1671.83 48.0275 L1671.83 51.6733 L1637.56 51.6733 Q1638.04 59.3701 1642.17 63.421 Q1646.35 67.4314 1653.76 67.4314 Q1658.05 67.4314 1662.06 66.3781 Q1666.12 65.3249 1670.09 63.2184 L1670.09 70.267 Q1666.07 71.9684 1661.86 72.8596 Q1657.65 73.7508 1653.31 73.7508 Q1642.46 73.7508 1636.1 67.4314 Q1629.78 61.1119 1629.78 50.3365 Q1629.78 39.1965 1635.77 32.6746 Q1641.81 26.1121 1652.02 26.1121 Q1661.17 26.1121 1666.48 32.0264 Q1671.83 37.9003 1671.83 48.0275 M1664.37 45.84 Q1664.29 39.7232 1660.93 36.0774 Q1657.61 32.4315 1652.1 32.4315 Q1645.86 32.4315 1642.09 35.9558 Q1638.37 39.4801 1637.8 45.8805 L1664.37 45.84 Z" fill="#000000" fill-rule="nonzero" fill-opacity="1" /><path clip-path="url(#clip550)" d="M1710.35 34.1734 Q1709.1 33.4443 1707.6 33.1202 Q1706.14 32.7556 1704.36 32.7556 Q1698.04 32.7556 1694.63 36.8875 Q1691.27 40.9789 1691.27 48.6757 L1691.27 72.576 L1683.78 72.576 L1683.78 27.2059 L1691.27 27.2059 L1691.27 34.2544 Q1693.62 30.1225 1697.39 28.1376 Q1701.16 26.1121 1706.54 26.1121 Q1707.31 26.1121 1708.24 26.2337 Q1709.18 26.3147 1710.31 26.5172 L1710.35 34.1734 Z" fill="#000000" fill-rule="nonzero" fill-opacity="1" /><path clip-path="url(#clip550)" d="M1736.48 12.096 L1787.64 12.096 L1787.64 18.9825 L1766.17 18.9825 L1766.17 72.576 L1757.95 72.576 L1757.95 18.9825 L1736.48 18.9825 L1736.48 12.096 Z" fill="#000000" fill-rule="nonzero" fill-opacity="1" /><path clip-path="url(#clip550)" d="M1792.67 27.2059 L1800.12 27.2059 L1800.12 72.576 L1792.67 72.576 L1792.67 27.2059 M1792.67 9.54393 L1800.12 9.54393 L1800.12 18.9825 L1792.67 18.9825 L1792.67 9.54393 Z" fill="#000000" fill-rule="nonzero" fill-opacity="1" /><path clip-path="url(#clip550)" d="M1845.57 34.0924 L1845.57 9.54393 L1853.02 9.54393 L1853.02 72.576 L1845.57 72.576 L1845.57 65.7705 Q1843.22 69.8214 1839.62 71.8063 Q1836.05 73.7508 1831.03 73.7508 Q1822.8 73.7508 1817.62 67.1883 Q1812.47 60.6258 1812.47 49.9314 Q1812.47 39.2371 1817.62 32.6746 Q1822.8 26.1121 1831.03 26.1121 Q1836.05 26.1121 1839.62 28.0971 Q1843.22 30.0415 1845.57 34.0924 M1820.17 49.9314 Q1820.17 58.1548 1823.53 62.8538 Q1826.94 67.5124 1832.85 67.5124 Q1838.76 67.5124 1842.17 62.8538 Q1845.57 58.1548 1845.57 49.9314 Q1845.57 41.7081 1842.17 37.0496 Q1838.76 32.3505 1832.85 32.3505 Q1826.94 32.3505 1823.53 37.0496 Q1820.17 41.7081 1820.17 49.9314 Z" fill="#000000" fill-rule="nonzero" fill-opacity="1" /><polyline clip-path="url(#clip552)" style="stroke:#009af9; stroke-linecap:round; stroke-linejoin:round; stroke-width:4; stroke-opacity:1; fill:none" points="295.211,1386.4 961.083,1355.74 1626.96,773.326 2292.83,160.256 "/>
<path clip-path="url(#clip550)" d="M305.865 270.476 L906.245 270.476 L906.245 166.796 L305.865 166.796  Z" fill="#ffffff" fill-rule="evenodd" fill-opacity="1"/>
<polyline clip-path="url(#clip550)" style="stroke:#000000; stroke-linecap:round; stroke-linejoin:round; stroke-width:4; stroke-opacity:1; fill:none" points="305.865,270.476 906.245,270.476 906.245,166.796 305.865,166.796 305.865,270.476 "/>
<polyline clip-path="url(#clip550)" style="stroke:#009af9; stroke-linecap:round; stroke-linejoin:round; stroke-width:4; stroke-opacity:1; fill:none" points="329.393,218.636 470.558,218.636 "/>
<path clip-path="url(#clip550)" d="M516.33 202.49 L516.33 207.05 Q513.668 205.777 511.307 205.152 Q508.946 204.527 506.747 204.527 Q502.928 204.527 500.844 206.008 Q498.784 207.49 498.784 210.221 Q498.784 212.513 500.15 213.694 Q501.539 214.851 505.381 215.569 L508.205 216.147 Q513.437 217.143 515.914 219.666 Q518.414 222.166 518.414 226.379 Q518.414 231.402 515.034 233.994 Q511.678 236.587 505.173 236.587 Q502.719 236.587 499.942 236.031 Q497.187 235.476 494.224 234.388 L494.224 229.573 Q497.071 231.17 499.803 231.981 Q502.534 232.791 505.173 232.791 Q509.178 232.791 511.354 231.217 Q513.529 229.643 513.529 226.726 Q513.529 224.18 511.955 222.744 Q510.404 221.309 506.84 220.592 L503.992 220.036 Q498.761 218.995 496.423 216.772 Q494.085 214.55 494.085 210.592 Q494.085 206.008 497.303 203.37 Q500.543 200.731 506.215 200.731 Q508.645 200.731 511.168 201.171 Q513.691 201.61 516.33 202.49 Z" fill="#000000" fill-rule="nonzero" fill-opacity="1" /><path clip-path="url(#clip550)" d="M525.52 199.897 L529.779 199.897 L529.779 235.916 L525.52 235.916 L525.52 199.897 Z" fill="#000000" fill-rule="nonzero" fill-opacity="1" /><path clip-path="url(#clip550)" d="M538.252 225.684 L538.252 209.99 L542.511 209.99 L542.511 225.522 Q542.511 229.203 543.946 231.055 Q545.381 232.883 548.251 232.883 Q551.701 232.883 553.691 230.684 Q555.705 228.485 555.705 224.689 L555.705 209.99 L559.964 209.99 L559.964 235.916 L555.705 235.916 L555.705 231.934 Q554.154 234.295 552.094 235.453 Q550.057 236.587 547.349 236.587 Q542.881 236.587 540.566 233.809 Q538.252 231.031 538.252 225.684 M548.969 209.365 L548.969 209.365 Z" fill="#000000" fill-rule="nonzero" fill-opacity="1" /><path clip-path="url(#clip550)" d="M572.95 202.629 L572.95 209.99 L581.724 209.99 L581.724 213.3 L572.95 213.3 L572.95 227.374 Q572.95 230.545 573.807 231.448 Q574.687 232.351 577.349 232.351 L581.724 232.351 L581.724 235.916 L577.349 235.916 Q572.418 235.916 570.543 234.087 Q568.668 232.235 568.668 227.374 L568.668 213.3 L565.543 213.3 L565.543 209.99 L568.668 209.99 L568.668 202.629 L572.95 202.629 Z" fill="#000000" fill-rule="nonzero" fill-opacity="1" /><path clip-path="url(#clip550)" d="M591.538 202.629 L591.538 209.99 L600.311 209.99 L600.311 213.3 L591.538 213.3 L591.538 227.374 Q591.538 230.545 592.395 231.448 Q593.274 232.351 595.936 232.351 L600.311 232.351 L600.311 235.916 L595.936 235.916 Q591.006 235.916 589.131 234.087 Q587.256 232.235 587.256 227.374 L587.256 213.3 L584.131 213.3 L584.131 209.99 L587.256 209.99 L587.256 202.629 L591.538 202.629 Z" fill="#000000" fill-rule="nonzero" fill-opacity="1" /><path clip-path="url(#clip550)" d="M610.034 232.027 L610.034 245.777 L605.751 245.777 L605.751 209.99 L610.034 209.99 L610.034 213.925 Q611.376 211.61 613.413 210.499 Q615.473 209.365 618.321 209.365 Q623.043 209.365 625.983 213.115 Q628.946 216.865 628.946 222.976 Q628.946 229.087 625.983 232.837 Q623.043 236.587 618.321 236.587 Q615.473 236.587 613.413 235.476 Q611.376 234.342 610.034 232.027 M624.524 222.976 Q624.524 218.277 622.58 215.615 Q620.659 212.93 617.279 212.93 Q613.899 212.93 611.955 215.615 Q610.034 218.277 610.034 222.976 Q610.034 227.675 611.955 230.36 Q613.899 233.022 617.279 233.022 Q620.659 233.022 622.58 230.36 Q624.524 227.675 624.524 222.976 Z" fill="#000000" fill-rule="nonzero" fill-opacity="1" /><path clip-path="url(#clip550)" d="M651.029 213.971 Q650.311 213.555 649.455 213.37 Q648.621 213.161 647.603 213.161 Q643.992 213.161 642.047 215.522 Q640.126 217.86 640.126 222.258 L640.126 235.916 L635.844 235.916 L635.844 209.99 L640.126 209.99 L640.126 214.018 Q641.469 211.657 643.621 210.522 Q645.774 209.365 648.853 209.365 Q649.293 209.365 649.825 209.434 Q650.357 209.481 651.006 209.596 L651.029 213.971 Z" fill="#000000" fill-rule="nonzero" fill-opacity="1" /><path clip-path="url(#clip550)" d="M655.496 209.99 L659.756 209.99 L659.756 235.916 L655.496 235.916 L655.496 209.99 M655.496 199.897 L659.756 199.897 L659.756 205.291 L655.496 205.291 L655.496 199.897 Z" fill="#000000" fill-rule="nonzero" fill-opacity="1" /><path clip-path="url(#clip550)" d="M685.195 210.754 L685.195 214.782 Q683.39 213.856 681.445 213.393 Q679.501 212.93 677.417 212.93 Q674.246 212.93 672.649 213.902 Q671.075 214.874 671.075 216.819 Q671.075 218.3 672.209 219.157 Q673.343 219.99 676.769 220.754 L678.228 221.078 Q682.765 222.05 684.663 223.832 Q686.584 225.592 686.584 228.763 Q686.584 232.374 683.714 234.481 Q680.867 236.587 675.867 236.587 Q673.783 236.587 671.515 236.17 Q669.269 235.777 666.769 234.967 L666.769 230.569 Q669.13 231.795 671.422 232.42 Q673.714 233.022 675.959 233.022 Q678.968 233.022 680.589 232.004 Q682.209 230.962 682.209 229.087 Q682.209 227.351 681.029 226.425 Q679.871 225.499 675.913 224.643 L674.431 224.295 Q670.473 223.462 668.714 221.749 Q666.955 220.013 666.955 217.004 Q666.955 213.346 669.547 211.356 Q672.14 209.365 676.908 209.365 Q679.269 209.365 681.353 209.712 Q683.436 210.059 685.195 210.754 Z" fill="#000000" fill-rule="nonzero" fill-opacity="1" /><path clip-path="url(#clip550)" d="M712.556 232.027 L712.556 245.777 L708.274 245.777 L708.274 209.99 L712.556 209.99 L712.556 213.925 Q713.899 211.61 715.936 210.499 Q717.996 209.365 720.843 209.365 Q725.565 209.365 728.505 213.115 Q731.468 216.865 731.468 222.976 Q731.468 229.087 728.505 232.837 Q725.565 236.587 720.843 236.587 Q717.996 236.587 715.936 235.476 Q713.899 234.342 712.556 232.027 M727.047 222.976 Q727.047 218.277 725.102 215.615 Q723.181 212.93 719.801 212.93 Q716.422 212.93 714.477 215.615 Q712.556 218.277 712.556 222.976 Q712.556 227.675 714.477 230.36 Q716.422 233.022 719.801 233.022 Q723.181 233.022 725.102 230.36 Q727.047 227.675 727.047 222.976 Z" fill="#000000" fill-rule="nonzero" fill-opacity="1" /><path clip-path="url(#clip550)" d="M760.704 221.888 L760.704 223.971 L741.121 223.971 Q741.399 228.369 743.76 230.684 Q746.144 232.976 750.38 232.976 Q752.834 232.976 755.125 232.374 Q757.44 231.772 759.709 230.569 L759.709 234.596 Q757.417 235.568 755.01 236.078 Q752.602 236.587 750.125 236.587 Q743.922 236.587 740.287 232.976 Q736.676 229.365 736.676 223.207 Q736.676 216.842 740.102 213.115 Q743.551 209.365 749.385 209.365 Q754.616 209.365 757.649 212.745 Q760.704 216.101 760.704 221.888 M756.445 220.638 Q756.399 217.143 754.477 215.059 Q752.579 212.976 749.431 212.976 Q745.866 212.976 743.713 214.99 Q741.584 217.004 741.26 220.661 L756.445 220.638 Z" fill="#000000" fill-rule="nonzero" fill-opacity="1" /><path clip-path="url(#clip550)" d="M782.718 213.971 Q782 213.555 781.144 213.37 Q780.31 213.161 779.292 213.161 Q775.681 213.161 773.736 215.522 Q771.815 217.86 771.815 222.258 L771.815 235.916 L767.533 235.916 L767.533 209.99 L771.815 209.99 L771.815 214.018 Q773.158 211.657 775.31 210.522 Q777.463 209.365 780.542 209.365 Q780.982 209.365 781.514 209.434 Q782.047 209.481 782.695 209.596 L782.718 213.971 Z" fill="#000000" fill-rule="nonzero" fill-opacity="1" /><path clip-path="url(#clip550)" d="M819.315 213.925 L819.315 199.897 L823.574 199.897 L823.574 235.916 L819.315 235.916 L819.315 232.027 Q817.972 234.342 815.912 235.476 Q813.875 236.587 811.005 236.587 Q806.306 236.587 803.343 232.837 Q800.403 229.087 800.403 222.976 Q800.403 216.865 803.343 213.115 Q806.306 209.365 811.005 209.365 Q813.875 209.365 815.912 210.499 Q817.972 211.61 819.315 213.925 M804.801 222.976 Q804.801 227.675 806.722 230.36 Q808.667 233.022 812.046 233.022 Q815.426 233.022 817.37 230.36 Q819.315 227.675 819.315 222.976 Q819.315 218.277 817.37 215.615 Q815.426 212.93 812.046 212.93 Q808.667 212.93 806.722 215.615 Q804.801 218.277 804.801 222.976 Z" fill="#000000" fill-rule="nonzero" fill-opacity="1" /><path clip-path="url(#clip550)" d="M844.13 222.883 Q838.968 222.883 836.977 224.064 Q834.986 225.244 834.986 228.092 Q834.986 230.36 836.468 231.703 Q837.972 233.022 840.542 233.022 Q844.083 233.022 846.213 230.522 Q848.366 227.999 848.366 223.832 L848.366 222.883 L844.13 222.883 M852.625 221.124 L852.625 235.916 L848.366 235.916 L848.366 231.981 Q846.907 234.342 844.731 235.476 Q842.555 236.587 839.407 236.587 Q835.426 236.587 833.065 234.365 Q830.727 232.119 830.727 228.369 Q830.727 223.994 833.643 221.772 Q836.583 219.55 842.393 219.55 L848.366 219.55 L848.366 219.133 Q848.366 216.194 846.421 214.596 Q844.5 212.976 841.005 212.976 Q838.782 212.976 836.676 213.508 Q834.569 214.041 832.625 215.106 L832.625 211.17 Q834.963 210.268 837.162 209.828 Q839.361 209.365 841.444 209.365 Q847.069 209.365 849.847 212.282 Q852.625 215.198 852.625 221.124 Z" fill="#000000" fill-rule="nonzero" fill-opacity="1" /><path clip-path="url(#clip550)" d="M878.458 222.652 Q878.458 218.022 876.537 215.476 Q874.639 212.93 871.19 212.93 Q867.764 212.93 865.842 215.476 Q863.944 218.022 863.944 222.652 Q863.944 227.258 865.842 229.805 Q867.764 232.351 871.19 232.351 Q874.639 232.351 876.537 229.805 Q878.458 227.258 878.458 222.652 M882.717 232.698 Q882.717 239.318 879.777 242.536 Q876.838 245.777 870.773 245.777 Q868.528 245.777 866.537 245.43 Q864.546 245.105 862.671 244.411 L862.671 240.268 Q864.546 241.286 866.375 241.772 Q868.203 242.258 870.102 242.258 Q874.291 242.258 876.375 240.059 Q878.458 237.883 878.458 233.462 L878.458 231.356 Q877.139 233.647 875.078 234.781 Q873.018 235.916 870.148 235.916 Q865.379 235.916 862.463 232.281 Q859.546 228.647 859.546 222.652 Q859.546 216.633 862.463 212.999 Q865.379 209.365 870.148 209.365 Q873.018 209.365 875.078 210.499 Q877.139 211.633 878.458 213.925 L878.458 209.99 L882.717 209.99 L882.717 232.698 Z" fill="#000000" fill-rule="nonzero" fill-opacity="1" /></svg>