<?xml version="1.0" encoding="utf-8"?>
<svg xmlns="http://www.w3.org/2000/svg" xmlns:xlink="http://www.w3.org/1999/xlink" width="600" height="400" viewBox="0 0 2400 1600">
<defs>
  <clipPath id="clip930">
    <rect x="0" y="0" width="2400" height="1600"/>
  </clipPath>
</defs>
<path clip-path="url(#clip930)" d="M0 1600 L2400 1600 L2400 0 L0 0  Z" fill="#ffffff" fill-rule="evenodd" fill-opacity="1"/>
<defs>
  <clipPath id="clip931">
    <rect x="480" y="0" width="1681" height="1600"/>
  </clipPath>
</defs>
<path clip-path="url(#clip930)" d="M219.38 1423.18 L2352.76 1423.18 L2352.76 123.472 L219.38 123.472  Z" fill="#ffffff" fill-rule="evenodd" fill-opacity="1"/>
<defs>
  <clipPath id="clip932">
    <rect x="219" y="123" width="2134" height="1301"/>
  </clipPath>
</defs>
<polyline clip-path="url(#clip932)" style="stroke:#000000; stroke-linecap:round; stroke-linejoin:round; stroke-width:2; stroke-opacity:0.1; fill:none" points="279.759,1423.18 279.759,123.472 "/>
<polyline clip-path="url(#clip932)" style="stroke:#000000; stroke-linecap:round; stroke-linejoin:round; stroke-width:2; stroke-opacity:0.1; fill:none" points="782.913,1423.18 782.913,123.472 "/>
<polyline clip-path="url(#clip932)" style="stroke:#000000; stroke-linecap:round; stroke-linejoin:round; stroke-width:2; stroke-opacity:0.1; fill:none" points="1286.07,1423.18 1286.07,123.472 "/>
<polyline clip-path="url(#clip932)" style="stroke:#000000; stroke-linecap:round; stroke-linejoin:round; stroke-width:2; stroke-opacity:0.1; fill:none" points="1789.22,1423.18 1789.22,123.472 "/>
<polyline clip-path="url(#clip932)" style="stroke:#000000; stroke-linecap:round; stroke-linejoin:round; stroke-width:2; stroke-opacity:0.1; fill:none" points="2292.38,1423.18 2292.38,123.472 "/>
<polyline clip-path="url(#clip930)" style="stroke:#000000; stroke-linecap:round; stroke-linejoin:round; stroke-width:4; stroke-opacity:1; fill:none" points="219.38,1423.18 2352.76,1423.18 "/>
<polyline clip-path="url(#clip930)" style="stroke:#000000; stroke-linecap:round; stroke-linejoin:round; stroke-width:4; stroke-opacity:1; fill:none" points="279.759,1423.18 279.759,1404.28 "/>
<polyline clip-path="url(#clip930)" style="stroke:#000000; stroke-linecap:round; stroke-linejoin:round; stroke-width:4; stroke-opacity:1; fill:none" points="782.913,1423.18 782.913,1404.28 "/>
<polyline clip-path="url(#clip930)" style="stroke:#000000; stroke-linecap:round; stroke-linejoin:round; stroke-width:4; stroke-opacity:1; fill:none" points="1286.07,1423.18 1286.07,1404.28 "/>
<polyline clip-path="url(#clip930)" style="stroke:#000000; stroke-linecap:round; stroke-linejoin:round; stroke-width:4; stroke-opacity:1; fill:none" points="1789.22,1423.18 1789.22,1404.28 "/>
<polyline clip-path="url(#clip930)" style="stroke:#000000; stroke-linecap:round; stroke-linejoin:round; stroke-width:4; stroke-opacity:1; fill:none" points="2292.38,1423.18 2292.38,1404.28 "/>
<path clip-path="url(#clip930)" d="M279.759 1454.1 Q276.148 1454.1 274.319 1457.66 Q272.513 1461.2 272.513 1468.33 Q272.513 1475.44 274.319 1479.01 Q276.148 1482.55 279.759 1482.55 Q283.393 1482.55 285.199 1479.01 Q287.027 1475.44 287.027 1468.33 Q287.027 1461.2 285.199 1457.66 Q283.393 1454.1 279.759 1454.1 M279.759 1450.39 Q285.569 1450.39 288.624 1455 Q291.703 1459.58 291.703 1468.33 Q291.703 1477.06 288.624 1481.67 Q285.569 1486.25 279.759 1486.25 Q273.949 1486.25 270.87 1481.67 Q267.814 1477.06 267.814 1468.33 Q267.814 1459.58 270.87 1455 Q273.949 1450.39 279.759 1450.39 Z" fill="#000000" fill-rule="nonzero" fill-opacity="1" /><path clip-path="url(#clip930)" d="M773.191 1451.02 L791.548 1451.02 L791.548 1454.96 L777.474 1454.96 L777.474 1463.43 Q778.492 1463.08 779.511 1462.92 Q780.529 1462.73 781.548 1462.73 Q787.335 1462.73 790.714 1465.9 Q794.094 1469.08 794.094 1474.49 Q794.094 1480.07 790.622 1483.17 Q787.149 1486.25 780.83 1486.25 Q778.654 1486.25 776.386 1485.88 Q774.14 1485.51 771.733 1484.77 L771.733 1480.07 Q773.816 1481.2 776.038 1481.76 Q778.261 1482.32 780.737 1482.32 Q784.742 1482.32 787.08 1480.21 Q789.418 1478.1 789.418 1474.49 Q789.418 1470.88 787.08 1468.77 Q784.742 1466.67 780.737 1466.67 Q778.862 1466.67 776.987 1467.08 Q775.136 1467.5 773.191 1468.38 L773.191 1451.02 Z" fill="#000000" fill-rule="nonzero" fill-opacity="1" /><path clip-path="url(#clip930)" d="M1260.76 1481.64 L1268.39 1481.64 L1268.39 1455.28 L1260.08 1456.95 L1260.08 1452.69 L1268.35 1451.02 L1273.02 1451.02 L1273.02 1481.64 L1280.66 1481.64 L1280.66 1485.58 L1260.76 1485.58 L1260.76 1481.64 Z" fill="#000000" fill-rule="nonzero" fill-opacity="1" /><path clip-path="url(#clip930)" d="M1300.11 1454.1 Q1296.5 1454.1 1294.67 1457.66 Q1292.86 1461.2 1292.86 1468.33 Q1292.86 1475.44 1294.67 1479.01 Q1296.5 1482.55 1300.11 1482.55 Q1303.74 1482.55 1305.55 1479.01 Q1307.38 1475.44 1307.38 1468.33 Q1307.38 1461.2 1305.55 1457.66 Q1303.74 1454.1 1300.11 1454.1 M1300.11 1450.39 Q1305.92 1450.39 1308.97 1455 Q1312.05 1459.58 1312.05 1468.33 Q1312.05 1477.06 1308.97 1481.67 Q1305.92 1486.25 1300.11 1486.25 Q1294.3 1486.25 1291.22 1481.67 Q1288.16 1477.06 1288.16 1468.33 Q1288.16 1459.58 1291.22 1455 Q1294.3 1450.39 1300.11 1450.39 Z" fill="#000000" fill-rule="nonzero" fill-opacity="1" /><path clip-path="url(#clip930)" d="M1764.41 1481.64 L1772.05 1481.64 L1772.05 1455.28 L1763.74 1456.95 L1763.74 1452.69 L1772 1451.02 L1776.68 1451.02 L1776.68 1481.64 L1784.32 1481.64 L1784.32 1485.58 L1764.41 1485.58 L1764.41 1481.64 Z" fill="#000000" fill-rule="nonzero" fill-opacity="1" /><path clip-path="url(#clip930)" d="M1793.81 1451.02 L1812.16 1451.02 L1812.16 1454.96 L1798.09 1454.96 L1798.09 1463.43 Q1799.11 1463.08 1800.13 1462.92 Q1801.14 1462.73 1802.16 1462.73 Q1807.95 1462.73 1811.33 1465.9 Q1814.71 1469.08 1814.71 1474.49 Q1814.71 1480.07 1811.24 1483.17 Q1807.76 1486.25 1801.44 1486.25 Q1799.27 1486.25 1797 1485.88 Q1794.76 1485.51 1792.35 1484.77 L1792.35 1480.07 Q1794.43 1481.2 1796.65 1481.76 Q1798.88 1482.32 1801.35 1482.32 Q1805.36 1482.32 1807.69 1480.21 Q1810.03 1478.1 1810.03 1474.49 Q1810.03 1470.88 1807.69 1468.77 Q1805.36 1466.67 1801.35 1466.67 Q1799.48 1466.67 1797.6 1467.08 Q1795.75 1467.5 1793.81 1468.38 L1793.81 1451.02 Z" fill="#000000" fill-rule="nonzero" fill-opacity="1" /><path clip-path="url(#clip930)" d="M2271.15 1481.64 L2287.47 1481.64 L2287.47 1485.58 L2265.53 1485.58 L2265.53 1481.64 Q2268.19 1478.89 2272.77 1474.26 Q2277.38 1469.61 2278.56 1468.27 Q2280.8 1465.74 2281.68 1464.01 Q2282.59 1462.25 2282.59 1460.56 Q2282.59 1457.8 2280.64 1456.07 Q2278.72 1454.33 2275.62 1454.33 Q2273.42 1454.33 2270.97 1455.09 Q2268.53 1455.86 2265.76 1457.41 L2265.76 1452.69 Q2268.58 1451.55 2271.03 1450.97 Q2273.49 1450.39 2275.53 1450.39 Q2280.9 1450.39 2284.09 1453.08 Q2287.28 1455.77 2287.28 1460.26 Q2287.28 1462.39 2286.47 1464.31 Q2285.69 1466.2 2283.58 1468.8 Q2283 1469.47 2279.9 1472.69 Q2276.8 1475.88 2271.15 1481.64 Z" fill="#000000" fill-rule="nonzero" fill-opacity="1" /><path clip-path="url(#clip930)" d="M2307.28 1454.1 Q2303.67 1454.1 2301.84 1457.66 Q2300.04 1461.2 2300.04 1468.33 Q2300.04 1475.44 2301.84 1479.01 Q2303.67 1482.55 2307.28 1482.55 Q2310.92 1482.55 2312.72 1479.01 Q2314.55 1475.44 2314.55 1468.33 Q2314.55 1461.2 2312.72 1457.66 Q2310.92 1454.1 2307.28 1454.1 M2307.28 1450.39 Q2313.09 1450.39 2316.15 1455 Q2319.23 1459.58 2319.23 1468.33 Q2319.23 1477.06 2316.15 1481.67 Q2313.09 1486.25 2307.28 1486.25 Q2301.47 1486.25 2298.4 1481.67 Q2295.34 1477.06 2295.34 1468.33 Q2295.34 1459.58 2298.4 1455 Q2301.47 1450.39 2307.28 1450.39 Z" fill="#000000" fill-rule="nonzero" fill-opacity="1" /><path clip-path="url(#clip930)" d="M1170.96 1520.52 L1211.16 1520.52 L1211.16 1525.93 L1194.29 1525.93 L1194.29 1568.04 L1187.83 1568.04 L1187.83 1525.93 L1170.96 1525.93 L1170.96 1520.52 Z" fill="#000000" fill-rule="nonzero" fill-opacity="1" /><path clip-path="url(#clip930)" d="M1215.11 1532.4 L1220.96 1532.4 L1220.96 1568.04 L1215.11 1568.04 L1215.11 1532.4 M1215.11 1518.52 L1220.96 1518.52 L1220.96 1525.93 L1215.11 1525.93 L1215.11 1518.52 Z" fill="#000000" fill-rule="nonzero" fill-opacity="1" /><path clip-path="url(#clip930)" d="M1256.67 1537.81 L1256.67 1518.52 L1262.53 1518.52 L1262.53 1568.04 L1256.67 1568.04 L1256.67 1562.7 Q1254.83 1565.88 1252 1567.44 Q1249.19 1568.97 1245.25 1568.97 Q1238.79 1568.97 1234.71 1563.81 Q1230.67 1558.65 1230.67 1550.25 Q1230.67 1541.85 1234.71 1536.69 Q1238.79 1531.54 1245.25 1531.54 Q1249.19 1531.54 1252 1533.1 Q1254.83 1534.62 1256.67 1537.81 M1236.72 1550.25 Q1236.72 1556.71 1239.36 1560.4 Q1242.03 1564.07 1246.68 1564.07 Q1251.33 1564.07 1254 1560.4 Q1256.67 1556.71 1256.67 1550.25 Q1256.67 1543.79 1254 1540.13 Q1251.33 1536.44 1246.68 1536.44 Q1242.03 1536.44 1239.36 1540.13 Q1236.72 1543.79 1236.72 1550.25 Z" fill="#000000" fill-rule="nonzero" fill-opacity="1" /><path clip-path="url(#clip930)" d="M1309.38 1518.58 Q1305.12 1525.9 1303.05 1533.06 Q1300.98 1540.23 1300.98 1547.58 Q1300.98 1554.93 1303.05 1562.16 Q1305.15 1569.35 1309.38 1576.64 L1304.29 1576.64 Q1299.52 1569.16 1297.13 1561.93 Q1294.77 1554.71 1294.77 1547.58 Q1294.77 1540.48 1297.13 1533.29 Q1299.48 1526.09 1304.29 1518.58 L1309.38 1518.58 Z" fill="#000000" fill-rule="nonzero" fill-opacity="1" /><path clip-path="url(#clip930)" d="M1336.95 1550.12 Q1329.85 1550.12 1327.11 1551.75 Q1324.37 1553.37 1324.37 1557.29 Q1324.37 1560.4 1326.41 1562.25 Q1328.48 1564.07 1332.01 1564.07 Q1336.88 1564.07 1339.81 1560.63 Q1342.77 1557.16 1342.77 1551.43 L1342.77 1550.12 L1336.95 1550.12 M1348.63 1547.71 L1348.63 1568.04 L1342.77 1568.04 L1342.77 1562.63 Q1340.77 1565.88 1337.77 1567.44 Q1334.78 1568.97 1330.45 1568.97 Q1324.98 1568.97 1321.73 1565.91 Q1318.52 1562.82 1318.52 1557.67 Q1318.52 1551.65 1322.53 1548.6 Q1326.57 1545.54 1334.56 1545.54 L1342.77 1545.54 L1342.77 1544.97 Q1342.77 1540.93 1340.1 1538.73 Q1337.46 1536.5 1332.65 1536.5 Q1329.59 1536.5 1326.7 1537.23 Q1323.8 1537.97 1321.13 1539.43 L1321.13 1534.02 Q1324.34 1532.78 1327.37 1532.17 Q1330.39 1531.54 1333.25 1531.54 Q1340.99 1531.54 1344.81 1535.55 Q1348.63 1539.56 1348.63 1547.71 M1338.35 1519.54 Q1338.35 1517.53 1336.95 1516.13 Q1335.55 1514.73 1333.51 1514.73 Q1331.44 1514.73 1330.04 1516.13 Q1328.67 1517.5 1328.67 1519.54 Q1328.67 1521.61 1330.04 1523.01 Q1331.44 1524.38 1333.51 1524.38 Q1335.55 1524.38 1336.95 1522.97 Q1338.35 1521.57 1338.35 1519.54 M1342.23 1519.54 Q1342.23 1523.2 1339.68 1525.74 Q1337.17 1528.29 1333.51 1528.29 Q1329.85 1528.29 1327.3 1525.74 Q1324.79 1523.2 1324.79 1519.54 Q1324.79 1515.88 1327.3 1513.36 Q1329.85 1510.82 1333.51 1510.82 Q1337.17 1510.82 1339.68 1513.36 Q1342.23 1515.88 1342.23 1519.54 Z" fill="#000000" fill-rule="nonzero" fill-opacity="1" /><path clip-path="url(#clip930)" d="M1381.35 1537.87 Q1380.36 1537.3 1379.18 1537.04 Q1378.04 1536.76 1376.64 1536.76 Q1371.67 1536.76 1369 1540 Q1366.36 1543.22 1366.36 1549.27 L1366.36 1568.04 L1360.47 1568.04 L1360.47 1532.4 L1366.36 1532.4 L1366.36 1537.93 Q1368.2 1534.69 1371.16 1533.13 Q1374.12 1531.54 1378.35 1531.54 Q1378.96 1531.54 1379.69 1531.63 Q1380.42 1531.7 1381.31 1531.85 L1381.35 1537.87 Z" fill="#000000" fill-rule="nonzero" fill-opacity="1" /><path clip-path="url(#clip930)" d="M1386.57 1518.58 L1391.66 1518.58 Q1396.43 1526.09 1398.79 1533.29 Q1401.18 1540.48 1401.18 1547.58 Q1401.18 1554.71 1398.79 1561.93 Q1396.43 1569.16 1391.66 1576.64 L1386.57 1576.64 Q1390.8 1569.35 1392.87 1562.16 Q1394.97 1554.93 1394.97 1547.58 Q1394.97 1540.23 1392.87 1533.06 Q1390.8 1525.9 1386.57 1518.58 Z" fill="#000000" fill-rule="nonzero" fill-opacity="1" /><polyline clip-path="url(#clip932)" style="stroke:#000000; stroke-linecap:round; stroke-linejoin:round; stroke-width:2; stroke-opacity:0.1; fill:none" points="219.38,1386.4 2352.76,1386.4 "/>
<polyline clip-path="url(#clip932)" style="stroke:#000000; stroke-linecap:round; stroke-linejoin:round; stroke-width:2; stroke-opacity:0.1; fill:none" points="219.38,1097.07 2352.76,1097.07 "/>
<polyline clip-path="url(#clip932)" style="stroke:#000000; stroke-linecap:round; stroke-linejoin:round; stroke-width:2; stroke-opacity:0.1; fill:none" points="219.38,807.736 2352.76,807.736 "/>
<polyline clip-path="url(#clip932)" style="stroke:#000000; stroke-linecap:round; stroke-linejoin:round; stroke-width:2; stroke-opacity:0.1; fill:none" points="219.38,518.406 2352.76,518.406 "/>
<polyline clip-path="url(#clip932)" style="stroke:#000000; stroke-linecap:round; stroke-linejoin:round; stroke-width:2; stroke-opacity:0.1; fill:none" points="219.38,229.076 2352.76,229.076 "/>
<polyline clip-path="url(#clip930)" style="stroke:#000000; stroke-linecap:round; stroke-linejoin:round; stroke-width:4; stroke-opacity:1; fill:none" points="219.38,1423.18 219.38,123.472 "/>
<polyline clip-path="url(#clip930)" style="stroke:#000000; stroke-linecap:round; stroke-linejoin:round; stroke-width:4; stroke-opacity:1; fill:none" points="219.38,1386.4 238.278,1386.4 "/>
<polyline clip-path="url(#clip930)" style="stroke:#000000; stroke-linecap:round; stroke-linejoin:round; stroke-width:4; stroke-opacity:1; fill:none" points="219.38,1097.07 238.278,1097.07 "/>
<polyline clip-path="url(#clip930)" style="stroke:#000000; stroke-linecap:round; stroke-linejoin:round; stroke-width:4; stroke-opacity:1; fill:none" points="219.38,807.736 238.278,807.736 "/>
<polyline clip-path="url(#clip930)" style="stroke:#000000; stroke-linecap:round; stroke-linejoin:round; stroke-width:4; stroke-opacity:1; fill:none" points="219.38,518.406 238.278,518.406 "/>
<polyline clip-path="url(#clip930)" style="stroke:#000000; stroke-linecap:round; stroke-linejoin:round; stroke-width:4; stroke-opacity:1; fill:none" points="219.38,229.076 238.278,229.076 "/>
<path clip-path="url(#clip930)" d="M130.371 1385.04 Q133.728 1385.76 135.603 1388.03 Q137.501 1390.3 137.501 1393.63 Q137.501 1398.75 133.982 1401.55 Q130.464 1404.35 123.982 1404.35 Q121.806 1404.35 119.492 1403.91 Q117.2 1403.49 114.746 1402.63 L114.746 1398.12 Q116.691 1399.25 119.006 1399.83 Q121.32 1400.41 123.843 1400.41 Q128.242 1400.41 130.533 1398.68 Q132.848 1396.94 132.848 1393.63 Q132.848 1390.57 130.695 1388.86 Q128.566 1387.12 124.746 1387.12 L120.718 1387.12 L120.718 1383.28 L124.931 1383.28 Q128.38 1383.28 130.209 1381.92 Q132.038 1380.53 132.038 1377.94 Q132.038 1375.27 130.14 1373.86 Q128.265 1372.43 124.746 1372.43 Q122.825 1372.43 120.626 1372.84 Q118.427 1373.26 115.788 1374.14 L115.788 1369.97 Q118.45 1369.23 120.765 1368.86 Q123.103 1368.49 125.163 1368.49 Q130.487 1368.49 133.589 1370.92 Q136.691 1373.33 136.691 1377.45 Q136.691 1380.32 135.047 1382.31 Q133.404 1384.28 130.371 1385.04 Z" fill="#000000" fill-rule="nonzero" fill-opacity="1" /><path clip-path="url(#clip930)" d="M146.366 1397.8 L151.251 1397.8 L151.251 1403.68 L146.366 1403.68 L146.366 1397.8 Z" fill="#000000" fill-rule="nonzero" fill-opacity="1" /><path clip-path="url(#clip930)" d="M171.436 1372.19 Q167.825 1372.19 165.996 1375.76 Q164.19 1379.3 164.19 1386.43 Q164.19 1393.54 165.996 1397.1 Q167.825 1400.64 171.436 1400.64 Q175.07 1400.64 176.876 1397.1 Q178.704 1393.54 178.704 1386.43 Q178.704 1379.3 176.876 1375.76 Q175.07 1372.19 171.436 1372.19 M171.436 1368.49 Q177.246 1368.49 180.301 1373.1 Q183.38 1377.68 183.38 1386.43 Q183.38 1395.16 180.301 1399.76 Q177.246 1404.35 171.436 1404.35 Q165.626 1404.35 162.547 1399.76 Q159.491 1395.16 159.491 1386.43 Q159.491 1377.68 162.547 1373.1 Q165.626 1368.49 171.436 1368.49 Z" fill="#000000" fill-rule="nonzero" fill-opacity="1" /><path clip-path="url(#clip930)" d="M131.598 1095.71 Q134.954 1096.43 136.829 1098.7 Q138.728 1100.97 138.728 1104.3 Q138.728 1109.42 135.209 1112.22 Q131.691 1115.02 125.209 1115.02 Q123.033 1115.02 120.718 1114.58 Q118.427 1114.16 115.973 1113.3 L115.973 1108.79 Q117.918 1109.92 120.232 1110.5 Q122.547 1111.08 125.07 1111.08 Q129.468 1111.08 131.76 1109.35 Q134.075 1107.61 134.075 1104.3 Q134.075 1101.24 131.922 1099.53 Q129.792 1097.79 125.973 1097.79 L121.945 1097.79 L121.945 1093.95 L126.158 1093.95 Q129.607 1093.95 131.436 1092.59 Q133.265 1091.2 133.265 1088.61 Q133.265 1085.94 131.367 1084.53 Q129.492 1083.1 125.973 1083.1 Q124.052 1083.1 121.853 1083.51 Q119.654 1083.93 117.015 1084.81 L117.015 1080.64 Q119.677 1079.9 121.992 1079.53 Q124.33 1079.16 126.39 1079.16 Q131.714 1079.16 134.816 1081.59 Q137.917 1084 137.917 1088.12 Q137.917 1090.99 136.274 1092.98 Q134.63 1094.95 131.598 1095.71 Z" fill="#000000" fill-rule="nonzero" fill-opacity="1" /><path clip-path="url(#clip930)" d="M147.593 1108.47 L152.478 1108.47 L152.478 1114.35 L147.593 1114.35 L147.593 1108.47 Z" fill="#000000" fill-rule="nonzero" fill-opacity="1" /><path clip-path="url(#clip930)" d="M163.473 1110.41 L171.112 1110.41 L171.112 1084.05 L162.802 1085.71 L162.802 1081.45 L171.065 1079.79 L175.741 1079.79 L175.741 1110.41 L183.38 1110.41 L183.38 1114.35 L163.473 1114.35 L163.473 1110.41 Z" fill="#000000" fill-rule="nonzero" fill-opacity="1" /><path clip-path="url(#clip930)" d="M131.968 806.382 Q135.325 807.099 137.2 809.368 Q139.098 811.636 139.098 814.97 Q139.098 820.085 135.579 822.886 Q132.061 825.687 125.58 825.687 Q123.404 825.687 121.089 825.247 Q118.797 824.831 116.343 823.974 L116.343 819.46 Q118.288 820.595 120.603 821.173 Q122.918 821.752 125.441 821.752 Q129.839 821.752 132.13 820.016 Q134.445 818.28 134.445 814.97 Q134.445 811.914 132.292 810.201 Q130.163 808.465 126.343 808.465 L122.316 808.465 L122.316 804.623 L126.529 804.623 Q129.978 804.623 131.806 803.257 Q133.635 801.868 133.635 799.275 Q133.635 796.613 131.737 795.201 Q129.862 793.766 126.343 793.766 Q124.422 793.766 122.223 794.183 Q120.024 794.599 117.385 795.479 L117.385 791.312 Q120.047 790.572 122.362 790.201 Q124.7 789.831 126.76 789.831 Q132.084 789.831 135.186 792.262 Q138.288 794.669 138.288 798.789 Q138.288 801.66 136.644 803.65 Q135.001 805.618 131.968 806.382 Z" fill="#000000" fill-rule="nonzero" fill-opacity="1" /><path clip-path="url(#clip930)" d="M147.964 819.136 L152.848 819.136 L152.848 825.016 L147.964 825.016 L147.964 819.136 Z" fill="#000000" fill-rule="nonzero" fill-opacity="1" /><path clip-path="url(#clip930)" d="M167.061 821.081 L183.38 821.081 L183.38 825.016 L161.436 825.016 L161.436 821.081 Q164.098 818.326 168.681 813.697 Q173.288 809.044 174.468 807.701 Q176.714 805.178 177.593 803.442 Q178.496 801.683 178.496 799.993 Q178.496 797.238 176.551 795.502 Q174.63 793.766 171.528 793.766 Q169.329 793.766 166.876 794.53 Q164.445 795.294 161.667 796.845 L161.667 792.123 Q164.491 790.988 166.945 790.41 Q169.399 789.831 171.436 789.831 Q176.806 789.831 180.001 792.516 Q183.195 795.201 183.195 799.692 Q183.195 801.822 182.385 803.743 Q181.598 805.641 179.491 808.234 Q178.913 808.905 175.811 812.123 Q172.709 815.317 167.061 821.081 Z" fill="#000000" fill-rule="nonzero" fill-opacity="1" /><path clip-path="url(#clip930)" d="M131.019 517.052 Q134.376 517.77 136.251 520.038 Q138.149 522.307 138.149 525.64 Q138.149 530.756 134.63 533.556 Q131.112 536.357 124.63 536.357 Q122.455 536.357 120.14 535.918 Q117.848 535.501 115.394 534.644 L115.394 530.131 Q117.339 531.265 119.654 531.844 Q121.968 532.422 124.492 532.422 Q128.89 532.422 131.181 530.686 Q133.496 528.95 133.496 525.64 Q133.496 522.584 131.343 520.871 Q129.214 519.135 125.394 519.135 L121.367 519.135 L121.367 515.293 L125.58 515.293 Q129.029 515.293 130.857 513.927 Q132.686 512.538 132.686 509.946 Q132.686 507.283 130.788 505.871 Q128.913 504.436 125.394 504.436 Q123.473 504.436 121.274 504.853 Q119.075 505.27 116.436 506.149 L116.436 501.983 Q119.098 501.242 121.413 500.871 Q123.751 500.501 125.811 500.501 Q131.135 500.501 134.237 502.932 Q137.339 505.339 137.339 509.459 Q137.339 512.33 135.695 514.32 Q134.052 516.288 131.019 517.052 Z" fill="#000000" fill-rule="nonzero" fill-opacity="1" /><path clip-path="url(#clip930)" d="M147.015 529.807 L151.899 529.807 L151.899 535.686 L147.015 535.686 L147.015 529.807 Z" fill="#000000" fill-rule="nonzero" fill-opacity="1" /><path clip-path="url(#clip930)" d="M176.251 517.052 Q179.607 517.77 181.482 520.038 Q183.38 522.307 183.38 525.64 Q183.38 530.756 179.862 533.556 Q176.343 536.357 169.862 536.357 Q167.686 536.357 165.371 535.918 Q163.079 535.501 160.626 534.644 L160.626 530.131 Q162.57 531.265 164.885 531.844 Q167.2 532.422 169.723 532.422 Q174.121 532.422 176.413 530.686 Q178.727 528.95 178.727 525.64 Q178.727 522.584 176.575 520.871 Q174.445 519.135 170.626 519.135 L166.598 519.135 L166.598 515.293 L170.811 515.293 Q174.26 515.293 176.089 513.927 Q177.917 512.538 177.917 509.946 Q177.917 507.283 176.019 505.871 Q174.144 504.436 170.626 504.436 Q168.704 504.436 166.505 504.853 Q164.306 505.27 161.667 506.149 L161.667 501.983 Q164.329 501.242 166.644 500.871 Q168.982 500.501 171.042 500.501 Q176.366 500.501 179.468 502.932 Q182.57 505.339 182.57 509.459 Q182.57 512.33 180.926 514.32 Q179.283 516.288 176.251 517.052 Z" fill="#000000" fill-rule="nonzero" fill-opacity="1" /><path clip-path="url(#clip930)" d="M129.885 227.722 Q133.242 228.44 135.117 230.708 Q137.015 232.977 137.015 236.31 Q137.015 241.426 133.496 244.227 Q129.978 247.028 123.496 247.028 Q121.32 247.028 119.006 246.588 Q116.714 246.171 114.26 245.315 L114.26 240.801 Q116.205 241.935 118.519 242.514 Q120.834 243.092 123.357 243.092 Q127.755 243.092 130.047 241.356 Q132.362 239.62 132.362 236.31 Q132.362 233.254 130.209 231.542 Q128.08 229.805 124.26 229.805 L120.232 229.805 L120.232 225.963 L124.445 225.963 Q127.894 225.963 129.723 224.597 Q131.552 223.208 131.552 220.616 Q131.552 217.954 129.654 216.542 Q127.779 215.106 124.26 215.106 Q122.339 215.106 120.14 215.523 Q117.941 215.94 115.302 216.819 L115.302 212.653 Q117.964 211.912 120.279 211.542 Q122.617 211.171 124.677 211.171 Q130.001 211.171 133.103 213.602 Q136.204 216.009 136.204 220.13 Q136.204 223 134.561 224.991 Q132.917 226.958 129.885 227.722 Z" fill="#000000" fill-rule="nonzero" fill-opacity="1" /><path clip-path="url(#clip930)" d="M145.88 240.477 L150.765 240.477 L150.765 246.356 L145.88 246.356 L145.88 240.477 Z" fill="#000000" fill-rule="nonzero" fill-opacity="1" /><path clip-path="url(#clip930)" d="M173.797 215.87 L161.991 234.319 L173.797 234.319 L173.797 215.87 M172.57 211.796 L178.45 211.796 L178.45 234.319 L183.38 234.319 L183.38 238.208 L178.45 238.208 L178.45 246.356 L173.797 246.356 L173.797 238.208 L158.195 238.208 L158.195 233.694 L172.57 211.796 Z" fill="#000000" fill-rule="nonzero" fill-opacity="1" /><path clip-path="url(#clip930)" d="M41.3104 854.011 L58.7206 854.011 L58.7206 843.699 Q58.7206 838.511 56.5881 836.028 Q54.4238 833.514 49.9996 833.514 Q45.5436 833.514 43.4429 836.028 Q41.3104 838.511 41.3104 843.699 L41.3104 854.011 M21.7677 854.011 L36.0905 854.011 L36.0905 844.495 Q36.0905 839.784 34.34 837.492 Q32.5576 835.169 28.9291 835.169 Q25.3325 835.169 23.5501 837.492 Q21.7677 839.784 21.7677 844.495 L21.7677 854.011 M16.4842 860.441 L16.4842 844.017 Q16.4842 836.665 19.5397 832.686 Q22.5952 828.708 28.2289 828.708 Q32.5894 828.708 35.1675 830.745 Q37.7456 832.782 38.3822 836.728 Q39.4007 831.986 42.6472 829.376 Q45.8619 826.734 50.6998 826.734 Q57.0655 826.734 60.5348 831.063 Q64.0042 835.392 64.0042 843.381 L64.0042 860.441 L16.4842 860.441 Z" fill="#000000" fill-rule="nonzero" fill-opacity="1" /><path clip-path="url(#clip930)" d="M44.7161 785.484 L47.5806 785.484 L47.5806 812.411 Q53.6281 812.029 56.8109 808.783 Q59.9619 805.505 59.9619 799.68 Q59.9619 796.306 59.1344 793.155 Q58.3069 789.972 56.6518 786.853 L62.1899 786.853 Q63.5267 790.004 64.227 793.314 Q64.9272 796.624 64.9272 800.03 Q64.9272 808.56 59.9619 813.557 Q54.9967 818.523 46.5303 818.523 Q37.7774 818.523 32.6531 813.812 Q27.4968 809.069 27.4968 801.049 Q27.4968 793.855 32.1438 789.686 Q36.7589 785.484 44.7161 785.484 M42.9973 791.341 Q38.1912 791.405 35.3266 794.046 Q32.4621 796.656 32.4621 800.985 Q32.4621 805.887 35.2312 808.847 Q38.0002 811.775 43.0292 812.22 L42.9973 791.341 Z" fill="#000000" fill-rule="nonzero" fill-opacity="1" /><path clip-path="url(#clip930)" d="M14.479 775.872 L14.479 770.016 L64.0042 770.016 L64.0042 775.872 L14.479 775.872 Z" fill="#000000" fill-rule="nonzero" fill-opacity="1" /><path clip-path="url(#clip930)" d="M38.5095 735.1 L57.352 750.6 Q58.6888 749.295 59.3254 747.672 Q59.9619 746.017 59.9619 743.948 Q59.9619 739.269 56.2698 736.532 Q52.5777 733.795 46.212 733.795 Q43.6976 733.795 41.8515 734.113 Q39.9736 734.432 38.5095 735.1 M35.072 737.36 Q33.7671 738.697 33.1305 740.352 Q32.4621 741.975 32.4621 743.948 Q32.4621 748.754 36.2178 751.46 Q39.9418 754.133 46.6576 754.133 Q48.9493 754.133 50.6998 753.847 Q52.4504 753.529 53.9145 752.892 L35.072 737.36 M58.7206 756.871 Q56.2698 758.589 53.1506 759.449 Q49.9996 760.308 46.212 760.308 Q37.4273 760.308 32.4621 755.979 Q27.4968 751.619 27.4968 743.948 Q27.4968 740.988 28.3244 738.474 Q29.1201 735.927 30.7752 733.795 L25.428 729.371 L27.9424 726.347 L33.6397 730.994 Q36.0905 729.307 39.2416 728.448 Q42.3926 727.588 46.212 727.588 Q54.9649 727.588 59.9619 731.949 Q64.9272 736.309 64.9272 743.948 Q64.9272 747.004 64.0996 749.582 Q63.2721 752.128 61.6488 754.133 L66.996 758.558 L64.5134 761.613 L58.7206 756.871 Z" fill="#000000" fill-rule="nonzero" fill-opacity="1" /><path clip-path="url(#clip930)" d="M58.657 712.215 L77.5631 712.215 L77.5631 718.103 L28.3562 718.103 L28.3562 712.215 L33.7671 712.215 Q30.5842 710.369 29.0564 707.568 Q27.4968 704.735 27.4968 700.821 Q27.4968 694.328 32.6531 690.285 Q37.8093 686.211 46.212 686.211 Q54.6147 686.211 59.771 690.285 Q64.9272 694.328 64.9272 700.821 Q64.9272 704.735 63.3994 707.568 Q61.8398 710.369 58.657 712.215 M46.212 692.291 Q39.7508 692.291 36.0905 694.964 Q32.3984 697.606 32.3984 702.253 Q32.3984 706.9 36.0905 709.573 Q39.7508 712.215 46.212 712.215 Q52.6732 712.215 56.3653 709.573 Q60.0256 706.9 60.0256 702.253 Q60.0256 697.606 56.3653 694.964 Q52.6732 692.291 46.212 692.291 Z" fill="#000000" fill-rule="nonzero" fill-opacity="1" /><path clip-path="url(#clip930)" d="M312.069 12.096 L350.309 12.096 L350.309 18.9825 L320.251 18.9825 L320.251 36.8875 L349.053 36.8875 L349.053 43.7741 L320.251 43.7741 L320.251 65.6895 L351.038 65.6895 L351.038 72.576 L312.069 72.576 L312.069 12.096 Z" fill="#000000" fill-rule="nonzero" fill-opacity="1" /><path clip-path="url(#clip930)" d="M363.88 9.54393 L371.374 9.54393 L371.374 46.7717 L393.613 27.2059 L403.133 27.2059 L379.071 48.4326 L404.146 72.576 L394.424 72.576 L371.374 50.4176 L371.374 72.576 L363.88 72.576 L363.88 9.54393 Z" fill="#000000" fill-rule="nonzero" fill-opacity="1" /><path clip-path="url(#clip930)" d="M441.13 28.5427 L441.13 35.5912 Q437.971 33.9709 434.568 33.1607 Q431.165 32.3505 427.519 32.3505 Q421.97 32.3505 419.175 34.0519 Q416.42 35.7533 416.42 39.156 Q416.42 41.7486 418.405 43.2475 Q420.39 44.7058 426.385 46.0426 L428.937 46.6097 Q436.877 48.3111 440.199 51.4303 Q443.561 54.509 443.561 60.0587 Q443.561 66.3781 438.538 70.0644 Q433.555 73.7508 424.805 73.7508 Q421.159 73.7508 417.19 73.0216 Q413.26 72.3329 408.885 70.9151 L408.885 63.2184 Q413.017 65.3654 417.028 66.4591 Q421.038 67.5124 424.967 67.5124 Q430.233 67.5124 433.069 65.73 Q435.905 63.9071 435.905 60.6258 Q435.905 57.5877 433.839 55.9673 Q431.813 54.3469 424.886 52.8481 L422.294 52.2405 Q415.367 50.7821 412.288 47.7845 Q409.209 44.7463 409.209 39.4801 Q409.209 33.0797 413.746 29.5959 Q418.283 26.1121 426.628 26.1121 Q430.76 26.1121 434.406 26.7198 Q438.052 27.3274 441.13 28.5427 Z" fill="#000000" fill-rule="nonzero" fill-opacity="1" /><path clip-path="url(#clip930)" d="M462.641 65.7705 L462.641 89.8329 L455.147 89.8329 L455.147 27.2059 L462.641 27.2059 L462.641 34.0924 Q464.99 30.0415 468.555 28.0971 Q472.16 26.1121 477.143 26.1121 Q485.407 26.1121 490.551 32.6746 Q495.737 39.2371 495.737 49.9314 Q495.737 60.6258 490.551 67.1883 Q485.407 73.7508 477.143 73.7508 Q472.16 73.7508 468.555 71.8063 Q464.99 69.8214 462.641 65.7705 M487.999 49.9314 Q487.999 41.7081 484.597 37.0496 Q481.234 32.3505 475.32 32.3505 Q469.406 32.3505 466.003 37.0496 Q462.641 41.7081 462.641 49.9314 Q462.641 58.1548 466.003 62.8538 Q469.406 67.5124 475.32 67.5124 Q481.234 67.5124 484.597 62.8538 Q487.999 58.1548 487.999 49.9314 Z" fill="#000000" fill-rule="nonzero" fill-opacity="1" /><path clip-path="url(#clip930)" d="M525.673 32.4315 Q519.677 32.4315 516.194 37.1306 Q512.71 41.7891 512.71 49.9314 Q512.71 58.0738 516.153 62.7728 Q519.637 67.4314 525.673 67.4314 Q531.628 67.4314 535.111 62.7323 Q538.595 58.0333 538.595 49.9314 Q538.595 41.8701 535.111 37.1711 Q531.628 32.4315 525.673 32.4315 M525.673 26.1121 Q535.395 26.1121 540.945 32.4315 Q546.494 38.7509 546.494 49.9314 Q546.494 61.0714 540.945 67.4314 Q535.395 73.7508 525.673 73.7508 Q515.91 73.7508 510.36 67.4314 Q504.851 61.0714 504.851 49.9314 Q504.851 38.7509 510.36 32.4315 Q515.91 26.1121 525.673 26.1121 Z" fill="#000000" fill-rule="nonzero" fill-opacity="1" /><path clip-path="url(#clip930)" d="M596.564 45.1919 L596.564 72.576 L589.11 72.576 L589.11 45.4349 Q589.11 38.994 586.598 35.7938 Q584.087 32.5936 579.064 32.5936 Q573.028 32.5936 569.544 36.4419 Q566.06 40.2903 566.06 46.9338 L566.06 72.576 L558.566 72.576 L558.566 27.2059 L566.06 27.2059 L566.06 34.2544 Q568.734 30.163 572.339 28.1376 Q575.985 26.1121 580.725 26.1121 Q588.543 26.1121 592.553 30.9732 Q596.564 35.7938 596.564 45.1919 Z" fill="#000000" fill-rule="nonzero" fill-opacity="1" /><path clip-path="url(#clip930)" d="M650.238 48.0275 L650.238 51.6733 L615.967 51.6733 Q616.454 59.3701 620.585 63.421 Q624.758 67.4314 632.171 67.4314 Q636.465 67.4314 640.475 66.3781 Q644.526 65.3249 648.496 63.2184 L648.496 70.267 Q644.486 71.9684 640.273 72.8596 Q636.06 73.7508 631.725 73.7508 Q620.869 73.7508 614.509 67.4314 Q608.19 61.1119 608.19 50.3365 Q608.19 39.1965 614.185 32.6746 Q620.221 26.1121 630.429 26.1121 Q639.584 26.1121 644.891 32.0264 Q650.238 37.9003 650.238 48.0275 M642.784 45.84 Q642.703 39.7232 639.341 36.0774 Q636.019 32.4315 630.51 32.4315 Q624.272 32.4315 620.504 35.9558 Q616.778 39.4801 616.211 45.8805 L642.784 45.84 Z" fill="#000000" fill-rule="nonzero" fill-opacity="1" /><path clip-path="url(#clip930)" d="M700.186 45.1919 L700.186 72.576 L692.732 72.576 L692.732 45.4349 Q692.732 38.994 690.221 35.7938 Q687.709 32.5936 682.686 32.5936 Q676.65 32.5936 673.166 36.4419 Q669.682 40.2903 669.682 46.9338 L669.682 72.576 L662.188 72.576 L662.188 27.2059 L669.682 27.2059 L669.682 34.2544 Q672.356 30.163 675.961 28.1376 Q679.607 26.1121 684.347 26.1121 Q692.165 26.1121 696.175 30.9732 Q700.186 35.7938 700.186 45.1919 Z" fill="#000000" fill-rule="nonzero" fill-opacity="1" /><path clip-path="url(#clip930)" d="M722.425 14.324 L722.425 27.2059 L737.778 27.2059 L737.778 32.9987 L722.425 32.9987 L722.425 57.6282 Q722.425 63.1779 723.924 64.7578 Q725.463 66.3376 730.122 66.3376 L737.778 66.3376 L737.778 72.576 L730.122 72.576 Q721.494 72.576 718.212 69.3758 Q714.931 66.1351 714.931 57.6282 L714.931 32.9987 L709.462 32.9987 L709.462 27.2059 L714.931 27.2059 L714.931 14.324 L722.425 14.324 Z" fill="#000000" fill-rule="nonzero" fill-opacity="1" /><path clip-path="url(#clip930)" d="M747.581 27.2059 L755.035 27.2059 L755.035 72.576 L747.581 72.576 L747.581 27.2059 M747.581 9.54393 L755.035 9.54393 L755.035 18.9825 L747.581 18.9825 L747.581 9.54393 Z" fill="#000000" fill-rule="nonzero" fill-opacity="1" /><path clip-path="url(#clip930)" d="M809.439 48.0275 L809.439 51.6733 L775.168 51.6733 Q775.654 59.3701 779.786 63.421 Q783.958 67.4314 791.372 67.4314 Q795.666 67.4314 799.676 66.3781 Q803.727 65.3249 807.697 63.2184 L807.697 70.267 Q803.686 71.9684 799.473 72.8596 Q795.26 73.7508 790.926 73.7508 Q780.07 73.7508 773.71 67.4314 Q767.39 61.1119 767.39 50.3365 Q767.39 39.1965 773.386 32.6746 Q779.421 26.1121 789.63 26.1121 Q798.785 26.1121 804.091 32.0264 Q809.439 37.9003 809.439 48.0275 M801.985 45.84 Q801.904 39.7232 798.542 36.0774 Q795.22 32.4315 789.711 32.4315 Q783.472 32.4315 779.705 35.9558 Q775.978 39.4801 775.411 45.8805 L801.985 45.84 Z" fill="#000000" fill-rule="nonzero" fill-opacity="1" /><path clip-path="url(#clip930)" d="M821.672 9.54393 L829.126 9.54393 L829.126 72.576 L821.672 72.576 L821.672 9.54393 Z" fill="#000000" fill-rule="nonzero" fill-opacity="1" /><path clip-path="url(#clip930)" d="M844.722 9.54393 L852.176 9.54393 L852.176 72.576 L844.722 72.576 L844.722 9.54393 Z" fill="#000000" fill-rule="nonzero" fill-opacity="1" /><path clip-path="url(#clip930)" d="M910.063 72.576 L886.973 12.096 L895.52 12.096 L914.681 63.0159 L933.882 12.096 L942.389 12.096 L919.34 72.576 L910.063 72.576 Z" fill="#000000" fill-rule="nonzero" fill-opacity="1" /><path clip-path="url(#clip930)" d="M983.263 48.0275 L983.263 51.6733 L948.992 51.6733 Q949.478 59.3701 953.61 63.421 Q957.783 67.4314 965.196 67.4314 Q969.49 67.4314 973.5 66.3781 Q977.551 65.3249 981.521 63.2184 L981.521 70.267 Q977.511 71.9684 973.298 72.8596 Q969.085 73.7508 964.75 73.7508 Q953.894 73.7508 947.534 67.4314 Q941.215 61.1119 941.215 50.3365 Q941.215 39.1965 947.21 32.6746 Q953.246 26.1121 963.454 26.1121 Q972.609 26.1121 977.916 32.0264 Q983.263 37.9003 983.263 48.0275 M975.809 45.84 Q975.728 39.7232 972.366 36.0774 Q969.044 32.4315 963.535 32.4315 Q957.297 32.4315 953.529 35.9558 Q949.802 39.4801 949.235 45.8805 L975.809 45.84 Z" fill="#000000" fill-rule="nonzero" fill-opacity="1" /><path clip-path="url(#clip930)" d="M995.213 9.54393 L1002.71 9.54393 L1002.71 46.7717 L1024.95 27.2059 L1034.47 27.2059 L1010.4 48.4326 L1035.48 72.576 L1025.76 72.576 L1002.71 50.4176 L1002.71 72.576 L995.213 72.576 L995.213 9.54393 Z" fill="#000000" fill-rule="nonzero" fill-opacity="1" /><path clip-path="url(#clip930)" d="M1072.46 28.5427 L1072.46 35.5912 Q1069.3 33.9709 1065.9 33.1607 Q1062.5 32.3505 1058.85 32.3505 Q1053.3 32.3505 1050.51 34.0519 Q1047.75 35.7533 1047.75 39.156 Q1047.75 41.7486 1049.74 43.2475 Q1051.72 44.7058 1057.72 46.0426 L1060.27 46.6097 Q1068.21 48.3111 1071.53 51.4303 Q1074.89 54.509 1074.89 60.0587 Q1074.89 66.3781 1069.87 70.0644 Q1064.89 73.7508 1056.14 73.7508 Q1052.49 73.7508 1048.52 73.0216 Q1044.59 72.3329 1040.22 70.9151 L1040.22 63.2184 Q1044.35 65.3654 1048.36 66.4591 Q1052.37 67.5124 1056.3 67.5124 Q1061.57 67.5124 1064.4 65.73 Q1067.24 63.9071 1067.24 60.6258 Q1067.24 57.5877 1065.17 55.9673 Q1063.15 54.3469 1056.22 52.8481 L1053.63 52.2405 Q1046.7 50.7821 1043.62 47.7845 Q1040.54 44.7463 1040.54 39.4801 Q1040.54 33.0797 1045.08 29.5959 Q1049.62 26.1121 1057.96 26.1121 Q1062.09 26.1121 1065.74 26.7198 Q1069.39 27.3274 1072.46 28.5427 Z" fill="#000000" fill-rule="nonzero" fill-opacity="1" /><path clip-path="url(#clip930)" d="M1094.14 14.324 L1094.14 27.2059 L1109.49 27.2059 L1109.49 32.9987 L1094.14 32.9987 L1094.14 57.6282 Q1094.14 63.1779 1095.64 64.7578 Q1097.17 66.3376 1101.83 66.3376 L1109.49 66.3376 L1109.49 72.576 L1101.83 72.576 Q1093.2 72.576 1089.92 69.3758 Q1086.64 66.1351 1086.64 57.6282 L1086.64 32.9987 L1081.17 32.9987 L1081.17 27.2059 L1086.64 27.2059 L1086.64 14.324 L1094.14 14.324 Z" fill="#000000" fill-rule="nonzero" fill-opacity="1" /><path clip-path="url(#clip930)" d="M1163.24 32.4315 Q1157.25 32.4315 1153.77 37.1306 Q1150.28 41.7891 1150.28 49.9314 Q1150.28 58.0738 1153.72 62.7728 Q1157.21 67.4314 1163.24 67.4314 Q1169.2 67.4314 1172.68 62.7323 Q1176.17 58.0333 1176.17 49.9314 Q1176.17 41.8701 1172.68 37.1711 Q1169.2 32.4315 1163.24 32.4315 M1163.24 26.1121 Q1172.97 26.1121 1178.52 32.4315 Q1184.07 38.7509 1184.07 49.9314 Q1184.07 61.0714 1178.52 67.4314 Q1172.97 73.7508 1163.24 73.7508 Q1153.48 73.7508 1147.93 67.4314 Q1142.42 61.0714 1142.42 49.9314 Q1142.42 38.7509 1147.93 32.4315 Q1153.48 26.1121 1163.24 26.1121 Z" fill="#000000" fill-rule="nonzero" fill-opacity="1" /><path clip-path="url(#clip930)" d="M1191.07 27.2059 L1198.97 27.2059 L1213.15 65.2844 L1227.33 27.2059 L1235.23 27.2059 L1218.22 72.576 L1208.09 72.576 L1191.07 27.2059 Z" fill="#000000" fill-rule="nonzero" fill-opacity="1" /><path clip-path="url(#clip930)" d="M1284.33 48.0275 L1284.33 51.6733 L1250.06 51.6733 Q1250.54 59.3701 1254.67 63.421 Q1258.85 67.4314 1266.26 67.4314 Q1270.55 67.4314 1274.56 66.3781 Q1278.61 65.3249 1282.58 63.2184 L1282.58 70.267 Q1278.57 71.9684 1274.36 72.8596 Q1270.15 73.7508 1265.81 73.7508 Q1254.96 73.7508 1248.6 67.4314 Q1242.28 61.1119 1242.28 50.3365 Q1242.28 39.1965 1248.27 32.6746 Q1254.31 26.1121 1264.52 26.1121 Q1273.67 26.1121 1278.98 32.0264 Q1284.33 37.9003 1284.33 48.0275 M1276.87 45.84 Q1276.79 39.7232 1273.43 36.0774 Q1270.11 32.4315 1264.6 32.4315 Q1258.36 32.4315 1254.59 35.9558 Q1250.87 39.4801 1250.3 45.8805 L1276.87 45.84 Z" fill="#000000" fill-rule="nonzero" fill-opacity="1" /><path clip-path="url(#clip930)" d="M1322.85 34.1734 Q1321.59 33.4443 1320.1 33.1202 Q1318.64 32.7556 1316.85 32.7556 Q1310.54 32.7556 1307.13 36.8875 Q1303.77 40.9789 1303.77 48.6757 L1303.77 72.576 L1296.28 72.576 L1296.28 27.2059 L1303.77 27.2059 L1303.77 34.2544 Q1306.12 30.1225 1309.89 28.1376 Q1313.65 26.1121 1319.04 26.1121 Q1319.81 26.1121 1320.74 26.2337 Q1321.68 26.3147 1322.81 26.5172 L1322.85 34.1734 Z" fill="#000000" fill-rule="nonzero" fill-opacity="1" /><path clip-path="url(#clip930)" d="M1348.98 12.096 L1400.14 12.096 L1400.14 18.9825 L1378.67 18.9825 L1378.67 72.576 L1370.45 72.576 L1370.45 18.9825 L1348.98 18.9825 L1348.98 12.096 Z" fill="#000000" fill-rule="nonzero" fill-opacity="1" /><path clip-path="url(#clip930)" d="M1405.16 27.2059 L1412.62 27.2059 L1412.62 72.576 L1405.16 72.576 L1405.16 27.2059 M1405.16 9.54393 L1412.62 9.54393 L1412.62 18.9825 L1405.16 18.9825 L1405.16 9.54393 Z" fill="#000000" fill-rule="nonzero" fill-opacity="1" /><path clip-path="url(#clip930)" d="M1458.07 34.0924 L1458.07 9.54393 L1465.52 9.54393 L1465.52 72.576 L1458.07 72.576 L1458.07 65.7705 Q1455.72 69.8214 1452.11 71.8063 Q1448.55 73.7508 1443.53 73.7508 Q1435.3 73.7508 1430.12 67.1883 Q1424.97 60.6258 1424.97 49.9314 Q1424.97 39.2371 1430.12 32.6746 Q1435.3 26.1121 1443.53 26.1121 Q1448.55 26.1121 1452.11 28.0971 Q1455.72 30.0415 1458.07 34.0924 M1432.67 49.9314 Q1432.67 58.1548 1436.03 62.8538 Q1439.44 67.5124 1445.35 67.5124 Q1451.26 67.5124 1454.67 62.8538 Q1458.07 58.1548 1458.07 49.9314 Q1458.07 41.7081 1454.67 37.0496 Q1451.26 32.3505 1445.35 32.3505 Q1439.44 32.3505 1436.03 37.0496 Q1432.67 41.7081 1432.67 49.9314 Z" fill="#000000" fill-rule="nonzero" fill-opacity="1" /><path clip-path="url(#clip930)" d="M1525.15 9.62495 Q1519.72 18.942 1517.09 28.0566 Q1514.46 37.1711 1514.46 46.5287 Q1514.46 55.8863 1517.09 65.0818 Q1519.76 74.2369 1525.15 83.5134 L1518.67 83.5134 Q1512.59 73.9938 1509.56 64.7983 Q1506.56 55.6027 1506.56 46.5287 Q1506.56 37.4952 1509.56 28.3401 Q1512.55 19.1851 1518.67 9.62495 L1525.15 9.62495 Z" fill="#000000" fill-rule="nonzero" fill-opacity="1" /><path clip-path="url(#clip930)" d="M1539.61 9.54393 L1547.07 9.54393 L1547.07 72.576 L1539.61 72.576 L1539.61 9.54393 Z" fill="#000000" fill-rule="nonzero" fill-opacity="1" /><path clip-path="url(#clip930)" d="M1580.24 32.4315 Q1574.25 32.4315 1570.77 37.1306 Q1567.28 41.7891 1567.28 49.9314 Q1567.28 58.0738 1570.73 62.7728 Q1574.21 67.4314 1580.24 67.4314 Q1586.2 67.4314 1589.68 62.7323 Q1593.17 58.0333 1593.17 49.9314 Q1593.17 41.8701 1589.68 37.1711 Q1586.2 32.4315 1580.24 32.4315 M1580.24 26.1121 Q1589.97 26.1121 1595.52 32.4315 Q1601.07 38.7509 1601.07 49.9314 Q1601.07 61.0714 1595.52 67.4314 Q1589.97 73.7508 1580.24 73.7508 Q1570.48 73.7508 1564.93 67.4314 Q1559.42 61.0714 1559.42 49.9314 Q1559.42 38.7509 1564.93 32.4315 Q1570.48 26.1121 1580.24 26.1121 Z" fill="#000000" fill-rule="nonzero" fill-opacity="1" /><path clip-path="url(#clip930)" d="M1643.28 49.3643 Q1643.28 41.2625 1639.91 36.8065 Q1636.59 32.3505 1630.56 32.3505 Q1624.56 32.3505 1621.2 36.8065 Q1617.88 41.2625 1617.88 49.3643 Q1617.88 57.4256 1621.2 61.8816 Q1624.56 66.3376 1630.56 66.3376 Q1636.59 66.3376 1639.91 61.8816 Q1643.28 57.4256 1643.28 49.3643 M1650.73 66.9452 Q1650.73 78.5308 1645.59 84.1616 Q1640.44 89.8329 1629.83 89.8329 Q1625.9 89.8329 1622.41 89.2252 Q1618.93 88.6581 1615.65 87.4428 L1615.65 80.1917 Q1618.93 81.9741 1622.13 82.8248 Q1625.33 83.6755 1628.65 83.6755 Q1635.99 83.6755 1639.63 79.8271 Q1643.28 76.0193 1643.28 68.282 L1643.28 64.5957 Q1640.97 68.6061 1637.36 70.5911 Q1633.76 72.576 1628.73 72.576 Q1620.39 72.576 1615.29 66.2161 Q1610.18 59.8562 1610.18 49.3643 Q1610.18 38.832 1615.29 32.472 Q1620.39 26.1121 1628.73 26.1121 Q1633.76 26.1121 1637.36 28.0971 Q1640.97 30.082 1643.28 34.0924 L1643.28 27.2059 L1650.73 27.2059 L1650.73 66.9452 Z" fill="#000000" fill-rule="nonzero" fill-opacity="1" /><path clip-path="url(#clip930)" d="M1686.7 49.7694 Q1677.67 49.7694 1674.19 51.8354 Q1670.7 53.9013 1670.7 58.8839 Q1670.7 62.8538 1673.29 65.2034 Q1675.93 67.5124 1680.42 67.5124 Q1686.62 67.5124 1690.35 63.1374 Q1694.12 58.7219 1694.12 51.4303 L1694.12 49.7694 L1686.7 49.7694 M1701.57 46.6907 L1701.57 72.576 L1694.12 72.576 L1694.12 65.6895 Q1691.56 69.8214 1687.76 71.8063 Q1683.95 73.7508 1678.44 73.7508 Q1671.47 73.7508 1667.34 69.8619 Q1663.25 65.9325 1663.25 59.3701 Q1663.25 51.7138 1668.35 47.825 Q1673.5 43.9361 1683.66 43.9361 L1694.12 43.9361 L1694.12 43.2069 Q1694.12 38.0623 1690.71 35.2672 Q1687.35 32.4315 1681.23 32.4315 Q1677.34 32.4315 1673.66 33.3632 Q1669.97 34.295 1666.57 36.1584 L1666.57 29.2718 Q1670.66 27.692 1674.51 26.9223 Q1678.36 26.1121 1682 26.1121 Q1691.85 26.1121 1696.71 31.2163 Q1701.57 36.3204 1701.57 46.6907 Z" fill="#000000" fill-rule="nonzero" fill-opacity="1" /><path clip-path="url(#clip930)" d="M1743.21 34.1734 Q1741.96 33.4443 1740.46 33.1202 Q1739 32.7556 1737.22 32.7556 Q1730.9 32.7556 1727.5 36.8875 Q1724.13 40.9789 1724.13 48.6757 L1724.13 72.576 L1716.64 72.576 L1716.64 27.2059 L1724.13 27.2059 L1724.13 34.2544 Q1726.48 30.1225 1730.25 28.1376 Q1734.02 26.1121 1739.4 26.1121 Q1740.17 26.1121 1741.11 26.2337 Q1742.04 26.3147 1743.17 26.5172 L1743.21 34.1734 Z" fill="#000000" fill-rule="nonzero" fill-opacity="1" /><path clip-path="url(#clip930)" d="M1751.03 27.2059 L1758.48 27.2059 L1758.48 72.576 L1751.03 72.576 L1751.03 27.2059 M1751.03 9.54393 L1758.48 9.54393 L1758.48 18.9825 L1751.03 18.9825 L1751.03 9.54393 Z" fill="#000000" fill-rule="nonzero" fill-opacity="1" /><path clip-path="url(#clip930)" d="M1781.45 14.324 L1781.45 27.2059 L1796.81 27.2059 L1796.81 32.9987 L1781.45 32.9987 L1781.45 57.6282 Q1781.45 63.1779 1782.95 64.7578 Q1784.49 66.3376 1789.15 66.3376 L1796.81 66.3376 L1796.81 72.576 L1789.15 72.576 Q1780.52 72.576 1777.24 69.3758 Q1773.96 66.1351 1773.96 57.6282 L1773.96 32.9987 L1768.49 32.9987 L1768.49 27.2059 L1773.96 27.2059 L1773.96 14.324 L1781.45 14.324 Z" fill="#000000" fill-rule="nonzero" fill-opacity="1" /><path clip-path="url(#clip930)" d="M1841.93 35.9153 Q1844.73 30.8922 1848.62 28.5022 Q1852.51 26.1121 1857.77 26.1121 Q1864.86 26.1121 1868.71 31.0947 Q1872.56 36.0368 1872.56 45.1919 L1872.56 72.576 L1865.06 72.576 L1865.06 45.4349 Q1865.06 38.913 1862.75 35.7533 Q1860.45 32.5936 1855.71 32.5936 Q1849.91 32.5936 1846.55 36.4419 Q1843.19 40.2903 1843.19 46.9338 L1843.19 72.576 L1835.69 72.576 L1835.69 45.4349 Q1835.69 38.8725 1833.39 35.7533 Q1831.08 32.5936 1826.26 32.5936 Q1820.54 32.5936 1817.18 36.4824 Q1813.82 40.3308 1813.82 46.9338 L1813.82 72.576 L1806.33 72.576 L1806.33 27.2059 L1813.82 27.2059 L1813.82 34.2544 Q1816.37 30.082 1819.94 28.0971 Q1823.5 26.1121 1828.4 26.1121 Q1833.35 26.1121 1836.79 28.6237 Q1840.27 31.1352 1841.93 35.9153 Z" fill="#000000" fill-rule="nonzero" fill-opacity="1" /><path clip-path="url(#clip930)" d="M1887.42 27.2059 L1894.88 27.2059 L1894.88 72.576 L1887.42 72.576 L1887.42 27.2059 M1887.42 9.54393 L1894.88 9.54393 L1894.88 18.9825 L1887.42 18.9825 L1887.42 9.54393 Z" fill="#000000" fill-rule="nonzero" fill-opacity="1" /><path clip-path="url(#clip930)" d="M1939.4 28.5427 L1939.4 35.5912 Q1936.24 33.9709 1932.84 33.1607 Q1929.43 32.3505 1925.79 32.3505 Q1920.24 32.3505 1917.44 34.0519 Q1914.69 35.7533 1914.69 39.156 Q1914.69 41.7486 1916.67 43.2475 Q1918.66 44.7058 1924.65 46.0426 L1927.2 46.6097 Q1935.14 48.3111 1938.47 51.4303 Q1941.83 54.509 1941.83 60.0587 Q1941.83 66.3781 1936.81 70.0644 Q1931.82 73.7508 1923.07 73.7508 Q1919.43 73.7508 1915.46 73.0216 Q1911.53 72.3329 1907.15 70.9151 L1907.15 63.2184 Q1911.28 65.3654 1915.29 66.4591 Q1919.31 67.5124 1923.23 67.5124 Q1928.5 67.5124 1931.34 65.73 Q1934.17 63.9071 1934.17 60.6258 Q1934.17 57.5877 1932.11 55.9673 Q1930.08 54.3469 1923.15 52.8481 L1920.56 52.2405 Q1913.63 50.7821 1910.56 47.7845 Q1907.48 44.7463 1907.48 39.4801 Q1907.48 33.0797 1912.01 29.5959 Q1916.55 26.1121 1924.9 26.1121 Q1929.03 26.1121 1932.67 26.7198 Q1936.32 27.3274 1939.4 28.5427 Z" fill="#000000" fill-rule="nonzero" fill-opacity="1" /><path clip-path="url(#clip930)" d="M1953.41 9.54393 L1960.91 9.54393 L1960.91 46.7717 L1983.15 27.2059 L1992.67 27.2059 L1968.6 48.4326 L1993.68 72.576 L1983.96 72.576 L1960.91 50.4176 L1960.91 72.576 L1953.41 72.576 L1953.41 9.54393 Z" fill="#000000" fill-rule="nonzero" fill-opacity="1" /><path clip-path="url(#clip930)" d="M2057.04 28.5427 L2057.04 35.5912 Q2053.88 33.9709 2050.47 33.1607 Q2047.07 32.3505 2043.43 32.3505 Q2037.88 32.3505 2035.08 34.0519 Q2032.33 35.7533 2032.33 39.156 Q2032.33 41.7486 2034.31 43.2475 Q2036.3 44.7058 2042.29 46.0426 L2044.84 46.6097 Q2052.78 48.3111 2056.1 51.4303 Q2059.47 54.509 2059.47 60.0587 Q2059.47 66.3781 2054.44 70.0644 Q2049.46 73.7508 2040.71 73.7508 Q2037.07 73.7508 2033.1 73.0216 Q2029.17 72.3329 2024.79 70.9151 L2024.79 63.2184 Q2028.92 65.3654 2032.93 66.4591 Q2036.94 67.5124 2040.87 67.5124 Q2046.14 67.5124 2048.97 65.73 Q2051.81 63.9071 2051.81 60.6258 Q2051.81 57.5877 2049.74 55.9673 Q2047.72 54.3469 2040.79 52.8481 L2038.2 52.2405 Q2031.27 50.7821 2028.19 47.7845 Q2025.11 44.7463 2025.11 39.4801 Q2025.11 33.0797 2029.65 29.5959 Q2034.19 26.1121 2042.53 26.1121 Q2046.67 26.1121 2050.31 26.7198 Q2053.96 27.3274 2057.04 28.5427 Z" fill="#000000" fill-rule="nonzero" fill-opacity="1" /><path clip-path="url(#clip930)" d="M2071.05 9.54393 L2078.55 9.54393 L2078.55 46.7717 L2100.79 27.2059 L2110.31 27.2059 L2086.24 48.4326 L2111.32 72.576 L2101.6 72.576 L2078.55 50.4176 L2078.55 72.576 L2071.05 72.576 L2071.05 9.54393 Z" fill="#000000" fill-rule="nonzero" fill-opacity="1" /><path clip-path="url(#clip930)" d="M2138.54 49.7694 Q2129.51 49.7694 2126.02 51.8354 Q2122.54 53.9013 2122.54 58.8839 Q2122.54 62.8538 2125.13 65.2034 Q2127.76 67.5124 2132.26 67.5124 Q2138.46 67.5124 2142.19 63.1374 Q2145.95 58.7219 2145.95 51.4303 L2145.95 49.7694 L2138.54 49.7694 M2153.41 46.6907 L2153.41 72.576 L2145.95 72.576 L2145.95 65.6895 Q2143.4 69.8214 2139.59 71.8063 Q2135.79 73.7508 2130.28 73.7508 Q2123.31 73.7508 2119.18 69.8619 Q2115.09 65.9325 2115.09 59.3701 Q2115.09 51.7138 2120.19 47.825 Q2125.33 43.9361 2135.5 43.9361 L2145.95 43.9361 L2145.95 43.2069 Q2145.95 38.0623 2142.55 35.2672 Q2139.19 32.4315 2133.07 32.4315 Q2129.18 32.4315 2125.5 33.3632 Q2121.81 34.295 2118.41 36.1584 L2118.41 29.2718 Q2122.5 27.692 2126.35 26.9223 Q2130.2 26.1121 2133.84 26.1121 Q2143.68 26.1121 2148.55 31.2163 Q2153.41 36.3204 2153.41 46.6907 Z" fill="#000000" fill-rule="nonzero" fill-opacity="1" /><path clip-path="url(#clip930)" d="M2168.76 9.54393 L2176.21 9.54393 L2176.21 72.576 L2168.76 72.576 L2168.76 9.54393 Z" fill="#000000" fill-rule="nonzero" fill-opacity="1" /><path clip-path="url(#clip930)" d="M2212.43 49.7694 Q2203.4 49.7694 2199.91 51.8354 Q2196.43 53.9013 2196.43 58.8839 Q2196.43 62.8538 2199.02 65.2034 Q2201.65 67.5124 2206.15 67.5124 Q2212.35 67.5124 2216.07 63.1374 Q2219.84 58.7219 2219.84 51.4303 L2219.84 49.7694 L2212.43 49.7694 M2227.3 46.6907 L2227.3 72.576 L2219.84 72.576 L2219.84 65.6895 Q2217.29 69.8214 2213.48 71.8063 Q2209.67 73.7508 2204.16 73.7508 Q2197.2 73.7508 2193.07 69.8619 Q2188.97 65.9325 2188.97 59.3701 Q2188.97 51.7138 2194.08 47.825 Q2199.22 43.9361 2209.39 43.9361 L2219.84 43.9361 L2219.84 43.2069 Q2219.84 38.0623 2216.44 35.2672 Q2213.08 32.4315 2206.96 32.4315 Q2203.07 32.4315 2199.38 33.3632 Q2195.7 34.295 2192.3 36.1584 L2192.3 29.2718 Q2196.39 27.692 2200.24 26.9223 Q2204.08 26.1121 2207.73 26.1121 Q2217.57 26.1121 2222.43 31.2163 Q2227.3 36.3204 2227.3 46.6907 Z" fill="#000000" fill-rule="nonzero" fill-opacity="1" /><path clip-path="url(#clip930)" d="M2241.47 9.62495 L2247.96 9.62495 Q2254.03 19.1851 2257.03 28.3401 Q2260.07 37.4952 2260.07 46.5287 Q2260.07 55.6027 2257.03 64.7983 Q2254.03 73.9938 2247.96 83.5134 L2241.47 83.5134 Q2246.86 74.2369 2249.49 65.0818 Q2252.17 55.8863 2252.17 46.5287 Q2252.17 37.1711 2249.49 28.0566 Q2246.86 18.942 2241.47 9.62495 Z" fill="#000000" fill-rule="nonzero" fill-opacity="1" /><polyline clip-path="url(#clip932)" style="stroke:#009af9; stroke-linecap:round; stroke-linejoin:round; stroke-width:4; stroke-opacity:1; fill:none" points="279.759,1386.4 380.39,1325.09 481.021,1263.78 581.652,1202.47 682.282,1141.17 782.913,1079.86 883.544,1018.55 984.175,957.247 1084.81,895.94 1185.44,834.633 1286.07,773.326 1386.7,712.019 1487.33,650.712 1587.96,589.405 1688.59,528.098 1789.22,466.791 1889.85,405.484 1990.48,344.177 2091.12,282.87 2191.75,221.563 2292.38,160.256 "/>
<path clip-path="url(#clip930)" d="M290.493 270.476 L959.499 270.476 L959.499 166.796 L290.493 166.796  Z" fill="#ffffff" fill-rule="evenodd" fill-opacity="1"/>
<polyline clip-path="url(#clip930)" style="stroke:#000000; stroke-linecap:round; stroke-linejoin:round; stroke-width:4; stroke-opacity:1; fill:none" points="290.493,270.476 959.499,270.476 959.499,166.796 290.493,166.796 290.493,270.476 "/>
<polyline clip-path="url(#clip930)" style="stroke:#009af9; stroke-linecap:round; stroke-linejoin:round; stroke-width:4; stroke-opacity:1; fill:none" points="314.197,218.636 456.422,218.636 "/>
<path clip-path="url(#clip930)" d="M480.126 201.356 L501.978 201.356 L501.978 205.291 L484.802 205.291 L484.802 215.522 L501.26 215.522 L501.26 219.457 L484.802 219.457 L484.802 231.981 L502.394 231.981 L502.394 235.916 L480.126 235.916 L480.126 201.356 Z" fill="#000000" fill-rule="nonzero" fill-opacity="1" /><path clip-path="url(#clip930)" d="M509.732 199.897 L514.015 199.897 L514.015 221.17 L526.723 209.99 L532.163 209.99 L518.413 222.119 L532.742 235.916 L527.186 235.916 L514.015 223.254 L514.015 235.916 L509.732 235.916 L509.732 199.897 Z" fill="#000000" fill-rule="nonzero" fill-opacity="1" /><path clip-path="url(#clip930)" d="M553.876 210.754 L553.876 214.782 Q552.07 213.856 550.126 213.393 Q548.181 212.93 546.098 212.93 Q542.927 212.93 541.329 213.902 Q539.755 214.874 539.755 216.819 Q539.755 218.3 540.89 219.157 Q542.024 219.99 545.45 220.754 L546.908 221.078 Q551.445 222.05 553.343 223.832 Q555.265 225.592 555.265 228.763 Q555.265 232.374 552.394 234.481 Q549.547 236.587 544.547 236.587 Q542.464 236.587 540.195 236.17 Q537.95 235.777 535.45 234.967 L535.45 230.569 Q537.811 231.795 540.103 232.42 Q542.394 233.022 544.64 233.022 Q547.649 233.022 549.269 232.004 Q550.89 230.962 550.89 229.087 Q550.89 227.351 549.709 226.425 Q548.552 225.499 544.593 224.643 L543.112 224.295 Q539.154 223.462 537.394 221.749 Q535.635 220.013 535.635 217.004 Q535.635 213.346 538.228 211.356 Q540.82 209.365 545.589 209.365 Q547.95 209.365 550.033 209.712 Q552.116 210.059 553.876 210.754 Z" fill="#000000" fill-rule="nonzero" fill-opacity="1" /><path clip-path="url(#clip930)" d="M566.167 232.027 L566.167 245.777 L561.885 245.777 L561.885 209.99 L566.167 209.99 L566.167 213.925 Q567.51 211.61 569.547 210.499 Q571.607 209.365 574.454 209.365 Q579.176 209.365 582.116 213.115 Q585.079 216.865 585.079 222.976 Q585.079 229.087 582.116 232.837 Q579.176 236.587 574.454 236.587 Q571.607 236.587 569.547 235.476 Q567.51 234.342 566.167 232.027 M580.658 222.976 Q580.658 218.277 578.714 215.615 Q576.792 212.93 573.413 212.93 Q570.033 212.93 568.089 215.615 Q566.167 218.277 566.167 222.976 Q566.167 227.675 568.089 230.36 Q570.033 233.022 573.413 233.022 Q576.792 233.022 578.714 230.36 Q580.658 227.675 580.658 222.976 Z" fill="#000000" fill-rule="nonzero" fill-opacity="1" /><path clip-path="url(#clip930)" d="M602.186 212.976 Q598.76 212.976 596.769 215.661 Q594.778 218.323 594.778 222.976 Q594.778 227.629 596.746 230.314 Q598.737 232.976 602.186 232.976 Q605.588 232.976 607.579 230.291 Q609.57 227.606 609.57 222.976 Q609.57 218.37 607.579 215.684 Q605.588 212.976 602.186 212.976 M602.186 209.365 Q607.741 209.365 610.912 212.976 Q614.084 216.587 614.084 222.976 Q614.084 229.342 610.912 232.976 Q607.741 236.587 602.186 236.587 Q596.607 236.587 593.436 232.976 Q590.288 229.342 590.288 222.976 Q590.288 216.587 593.436 212.976 Q596.607 209.365 602.186 209.365 Z" fill="#000000" fill-rule="nonzero" fill-opacity="1" /><path clip-path="url(#clip930)" d="M642.695 220.268 L642.695 235.916 L638.435 235.916 L638.435 220.407 Q638.435 216.726 637 214.897 Q635.565 213.069 632.695 213.069 Q629.246 213.069 627.255 215.268 Q625.264 217.467 625.264 221.263 L625.264 235.916 L620.982 235.916 L620.982 209.99 L625.264 209.99 L625.264 214.018 Q626.792 211.68 628.852 210.522 Q630.935 209.365 633.644 209.365 Q638.111 209.365 640.403 212.143 Q642.695 214.897 642.695 220.268 Z" fill="#000000" fill-rule="nonzero" fill-opacity="1" /><path clip-path="url(#clip930)" d="M673.366 221.888 L673.366 223.971 L653.783 223.971 Q654.06 228.369 656.421 230.684 Q658.806 232.976 663.042 232.976 Q665.495 232.976 667.787 232.374 Q670.102 231.772 672.37 230.569 L672.37 234.596 Q670.079 235.568 667.671 236.078 Q665.264 236.587 662.787 236.587 Q656.583 236.587 652.949 232.976 Q649.338 229.365 649.338 223.207 Q649.338 216.842 652.764 213.115 Q656.213 209.365 662.046 209.365 Q667.278 209.365 670.31 212.745 Q673.366 216.101 673.366 221.888 M669.107 220.638 Q669.06 217.143 667.139 215.059 Q665.241 212.976 662.093 212.976 Q658.528 212.976 656.375 214.99 Q654.246 217.004 653.921 220.661 L669.107 220.638 Z" fill="#000000" fill-rule="nonzero" fill-opacity="1" /><path clip-path="url(#clip930)" d="M701.907 220.268 L701.907 235.916 L697.648 235.916 L697.648 220.407 Q697.648 216.726 696.213 214.897 Q694.778 213.069 691.907 213.069 Q688.458 213.069 686.468 215.268 Q684.477 217.467 684.477 221.263 L684.477 235.916 L680.194 235.916 L680.194 209.99 L684.477 209.99 L684.477 214.018 Q686.005 211.68 688.065 210.522 Q690.148 209.365 692.856 209.365 Q697.324 209.365 699.616 212.143 Q701.907 214.897 701.907 220.268 Z" fill="#000000" fill-rule="nonzero" fill-opacity="1" /><path clip-path="url(#clip930)" d="M714.616 202.629 L714.616 209.99 L723.389 209.99 L723.389 213.3 L714.616 213.3 L714.616 227.374 Q714.616 230.545 715.472 231.448 Q716.352 232.351 719.014 232.351 L723.389 232.351 L723.389 235.916 L719.014 235.916 Q714.083 235.916 712.208 234.087 Q710.333 232.235 710.333 227.374 L710.333 213.3 L707.208 213.3 L707.208 209.99 L710.333 209.99 L710.333 202.629 L714.616 202.629 Z" fill="#000000" fill-rule="nonzero" fill-opacity="1" /><path clip-path="url(#clip930)" d="M728.99 209.99 L733.25 209.99 L733.25 235.916 L728.99 235.916 L728.99 209.99 M728.99 199.897 L733.25 199.897 L733.25 205.291 L728.99 205.291 L728.99 199.897 Z" fill="#000000" fill-rule="nonzero" fill-opacity="1" /><path clip-path="url(#clip930)" d="M764.338 221.888 L764.338 223.971 L744.754 223.971 Q745.032 228.369 747.393 230.684 Q749.777 232.976 754.014 232.976 Q756.467 232.976 758.759 232.374 Q761.074 231.772 763.342 230.569 L763.342 234.596 Q761.051 235.568 758.643 236.078 Q756.236 236.587 753.759 236.587 Q747.555 236.587 743.921 232.976 Q740.31 229.365 740.31 223.207 Q740.31 216.842 743.736 213.115 Q747.185 209.365 753.018 209.365 Q758.25 209.365 761.282 212.745 Q764.338 216.101 764.338 221.888 M760.078 220.638 Q760.032 217.143 758.111 215.059 Q756.213 212.976 753.064 212.976 Q749.5 212.976 747.347 214.99 Q745.217 217.004 744.893 220.661 L760.078 220.638 Z" fill="#000000" fill-rule="nonzero" fill-opacity="1" /><path clip-path="url(#clip930)" d="M771.328 199.897 L775.587 199.897 L775.587 235.916 L771.328 235.916 L771.328 199.897 Z" fill="#000000" fill-rule="nonzero" fill-opacity="1" /><path clip-path="url(#clip930)" d="M784.499 199.897 L788.759 199.897 L788.759 235.916 L784.499 235.916 L784.499 199.897 Z" fill="#000000" fill-rule="nonzero" fill-opacity="1" /><path clip-path="url(#clip930)" d="M821.837 235.916 L808.643 201.356 L813.527 201.356 L824.476 230.453 L835.448 201.356 L840.309 201.356 L827.138 235.916 L821.837 235.916 Z" fill="#000000" fill-rule="nonzero" fill-opacity="1" /><path clip-path="url(#clip930)" d="M863.666 221.888 L863.666 223.971 L844.082 223.971 Q844.36 228.369 846.721 230.684 Q849.106 232.976 853.342 232.976 Q855.795 232.976 858.087 232.374 Q860.402 231.772 862.67 230.569 L862.67 234.596 Q860.379 235.568 857.971 236.078 Q855.564 236.587 853.087 236.587 Q846.883 236.587 843.249 232.976 Q839.638 229.365 839.638 223.207 Q839.638 216.842 843.064 213.115 Q846.513 209.365 852.346 209.365 Q857.578 209.365 860.61 212.745 Q863.666 216.101 863.666 221.888 M859.406 220.638 Q859.36 217.143 857.439 215.059 Q855.541 212.976 852.393 212.976 Q848.828 212.976 846.675 214.99 Q844.545 217.004 844.221 220.661 L859.406 220.638 Z" fill="#000000" fill-rule="nonzero" fill-opacity="1" /><path clip-path="url(#clip930)" d="M870.494 199.897 L874.777 199.897 L874.777 221.17 L887.485 209.99 L892.925 209.99 L879.175 222.119 L893.503 235.916 L887.948 235.916 L874.777 223.254 L874.777 235.916 L870.494 235.916 L870.494 199.897 Z" fill="#000000" fill-rule="nonzero" fill-opacity="1" /><path clip-path="url(#clip930)" d="M914.638 210.754 L914.638 214.782 Q912.832 213.856 910.888 213.393 Q908.943 212.93 906.86 212.93 Q903.689 212.93 902.091 213.902 Q900.517 214.874 900.517 216.819 Q900.517 218.3 901.652 219.157 Q902.786 219.99 906.212 220.754 L907.67 221.078 Q912.207 222.05 914.105 223.832 Q916.027 225.592 916.027 228.763 Q916.027 232.374 913.156 234.481 Q910.309 236.587 905.309 236.587 Q903.226 236.587 900.957 236.17 Q898.712 235.777 896.212 234.967 L896.212 230.569 Q898.573 231.795 900.865 232.42 Q903.156 233.022 905.402 233.022 Q908.411 233.022 910.031 232.004 Q911.652 230.962 911.652 229.087 Q911.652 227.351 910.471 226.425 Q909.314 225.499 905.355 224.643 L903.874 224.295 Q899.915 223.462 898.156 221.749 Q896.397 220.013 896.397 217.004 Q896.397 213.346 898.99 211.356 Q901.582 209.365 906.351 209.365 Q908.712 209.365 910.795 209.712 Q912.878 210.059 914.638 210.754 Z" fill="#000000" fill-rule="nonzero" fill-opacity="1" /><path clip-path="url(#clip930)" d="M927.022 202.629 L927.022 209.99 L935.795 209.99 L935.795 213.3 L927.022 213.3 L927.022 227.374 Q927.022 230.545 927.878 231.448 Q928.758 232.351 931.42 232.351 L935.795 232.351 L935.795 235.916 L931.42 235.916 Q926.489 235.916 924.614 234.087 Q922.739 232.235 922.739 227.374 L922.739 213.3 L919.614 213.3 L919.614 209.99 L922.739 209.99 L922.739 202.629 L927.022 202.629 Z" fill="#000000" fill-rule="nonzero" fill-opacity="1" /></svg>