<?xml version="1.0" encoding="utf-8"?>
<svg xmlns="http://www.w3.org/2000/svg" xmlns:xlink="http://www.w3.org/1999/xlink" width="600" height="400" viewBox="0 0 2400 1600">
<defs>
  <clipPath id="clip390">
    <rect x="0" y="0" width="2400" height="1600"/>
  </clipPath>
</defs>
<path clip-path="url(#clip390)" d="M0 1600 L2400 1600 L2400 0 L0 0  Z" fill="#ffffff" fill-rule="evenodd" fill-opacity="1"/>
<defs>
  <clipPath id="clip391">
    <rect x="480" y="0" width="1681" height="1600"/>
  </clipPath>
</defs>
<path clip-path="url(#clip390)" d="M147.478 1486.45 L2352.76 1486.45 L2352.76 47.2441 L147.478 47.2441  Z" fill="#ffffff" fill-rule="evenodd" fill-opacity="1"/>
<defs>
  <clipPath id="clip392">
    <rect x="147" y="47" width="2206" height="1440"/>
  </clipPath>
</defs>
<polyline clip-path="url(#clip392)" style="stroke:#000000; stroke-linecap:round; stroke-linejoin:round; stroke-width:2; stroke-opacity:0.1; fill:none" points="209.891,1486.45 209.891,47.2441 "/>
<polyline clip-path="url(#clip392)" style="stroke:#000000; stroke-linecap:round; stroke-linejoin:round; stroke-width:2; stroke-opacity:0.1; fill:none" points="730.004,1486.45 730.004,47.2441 "/>
<polyline clip-path="url(#clip392)" style="stroke:#000000; stroke-linecap:round; stroke-linejoin:round; stroke-width:2; stroke-opacity:0.1; fill:none" points="1770.23,1486.45 1770.23,47.2441 "/>
<polyline clip-path="url(#clip392)" style="stroke:#000000; stroke-linecap:round; stroke-linejoin:round; stroke-width:2; stroke-opacity:0.1; fill:none" points="2290.34,1486.45 2290.34,47.2441 "/>
<polyline clip-path="url(#clip390)" style="stroke:#000000; stroke-linecap:round; stroke-linejoin:round; stroke-width:4; stroke-opacity:1; fill:none" points="147.478,766.86 2352.76,766.86 "/>
<polyline clip-path="url(#clip390)" style="stroke:#000000; stroke-linecap:round; stroke-linejoin:round; stroke-width:4; stroke-opacity:1; fill:none" points="209.891,785.758 209.891,747.962 "/>
<polyline clip-path="url(#clip390)" style="stroke:#000000; stroke-linecap:round; stroke-linejoin:round; stroke-width:4; stroke-opacity:1; fill:none" points="730.004,785.758 730.004,747.962 "/>
<polyline clip-path="url(#clip390)" style="stroke:#000000; stroke-linecap:round; stroke-linejoin:round; stroke-width:4; stroke-opacity:1; fill:none" points="1770.23,785.758 1770.23,747.962 "/>
<polyline clip-path="url(#clip390)" style="stroke:#000000; stroke-linecap:round; stroke-linejoin:round; stroke-width:4; stroke-opacity:1; fill:none" points="2290.34,785.758 2290.34,747.962 "/>
<path clip-path="url(#clip390)" d="M179.834 812.431 L209.509 812.431 L209.509 816.367 L179.834 816.367 L179.834 812.431 Z" fill="#000000" fill-rule="nonzero" fill-opacity="1" /><path clip-path="url(#clip390)" d="M223.63 825.325 L239.949 825.325 L239.949 829.26 L218.005 829.26 L218.005 825.325 Q220.667 822.57 225.25 817.941 Q229.857 813.288 231.037 811.945 Q233.283 809.422 234.162 807.686 Q235.065 805.927 235.065 804.237 Q235.065 801.482 233.12 799.746 Q231.199 798.01 228.097 798.01 Q225.898 798.01 223.445 798.774 Q221.014 799.538 218.236 801.089 L218.236 796.367 Q221.06 795.232 223.514 794.654 Q225.968 794.075 228.005 794.075 Q233.375 794.075 236.57 796.76 Q239.764 799.445 239.764 803.936 Q239.764 806.066 238.954 807.987 Q238.167 809.885 236.06 812.478 Q235.482 813.149 232.38 816.367 Q229.278 819.561 223.63 825.325 Z" fill="#000000" fill-rule="nonzero" fill-opacity="1" /><path clip-path="url(#clip390)" d="M699.761 812.431 L729.437 812.431 L729.437 816.367 L699.761 816.367 L699.761 812.431 Z" fill="#000000" fill-rule="nonzero" fill-opacity="1" /><path clip-path="url(#clip390)" d="M740.34 825.325 L747.979 825.325 L747.979 798.959 L739.668 800.626 L739.668 796.367 L747.932 794.7 L752.608 794.7 L752.608 825.325 L760.247 825.325 L760.247 829.26 L740.34 829.26 L740.34 825.325 Z" fill="#000000" fill-rule="nonzero" fill-opacity="1" /><path clip-path="url(#clip390)" d="M1760.61 825.325 L1768.25 825.325 L1768.25 798.959 L1759.94 800.626 L1759.94 796.367 L1768.2 794.7 L1772.88 794.7 L1772.88 825.325 L1780.52 825.325 L1780.52 829.26 L1760.61 829.26 L1760.61 825.325 Z" fill="#000000" fill-rule="nonzero" fill-opacity="1" /><path clip-path="url(#clip390)" d="M2285 825.325 L2301.31 825.325 L2301.31 829.26 L2279.37 829.26 L2279.37 825.325 Q2282.03 822.57 2286.62 817.941 Q2291.22 813.288 2292.4 811.945 Q2294.65 809.422 2295.53 807.686 Q2296.43 805.927 2296.43 804.237 Q2296.43 801.482 2294.49 799.746 Q2292.56 798.01 2289.46 798.01 Q2287.26 798.01 2284.81 798.774 Q2282.38 799.538 2279.6 801.089 L2279.6 796.367 Q2282.43 795.232 2284.88 794.654 Q2287.33 794.075 2289.37 794.075 Q2294.74 794.075 2297.93 796.76 Q2301.13 799.445 2301.13 803.936 Q2301.13 806.066 2300.32 807.987 Q2299.53 809.885 2297.43 812.478 Q2296.85 813.149 2293.75 816.367 Q2290.64 819.561 2285 825.325 Z" fill="#000000" fill-rule="nonzero" fill-opacity="1" /><polyline clip-path="url(#clip392)" style="stroke:#000000; stroke-linecap:round; stroke-linejoin:round; stroke-width:2; stroke-opacity:0.1; fill:none" points="147.478,1445.74 2352.76,1445.74 "/>
<polyline clip-path="url(#clip392)" style="stroke:#000000; stroke-linecap:round; stroke-linejoin:round; stroke-width:2; stroke-opacity:0.1; fill:none" points="147.478,1106.3 2352.76,1106.3 "/>
<polyline clip-path="url(#clip392)" style="stroke:#000000; stroke-linecap:round; stroke-linejoin:round; stroke-width:2; stroke-opacity:0.1; fill:none" points="147.478,427.418 2352.76,427.418 "/>
<polyline clip-path="url(#clip392)" style="stroke:#000000; stroke-linecap:round; stroke-linejoin:round; stroke-width:2; stroke-opacity:0.1; fill:none" points="147.478,87.9763 2352.76,87.9763 "/>
<polyline clip-path="url(#clip390)" style="stroke:#000000; stroke-linecap:round; stroke-linejoin:round; stroke-width:4; stroke-opacity:1; fill:none" points="1250.12,1486.45 1250.12,47.2441 "/>
<polyline clip-path="url(#clip390)" style="stroke:#000000; stroke-linecap:round; stroke-linejoin:round; stroke-width:4; stroke-opacity:1; fill:none" points="1231.22,1445.74 1269.01,1445.74 "/>
<polyline clip-path="url(#clip390)" style="stroke:#000000; stroke-linecap:round; stroke-linejoin:round; stroke-width:4; stroke-opacity:1; fill:none" points="1231.22,1106.3 1269.01,1106.3 "/>
<polyline clip-path="url(#clip390)" style="stroke:#000000; stroke-linecap:round; stroke-linejoin:round; stroke-width:4; stroke-opacity:1; fill:none" points="1231.22,427.418 1269.01,427.418 "/>
<polyline clip-path="url(#clip390)" style="stroke:#000000; stroke-linecap:round; stroke-linejoin:round; stroke-width:4; stroke-opacity:1; fill:none" points="1231.22,87.9763 1269.01,87.9763 "/>
<path clip-path="url(#clip390)" d="M1154 1446.2 L1183.68 1446.2 L1183.68 1450.13 L1154 1450.13 L1154 1446.2 Z" fill="#000000" fill-rule="nonzero" fill-opacity="1" /><path clip-path="url(#clip390)" d="M1197.8 1459.09 L1214.12 1459.09 L1214.12 1463.02 L1192.17 1463.02 L1192.17 1459.09 Q1194.83 1456.33 1199.42 1451.7 Q1204.02 1447.05 1205.2 1445.71 Q1207.45 1443.19 1208.33 1441.45 Q1209.23 1439.69 1209.23 1438 Q1209.23 1435.25 1207.29 1433.51 Q1205.37 1431.77 1202.27 1431.77 Q1200.07 1431.77 1197.61 1432.54 Q1195.18 1433.3 1192.4 1434.85 L1192.4 1430.13 Q1195.23 1429 1197.68 1428.42 Q1200.14 1427.84 1202.17 1427.84 Q1207.54 1427.84 1210.74 1430.52 Q1213.93 1433.21 1213.93 1437.7 Q1213.93 1439.83 1213.12 1441.75 Q1212.33 1443.65 1210.23 1446.24 Q1209.65 1446.91 1206.55 1450.13 Q1203.45 1453.32 1197.8 1459.09 Z" fill="#000000" fill-rule="nonzero" fill-opacity="1" /><path clip-path="url(#clip390)" d="M1153.63 1106.75 L1183.31 1106.75 L1183.31 1110.69 L1153.63 1110.69 L1153.63 1106.75 Z" fill="#000000" fill-rule="nonzero" fill-opacity="1" /><path clip-path="url(#clip390)" d="M1194.21 1119.65 L1201.85 1119.65 L1201.85 1093.28 L1193.54 1094.95 L1193.54 1090.69 L1201.8 1089.02 L1206.48 1089.02 L1206.48 1119.65 L1214.12 1119.65 L1214.12 1123.58 L1194.21 1123.58 L1194.21 1119.65 Z" fill="#000000" fill-rule="nonzero" fill-opacity="1" /><path clip-path="url(#clip390)" d="M1194.21 440.763 L1201.85 440.763 L1201.85 414.397 L1193.54 416.064 L1193.54 411.805 L1201.8 410.138 L1206.48 410.138 L1206.48 440.763 L1214.12 440.763 L1214.12 444.698 L1194.21 444.698 L1194.21 440.763 Z" fill="#000000" fill-rule="nonzero" fill-opacity="1" /><path clip-path="url(#clip390)" d="M1197.8 101.321 L1214.12 101.321 L1214.12 105.256 L1192.17 105.256 L1192.17 101.321 Q1194.83 98.5665 1199.42 93.9369 Q1204.02 89.2841 1205.2 87.9416 Q1207.45 85.4184 1208.33 83.6823 Q1209.23 81.9231 1209.23 80.2333 Q1209.23 77.4786 1207.29 75.7425 Q1205.37 74.0064 1202.27 74.0064 Q1200.07 74.0064 1197.61 74.7703 Q1195.18 75.5342 1192.4 77.0851 L1192.4 72.3629 Q1195.23 71.2287 1197.68 70.65 Q1200.14 70.0713 1202.17 70.0713 Q1207.54 70.0713 1210.74 72.7565 Q1213.93 75.4416 1213.93 79.9323 Q1213.93 82.062 1213.12 83.9832 Q1212.33 85.8814 1210.23 88.474 Q1209.65 89.1453 1206.55 92.3628 Q1203.45 95.5573 1197.8 101.321 Z" fill="#000000" fill-rule="nonzero" fill-opacity="1" /><polyline clip-path="url(#clip392)" style="stroke:#009af9; stroke-linecap:round; stroke-linejoin:round; stroke-width:4; stroke-opacity:1; fill:none" points="209.891,87.9763 213.278,96.8017 216.664,105.598 220.05,114.366 223.436,123.105 254.747,202.548 286.057,279.53 317.368,354.052 348.678,426.113 386.311,509.47 423.943,589.272 455.761,653.971 487.579,716.13 522.142,780.772 556.705,842.417 588.569,896.592 620.434,948.219 654.595,1000.74 688.757,1050.33 708.547,1077.72 728.337,1104.12 748.127,1129.54 767.917,1153.98 803.09,1195 838.264,1232.9 869.108,1263.59 899.953,1291.89 933.581,1320.02 967.21,1345.31 1001.04,1367.9 1034.87,1387.61 1072.27,1406.05 1109.67,1420.99 1145.26,1431.95 1180.84,1439.72 1217.84,1444.44 1254.85,1445.72 1285.99,1444.13 1317.14,1440.11 1336.16,1436.45 1355.17,1431.9 1374.18,1426.43 1393.2,1420.06 1428.03,1406.02 1462.87,1388.95 1495.04,1370.47 1527.22,1349.4 1559.81,1325.4 1592.4,1298.74 1628.92,1265.69 1665.45,1229.29 1698.55,1193.42 1731.64,1154.8 1750.59,1131.45 1769.54,1107.2 1788.49,1082.05 1807.43,1056 1842.52,1005.39 1877.61,951.678 1912.2,895.704 1946.79,836.726 1980.38,776.591 2013.96,713.625 2048.39,646.139 2082.82,575.677 2101.68,535.817 2120.54,495.063 2139.4,453.417 2158.27,410.878 2185.66,347.494 2213.06,282.225 2240.46,215.072 2267.86,146.036 2273.48,131.64 2279.1,117.165 2284.72,102.61 2290.34,87.9763 "/>
<path clip-path="url(#clip390)" d="M1982.15 1438.47 L2279.25 1438.47 L2279.25 1334.79 L1982.15 1334.79  Z" fill="#ffffff" fill-rule="evenodd" fill-opacity="1"/>
<polyline clip-path="url(#clip390)" style="stroke:#000000; stroke-linecap:round; stroke-linejoin:round; stroke-width:4; stroke-opacity:1; fill:none" points="1982.15,1438.47 2279.25,1438.47 2279.25,1334.79 1982.15,1334.79 1982.15,1438.47 "/>
<polyline clip-path="url(#clip390)" style="stroke:#009af9; stroke-linecap:round; stroke-linejoin:round; stroke-width:4; stroke-opacity:1; fill:none" points="2006.65,1386.63 2153.67,1386.63 "/>
<path clip-path="url(#clip390)" d="M2194.67 1367.9 L2194.67 1371.44 L2190.6 1371.44 Q2188.31 1371.44 2187.41 1372.36 Q2186.53 1373.29 2186.53 1375.7 L2186.53 1377.99 L2193.54 1377.99 L2193.54 1381.3 L2186.53 1381.3 L2186.53 1403.91 L2182.24 1403.91 L2182.24 1381.3 L2178.17 1381.3 L2178.17 1377.99 L2182.24 1377.99 L2182.24 1376.18 Q2182.24 1371.85 2184.26 1369.89 Q2186.27 1367.9 2190.65 1367.9 L2194.67 1367.9 Z" fill="#000000" fill-rule="nonzero" fill-opacity="1" /><path clip-path="url(#clip390)" d="M2208.47 1367.94 Q2205.37 1373.27 2203.86 1378.47 Q2202.36 1383.68 2202.36 1389.03 Q2202.36 1394.38 2203.86 1399.63 Q2205.39 1404.86 2208.47 1410.16 L2204.77 1410.16 Q2201.29 1404.72 2199.56 1399.47 Q2197.85 1394.22 2197.85 1389.03 Q2197.85 1383.87 2199.56 1378.64 Q2201.27 1373.41 2204.77 1367.94 L2208.47 1367.94 Z" fill="#000000" fill-rule="nonzero" fill-opacity="1" /><path clip-path="url(#clip390)" d="M2238.29 1377.99 L2228.91 1390.6 L2238.77 1403.91 L2233.75 1403.91 L2226.2 1393.73 L2218.66 1403.91 L2213.63 1403.91 L2223.7 1390.35 L2214.49 1377.99 L2219.51 1377.99 L2226.39 1387.22 L2233.26 1377.99 L2238.29 1377.99 Z" fill="#000000" fill-rule="nonzero" fill-opacity="1" /><path clip-path="url(#clip390)" d="M2244.12 1367.94 L2247.82 1367.94 Q2251.29 1373.41 2253.01 1378.64 Q2254.74 1383.87 2254.74 1389.03 Q2254.74 1394.22 2253.01 1399.47 Q2251.29 1404.72 2247.82 1410.16 L2244.12 1410.16 Q2247.2 1404.86 2248.7 1399.63 Q2250.23 1394.38 2250.23 1389.03 Q2250.23 1383.68 2248.7 1378.47 Q2247.2 1373.27 2244.12 1367.94 Z" fill="#000000" fill-rule="nonzero" fill-opacity="1" /></svg>