<?xml version="1.0" encoding="utf-8"?>
<svg xmlns="http://www.w3.org/2000/svg" xmlns:xlink="http://www.w3.org/1999/xlink" width="600" height="400" viewBox="0 0 2400 1600">
<defs>
  <clipPath id="clip680">
    <rect x="0" y="0" width="2400" height="1600"/>
  </clipPath>
</defs>
<path clip-path="url(#clip680)" d="M0 1600 L2400 1600 L2400 0 L0 0  Z" fill="#ffffff" fill-rule="evenodd" fill-opacity="1"/>
<defs>
  <clipPath id="clip681">
    <rect x="480" y="0" width="1681" height="1600"/>
  </clipPath>
</defs>
<path clip-path="url(#clip680)" d="M249.542 1423.18 L2352.76 1423.18 L2352.76 123.472 L249.542 123.472  Z" fill="#ffffff" fill-rule="evenodd" fill-opacity="1"/>
<defs>
  <clipPath id="clip682">
    <rect x="249" y="123" width="2104" height="1301"/>
  </clipPath>
</defs>
<polyline clip-path="url(#clip682)" style="stroke:#000000; stroke-linecap:round; stroke-linejoin:round; stroke-width:2; stroke-opacity:0.1; fill:none" points="309.067,1423.18 309.067,123.472 "/>
<polyline clip-path="url(#clip682)" style="stroke:#000000; stroke-linecap:round; stroke-linejoin:round; stroke-width:2; stroke-opacity:0.1; fill:none" points="805.108,1423.18 805.108,123.472 "/>
<polyline clip-path="url(#clip682)" style="stroke:#000000; stroke-linecap:round; stroke-linejoin:round; stroke-width:2; stroke-opacity:0.1; fill:none" points="1301.15,1423.18 1301.15,123.472 "/>
<polyline clip-path="url(#clip682)" style="stroke:#000000; stroke-linecap:round; stroke-linejoin:round; stroke-width:2; stroke-opacity:0.1; fill:none" points="1797.19,1423.18 1797.19,123.472 "/>
<polyline clip-path="url(#clip682)" style="stroke:#000000; stroke-linecap:round; stroke-linejoin:round; stroke-width:2; stroke-opacity:0.1; fill:none" points="2293.23,1423.18 2293.23,123.472 "/>
<polyline clip-path="url(#clip680)" style="stroke:#000000; stroke-linecap:round; stroke-linejoin:round; stroke-width:4; stroke-opacity:1; fill:none" points="249.542,1423.18 2352.76,1423.18 "/>
<polyline clip-path="url(#clip680)" style="stroke:#000000; stroke-linecap:round; stroke-linejoin:round; stroke-width:4; stroke-opacity:1; fill:none" points="309.067,1423.18 309.067,1404.28 "/>
<polyline clip-path="url(#clip680)" style="stroke:#000000; stroke-linecap:round; stroke-linejoin:round; stroke-width:4; stroke-opacity:1; fill:none" points="805.108,1423.18 805.108,1404.28 "/>
<polyline clip-path="url(#clip680)" style="stroke:#000000; stroke-linecap:round; stroke-linejoin:round; stroke-width:4; stroke-opacity:1; fill:none" points="1301.15,1423.18 1301.15,1404.28 "/>
<polyline clip-path="url(#clip680)" style="stroke:#000000; stroke-linecap:round; stroke-linejoin:round; stroke-width:4; stroke-opacity:1; fill:none" points="1797.19,1423.18 1797.19,1404.28 "/>
<polyline clip-path="url(#clip680)" style="stroke:#000000; stroke-linecap:round; stroke-linejoin:round; stroke-width:4; stroke-opacity:1; fill:none" points="2293.23,1423.18 2293.23,1404.28 "/>
<path clip-path="url(#clip680)" d="M271.37 1454.1 Q267.759 1454.1 265.931 1457.66 Q264.125 1461.2 264.125 1468.33 Q264.125 1475.44 265.931 1479.01 Q267.759 1482.55 271.37 1482.55 Q275.005 1482.55 276.81 1479.01 Q278.639 1475.44 278.639 1468.33 Q278.639 1461.2 276.81 1457.66 Q275.005 1454.1 271.37 1454.1 M271.37 1450.39 Q277.181 1450.39 280.236 1455 Q283.315 1459.58 283.315 1468.33 Q283.315 1477.06 280.236 1481.67 Q277.181 1486.25 271.37 1486.25 Q265.56 1486.25 262.482 1481.67 Q259.426 1477.06 259.426 1468.33 Q259.426 1459.58 262.482 1455 Q265.56 1450.39 271.37 1450.39 Z" fill="#000000" fill-rule="nonzero" fill-opacity="1" /><path clip-path="url(#clip680)" d="M291.532 1479.7 L296.417 1479.7 L296.417 1485.58 L291.532 1485.58 L291.532 1479.7 Z" fill="#000000" fill-rule="nonzero" fill-opacity="1" /><path clip-path="url(#clip680)" d="M316.602 1454.1 Q312.991 1454.1 311.162 1457.66 Q309.356 1461.2 309.356 1468.33 Q309.356 1475.44 311.162 1479.01 Q312.991 1482.55 316.602 1482.55 Q320.236 1482.55 322.041 1479.01 Q323.87 1475.44 323.87 1468.33 Q323.87 1461.2 322.041 1457.66 Q320.236 1454.1 316.602 1454.1 M316.602 1450.39 Q322.412 1450.39 325.467 1455 Q328.546 1459.58 328.546 1468.33 Q328.546 1477.06 325.467 1481.67 Q322.412 1486.25 316.602 1486.25 Q310.791 1486.25 307.713 1481.67 Q304.657 1477.06 304.657 1468.33 Q304.657 1459.58 307.713 1455 Q310.791 1450.39 316.602 1450.39 Z" fill="#000000" fill-rule="nonzero" fill-opacity="1" /><path clip-path="url(#clip680)" d="M346.764 1454.1 Q343.152 1454.1 341.324 1457.66 Q339.518 1461.2 339.518 1468.33 Q339.518 1475.44 341.324 1479.01 Q343.152 1482.55 346.764 1482.55 Q350.398 1482.55 352.203 1479.01 Q354.032 1475.44 354.032 1468.33 Q354.032 1461.2 352.203 1457.66 Q350.398 1454.1 346.764 1454.1 M346.764 1450.39 Q352.574 1450.39 355.629 1455 Q358.708 1459.58 358.708 1468.33 Q358.708 1477.06 355.629 1481.67 Q352.574 1486.25 346.764 1486.25 Q340.953 1486.25 337.875 1481.67 Q334.819 1477.06 334.819 1468.33 Q334.819 1459.58 337.875 1455 Q340.953 1450.39 346.764 1450.39 Z" fill="#000000" fill-rule="nonzero" fill-opacity="1" /><path clip-path="url(#clip680)" d="M767.909 1454.1 Q764.298 1454.1 762.469 1457.66 Q760.664 1461.2 760.664 1468.33 Q760.664 1475.44 762.469 1479.01 Q764.298 1482.55 767.909 1482.55 Q771.543 1482.55 773.349 1479.01 Q775.178 1475.44 775.178 1468.33 Q775.178 1461.2 773.349 1457.66 Q771.543 1454.1 767.909 1454.1 M767.909 1450.39 Q773.719 1450.39 776.775 1455 Q779.853 1459.58 779.853 1468.33 Q779.853 1477.06 776.775 1481.67 Q773.719 1486.25 767.909 1486.25 Q762.099 1486.25 759.02 1481.67 Q755.965 1477.06 755.965 1468.33 Q755.965 1459.58 759.02 1455 Q762.099 1450.39 767.909 1450.39 Z" fill="#000000" fill-rule="nonzero" fill-opacity="1" /><path clip-path="url(#clip680)" d="M788.071 1479.7 L792.955 1479.7 L792.955 1485.58 L788.071 1485.58 L788.071 1479.7 Z" fill="#000000" fill-rule="nonzero" fill-opacity="1" /><path clip-path="url(#clip680)" d="M807.168 1481.64 L823.487 1481.64 L823.487 1485.58 L801.543 1485.58 L801.543 1481.64 Q804.205 1478.89 808.788 1474.26 Q813.395 1469.61 814.576 1468.27 Q816.821 1465.74 817.7 1464.01 Q818.603 1462.25 818.603 1460.56 Q818.603 1457.8 816.659 1456.07 Q814.738 1454.33 811.636 1454.33 Q809.437 1454.33 806.983 1455.09 Q804.552 1455.86 801.775 1457.41 L801.775 1452.69 Q804.599 1451.55 807.052 1450.97 Q809.506 1450.39 811.543 1450.39 Q816.913 1450.39 820.108 1453.08 Q823.302 1455.77 823.302 1460.26 Q823.302 1462.39 822.492 1464.31 Q821.705 1466.2 819.599 1468.8 Q819.02 1469.47 815.918 1472.69 Q812.816 1475.88 807.168 1481.64 Z" fill="#000000" fill-rule="nonzero" fill-opacity="1" /><path clip-path="url(#clip680)" d="M833.349 1451.02 L851.705 1451.02 L851.705 1454.96 L837.631 1454.96 L837.631 1463.43 Q838.649 1463.08 839.668 1462.92 Q840.686 1462.73 841.705 1462.73 Q847.492 1462.73 850.872 1465.9 Q854.251 1469.08 854.251 1474.49 Q854.251 1480.07 850.779 1483.17 Q847.307 1486.25 840.987 1486.25 Q838.811 1486.25 836.543 1485.88 Q834.298 1485.51 831.89 1484.77 L831.89 1480.07 Q833.974 1481.2 836.196 1481.76 Q838.418 1482.32 840.895 1482.32 Q844.899 1482.32 847.237 1480.21 Q849.575 1478.1 849.575 1474.49 Q849.575 1470.88 847.237 1468.77 Q844.899 1466.67 840.895 1466.67 Q839.02 1466.67 837.145 1467.08 Q835.293 1467.5 833.349 1468.38 L833.349 1451.02 Z" fill="#000000" fill-rule="nonzero" fill-opacity="1" /><path clip-path="url(#clip680)" d="M1263.45 1454.1 Q1259.84 1454.1 1258.01 1457.66 Q1256.21 1461.2 1256.21 1468.33 Q1256.21 1475.44 1258.01 1479.01 Q1259.84 1482.55 1263.45 1482.55 Q1267.09 1482.55 1268.89 1479.01 Q1270.72 1475.44 1270.72 1468.33 Q1270.72 1461.2 1268.89 1457.66 Q1267.09 1454.1 1263.45 1454.1 M1263.45 1450.39 Q1269.26 1450.39 1272.32 1455 Q1275.4 1459.58 1275.4 1468.33 Q1275.4 1477.06 1272.32 1481.67 Q1269.26 1486.25 1263.45 1486.25 Q1257.64 1486.25 1254.56 1481.67 Q1251.51 1477.06 1251.51 1468.33 Q1251.51 1459.58 1254.56 1455 Q1257.64 1450.39 1263.45 1450.39 Z" fill="#000000" fill-rule="nonzero" fill-opacity="1" /><path clip-path="url(#clip680)" d="M1283.61 1479.7 L1288.5 1479.7 L1288.5 1485.58 L1283.61 1485.58 L1283.61 1479.7 Z" fill="#000000" fill-rule="nonzero" fill-opacity="1" /><path clip-path="url(#clip680)" d="M1298.73 1451.02 L1317.09 1451.02 L1317.09 1454.96 L1303.01 1454.96 L1303.01 1463.43 Q1304.03 1463.08 1305.05 1462.92 Q1306.07 1462.73 1307.09 1462.73 Q1312.87 1462.73 1316.25 1465.9 Q1319.63 1469.08 1319.63 1474.49 Q1319.63 1480.07 1316.16 1483.17 Q1312.69 1486.25 1306.37 1486.25 Q1304.19 1486.25 1301.92 1485.88 Q1299.68 1485.51 1297.27 1484.77 L1297.27 1480.07 Q1299.35 1481.2 1301.58 1481.76 Q1303.8 1482.32 1306.28 1482.32 Q1310.28 1482.32 1312.62 1480.21 Q1314.96 1478.1 1314.96 1474.49 Q1314.96 1470.88 1312.62 1468.77 Q1310.28 1466.67 1306.28 1466.67 Q1304.4 1466.67 1302.53 1467.08 Q1300.67 1467.5 1298.73 1468.38 L1298.73 1451.02 Z" fill="#000000" fill-rule="nonzero" fill-opacity="1" /><path clip-path="url(#clip680)" d="M1338.85 1454.1 Q1335.23 1454.1 1333.41 1457.66 Q1331.6 1461.2 1331.6 1468.33 Q1331.6 1475.44 1333.41 1479.01 Q1335.23 1482.55 1338.85 1482.55 Q1342.48 1482.55 1344.29 1479.01 Q1346.11 1475.44 1346.11 1468.33 Q1346.11 1461.2 1344.29 1457.66 Q1342.48 1454.1 1338.85 1454.1 M1338.85 1450.39 Q1344.66 1450.39 1347.71 1455 Q1350.79 1459.58 1350.79 1468.33 Q1350.79 1477.06 1347.71 1481.67 Q1344.66 1486.25 1338.85 1486.25 Q1333.04 1486.25 1329.96 1481.67 Q1326.9 1477.06 1326.9 1468.33 Q1326.9 1459.58 1329.96 1455 Q1333.04 1450.39 1338.85 1450.39 Z" fill="#000000" fill-rule="nonzero" fill-opacity="1" /><path clip-path="url(#clip680)" d="M1759.99 1454.1 Q1756.38 1454.1 1754.55 1457.66 Q1752.75 1461.2 1752.75 1468.33 Q1752.75 1475.44 1754.55 1479.01 Q1756.38 1482.55 1759.99 1482.55 Q1763.63 1482.55 1765.43 1479.01 Q1767.26 1475.44 1767.26 1468.33 Q1767.26 1461.2 1765.43 1457.66 Q1763.63 1454.1 1759.99 1454.1 M1759.99 1450.39 Q1765.8 1450.39 1768.86 1455 Q1771.94 1459.58 1771.94 1468.33 Q1771.94 1477.06 1768.86 1481.67 Q1765.8 1486.25 1759.99 1486.25 Q1754.18 1486.25 1751.1 1481.67 Q1748.05 1477.06 1748.05 1468.33 Q1748.05 1459.58 1751.1 1455 Q1754.18 1450.39 1759.99 1450.39 Z" fill="#000000" fill-rule="nonzero" fill-opacity="1" /><path clip-path="url(#clip680)" d="M1780.15 1479.7 L1785.04 1479.7 L1785.04 1485.58 L1780.15 1485.58 L1780.15 1479.7 Z" fill="#000000" fill-rule="nonzero" fill-opacity="1" /><path clip-path="url(#clip680)" d="M1794.04 1451.02 L1816.26 1451.02 L1816.26 1453.01 L1803.72 1485.58 L1798.83 1485.58 L1810.64 1454.96 L1794.04 1454.96 L1794.04 1451.02 Z" fill="#000000" fill-rule="nonzero" fill-opacity="1" /><path clip-path="url(#clip680)" d="M1825.43 1451.02 L1843.79 1451.02 L1843.79 1454.96 L1829.71 1454.96 L1829.71 1463.43 Q1830.73 1463.08 1831.75 1462.92 Q1832.77 1462.73 1833.79 1462.73 Q1839.57 1462.73 1842.95 1465.9 Q1846.33 1469.08 1846.33 1474.49 Q1846.33 1480.07 1842.86 1483.17 Q1839.39 1486.25 1833.07 1486.25 Q1830.89 1486.25 1828.62 1485.88 Q1826.38 1485.51 1823.97 1484.77 L1823.97 1480.07 Q1826.06 1481.2 1828.28 1481.76 Q1830.5 1482.32 1832.98 1482.32 Q1836.98 1482.32 1839.32 1480.21 Q1841.66 1478.1 1841.66 1474.49 Q1841.66 1470.88 1839.32 1468.77 Q1836.98 1466.67 1832.98 1466.67 Q1831.1 1466.67 1829.23 1467.08 Q1827.38 1467.5 1825.43 1468.38 L1825.43 1451.02 Z" fill="#000000" fill-rule="nonzero" fill-opacity="1" /><path clip-path="url(#clip680)" d="M2245.3 1481.64 L2252.94 1481.64 L2252.94 1455.28 L2244.63 1456.95 L2244.63 1452.69 L2252.9 1451.02 L2257.57 1451.02 L2257.57 1481.64 L2265.21 1481.64 L2265.21 1485.58 L2245.3 1485.58 L2245.3 1481.64 Z" fill="#000000" fill-rule="nonzero" fill-opacity="1" /><path clip-path="url(#clip680)" d="M2274.65 1479.7 L2279.54 1479.7 L2279.54 1485.58 L2274.65 1485.58 L2274.65 1479.7 Z" fill="#000000" fill-rule="nonzero" fill-opacity="1" /><path clip-path="url(#clip680)" d="M2299.72 1454.1 Q2296.11 1454.1 2294.28 1457.66 Q2292.48 1461.2 2292.48 1468.33 Q2292.48 1475.44 2294.28 1479.01 Q2296.11 1482.55 2299.72 1482.55 Q2303.36 1482.55 2305.16 1479.01 Q2306.99 1475.44 2306.99 1468.33 Q2306.99 1461.2 2305.16 1457.66 Q2303.36 1454.1 2299.72 1454.1 M2299.72 1450.39 Q2305.53 1450.39 2308.59 1455 Q2311.67 1459.58 2311.67 1468.33 Q2311.67 1477.06 2308.59 1481.67 Q2305.53 1486.25 2299.72 1486.25 Q2293.91 1486.25 2290.84 1481.67 Q2287.78 1477.06 2287.78 1468.33 Q2287.78 1459.58 2290.84 1455 Q2293.91 1450.39 2299.72 1450.39 Z" fill="#000000" fill-rule="nonzero" fill-opacity="1" /><path clip-path="url(#clip680)" d="M2329.89 1454.1 Q2326.27 1454.1 2324.45 1457.66 Q2322.64 1461.2 2322.64 1468.33 Q2322.64 1475.44 2324.45 1479.01 Q2326.27 1482.55 2329.89 1482.55 Q2333.52 1482.55 2335.33 1479.01 Q2337.15 1475.44 2337.15 1468.33 Q2337.15 1461.2 2335.33 1457.66 Q2333.52 1454.1 2329.89 1454.1 M2329.89 1450.39 Q2335.7 1450.39 2338.75 1455 Q2341.83 1459.58 2341.83 1468.33 Q2341.83 1477.06 2338.75 1481.67 Q2335.7 1486.25 2329.89 1486.25 Q2324.08 1486.25 2321 1481.67 Q2317.94 1477.06 2317.94 1468.33 Q2317.94 1459.58 2321 1455 Q2324.08 1450.39 2329.89 1450.39 Z" fill="#000000" fill-rule="nonzero" fill-opacity="1" /><path clip-path="url(#clip680)" d="M1317.76 1532.4 L1304.87 1549.74 L1318.43 1568.04 L1311.53 1568.04 L1301.15 1554.04 L1290.77 1568.04 L1283.87 1568.04 L1297.71 1549.39 L1285.04 1532.4 L1291.95 1532.4 L1301.4 1545.1 L1310.86 1532.4 L1317.76 1532.4 Z" fill="#000000" fill-rule="nonzero" fill-opacity="1" /><polyline clip-path="url(#clip682)" style="stroke:#000000; stroke-linecap:round; stroke-linejoin:round; stroke-width:2; stroke-opacity:0.1; fill:none" points="249.542,1386.4 2352.76,1386.4 "/>
<polyline clip-path="url(#clip682)" style="stroke:#000000; stroke-linecap:round; stroke-linejoin:round; stroke-width:2; stroke-opacity:0.1; fill:none" points="249.542,1079.86 2352.76,1079.86 "/>
<polyline clip-path="url(#clip682)" style="stroke:#000000; stroke-linecap:round; stroke-linejoin:round; stroke-width:2; stroke-opacity:0.1; fill:none" points="249.542,773.326 2352.76,773.326 "/>
<polyline clip-path="url(#clip682)" style="stroke:#000000; stroke-linecap:round; stroke-linejoin:round; stroke-width:2; stroke-opacity:0.1; fill:none" points="249.542,466.791 2352.76,466.791 "/>
<polyline clip-path="url(#clip682)" style="stroke:#000000; stroke-linecap:round; stroke-linejoin:round; stroke-width:2; stroke-opacity:0.1; fill:none" points="249.542,160.256 2352.76,160.256 "/>
<polyline clip-path="url(#clip680)" style="stroke:#000000; stroke-linecap:round; stroke-linejoin:round; stroke-width:4; stroke-opacity:1; fill:none" points="249.542,1423.18 249.542,123.472 "/>
<polyline clip-path="url(#clip680)" style="stroke:#000000; stroke-linecap:round; stroke-linejoin:round; stroke-width:4; stroke-opacity:1; fill:none" points="249.542,1386.4 268.44,1386.4 "/>
<polyline clip-path="url(#clip680)" style="stroke:#000000; stroke-linecap:round; stroke-linejoin:round; stroke-width:4; stroke-opacity:1; fill:none" points="249.542,1079.86 268.44,1079.86 "/>
<polyline clip-path="url(#clip680)" style="stroke:#000000; stroke-linecap:round; stroke-linejoin:round; stroke-width:4; stroke-opacity:1; fill:none" points="249.542,773.326 268.44,773.326 "/>
<polyline clip-path="url(#clip680)" style="stroke:#000000; stroke-linecap:round; stroke-linejoin:round; stroke-width:4; stroke-opacity:1; fill:none" points="249.542,466.791 268.44,466.791 "/>
<polyline clip-path="url(#clip680)" style="stroke:#000000; stroke-linecap:round; stroke-linejoin:round; stroke-width:4; stroke-opacity:1; fill:none" points="249.542,160.256 268.44,160.256 "/>
<path clip-path="url(#clip680)" d="M126.205 1372.19 Q122.593 1372.19 120.765 1375.76 Q118.959 1379.3 118.959 1386.43 Q118.959 1393.54 120.765 1397.1 Q122.593 1400.64 126.205 1400.64 Q129.839 1400.64 131.644 1397.1 Q133.473 1393.54 133.473 1386.43 Q133.473 1379.3 131.644 1375.76 Q129.839 1372.19 126.205 1372.19 M126.205 1368.49 Q132.015 1368.49 135.07 1373.1 Q138.149 1377.68 138.149 1386.43 Q138.149 1395.16 135.07 1399.76 Q132.015 1404.35 126.205 1404.35 Q120.394 1404.35 117.316 1399.76 Q114.26 1395.16 114.26 1386.43 Q114.26 1377.68 117.316 1373.1 Q120.394 1368.49 126.205 1368.49 Z" fill="#000000" fill-rule="nonzero" fill-opacity="1" /><path clip-path="url(#clip680)" d="M146.366 1397.8 L151.251 1397.8 L151.251 1403.68 L146.366 1403.68 L146.366 1397.8 Z" fill="#000000" fill-rule="nonzero" fill-opacity="1" /><path clip-path="url(#clip680)" d="M171.436 1372.19 Q167.825 1372.19 165.996 1375.76 Q164.19 1379.3 164.19 1386.43 Q164.19 1393.54 165.996 1397.1 Q167.825 1400.64 171.436 1400.64 Q175.07 1400.64 176.876 1397.1 Q178.704 1393.54 178.704 1386.43 Q178.704 1379.3 176.876 1375.76 Q175.07 1372.19 171.436 1372.19 M171.436 1368.49 Q177.246 1368.49 180.301 1373.1 Q183.38 1377.68 183.38 1386.43 Q183.38 1395.16 180.301 1399.76 Q177.246 1404.35 171.436 1404.35 Q165.626 1404.35 162.547 1399.76 Q159.491 1395.16 159.491 1386.43 Q159.491 1377.68 162.547 1373.1 Q165.626 1368.49 171.436 1368.49 Z" fill="#000000" fill-rule="nonzero" fill-opacity="1" /><path clip-path="url(#clip680)" d="M201.598 1372.19 Q197.987 1372.19 196.158 1375.76 Q194.352 1379.3 194.352 1386.43 Q194.352 1393.54 196.158 1397.1 Q197.987 1400.64 201.598 1400.64 Q205.232 1400.64 207.037 1397.1 Q208.866 1393.54 208.866 1386.43 Q208.866 1379.3 207.037 1375.76 Q205.232 1372.19 201.598 1372.19 M201.598 1368.49 Q207.408 1368.49 210.463 1373.1 Q213.542 1377.68 213.542 1386.43 Q213.542 1395.16 210.463 1399.76 Q207.408 1404.35 201.598 1404.35 Q195.787 1404.35 192.709 1399.76 Q189.653 1395.16 189.653 1386.43 Q189.653 1377.68 192.709 1373.1 Q195.787 1368.49 201.598 1368.49 Z" fill="#000000" fill-rule="nonzero" fill-opacity="1" /><path clip-path="url(#clip680)" d="M127.2 1065.66 Q123.589 1065.66 121.76 1069.22 Q119.955 1072.77 119.955 1079.9 Q119.955 1087 121.76 1090.57 Q123.589 1094.11 127.2 1094.11 Q130.834 1094.11 132.64 1090.57 Q134.468 1087 134.468 1079.9 Q134.468 1072.77 132.64 1069.22 Q130.834 1065.66 127.2 1065.66 M127.2 1061.96 Q133.01 1061.96 136.066 1066.56 Q139.144 1071.15 139.144 1079.9 Q139.144 1088.62 136.066 1093.23 Q133.01 1097.81 127.2 1097.81 Q121.39 1097.81 118.311 1093.23 Q115.256 1088.62 115.256 1079.9 Q115.256 1071.15 118.311 1066.56 Q121.39 1061.96 127.2 1061.96 Z" fill="#000000" fill-rule="nonzero" fill-opacity="1" /><path clip-path="url(#clip680)" d="M147.362 1091.26 L152.246 1091.26 L152.246 1097.14 L147.362 1097.14 L147.362 1091.26 Z" fill="#000000" fill-rule="nonzero" fill-opacity="1" /><path clip-path="url(#clip680)" d="M166.459 1093.21 L182.778 1093.21 L182.778 1097.14 L160.834 1097.14 L160.834 1093.21 Q163.496 1090.45 168.079 1085.82 Q172.686 1081.17 173.866 1079.83 Q176.112 1077.3 176.991 1075.57 Q177.894 1073.81 177.894 1072.12 Q177.894 1069.36 175.95 1067.63 Q174.028 1065.89 170.927 1065.89 Q168.727 1065.89 166.274 1066.65 Q163.843 1067.42 161.065 1068.97 L161.065 1064.25 Q163.89 1063.11 166.343 1062.53 Q168.797 1061.96 170.834 1061.96 Q176.204 1061.96 179.399 1064.64 Q182.593 1067.33 182.593 1071.82 Q182.593 1073.95 181.783 1075.87 Q180.996 1077.77 178.889 1080.36 Q178.311 1081.03 175.209 1084.25 Q172.107 1087.44 166.459 1093.21 Z" fill="#000000" fill-rule="nonzero" fill-opacity="1" /><path clip-path="url(#clip680)" d="M192.639 1062.58 L210.996 1062.58 L210.996 1066.52 L196.922 1066.52 L196.922 1074.99 Q197.94 1074.64 198.959 1074.48 Q199.977 1074.29 200.996 1074.29 Q206.783 1074.29 210.162 1077.47 Q213.542 1080.64 213.542 1086.05 Q213.542 1091.63 210.07 1094.73 Q206.598 1097.81 200.278 1097.81 Q198.102 1097.81 195.834 1097.44 Q193.588 1097.07 191.181 1096.33 L191.181 1091.63 Q193.264 1092.77 195.487 1093.32 Q197.709 1093.88 200.186 1093.88 Q204.19 1093.88 206.528 1091.77 Q208.866 1089.66 208.866 1086.05 Q208.866 1082.44 206.528 1080.34 Q204.19 1078.23 200.186 1078.23 Q198.311 1078.23 196.436 1078.65 Q194.584 1079.06 192.639 1079.94 L192.639 1062.58 Z" fill="#000000" fill-rule="nonzero" fill-opacity="1" /><path clip-path="url(#clip680)" d="M126.205 759.125 Q122.593 759.125 120.765 762.689 Q118.959 766.231 118.959 773.361 Q118.959 780.467 120.765 784.032 Q122.593 787.574 126.205 787.574 Q129.839 787.574 131.644 784.032 Q133.473 780.467 133.473 773.361 Q133.473 766.231 131.644 762.689 Q129.839 759.125 126.205 759.125 M126.205 755.421 Q132.015 755.421 135.07 760.027 Q138.149 764.611 138.149 773.361 Q138.149 782.088 135.07 786.694 Q132.015 791.277 126.205 791.277 Q120.394 791.277 117.316 786.694 Q114.26 782.088 114.26 773.361 Q114.26 764.611 117.316 760.027 Q120.394 755.421 126.205 755.421 Z" fill="#000000" fill-rule="nonzero" fill-opacity="1" /><path clip-path="url(#clip680)" d="M146.366 784.726 L151.251 784.726 L151.251 790.606 L146.366 790.606 L146.366 784.726 Z" fill="#000000" fill-rule="nonzero" fill-opacity="1" /><path clip-path="url(#clip680)" d="M161.482 756.046 L179.839 756.046 L179.839 759.981 L165.765 759.981 L165.765 768.453 Q166.783 768.106 167.802 767.944 Q168.82 767.759 169.839 767.759 Q175.626 767.759 179.005 770.93 Q182.385 774.101 182.385 779.518 Q182.385 785.097 178.913 788.199 Q175.44 791.277 169.121 791.277 Q166.945 791.277 164.677 790.907 Q162.431 790.537 160.024 789.796 L160.024 785.097 Q162.107 786.231 164.329 786.787 Q166.552 787.342 169.028 787.342 Q173.033 787.342 175.371 785.236 Q177.709 783.129 177.709 779.518 Q177.709 775.907 175.371 773.801 Q173.033 771.694 169.028 771.694 Q167.153 771.694 165.278 772.111 Q163.427 772.527 161.482 773.407 L161.482 756.046 Z" fill="#000000" fill-rule="nonzero" fill-opacity="1" /><path clip-path="url(#clip680)" d="M201.598 759.125 Q197.987 759.125 196.158 762.689 Q194.352 766.231 194.352 773.361 Q194.352 780.467 196.158 784.032 Q197.987 787.574 201.598 787.574 Q205.232 787.574 207.037 784.032 Q208.866 780.467 208.866 773.361 Q208.866 766.231 207.037 762.689 Q205.232 759.125 201.598 759.125 M201.598 755.421 Q207.408 755.421 210.463 760.027 Q213.542 764.611 213.542 773.361 Q213.542 782.088 210.463 786.694 Q207.408 791.277 201.598 791.277 Q195.787 791.277 192.709 786.694 Q189.653 782.088 189.653 773.361 Q189.653 764.611 192.709 760.027 Q195.787 755.421 201.598 755.421 Z" fill="#000000" fill-rule="nonzero" fill-opacity="1" /><path clip-path="url(#clip680)" d="M127.2 452.59 Q123.589 452.59 121.76 456.155 Q119.955 459.696 119.955 466.826 Q119.955 473.932 121.76 477.497 Q123.589 481.039 127.2 481.039 Q130.834 481.039 132.64 477.497 Q134.468 473.932 134.468 466.826 Q134.468 459.696 132.64 456.155 Q130.834 452.59 127.2 452.59 M127.2 448.886 Q133.01 448.886 136.066 453.493 Q139.144 458.076 139.144 466.826 Q139.144 475.553 136.066 480.159 Q133.01 484.742 127.2 484.742 Q121.39 484.742 118.311 480.159 Q115.256 475.553 115.256 466.826 Q115.256 458.076 118.311 453.493 Q121.39 448.886 127.2 448.886 Z" fill="#000000" fill-rule="nonzero" fill-opacity="1" /><path clip-path="url(#clip680)" d="M147.362 478.192 L152.246 478.192 L152.246 484.071 L147.362 484.071 L147.362 478.192 Z" fill="#000000" fill-rule="nonzero" fill-opacity="1" /><path clip-path="url(#clip680)" d="M161.251 449.511 L183.473 449.511 L183.473 451.502 L170.927 484.071 L166.042 484.071 L177.848 453.446 L161.251 453.446 L161.251 449.511 Z" fill="#000000" fill-rule="nonzero" fill-opacity="1" /><path clip-path="url(#clip680)" d="M192.639 449.511 L210.996 449.511 L210.996 453.446 L196.922 453.446 L196.922 461.918 Q197.94 461.571 198.959 461.409 Q199.977 461.224 200.996 461.224 Q206.783 461.224 210.162 464.395 Q213.542 467.567 213.542 472.983 Q213.542 478.562 210.07 481.664 Q206.598 484.742 200.278 484.742 Q198.102 484.742 195.834 484.372 Q193.588 484.002 191.181 483.261 L191.181 478.562 Q193.264 479.696 195.487 480.252 Q197.709 480.807 200.186 480.807 Q204.19 480.807 206.528 478.701 Q208.866 476.594 208.866 472.983 Q208.866 469.372 206.528 467.266 Q204.19 465.159 200.186 465.159 Q198.311 465.159 196.436 465.576 Q194.584 465.993 192.639 466.872 L192.639 449.511 Z" fill="#000000" fill-rule="nonzero" fill-opacity="1" /><path clip-path="url(#clip680)" d="M117.015 173.601 L124.654 173.601 L124.654 147.236 L116.343 148.902 L116.343 144.643 L124.607 142.976 L129.283 142.976 L129.283 173.601 L136.922 173.601 L136.922 177.536 L117.015 177.536 L117.015 173.601 Z" fill="#000000" fill-rule="nonzero" fill-opacity="1" /><path clip-path="url(#clip680)" d="M146.366 171.657 L151.251 171.657 L151.251 177.536 L146.366 177.536 L146.366 171.657 Z" fill="#000000" fill-rule="nonzero" fill-opacity="1" /><path clip-path="url(#clip680)" d="M171.436 146.055 Q167.825 146.055 165.996 149.62 Q164.19 153.161 164.19 160.291 Q164.19 167.397 165.996 170.962 Q167.825 174.504 171.436 174.504 Q175.07 174.504 176.876 170.962 Q178.704 167.397 178.704 160.291 Q178.704 153.161 176.876 149.62 Q175.07 146.055 171.436 146.055 M171.436 142.351 Q177.246 142.351 180.301 146.958 Q183.38 151.541 183.38 160.291 Q183.38 169.018 180.301 173.624 Q177.246 178.208 171.436 178.208 Q165.626 178.208 162.547 173.624 Q159.491 169.018 159.491 160.291 Q159.491 151.541 162.547 146.958 Q165.626 142.351 171.436 142.351 Z" fill="#000000" fill-rule="nonzero" fill-opacity="1" /><path clip-path="url(#clip680)" d="M201.598 146.055 Q197.987 146.055 196.158 149.62 Q194.352 153.161 194.352 160.291 Q194.352 167.397 196.158 170.962 Q197.987 174.504 201.598 174.504 Q205.232 174.504 207.037 170.962 Q208.866 167.397 208.866 160.291 Q208.866 153.161 207.037 149.62 Q205.232 146.055 201.598 146.055 M201.598 142.351 Q207.408 142.351 210.463 146.958 Q213.542 151.541 213.542 160.291 Q213.542 169.018 210.463 173.624 Q207.408 178.208 201.598 178.208 Q195.787 178.208 192.709 173.624 Q189.653 169.018 189.653 160.291 Q189.653 151.541 192.709 146.958 Q195.787 142.351 201.598 142.351 Z" fill="#000000" fill-rule="nonzero" fill-opacity="1" /><path clip-path="url(#clip680)" d="M67.3143 771.639 Q73.68 774.122 75.6216 776.477 Q77.5631 778.832 77.5631 782.779 L77.5631 787.458 L72.6615 787.458 L72.6615 784.02 Q72.6615 781.601 71.5157 780.265 Q70.3699 778.928 66.1048 777.305 L63.4312 776.254 L28.3562 790.673 L28.3562 784.466 L56.238 773.326 L28.3562 762.186 L28.3562 755.979 L67.3143 771.639 Z" fill="#000000" fill-rule="nonzero" fill-opacity="1" /><path clip-path="url(#clip680)" d="M598.823 12.096 L649.986 12.096 L649.986 18.9825 L628.517 18.9825 L628.517 72.576 L620.293 72.576 L620.293 18.9825 L598.823 18.9825 L598.823 12.096 Z" fill="#000000" fill-rule="nonzero" fill-opacity="1" /><path clip-path="url(#clip680)" d="M671.659 34.1734 Q670.403 33.4443 668.904 33.1202 Q667.446 32.7556 665.663 32.7556 Q659.344 32.7556 655.941 36.8875 Q652.579 40.9789 652.579 48.6757 L652.579 72.576 L645.085 72.576 L645.085 27.2059 L652.579 27.2059 L652.579 34.2544 Q654.928 30.1225 658.696 28.1376 Q662.463 26.1121 667.851 26.1121 Q668.621 26.1121 669.552 26.2337 Q670.484 26.3147 671.618 26.5172 L671.659 34.1734 Z" fill="#000000" fill-rule="nonzero" fill-opacity="1" /><path clip-path="url(#clip680)" d="M700.096 49.7694 Q691.063 49.7694 687.579 51.8354 Q684.095 53.9013 684.095 58.8839 Q684.095 62.8538 686.688 65.2034 Q689.321 67.5124 693.817 67.5124 Q700.015 67.5124 703.742 63.1374 Q707.509 58.7219 707.509 51.4303 L707.509 49.7694 L700.096 49.7694 M714.963 46.6907 L714.963 72.576 L707.509 72.576 L707.509 65.6895 Q704.957 69.8214 701.149 71.8063 Q697.341 73.7508 691.832 73.7508 Q684.865 73.7508 680.733 69.8619 Q676.641 65.9325 676.641 59.3701 Q676.641 51.7138 681.745 47.825 Q686.89 43.9361 697.058 43.9361 L707.509 43.9361 L707.509 43.2069 Q707.509 38.0623 704.106 35.2672 Q700.744 32.4315 694.627 32.4315 Q690.738 32.4315 687.052 33.3632 Q683.366 34.295 679.963 36.1584 L679.963 29.2718 Q684.054 27.692 687.903 26.9223 Q691.751 26.1121 695.397 26.1121 Q705.241 26.1121 710.102 31.2163 Q714.963 36.3204 714.963 46.6907 Z" fill="#000000" fill-rule="nonzero" fill-opacity="1" /><path clip-path="url(#clip680)" d="M737.526 65.7705 L737.526 89.8329 L730.032 89.8329 L730.032 27.2059 L737.526 27.2059 L737.526 34.0924 Q739.876 30.0415 743.441 28.0971 Q747.046 26.1121 752.029 26.1121 Q760.292 26.1121 765.437 32.6746 Q770.622 39.2371 770.622 49.9314 Q770.622 60.6258 765.437 67.1883 Q760.292 73.7508 752.029 73.7508 Q747.046 73.7508 743.441 71.8063 Q739.876 69.8214 737.526 65.7705 M762.885 49.9314 Q762.885 41.7081 759.482 37.0496 Q756.12 32.3505 750.206 32.3505 Q744.291 32.3505 740.889 37.0496 Q737.526 41.7081 737.526 49.9314 Q737.526 58.1548 740.889 62.8538 Q744.291 67.5124 750.206 67.5124 Q756.12 67.5124 759.482 62.8538 Q762.885 58.1548 762.885 49.9314 Z" fill="#000000" fill-rule="nonzero" fill-opacity="1" /><path clip-path="url(#clip680)" d="M821.785 48.0275 L821.785 51.6733 L787.515 51.6733 Q788.001 59.3701 792.133 63.421 Q796.305 67.4314 803.718 67.4314 Q808.012 67.4314 812.023 66.3781 Q816.073 65.3249 820.043 63.2184 L820.043 70.267 Q816.033 71.9684 811.82 72.8596 Q807.607 73.7508 803.273 73.7508 Q792.416 73.7508 786.056 67.4314 Q779.737 61.1119 779.737 50.3365 Q779.737 39.1965 785.732 32.6746 Q791.768 26.1121 801.976 26.1121 Q811.131 26.1121 816.438 32.0264 Q821.785 37.9003 821.785 48.0275 M814.332 45.84 Q814.251 39.7232 810.888 36.0774 Q807.567 32.4315 802.057 32.4315 Q795.819 32.4315 792.052 35.9558 Q788.325 39.4801 787.758 45.8805 L814.332 45.84 Z" fill="#000000" fill-rule="nonzero" fill-opacity="1" /><path clip-path="url(#clip680)" d="M862.942 28.5427 L862.942 35.5912 Q859.783 33.9709 856.38 33.1607 Q852.977 32.3505 849.331 32.3505 Q843.782 32.3505 840.987 34.0519 Q838.232 35.7533 838.232 39.156 Q838.232 41.7486 840.217 43.2475 Q842.202 44.7058 848.197 46.0426 L850.749 46.6097 Q858.689 48.3111 862.011 51.4303 Q865.373 54.509 865.373 60.0587 Q865.373 66.3781 860.35 70.0644 Q855.367 73.7508 846.617 73.7508 Q842.971 73.7508 839.002 73.0216 Q835.072 72.3329 830.697 70.9151 L830.697 63.2184 Q834.829 65.3654 838.84 66.4591 Q842.85 67.5124 846.779 67.5124 Q852.045 67.5124 854.881 65.73 Q857.717 63.9071 857.717 60.6258 Q857.717 57.5877 855.651 55.9673 Q853.625 54.3469 846.698 52.8481 L844.106 52.2405 Q837.179 50.7821 834.1 47.7845 Q831.021 44.7463 831.021 39.4801 Q831.021 33.0797 835.558 29.5959 Q840.095 26.1121 848.44 26.1121 Q852.572 26.1121 856.218 26.7198 Q859.864 27.3274 862.942 28.5427 Z" fill="#000000" fill-rule="nonzero" fill-opacity="1" /><path clip-path="url(#clip680)" d="M916.05 48.0275 L916.05 51.6733 L881.779 51.6733 Q882.265 59.3701 886.397 63.421 Q890.57 67.4314 897.983 67.4314 Q902.277 67.4314 906.287 66.3781 Q910.338 65.3249 914.308 63.2184 L914.308 70.267 Q910.297 71.9684 906.085 72.8596 Q901.872 73.7508 897.537 73.7508 Q886.681 73.7508 880.321 67.4314 Q874.001 61.1119 874.001 50.3365 Q874.001 39.1965 879.997 32.6746 Q886.033 26.1121 896.241 26.1121 Q905.396 26.1121 910.703 32.0264 Q916.05 37.9003 916.05 48.0275 M908.596 45.84 Q908.515 39.7232 905.153 36.0774 Q901.831 32.4315 896.322 32.4315 Q890.083 32.4315 886.316 35.9558 Q882.589 39.4801 882.022 45.8805 L908.596 45.84 Z" fill="#000000" fill-rule="nonzero" fill-opacity="1" /><path clip-path="url(#clip680)" d="M954.574 34.1734 Q953.318 33.4443 951.819 33.1202 Q950.361 32.7556 948.579 32.7556 Q942.259 32.7556 938.856 36.8875 Q935.494 40.9789 935.494 48.6757 L935.494 72.576 L928 72.576 L928 27.2059 L935.494 27.2059 L935.494 34.2544 Q937.844 30.1225 941.611 28.1376 Q945.378 26.1121 950.766 26.1121 Q951.536 26.1121 952.467 26.2337 Q953.399 26.3147 954.533 26.5172 L954.574 34.1734 Z" fill="#000000" fill-rule="nonzero" fill-opacity="1" /><path clip-path="url(#clip680)" d="M1011.73 9.54393 L1011.73 15.7418 L1004.6 15.7418 Q1000.59 15.7418 999.012 17.3622 Q997.473 18.9825 997.473 23.1955 L997.473 27.2059 L1009.75 27.2059 L1009.75 32.9987 L997.473 32.9987 L997.473 72.576 L989.979 72.576 L989.979 32.9987 L982.849 32.9987 L982.849 27.2059 L989.979 27.2059 L989.979 24.0462 Q989.979 16.471 993.503 13.0277 Q997.027 9.54393 1004.68 9.54393 L1011.73 9.54393 Z" fill="#000000" fill-rule="nonzero" fill-opacity="1" /><path clip-path="url(#clip680)" d="M1035.55 32.4315 Q1029.56 32.4315 1026.07 37.1306 Q1022.59 41.7891 1022.59 49.9314 Q1022.59 58.0738 1026.03 62.7728 Q1029.52 67.4314 1035.55 67.4314 Q1041.51 67.4314 1044.99 62.7323 Q1048.47 58.0333 1048.47 49.9314 Q1048.47 41.8701 1044.99 37.1711 Q1041.51 32.4315 1035.55 32.4315 M1035.55 26.1121 Q1045.27 26.1121 1050.82 32.4315 Q1056.37 38.7509 1056.37 49.9314 Q1056.37 61.0714 1050.82 67.4314 Q1045.27 73.7508 1035.55 73.7508 Q1025.79 73.7508 1020.24 67.4314 Q1014.73 61.0714 1014.73 49.9314 Q1014.73 38.7509 1020.24 32.4315 Q1025.79 26.1121 1035.55 26.1121 Z" fill="#000000" fill-rule="nonzero" fill-opacity="1" /><path clip-path="url(#clip680)" d="M1095.02 34.1734 Q1093.76 33.4443 1092.26 33.1202 Q1090.81 32.7556 1089.02 32.7556 Q1082.7 32.7556 1079.3 36.8875 Q1075.94 40.9789 1075.94 48.6757 L1075.94 72.576 L1068.44 72.576 L1068.44 27.2059 L1075.94 27.2059 L1075.94 34.2544 Q1078.29 30.1225 1082.06 28.1376 Q1085.82 26.1121 1091.21 26.1121 Q1091.98 26.1121 1092.91 26.2337 Q1093.84 26.3147 1094.98 26.5172 L1095.02 34.1734 Z" fill="#000000" fill-rule="nonzero" fill-opacity="1" /><path clip-path="url(#clip680)" d="M1129.53 12.096 L1140.55 12.096 L1167.37 62.6918 L1167.37 12.096 L1175.31 12.096 L1175.31 72.576 L1164.29 72.576 L1137.47 21.9802 L1137.47 72.576 L1129.53 72.576 L1129.53 12.096 Z" fill="#000000" fill-rule="nonzero" fill-opacity="1" /><path clip-path="url(#clip680)" d="M1190.5 54.671 L1190.5 27.2059 L1197.95 27.2059 L1197.95 54.3874 Q1197.95 60.8284 1200.46 64.0691 Q1202.98 67.2693 1208 67.2693 Q1214.03 67.2693 1217.52 63.421 Q1221.04 59.5726 1221.04 52.9291 L1221.04 27.2059 L1228.5 27.2059 L1228.5 72.576 L1221.04 72.576 L1221.04 65.6084 Q1218.33 69.7404 1214.72 71.7658 Q1211.16 73.7508 1206.42 73.7508 Q1198.6 73.7508 1194.55 68.8897 Q1190.5 64.0286 1190.5 54.671 M1209.25 26.1121 L1209.25 26.1121 Z" fill="#000000" fill-rule="nonzero" fill-opacity="1" /><path clip-path="url(#clip680)" d="M1279.17 35.9153 Q1281.97 30.8922 1285.86 28.5022 Q1289.75 26.1121 1295.01 26.1121 Q1302.1 26.1121 1305.95 31.0947 Q1309.8 36.0368 1309.8 45.1919 L1309.8 72.576 L1302.3 72.576 L1302.3 45.4349 Q1302.3 38.913 1299.99 35.7533 Q1297.69 32.5936 1292.95 32.5936 Q1287.15 32.5936 1283.79 36.4419 Q1280.43 40.2903 1280.43 46.9338 L1280.43 72.576 L1272.93 72.576 L1272.93 45.4349 Q1272.93 38.8725 1270.63 35.7533 Q1268.32 32.5936 1263.5 32.5936 Q1257.78 32.5936 1254.42 36.4824 Q1251.06 40.3308 1251.06 46.9338 L1251.06 72.576 L1243.57 72.576 L1243.57 27.2059 L1251.06 27.2059 L1251.06 34.2544 Q1253.61 30.082 1257.18 28.0971 Q1260.74 26.1121 1265.64 26.1121 Q1270.58 26.1121 1274.03 28.6237 Q1277.51 31.1352 1279.17 35.9153 Z" fill="#000000" fill-rule="nonzero" fill-opacity="1" /><path clip-path="url(#clip680)" d="M1363.47 48.0275 L1363.47 51.6733 L1329.2 51.6733 Q1329.69 59.3701 1333.82 63.421 Q1337.99 67.4314 1345.41 67.4314 Q1349.7 67.4314 1353.71 66.3781 Q1357.76 65.3249 1361.73 63.2184 L1361.73 70.267 Q1357.72 71.9684 1353.51 72.8596 Q1349.29 73.7508 1344.96 73.7508 Q1334.1 73.7508 1327.74 67.4314 Q1321.42 61.1119 1321.42 50.3365 Q1321.42 39.1965 1327.42 32.6746 Q1333.45 26.1121 1343.66 26.1121 Q1352.82 26.1121 1358.12 32.0264 Q1363.47 37.9003 1363.47 48.0275 M1356.02 45.84 Q1355.94 39.7232 1352.58 36.0774 Q1349.25 32.4315 1343.74 32.4315 Q1337.51 32.4315 1333.74 35.9558 Q1330.01 39.4801 1329.44 45.8805 L1356.02 45.84 Z" fill="#000000" fill-rule="nonzero" fill-opacity="1" /><path clip-path="url(#clip680)" d="M1402 34.1734 Q1400.74 33.4443 1399.24 33.1202 Q1397.78 32.7556 1396 32.7556 Q1389.68 32.7556 1386.28 36.8875 Q1382.92 40.9789 1382.92 48.6757 L1382.92 72.576 L1375.42 72.576 L1375.42 27.2059 L1382.92 27.2059 L1382.92 34.2544 Q1385.27 30.1225 1389.03 28.1376 Q1392.8 26.1121 1398.19 26.1121 Q1398.96 26.1121 1399.89 26.2337 Q1400.82 26.3147 1401.96 26.5172 L1402 34.1734 Z" fill="#000000" fill-rule="nonzero" fill-opacity="1" /><path clip-path="url(#clip680)" d="M1409.81 27.2059 L1417.27 27.2059 L1417.27 72.576 L1409.81 72.576 L1409.81 27.2059 M1409.81 9.54393 L1417.27 9.54393 L1417.27 18.9825 L1409.81 18.9825 L1409.81 9.54393 Z" fill="#000000" fill-rule="nonzero" fill-opacity="1" /><path clip-path="url(#clip680)" d="M1461.79 28.5427 L1461.79 35.5912 Q1458.63 33.9709 1455.23 33.1607 Q1451.82 32.3505 1448.18 32.3505 Q1442.63 32.3505 1439.83 34.0519 Q1437.08 35.7533 1437.08 39.156 Q1437.08 41.7486 1439.06 43.2475 Q1441.05 44.7058 1447.04 46.0426 L1449.59 46.6097 Q1457.53 48.3111 1460.86 51.4303 Q1464.22 54.509 1464.22 60.0587 Q1464.22 66.3781 1459.19 70.0644 Q1454.21 73.7508 1445.46 73.7508 Q1441.82 73.7508 1437.85 73.0216 Q1433.92 72.3329 1429.54 70.9151 L1429.54 63.2184 Q1433.67 65.3654 1437.68 66.4591 Q1441.7 67.5124 1445.62 67.5124 Q1450.89 67.5124 1453.73 65.73 Q1456.56 63.9071 1456.56 60.6258 Q1456.56 57.5877 1454.5 55.9673 Q1452.47 54.3469 1445.54 52.8481 L1442.95 52.2405 Q1436.02 50.7821 1432.95 47.7845 Q1429.87 44.7463 1429.87 39.4801 Q1429.87 33.0797 1434.4 29.5959 Q1438.94 26.1121 1447.29 26.1121 Q1451.42 26.1121 1455.06 26.7198 Q1458.71 27.3274 1461.79 28.5427 Z" fill="#000000" fill-rule="nonzero" fill-opacity="1" /><path clip-path="url(#clip680)" d="M1475.8 9.54393 L1483.3 9.54393 L1483.3 46.7717 L1505.54 27.2059 L1515.06 27.2059 L1490.99 48.4326 L1516.07 72.576 L1506.35 72.576 L1483.3 50.4176 L1483.3 72.576 L1475.8 72.576 L1475.8 9.54393 Z" fill="#000000" fill-rule="nonzero" fill-opacity="1" /><path clip-path="url(#clip680)" d="M1550.83 12.096 L1559.01 12.096 L1559.01 72.576 L1550.83 72.576 L1550.83 12.096 Z" fill="#000000" fill-rule="nonzero" fill-opacity="1" /><path clip-path="url(#clip680)" d="M1612.68 45.1919 L1612.68 72.576 L1605.23 72.576 L1605.23 45.4349 Q1605.23 38.994 1602.72 35.7938 Q1600.21 32.5936 1595.18 32.5936 Q1589.15 32.5936 1585.66 36.4419 Q1582.18 40.2903 1582.18 46.9338 L1582.18 72.576 L1574.69 72.576 L1574.69 27.2059 L1582.18 27.2059 L1582.18 34.2544 Q1584.85 30.163 1588.46 28.1376 Q1592.11 26.1121 1596.84 26.1121 Q1604.66 26.1121 1608.67 30.9732 Q1612.68 35.7938 1612.68 45.1919 Z" fill="#000000" fill-rule="nonzero" fill-opacity="1" /><path clip-path="url(#clip680)" d="M1634.92 14.324 L1634.92 27.2059 L1650.28 27.2059 L1650.28 32.9987 L1634.92 32.9987 L1634.92 57.6282 Q1634.92 63.1779 1636.42 64.7578 Q1637.96 66.3376 1642.62 66.3376 L1650.28 66.3376 L1650.28 72.576 L1642.62 72.576 Q1633.99 72.576 1630.71 69.3758 Q1627.43 66.1351 1627.43 57.6282 L1627.43 32.9987 L1621.96 32.9987 L1621.96 27.2059 L1627.43 27.2059 L1627.43 14.324 L1634.92 14.324 Z" fill="#000000" fill-rule="nonzero" fill-opacity="1" /><path clip-path="url(#clip680)" d="M1698.89 48.0275 L1698.89 51.6733 L1664.62 51.6733 Q1665.1 59.3701 1669.23 63.421 Q1673.41 67.4314 1680.82 67.4314 Q1685.11 67.4314 1689.12 66.3781 Q1693.18 65.3249 1697.15 63.2184 L1697.15 70.267 Q1693.13 71.9684 1688.92 72.8596 Q1684.71 73.7508 1680.37 73.7508 Q1669.52 73.7508 1663.16 67.4314 Q1656.84 61.1119 1656.84 50.3365 Q1656.84 39.1965 1662.83 32.6746 Q1668.87 26.1121 1679.08 26.1121 Q1688.23 26.1121 1693.54 32.0264 Q1698.89 37.9003 1698.89 48.0275 M1691.43 45.84 Q1691.35 39.7232 1687.99 36.0774 Q1684.67 32.4315 1679.16 32.4315 Q1672.92 32.4315 1669.15 35.9558 Q1665.43 39.4801 1664.86 45.8805 L1691.43 45.84 Z" fill="#000000" fill-rule="nonzero" fill-opacity="1" /><path clip-path="url(#clip680)" d="M1740.98 49.3643 Q1740.98 41.2625 1737.61 36.8065 Q1734.29 32.3505 1728.26 32.3505 Q1722.26 32.3505 1718.9 36.8065 Q1715.58 41.2625 1715.58 49.3643 Q1715.58 57.4256 1718.9 61.8816 Q1722.26 66.3376 1728.26 66.3376 Q1734.29 66.3376 1737.61 61.8816 Q1740.98 57.4256 1740.98 49.3643 M1748.43 66.9452 Q1748.43 78.5308 1743.28 84.1616 Q1738.14 89.8329 1727.53 89.8329 Q1723.6 89.8329 1720.11 89.2252 Q1716.63 88.6581 1713.35 87.4428 L1713.35 80.1917 Q1716.63 81.9741 1719.83 82.8248 Q1723.03 83.6755 1726.35 83.6755 Q1733.68 83.6755 1737.33 79.8271 Q1740.98 76.0193 1740.98 68.282 L1740.98 64.5957 Q1738.67 68.6061 1735.06 70.5911 Q1731.46 72.576 1726.43 72.576 Q1718.09 72.576 1712.98 66.2161 Q1707.88 59.8562 1707.88 49.3643 Q1707.88 38.832 1712.98 32.472 Q1718.09 26.1121 1726.43 26.1121 Q1731.46 26.1121 1735.06 28.0971 Q1738.67 30.082 1740.98 34.0924 L1740.98 27.2059 L1748.43 27.2059 L1748.43 66.9452 Z" fill="#000000" fill-rule="nonzero" fill-opacity="1" /><path clip-path="url(#clip680)" d="M1790.07 34.1734 Q1788.82 33.4443 1787.32 33.1202 Q1785.86 32.7556 1784.08 32.7556 Q1777.76 32.7556 1774.36 36.8875 Q1770.99 40.9789 1770.99 48.6757 L1770.99 72.576 L1763.5 72.576 L1763.5 27.2059 L1770.99 27.2059 L1770.99 34.2544 Q1773.34 30.1225 1777.11 28.1376 Q1780.88 26.1121 1786.27 26.1121 Q1787.03 26.1121 1787.97 26.2337 Q1788.9 26.3147 1790.03 26.5172 L1790.07 34.1734 Z" fill="#000000" fill-rule="nonzero" fill-opacity="1" /><path clip-path="url(#clip680)" d="M1818.51 49.7694 Q1809.48 49.7694 1805.99 51.8354 Q1802.51 53.9013 1802.51 58.8839 Q1802.51 62.8538 1805.1 65.2034 Q1807.73 67.5124 1812.23 67.5124 Q1818.43 67.5124 1822.16 63.1374 Q1825.92 58.7219 1825.92 51.4303 L1825.92 49.7694 L1818.51 49.7694 M1833.38 46.6907 L1833.38 72.576 L1825.92 72.576 L1825.92 65.6895 Q1823.37 69.8214 1819.56 71.8063 Q1815.76 73.7508 1810.25 73.7508 Q1803.28 73.7508 1799.15 69.8619 Q1795.06 65.9325 1795.06 59.3701 Q1795.06 51.7138 1800.16 47.825 Q1805.3 43.9361 1815.47 43.9361 L1825.92 43.9361 L1825.92 43.2069 Q1825.92 38.0623 1822.52 35.2672 Q1819.16 32.4315 1813.04 32.4315 Q1809.15 32.4315 1805.47 33.3632 Q1801.78 34.295 1798.38 36.1584 L1798.38 29.2718 Q1802.47 27.692 1806.32 26.9223 Q1810.17 26.1121 1813.81 26.1121 Q1823.65 26.1121 1828.52 31.2163 Q1833.38 36.3204 1833.38 46.6907 Z" fill="#000000" fill-rule="nonzero" fill-opacity="1" /><path clip-path="url(#clip680)" d="M1877.65 28.5427 L1877.65 35.5912 Q1874.49 33.9709 1871.09 33.1607 Q1867.69 32.3505 1864.04 32.3505 Q1858.49 32.3505 1855.7 34.0519 Q1852.94 35.7533 1852.94 39.156 Q1852.94 41.7486 1854.93 43.2475 Q1856.91 44.7058 1862.91 46.0426 L1865.46 46.6097 Q1873.4 48.3111 1876.72 51.4303 Q1880.08 54.509 1880.08 60.0587 Q1880.08 66.3781 1875.06 70.0644 Q1870.08 73.7508 1861.33 73.7508 Q1857.68 73.7508 1853.71 73.0216 Q1849.78 72.3329 1845.41 70.9151 L1845.41 63.2184 Q1849.54 65.3654 1853.55 66.4591 Q1857.56 67.5124 1861.49 67.5124 Q1866.76 67.5124 1869.59 65.73 Q1872.43 63.9071 1872.43 60.6258 Q1872.43 57.5877 1870.36 55.9673 Q1868.34 54.3469 1861.41 52.8481 L1858.82 52.2405 Q1851.89 50.7821 1848.81 47.7845 Q1845.73 44.7463 1845.73 39.4801 Q1845.73 33.0797 1850.27 29.5959 Q1854.81 26.1121 1863.15 26.1121 Q1867.28 26.1121 1870.93 26.7198 Q1874.57 27.3274 1877.65 28.5427 Z" fill="#000000" fill-rule="nonzero" fill-opacity="1" /><path clip-path="url(#clip680)" d="M1891.95 27.2059 L1899.41 27.2059 L1899.41 73.3862 Q1899.41 82.0551 1896.09 85.944 Q1892.8 89.8329 1885.47 89.8329 L1882.64 89.8329 L1882.64 83.5134 L1884.62 83.5134 Q1888.87 83.5134 1890.41 81.5285 Q1891.95 79.5841 1891.95 73.3862 L1891.95 27.2059 M1891.95 9.54393 L1899.41 9.54393 L1899.41 18.9825 L1891.95 18.9825 L1891.95 9.54393 Z" fill="#000000" fill-rule="nonzero" fill-opacity="1" /><path clip-path="url(#clip680)" d="M1932.58 32.4315 Q1926.59 32.4315 1923.1 37.1306 Q1919.62 41.7891 1919.62 49.9314 Q1919.62 58.0738 1923.06 62.7728 Q1926.55 67.4314 1932.58 67.4314 Q1938.54 67.4314 1942.02 62.7323 Q1945.51 58.0333 1945.51 49.9314 Q1945.51 41.8701 1942.02 37.1711 Q1938.54 32.4315 1932.58 32.4315 M1932.58 26.1121 Q1942.31 26.1121 1947.86 32.4315 Q1953.41 38.7509 1953.41 49.9314 Q1953.41 61.0714 1947.86 67.4314 Q1942.31 73.7508 1932.58 73.7508 Q1922.82 73.7508 1917.27 67.4314 Q1911.76 61.0714 1911.76 49.9314 Q1911.76 38.7509 1917.27 32.4315 Q1922.82 26.1121 1932.58 26.1121 Z" fill="#000000" fill-rule="nonzero" fill-opacity="1" /><path clip-path="url(#clip680)" d="M2003.47 45.1919 L2003.47 72.576 L1996.02 72.576 L1996.02 45.4349 Q1996.02 38.994 1993.51 35.7938 Q1991 32.5936 1985.97 32.5936 Q1979.94 32.5936 1976.45 36.4419 Q1972.97 40.2903 1972.97 46.9338 L1972.97 72.576 L1965.48 72.576 L1965.48 27.2059 L1972.97 27.2059 L1972.97 34.2544 Q1975.64 30.163 1979.25 28.1376 Q1982.9 26.1121 1987.64 26.1121 Q1995.45 26.1121 1999.46 30.9732 Q2003.47 35.7938 2003.47 45.1919 Z" fill="#000000" fill-rule="nonzero" fill-opacity="1" /><polyline clip-path="url(#clip682)" style="stroke:#009af9; stroke-linecap:round; stroke-linejoin:round; stroke-width:8; stroke-opacity:1; fill:none" points="309.067,1386.4 311.053,1386.4 313.039,1386.4 315.025,1386.4 317.012,1386.4 318.998,1386.4 320.984,1386.4 322.97,1386.4 324.956,1386.4 326.942,1386.4 328.928,1386.4 330.915,1386.4 332.901,1386.4 334.887,1386.4 336.873,1386.4 338.859,1386.4 340.845,1386.4 342.832,1386.4 344.818,1386.4 346.804,1386.4 348.79,1386.4 350.776,1386.4 352.762,1386.4 354.748,1386.4 356.735,1386.4 358.721,1386.4 360.707,1386.4 362.693,1386.4 364.679,1386.39 366.665,1386.39 368.651,1386.39 370.638,1386.39 372.624,1386.39 374.61,1386.39 376.596,1386.39 378.582,1386.39 380.568,1386.39 382.555,1386.39 384.541,1386.39 386.527,1386.39 388.513,1386.39 390.499,1386.39 392.485,1386.39 394.471,1386.39 396.458,1386.39 398.444,1386.39 400.43,1386.39 402.416,1386.39 404.402,1386.39 406.388,1386.39 408.374,1386.39 410.361,1386.39 412.347,1386.39 414.333,1386.39 416.319,1386.39 418.305,1386.38 420.291,1386.38 422.278,1386.38 424.264,1386.38 426.25,1386.38 428.236,1386.38 430.222,1386.38 432.208,1386.38 434.194,1386.38 436.181,1386.38 438.167,1386.37 440.153,1386.37 442.139,1386.37 444.125,1386.37 446.111,1386.37 448.097,1386.37 450.084,1386.36 452.07,1386.36 454.056,1386.36 456.042,1386.36 458.028,1386.36 460.014,1386.35 462.001,1386.35 463.987,1386.35 465.973,1386.35 467.959,1386.35 469.945,1386.34 471.931,1386.34 473.917,1386.34 475.904,1386.33 477.89,1386.33 479.876,1386.33 481.862,1386.33 483.848,1386.32 485.834,1386.32 487.82,1386.31 489.807,1386.31 491.793,1386.31 493.779,1386.3 495.765,1386.3 497.751,1386.3 499.737,1386.29 501.724,1386.29 503.71,1386.28 505.696,1386.28 507.682,1386.27 509.668,1386.27 511.654,1386.26 513.64,1386.26 515.627,1386.25 517.613,1386.25 519.599,1386.24 521.585,1386.23 523.571,1386.23 525.557,1386.22 527.543,1386.22 529.53,1386.21 531.516,1386.2 533.502,1386.19 535.488,1386.19 537.474,1386.18 539.46,1386.17 541.447,1386.16 543.433,1386.16 545.419,1386.15 547.405,1386.14 549.391,1386.13 551.377,1386.12 553.363,1386.11 555.35,1386.1 557.336,1386.1 559.322,1386.09 561.308,1386.08 563.294,1386.07 565.28,1386.05 567.266,1386.04 569.253,1386.03 571.239,1386.02 573.225,1386.01 575.211,1386 577.197,1385.99 579.183,1385.97 581.17,1385.96 583.156,1385.95 585.142,1385.94 587.128,1385.92 589.114,1385.91 591.1,1385.9 593.086,1385.88 595.073,1385.87 597.059,1385.85 599.045,1385.84 601.031,1385.82 603.017,1385.81 605.003,1385.79 606.989,1385.77 608.976,1385.76 610.962,1385.74 612.948,1385.72 614.934,1385.7 616.92,1385.69 618.906,1385.67 620.893,1385.65 622.879,1385.63 624.865,1385.61 626.851,1385.59 628.837,1385.57 630.823,1385.55 632.809,1385.53 634.796,1385.51 636.782,1385.48 638.768,1385.46 640.754,1385.44 642.74,1385.42 644.726,1385.39 646.712,1385.37 648.699,1385.34 650.685,1385.32 652.671,1385.29 654.657,1385.27 656.643,1385.24 658.629,1385.21 660.616,1385.19 662.602,1385.16 664.588,1385.13 666.574,1385.1 668.56,1385.07 670.546,1385.04 672.532,1385.02 674.519,1384.98 676.505,1384.95 678.491,1384.92 680.477,1384.89 682.463,1384.86 684.449,1384.82 686.435,1384.79 688.422,1384.76 690.408,1384.72 692.394,1384.69 694.38,1384.65 696.366,1384.62 698.352,1384.58 700.339,1384.54 702.325,1384.5 704.311,1384.47 706.297,1384.43 708.283,1384.39 710.269,1384.35 712.255,1384.31 714.242,1384.26 716.228,1384.22 718.214,1384.18 720.2,1384.14 722.186,1384.09 724.172,1384.05 726.158,1384 728.145,1383.96 730.131,1383.91 732.117,1383.86 734.103,1383.81 736.089,1383.77 738.075,1383.72 740.062,1383.67 742.048,1383.62 744.034,1383.56 746.02,1383.51 748.006,1383.46 749.992,1383.41 751.978,1383.35 753.965,1383.3 755.951,1383.24 757.937,1383.18 759.923,1383.13 761.909,1383.07 763.895,1383.01 765.881,1382.95 767.868,1382.89 769.854,1382.83 771.84,1382.77 773.826,1382.7 775.812,1382.64 777.798,1382.58 779.785,1382.51 781.771,1382.45 783.757,1382.38 785.743,1382.31 787.729,1382.24 789.715,1382.17 791.701,1382.1 793.688,1382.03 795.674,1381.96 797.66,1381.89 799.646,1381.81 801.632,1381.74 803.618,1381.66 805.604,1381.59 807.591,1381.51 809.577,1381.43 811.563,1381.35 813.549,1381.27 815.535,1381.19 817.521,1381.11 819.508,1381.03 821.494,1380.94 823.48,1380.86 825.466,1380.77 827.452,1380.68 829.438,1380.59 831.424,1380.51 833.411,1380.42 835.397,1380.32 837.383,1380.23 839.369,1380.14 841.355,1380.05 843.341,1379.95 845.328,1379.85 847.314,1379.76 849.3,1379.66 851.286,1379.56 853.272,1379.46 855.258,1379.36 857.244,1379.25 859.231,1379.15 861.217,1379.04 863.203,1378.94 865.189,1378.83 867.175,1378.72 869.161,1378.61 871.147,1378.5 873.134,1378.39 875.12,1378.27 877.106,1378.16 879.092,1378.04 881.078,1377.93 883.064,1377.81 885.051,1377.69 887.037,1377.57 889.023,1377.45 891.009,1377.32 892.995,1377.2 894.981,1377.07 896.967,1376.95 898.954,1376.82 900.94,1376.69 902.926,1376.56 904.912,1376.42 906.898,1376.29 908.884,1376.16 910.87,1376.02 912.857,1375.88 914.843,1375.74 916.829,1375.6 918.815,1375.46 920.801,1375.32 922.787,1375.17 924.774,1375.03 926.76,1374.88 928.746,1374.73 930.732,1374.58 932.718,1374.43 934.704,1374.28 936.69,1374.12 938.677,1373.96 940.663,1373.81 942.649,1373.65 944.635,1373.49 946.621,1373.32 948.607,1373.16 950.593,1373 952.58,1372.83 954.566,1372.66 956.552,1372.49 958.538,1372.32 960.524,1372.15 962.51,1371.97 964.497,1371.8 966.483,1371.62 968.469,1371.44 970.455,1371.26 972.441,1371.08 974.427,1370.89 976.413,1370.71 978.4,1370.52 980.386,1370.33 982.372,1370.14 984.358,1369.94 986.344,1369.75 988.33,1369.55 990.316,1369.36 992.303,1369.16 994.289,1368.96 996.275,1368.75 998.261,1368.55 1000.25,1368.34 1002.23,1368.13 1004.22,1367.92 1006.21,1367.71 1008.19,1367.5 1010.18,1367.28 1012.16,1367.06 1014.15,1366.84 1016.14,1366.62 1018.12,1366.4 1020.11,1366.17 1022.09,1365.95 1024.08,1365.72 1026.07,1365.49 1028.05,1365.26 1030.04,1365.02 1032.03,1364.78 1034.01,1364.55 1036,1364.31 1037.98,1364.06 1039.97,1363.82 1041.96,1363.57 1043.94,1363.32 1045.93,1363.07 1047.91,1362.82 1049.9,1362.57 1051.89,1362.31 1053.87,1362.05 1055.86,1361.79 1057.85,1361.53 1059.83,1361.26 1061.82,1361 1063.8,1360.73 1065.79,1360.46 1067.78,1360.18 1069.76,1359.91 1071.75,1359.63 1073.73,1359.35 1075.72,1359.07 1077.71,1358.78 1079.69,1358.5 1081.68,1358.21 1083.67,1357.92 1085.65,1357.62 1087.64,1357.33 1089.62,1357.03 1091.61,1356.73 1093.6,1356.43 1095.58,1356.12 1097.57,1355.82 1099.55,1355.51 1101.54,1355.19 1103.53,1354.88 1105.51,1354.56 1107.5,1354.25 1109.49,1353.92 1111.47,1353.6 1113.46,1353.28 1115.44,1352.95 1117.43,1352.62 1119.42,1352.28 1121.4,1351.95 1123.39,1351.61 1125.37,1351.27 1127.36,1350.93 1129.35,1350.58 1131.33,1350.23 1133.32,1349.88 1135.31,1349.53 1137.29,1349.17 1139.28,1348.81 1141.26,1348.45 1143.25,1348.09 1145.24,1347.72 1147.22,1347.35 1149.21,1346.98 1151.19,1346.61 1153.18,1346.23 1155.17,1345.85 1157.15,1345.47 1159.14,1345.09 1161.13,1344.7 1163.11,1344.31 1165.1,1343.92 1167.08,1343.52 1169.07,1343.12 1171.06,1342.72 1173.04,1342.32 1175.03,1341.91 1177.01,1341.5 1179,1341.09 1180.99,1340.67 1182.97,1340.25 1184.96,1339.83 1186.95,1339.41 1188.93,1338.98 1190.92,1338.55 1192.9,1338.12 1194.89,1337.69 1196.88,1337.25 1198.86,1336.81 1200.85,1336.36 1202.83,1335.91 1204.82,1335.46 1206.81,1335.01 1208.79,1334.55 1210.78,1334.1 1212.77,1333.63 1214.75,1333.17 1216.74,1332.7 1218.72,1332.23 1220.71,1331.75 1222.7,1331.28 1224.68,1330.79 1226.67,1330.31 1228.65,1329.82 1230.64,1329.33 1232.63,1328.84 1234.61,1328.34 1236.6,1327.84 1238.59,1327.34 1240.57,1326.83 1242.56,1326.32 1244.54,1325.81 1246.53,1325.3 1248.52,1324.78 1250.5,1324.25 1252.49,1323.73 1254.47,1323.2 1256.46,1322.66 1258.45,1322.13 1260.43,1321.59 1262.42,1321.05 1264.41,1320.5 1266.39,1319.95 1268.38,1319.4 1270.36,1318.84 1272.35,1318.28 1274.34,1317.72 1276.32,1317.15 1278.31,1316.58 1280.29,1316.01 1282.28,1315.43 1284.27,1314.85 1286.25,1314.26 1288.24,1313.67 1290.23,1313.08 1292.21,1312.49 1294.2,1311.89 1296.18,1311.28 1298.17,1310.68 1300.16,1310.07 1302.14,1309.45 1304.13,1308.84 1306.11,1308.22 1308.1,1307.59 1310.09,1306.96 1312.07,1306.33 1314.06,1305.69 1316.05,1305.05 1318.03,1304.41 1320.02,1303.76 1322,1303.11 1323.99,1302.46 1325.98,1301.8 1327.96,1301.14 1329.95,1300.47 1331.93,1299.8 1333.92,1299.12 1335.91,1298.44 1337.89,1297.76 1339.88,1297.08 1341.87,1296.39 1343.85,1295.69 1345.84,1294.99 1347.82,1294.29 1349.81,1293.58 1351.8,1292.87 1353.78,1292.16 1355.77,1291.44 1357.75,1290.72 1359.74,1289.99 1361.73,1289.26 1363.71,1288.52 1365.7,1287.78 1367.69,1287.04 1369.67,1286.29 1371.66,1285.54 1373.64,1284.79 1375.63,1284.03 1377.62,1283.26 1379.6,1282.49 1381.59,1281.72 1383.57,1280.94 1385.56,1280.16 1387.55,1279.37 1389.53,1278.58 1391.52,1277.79 1393.5,1276.99 1395.49,1276.18 1397.48,1275.38 1399.46,1274.56 1401.45,1273.75 1403.44,1272.92 1405.42,1272.1 1407.41,1271.27 1409.39,1270.43 1411.38,1269.59 1413.37,1268.75 1415.35,1267.9 1417.34,1267.05 1419.32,1266.19 1421.31,1265.33 1423.3,1264.46 1425.28,1263.59 1427.27,1262.71 1429.26,1261.83 1431.24,1260.95 1433.23,1260.05 1435.21,1259.16 1437.2,1258.26 1439.19,1257.35 1441.17,1256.45 1443.16,1255.53 1445.14,1254.61 1447.13,1253.69 1449.12,1252.76 1451.1,1251.83 1453.09,1250.89 1455.08,1249.94 1457.06,1248.99 1459.05,1248.04 1461.03,1247.08 1463.02,1246.12 1465.01,1245.15 1466.99,1244.18 1468.98,1243.2 1470.96,1242.22 1472.95,1241.23 1474.94,1240.24 1476.92,1239.24 1478.91,1238.23 1480.9,1237.22 1482.88,1236.21 1484.87,1235.19 1486.85,1234.17 1488.84,1233.14 1490.83,1232.1 1492.81,1231.06 1494.8,1230.02 1496.78,1228.97 1498.77,1227.91 1500.76,1226.85 1502.74,1225.78 1504.73,1224.71 1506.72,1223.64 1508.7,1222.55 1510.69,1221.47 1512.67,1220.37 1514.66,1219.27 1516.65,1218.17 1518.63,1217.06 1520.62,1215.95 1522.6,1214.83 1524.59,1213.7 1526.58,1212.57 1528.56,1211.43 1530.55,1210.29 1532.54,1209.14 1534.52,1207.99 1536.51,1206.83 1538.49,1205.66 1540.48,1204.49 1542.47,1203.31 1544.45,1202.13 1546.44,1200.94 1548.42,1199.75 1550.41,1198.55 1552.4,1197.35 1554.38,1196.14 1556.37,1194.92 1558.36,1193.7 1560.34,1192.47 1562.33,1191.23 1564.31,1189.99 1566.3,1188.75 1568.29,1187.5 1570.27,1186.24 1572.26,1184.97 1574.24,1183.7 1576.23,1182.43 1578.22,1181.15 1580.2,1179.86 1582.19,1178.56 1584.18,1177.26 1586.16,1175.96 1588.15,1174.65 1590.13,1173.33 1592.12,1172 1594.11,1170.67 1596.09,1169.34 1598.08,1167.99 1600.06,1166.64 1602.05,1165.29 1604.04,1163.93 1606.02,1162.56 1608.01,1161.19 1610,1159.8 1611.98,1158.42 1613.97,1157.02 1615.95,1155.62 1617.94,1154.22 1619.93,1152.81 1621.91,1151.39 1623.9,1149.96 1625.88,1148.53 1627.87,1147.09 1629.86,1145.65 1631.84,1144.2 1633.83,1142.74 1635.82,1141.27 1637.8,1139.8 1639.79,1138.32 1641.77,1136.84 1643.76,1135.35 1645.75,1133.85 1647.73,1132.35 1649.72,1130.84 1651.7,1129.32 1653.69,1127.79 1655.68,1126.26 1657.66,1124.72 1659.65,1123.18 1661.64,1121.63 1663.62,1120.07 1665.61,1118.5 1667.59,1116.93 1669.58,1115.35 1671.57,1113.77 1673.55,1112.17 1675.54,1110.57 1677.52,1108.96 1679.51,1107.35 1681.5,1105.73 1683.48,1104.1 1685.47,1102.47 1687.46,1100.82 1689.44,1099.17 1691.43,1097.52 1693.41,1095.85 1695.4,1094.18 1697.39,1092.5 1699.37,1090.82 1701.36,1089.13 1703.34,1087.43 1705.33,1085.72 1707.32,1084 1709.3,1082.28 1711.29,1080.55 1713.28,1078.82 1715.26,1077.07 1717.25,1075.32 1719.23,1073.56 1721.22,1071.8 1723.21,1070.02 1725.19,1068.24 1727.18,1066.45 1729.16,1064.66 1731.15,1062.85 1733.14,1061.04 1735.12,1059.22 1737.11,1057.4 1739.1,1055.56 1741.08,1053.72 1743.07,1051.87 1745.05,1050.01 1747.04,1048.15 1749.03,1046.28 1751.01,1044.4 1753,1042.51 1754.98,1040.61 1756.97,1038.71 1758.96,1036.8 1760.94,1034.88 1762.93,1032.95 1764.92,1031.02 1766.9,1029.07 1768.89,1027.12 1770.87,1025.16 1772.86,1023.19 1774.85,1021.22 1776.83,1019.24 1778.82,1017.24 1780.8,1015.24 1782.79,1013.24 1784.78,1011.22 1786.76,1009.2 1788.75,1007.17 1790.73,1005.13 1792.72,1003.08 1794.71,1001.02 1796.69,998.955 1798.68,996.882 1800.67,994.8 1802.65,992.71 1804.64,990.612 1806.62,988.505 1808.61,986.39 1810.6,984.267 1812.58,982.135 1814.57,979.995 1816.55,977.846 1818.54,975.689 1820.53,973.523 1822.51,971.348 1824.5,969.165 1826.49,966.974 1828.47,964.773 1830.46,962.564 1832.44,960.347 1834.43,958.121 1836.42,955.886 1838.4,953.642 1840.39,951.39 1842.37,949.128 1844.36,946.858 1846.35,944.579 1848.33,942.292 1850.32,939.995 1852.31,937.69 1854.29,935.375 1856.28,933.052 1858.26,930.72 1860.25,928.378 1862.24,926.028 1864.22,923.669 1866.21,921.3 1868.19,918.923 1870.18,916.536 1872.17,914.14 1874.15,911.736 1876.14,909.322 1878.13,906.898 1880.11,904.466 1882.1,902.024 1884.08,899.573 1886.07,897.113 1888.06,894.643 1890.04,892.164 1892.03,889.676 1894.01,887.179 1896,884.672 1897.99,882.155 1899.97,879.629 1901.96,877.094 1903.95,874.549 1905.93,871.994 1907.92,869.43 1909.9,866.857 1911.89,864.274 1913.88,861.681 1915.86,859.078 1917.85,856.466 1919.83,853.845 1921.82,851.213 1923.81,848.572 1925.79,845.921 1927.78,843.26 1929.77,840.589 1931.75,837.909 1933.74,835.219 1935.72,832.518 1937.71,829.808 1939.7,827.088 1941.68,824.358 1943.67,821.618 1945.65,818.868 1947.64,816.108 1949.63,813.338 1951.61,810.558 1953.6,807.768 1955.59,804.968 1957.57,802.157 1959.56,799.336 1961.54,796.505 1963.53,793.664 1965.52,790.813 1967.5,787.951 1969.49,785.079 1971.47,782.197 1973.46,779.304 1975.45,776.401 1977.43,773.488 1979.42,770.564 1981.41,767.63 1983.39,764.685 1985.38,761.73 1987.36,758.764 1989.35,755.788 1991.34,752.801 1993.32,749.803 1995.31,746.795 1997.29,743.777 1999.28,740.747 2001.27,737.707 2003.25,734.656 2005.24,731.595 2007.23,728.522 2009.21,725.439 2011.2,722.345 2013.18,719.24 2015.17,716.124 2017.16,712.998 2019.14,709.86 2021.13,706.712 2023.11,703.552 2025.1,700.382 2027.09,697.2 2029.07,694.008 2031.06,690.804 2033.05,687.589 2035.03,684.364 2037.02,681.127 2039,677.878 2040.99,674.619 2042.98,671.348 2044.96,668.066 2046.95,664.773 2048.93,661.469 2050.92,658.153 2052.91,654.826 2054.89,651.487 2056.88,648.137 2058.87,644.776 2060.85,641.403 2062.84,638.018 2064.82,634.622 2066.81,631.215 2068.8,627.796 2070.78,624.365 2072.77,620.923 2074.75,617.469 2076.74,614.003 2078.73,610.526 2080.71,607.037 2082.7,603.536 2084.69,600.024 2086.67,596.499 2088.66,592.963 2090.64,589.415 2092.63,585.855 2094.62,582.283 2096.6,578.7 2098.59,575.104 2100.57,571.496 2102.56,567.876 2104.55,564.245 2106.53,560.601 2108.52,556.945 2110.51,553.277 2112.49,549.596 2114.48,545.904 2116.46,542.199 2118.45,538.482 2120.44,534.753 2122.42,531.012 2124.41,527.258 2126.39,523.492 2128.38,519.714 2130.37,515.923 2132.35,512.12 2134.34,508.304 2136.33,504.476 2138.31,500.635 2140.3,496.782 2142.28,492.916 2144.27,489.038 2146.26,485.147 2148.24,481.243 2150.23,477.327 2152.21,473.398 2154.2,469.456 2156.19,465.502 2158.17,461.534 2160.16,457.554 2162.15,453.561 2164.13,449.556 2166.12,445.537 2168.1,441.506 2170.09,437.461 2172.08,433.404 2174.06,429.333 2176.05,425.25 2178.03,421.153 2180.02,417.044 2182.01,412.921 2183.99,408.785 2185.98,404.636 2187.97,400.474 2189.95,396.299 2191.94,392.11 2193.92,387.908 2195.91,383.693 2197.9,379.464 2199.88,375.222 2201.87,370.967 2203.85,366.698 2205.84,362.416 2207.83,358.12 2209.81,353.811 2211.8,349.488 2213.78,345.152 2215.77,340.802 2217.76,336.439 2219.74,332.062 2221.73,327.671 2223.72,323.267 2225.7,318.848 2227.69,314.416 2229.67,309.971 2231.66,305.511 2233.65,301.038 2235.63,296.55 2237.62,292.049 2239.6,287.534 2241.59,283.005 2243.58,278.462 2245.56,273.905 2247.55,269.334 2249.54,264.749 2251.52,260.15 2253.51,255.536 2255.49,250.909 2257.48,246.267 2259.47,241.611 2261.45,236.941 2263.44,232.256 2265.42,227.557 2267.41,222.844 2269.4,218.117 2271.38,213.375 2273.37,208.619 2275.36,203.848 2277.34,199.063 2279.33,194.263 2281.31,189.449 2283.3,184.62 2285.29,179.777 2287.27,174.918 2289.26,170.046 2291.24,165.158 2293.23,160.256 "/>
<polyline clip-path="url(#clip682)" style="stroke:#e26f46; stroke-linecap:round; stroke-linejoin:round; stroke-width:4; stroke-opacity:1; fill:none" points="309.067,1386.4 309.067,1386.4 1301.15,1309.76 1301.15,1386.4 "/>
<polyline clip-path="url(#clip682)" style="stroke:#3da44d; stroke-linecap:round; stroke-linejoin:round; stroke-width:4; stroke-opacity:1; fill:none" points="1301.15,1386.4 1301.15,1309.76 2293.23,160.256 2293.23,1386.4 "/>
<path clip-path="url(#clip680)" d="M1995.75 270.476 L2282.65 270.476 L2282.65 166.796 L1995.75 166.796  Z" fill="#ffffff" fill-rule="evenodd" fill-opacity="1"/>
<polyline clip-path="url(#clip680)" style="stroke:#000000; stroke-linecap:round; stroke-linejoin:round; stroke-width:4; stroke-opacity:1; fill:none" points="1995.75,270.476 2282.65,270.476 2282.65,166.796 1995.75,166.796 1995.75,270.476 "/>
<polyline clip-path="url(#clip680)" style="stroke:#009af9; stroke-linecap:round; stroke-linejoin:round; stroke-width:8; stroke-opacity:1; fill:none" points="2019.12,218.636 2159.34,218.636 "/>
<path clip-path="url(#clip680)" d="M2199.21 199.897 L2199.21 203.439 L2195.14 203.439 Q2192.84 203.439 2191.94 204.365 Q2191.06 205.291 2191.06 207.698 L2191.06 209.99 L2198.08 209.99 L2198.08 213.3 L2191.06 213.3 L2191.06 235.916 L2186.78 235.916 L2186.78 213.3 L2182.71 213.3 L2182.71 209.99 L2186.78 209.99 L2186.78 208.184 Q2186.78 203.856 2188.79 201.888 Q2190.81 199.897 2195.18 199.897 L2199.21 199.897 Z" fill="#000000" fill-rule="nonzero" fill-opacity="1" /><path clip-path="url(#clip680)" d="M2213.01 199.944 Q2209.9 205.268 2208.4 210.476 Q2206.9 215.684 2206.9 221.032 Q2206.9 226.379 2208.4 231.633 Q2209.93 236.865 2213.01 242.166 L2209.3 242.166 Q2205.83 236.726 2204.09 231.471 Q2202.38 226.217 2202.38 221.032 Q2202.38 215.87 2204.09 210.638 Q2205.81 205.407 2209.3 199.944 L2213.01 199.944 Z" fill="#000000" fill-rule="nonzero" fill-opacity="1" /><path clip-path="url(#clip680)" d="M2242.82 209.99 L2233.45 222.606 L2243.31 235.916 L2238.28 235.916 L2230.74 225.731 L2223.19 235.916 L2218.17 235.916 L2228.24 222.351 L2219.03 209.99 L2224.05 209.99 L2230.92 219.226 L2237.8 209.99 L2242.82 209.99 Z" fill="#000000" fill-rule="nonzero" fill-opacity="1" /><path clip-path="url(#clip680)" d="M2248.65 199.944 L2252.36 199.944 Q2255.83 205.407 2257.54 210.638 Q2259.28 215.87 2259.28 221.032 Q2259.28 226.217 2257.54 231.471 Q2255.83 236.726 2252.36 242.166 L2248.65 242.166 Q2251.73 236.865 2253.24 231.633 Q2254.77 226.379 2254.77 221.032 Q2254.77 215.684 2253.24 210.476 Q2251.73 205.268 2248.65 199.944 Z" fill="#000000" fill-rule="nonzero" fill-opacity="1" /></svg>