<?xml version="1.0" encoding="utf-8"?>
<svg xmlns="http://www.w3.org/2000/svg" xmlns:xlink="http://www.w3.org/1999/xlink" width="600" height="400" viewBox="0 0 2400 1600">
<defs>
  <clipPath id="clip330">
    <rect x="0" y="0" width="2400" height="1600"/>
  </clipPath>
</defs>
<path clip-path="url(#clip330)" d="M0 1600 L2400 1600 L2400 0 L0 0  Z" fill="#ffffff" fill-rule="evenodd" fill-opacity="1"/>
<defs>
  <clipPath id="clip331">
    <rect x="480" y="0" width="1681" height="1600"/>
  </clipPath>
</defs>
<path clip-path="url(#clip330)" d="M149.191 1486.45 L2352.76 1486.45 L2352.76 47.2441 L149.191 47.2441  Z" fill="#ffffff" fill-rule="evenodd" fill-opacity="1"/>
<defs>
  <clipPath id="clip332">
    <rect x="149" y="47" width="2205" height="1440"/>
  </clipPath>
</defs>
<polyline clip-path="url(#clip332)" style="stroke:#000000; stroke-linecap:round; stroke-linejoin:round; stroke-width:2; stroke-opacity:0.1; fill:none" points="436.125,1486.45 436.125,47.2441 "/>
<polyline clip-path="url(#clip332)" style="stroke:#000000; stroke-linecap:round; stroke-linejoin:round; stroke-width:2; stroke-opacity:0.1; fill:none" points="843.549,1486.45 843.549,47.2441 "/>
<polyline clip-path="url(#clip332)" style="stroke:#000000; stroke-linecap:round; stroke-linejoin:round; stroke-width:2; stroke-opacity:0.1; fill:none" points="1250.97,1486.45 1250.97,47.2441 "/>
<polyline clip-path="url(#clip332)" style="stroke:#000000; stroke-linecap:round; stroke-linejoin:round; stroke-width:2; stroke-opacity:0.1; fill:none" points="1658.4,1486.45 1658.4,47.2441 "/>
<polyline clip-path="url(#clip332)" style="stroke:#000000; stroke-linecap:round; stroke-linejoin:round; stroke-width:2; stroke-opacity:0.1; fill:none" points="2065.82,1486.45 2065.82,47.2441 "/>
<polyline clip-path="url(#clip330)" style="stroke:#000000; stroke-linecap:round; stroke-linejoin:round; stroke-width:4; stroke-opacity:1; fill:none" points="149.191,1486.45 2352.76,1486.45 "/>
<polyline clip-path="url(#clip330)" style="stroke:#000000; stroke-linecap:round; stroke-linejoin:round; stroke-width:4; stroke-opacity:1; fill:none" points="436.125,1486.45 436.125,1467.55 "/>
<polyline clip-path="url(#clip330)" style="stroke:#000000; stroke-linecap:round; stroke-linejoin:round; stroke-width:4; stroke-opacity:1; fill:none" points="843.549,1486.45 843.549,1467.55 "/>
<polyline clip-path="url(#clip330)" style="stroke:#000000; stroke-linecap:round; stroke-linejoin:round; stroke-width:4; stroke-opacity:1; fill:none" points="1250.97,1486.45 1250.97,1467.55 "/>
<polyline clip-path="url(#clip330)" style="stroke:#000000; stroke-linecap:round; stroke-linejoin:round; stroke-width:4; stroke-opacity:1; fill:none" points="1658.4,1486.45 1658.4,1467.55 "/>
<polyline clip-path="url(#clip330)" style="stroke:#000000; stroke-linecap:round; stroke-linejoin:round; stroke-width:4; stroke-opacity:1; fill:none" points="2065.82,1486.45 2065.82,1467.55 "/>
<path clip-path="url(#clip330)" d="M405.187 1532.02 L434.863 1532.02 L434.863 1535.95 L405.187 1535.95 L405.187 1532.02 Z" fill="#000000" fill-rule="nonzero" fill-opacity="1" /><path clip-path="url(#clip330)" d="M455.534 1529.7 Q452.386 1529.7 450.534 1531.86 Q448.706 1534.01 448.706 1537.76 Q448.706 1541.49 450.534 1543.66 Q452.386 1545.82 455.534 1545.82 Q458.682 1545.82 460.511 1543.66 Q462.363 1541.49 462.363 1537.76 Q462.363 1534.01 460.511 1531.86 Q458.682 1529.7 455.534 1529.7 M464.817 1515.05 L464.817 1519.31 Q463.057 1518.48 461.252 1518.04 Q459.469 1517.6 457.71 1517.6 Q453.081 1517.6 450.627 1520.72 Q448.196 1523.85 447.849 1530.17 Q449.215 1528.15 451.275 1527.09 Q453.335 1526 455.812 1526 Q461.02 1526 464.03 1529.17 Q467.062 1532.32 467.062 1537.76 Q467.062 1543.08 463.914 1546.3 Q460.766 1549.52 455.534 1549.52 Q449.539 1549.52 446.368 1544.94 Q443.196 1540.33 443.196 1531.6 Q443.196 1523.41 447.085 1518.55 Q450.974 1513.66 457.525 1513.66 Q459.284 1513.66 461.067 1514.01 Q462.872 1514.36 464.817 1515.05 Z" fill="#000000" fill-rule="nonzero" fill-opacity="1" /><path clip-path="url(#clip330)" d="M813.017 1532.02 L842.693 1532.02 L842.693 1535.95 L813.017 1535.95 L813.017 1532.02 Z" fill="#000000" fill-rule="nonzero" fill-opacity="1" /><path clip-path="url(#clip330)" d="M866.952 1530.21 Q870.308 1530.93 872.183 1533.2 Q874.081 1535.47 874.081 1538.8 Q874.081 1543.92 870.563 1546.72 Q867.044 1549.52 860.563 1549.52 Q858.387 1549.52 856.072 1549.08 Q853.78 1548.66 851.327 1547.81 L851.327 1543.29 Q853.271 1544.43 855.586 1545.01 Q857.901 1545.58 860.424 1545.58 Q864.822 1545.58 867.114 1543.85 Q869.428 1542.11 869.428 1538.8 Q869.428 1535.75 867.276 1534.03 Q865.146 1532.3 861.327 1532.3 L857.299 1532.3 L857.299 1528.45 L861.512 1528.45 Q864.961 1528.45 866.79 1527.09 Q868.618 1525.7 868.618 1523.11 Q868.618 1520.45 866.72 1519.03 Q864.845 1517.6 861.327 1517.6 Q859.405 1517.6 857.206 1518.01 Q855.007 1518.43 852.368 1519.31 L852.368 1515.14 Q855.03 1514.4 857.345 1514.03 Q859.683 1513.66 861.743 1513.66 Q867.067 1513.66 870.169 1516.09 Q873.271 1518.5 873.271 1522.62 Q873.271 1525.49 871.628 1527.48 Q869.984 1529.45 866.952 1530.21 Z" fill="#000000" fill-rule="nonzero" fill-opacity="1" /><path clip-path="url(#clip330)" d="M1250.97 1517.37 Q1247.36 1517.37 1245.53 1520.93 Q1243.73 1524.47 1243.73 1531.6 Q1243.73 1538.71 1245.53 1542.27 Q1247.36 1545.82 1250.97 1545.82 Q1254.61 1545.82 1256.41 1542.27 Q1258.24 1538.71 1258.24 1531.6 Q1258.24 1524.47 1256.41 1520.93 Q1254.61 1517.37 1250.97 1517.37 M1250.97 1513.66 Q1256.78 1513.66 1259.84 1518.27 Q1262.92 1522.85 1262.92 1531.6 Q1262.92 1540.33 1259.84 1544.94 Q1256.78 1549.52 1250.97 1549.52 Q1245.16 1549.52 1242.08 1544.94 Q1239.03 1540.33 1239.03 1531.6 Q1239.03 1522.85 1242.08 1518.27 Q1245.16 1513.66 1250.97 1513.66 Z" fill="#000000" fill-rule="nonzero" fill-opacity="1" /><path clip-path="url(#clip330)" d="M1662.65 1530.21 Q1666 1530.93 1667.88 1533.2 Q1669.78 1535.47 1669.78 1538.8 Q1669.78 1543.92 1666.26 1546.72 Q1662.74 1549.52 1656.26 1549.52 Q1654.08 1549.52 1651.77 1549.08 Q1649.47 1548.66 1647.02 1547.81 L1647.02 1543.29 Q1648.96 1544.43 1651.28 1545.01 Q1653.59 1545.58 1656.12 1545.58 Q1660.52 1545.58 1662.81 1543.85 Q1665.12 1542.11 1665.12 1538.8 Q1665.12 1535.75 1662.97 1534.03 Q1660.84 1532.3 1657.02 1532.3 L1652.99 1532.3 L1652.99 1528.45 L1657.21 1528.45 Q1660.65 1528.45 1662.48 1527.09 Q1664.31 1525.7 1664.31 1523.11 Q1664.31 1520.45 1662.41 1519.03 Q1660.54 1517.6 1657.02 1517.6 Q1655.1 1517.6 1652.9 1518.01 Q1650.7 1518.43 1648.06 1519.31 L1648.06 1515.14 Q1650.72 1514.4 1653.04 1514.03 Q1655.38 1513.66 1657.44 1513.66 Q1662.76 1513.66 1665.86 1516.09 Q1668.96 1518.5 1668.96 1522.62 Q1668.96 1525.49 1667.32 1527.48 Q1665.68 1529.45 1662.65 1530.21 Z" fill="#000000" fill-rule="nonzero" fill-opacity="1" /><path clip-path="url(#clip330)" d="M2066.23 1529.7 Q2063.08 1529.7 2061.23 1531.86 Q2059.4 1534.01 2059.4 1537.76 Q2059.4 1541.49 2061.23 1543.66 Q2063.08 1545.82 2066.23 1545.82 Q2069.38 1545.82 2071.2 1543.66 Q2073.06 1541.49 2073.06 1537.76 Q2073.06 1534.01 2071.2 1531.86 Q2069.38 1529.7 2066.23 1529.7 M2075.51 1515.05 L2075.51 1519.31 Q2073.75 1518.48 2071.94 1518.04 Q2070.16 1517.6 2068.4 1517.6 Q2063.77 1517.6 2061.32 1520.72 Q2058.89 1523.85 2058.54 1530.17 Q2059.91 1528.15 2061.97 1527.09 Q2064.03 1526 2066.51 1526 Q2071.71 1526 2074.72 1529.17 Q2077.75 1532.32 2077.75 1537.76 Q2077.75 1543.08 2074.61 1546.3 Q2071.46 1549.52 2066.23 1549.52 Q2060.23 1549.52 2057.06 1544.94 Q2053.89 1540.33 2053.89 1531.6 Q2053.89 1523.41 2057.78 1518.55 Q2061.67 1513.66 2068.22 1513.66 Q2069.98 1513.66 2071.76 1514.01 Q2073.57 1514.36 2075.51 1515.05 Z" fill="#000000" fill-rule="nonzero" fill-opacity="1" /><polyline clip-path="url(#clip332)" style="stroke:#000000; stroke-linecap:round; stroke-linejoin:round; stroke-width:2; stroke-opacity:0.1; fill:none" points="149.191,1310.25 2352.76,1310.25 "/>
<polyline clip-path="url(#clip332)" style="stroke:#000000; stroke-linecap:round; stroke-linejoin:round; stroke-width:2; stroke-opacity:0.1; fill:none" points="149.191,1038.63 2352.76,1038.63 "/>
<polyline clip-path="url(#clip332)" style="stroke:#000000; stroke-linecap:round; stroke-linejoin:round; stroke-width:2; stroke-opacity:0.1; fill:none" points="149.191,767.017 2352.76,767.017 "/>
<polyline clip-path="url(#clip332)" style="stroke:#000000; stroke-linecap:round; stroke-linejoin:round; stroke-width:2; stroke-opacity:0.1; fill:none" points="149.191,495.401 2352.76,495.401 "/>
<polyline clip-path="url(#clip332)" style="stroke:#000000; stroke-linecap:round; stroke-linejoin:round; stroke-width:2; stroke-opacity:0.1; fill:none" points="149.191,223.784 2352.76,223.784 "/>
<polyline clip-path="url(#clip330)" style="stroke:#000000; stroke-linecap:round; stroke-linejoin:round; stroke-width:4; stroke-opacity:1; fill:none" points="149.191,1486.45 149.191,47.2441 "/>
<polyline clip-path="url(#clip330)" style="stroke:#000000; stroke-linecap:round; stroke-linejoin:round; stroke-width:4; stroke-opacity:1; fill:none" points="149.191,1310.25 168.089,1310.25 "/>
<polyline clip-path="url(#clip330)" style="stroke:#000000; stroke-linecap:round; stroke-linejoin:round; stroke-width:4; stroke-opacity:1; fill:none" points="149.191,1038.63 168.089,1038.63 "/>
<polyline clip-path="url(#clip330)" style="stroke:#000000; stroke-linecap:round; stroke-linejoin:round; stroke-width:4; stroke-opacity:1; fill:none" points="149.191,767.017 168.089,767.017 "/>
<polyline clip-path="url(#clip330)" style="stroke:#000000; stroke-linecap:round; stroke-linejoin:round; stroke-width:4; stroke-opacity:1; fill:none" points="149.191,495.401 168.089,495.401 "/>
<polyline clip-path="url(#clip330)" style="stroke:#000000; stroke-linecap:round; stroke-linejoin:round; stroke-width:4; stroke-opacity:1; fill:none" points="149.191,223.784 168.089,223.784 "/>
<path clip-path="url(#clip330)" d="M50.9921 1310.7 L80.6679 1310.7 L80.6679 1314.64 L50.9921 1314.64 L50.9921 1310.7 Z" fill="#000000" fill-rule="nonzero" fill-opacity="1" /><path clip-path="url(#clip330)" d="M103.608 1297.04 L91.8021 1315.49 L103.608 1315.49 L103.608 1297.04 M102.381 1292.97 L108.26 1292.97 L108.26 1315.49 L113.191 1315.49 L113.191 1319.38 L108.26 1319.38 L108.26 1327.53 L103.608 1327.53 L103.608 1319.38 L88.0058 1319.38 L88.0058 1314.87 L102.381 1292.97 Z" fill="#000000" fill-rule="nonzero" fill-opacity="1" /><path clip-path="url(#clip330)" d="M53.0754 1039.08 L82.7512 1039.08 L82.7512 1043.02 L53.0754 1043.02 L53.0754 1039.08 Z" fill="#000000" fill-rule="nonzero" fill-opacity="1" /><path clip-path="url(#clip330)" d="M96.8715 1051.98 L113.191 1051.98 L113.191 1055.91 L91.2465 1055.91 L91.2465 1051.98 Q93.9086 1049.22 98.4919 1044.59 Q103.098 1039.94 104.279 1038.6 Q106.524 1036.08 107.404 1034.34 Q108.307 1032.58 108.307 1030.89 Q108.307 1028.14 106.362 1026.4 Q104.441 1024.66 101.339 1024.66 Q99.14 1024.66 96.6863 1025.43 Q94.2558 1026.19 91.478 1027.74 L91.478 1023.02 Q94.3021 1021.89 96.7558 1021.31 Q99.2095 1020.73 101.246 1020.73 Q106.617 1020.73 109.811 1023.41 Q113.006 1026.1 113.006 1030.59 Q113.006 1032.72 112.196 1034.64 Q111.408 1036.54 109.302 1039.13 Q108.723 1039.8 105.621 1043.02 Q102.52 1046.21 96.8715 1051.98 Z" fill="#000000" fill-rule="nonzero" fill-opacity="1" /><path clip-path="url(#clip330)" d="M101.246 752.816 Q97.6354 752.816 95.8067 756.38 Q94.0012 759.922 94.0012 767.052 Q94.0012 774.158 95.8067 777.723 Q97.6354 781.265 101.246 781.265 Q104.881 781.265 106.686 777.723 Q108.515 774.158 108.515 767.052 Q108.515 759.922 106.686 756.38 Q104.881 752.816 101.246 752.816 M101.246 749.112 Q107.057 749.112 110.112 753.718 Q113.191 758.302 113.191 767.052 Q113.191 775.778 110.112 780.385 Q107.057 784.968 101.246 784.968 Q95.4363 784.968 92.3576 780.385 Q89.3021 775.778 89.3021 767.052 Q89.3021 758.302 92.3576 753.718 Q95.4363 749.112 101.246 749.112 Z" fill="#000000" fill-rule="nonzero" fill-opacity="1" /><path clip-path="url(#clip330)" d="M96.8715 508.745 L113.191 508.745 L113.191 512.681 L91.2465 512.681 L91.2465 508.745 Q93.9086 505.991 98.4919 501.361 Q103.098 496.709 104.279 495.366 Q106.524 492.843 107.404 491.107 Q108.307 489.347 108.307 487.658 Q108.307 484.903 106.362 483.167 Q104.441 481.431 101.339 481.431 Q99.14 481.431 96.6863 482.195 Q94.2558 482.959 91.478 484.51 L91.478 479.787 Q94.3021 478.653 96.7558 478.074 Q99.2095 477.496 101.246 477.496 Q106.617 477.496 109.811 480.181 Q113.006 482.866 113.006 487.357 Q113.006 489.486 112.196 491.408 Q111.408 493.306 109.302 495.898 Q108.723 496.57 105.621 499.787 Q102.52 502.982 96.8715 508.745 Z" fill="#000000" fill-rule="nonzero" fill-opacity="1" /><path clip-path="url(#clip330)" d="M103.608 210.578 L91.8021 229.027 L103.608 229.027 L103.608 210.578 M102.381 206.504 L108.26 206.504 L108.26 229.027 L113.191 229.027 L113.191 232.916 L108.26 232.916 L108.26 241.064 L103.608 241.064 L103.608 232.916 L88.0058 232.916 L88.0058 228.402 L102.381 206.504 Z" fill="#000000" fill-rule="nonzero" fill-opacity="1" /><path clip-path="url(#clip332)" d="M1250.97 87.9763 L1294.04 89.3434 L1336.93 93.4393 L1379.48 100.247 L1421.51 109.74 L1462.86 121.88 L1503.35 136.617 L1542.82 153.893 L1581.12 173.638 L1618.09 195.772 L1653.58 220.206 L1687.45 246.842 L1719.57 275.572 L1749.79 306.281 L1778.01 338.846 L1804.1 373.135 L1827.97 409.009 L1849.52 446.326 L1868.65 484.933 L1885.3 524.677 L1899.39 565.396 L1910.87 606.927 L1919.7 649.103 L1925.83 691.753 L1929.24 734.707 L1929.93 777.791 L1927.88 820.831 L1923.1 863.654 L1915.62 906.089 L1905.46 947.963 L1892.67 989.109 L1877.29 1029.36 L1859.39 1068.56 L1839.04 1106.54 L1816.32 1143.15 L1791.33 1178.25 L1764.16 1211.69 L1734.92 1243.35 L1703.74 1273.08 L1670.73 1300.78 L1636.03 1326.33 L1599.78 1349.62 L1562.13 1370.57 L1523.22 1389.09 L1483.22 1405.11 L1442.28 1418.55 L1400.57 1429.37 L1358.26 1437.53 L1315.52 1442.98 L1272.52 1445.72 L1229.43 1445.72 L1186.43 1442.98 L1143.68 1437.53 L1101.37 1429.37 L1059.67 1418.55 L1018.73 1405.11 L978.725 1389.09 L939.819 1370.57 L902.166 1349.62 L865.917 1326.33 L831.218 1300.78 L798.21 1273.08 L767.025 1243.35 L737.789 1211.69 L710.619 1178.25 L685.625 1143.15 L662.907 1106.54 L642.557 1068.56 L624.657 1029.36 L609.279 989.109 L596.485 947.963 L586.327 906.089 L578.844 863.654 L574.068 820.831 L572.018 777.791 L572.702 734.707 L576.117 691.753 L582.249 649.103 L591.074 606.927 L602.556 565.396 L616.649 524.677 L633.296 484.933 L652.431 446.326 L673.975 409.009 L697.843 373.135 L723.938 338.846 L752.156 306.281 L782.382 275.572 L814.494 246.842 L848.365 220.206 L883.856 195.772 L920.826 173.638 L959.125 153.893 L998.599 136.617 L1039.09 121.88 L1080.43 109.74 L1122.46 100.247 L1165.01 93.4393 L1207.91 89.3434 L1250.97 87.9763 L1250.97 87.9763  Z" fill="#0000ff" fill-rule="evenodd" fill-opacity="0.2"/>
<polyline clip-path="url(#clip332)" style="stroke:#000000; stroke-linecap:round; stroke-linejoin:round; stroke-width:8; stroke-opacity:1; fill:none" points="1250.97,87.9763 1294.04,89.3434 1336.93,93.4393 1379.48,100.247 1421.51,109.74 1462.86,121.88 1503.35,136.617 1542.82,153.893 1581.12,173.638 1618.09,195.772 1653.58,220.206 1687.45,246.842 1719.57,275.572 1749.79,306.281 1778.01,338.846 1804.1,373.135 1827.97,409.009 1849.52,446.326 1868.65,484.933 1885.3,524.677 1899.39,565.396 1910.87,606.927 1919.7,649.103 1925.83,691.753 1929.24,734.707 1929.93,777.791 1927.88,820.831 1923.1,863.654 1915.62,906.089 1905.46,947.963 1892.67,989.109 1877.29,1029.36 1859.39,1068.56 1839.04,1106.54 1816.32,1143.15 1791.33,1178.25 1764.16,1211.69 1734.92,1243.35 1703.74,1273.08 1670.73,1300.78 1636.03,1326.33 1599.78,1349.62 1562.13,1370.57 1523.22,1389.09 1483.22,1405.11 1442.28,1418.55 1400.57,1429.37 1358.26,1437.53 1315.52,1442.98 1272.52,1445.72 1229.43,1445.72 1186.43,1442.98 1143.68,1437.53 1101.37,1429.37 1059.67,1418.55 1018.73,1405.11 978.725,1389.09 939.819,1370.57 902.166,1349.62 865.917,1326.33 831.218,1300.78 798.21,1273.08 767.025,1243.35 737.789,1211.69 710.619,1178.25 685.625,1143.15 662.907,1106.54 642.557,1068.56 624.657,1029.36 609.279,989.109 596.485,947.963 586.327,906.089 578.844,863.654 574.068,820.831 572.018,777.791 572.702,734.707 576.117,691.753 582.249,649.103 591.074,606.927 602.556,565.396 616.649,524.677 633.296,484.933 652.431,446.326 673.975,409.009 697.843,373.135 723.938,338.846 752.156,306.281 782.382,275.572 814.494,246.842 848.365,220.206 883.856,195.772 920.826,173.638 959.125,153.893 998.599,136.617 1039.09,121.88 1080.43,109.74 1122.46,100.247 1165.01,93.4393 1207.91,89.3434 1250.97,87.9763 1250.97,87.9763 "/>
<path clip-path="url(#clip330)" d="M2006.52 1438.47 L2279.3 1438.47 L2279.3 1334.79 L2006.52 1334.79  Z" fill="#ffffff" fill-rule="evenodd" fill-opacity="1"/>
<polyline clip-path="url(#clip330)" style="stroke:#000000; stroke-linecap:round; stroke-linejoin:round; stroke-width:4; stroke-opacity:1; fill:none" points="2006.52,1438.47 2279.3,1438.47 2279.3,1334.79 2006.52,1334.79 2006.52,1438.47 "/>
<path clip-path="url(#clip330)" d="M2031 1407.37 L2177.91 1407.37 L2177.91 1365.9 L2031 1365.9 L2031 1407.37  Z" fill="#0000ff" fill-rule="evenodd" fill-opacity="0.2"/>
<polyline clip-path="url(#clip330)" style="stroke:#000000; stroke-linecap:round; stroke-linejoin:round; stroke-width:8; stroke-opacity:1; fill:none" points="2031,1407.37 2177.91,1407.37 2177.91,1365.9 2031,1365.9 2031,1407.37 "/>
<path clip-path="url(#clip330)" d="M2216.23 1406.32 Q2214.43 1410.95 2212.71 1412.36 Q2211 1413.78 2208.13 1413.78 L2204.73 1413.78 L2204.73 1410.21 L2207.23 1410.21 Q2208.99 1410.21 2209.96 1409.38 Q2210.93 1408.54 2212.11 1405.44 L2212.88 1403.5 L2202.39 1377.99 L2206.9 1377.99 L2215.01 1398.27 L2223.11 1377.99 L2227.62 1377.99 L2216.23 1406.32 Z" fill="#000000" fill-rule="nonzero" fill-opacity="1" /><path clip-path="url(#clip330)" d="M2234.91 1399.98 L2242.55 1399.98 L2242.55 1373.61 L2234.24 1375.28 L2234.24 1371.02 L2242.5 1369.35 L2247.18 1369.35 L2247.18 1399.98 L2254.82 1399.98 L2254.82 1403.91 L2234.91 1403.91 L2234.91 1399.98 Z" fill="#000000" fill-rule="nonzero" fill-opacity="1" /></svg>