<?xml version="1.0" encoding="utf-8"?>
<svg xmlns="http://www.w3.org/2000/svg" xmlns:xlink="http://www.w3.org/1999/xlink" width="600" height="400" viewBox="0 0 2400 1600">
<defs>
  <clipPath id="clip770">
    <rect x="0" y="0" width="2400" height="1600"/>
  </clipPath>
</defs>
<path clip-path="url(#clip770)" d="M0 1600 L2400 1600 L2400 0 L0 0  Z" fill="#ffffff" fill-rule="evenodd" fill-opacity="1"/>
<defs>
  <clipPath id="clip771">
    <rect x="480" y="0" width="1681" height="1600"/>
  </clipPath>
</defs>
<path clip-path="url(#clip770)" d="M249.542 1423.18 L2352.76 1423.18 L2352.76 123.472 L249.542 123.472  Z" fill="#ffffff" fill-rule="evenodd" fill-opacity="1"/>
<defs>
  <clipPath id="clip772">
    <rect x="249" y="123" width="2104" height="1301"/>
  </clipPath>
</defs>
<polyline clip-path="url(#clip772)" style="stroke:#000000; stroke-linecap:round; stroke-linejoin:round; stroke-width:2; stroke-opacity:0.1; fill:none" points="309.067,1423.18 309.067,123.472 "/>
<polyline clip-path="url(#clip772)" style="stroke:#000000; stroke-linecap:round; stroke-linejoin:round; stroke-width:2; stroke-opacity:0.1; fill:none" points="805.108,1423.18 805.108,123.472 "/>
<polyline clip-path="url(#clip772)" style="stroke:#000000; stroke-linecap:round; stroke-linejoin:round; stroke-width:2; stroke-opacity:0.1; fill:none" points="1301.15,1423.18 1301.15,123.472 "/>
<polyline clip-path="url(#clip772)" style="stroke:#000000; stroke-linecap:round; stroke-linejoin:round; stroke-width:2; stroke-opacity:0.1; fill:none" points="1797.19,1423.18 1797.19,123.472 "/>
<polyline clip-path="url(#clip772)" style="stroke:#000000; stroke-linecap:round; stroke-linejoin:round; stroke-width:2; stroke-opacity:0.1; fill:none" points="2293.23,1423.18 2293.23,123.472 "/>
<polyline clip-path="url(#clip770)" style="stroke:#000000; stroke-linecap:round; stroke-linejoin:round; stroke-width:4; stroke-opacity:1; fill:none" points="249.542,1423.18 2352.76,1423.18 "/>
<polyline clip-path="url(#clip770)" style="stroke:#000000; stroke-linecap:round; stroke-linejoin:round; stroke-width:4; stroke-opacity:1; fill:none" points="309.067,1423.18 309.067,1404.28 "/>
<polyline clip-path="url(#clip770)" style="stroke:#000000; stroke-linecap:round; stroke-linejoin:round; stroke-width:4; stroke-opacity:1; fill:none" points="805.108,1423.18 805.108,1404.28 "/>
<polyline clip-path="url(#clip770)" style="stroke:#000000; stroke-linecap:round; stroke-linejoin:round; stroke-width:4; stroke-opacity:1; fill:none" points="1301.15,1423.18 1301.15,1404.28 "/>
<polyline clip-path="url(#clip770)" style="stroke:#000000; stroke-linecap:round; stroke-linejoin:round; stroke-width:4; stroke-opacity:1; fill:none" points="1797.19,1423.18 1797.19,1404.28 "/>
<polyline clip-path="url(#clip770)" style="stroke:#000000; stroke-linecap:round; stroke-linejoin:round; stroke-width:4; stroke-opacity:1; fill:none" points="2293.23,1423.18 2293.23,1404.28 "/>
<path clip-path="url(#clip770)" d="M271.37 1454.1 Q267.759 1454.1 265.931 1457.66 Q264.125 1461.2 264.125 1468.33 Q264.125 1475.44 265.931 1479.01 Q267.759 1482.55 271.37 1482.55 Q275.005 1482.55 276.81 1479.01 Q278.639 1475.44 278.639 1468.33 Q278.639 1461.2 276.81 1457.66 Q275.005 1454.1 271.37 1454.1 M271.37 1450.39 Q277.181 1450.39 280.236 1455 Q283.315 1459.58 283.315 1468.33 Q283.315 1477.06 280.236 1481.67 Q277.181 1486.25 271.37 1486.25 Q265.56 1486.25 262.482 1481.67 Q259.426 1477.06 259.426 1468.33 Q259.426 1459.58 262.482 1455 Q265.56 1450.39 271.37 1450.39 Z" fill="#000000" fill-rule="nonzero" fill-opacity="1" /><path clip-path="url(#clip770)" d="M291.532 1479.7 L296.417 1479.7 L296.417 1485.58 L291.532 1485.58 L291.532 1479.7 Z" fill="#000000" fill-rule="nonzero" fill-opacity="1" /><path clip-path="url(#clip770)" d="M316.602 1454.1 Q312.991 1454.1 311.162 1457.66 Q309.356 1461.2 309.356 1468.33 Q309.356 1475.44 311.162 1479.01 Q312.991 1482.55 316.602 1482.55 Q320.236 1482.55 322.041 1479.01 Q323.87 1475.44 323.87 1468.33 Q323.87 1461.2 322.041 1457.66 Q320.236 1454.1 316.602 1454.1 M316.602 1450.39 Q322.412 1450.39 325.467 1455 Q328.546 1459.58 328.546 1468.33 Q328.546 1477.06 325.467 1481.67 Q322.412 1486.25 316.602 1486.25 Q310.791 1486.25 307.713 1481.67 Q304.657 1477.06 304.657 1468.33 Q304.657 1459.58 307.713 1455 Q310.791 1450.39 316.602 1450.39 Z" fill="#000000" fill-rule="nonzero" fill-opacity="1" /><path clip-path="url(#clip770)" d="M346.764 1454.1 Q343.152 1454.1 341.324 1457.66 Q339.518 1461.2 339.518 1468.33 Q339.518 1475.44 341.324 1479.01 Q343.152 1482.55 346.764 1482.55 Q350.398 1482.55 352.203 1479.01 Q354.032 1475.44 354.032 1468.33 Q354.032 1461.2 352.203 1457.66 Q350.398 1454.1 346.764 1454.1 M346.764 1450.39 Q352.574 1450.39 355.629 1455 Q358.708 1459.58 358.708 1468.33 Q358.708 1477.06 355.629 1481.67 Q352.574 1486.25 346.764 1486.25 Q340.953 1486.25 337.875 1481.67 Q334.819 1477.06 334.819 1468.33 Q334.819 1459.58 337.875 1455 Q340.953 1450.39 346.764 1450.39 Z" fill="#000000" fill-rule="nonzero" fill-opacity="1" /><path clip-path="url(#clip770)" d="M767.909 1454.1 Q764.298 1454.1 762.469 1457.66 Q760.664 1461.2 760.664 1468.33 Q760.664 1475.44 762.469 1479.01 Q764.298 1482.55 767.909 1482.55 Q771.543 1482.55 773.349 1479.01 Q775.178 1475.44 775.178 1468.33 Q775.178 1461.2 773.349 1457.66 Q771.543 1454.1 767.909 1454.1 M767.909 1450.39 Q773.719 1450.39 776.775 1455 Q779.853 1459.58 779.853 1468.33 Q779.853 1477.06 776.775 1481.67 Q773.719 1486.25 767.909 1486.25 Q762.099 1486.25 759.02 1481.67 Q755.965 1477.06 755.965 1468.33 Q755.965 1459.58 759.02 1455 Q762.099 1450.39 767.909 1450.39 Z" fill="#000000" fill-rule="nonzero" fill-opacity="1" /><path clip-path="url(#clip770)" d="M788.071 1479.7 L792.955 1479.7 L792.955 1485.58 L788.071 1485.58 L788.071 1479.7 Z" fill="#000000" fill-rule="nonzero" fill-opacity="1" /><path clip-path="url(#clip770)" d="M807.168 1481.64 L823.487 1481.64 L823.487 1485.58 L801.543 1485.58 L801.543 1481.64 Q804.205 1478.89 808.788 1474.26 Q813.395 1469.61 814.576 1468.27 Q816.821 1465.74 817.7 1464.01 Q818.603 1462.25 818.603 1460.56 Q818.603 1457.8 816.659 1456.07 Q814.738 1454.33 811.636 1454.33 Q809.437 1454.33 806.983 1455.09 Q804.552 1455.86 801.775 1457.41 L801.775 1452.69 Q804.599 1451.55 807.052 1450.97 Q809.506 1450.39 811.543 1450.39 Q816.913 1450.39 820.108 1453.08 Q823.302 1455.77 823.302 1460.26 Q823.302 1462.39 822.492 1464.31 Q821.705 1466.2 819.599 1468.8 Q819.02 1469.47 815.918 1472.69 Q812.816 1475.88 807.168 1481.64 Z" fill="#000000" fill-rule="nonzero" fill-opacity="1" /><path clip-path="url(#clip770)" d="M833.349 1451.02 L851.705 1451.02 L851.705 1454.96 L837.631 1454.96 L837.631 1463.43 Q838.649 1463.08 839.668 1462.92 Q840.686 1462.73 841.705 1462.73 Q847.492 1462.73 850.872 1465.9 Q854.251 1469.08 854.251 1474.49 Q854.251 1480.07 850.779 1483.17 Q847.307 1486.25 840.987 1486.25 Q838.811 1486.25 836.543 1485.88 Q834.298 1485.51 831.89 1484.77 L831.89 1480.07 Q833.974 1481.2 836.196 1481.76 Q838.418 1482.32 840.895 1482.32 Q844.899 1482.32 847.237 1480.21 Q849.575 1478.1 849.575 1474.49 Q849.575 1470.88 847.237 1468.77 Q844.899 1466.67 840.895 1466.67 Q839.02 1466.67 837.145 1467.08 Q835.293 1467.5 833.349 1468.38 L833.349 1451.02 Z" fill="#000000" fill-rule="nonzero" fill-opacity="1" /><path clip-path="url(#clip770)" d="M1263.45 1454.1 Q1259.84 1454.1 1258.01 1457.66 Q1256.21 1461.2 1256.21 1468.33 Q1256.21 1475.44 1258.01 1479.01 Q1259.84 1482.55 1263.45 1482.55 Q1267.09 1482.55 1268.89 1479.01 Q1270.72 1475.44 1270.72 1468.33 Q1270.72 1461.2 1268.89 1457.66 Q1267.09 1454.1 1263.45 1454.1 M1263.45 1450.39 Q1269.26 1450.39 1272.32 1455 Q1275.4 1459.58 1275.4 1468.33 Q1275.4 1477.06 1272.32 1481.67 Q1269.26 1486.25 1263.45 1486.25 Q1257.64 1486.25 1254.56 1481.67 Q1251.51 1477.06 1251.51 1468.33 Q1251.51 1459.58 1254.56 1455 Q1257.64 1450.39 1263.45 1450.39 Z" fill="#000000" fill-rule="nonzero" fill-opacity="1" /><path clip-path="url(#clip770)" d="M1283.61 1479.7 L1288.5 1479.7 L1288.5 1485.58 L1283.61 1485.58 L1283.61 1479.7 Z" fill="#000000" fill-rule="nonzero" fill-opacity="1" /><path clip-path="url(#clip770)" d="M1298.73 1451.02 L1317.09 1451.02 L1317.09 1454.96 L1303.01 1454.96 L1303.01 1463.43 Q1304.03 1463.08 1305.05 1462.92 Q1306.07 1462.73 1307.09 1462.73 Q1312.87 1462.73 1316.25 1465.9 Q1319.63 1469.08 1319.63 1474.49 Q1319.63 1480.07 1316.16 1483.17 Q1312.69 1486.25 1306.37 1486.25 Q1304.19 1486.25 1301.92 1485.88 Q1299.68 1485.51 1297.27 1484.77 L1297.27 1480.07 Q1299.35 1481.2 1301.58 1481.76 Q1303.8 1482.32 1306.28 1482.32 Q1310.28 1482.32 1312.62 1480.21 Q1314.96 1478.1 1314.96 1474.49 Q1314.96 1470.88 1312.62 1468.77 Q1310.28 1466.67 1306.28 1466.67 Q1304.4 1466.67 1302.53 1467.08 Q1300.67 1467.5 1298.73 1468.38 L1298.73 1451.02 Z" fill="#000000" fill-rule="nonzero" fill-opacity="1" /><path clip-path="url(#clip770)" d="M1338.85 1454.1 Q1335.23 1454.1 1333.41 1457.66 Q1331.6 1461.2 1331.6 1468.33 Q1331.6 1475.44 1333.41 1479.01 Q1335.23 1482.55 1338.85 1482.55 Q1342.48 1482.55 1344.29 1479.01 Q1346.11 1475.44 1346.11 1468.33 Q1346.11 1461.2 1344.29 1457.66 Q1342.48 1454.1 1338.85 1454.1 M1338.85 1450.39 Q1344.66 1450.39 1347.71 1455 Q1350.79 1459.58 1350.79 1468.33 Q1350.79 1477.06 1347.71 1481.67 Q1344.66 1486.25 1338.85 1486.25 Q1333.04 1486.25 1329.96 1481.67 Q1326.9 1477.06 1326.9 1468.33 Q1326.9 1459.58 1329.96 1455 Q1333.04 1450.39 1338.85 1450.39 Z" fill="#000000" fill-rule="nonzero" fill-opacity="1" /><path clip-path="url(#clip770)" d="M1759.99 1454.1 Q1756.38 1454.1 1754.55 1457.66 Q1752.75 1461.2 1752.75 1468.33 Q1752.75 1475.44 1754.55 1479.01 Q1756.38 1482.55 1759.99 1482.55 Q1763.63 1482.55 1765.43 1479.01 Q1767.26 1475.44 1767.26 1468.33 Q1767.26 1461.2 1765.43 1457.66 Q1763.63 1454.1 1759.99 1454.1 M1759.99 1450.39 Q1765.8 1450.39 1768.86 1455 Q1771.94 1459.58 1771.94 1468.33 Q1771.94 1477.06 1768.86 1481.67 Q1765.8 1486.25 1759.99 1486.25 Q1754.18 1486.25 1751.1 1481.67 Q1748.05 1477.06 1748.05 1468.33 Q1748.05 1459.58 1751.1 1455 Q1754.18 1450.39 1759.99 1450.39 Z" fill="#000000" fill-rule="nonzero" fill-opacity="1" /><path clip-path="url(#clip770)" d="M1780.15 1479.7 L1785.04 1479.7 L1785.04 1485.58 L1780.15 1485.58 L1780.15 1479.7 Z" fill="#000000" fill-rule="nonzero" fill-opacity="1" /><path clip-path="url(#clip770)" d="M1794.04 1451.02 L1816.26 1451.02 L1816.26 1453.01 L1803.72 1485.58 L1798.83 1485.58 L1810.64 1454.96 L1794.04 1454.96 L1794.04 1451.02 Z" fill="#000000" fill-rule="nonzero" fill-opacity="1" /><path clip-path="url(#clip770)" d="M1825.43 1451.02 L1843.79 1451.02 L1843.79 1454.96 L1829.71 1454.96 L1829.71 1463.43 Q1830.73 1463.08 1831.75 1462.92 Q1832.77 1462.73 1833.79 1462.73 Q1839.57 1462.73 1842.95 1465.9 Q1846.33 1469.08 1846.33 1474.49 Q1846.33 1480.07 1842.86 1483.17 Q1839.39 1486.25 1833.07 1486.25 Q1830.89 1486.25 1828.62 1485.88 Q1826.38 1485.51 1823.97 1484.77 L1823.97 1480.07 Q1826.06 1481.2 1828.28 1481.76 Q1830.5 1482.32 1832.98 1482.32 Q1836.98 1482.32 1839.32 1480.21 Q1841.66 1478.1 1841.66 1474.49 Q1841.66 1470.88 1839.32 1468.77 Q1836.98 1466.67 1832.98 1466.67 Q1831.1 1466.67 1829.23 1467.08 Q1827.38 1467.5 1825.43 1468.38 L1825.43 1451.02 Z" fill="#000000" fill-rule="nonzero" fill-opacity="1" /><path clip-path="url(#clip770)" d="M2245.3 1481.64 L2252.94 1481.64 L2252.94 1455.28 L2244.63 1456.95 L2244.63 1452.69 L2252.9 1451.02 L2257.57 1451.02 L2257.57 1481.64 L2265.21 1481.64 L2265.21 1485.58 L2245.3 1485.58 L2245.3 1481.64 Z" fill="#000000" fill-rule="nonzero" fill-opacity="1" /><path clip-path="url(#clip770)" d="M2274.65 1479.7 L2279.54 1479.7 L2279.54 1485.58 L2274.65 1485.58 L2274.65 1479.7 Z" fill="#000000" fill-rule="nonzero" fill-opacity="1" /><path clip-path="url(#clip770)" d="M2299.72 1454.1 Q2296.11 1454.1 2294.28 1457.66 Q2292.48 1461.2 2292.48 1468.33 Q2292.48 1475.44 2294.28 1479.01 Q2296.11 1482.55 2299.72 1482.55 Q2303.36 1482.55 2305.16 1479.01 Q2306.99 1475.44 2306.99 1468.33 Q2306.99 1461.2 2305.16 1457.66 Q2303.36 1454.1 2299.72 1454.1 M2299.72 1450.39 Q2305.53 1450.39 2308.59 1455 Q2311.67 1459.58 2311.67 1468.33 Q2311.67 1477.06 2308.59 1481.67 Q2305.53 1486.25 2299.72 1486.25 Q2293.91 1486.25 2290.84 1481.67 Q2287.78 1477.06 2287.78 1468.33 Q2287.78 1459.58 2290.84 1455 Q2293.91 1450.39 2299.72 1450.39 Z" fill="#000000" fill-rule="nonzero" fill-opacity="1" /><path clip-path="url(#clip770)" d="M2329.89 1454.1 Q2326.27 1454.1 2324.45 1457.66 Q2322.64 1461.2 2322.64 1468.33 Q2322.64 1475.44 2324.45 1479.01 Q2326.27 1482.55 2329.89 1482.55 Q2333.52 1482.55 2335.33 1479.01 Q2337.15 1475.44 2337.15 1468.33 Q2337.15 1461.2 2335.33 1457.66 Q2333.52 1454.1 2329.89 1454.1 M2329.89 1450.39 Q2335.7 1450.39 2338.75 1455 Q2341.83 1459.58 2341.83 1468.33 Q2341.83 1477.06 2338.75 1481.67 Q2335.7 1486.25 2329.89 1486.25 Q2324.08 1486.25 2321 1481.67 Q2317.94 1477.06 2317.94 1468.33 Q2317.94 1459.58 2321 1455 Q2324.08 1450.39 2329.89 1450.39 Z" fill="#000000" fill-rule="nonzero" fill-opacity="1" /><path clip-path="url(#clip770)" d="M1317.76 1532.4 L1304.87 1549.74 L1318.43 1568.04 L1311.53 1568.04 L1301.15 1554.04 L1290.77 1568.04 L1283.87 1568.04 L1297.71 1549.39 L1285.04 1532.4 L1291.95 1532.4 L1301.4 1545.1 L1310.86 1532.4 L1317.76 1532.4 Z" fill="#000000" fill-rule="nonzero" fill-opacity="1" /><polyline clip-path="url(#clip772)" style="stroke:#000000; stroke-linecap:round; stroke-linejoin:round; stroke-width:2; stroke-opacity:0.1; fill:none" points="249.542,1386.24 2352.76,1386.24 "/>
<polyline clip-path="url(#clip772)" style="stroke:#000000; stroke-linecap:round; stroke-linejoin:round; stroke-width:2; stroke-opacity:0.1; fill:none" points="249.542,1079.74 2352.76,1079.74 "/>
<polyline clip-path="url(#clip772)" style="stroke:#000000; stroke-linecap:round; stroke-linejoin:round; stroke-width:2; stroke-opacity:0.1; fill:none" points="249.542,773.247 2352.76,773.247 "/>
<polyline clip-path="url(#clip772)" style="stroke:#000000; stroke-linecap:round; stroke-linejoin:round; stroke-width:2; stroke-opacity:0.1; fill:none" points="249.542,466.752 2352.76,466.752 "/>
<polyline clip-path="url(#clip772)" style="stroke:#000000; stroke-linecap:round; stroke-linejoin:round; stroke-width:2; stroke-opacity:0.1; fill:none" points="249.542,160.256 2352.76,160.256 "/>
<polyline clip-path="url(#clip770)" style="stroke:#000000; stroke-linecap:round; stroke-linejoin:round; stroke-width:4; stroke-opacity:1; fill:none" points="249.542,1423.18 249.542,123.472 "/>
<polyline clip-path="url(#clip770)" style="stroke:#000000; stroke-linecap:round; stroke-linejoin:round; stroke-width:4; stroke-opacity:1; fill:none" points="249.542,1386.24 268.44,1386.24 "/>
<polyline clip-path="url(#clip770)" style="stroke:#000000; stroke-linecap:round; stroke-linejoin:round; stroke-width:4; stroke-opacity:1; fill:none" points="249.542,1079.74 268.44,1079.74 "/>
<polyline clip-path="url(#clip770)" style="stroke:#000000; stroke-linecap:round; stroke-linejoin:round; stroke-width:4; stroke-opacity:1; fill:none" points="249.542,773.247 268.44,773.247 "/>
<polyline clip-path="url(#clip770)" style="stroke:#000000; stroke-linecap:round; stroke-linejoin:round; stroke-width:4; stroke-opacity:1; fill:none" points="249.542,466.752 268.44,466.752 "/>
<polyline clip-path="url(#clip770)" style="stroke:#000000; stroke-linecap:round; stroke-linejoin:round; stroke-width:4; stroke-opacity:1; fill:none" points="249.542,160.256 268.44,160.256 "/>
<path clip-path="url(#clip770)" d="M126.205 1372.04 Q122.593 1372.04 120.765 1375.6 Q118.959 1379.14 118.959 1386.27 Q118.959 1393.38 120.765 1396.94 Q122.593 1400.49 126.205 1400.49 Q129.839 1400.49 131.644 1396.94 Q133.473 1393.38 133.473 1386.27 Q133.473 1379.14 131.644 1375.6 Q129.839 1372.04 126.205 1372.04 M126.205 1368.33 Q132.015 1368.33 135.07 1372.94 Q138.149 1377.52 138.149 1386.27 Q138.149 1395 135.07 1399.61 Q132.015 1404.19 126.205 1404.19 Q120.394 1404.19 117.316 1399.61 Q114.26 1395 114.26 1386.27 Q114.26 1377.52 117.316 1372.94 Q120.394 1368.33 126.205 1368.33 Z" fill="#000000" fill-rule="nonzero" fill-opacity="1" /><path clip-path="url(#clip770)" d="M146.366 1397.64 L151.251 1397.64 L151.251 1403.52 L146.366 1403.52 L146.366 1397.64 Z" fill="#000000" fill-rule="nonzero" fill-opacity="1" /><path clip-path="url(#clip770)" d="M171.436 1372.04 Q167.825 1372.04 165.996 1375.6 Q164.19 1379.14 164.19 1386.27 Q164.19 1393.38 165.996 1396.94 Q167.825 1400.49 171.436 1400.49 Q175.07 1400.49 176.876 1396.94 Q178.704 1393.38 178.704 1386.27 Q178.704 1379.14 176.876 1375.6 Q175.07 1372.04 171.436 1372.04 M171.436 1368.33 Q177.246 1368.33 180.301 1372.94 Q183.38 1377.52 183.38 1386.27 Q183.38 1395 180.301 1399.61 Q177.246 1404.19 171.436 1404.19 Q165.626 1404.19 162.547 1399.61 Q159.491 1395 159.491 1386.27 Q159.491 1377.52 162.547 1372.94 Q165.626 1368.33 171.436 1368.33 Z" fill="#000000" fill-rule="nonzero" fill-opacity="1" /><path clip-path="url(#clip770)" d="M201.598 1372.04 Q197.987 1372.04 196.158 1375.6 Q194.352 1379.14 194.352 1386.27 Q194.352 1393.38 196.158 1396.94 Q197.987 1400.49 201.598 1400.49 Q205.232 1400.49 207.037 1396.94 Q208.866 1393.38 208.866 1386.27 Q208.866 1379.14 207.037 1375.6 Q205.232 1372.04 201.598 1372.04 M201.598 1368.33 Q207.408 1368.33 210.463 1372.94 Q213.542 1377.52 213.542 1386.27 Q213.542 1395 210.463 1399.61 Q207.408 1404.19 201.598 1404.19 Q195.787 1404.19 192.709 1399.61 Q189.653 1395 189.653 1386.27 Q189.653 1377.52 192.709 1372.94 Q195.787 1368.33 201.598 1368.33 Z" fill="#000000" fill-rule="nonzero" fill-opacity="1" /><path clip-path="url(#clip770)" d="M127.2 1065.54 Q123.589 1065.54 121.76 1069.11 Q119.955 1072.65 119.955 1079.78 Q119.955 1086.88 121.76 1090.45 Q123.589 1093.99 127.2 1093.99 Q130.834 1093.99 132.64 1090.45 Q134.468 1086.88 134.468 1079.78 Q134.468 1072.65 132.64 1069.11 Q130.834 1065.54 127.2 1065.54 M127.2 1061.84 Q133.01 1061.84 136.066 1066.44 Q139.144 1071.03 139.144 1079.78 Q139.144 1088.5 136.066 1093.11 Q133.01 1097.69 127.2 1097.69 Q121.39 1097.69 118.311 1093.11 Q115.256 1088.5 115.256 1079.78 Q115.256 1071.03 118.311 1066.44 Q121.39 1061.84 127.2 1061.84 Z" fill="#000000" fill-rule="nonzero" fill-opacity="1" /><path clip-path="url(#clip770)" d="M147.362 1091.14 L152.246 1091.14 L152.246 1097.02 L147.362 1097.02 L147.362 1091.14 Z" fill="#000000" fill-rule="nonzero" fill-opacity="1" /><path clip-path="url(#clip770)" d="M166.459 1093.09 L182.778 1093.09 L182.778 1097.02 L160.834 1097.02 L160.834 1093.09 Q163.496 1090.33 168.079 1085.7 Q172.686 1081.05 173.866 1079.71 Q176.112 1077.18 176.991 1075.45 Q177.894 1073.69 177.894 1072 Q177.894 1069.24 175.95 1067.51 Q174.028 1065.77 170.927 1065.77 Q168.727 1065.77 166.274 1066.54 Q163.843 1067.3 161.065 1068.85 L161.065 1064.13 Q163.89 1063 166.343 1062.42 Q168.797 1061.84 170.834 1061.84 Q176.204 1061.84 179.399 1064.52 Q182.593 1067.21 182.593 1071.7 Q182.593 1073.83 181.783 1075.75 Q180.996 1077.65 178.889 1080.24 Q178.311 1080.91 175.209 1084.13 Q172.107 1087.32 166.459 1093.09 Z" fill="#000000" fill-rule="nonzero" fill-opacity="1" /><path clip-path="url(#clip770)" d="M192.639 1062.46 L210.996 1062.46 L210.996 1066.4 L196.922 1066.4 L196.922 1074.87 Q197.94 1074.52 198.959 1074.36 Q199.977 1074.18 200.996 1074.18 Q206.783 1074.18 210.162 1077.35 Q213.542 1080.52 213.542 1085.93 Q213.542 1091.51 210.07 1094.62 Q206.598 1097.69 200.278 1097.69 Q198.102 1097.69 195.834 1097.32 Q193.588 1096.95 191.181 1096.21 L191.181 1091.51 Q193.264 1092.65 195.487 1093.2 Q197.709 1093.76 200.186 1093.76 Q204.19 1093.76 206.528 1091.65 Q208.866 1089.55 208.866 1085.93 Q208.866 1082.32 206.528 1080.22 Q204.19 1078.11 200.186 1078.11 Q198.311 1078.11 196.436 1078.53 Q194.584 1078.94 192.639 1079.82 L192.639 1062.46 Z" fill="#000000" fill-rule="nonzero" fill-opacity="1" /><path clip-path="url(#clip770)" d="M126.205 759.046 Q122.593 759.046 120.765 762.611 Q118.959 766.152 118.959 773.282 Q118.959 780.388 120.765 783.953 Q122.593 787.495 126.205 787.495 Q129.839 787.495 131.644 783.953 Q133.473 780.388 133.473 773.282 Q133.473 766.152 131.644 762.611 Q129.839 759.046 126.205 759.046 M126.205 755.342 Q132.015 755.342 135.07 759.949 Q138.149 764.532 138.149 773.282 Q138.149 782.009 135.07 786.615 Q132.015 791.198 126.205 791.198 Q120.394 791.198 117.316 786.615 Q114.26 782.009 114.26 773.282 Q114.26 764.532 117.316 759.949 Q120.394 755.342 126.205 755.342 Z" fill="#000000" fill-rule="nonzero" fill-opacity="1" /><path clip-path="url(#clip770)" d="M146.366 784.648 L151.251 784.648 L151.251 790.527 L146.366 790.527 L146.366 784.648 Z" fill="#000000" fill-rule="nonzero" fill-opacity="1" /><path clip-path="url(#clip770)" d="M161.482 755.967 L179.839 755.967 L179.839 759.902 L165.765 759.902 L165.765 768.375 Q166.783 768.027 167.802 767.865 Q168.82 767.68 169.839 767.68 Q175.626 767.68 179.005 770.851 Q182.385 774.023 182.385 779.439 Q182.385 785.018 178.913 788.12 Q175.44 791.198 169.121 791.198 Q166.945 791.198 164.677 790.828 Q162.431 790.458 160.024 789.717 L160.024 785.018 Q162.107 786.152 164.329 786.708 Q166.552 787.263 169.028 787.263 Q173.033 787.263 175.371 785.157 Q177.709 783.05 177.709 779.439 Q177.709 775.828 175.371 773.722 Q173.033 771.615 169.028 771.615 Q167.153 771.615 165.278 772.032 Q163.427 772.449 161.482 773.328 L161.482 755.967 Z" fill="#000000" fill-rule="nonzero" fill-opacity="1" /><path clip-path="url(#clip770)" d="M201.598 759.046 Q197.987 759.046 196.158 762.611 Q194.352 766.152 194.352 773.282 Q194.352 780.388 196.158 783.953 Q197.987 787.495 201.598 787.495 Q205.232 787.495 207.037 783.953 Q208.866 780.388 208.866 773.282 Q208.866 766.152 207.037 762.611 Q205.232 759.046 201.598 759.046 M201.598 755.342 Q207.408 755.342 210.463 759.949 Q213.542 764.532 213.542 773.282 Q213.542 782.009 210.463 786.615 Q207.408 791.198 201.598 791.198 Q195.787 791.198 192.709 786.615 Q189.653 782.009 189.653 773.282 Q189.653 764.532 192.709 759.949 Q195.787 755.342 201.598 755.342 Z" fill="#000000" fill-rule="nonzero" fill-opacity="1" /><path clip-path="url(#clip770)" d="M127.2 452.55 Q123.589 452.55 121.76 456.115 Q119.955 459.657 119.955 466.786 Q119.955 473.893 121.76 477.458 Q123.589 480.999 127.2 480.999 Q130.834 480.999 132.64 477.458 Q134.468 473.893 134.468 466.786 Q134.468 459.657 132.64 456.115 Q130.834 452.55 127.2 452.55 M127.2 448.847 Q133.01 448.847 136.066 453.453 Q139.144 458.037 139.144 466.786 Q139.144 475.513 136.066 480.12 Q133.01 484.703 127.2 484.703 Q121.39 484.703 118.311 480.12 Q115.256 475.513 115.256 466.786 Q115.256 458.037 118.311 453.453 Q121.39 448.847 127.2 448.847 Z" fill="#000000" fill-rule="nonzero" fill-opacity="1" /><path clip-path="url(#clip770)" d="M147.362 478.152 L152.246 478.152 L152.246 484.032 L147.362 484.032 L147.362 478.152 Z" fill="#000000" fill-rule="nonzero" fill-opacity="1" /><path clip-path="url(#clip770)" d="M161.251 449.472 L183.473 449.472 L183.473 451.462 L170.927 484.032 L166.042 484.032 L177.848 453.407 L161.251 453.407 L161.251 449.472 Z" fill="#000000" fill-rule="nonzero" fill-opacity="1" /><path clip-path="url(#clip770)" d="M192.639 449.472 L210.996 449.472 L210.996 453.407 L196.922 453.407 L196.922 461.879 Q197.94 461.532 198.959 461.37 Q199.977 461.185 200.996 461.185 Q206.783 461.185 210.162 464.356 Q213.542 467.527 213.542 472.944 Q213.542 478.523 210.07 481.624 Q206.598 484.703 200.278 484.703 Q198.102 484.703 195.834 484.333 Q193.588 483.962 191.181 483.222 L191.181 478.523 Q193.264 479.657 195.487 480.212 Q197.709 480.768 200.186 480.768 Q204.19 480.768 206.528 478.661 Q208.866 476.555 208.866 472.944 Q208.866 469.333 206.528 467.226 Q204.19 465.12 200.186 465.12 Q198.311 465.12 196.436 465.536 Q194.584 465.953 192.639 466.833 L192.639 449.472 Z" fill="#000000" fill-rule="nonzero" fill-opacity="1" /><path clip-path="url(#clip770)" d="M117.015 173.601 L124.654 173.601 L124.654 147.236 L116.343 148.902 L116.343 144.643 L124.607 142.976 L129.283 142.976 L129.283 173.601 L136.922 173.601 L136.922 177.536 L117.015 177.536 L117.015 173.601 Z" fill="#000000" fill-rule="nonzero" fill-opacity="1" /><path clip-path="url(#clip770)" d="M146.366 171.657 L151.251 171.657 L151.251 177.536 L146.366 177.536 L146.366 171.657 Z" fill="#000000" fill-rule="nonzero" fill-opacity="1" /><path clip-path="url(#clip770)" d="M171.436 146.055 Q167.825 146.055 165.996 149.62 Q164.19 153.161 164.19 160.291 Q164.19 167.397 165.996 170.962 Q167.825 174.504 171.436 174.504 Q175.07 174.504 176.876 170.962 Q178.704 167.397 178.704 160.291 Q178.704 153.161 176.876 149.62 Q175.07 146.055 171.436 146.055 M171.436 142.351 Q177.246 142.351 180.301 146.958 Q183.38 151.541 183.38 160.291 Q183.38 169.018 180.301 173.624 Q177.246 178.208 171.436 178.208 Q165.626 178.208 162.547 173.624 Q159.491 169.018 159.491 160.291 Q159.491 151.541 162.547 146.958 Q165.626 142.351 171.436 142.351 Z" fill="#000000" fill-rule="nonzero" fill-opacity="1" /><path clip-path="url(#clip770)" d="M201.598 146.055 Q197.987 146.055 196.158 149.62 Q194.352 153.161 194.352 160.291 Q194.352 167.397 196.158 170.962 Q197.987 174.504 201.598 174.504 Q205.232 174.504 207.037 170.962 Q208.866 167.397 208.866 160.291 Q208.866 153.161 207.037 149.62 Q205.232 146.055 201.598 146.055 M201.598 142.351 Q207.408 142.351 210.463 146.958 Q213.542 151.541 213.542 160.291 Q213.542 169.018 210.463 173.624 Q207.408 178.208 201.598 178.208 Q195.787 178.208 192.709 173.624 Q189.653 169.018 189.653 160.291 Q189.653 151.541 192.709 146.958 Q195.787 142.351 201.598 142.351 Z" fill="#000000" fill-rule="nonzero" fill-opacity="1" /><path clip-path="url(#clip770)" d="M67.3143 771.639 Q73.68 774.122 75.6216 776.477 Q77.5631 778.832 77.5631 782.779 L77.5631 787.458 L72.6615 787.458 L72.6615 784.02 Q72.6615 781.601 71.5157 780.265 Q70.3699 778.928 66.1048 777.305 L63.4312 776.254 L28.3562 790.673 L28.3562 784.466 L56.238 773.326 L28.3562 762.186 L28.3562 755.979 L67.3143 771.639 Z" fill="#000000" fill-rule="nonzero" fill-opacity="1" /><path clip-path="url(#clip770)" d="M667.871 18.8205 L667.871 41.5461 L678.16 41.5461 Q683.872 41.5461 686.991 38.5889 Q690.111 35.6318 690.111 30.163 Q690.111 24.7348 686.991 21.7777 Q683.872 18.8205 678.16 18.8205 L667.871 18.8205 M659.688 12.096 L678.16 12.096 Q688.328 12.096 693.513 16.714 Q698.739 21.2916 698.739 30.163 Q698.739 39.1155 693.513 43.6931 Q688.328 48.2706 678.16 48.2706 L667.871 48.2706 L667.871 72.576 L659.688 72.576 L659.688 12.096 Z" fill="#000000" fill-rule="nonzero" fill-opacity="1" /><path clip-path="url(#clip770)" d="M726.285 49.7694 Q717.252 49.7694 713.768 51.8354 Q710.284 53.9013 710.284 58.8839 Q710.284 62.8538 712.877 65.2034 Q715.51 67.5124 720.006 67.5124 Q726.204 67.5124 729.931 63.1374 Q733.698 58.7219 733.698 51.4303 L733.698 49.7694 L726.285 49.7694 M741.152 46.6907 L741.152 72.576 L733.698 72.576 L733.698 65.6895 Q731.146 69.8214 727.338 71.8063 Q723.531 73.7508 718.021 73.7508 Q711.054 73.7508 706.922 69.8619 Q702.83 65.9325 702.83 59.3701 Q702.83 51.7138 707.935 47.825 Q713.079 43.9361 723.247 43.9361 L733.698 43.9361 L733.698 43.2069 Q733.698 38.0623 730.296 35.2672 Q726.933 32.4315 720.816 32.4315 Q716.928 32.4315 713.241 33.3632 Q709.555 34.295 706.152 36.1584 L706.152 29.2718 Q710.244 27.692 714.092 26.9223 Q717.94 26.1121 721.586 26.1121 Q731.43 26.1121 736.291 31.2163 Q741.152 36.3204 741.152 46.6907 Z" fill="#000000" fill-rule="nonzero" fill-opacity="1" /><path clip-path="url(#clip770)" d="M782.795 34.1734 Q781.539 33.4443 780.041 33.1202 Q778.582 32.7556 776.8 32.7556 Q770.481 32.7556 767.078 36.8875 Q763.716 40.9789 763.716 48.6757 L763.716 72.576 L756.221 72.576 L756.221 27.2059 L763.716 27.2059 L763.716 34.2544 Q766.065 30.1225 769.832 28.1376 Q773.6 26.1121 778.987 26.1121 Q779.757 26.1121 780.689 26.2337 Q781.621 26.3147 782.755 26.5172 L782.795 34.1734 Z" fill="#000000" fill-rule="nonzero" fill-opacity="1" /><path clip-path="url(#clip770)" d="M811.233 49.7694 Q802.199 49.7694 798.715 51.8354 Q795.232 53.9013 795.232 58.8839 Q795.232 62.8538 797.824 65.2034 Q800.457 67.5124 804.954 67.5124 Q811.152 67.5124 814.878 63.1374 Q818.646 58.7219 818.646 51.4303 L818.646 49.7694 L811.233 49.7694 M826.099 46.6907 L826.099 72.576 L818.646 72.576 L818.646 65.6895 Q816.094 69.8214 812.286 71.8063 Q808.478 73.7508 802.969 73.7508 Q796.001 73.7508 791.869 69.8619 Q787.778 65.9325 787.778 59.3701 Q787.778 51.7138 792.882 47.825 Q798.027 43.9361 808.194 43.9361 L818.646 43.9361 L818.646 43.2069 Q818.646 38.0623 815.243 35.2672 Q811.881 32.4315 805.764 32.4315 Q801.875 32.4315 798.189 33.3632 Q794.502 34.295 791.1 36.1584 L791.1 29.2718 Q795.191 27.692 799.039 26.9223 Q802.888 26.1121 806.534 26.1121 Q816.377 26.1121 821.238 31.2163 Q826.099 36.3204 826.099 46.6907 Z" fill="#000000" fill-rule="nonzero" fill-opacity="1" /><path clip-path="url(#clip770)" d="M874.022 49.9314 Q874.022 41.7081 870.619 37.0496 Q867.257 32.3505 861.342 32.3505 Q855.428 32.3505 852.025 37.0496 Q848.663 41.7081 848.663 49.9314 Q848.663 58.1548 852.025 62.8538 Q855.428 67.5124 861.342 67.5124 Q867.257 67.5124 870.619 62.8538 Q874.022 58.1548 874.022 49.9314 M848.663 34.0924 Q851.012 30.0415 854.577 28.0971 Q858.183 26.1121 863.165 26.1121 Q871.429 26.1121 876.574 32.6746 Q881.759 39.2371 881.759 49.9314 Q881.759 60.6258 876.574 67.1883 Q871.429 73.7508 863.165 73.7508 Q858.183 73.7508 854.577 71.8063 Q851.012 69.8214 848.663 65.7705 L848.663 72.576 L841.169 72.576 L841.169 9.54393 L848.663 9.54393 L848.663 34.0924 Z" fill="#000000" fill-rule="nonzero" fill-opacity="1" /><path clip-path="url(#clip770)" d="M911.695 32.4315 Q905.7 32.4315 902.216 37.1306 Q898.732 41.7891 898.732 49.9314 Q898.732 58.0738 902.175 62.7728 Q905.659 67.4314 911.695 67.4314 Q917.65 67.4314 921.134 62.7323 Q924.617 58.0333 924.617 49.9314 Q924.617 41.8701 921.134 37.1711 Q917.65 32.4315 911.695 32.4315 M911.695 26.1121 Q921.417 26.1121 926.967 32.4315 Q932.517 38.7509 932.517 49.9314 Q932.517 61.0714 926.967 67.4314 Q921.417 73.7508 911.695 73.7508 Q901.932 73.7508 896.383 67.4314 Q890.873 61.0714 890.873 49.9314 Q890.873 38.7509 896.383 32.4315 Q901.932 26.1121 911.695 26.1121 Z" fill="#000000" fill-rule="nonzero" fill-opacity="1" /><path clip-path="url(#clip770)" d="M944.872 9.54393 L952.326 9.54393 L952.326 72.576 L944.872 72.576 L944.872 9.54393 Z" fill="#000000" fill-rule="nonzero" fill-opacity="1" /><path clip-path="url(#clip770)" d="M1006.73 48.0275 L1006.73 51.6733 L972.459 51.6733 Q972.945 59.3701 977.077 63.421 Q981.249 67.4314 988.662 67.4314 Q992.956 67.4314 996.967 66.3781 Q1001.02 65.3249 1004.99 63.2184 L1004.99 70.267 Q1000.98 71.9684 996.764 72.8596 Q992.551 73.7508 988.217 73.7508 Q977.36 73.7508 971 67.4314 Q964.681 61.1119 964.681 50.3365 Q964.681 39.1965 970.676 32.6746 Q976.712 26.1121 986.92 26.1121 Q996.075 26.1121 1001.38 32.0264 Q1006.73 37.9003 1006.73 48.0275 M999.276 45.84 Q999.195 39.7232 995.832 36.0774 Q992.511 32.4315 987.001 32.4315 Q980.763 32.4315 976.996 35.9558 Q973.269 39.4801 972.702 45.8805 L999.276 45.84 Z" fill="#000000" fill-rule="nonzero" fill-opacity="1" /><path clip-path="url(#clip770)" d="M1045.25 34.1734 Q1044 33.4443 1042.5 33.1202 Q1041.04 32.7556 1039.26 32.7556 Q1032.94 32.7556 1029.54 36.8875 Q1026.17 40.9789 1026.17 48.6757 L1026.17 72.576 L1018.68 72.576 L1018.68 27.2059 L1026.17 27.2059 L1026.17 34.2544 Q1028.52 30.1225 1032.29 28.1376 Q1036.06 26.1121 1041.45 26.1121 Q1042.22 26.1121 1043.15 26.2337 Q1044.08 26.3147 1045.21 26.5172 L1045.25 34.1734 Z" fill="#000000" fill-rule="nonzero" fill-opacity="1" /><path clip-path="url(#clip770)" d="M1102.41 9.54393 L1102.41 15.7418 L1095.28 15.7418 Q1091.27 15.7418 1089.69 17.3622 Q1088.15 18.9825 1088.15 23.1955 L1088.15 27.2059 L1100.43 27.2059 L1100.43 32.9987 L1088.15 32.9987 L1088.15 72.576 L1080.66 72.576 L1080.66 32.9987 L1073.53 32.9987 L1073.53 27.2059 L1080.66 27.2059 L1080.66 24.0462 Q1080.66 16.471 1084.18 13.0277 Q1087.71 9.54393 1095.36 9.54393 L1102.41 9.54393 Z" fill="#000000" fill-rule="nonzero" fill-opacity="1" /><path clip-path="url(#clip770)" d="M1126.23 32.4315 Q1120.24 32.4315 1116.75 37.1306 Q1113.27 41.7891 1113.27 49.9314 Q1113.27 58.0738 1116.71 62.7728 Q1120.2 67.4314 1126.23 67.4314 Q1132.19 67.4314 1135.67 62.7323 Q1139.15 58.0333 1139.15 49.9314 Q1139.15 41.8701 1135.67 37.1711 Q1132.19 32.4315 1126.23 32.4315 M1126.23 26.1121 Q1135.95 26.1121 1141.5 32.4315 Q1147.05 38.7509 1147.05 49.9314 Q1147.05 61.0714 1141.5 67.4314 Q1135.95 73.7508 1126.23 73.7508 Q1116.47 73.7508 1110.92 67.4314 Q1105.41 61.0714 1105.41 49.9314 Q1105.41 38.7509 1110.92 32.4315 Q1116.47 26.1121 1126.23 26.1121 Z" fill="#000000" fill-rule="nonzero" fill-opacity="1" /><path clip-path="url(#clip770)" d="M1185.7 34.1734 Q1184.44 33.4443 1182.94 33.1202 Q1181.49 32.7556 1179.7 32.7556 Q1173.38 32.7556 1169.98 36.8875 Q1166.62 40.9789 1166.62 48.6757 L1166.62 72.576 L1159.12 72.576 L1159.12 27.2059 L1166.62 27.2059 L1166.62 34.2544 Q1168.97 30.1225 1172.74 28.1376 Q1176.5 26.1121 1181.89 26.1121 Q1182.66 26.1121 1183.59 26.2337 Q1184.52 26.3147 1185.66 26.5172 L1185.7 34.1734 Z" fill="#000000" fill-rule="nonzero" fill-opacity="1" /><path clip-path="url(#clip770)" d="M1256.47 14.0809 L1256.47 22.0612 Q1251.81 19.8332 1247.68 18.7395 Q1243.55 17.6457 1239.7 17.6457 Q1233.01 17.6457 1229.37 20.2383 Q1225.76 22.8309 1225.76 27.611 Q1225.76 31.6214 1228.15 33.6873 Q1230.58 35.7128 1237.31 36.9686 L1242.25 37.9813 Q1251.4 39.7232 1255.74 44.1387 Q1260.11 48.5136 1260.11 55.8863 Q1260.11 64.6767 1254.2 69.2137 Q1248.33 73.7508 1236.94 73.7508 Q1232.65 73.7508 1227.79 72.7785 Q1222.97 71.8063 1217.78 69.9024 L1217.78 61.4765 Q1222.76 64.2716 1227.54 65.6895 Q1232.32 67.1073 1236.94 67.1073 Q1243.95 67.1073 1247.76 64.3527 Q1251.57 61.598 1251.57 56.4939 Q1251.57 52.0379 1248.81 49.5264 Q1246.1 47.0148 1239.86 45.759 L1234.88 44.7868 Q1225.72 42.9639 1221.63 39.075 Q1217.54 35.1862 1217.54 28.2591 Q1217.54 20.2383 1223.17 15.6203 Q1228.84 11.0023 1238.77 11.0023 Q1243.02 11.0023 1247.43 11.7719 Q1251.85 12.5416 1256.47 14.0809 Z" fill="#000000" fill-rule="nonzero" fill-opacity="1" /><path clip-path="url(#clip770)" d="M1272.55 27.2059 L1280 27.2059 L1280 72.576 L1272.55 72.576 L1272.55 27.2059 M1272.55 9.54393 L1280 9.54393 L1280 18.9825 L1272.55 18.9825 L1272.55 9.54393 Z" fill="#000000" fill-rule="nonzero" fill-opacity="1" /><path clip-path="url(#clip770)" d="M1330.92 35.9153 Q1333.72 30.8922 1337.61 28.5022 Q1341.5 26.1121 1346.76 26.1121 Q1353.85 26.1121 1357.7 31.0947 Q1361.55 36.0368 1361.55 45.1919 L1361.55 72.576 L1354.05 72.576 L1354.05 45.4349 Q1354.05 38.913 1351.74 35.7533 Q1349.44 32.5936 1344.7 32.5936 Q1338.9 32.5936 1335.54 36.4419 Q1332.18 40.2903 1332.18 46.9338 L1332.18 72.576 L1324.68 72.576 L1324.68 45.4349 Q1324.68 38.8725 1322.38 35.7533 Q1320.07 32.5936 1315.25 32.5936 Q1309.53 32.5936 1306.17 36.4824 Q1302.81 40.3308 1302.81 46.9338 L1302.81 72.576 L1295.32 72.576 L1295.32 27.2059 L1302.81 27.2059 L1302.81 34.2544 Q1305.36 30.082 1308.93 28.0971 Q1312.49 26.1121 1317.39 26.1121 Q1322.34 26.1121 1325.78 28.6237 Q1329.26 31.1352 1330.92 35.9153 Z" fill="#000000" fill-rule="nonzero" fill-opacity="1" /><path clip-path="url(#clip770)" d="M1383.63 65.7705 L1383.63 89.8329 L1376.13 89.8329 L1376.13 27.2059 L1383.63 27.2059 L1383.63 34.0924 Q1385.97 30.0415 1389.54 28.0971 Q1393.15 26.1121 1398.13 26.1121 Q1406.39 26.1121 1411.54 32.6746 Q1416.72 39.2371 1416.72 49.9314 Q1416.72 60.6258 1411.54 67.1883 Q1406.39 73.7508 1398.13 73.7508 Q1393.15 73.7508 1389.54 71.8063 Q1385.97 69.8214 1383.63 65.7705 M1408.98 49.9314 Q1408.98 41.7081 1405.58 37.0496 Q1402.22 32.3505 1396.3 32.3505 Q1390.39 32.3505 1386.99 37.0496 Q1383.63 41.7081 1383.63 49.9314 Q1383.63 58.1548 1386.99 62.8538 Q1390.39 67.5124 1396.3 67.5124 Q1402.22 67.5124 1405.58 62.8538 Q1408.98 58.1548 1408.98 49.9314 Z" fill="#000000" fill-rule="nonzero" fill-opacity="1" /><path clip-path="url(#clip770)" d="M1458 28.5427 L1458 35.5912 Q1454.84 33.9709 1451.44 33.1607 Q1448.03 32.3505 1444.39 32.3505 Q1438.84 32.3505 1436.04 34.0519 Q1433.29 35.7533 1433.29 39.156 Q1433.29 41.7486 1435.27 43.2475 Q1437.26 44.7058 1443.25 46.0426 L1445.81 46.6097 Q1453.75 48.3111 1457.07 51.4303 Q1460.43 54.509 1460.43 60.0587 Q1460.43 66.3781 1455.41 70.0644 Q1450.42 73.7508 1441.67 73.7508 Q1438.03 73.7508 1434.06 73.0216 Q1430.13 72.3329 1425.75 70.9151 L1425.75 63.2184 Q1429.89 65.3654 1433.9 66.4591 Q1437.91 67.5124 1441.84 67.5124 Q1447.1 67.5124 1449.94 65.73 Q1452.77 63.9071 1452.77 60.6258 Q1452.77 57.5877 1450.71 55.9673 Q1448.68 54.3469 1441.76 52.8481 L1439.16 52.2405 Q1432.24 50.7821 1429.16 47.7845 Q1426.08 44.7463 1426.08 39.4801 Q1426.08 33.0797 1430.62 29.5959 Q1435.15 26.1121 1443.5 26.1121 Q1447.63 26.1121 1451.28 26.7198 Q1454.92 27.3274 1458 28.5427 Z" fill="#000000" fill-rule="nonzero" fill-opacity="1" /><path clip-path="url(#clip770)" d="M1489.88 32.4315 Q1483.89 32.4315 1480.4 37.1306 Q1476.92 41.7891 1476.92 49.9314 Q1476.92 58.0738 1480.36 62.7728 Q1483.84 67.4314 1489.88 67.4314 Q1495.84 67.4314 1499.32 62.7323 Q1502.8 58.0333 1502.8 49.9314 Q1502.8 41.8701 1499.32 37.1711 Q1495.84 32.4315 1489.88 32.4315 M1489.88 26.1121 Q1499.6 26.1121 1505.15 32.4315 Q1510.7 38.7509 1510.7 49.9314 Q1510.7 61.0714 1505.15 67.4314 Q1499.6 73.7508 1489.88 73.7508 Q1480.12 73.7508 1474.57 67.4314 Q1469.06 61.0714 1469.06 49.9314 Q1469.06 38.7509 1474.57 32.4315 Q1480.12 26.1121 1489.88 26.1121 Z" fill="#000000" fill-rule="nonzero" fill-opacity="1" /><path clip-path="url(#clip770)" d="M1560.77 45.1919 L1560.77 72.576 L1553.32 72.576 L1553.32 45.4349 Q1553.32 38.994 1550.81 35.7938 Q1548.29 32.5936 1543.27 32.5936 Q1537.24 32.5936 1533.75 36.4419 Q1530.27 40.2903 1530.27 46.9338 L1530.27 72.576 L1522.77 72.576 L1522.77 27.2059 L1530.27 27.2059 L1530.27 34.2544 Q1532.94 30.163 1536.55 28.1376 Q1540.19 26.1121 1544.93 26.1121 Q1552.75 26.1121 1556.76 30.9732 Q1560.77 35.7938 1560.77 45.1919 Z" fill="#000000" fill-rule="nonzero" fill-opacity="1" /><path clip-path="url(#clip770)" d="M1604.56 28.5427 L1604.56 35.5912 Q1601.4 33.9709 1598 33.1607 Q1594.6 32.3505 1590.95 32.3505 Q1585.4 32.3505 1582.61 34.0519 Q1579.85 35.7533 1579.85 39.156 Q1579.85 41.7486 1581.84 43.2475 Q1583.82 44.7058 1589.82 46.0426 L1592.37 46.6097 Q1600.31 48.3111 1603.63 51.4303 Q1606.99 54.509 1606.99 60.0587 Q1606.99 66.3781 1601.97 70.0644 Q1596.99 73.7508 1588.24 73.7508 Q1584.59 73.7508 1580.62 73.0216 Q1576.69 72.3329 1572.32 70.9151 L1572.32 63.2184 Q1576.45 65.3654 1580.46 66.4591 Q1584.47 67.5124 1588.4 67.5124 Q1593.66 67.5124 1596.5 65.73 Q1599.34 63.9071 1599.34 60.6258 Q1599.34 57.5877 1597.27 55.9673 Q1595.24 54.3469 1588.32 52.8481 L1585.72 52.2405 Q1578.8 50.7821 1575.72 47.7845 Q1572.64 44.7463 1572.64 39.4801 Q1572.64 33.0797 1577.18 29.5959 Q1581.71 26.1121 1590.06 26.1121 Q1594.19 26.1121 1597.84 26.7198 Q1601.48 27.3274 1604.56 28.5427 Z" fill="#000000" fill-rule="nonzero" fill-opacity="1" /><path clip-path="url(#clip770)" d="M1645.56 12.096 L1657.75 12.096 L1673.18 53.2532 L1688.7 12.096 L1700.89 12.096 L1700.89 72.576 L1692.91 72.576 L1692.91 19.4686 L1677.32 60.9499 L1669.09 60.9499 L1653.5 19.4686 L1653.5 72.576 L1645.56 72.576 L1645.56 12.096 Z" fill="#000000" fill-rule="nonzero" fill-opacity="1" /><path clip-path="url(#clip770)" d="M1755.62 48.0275 L1755.62 51.6733 L1721.35 51.6733 Q1721.84 59.3701 1725.97 63.421 Q1730.14 67.4314 1737.55 67.4314 Q1741.85 67.4314 1745.86 66.3781 Q1749.91 65.3249 1753.88 63.2184 L1753.88 70.267 Q1749.87 71.9684 1745.65 72.8596 Q1741.44 73.7508 1737.11 73.7508 Q1726.25 73.7508 1719.89 67.4314 Q1713.57 61.1119 1713.57 50.3365 Q1713.57 39.1965 1719.57 32.6746 Q1725.6 26.1121 1735.81 26.1121 Q1744.97 26.1121 1750.27 32.0264 Q1755.62 37.9003 1755.62 48.0275 M1748.17 45.84 Q1748.09 39.7232 1744.72 36.0774 Q1741.4 32.4315 1735.89 32.4315 Q1729.65 32.4315 1725.89 35.9558 Q1722.16 39.4801 1721.59 45.8805 L1748.17 45.84 Z" fill="#000000" fill-rule="nonzero" fill-opacity="1" /><path clip-path="url(#clip770)" d="M1775.23 14.324 L1775.23 27.2059 L1790.58 27.2059 L1790.58 32.9987 L1775.23 32.9987 L1775.23 57.6282 Q1775.23 63.1779 1776.73 64.7578 Q1778.26 66.3376 1782.92 66.3376 L1790.58 66.3376 L1790.58 72.576 L1782.92 72.576 Q1774.29 72.576 1771.01 69.3758 Q1767.73 66.1351 1767.73 57.6282 L1767.73 32.9987 L1762.26 32.9987 L1762.26 27.2059 L1767.73 27.2059 L1767.73 14.324 L1775.23 14.324 Z" fill="#000000" fill-rule="nonzero" fill-opacity="1" /><path clip-path="url(#clip770)" d="M1817.96 32.4315 Q1811.97 32.4315 1808.48 37.1306 Q1805 41.7891 1805 49.9314 Q1805 58.0738 1808.44 62.7728 Q1811.93 67.4314 1817.96 67.4314 Q1823.92 67.4314 1827.4 62.7323 Q1830.89 58.0333 1830.89 49.9314 Q1830.89 41.8701 1827.4 37.1711 Q1823.92 32.4315 1817.96 32.4315 M1817.96 26.1121 Q1827.69 26.1121 1833.24 32.4315 Q1838.78 38.7509 1838.78 49.9314 Q1838.78 61.0714 1833.24 67.4314 Q1827.69 73.7508 1817.96 73.7508 Q1808.2 73.7508 1802.65 67.4314 Q1797.14 61.0714 1797.14 49.9314 Q1797.14 38.7509 1802.65 32.4315 Q1808.2 26.1121 1817.96 26.1121 Z" fill="#000000" fill-rule="nonzero" fill-opacity="1" /><path clip-path="url(#clip770)" d="M1881 34.0924 L1881 9.54393 L1888.45 9.54393 L1888.45 72.576 L1881 72.576 L1881 65.7705 Q1878.65 69.8214 1875.04 71.8063 Q1871.48 73.7508 1866.45 73.7508 Q1858.23 73.7508 1853.04 67.1883 Q1847.9 60.6258 1847.9 49.9314 Q1847.9 39.2371 1853.04 32.6746 Q1858.23 26.1121 1866.45 26.1121 Q1871.48 26.1121 1875.04 28.0971 Q1878.65 30.0415 1881 34.0924 M1855.6 49.9314 Q1855.6 58.1548 1858.96 62.8538 Q1862.36 67.5124 1868.28 67.5124 Q1874.19 67.5124 1877.59 62.8538 Q1881 58.1548 1881 49.9314 Q1881 41.7081 1877.59 37.0496 Q1874.19 32.3505 1868.28 32.3505 Q1862.36 32.3505 1858.96 37.0496 Q1855.6 41.7081 1855.6 49.9314 Z" fill="#000000" fill-rule="nonzero" fill-opacity="1" /><path clip-path="url(#clip770)" d="M1942.61 48.0275 L1942.61 51.6733 L1908.34 51.6733 Q1908.83 59.3701 1912.96 63.421 Q1917.13 67.4314 1924.54 67.4314 Q1928.84 67.4314 1932.85 66.3781 Q1936.9 65.3249 1940.87 63.2184 L1940.87 70.267 Q1936.86 71.9684 1932.64 72.8596 Q1928.43 73.7508 1924.1 73.7508 Q1913.24 73.7508 1906.88 67.4314 Q1900.56 61.1119 1900.56 50.3365 Q1900.56 39.1965 1906.56 32.6746 Q1912.59 26.1121 1922.8 26.1121 Q1931.96 26.1121 1937.26 32.0264 Q1942.61 37.9003 1942.61 48.0275 M1935.16 45.84 Q1935.07 39.7232 1931.71 36.0774 Q1928.39 32.4315 1922.88 32.4315 Q1916.64 32.4315 1912.88 35.9558 Q1909.15 39.4801 1908.58 45.8805 L1935.16 45.84 Z" fill="#000000" fill-rule="nonzero" fill-opacity="1" /><polyline clip-path="url(#clip772)" style="stroke:#009af9; stroke-linecap:round; stroke-linejoin:round; stroke-width:8; stroke-opacity:1; fill:none" points="309.067,1386.24 311.053,1386.24 313.039,1386.24 315.025,1386.24 317.012,1386.24 318.998,1386.24 320.984,1386.24 322.97,1386.24 324.956,1386.24 326.942,1386.24 328.928,1386.24 330.915,1386.24 332.901,1386.24 334.887,1386.24 336.873,1386.24 338.859,1386.24 340.845,1386.24 342.832,1386.24 344.818,1386.24 346.804,1386.24 348.79,1386.24 350.776,1386.24 352.762,1386.24 354.748,1386.24 356.735,1386.24 358.721,1386.24 360.707,1386.24 362.693,1386.24 364.679,1386.24 366.665,1386.24 368.651,1386.24 370.638,1386.24 372.624,1386.24 374.61,1386.24 376.596,1386.24 378.582,1386.24 380.568,1386.24 382.555,1386.24 384.541,1386.24 386.527,1386.24 388.513,1386.23 390.499,1386.23 392.485,1386.23 394.471,1386.23 396.458,1386.23 398.444,1386.23 400.43,1386.23 402.416,1386.23 404.402,1386.23 406.388,1386.23 408.374,1386.23 410.361,1386.23 412.347,1386.23 414.333,1386.23 416.319,1386.23 418.305,1386.23 420.291,1386.23 422.278,1386.23 424.264,1386.22 426.25,1386.22 428.236,1386.22 430.222,1386.22 432.208,1386.22 434.194,1386.22 436.181,1386.22 438.167,1386.22 440.153,1386.21 442.139,1386.21 444.125,1386.21 446.111,1386.21 448.097,1386.21 450.084,1386.21 452.07,1386.2 454.056,1386.2 456.042,1386.2 458.028,1386.2 460.014,1386.2 462.001,1386.19 463.987,1386.19 465.973,1386.19 467.959,1386.19 469.945,1386.19 471.931,1386.18 473.917,1386.18 475.904,1386.18 477.89,1386.17 479.876,1386.17 481.862,1386.17 483.848,1386.16 485.834,1386.16 487.82,1386.16 489.807,1386.15 491.793,1386.15 493.779,1386.15 495.765,1386.14 497.751,1386.14 499.737,1386.13 501.724,1386.13 503.71,1386.12 505.696,1386.12 507.682,1386.11 509.668,1386.11 511.654,1386.1 513.64,1386.1 515.627,1386.09 517.613,1386.09 519.599,1386.08 521.585,1386.08 523.571,1386.07 525.557,1386.06 527.543,1386.06 529.53,1386.05 531.516,1386.04 533.502,1386.04 535.488,1386.03 537.474,1386.02 539.46,1386.02 541.447,1386.01 543.433,1386 545.419,1385.99 547.405,1385.98 549.391,1385.97 551.377,1385.97 553.363,1385.96 555.35,1385.95 557.336,1385.94 559.322,1385.93 561.308,1385.92 563.294,1385.91 565.28,1385.9 567.266,1385.89 569.253,1385.88 571.239,1385.86 573.225,1385.85 575.211,1385.84 577.197,1385.83 579.183,1385.82 581.17,1385.8 583.156,1385.79 585.142,1385.78 587.128,1385.77 589.114,1385.75 591.1,1385.74 593.086,1385.72 595.073,1385.71 597.059,1385.69 599.045,1385.68 601.031,1385.66 603.017,1385.65 605.003,1385.63 606.989,1385.61 608.976,1385.6 610.962,1385.58 612.948,1385.56 614.934,1385.55 616.92,1385.53 618.906,1385.51 620.893,1385.49 622.879,1385.47 624.865,1385.45 626.851,1385.43 628.837,1385.41 630.823,1385.39 632.809,1385.37 634.796,1385.35 636.782,1385.33 638.768,1385.3 640.754,1385.28 642.74,1385.26 644.726,1385.23 646.712,1385.21 648.699,1385.19 650.685,1385.16 652.671,1385.14 654.657,1385.11 656.643,1385.08 658.629,1385.06 660.616,1385.03 662.602,1385 664.588,1384.97 666.574,1384.95 668.56,1384.92 670.546,1384.89 672.532,1384.86 674.519,1384.83 676.505,1384.8 678.491,1384.76 680.477,1384.73 682.463,1384.7 684.449,1384.67 686.435,1384.63 688.422,1384.6 690.408,1384.57 692.394,1384.53 694.38,1384.49 696.366,1384.46 698.352,1384.42 700.339,1384.38 702.325,1384.35 704.311,1384.31 706.297,1384.27 708.283,1384.23 710.269,1384.19 712.255,1384.15 714.242,1384.11 716.228,1384.06 718.214,1384.02 720.2,1383.98 722.186,1383.93 724.172,1383.89 726.158,1383.84 728.145,1383.8 730.131,1383.75 732.117,1383.7 734.103,1383.66 736.089,1383.61 738.075,1383.56 740.062,1383.51 742.048,1383.46 744.034,1383.41 746.02,1383.35 748.006,1383.3 749.992,1383.25 751.978,1383.19 753.965,1383.14 755.951,1383.08 757.937,1383.03 759.923,1382.97 761.909,1382.91 763.895,1382.85 765.881,1382.79 767.868,1382.73 769.854,1382.67 771.84,1382.61 773.826,1382.55 775.812,1382.48 777.798,1382.42 779.785,1382.35 781.771,1382.29 783.757,1382.22 785.743,1382.15 787.729,1382.09 789.715,1382.02 791.701,1381.95 793.688,1381.88 795.674,1381.8 797.66,1381.73 799.646,1381.66 801.632,1381.58 803.618,1381.51 805.604,1381.43 807.591,1381.35 809.577,1381.27 811.563,1381.19 813.549,1381.11 815.535,1381.03 817.521,1380.95 819.508,1380.87 821.494,1380.78 823.48,1380.7 825.466,1380.61 827.452,1380.53 829.438,1380.44 831.424,1380.35 833.411,1380.26 835.397,1380.17 837.383,1380.08 839.369,1379.98 841.355,1379.89 843.341,1379.79 845.328,1379.7 847.314,1379.6 849.3,1379.5 851.286,1379.4 853.272,1379.3 855.258,1379.2 857.244,1379.1 859.231,1378.99 861.217,1378.89 863.203,1378.78 865.189,1378.67 867.175,1378.56 869.161,1378.45 871.147,1378.34 873.134,1378.23 875.12,1378.12 877.106,1378 879.092,1377.89 881.078,1377.77 883.064,1377.65 885.051,1377.53 887.037,1377.41 889.023,1377.29 891.009,1377.17 892.995,1377.04 894.981,1376.92 896.967,1376.79 898.954,1376.66 900.94,1376.53 902.926,1376.4 904.912,1376.27 906.898,1376.13 908.884,1376 910.87,1375.86 912.857,1375.73 914.843,1375.59 916.829,1375.45 918.815,1375.3 920.801,1375.16 922.787,1375.02 924.774,1374.87 926.76,1374.72 928.746,1374.57 930.732,1374.42 932.718,1374.27 934.704,1374.12 936.69,1373.96 938.677,1373.81 940.663,1373.65 942.649,1373.49 944.635,1373.33 946.621,1373.17 948.607,1373.01 950.593,1372.84 952.58,1372.67 954.566,1372.51 956.552,1372.34 958.538,1372.16 960.524,1371.99 962.51,1371.82 964.497,1371.64 966.483,1371.46 968.469,1371.28 970.455,1371.1 972.441,1370.92 974.427,1370.74 976.413,1370.55 978.4,1370.36 980.386,1370.17 982.372,1369.98 984.358,1369.79 986.344,1369.59 988.33,1369.4 990.316,1369.2 992.303,1369 994.289,1368.8 996.275,1368.6 998.261,1368.39 1000.25,1368.19 1002.23,1367.98 1004.22,1367.77 1006.21,1367.55 1008.19,1367.34 1010.18,1367.13 1012.16,1366.91 1014.15,1366.69 1016.14,1366.47 1018.12,1366.24 1020.11,1366.02 1022.09,1365.79 1024.08,1365.56 1026.07,1365.33 1028.05,1365.1 1030.04,1364.87 1032.03,1364.63 1034.01,1364.39 1036,1364.15 1037.98,1363.91 1039.97,1363.66 1041.96,1363.42 1043.94,1363.17 1045.93,1362.92 1047.91,1362.67 1049.9,1362.41 1051.89,1362.16 1053.87,1361.9 1055.86,1361.64 1057.85,1361.37 1059.83,1361.11 1061.82,1360.84 1063.8,1360.57 1065.79,1360.3 1067.78,1360.03 1069.76,1359.75 1071.75,1359.47 1073.73,1359.19 1075.72,1358.91 1077.71,1358.63 1079.69,1358.34 1081.68,1358.05 1083.67,1357.76 1085.65,1357.47 1087.64,1357.17 1089.62,1356.88 1091.61,1356.58 1093.6,1356.27 1095.58,1355.97 1097.57,1355.66 1099.55,1355.35 1101.54,1355.04 1103.53,1354.73 1105.51,1354.41 1107.5,1354.09 1109.49,1353.77 1111.47,1353.45 1113.46,1353.12 1115.44,1352.79 1117.43,1352.46 1119.42,1352.13 1121.4,1351.79 1123.39,1351.46 1125.37,1351.12 1127.36,1350.77 1129.35,1350.43 1131.33,1350.08 1133.32,1349.73 1135.31,1349.37 1137.29,1349.02 1139.28,1348.66 1141.26,1348.3 1143.25,1347.94 1145.24,1347.57 1147.22,1347.2 1149.21,1346.83 1151.19,1346.46 1153.18,1346.08 1155.17,1345.7 1157.15,1345.32 1159.14,1344.93 1161.13,1344.55 1163.11,1344.16 1165.1,1343.76 1167.08,1343.37 1169.07,1342.97 1171.06,1342.57 1173.04,1342.16 1175.03,1341.76 1177.01,1341.35 1179,1340.94 1180.99,1340.52 1182.97,1340.1 1184.96,1339.68 1186.95,1339.26 1188.93,1338.83 1190.92,1338.4 1192.9,1337.97 1194.89,1337.53 1196.88,1337.1 1198.86,1336.65 1200.85,1336.21 1202.83,1335.76 1204.82,1335.31 1206.81,1334.86 1208.79,1334.4 1210.78,1333.94 1212.77,1333.48 1214.75,1333.02 1216.74,1332.55 1218.72,1332.08 1220.71,1331.6 1222.7,1331.13 1224.68,1330.64 1226.67,1330.16 1228.65,1329.67 1230.64,1329.18 1232.63,1328.69 1234.61,1328.19 1236.6,1327.69 1238.59,1327.19 1240.57,1326.68 1242.56,1326.17 1244.54,1325.66 1246.53,1325.15 1248.52,1324.63 1250.5,1324.1 1252.49,1323.58 1254.47,1323.05 1256.46,1322.52 1258.45,1321.98 1260.43,1321.44 1262.42,1320.9 1264.41,1320.35 1266.39,1319.8 1268.38,1319.25 1270.36,1318.69 1272.35,1318.13 1274.34,1317.57 1276.32,1317 1278.31,1316.43 1280.29,1315.86 1282.28,1315.28 1284.27,1314.7 1286.25,1314.11 1288.24,1313.53 1290.23,1312.93 1292.21,1312.34 1294.2,1311.74 1296.18,1311.14 1298.17,1310.53 1300.16,1309.92 1302.14,1309.31 1304.13,1308.69 1306.11,1308.07 1308.1,1307.44 1310.09,1306.82 1312.07,1306.18 1314.06,1305.55 1316.05,1304.91 1318.03,1304.26 1320.02,1303.62 1322,1302.97 1323.99,1302.31 1325.98,1301.65 1327.96,1300.99 1329.95,1300.32 1331.93,1299.65 1333.92,1298.98 1335.91,1298.3 1337.89,1297.62 1339.88,1296.93 1341.87,1296.24 1343.85,1295.55 1345.84,1294.85 1347.82,1294.14 1349.81,1293.44 1351.8,1292.73 1353.78,1292.01 1355.77,1291.29 1357.75,1290.57 1359.74,1289.85 1361.73,1289.11 1363.71,1288.38 1365.7,1287.64 1367.69,1286.9 1369.67,1286.15 1371.66,1285.4 1373.64,1284.64 1375.63,1283.88 1377.62,1283.12 1379.6,1282.35 1381.59,1281.57 1383.57,1280.8 1385.56,1280.01 1387.55,1279.23 1389.53,1278.44 1391.52,1277.64 1393.5,1276.84 1395.49,1276.04 1397.48,1275.23 1399.46,1274.42 1401.45,1273.6 1403.44,1272.78 1405.42,1271.96 1407.41,1271.13 1409.39,1270.29 1411.38,1269.45 1413.37,1268.61 1415.35,1267.76 1417.34,1266.91 1419.32,1266.05 1421.31,1265.19 1423.3,1264.32 1425.28,1263.45 1427.27,1262.57 1429.26,1261.69 1431.24,1260.8 1433.23,1259.91 1435.21,1259.02 1437.2,1258.12 1439.19,1257.21 1441.17,1256.3 1443.16,1255.39 1445.14,1254.47 1447.13,1253.55 1449.12,1252.62 1451.1,1251.69 1453.09,1250.75 1455.08,1249.8 1457.06,1248.85 1459.05,1247.9 1461.03,1246.94 1463.02,1245.98 1465.01,1245.01 1466.99,1244.04 1468.98,1243.06 1470.96,1242.08 1472.95,1241.09 1474.94,1240.1 1476.92,1239.1 1478.91,1238.09 1480.9,1237.09 1482.88,1236.07 1484.87,1235.05 1486.85,1234.03 1488.84,1233 1490.83,1231.97 1492.81,1230.93 1494.8,1229.88 1496.78,1228.83 1498.77,1227.77 1500.76,1226.71 1502.74,1225.65 1504.73,1224.58 1506.72,1223.5 1508.7,1222.42 1510.69,1221.33 1512.67,1220.24 1514.66,1219.14 1516.65,1218.03 1518.63,1216.92 1520.62,1215.81 1522.6,1214.69 1524.59,1213.56 1526.58,1212.43 1528.56,1211.3 1530.55,1210.15 1532.54,1209 1534.52,1207.85 1536.51,1206.69 1538.49,1205.53 1540.48,1204.36 1542.47,1203.18 1544.45,1202 1546.44,1200.81 1548.42,1199.62 1550.41,1198.42 1552.4,1197.21 1554.38,1196 1556.37,1194.79 1558.36,1193.56 1560.34,1192.34 1562.33,1191.1 1564.31,1189.86 1566.3,1188.62 1568.29,1187.36 1570.27,1186.11 1572.26,1184.84 1574.24,1183.57 1576.23,1182.3 1578.22,1181.02 1580.2,1179.73 1582.19,1178.43 1584.18,1177.13 1586.16,1175.83 1588.15,1174.52 1590.13,1173.2 1592.12,1171.87 1594.11,1170.54 1596.09,1169.21 1598.08,1167.86 1600.06,1166.52 1602.05,1165.16 1604.04,1163.8 1606.02,1162.43 1608.01,1161.06 1610,1159.68 1611.98,1158.29 1613.97,1156.9 1615.95,1155.5 1617.94,1154.09 1619.93,1152.68 1621.91,1151.26 1623.9,1149.83 1625.88,1148.4 1627.87,1146.96 1629.86,1145.52 1631.84,1144.07 1633.83,1142.61 1635.82,1141.15 1637.8,1139.68 1639.79,1138.2 1641.77,1136.71 1643.76,1135.22 1645.75,1133.73 1647.73,1132.22 1649.72,1130.71 1651.7,1129.19 1653.69,1127.67 1655.68,1126.14 1657.66,1124.6 1659.65,1123.06 1661.64,1121.5 1663.62,1119.95 1665.61,1118.38 1667.59,1116.81 1669.58,1115.23 1671.57,1113.64 1673.55,1112.05 1675.54,1110.45 1677.52,1108.84 1679.51,1107.23 1681.5,1105.61 1683.48,1103.98 1685.47,1102.34 1687.46,1100.7 1689.44,1099.05 1691.43,1097.4 1693.41,1095.73 1695.4,1094.06 1697.39,1092.38 1699.37,1090.7 1701.36,1089.01 1703.34,1087.31 1705.33,1085.6 1707.32,1083.89 1709.3,1082.16 1711.29,1080.44 1713.28,1078.7 1715.26,1076.96 1717.25,1075.2 1719.23,1073.45 1721.22,1071.68 1723.21,1069.91 1725.19,1068.13 1727.18,1066.34 1729.16,1064.54 1731.15,1062.74 1733.14,1060.93 1735.12,1059.11 1737.11,1057.28 1739.1,1055.45 1741.08,1053.61 1743.07,1051.76 1745.05,1049.9 1747.04,1048.04 1749.03,1046.16 1751.01,1044.28 1753,1042.4 1754.98,1040.5 1756.97,1038.6 1758.96,1036.68 1760.94,1034.77 1762.93,1032.84 1764.92,1030.9 1766.9,1028.96 1768.89,1027.01 1770.87,1025.05 1772.86,1023.08 1774.85,1021.11 1776.83,1019.13 1778.82,1017.13 1780.8,1015.13 1782.79,1013.13 1784.78,1011.11 1786.76,1009.09 1788.75,1007.06 1790.73,1005.02 1792.72,1002.97 1794.71,1000.91 1796.69,998.847 1798.68,996.774 1800.67,994.693 1802.65,992.603 1804.64,990.505 1806.62,988.399 1808.61,986.284 1810.6,984.161 1812.58,982.029 1814.57,979.889 1816.55,977.741 1818.54,975.584 1820.53,973.418 1822.51,971.244 1824.5,969.061 1826.49,966.87 1828.47,964.67 1830.46,962.461 1832.44,960.244 1834.43,958.018 1836.42,955.783 1838.4,953.54 1840.39,951.288 1842.37,949.027 1844.36,946.757 1846.35,944.479 1848.33,942.191 1850.32,939.895 1852.31,937.59 1854.29,935.276 1856.28,932.952 1858.26,930.62 1860.25,928.279 1862.24,925.929 1864.22,923.57 1866.21,921.202 1868.19,918.825 1870.18,916.439 1872.17,914.043 1874.15,911.639 1876.14,909.225 1878.13,906.802 1880.11,904.37 1882.1,901.929 1884.08,899.478 1886.07,897.018 1888.06,894.549 1890.04,892.07 1892.03,889.582 1894.01,887.085 1896,884.578 1897.99,882.062 1899.97,879.537 1901.96,877.002 1903.95,874.457 1905.93,871.903 1907.92,869.339 1909.9,866.766 1911.89,864.183 1913.88,861.591 1915.86,858.989 1917.85,856.377 1919.83,853.755 1921.82,851.124 1923.81,848.483 1925.79,845.833 1927.78,843.172 1929.77,840.502 1931.75,837.822 1933.74,835.132 1935.72,832.432 1937.71,829.722 1939.7,827.003 1941.68,824.273 1943.67,821.533 1945.65,818.784 1947.64,816.024 1949.63,813.254 1951.61,810.475 1953.6,807.685 1955.59,804.885 1957.57,802.075 1959.56,799.254 1961.54,796.424 1963.53,793.583 1965.52,790.732 1967.5,787.871 1969.49,784.999 1971.47,782.117 1973.46,779.225 1975.45,776.322 1977.43,773.409 1979.42,770.486 1981.41,767.552 1983.39,764.608 1985.38,761.653 1987.36,758.687 1989.35,755.711 1991.34,752.725 1993.32,749.728 1995.31,746.72 1997.29,743.702 1999.28,740.673 2001.27,737.633 2003.25,734.582 2005.24,731.521 2007.23,728.449 2009.21,725.366 2011.2,722.273 2013.18,719.168 2015.17,716.053 2017.16,712.927 2019.14,709.79 2021.13,706.642 2023.11,703.483 2025.1,700.312 2027.09,697.131 2029.07,693.939 2031.06,690.736 2033.05,687.522 2035.03,684.296 2037.02,681.06 2039,677.812 2040.99,674.553 2042.98,671.283 2044.96,668.001 2046.95,664.708 2048.93,661.404 2050.92,658.089 2052.91,654.762 2054.89,651.424 2056.88,648.074 2058.87,644.713 2060.85,641.341 2062.84,637.957 2064.82,634.561 2066.81,631.154 2068.8,627.736 2070.78,624.305 2072.77,620.864 2074.75,617.41 2076.74,613.945 2078.73,610.468 2080.71,606.98 2082.7,603.479 2084.69,599.967 2086.67,596.443 2088.66,592.908 2090.64,589.36 2092.63,585.801 2094.62,582.229 2096.6,578.646 2098.59,575.051 2100.57,571.443 2102.56,567.824 2104.55,564.193 2106.53,560.549 2108.52,556.894 2110.51,553.226 2112.49,549.546 2114.48,545.854 2116.46,542.15 2118.45,538.434 2120.44,534.705 2122.42,530.964 2124.41,527.211 2126.39,523.445 2128.38,519.667 2130.37,515.877 2132.35,512.074 2134.34,508.259 2136.33,504.431 2138.31,500.591 2140.3,496.738 2142.28,492.873 2144.27,488.995 2146.26,485.105 2148.24,481.202 2150.23,477.286 2152.21,473.357 2154.2,469.416 2156.19,465.462 2158.17,461.496 2160.16,457.516 2162.15,453.524 2164.13,449.519 2166.12,445.5 2168.1,441.469 2170.09,437.426 2172.08,433.369 2174.06,429.299 2176.05,425.216 2178.03,421.12 2180.02,417.011 2182.01,412.889 2183.99,408.753 2185.98,404.605 2187.97,400.443 2189.95,396.268 2191.94,392.08 2193.92,387.879 2195.91,383.664 2197.9,379.436 2199.88,375.195 2201.87,370.94 2203.85,366.672 2205.84,362.39 2207.83,358.095 2209.81,353.786 2211.8,349.464 2213.78,345.128 2215.77,340.779 2217.76,336.416 2219.74,332.04 2221.73,327.649 2223.72,323.246 2225.7,318.828 2227.69,314.397 2229.67,309.951 2231.66,305.492 2233.65,301.02 2235.63,296.533 2237.62,292.032 2239.6,287.518 2241.59,282.989 2243.58,278.447 2245.56,273.89 2247.55,269.32 2249.54,264.735 2251.52,260.137 2253.51,255.524 2255.49,250.897 2257.48,246.256 2259.47,241.6 2261.45,236.931 2263.44,232.247 2265.42,227.549 2267.41,222.836 2269.4,218.109 2271.38,213.368 2273.37,208.613 2275.36,203.842 2277.34,199.058 2279.33,194.259 2281.31,189.445 2283.3,184.617 2285.29,179.774 2287.27,174.917 2289.26,170.045 2291.24,165.158 2293.23,160.256 "/>
<polyline clip-path="url(#clip772)" style="stroke:#e26f46; stroke-linecap:round; stroke-linejoin:round; stroke-width:4; stroke-opacity:1; fill:none" points="309.067,1386.24 313.075,1386.25 317.084,1386.27 321.092,1386.28 325.101,1386.29 329.109,1386.3 333.117,1386.31 337.126,1386.32 341.134,1386.33 345.143,1386.34 349.151,1386.35 353.159,1386.36 357.168,1386.37 361.176,1386.37 365.185,1386.38 369.193,1386.38 373.202,1386.39 377.21,1386.39 381.218,1386.39 385.227,1386.39 389.235,1386.4 393.244,1386.4 397.252,1386.4 401.26,1386.39 405.269,1386.39 409.277,1386.39 413.286,1386.39 417.294,1386.38 421.302,1386.38 425.311,1386.37 429.319,1386.37 433.328,1386.36 437.336,1386.35 441.345,1386.35 445.353,1386.34 449.361,1386.33 453.37,1386.32 457.378,1386.31 461.387,1386.3 465.395,1386.28 469.403,1386.27 473.412,1386.26 477.42,1386.24 481.429,1386.23 485.437,1386.21 489.446,1386.2 493.454,1386.18 497.462,1386.16 501.471,1386.14 505.479,1386.13 509.488,1386.11 513.496,1386.08 517.504,1386.06 521.513,1386.04 525.521,1386.02 529.53,1386 533.538,1385.97 537.546,1385.95 541.555,1385.92 545.563,1385.9 549.572,1385.87 553.58,1385.84 557.589,1385.81 561.597,1385.78 565.605,1385.75 569.614,1385.72 573.622,1385.69 577.631,1385.66 581.639,1385.63 585.647,1385.6 589.656,1385.56 593.664,1385.53 597.673,1385.49 601.681,1385.46 605.689,1385.42 609.698,1385.38 613.706,1385.34 617.715,1385.31 621.723,1385.27 625.732,1385.23 629.74,1385.19 633.748,1385.14 637.757,1385.1 641.765,1385.06 645.774,1385.01 649.782,1384.97 653.79,1384.93 657.799,1384.88 661.807,1384.83 665.816,1384.79 669.824,1384.74 673.832,1384.69 677.841,1384.64 681.849,1384.59 685.858,1384.54 689.866,1384.49 693.875,1384.44 697.883,1384.38 701.891,1384.33 705.9,1384.28 "/>
<polyline clip-path="url(#clip772)" style="stroke:#3da44d; stroke-linecap:round; stroke-linejoin:round; stroke-width:4; stroke-opacity:1; fill:none" points="705.9,1384.28 709.908,1384.25 713.917,1384.22 717.925,1384.18 721.933,1384.13 725.942,1384.08 729.95,1384.03 733.959,1383.97 737.967,1383.9 741.975,1383.83 745.984,1383.75 749.992,1383.67 754.001,1383.58 758.009,1383.49 762.018,1383.39 766.026,1383.29 770.034,1383.18 774.043,1383.06 778.051,1382.94 782.06,1382.81 786.068,1382.68 790.076,1382.54 794.085,1382.4 798.093,1382.25 802.102,1382.1 806.11,1381.94 810.118,1381.77 814.127,1381.6 818.135,1381.43 822.144,1381.24 826.152,1381.06 830.161,1380.86 834.169,1380.67 838.177,1380.46 842.186,1380.25 846.194,1380.04 850.203,1379.82 854.211,1379.59 858.219,1379.36 862.228,1379.12 866.236,1378.88 870.245,1378.64 874.253,1378.38 878.261,1378.12 882.27,1377.86 886.278,1377.59 890.287,1377.31 894.295,1377.03 898.304,1376.75 902.312,1376.46 906.32,1376.16 910.329,1375.86 914.337,1375.55 918.346,1375.23 922.354,1374.91 926.362,1374.59 930.371,1374.26 934.379,1373.92 938.388,1373.58 942.396,1373.24 946.404,1372.88 950.413,1372.53 954.421,1372.16 958.43,1371.79 962.438,1371.42 966.447,1371.04 970.455,1370.65 974.463,1370.26 978.472,1369.87 982.48,1369.47 986.489,1369.06 990.497,1368.65 994.505,1368.23 998.514,1367.8 1002.52,1367.37 1006.53,1366.94 1010.54,1366.5 1014.55,1366.05 1018.56,1365.6 1022.56,1365.15 1026.57,1364.68 1030.58,1364.21 1034.59,1363.74 1038.6,1363.26 1042.61,1362.78 1046.61,1362.29 1050.62,1361.79 1054.63,1361.29 1058.64,1360.79 1062.65,1360.27 1066.66,1359.76 1070.67,1359.23 1074.67,1358.71 1078.68,1358.17 1082.69,1357.63 1086.7,1357.09 1090.71,1356.54 1094.72,1355.98 1098.72,1355.42 1102.73,1354.85 "/>
<polyline clip-path="url(#clip772)" style="stroke:#c271d2; stroke-linecap:round; stroke-linejoin:round; stroke-width:4; stroke-opacity:1; fill:none" points="1102.73,1354.85 1106.74,1354.31 1110.75,1353.74 1114.76,1353.17 1118.77,1352.57 1122.77,1351.96 1126.78,1351.34 1130.79,1350.7 1134.8,1350.05 1138.81,1349.38 1142.82,1348.7 1146.83,1348 1150.83,1347.29 1154.84,1346.56 1158.85,1345.81 1162.86,1345.05 1166.87,1344.28 1170.88,1343.49 1174.88,1342.69 1178.89,1341.87 1182.9,1341.03 1186.91,1340.18 1190.92,1339.32 1194.93,1338.44 1198.93,1337.54 1202.94,1336.63 1206.95,1335.71 1210.96,1334.77 1214.97,1333.81 1218.98,1332.84 1222.98,1331.86 1226.99,1330.85 1231,1329.84 1235.01,1328.81 1239.02,1327.76 1243.03,1326.7 1247.04,1325.62 1251.04,1324.53 1255.05,1323.43 1259.06,1322.3 1263.07,1321.17 1267.08,1320.02 1271.09,1318.85 1275.09,1317.67 1279.1,1316.47 1283.11,1315.26 1287.12,1314.03 1291.13,1312.79 1295.14,1311.53 1299.14,1310.26 1303.15,1308.97 1307.16,1307.67 1311.17,1306.35 1315.18,1305.01 1319.19,1303.67 1323.2,1302.3 1327.2,1300.92 1331.21,1299.53 1335.22,1298.12 1339.23,1296.7 1343.24,1295.26 1347.25,1293.8 1351.25,1292.33 1355.26,1290.85 1359.27,1289.35 1363.28,1287.84 1367.29,1286.31 1371.3,1284.76 1375.3,1283.2 1379.31,1281.63 1383.32,1280.04 1387.33,1278.43 1391.34,1276.81 1395.35,1275.18 1399.36,1273.53 1403.36,1271.86 1407.37,1270.18 1411.38,1268.48 1415.39,1266.77 1419.4,1265.05 1423.41,1263.3 1427.41,1261.55 1431.42,1259.78 1435.43,1257.99 1439.44,1256.19 1443.45,1254.37 1447.46,1252.54 1451.46,1250.69 1455.47,1248.83 1459.48,1246.95 1463.49,1245.06 1467.5,1243.15 1471.51,1241.23 1475.51,1239.29 1479.52,1237.34 1483.53,1235.37 1487.54,1233.39 1491.55,1231.39 1495.56,1229.38 1499.57,1227.35 "/>
<polyline clip-path="url(#clip772)" style="stroke:#ac8d18; stroke-linecap:round; stroke-linejoin:round; stroke-width:4; stroke-opacity:1; fill:none" points="1499.57,1227.35 1503.57,1225.33 1507.58,1223.28 1511.59,1221.2 1515.6,1219.09 1519.61,1216.95 1523.62,1214.78 1527.62,1212.58 1531.63,1210.36 1535.64,1208.1 1539.65,1205.81 1543.66,1203.5 1547.67,1201.15 1551.67,1198.78 1555.68,1196.37 1559.69,1193.94 1563.7,1191.47 1567.71,1188.98 1571.72,1186.46 1575.73,1183.91 1579.73,1181.32 1583.74,1178.71 1587.75,1176.07 1591.76,1173.4 1595.77,1170.7 1599.78,1167.97 1603.78,1165.21 1607.79,1162.42 1611.8,1159.61 1615.81,1156.76 1619.82,1153.88 1623.83,1150.98 1627.83,1148.04 1631.84,1145.07 1635.85,1142.08 1639.86,1139.05 1643.87,1136 1647.88,1132.92 1651.89,1129.8 1655.89,1126.66 1659.9,1123.49 1663.91,1120.29 1667.92,1117.06 1671.93,1113.79 1675.94,1110.5 1679.94,1107.18 1683.95,1103.84 1687.96,1100.46 1691.97,1097.05 1695.98,1093.61 1699.99,1090.14 1703.99,1086.65 1708,1083.12 1712.01,1079.56 1716.02,1075.98 1720.03,1072.36 1724.04,1068.72 1728.04,1065.04 1732.05,1061.34 1736.06,1057.61 1740.07,1053.84 1744.08,1050.05 1748.09,1046.23 1752.1,1042.38 1756.1,1038.5 1760.11,1034.59 1764.12,1030.65 1768.13,1026.68 1772.14,1022.68 1776.15,1018.65 1780.15,1014.59 1784.16,1010.51 1788.17,1006.39 1792.18,1002.24 1796.19,998.068 1800.2,993.863 1804.2,989.628 1808.21,985.363 1812.22,981.069 1816.23,976.746 1820.24,972.393 1824.25,968.01 1828.26,963.598 1832.26,959.156 1836.27,954.685 1840.28,950.185 1844.29,945.654 1848.3,941.095 1852.31,936.506 1856.31,931.887 1860.32,927.239 1864.33,922.561 1868.34,917.854 1872.35,913.117 1876.36,908.35 1880.36,903.555 1884.37,898.729 1888.38,893.874 1892.39,888.99 1896.4,884.076 "/>
<polyline clip-path="url(#clip772)" style="stroke:#00a9ad; stroke-linecap:round; stroke-linejoin:round; stroke-width:4; stroke-opacity:1; fill:none" points="1896.4,884.076 1900.41,879.153 1904.42,874.181 1908.42,869.16 1912.43,864.09 1916.44,858.972 1920.45,853.805 1924.46,848.589 1928.47,843.325 1932.47,838.011 1936.48,832.649 1940.49,827.239 1944.5,821.779 1948.51,816.271 1952.52,810.714 1956.52,805.109 1960.53,799.454 1964.54,793.751 1968.55,787.999 1972.56,782.199 1976.57,776.35 1980.57,770.452 1984.58,764.505 1988.59,758.509 1992.6,752.465 1996.61,746.372 2000.62,740.231 2004.63,734.04 2008.63,727.801 2012.64,721.513 2016.65,715.176 2020.66,708.791 2024.67,702.357 2028.68,695.874 2032.68,689.343 2036.69,682.762 2040.7,676.133 2044.71,669.455 2048.72,662.729 2052.73,655.954 2056.73,649.13 2060.74,642.257 2064.75,635.336 2068.76,628.365 2072.77,621.347 2076.78,614.279 2080.79,607.163 2084.79,599.997 2088.8,592.784 2092.81,585.521 2096.82,578.21 2100.83,570.85 2104.84,563.441 2108.84,555.983 2112.85,548.477 2116.86,540.922 2120.87,533.318 2124.88,525.666 2128.89,517.965 2132.89,510.215 2136.9,502.416 2140.91,494.569 2144.92,486.673 2148.93,478.728 2152.94,470.734 2156.94,462.692 2160.95,454.601 2164.96,446.461 2168.97,438.273 2172.98,430.035 2176.99,421.749 2181,413.415 2185,405.031 2189.01,396.599 2193.02,388.118 2197.03,379.588 2201.04,371.01 2205.05,362.383 2209.05,353.707 2213.06,344.982 2217.07,336.209 2221.08,327.387 2225.09,318.516 2229.1,309.597 2233.1,300.628 2237.11,291.611 2241.12,282.546 2245.13,273.431 2249.14,264.268 2253.15,255.056 2257.16,245.795 2261.16,236.486 2265.17,227.128 2269.18,217.721 2273.19,208.265 2277.2,198.761 2281.21,189.208 2285.21,179.606 2289.22,169.956 2293.23,160.256 "/>
<path clip-path="url(#clip770)" d="M1995.75 270.476 L2282.65 270.476 L2282.65 166.796 L1995.75 166.796  Z" fill="#ffffff" fill-rule="evenodd" fill-opacity="1"/>
<polyline clip-path="url(#clip770)" style="stroke:#000000; stroke-linecap:round; stroke-linejoin:round; stroke-width:4; stroke-opacity:1; fill:none" points="1995.75,270.476 2282.65,270.476 2282.65,166.796 1995.75,166.796 1995.75,270.476 "/>
<polyline clip-path="url(#clip770)" style="stroke:#009af9; stroke-linecap:round; stroke-linejoin:round; stroke-width:8; stroke-opacity:1; fill:none" points="2019.12,218.636 2159.34,218.636 "/>
<path clip-path="url(#clip770)" d="M2199.21 199.897 L2199.21 203.439 L2195.14 203.439 Q2192.84 203.439 2191.94 204.365 Q2191.06 205.291 2191.06 207.698 L2191.06 209.99 L2198.08 209.99 L2198.08 213.3 L2191.06 213.3 L2191.06 235.916 L2186.78 235.916 L2186.78 213.3 L2182.71 213.3 L2182.71 209.99 L2186.78 209.99 L2186.78 208.184 Q2186.78 203.856 2188.79 201.888 Q2190.81 199.897 2195.18 199.897 L2199.21 199.897 Z" fill="#000000" fill-rule="nonzero" fill-opacity="1" /><path clip-path="url(#clip770)" d="M2213.01 199.944 Q2209.9 205.268 2208.4 210.476 Q2206.9 215.684 2206.9 221.032 Q2206.9 226.379 2208.4 231.633 Q2209.93 236.865 2213.01 242.166 L2209.3 242.166 Q2205.83 236.726 2204.09 231.471 Q2202.38 226.217 2202.38 221.032 Q2202.38 215.87 2204.09 210.638 Q2205.81 205.407 2209.3 199.944 L2213.01 199.944 Z" fill="#000000" fill-rule="nonzero" fill-opacity="1" /><path clip-path="url(#clip770)" d="M2242.82 209.99 L2233.45 222.606 L2243.31 235.916 L2238.28 235.916 L2230.74 225.731 L2223.19 235.916 L2218.17 235.916 L2228.24 222.351 L2219.03 209.99 L2224.05 209.99 L2230.92 219.226 L2237.8 209.99 L2242.82 209.99 Z" fill="#000000" fill-rule="nonzero" fill-opacity="1" /><path clip-path="url(#clip770)" d="M2248.65 199.944 L2252.36 199.944 Q2255.83 205.407 2257.54 210.638 Q2259.28 215.87 2259.28 221.032 Q2259.28 226.217 2257.54 231.471 Q2255.83 236.726 2252.36 242.166 L2248.65 242.166 Q2251.73 236.865 2253.24 231.633 Q2254.77 226.379 2254.77 221.032 Q2254.77 215.684 2253.24 210.476 Q2251.73 205.268 2248.65 199.944 Z" fill="#000000" fill-rule="nonzero" fill-opacity="1" /></svg>