<?xml version="1.0" encoding="utf-8"?>
<svg xmlns="http://www.w3.org/2000/svg" xmlns:xlink="http://www.w3.org/1999/xlink" width="600" height="400" viewBox="0 0 2400 1600">
<defs>
  <clipPath id="clip120">
    <rect x="0" y="0" width="2400" height="1600"/>
  </clipPath>
</defs>
<path clip-path="url(#clip120)" d="M0 1600 L2400 1600 L2400 0 L0 0  Z" fill="#ffffff" fill-rule="evenodd" fill-opacity="1"/>
<defs>
  <clipPath id="clip121">
    <rect x="480" y="0" width="1681" height="1600"/>
  </clipPath>
</defs>
<path clip-path="url(#clip120)" d="M155.765 1233.51 L2352.76 1233.51 L2352.76 47.2441 L155.765 47.2441  Z" fill="#ffffff" fill-rule="evenodd" fill-opacity="1"/>
<defs>
  <clipPath id="clip122">
    <rect x="155" y="47" width="2198" height="1187"/>
  </clipPath>
</defs>
<polyline clip-path="url(#clip122)" style="stroke:#000000; stroke-linecap:round; stroke-linejoin:round; stroke-width:2; stroke-opacity:0.1; fill:none" points="217.944,1233.51 217.944,47.2441 "/>
<polyline clip-path="url(#clip122)" style="stroke:#000000; stroke-linecap:round; stroke-linejoin:round; stroke-width:2; stroke-opacity:0.1; fill:none" points="547.814,1233.51 547.814,47.2441 "/>
<polyline clip-path="url(#clip122)" style="stroke:#000000; stroke-linecap:round; stroke-linejoin:round; stroke-width:2; stroke-opacity:0.1; fill:none" points="877.683,1233.51 877.683,47.2441 "/>
<polyline clip-path="url(#clip122)" style="stroke:#000000; stroke-linecap:round; stroke-linejoin:round; stroke-width:2; stroke-opacity:0.1; fill:none" points="1207.55,1233.51 1207.55,47.2441 "/>
<polyline clip-path="url(#clip122)" style="stroke:#000000; stroke-linecap:round; stroke-linejoin:round; stroke-width:2; stroke-opacity:0.1; fill:none" points="1537.42,1233.51 1537.42,47.2441 "/>
<polyline clip-path="url(#clip122)" style="stroke:#000000; stroke-linecap:round; stroke-linejoin:round; stroke-width:2; stroke-opacity:0.1; fill:none" points="1867.29,1233.51 1867.29,47.2441 "/>
<polyline clip-path="url(#clip122)" style="stroke:#000000; stroke-linecap:round; stroke-linejoin:round; stroke-width:2; stroke-opacity:0.1; fill:none" points="2197.16,1233.51 2197.16,47.2441 "/>
<polyline clip-path="url(#clip120)" style="stroke:#000000; stroke-linecap:round; stroke-linejoin:round; stroke-width:4; stroke-opacity:1; fill:none" points="155.765,1233.51 2352.76,1233.51 "/>
<polyline clip-path="url(#clip120)" style="stroke:#000000; stroke-linecap:round; stroke-linejoin:round; stroke-width:4; stroke-opacity:1; fill:none" points="217.944,1233.51 217.944,1217.93 "/>
<polyline clip-path="url(#clip120)" style="stroke:#000000; stroke-linecap:round; stroke-linejoin:round; stroke-width:4; stroke-opacity:1; fill:none" points="547.814,1233.51 547.814,1217.93 "/>
<polyline clip-path="url(#clip120)" style="stroke:#000000; stroke-linecap:round; stroke-linejoin:round; stroke-width:4; stroke-opacity:1; fill:none" points="877.683,1233.51 877.683,1217.93 "/>
<polyline clip-path="url(#clip120)" style="stroke:#000000; stroke-linecap:round; stroke-linejoin:round; stroke-width:4; stroke-opacity:1; fill:none" points="1207.55,1233.51 1207.55,1217.93 "/>
<polyline clip-path="url(#clip120)" style="stroke:#000000; stroke-linecap:round; stroke-linejoin:round; stroke-width:4; stroke-opacity:1; fill:none" points="1537.42,1233.51 1537.42,1217.93 "/>
<polyline clip-path="url(#clip120)" style="stroke:#000000; stroke-linecap:round; stroke-linejoin:round; stroke-width:4; stroke-opacity:1; fill:none" points="1867.29,1233.51 1867.29,1217.93 "/>
<polyline clip-path="url(#clip120)" style="stroke:#000000; stroke-linecap:round; stroke-linejoin:round; stroke-width:4; stroke-opacity:1; fill:none" points="2197.16,1233.51 2197.16,1217.93 "/>
<path clip-path="url(#clip120)" d="M217.944 1264.43 Q214.333 1264.43 212.504 1267.99 Q210.699 1271.54 210.699 1278.67 Q210.699 1285.77 212.504 1289.34 Q214.333 1292.88 217.944 1292.88 Q221.578 1292.88 223.384 1289.34 Q225.212 1285.77 225.212 1278.67 Q225.212 1271.54 223.384 1267.99 Q221.578 1264.43 217.944 1264.43 M217.944 1260.73 Q223.754 1260.73 226.81 1265.33 Q229.888 1269.92 229.888 1278.67 Q229.888 1287.39 226.81 1292 Q223.754 1296.58 217.944 1296.58 Q212.134 1296.58 209.055 1292 Q206 1287.39 206 1278.67 Q206 1269.92 209.055 1265.33 Q212.134 1260.73 217.944 1260.73 Z" fill="#000000" fill-rule="nonzero" fill-opacity="1" /><path clip-path="url(#clip120)" d="M538.196 1291.98 L545.835 1291.98 L545.835 1265.61 L537.524 1267.28 L537.524 1263.02 L545.788 1261.35 L550.464 1261.35 L550.464 1291.98 L558.103 1291.98 L558.103 1295.91 L538.196 1295.91 L538.196 1291.98 Z" fill="#000000" fill-rule="nonzero" fill-opacity="1" /><path clip-path="url(#clip120)" d="M872.336 1291.98 L888.656 1291.98 L888.656 1295.91 L866.711 1295.91 L866.711 1291.98 Q869.373 1289.22 873.957 1284.59 Q878.563 1279.94 879.744 1278.6 Q881.989 1276.07 882.869 1274.34 Q883.771 1272.58 883.771 1270.89 Q883.771 1268.13 881.827 1266.4 Q879.906 1264.66 876.804 1264.66 Q874.605 1264.66 872.151 1265.42 Q869.721 1266.19 866.943 1267.74 L866.943 1263.02 Q869.767 1261.88 872.221 1261.3 Q874.674 1260.73 876.711 1260.73 Q882.082 1260.73 885.276 1263.41 Q888.47 1266.1 888.47 1270.59 Q888.47 1272.72 887.66 1274.64 Q886.873 1276.54 884.767 1279.13 Q884.188 1279.8 881.086 1283.02 Q877.984 1286.21 872.336 1291.98 Z" fill="#000000" fill-rule="nonzero" fill-opacity="1" /><path clip-path="url(#clip120)" d="M1211.8 1277.28 Q1215.16 1277.99 1217.03 1280.26 Q1218.93 1282.53 1218.93 1285.86 Q1218.93 1290.98 1215.41 1293.78 Q1211.89 1296.58 1205.41 1296.58 Q1203.24 1296.58 1200.92 1296.14 Q1198.63 1295.73 1196.18 1294.87 L1196.18 1290.35 Q1198.12 1291.49 1200.44 1292.07 Q1202.75 1292.65 1205.27 1292.65 Q1209.67 1292.65 1211.96 1290.91 Q1214.28 1289.17 1214.28 1285.86 Q1214.28 1282.81 1212.13 1281.1 Q1210 1279.36 1206.18 1279.36 L1202.15 1279.36 L1202.15 1275.52 L1206.36 1275.52 Q1209.81 1275.52 1211.64 1274.15 Q1213.47 1272.76 1213.47 1270.17 Q1213.47 1267.51 1211.57 1266.1 Q1209.69 1264.66 1206.18 1264.66 Q1204.25 1264.66 1202.06 1265.08 Q1199.86 1265.49 1197.22 1266.37 L1197.22 1262.21 Q1199.88 1261.47 1202.19 1261.1 Q1204.53 1260.73 1206.59 1260.73 Q1211.92 1260.73 1215.02 1263.16 Q1218.12 1265.56 1218.12 1269.68 Q1218.12 1272.55 1216.48 1274.54 Q1214.83 1276.51 1211.8 1277.28 Z" fill="#000000" fill-rule="nonzero" fill-opacity="1" /><path clip-path="url(#clip120)" d="M1540.43 1265.42 L1528.63 1283.87 L1540.43 1283.87 L1540.43 1265.42 M1539.21 1261.35 L1545.09 1261.35 L1545.09 1283.87 L1550.02 1283.87 L1550.02 1287.76 L1545.09 1287.76 L1545.09 1295.91 L1540.43 1295.91 L1540.43 1287.76 L1524.83 1287.76 L1524.83 1283.25 L1539.21 1261.35 Z" fill="#000000" fill-rule="nonzero" fill-opacity="1" /><path clip-path="url(#clip120)" d="M1857.57 1261.35 L1875.93 1261.35 L1875.93 1265.29 L1861.85 1265.29 L1861.85 1273.76 Q1862.87 1273.41 1863.89 1273.25 Q1864.91 1273.06 1865.93 1273.06 Q1871.71 1273.06 1875.09 1276.23 Q1878.47 1279.41 1878.47 1284.82 Q1878.47 1290.4 1875 1293.5 Q1871.53 1296.58 1865.21 1296.58 Q1863.03 1296.58 1860.77 1296.21 Q1858.52 1295.84 1856.11 1295.1 L1856.11 1290.4 Q1858.2 1291.54 1860.42 1292.09 Q1862.64 1292.65 1865.12 1292.65 Q1869.12 1292.65 1871.46 1290.54 Q1873.8 1288.43 1873.8 1284.82 Q1873.8 1281.21 1871.46 1279.11 Q1869.12 1277 1865.12 1277 Q1863.24 1277 1861.37 1277.42 Q1859.52 1277.83 1857.57 1278.71 L1857.57 1261.35 Z" fill="#000000" fill-rule="nonzero" fill-opacity="1" /><path clip-path="url(#clip120)" d="M2197.57 1276.77 Q2194.42 1276.77 2192.57 1278.92 Q2190.74 1281.07 2190.74 1284.82 Q2190.74 1288.55 2192.57 1290.73 Q2194.42 1292.88 2197.57 1292.88 Q2200.72 1292.88 2202.54 1290.73 Q2204.4 1288.55 2204.4 1284.82 Q2204.4 1281.07 2202.54 1278.92 Q2200.72 1276.77 2197.57 1276.77 M2206.85 1262.11 L2206.85 1266.37 Q2205.09 1265.54 2203.29 1265.1 Q2201.5 1264.66 2199.74 1264.66 Q2195.11 1264.66 2192.66 1267.79 Q2190.23 1270.91 2189.88 1277.23 Q2191.25 1275.22 2193.31 1274.15 Q2195.37 1273.06 2197.85 1273.06 Q2203.05 1273.06 2206.06 1276.23 Q2209.1 1279.38 2209.1 1284.82 Q2209.1 1290.15 2205.95 1293.36 Q2202.8 1296.58 2197.57 1296.58 Q2191.57 1296.58 2188.4 1292 Q2185.23 1287.39 2185.23 1278.67 Q2185.23 1270.47 2189.12 1265.61 Q2193.01 1260.73 2199.56 1260.73 Q2201.32 1260.73 2203.1 1261.07 Q2204.91 1261.42 2206.85 1262.11 Z" fill="#000000" fill-rule="nonzero" fill-opacity="1" /><polyline clip-path="url(#clip122)" style="stroke:#000000; stroke-linecap:round; stroke-linejoin:round; stroke-width:2; stroke-opacity:0.1; fill:none" points="155.765,1146.24 2352.76,1146.24 "/>
<polyline clip-path="url(#clip122)" style="stroke:#000000; stroke-linecap:round; stroke-linejoin:round; stroke-width:2; stroke-opacity:0.1; fill:none" points="155.765,877.451 2352.76,877.451 "/>
<polyline clip-path="url(#clip122)" style="stroke:#000000; stroke-linecap:round; stroke-linejoin:round; stroke-width:2; stroke-opacity:0.1; fill:none" points="155.765,608.663 2352.76,608.663 "/>
<polyline clip-path="url(#clip122)" style="stroke:#000000; stroke-linecap:round; stroke-linejoin:round; stroke-width:2; stroke-opacity:0.1; fill:none" points="155.765,339.874 2352.76,339.874 "/>
<polyline clip-path="url(#clip122)" style="stroke:#000000; stroke-linecap:round; stroke-linejoin:round; stroke-width:2; stroke-opacity:0.1; fill:none" points="155.765,71.0863 2352.76,71.0863 "/>
<polyline clip-path="url(#clip120)" style="stroke:#000000; stroke-linecap:round; stroke-linejoin:round; stroke-width:4; stroke-opacity:1; fill:none" points="155.765,1233.51 155.765,47.2441 "/>
<polyline clip-path="url(#clip120)" style="stroke:#000000; stroke-linecap:round; stroke-linejoin:round; stroke-width:4; stroke-opacity:1; fill:none" points="155.765,1146.24 174.663,1146.24 "/>
<polyline clip-path="url(#clip120)" style="stroke:#000000; stroke-linecap:round; stroke-linejoin:round; stroke-width:4; stroke-opacity:1; fill:none" points="155.765,877.451 174.663,877.451 "/>
<polyline clip-path="url(#clip120)" style="stroke:#000000; stroke-linecap:round; stroke-linejoin:round; stroke-width:4; stroke-opacity:1; fill:none" points="155.765,608.663 174.663,608.663 "/>
<polyline clip-path="url(#clip120)" style="stroke:#000000; stroke-linecap:round; stroke-linejoin:round; stroke-width:4; stroke-opacity:1; fill:none" points="155.765,339.874 174.663,339.874 "/>
<polyline clip-path="url(#clip120)" style="stroke:#000000; stroke-linecap:round; stroke-linejoin:round; stroke-width:4; stroke-opacity:1; fill:none" points="155.765,71.0863 174.663,71.0863 "/>
<path clip-path="url(#clip120)" d="M63.5847 1132.04 Q59.9736 1132.04 58.1449 1135.6 Q56.3393 1139.14 56.3393 1146.27 Q56.3393 1153.38 58.1449 1156.94 Q59.9736 1160.49 63.5847 1160.49 Q67.2189 1160.49 69.0244 1156.94 Q70.8531 1153.38 70.8531 1146.27 Q70.8531 1139.14 69.0244 1135.6 Q67.2189 1132.04 63.5847 1132.04 M63.5847 1128.33 Q69.3948 1128.33 72.4503 1132.94 Q75.529 1137.52 75.529 1146.27 Q75.529 1155 72.4503 1159.61 Q69.3948 1164.19 63.5847 1164.19 Q57.7745 1164.19 54.6958 1159.61 Q51.6403 1155 51.6403 1146.27 Q51.6403 1137.52 54.6958 1132.94 Q57.7745 1128.33 63.5847 1128.33 Z" fill="#000000" fill-rule="nonzero" fill-opacity="1" /><path clip-path="url(#clip120)" d="M83.7466 1157.64 L88.6308 1157.64 L88.6308 1163.52 L83.7466 1163.52 L83.7466 1157.64 Z" fill="#000000" fill-rule="nonzero" fill-opacity="1" /><path clip-path="url(#clip120)" d="M98.8622 1128.96 L117.219 1128.96 L117.219 1132.89 L103.145 1132.89 L103.145 1141.37 Q104.163 1141.02 105.182 1140.86 Q106.2 1140.67 107.219 1140.67 Q113.006 1140.67 116.385 1143.84 Q119.765 1147.01 119.765 1152.43 Q119.765 1158.01 116.293 1161.11 Q112.82 1164.19 106.501 1164.19 Q104.325 1164.19 102.057 1163.82 Q99.8113 1163.45 97.4039 1162.71 L97.4039 1158.01 Q99.4872 1159.14 101.709 1159.7 Q103.932 1160.25 106.408 1160.25 Q110.413 1160.25 112.751 1158.15 Q115.089 1156.04 115.089 1152.43 Q115.089 1148.82 112.751 1146.71 Q110.413 1144.61 106.408 1144.61 Q104.534 1144.61 102.659 1145.02 Q100.807 1145.44 98.8622 1146.32 L98.8622 1128.96 Z" fill="#000000" fill-rule="nonzero" fill-opacity="1" /><path clip-path="url(#clip120)" d="M53.3995 890.795 L61.0384 890.795 L61.0384 864.43 L52.7282 866.097 L52.7282 861.837 L60.9921 860.171 L65.668 860.171 L65.668 890.795 L73.3068 890.795 L73.3068 894.731 L53.3995 894.731 L53.3995 890.795 Z" fill="#000000" fill-rule="nonzero" fill-opacity="1" /><path clip-path="url(#clip120)" d="M82.7512 888.851 L87.6354 888.851 L87.6354 894.731 L82.7512 894.731 L82.7512 888.851 Z" fill="#000000" fill-rule="nonzero" fill-opacity="1" /><path clip-path="url(#clip120)" d="M107.821 863.249 Q104.209 863.249 102.381 866.814 Q100.575 870.356 100.575 877.485 Q100.575 884.592 102.381 888.157 Q104.209 891.698 107.821 891.698 Q111.455 891.698 113.26 888.157 Q115.089 884.592 115.089 877.485 Q115.089 870.356 113.26 866.814 Q111.455 863.249 107.821 863.249 M107.821 859.546 Q113.631 859.546 116.686 864.152 Q119.765 868.735 119.765 877.485 Q119.765 886.212 116.686 890.819 Q113.631 895.402 107.821 895.402 Q102.01 895.402 98.9317 890.819 Q95.8761 886.212 95.8761 877.485 Q95.8761 868.735 98.9317 864.152 Q102.01 859.546 107.821 859.546 Z" fill="#000000" fill-rule="nonzero" fill-opacity="1" /><path clip-path="url(#clip120)" d="M54.3949 622.007 L62.0337 622.007 L62.0337 595.642 L53.7236 597.308 L53.7236 593.049 L61.9874 591.383 L66.6633 591.383 L66.6633 622.007 L74.3022 622.007 L74.3022 625.943 L54.3949 625.943 L54.3949 622.007 Z" fill="#000000" fill-rule="nonzero" fill-opacity="1" /><path clip-path="url(#clip120)" d="M83.7466 620.063 L88.6308 620.063 L88.6308 625.943 L83.7466 625.943 L83.7466 620.063 Z" fill="#000000" fill-rule="nonzero" fill-opacity="1" /><path clip-path="url(#clip120)" d="M98.8622 591.383 L117.219 591.383 L117.219 595.318 L103.145 595.318 L103.145 603.79 Q104.163 603.443 105.182 603.281 Q106.2 603.095 107.219 603.095 Q113.006 603.095 116.385 606.267 Q119.765 609.438 119.765 614.855 Q119.765 620.433 116.293 623.535 Q112.82 626.614 106.501 626.614 Q104.325 626.614 102.057 626.243 Q99.8113 625.873 97.4039 625.132 L97.4039 620.433 Q99.4872 621.568 101.709 622.123 Q103.932 622.679 106.408 622.679 Q110.413 622.679 112.751 620.572 Q115.089 618.466 115.089 614.855 Q115.089 611.244 112.751 609.137 Q110.413 607.031 106.408 607.031 Q104.534 607.031 102.659 607.447 Q100.807 607.864 98.8622 608.744 L98.8622 591.383 Z" fill="#000000" fill-rule="nonzero" fill-opacity="1" /><path clip-path="url(#clip120)" d="M56.6171 353.219 L72.9365 353.219 L72.9365 357.154 L50.9921 357.154 L50.9921 353.219 Q53.6541 350.465 58.2375 345.835 Q62.8439 341.182 64.0245 339.84 Q66.2698 337.317 67.1494 335.58 Q68.0522 333.821 68.0522 332.131 Q68.0522 329.377 66.1078 327.641 Q64.1865 325.905 61.0847 325.905 Q58.8856 325.905 56.4319 326.668 Q54.0014 327.432 51.2236 328.983 L51.2236 324.261 Q54.0477 323.127 56.5014 322.548 Q58.955 321.969 60.9921 321.969 Q66.3624 321.969 69.5568 324.655 Q72.7513 327.34 72.7513 331.83 Q72.7513 333.96 71.9411 335.881 Q71.1541 337.78 69.0476 340.372 Q68.4689 341.043 65.367 344.261 Q62.2652 347.455 56.6171 353.219 Z" fill="#000000" fill-rule="nonzero" fill-opacity="1" /><path clip-path="url(#clip120)" d="M82.7512 351.275 L87.6354 351.275 L87.6354 357.154 L82.7512 357.154 L82.7512 351.275 Z" fill="#000000" fill-rule="nonzero" fill-opacity="1" /><path clip-path="url(#clip120)" d="M107.821 325.673 Q104.209 325.673 102.381 329.238 Q100.575 332.78 100.575 339.909 Q100.575 347.016 102.381 350.58 Q104.209 354.122 107.821 354.122 Q111.455 354.122 113.26 350.58 Q115.089 347.016 115.089 339.909 Q115.089 332.78 113.26 329.238 Q111.455 325.673 107.821 325.673 M107.821 321.969 Q113.631 321.969 116.686 326.576 Q119.765 331.159 119.765 339.909 Q119.765 348.636 116.686 353.242 Q113.631 357.826 107.821 357.826 Q102.01 357.826 98.9317 353.242 Q95.8761 348.636 95.8761 339.909 Q95.8761 331.159 98.9317 326.576 Q102.01 321.969 107.821 321.969 Z" fill="#000000" fill-rule="nonzero" fill-opacity="1" /><path clip-path="url(#clip120)" d="M57.6125 84.4311 L73.9318 84.4311 L73.9318 88.3663 L51.9875 88.3663 L51.9875 84.4311 Q54.6495 81.6765 59.2328 77.0469 Q63.8393 72.3942 65.0198 71.0516 Q67.2652 68.5285 68.1448 66.7924 Q69.0476 65.0331 69.0476 63.3433 Q69.0476 60.5887 67.1032 58.8526 Q65.1819 57.1165 62.08 57.1165 Q59.881 57.1165 57.4273 57.8804 Q54.9967 58.6442 52.219 60.1952 L52.219 55.473 Q55.043 54.3387 57.4967 53.76 Q59.9504 53.1813 61.9874 53.1813 Q67.3578 53.1813 70.5522 55.8665 Q73.7466 58.5517 73.7466 63.0424 Q73.7466 65.172 72.9365 67.0933 Q72.1494 68.9914 70.0429 71.584 Q69.4642 72.2553 66.3624 75.4729 Q63.2606 78.6673 57.6125 84.4311 Z" fill="#000000" fill-rule="nonzero" fill-opacity="1" /><path clip-path="url(#clip120)" d="M83.7466 82.4867 L88.6308 82.4867 L88.6308 88.3663 L83.7466 88.3663 L83.7466 82.4867 Z" fill="#000000" fill-rule="nonzero" fill-opacity="1" /><path clip-path="url(#clip120)" d="M98.8622 53.8063 L117.219 53.8063 L117.219 57.7415 L103.145 57.7415 L103.145 66.2137 Q104.163 65.8664 105.182 65.7044 Q106.2 65.5192 107.219 65.5192 Q113.006 65.5192 116.385 68.6905 Q119.765 71.8618 119.765 77.2784 Q119.765 82.8571 116.293 85.9589 Q112.82 89.0376 106.501 89.0376 Q104.325 89.0376 102.057 88.6672 Q99.8113 88.2969 97.4039 87.5561 L97.4039 82.8571 Q99.4872 83.9913 101.709 84.5469 Q103.932 85.1024 106.408 85.1024 Q110.413 85.1024 112.751 82.996 Q115.089 80.8895 115.089 77.2784 Q115.089 73.6673 112.751 71.5608 Q110.413 69.4544 106.408 69.4544 Q104.534 69.4544 102.659 69.871 Q100.807 70.2877 98.8622 71.1673 L98.8622 53.8063 Z" fill="#000000" fill-rule="nonzero" fill-opacity="1" /><polyline clip-path="url(#clip122)" style="stroke:#008000; stroke-linecap:round; stroke-linejoin:round; stroke-width:4; stroke-opacity:1; fill:none" stroke-dasharray="2, 4" points="217.944,87.3782 238.88,82.2608 259.815,80.8177 280.751,83.0019 301.687,88.7441 322.622,97.9528 343.558,110.515 364.494,126.295 385.429,145.138 406.365,166.869 427.301,191.292 448.236,218.193 469.172,247.344 490.108,278.498 511.044,311.396 531.979,345.77 552.915,381.342 573.851,417.828 594.786,454.946 615.722,492.414 636.658,529.96 657.593,567.321 678.529,604.252 699.465,640.53 720.4,675.952 741.336,710.345 762.272,743.565 783.207,775.496 804.143,806.053 825.079,835.179 846.015,862.842 866.95,889.034 887.886,913.765 908.822,937.065 929.757,958.973 950.693,979.539 971.629,998.821 992.564,1016.88 1013.5,1033.78 1034.44,1049.57 1055.37,1064.33 1076.31,1078.12 1097.24,1090.98 1118.18,1102.97 1139.11,1114.14 1160.05,1124.52 1180.99,1134.17 1201.92,1143.11 1222.86,1151.37 1243.79,1158.97 1264.73,1165.93 1285.66,1172.27 1306.6,1177.99 1327.54,1183.1 1348.47,1187.57 1369.41,1191.41 1390.34,1194.59 1411.28,1197.08 1432.21,1198.84 1453.15,1199.82 1474.09,1199.94 1495.02,1199.12 1515.96,1197.27 1536.89,1194.25 1557.83,1189.92 1578.76,1184.09 1599.7,1176.56 1620.63,1167.07 1641.57,1155.35 1662.51,1141.09 1683.44,1123.97 1704.38,1103.66 1725.31,1079.89 1746.25,1052.42 1767.18,1021.15 1788.12,986.107 1809.06,947.458 1829.99,905.527 1850.93,860.756 1871.86,813.673 1892.8,764.851 1913.73,714.873 1934.67,664.311 1955.61,613.704 1976.54,563.555 1997.48,514.319 2018.41,466.413 2039.35,420.208 2060.28,376.038 2081.22,334.199 2102.16,294.955 2123.09,258.536 2144.03,225.144 2164.96,194.951 2185.9,168.103 2206.83,144.721 2227.77,124.899 2248.71,108.708 2269.64,96.1937 2290.58,87.3782 "/>
<path clip-path="url(#clip120)" d="M774.924 1486.45 L1733.6 1486.45 L1733.6 1333.32 L774.924 1333.32  Z" fill="#ffffff" fill-rule="evenodd" fill-opacity="1"/>
<polyline clip-path="url(#clip120)" style="stroke:#000000; stroke-linecap:round; stroke-linejoin:round; stroke-width:4; stroke-opacity:1; fill:none" points="774.924,1486.45 1733.6,1486.45 1733.6,1333.32 774.924,1333.32 774.924,1486.45 "/>
<polyline clip-path="url(#clip120)" style="stroke:#008000; stroke-linecap:round; stroke-linejoin:round; stroke-width:4; stroke-opacity:1; fill:none" stroke-dasharray="2, 4" points="799.335,1409.89 945.801,1409.89 "/>
<path clip-path="url(#clip120)" d="M987.873 1419.22 Q987.873 1420.53 987.217 1421.23 Q986.561 1421.91 985.671 1421.91 Q984.945 1421.91 984.547 1421.49 Q984.172 1421.07 984.172 1420.51 Q984.172 1419.69 984.828 1419.03 Q985.507 1418.37 986.491 1418.35 Q986.163 1417.48 985.296 1416.97 Q984.43 1416.43 983.657 1416.29 Q982.907 1416.15 982.158 1416.15 Q980.682 1416.15 979.558 1416.62 Q978.434 1417.09 977.871 1417.81 Q977.309 1418.51 977.052 1419.19 Q976.794 1419.87 976.794 1420.46 Q976.794 1420.97 976.911 1421.4 Q977.052 1421.79 977.38 1422.1 Q977.707 1422.38 977.942 1422.57 Q978.199 1422.75 978.761 1422.92 Q979.324 1423.08 979.558 1423.15 Q979.792 1423.2 980.448 1423.34 Q981.806 1423.62 982.415 1423.78 Q983.024 1423.92 983.821 1424.32 Q984.641 1424.72 985.25 1425.35 Q986.725 1426.83 986.725 1428.87 Q986.725 1429.62 986.467 1430.53 Q986.233 1431.44 985.554 1432.59 Q984.875 1433.74 983.844 1434.65 Q982.814 1435.57 981.033 1436.2 Q979.277 1436.83 977.075 1436.83 Q974.007 1436.83 972.11 1435.54 Q970.212 1434.23 970.212 1432.17 Q970.212 1430.67 971.032 1429.85 Q971.852 1429.01 972.906 1429.01 Q973.702 1429.01 974.194 1429.45 Q974.686 1429.87 974.686 1430.67 Q974.686 1431.75 973.819 1432.57 Q972.953 1433.39 971.664 1433.22 Q972.765 1435.75 977.122 1435.75 Q978.761 1435.75 980.026 1435.33 Q981.315 1434.89 982.017 1434.28 Q982.743 1433.65 983.212 1432.87 Q983.68 1432.1 983.821 1431.51 Q983.985 1430.93 983.985 1430.48 Q983.985 1429.71 983.68 1429.12 Q983.376 1428.54 982.954 1428.21 Q982.556 1427.86 981.783 1427.58 Q981.033 1427.27 980.495 1427.16 Q979.956 1427.04 978.996 1426.85 Q978.551 1426.76 978.27 1426.71 Q977.989 1426.64 977.403 1426.45 Q976.841 1426.24 976.443 1426.03 Q976.068 1425.82 975.576 1425.45 Q975.084 1425.07 974.78 1424.63 Q974.475 1424.18 974.264 1423.53 Q974.054 1422.87 974.054 1422.1 Q974.054 1421.4 974.264 1420.55 Q974.499 1419.71 975.084 1418.73 Q975.693 1417.74 976.56 1416.94 Q977.426 1416.15 978.879 1415.63 Q980.354 1415.09 982.158 1415.09 Q984.781 1415.09 986.327 1416.31 Q987.873 1417.51 987.873 1419.22 Z" fill="#000000" fill-rule="nonzero" fill-opacity="1" /><path clip-path="url(#clip120)" d="M1005.78 1429.01 Q1005.83 1428.42 1006.74 1428.42 L1036.14 1428.42 Q1037.52 1428.42 1037.54 1428.96 Q1037.54 1429.55 1036.23 1429.52 L1007.07 1429.52 Q1005.78 1429.55 1005.78 1429.01 M1005.78 1419.64 Q1005.78 1419.05 1006.79 1419.08 L1036.09 1419.08 Q1037.52 1419.08 1037.54 1419.64 Q1037.54 1420.18 1036.33 1420.18 L1006.74 1420.18 Q1005.78 1420.18 1005.78 1419.64 Z" fill="#000000" fill-rule="nonzero" fill-opacity="1" /><path clip-path="url(#clip120)" d="M1078 1429.43 Q1077.37 1432.45 1076.55 1434.18 Q1075.24 1436.83 1073.02 1436.83 Q1071.33 1436.83 1070.13 1435.8 Q1068.94 1434.77 1068.66 1433.22 Q1065.59 1436.83 1062.41 1436.83 Q1059.59 1436.83 1057.81 1434.7 Q1056.03 1432.54 1056.03 1429.15 Q1056.03 1425.73 1057.72 1422.45 Q1059.43 1419.17 1062.12 1417.13 Q1064.82 1415.09 1067.58 1415.09 Q1070.51 1415.09 1072.01 1418.16 Q1072.13 1417.32 1072.66 1416.69 Q1073.2 1416.05 1074.02 1416.05 Q1074.66 1416.05 1075.03 1416.41 Q1075.4 1416.73 1075.4 1417.34 Q1075.4 1417.65 1075.08 1418.98 L1073.34 1425.68 L1072.29 1430.01 Q1071.89 1431.61 1071.77 1432.19 Q1071.68 1432.78 1071.68 1433.55 Q1071.68 1435.75 1073.11 1435.75 Q1073.81 1435.75 1074.37 1435.31 Q1074.94 1434.86 1075.38 1433.93 Q1075.83 1432.99 1076.11 1432.12 Q1076.39 1431.23 1076.76 1429.83 Q1076.88 1429.27 1076.97 1429.12 Q1077.09 1428.96 1077.42 1428.96 Q1078 1428.96 1078 1429.43 M1071.42 1420.36 Q1071.42 1420.15 1071.26 1419.57 Q1071.09 1418.98 1070.72 1418.16 Q1070.35 1417.34 1069.53 1416.76 Q1068.73 1416.15 1067.65 1416.15 Q1066.2 1416.15 1064.68 1417.39 Q1063.18 1418.63 1062.08 1420.74 Q1061.23 1422.43 1060.32 1425.96 Q1059.43 1429.5 1059.43 1431.26 Q1059.43 1432.33 1059.66 1433.29 Q1059.92 1434.23 1060.65 1435 Q1061.37 1435.75 1062.5 1435.75 Q1065.24 1435.75 1067.93 1432.36 Q1068.45 1431.77 1068.57 1431.54 Q1068.71 1431.28 1068.89 1430.58 L1071.28 1421.18 Q1071.42 1420.48 1071.42 1420.36 Z" fill="#000000" fill-rule="nonzero" fill-opacity="1" /><path clip-path="url(#clip120)" d="M1084.2 1433.67 Q1081.15 1430.48 1081.15 1425.94 Q1081.15 1421.37 1084.15 1418.09 Q1087.15 1414.79 1091.55 1414.79 Q1094.48 1414.79 1096.68 1416.2 Q1098.88 1417.58 1098.88 1419.94 Q1098.88 1421 1098.25 1421.61 Q1097.64 1422.19 1096.68 1422.19 Q1095.67 1422.19 1095.07 1421.58 Q1094.48 1420.95 1094.48 1419.99 Q1094.48 1419.57 1094.62 1419.15 Q1094.76 1418.73 1095.28 1418.28 Q1095.82 1417.84 1096.73 1417.76 Q1095.02 1416.01 1091.69 1416.01 Q1091.65 1416.01 1091.6 1416.01 Q1089.16 1416.01 1087.15 1418.3 Q1085.13 1420.6 1085.13 1425.85 Q1085.13 1428.59 1085.79 1430.6 Q1086.47 1432.59 1087.57 1433.62 Q1088.67 1434.65 1089.75 1435.14 Q1090.83 1435.61 1091.88 1435.61 Q1096.59 1435.61 1098.18 1430.58 Q1098.32 1430.11 1098.79 1430.11 Q1099.42 1430.11 1099.42 1430.58 Q1099.42 1430.81 1099.23 1431.42 Q1099.05 1432.03 1098.46 1432.99 Q1097.88 1433.95 1097.03 1434.79 Q1096.21 1435.61 1094.74 1436.22 Q1093.29 1436.83 1091.46 1436.83 Q1087.24 1436.83 1084.2 1433.67 Z" fill="#000000" fill-rule="nonzero" fill-opacity="1" /><path clip-path="url(#clip120)" d="M1105.01 1433.72 Q1101.85 1430.58 1101.85 1426.03 Q1101.85 1421.47 1104.94 1418.14 Q1108.06 1414.79 1112.51 1414.79 Q1116.87 1414.79 1119.98 1418.12 Q1123.12 1421.42 1123.12 1426.03 Q1123.12 1430.55 1119.96 1433.69 Q1116.82 1436.83 1112.46 1436.83 Q1108.2 1436.83 1105.01 1433.72 M1105.83 1425.63 Q1105.83 1430.3 1107.05 1432.4 Q1108.93 1435.61 1112.51 1435.61 Q1114.29 1435.61 1115.76 1434.65 Q1117.26 1433.69 1118.08 1432.08 Q1119.14 1429.97 1119.14 1425.63 Q1119.14 1421.02 1117.87 1418.98 Q1116 1415.87 1112.46 1415.87 Q1110.92 1415.87 1109.39 1416.69 Q1107.89 1417.48 1106.98 1419.08 Q1105.83 1421.18 1105.83 1425.63 Z" fill="#000000" fill-rule="nonzero" fill-opacity="1" /><path clip-path="url(#clip120)" d="M1125.6 1435.66 L1125.6 1429.34 Q1125.6 1428.8 1125.62 1428.61 Q1125.65 1428.42 1125.79 1428.28 Q1125.93 1428.14 1126.21 1428.14 Q1126.54 1428.14 1126.66 1428.28 Q1126.8 1428.42 1126.89 1428.96 Q1127.62 1432.26 1129.16 1434.02 Q1130.73 1435.75 1133.57 1435.75 Q1136.26 1435.75 1137.62 1434.56 Q1138.98 1433.36 1138.98 1431.4 Q1138.98 1427.88 1133.99 1426.99 Q1131.11 1426.41 1129.91 1426.03 Q1128.72 1425.63 1127.66 1424.77 Q1125.6 1423.08 1125.6 1420.69 Q1125.6 1418.3 1127.41 1416.55 Q1129.23 1414.79 1133.26 1414.79 Q1135.95 1414.79 1137.78 1416.15 Q1138.32 1415.73 1138.6 1415.38 Q1139.23 1414.79 1139.56 1414.79 Q1139.94 1414.79 1140.01 1415.05 Q1140.08 1415.28 1140.08 1415.96 L1140.08 1420.79 Q1140.08 1421.32 1140.05 1421.51 Q1140.03 1421.7 1139.89 1421.84 Q1139.75 1421.96 1139.44 1421.96 Q1138.91 1421.96 1138.88 1421.51 Q1138.51 1415.7 1133.26 1415.7 Q1130.43 1415.7 1129.16 1416.8 Q1127.9 1417.88 1127.9 1419.36 Q1127.9 1420.18 1128.27 1420.81 Q1128.67 1421.42 1129.16 1421.79 Q1129.68 1422.14 1130.61 1422.5 Q1131.55 1422.82 1132.11 1422.94 Q1132.7 1423.06 1133.8 1423.29 Q1137.64 1424.02 1139.26 1425.59 Q1141.27 1427.6 1141.27 1430.16 Q1141.27 1432.99 1139.35 1434.91 Q1137.43 1436.83 1133.57 1436.83 Q1130.45 1436.83 1128.27 1434.75 Q1127.99 1435.03 1127.78 1435.28 Q1127.57 1435.52 1127.48 1435.61 Q1127.41 1435.71 1127.38 1435.78 Q1127.36 1435.82 1127.31 1435.87 Q1126.35 1436.83 1126.12 1436.83 Q1125.74 1436.83 1125.67 1436.57 Q1125.6 1436.34 1125.6 1435.66 Z" fill="#000000" fill-rule="nonzero" fill-opacity="1" /><path clip-path="url(#clip120)" d="M1144.3 1424.3 Q1144.3 1416.2 1147.32 1409.66 Q1148.61 1406.92 1150.41 1404.62 Q1152.21 1402.33 1153.41 1401.32 Q1154.6 1400.32 1154.93 1400.32 Q1155.4 1400.32 1155.42 1400.78 Q1155.42 1401.02 1154.79 1401.6 Q1147.06 1409.47 1147.08 1424.3 Q1147.08 1439.17 1154.6 1446.74 Q1155.42 1447.56 1155.42 1447.82 Q1155.42 1448.28 1154.93 1448.28 Q1154.6 1448.28 1153.45 1447.32 Q1152.31 1446.36 1150.53 1444.16 Q1148.75 1441.96 1147.46 1439.27 Q1144.3 1432.73 1144.3 1424.3 Z" fill="#000000" fill-rule="nonzero" fill-opacity="1" /><path clip-path="url(#clip120)" d="M1184.99 1423.71 Q1184.99 1426.08 1183.77 1428.45 Q1182.55 1430.81 1180.56 1432.64 Q1178.57 1434.44 1175.85 1435.61 Q1173.13 1436.78 1170.3 1436.88 L1168.47 1444.02 Q1168.12 1445.75 1167.94 1445.94 Q1167.75 1446.13 1167.47 1446.13 Q1166.88 1446.13 1166.88 1445.59 Q1166.88 1445.43 1167.94 1441.37 L1169.06 1436.88 Q1164.8 1436.64 1162.31 1434.18 Q1159.83 1431.72 1159.83 1428.19 Q1159.83 1425.8 1161.05 1423.43 Q1162.29 1421.04 1164.28 1419.24 Q1166.3 1417.44 1169.01 1416.29 Q1171.73 1415.14 1174.52 1415.05 L1177.3 1403.97 Q1177.44 1403.34 1177.56 1403.17 Q1177.68 1403.01 1178.03 1403.01 Q1178.29 1403.01 1178.43 1403.13 Q1178.57 1403.24 1178.57 1403.36 L1178.59 1403.48 L1178.45 1404.16 L1175.76 1415.05 Q1178.15 1415.21 1180 1416.05 Q1181.85 1416.9 1182.9 1418.16 Q1183.96 1419.4 1184.47 1420.81 Q1184.99 1422.22 1184.99 1423.71 M1174.24 1416.1 Q1171.66 1416.34 1169.48 1417.6 Q1167.3 1418.87 1165.9 1420.74 Q1164.49 1422.59 1163.72 1424.81 Q1162.95 1427.02 1162.95 1429.19 Q1162.95 1430.9 1163.51 1432.22 Q1164.09 1433.53 1165.05 1434.28 Q1166.01 1435 1167.07 1435.4 Q1168.15 1435.78 1169.29 1435.82 L1174.24 1416.1 M1181.85 1422.71 Q1181.85 1419.66 1180.09 1417.95 Q1178.33 1416.24 1175.48 1416.1 L1170.53 1435.82 Q1172.62 1435.66 1174.45 1434.79 Q1176.3 1433.9 1177.63 1432.59 Q1178.97 1431.26 1179.93 1429.62 Q1180.89 1427.95 1181.36 1426.2 Q1181.85 1424.42 1181.85 1422.71 Z" fill="#000000" fill-rule="nonzero" fill-opacity="1" /><path clip-path="url(#clip120)" d="M1189.47 1447.82 Q1189.47 1447.58 1190.08 1447 Q1197.81 1439.13 1197.81 1424.3 Q1197.81 1409.43 1190.38 1401.91 Q1189.47 1401.04 1189.47 1400.78 Q1189.47 1400.32 1189.94 1400.32 Q1190.27 1400.32 1191.41 1401.28 Q1192.59 1402.24 1194.34 1404.44 Q1196.12 1406.64 1197.43 1409.33 Q1200.6 1415.87 1200.6 1424.3 Q1200.6 1432.4 1197.57 1438.94 Q1196.29 1441.68 1194.48 1443.97 Q1192.68 1446.27 1191.49 1447.28 Q1190.29 1448.28 1189.94 1448.28 Q1189.47 1448.28 1189.47 1447.82 Z" fill="#000000" fill-rule="nonzero" fill-opacity="1" /><path clip-path="url(#clip120)" d="M1222.29 1424.89 Q1221.19 1424.89 1221.19 1424.3 Q1221.19 1423.71 1222.34 1423.71 Q1222.48 1423.71 1222.71 1423.74 Q1222.97 1423.76 1223.02 1423.76 L1236.53 1423.76 L1236.53 1410.2 Q1236.53 1410.15 1236.51 1409.94 Q1236.49 1409.71 1236.49 1409.57 Q1236.49 1408.42 1237.05 1408.42 Q1237.63 1408.42 1237.63 1409.57 L1237.63 1423.76 L1251.17 1423.76 Q1251.22 1423.76 1251.45 1423.74 Q1251.69 1423.71 1251.83 1423.71 Q1252.93 1423.71 1252.93 1424.3 Q1252.95 1424.89 1251.78 1424.89 Q1251.64 1424.89 1251.43 1424.86 Q1251.22 1424.84 1251.17 1424.84 L1237.63 1424.84 L1237.63 1439.08 Q1237.63 1440.18 1237.05 1440.18 Q1236.49 1440.18 1236.49 1439.03 Q1236.49 1438.89 1236.51 1438.66 Q1236.53 1438.45 1236.53 1438.4 L1236.53 1424.84 L1223.02 1424.84 Q1222.97 1424.84 1222.69 1424.86 Q1222.43 1424.89 1222.29 1424.89 Z" fill="#000000" fill-rule="nonzero" fill-opacity="1" /><path clip-path="url(#clip120)" d="M1271.44 1426.25 L1281.96 1410.03 L1286.24 1431.55 L1287.04 1435.47 Q1287.22 1434.45 1287.75 1432.71 Q1288.33 1430.93 1288.42 1430.48 L1302.55 1376.25 Q1302.64 1375.89 1302.77 1375.32 Q1302.95 1374.69 1303.04 1374.47 Q1303.13 1374.25 1303.26 1373.8 Q1303.39 1373.35 1303.48 1373.22 Q1303.57 1373.04 1303.71 1372.73 Q1303.84 1372.42 1304.02 1372.33 Q1304.2 1372.24 1304.42 1372.06 Q1304.64 1371.88 1304.91 1371.84 Q1305.22 1371.8 1305.53 1371.75 Q1305.84 1371.71 1306.29 1371.71 L1314.27 1371.71 Q1317.07 1371.71 1317.07 1373.53 Q1317.07 1375.36 1314.36 1375.36 L1306.56 1375.36 L1288.15 1445.72 Q1287.89 1446.75 1287.66 1447.15 Q1287.49 1447.55 1286.86 1447.91 Q1286.24 1448.26 1285.12 1448.26 L1284.23 1448.26 L1278.39 1419.25 L1272.91 1427.72 L1271.44 1426.25 Z" fill="#000000" fill-rule="nonzero" fill-opacity="1" /><path clip-path="url(#clip120)" d="M1314.08 1375.4 L1709.19 1375.4 L1709.19 1371.6 L1314.08 1371.6  Z" fill="#000000" fill-rule="evenodd" fill-opacity="1"/>
<path clip-path="url(#clip120)" d="M1336.86 1422.99 Q1336.86 1426.36 1335.15 1429.66 Q1333.46 1432.94 1330.75 1435 Q1328.05 1437.06 1325.29 1437.06 Q1322.59 1437.06 1320.88 1435 Q1319.2 1432.92 1319.2 1429.52 Q1319.2 1428.33 1319.34 1427.48 Q1319.48 1426.64 1319.97 1424.67 L1323.91 1409.03 Q1324.59 1406.1 1324.59 1406.07 Q1324.59 1405.79 1324.47 1405.65 Q1324.37 1405.49 1323.81 1405.37 Q1323.25 1405.26 1322.17 1405.26 Q1321.73 1405.26 1321.52 1405.23 Q1321.33 1405.21 1321.17 1405.09 Q1321.03 1404.95 1321.03 1404.67 Q1321.03 1404.27 1321.19 1404.06 Q1321.38 1403.83 1321.52 1403.78 Q1321.66 1403.73 1321.94 1403.71 Q1322.34 1403.69 1323.67 1403.57 Q1325.01 1403.43 1326.15 1403.33 Q1327.3 1403.24 1327.79 1403.24 Q1328.08 1403.24 1328.22 1403.38 Q1328.38 1403.5 1328.38 1403.64 L1328.4 1403.76 L1324.87 1418.21 Q1327.65 1415.33 1330.49 1415.33 Q1333.32 1415.33 1335.08 1417.51 Q1336.86 1419.68 1336.86 1422.99 M1333.39 1420.88 Q1333.39 1418.65 1332.55 1417.53 Q1331.73 1416.38 1330.37 1416.38 Q1329.22 1416.38 1327.72 1417.25 Q1326.22 1418.11 1324.63 1420.22 Q1324.33 1420.62 1324.21 1420.85 Q1324.12 1421.09 1323.91 1421.89 L1322.85 1426.31 Q1322.08 1429.33 1322.08 1431.16 Q1322.08 1433.64 1322.99 1434.81 Q1323.91 1435.99 1325.29 1435.99 Q1326.74 1435.99 1328.26 1434.7 Q1329.79 1433.41 1330.96 1431.07 Q1331.68 1429.52 1332.53 1426.19 Q1333.39 1422.85 1333.39 1420.88 Z" fill="#000000" fill-rule="nonzero" fill-opacity="1" /><path clip-path="url(#clip120)" d="M1341.8 1410.22 Q1341.8 1409.61 1341.85 1409.43 Q1341.92 1409.25 1342.18 1408.97 L1348.62 1401.79 Q1352.15 1397.82 1352.15 1394.36 Q1352.15 1392.11 1350.97 1390.51 Q1349.8 1388.9 1347.66 1388.9 Q1346.18 1388.9 1344.93 1389.8 Q1343.69 1390.7 1343.11 1392.31 Q1343.21 1392.28 1343.56 1392.28 Q1344.39 1392.28 1344.85 1392.8 Q1345.33 1393.33 1345.33 1394.03 Q1345.33 1394.93 1344.74 1395.38 Q1344.16 1395.8 1343.59 1395.8 Q1343.36 1395.8 1343.05 1395.75 Q1342.75 1395.71 1342.28 1395.25 Q1341.8 1394.77 1341.8 1393.93 Q1341.8 1391.59 1343.57 1389.72 Q1345.36 1387.85 1348.08 1387.85 Q1351.16 1387.85 1353.18 1389.69 Q1355.21 1391.51 1355.21 1394.36 Q1355.21 1395.36 1354.9 1396.28 Q1354.61 1397.18 1354.2 1397.89 Q1353.8 1398.59 1352.72 1399.72 Q1351.64 1400.85 1350.77 1401.66 Q1349.9 1402.46 1347.95 1404.17 L1344.39 1407.62 L1350.44 1407.62 Q1353.39 1407.62 1353.62 1407.36 Q1353.95 1406.89 1354.36 1404.38 L1355.21 1404.38 L1354.26 1410.22 L1341.8 1410.22 Z" fill="#000000" fill-rule="nonzero" fill-opacity="1" /><path clip-path="url(#clip120)" d="M1405.17 1423.85 Q1405.45 1424.13 1405.45 1424.53 Q1405.45 1424.93 1405.17 1425.21 Q1404.89 1425.49 1404.49 1425.49 L1374.47 1425.49 Q1374.07 1425.49 1373.79 1425.21 Q1373.51 1424.93 1373.51 1424.53 Q1373.51 1424.13 1373.79 1423.85 Q1374.07 1423.57 1374.47 1423.57 L1404.49 1423.57 Q1404.89 1423.57 1405.17 1423.85 Z" fill="#000000" fill-rule="nonzero" fill-opacity="1" /><path clip-path="url(#clip120)" d="M1423.76 1424.53 Q1423.76 1416.43 1426.78 1409.89 Q1428.07 1407.15 1429.87 1404.86 Q1431.67 1402.56 1432.87 1401.55 Q1434.06 1400.55 1434.39 1400.55 Q1434.86 1400.55 1434.88 1401.02 Q1434.88 1401.25 1434.25 1401.84 Q1426.52 1409.71 1426.54 1424.53 Q1426.54 1439.41 1434.06 1446.97 Q1434.88 1447.79 1434.88 1448.05 Q1434.88 1448.52 1434.39 1448.52 Q1434.06 1448.52 1432.92 1447.56 Q1431.77 1446.6 1429.99 1444.39 Q1428.21 1442.19 1426.92 1439.5 Q1423.76 1432.96 1423.76 1424.53 Z" fill="#000000" fill-rule="nonzero" fill-opacity="1" /><path clip-path="url(#clip120)" d="M1461.26 1429.66 Q1460.63 1432.68 1459.81 1434.42 Q1458.5 1437.06 1456.27 1437.06 Q1454.59 1437.06 1453.39 1436.03 Q1452.2 1435 1451.92 1433.46 Q1448.85 1437.06 1445.66 1437.06 Q1442.85 1437.06 1441.07 1434.93 Q1439.29 1432.78 1439.29 1429.38 Q1439.29 1425.96 1440.98 1422.68 Q1442.69 1419.4 1445.38 1417.36 Q1448.08 1415.33 1450.84 1415.33 Q1453.77 1415.33 1455.27 1418.4 Q1455.38 1417.55 1455.92 1416.92 Q1456.46 1416.29 1457.28 1416.29 Q1457.91 1416.29 1458.29 1416.64 Q1458.66 1416.97 1458.66 1417.58 Q1458.66 1417.88 1458.34 1419.21 L1456.6 1425.91 L1455.55 1430.25 Q1455.15 1431.84 1455.03 1432.43 Q1454.94 1433.01 1454.94 1433.78 Q1454.94 1435.99 1456.37 1435.99 Q1457.07 1435.99 1457.63 1435.54 Q1458.19 1435.1 1458.64 1434.16 Q1459.08 1433.22 1459.37 1432.35 Q1459.65 1431.46 1460.02 1430.06 Q1460.14 1429.5 1460.23 1429.36 Q1460.35 1429.19 1460.68 1429.19 Q1461.26 1429.19 1461.26 1429.66 M1454.68 1420.6 Q1454.68 1420.39 1454.52 1419.8 Q1454.35 1419.21 1453.98 1418.4 Q1453.6 1417.58 1452.78 1416.99 Q1451.99 1416.38 1450.91 1416.38 Q1449.46 1416.38 1447.94 1417.62 Q1446.44 1418.86 1445.34 1420.97 Q1444.49 1422.66 1443.58 1426.19 Q1442.69 1429.73 1442.69 1431.49 Q1442.69 1432.57 1442.92 1433.53 Q1443.18 1434.46 1443.91 1435.24 Q1444.63 1435.99 1445.76 1435.99 Q1448.5 1435.99 1451.19 1432.59 Q1451.71 1432 1451.82 1431.77 Q1451.96 1431.51 1452.15 1430.81 L1454.54 1421.42 Q1454.68 1420.71 1454.68 1420.6 Z" fill="#000000" fill-rule="nonzero" fill-opacity="1" /><path clip-path="url(#clip120)" d="M1464.41 1435.89 L1464.41 1429.57 Q1464.41 1429.03 1464.43 1428.84 Q1464.46 1428.65 1464.6 1428.51 Q1464.74 1428.37 1465.02 1428.37 Q1465.35 1428.37 1465.47 1428.51 Q1465.61 1428.65 1465.7 1429.19 Q1466.43 1432.5 1467.97 1434.25 Q1469.54 1435.99 1472.37 1435.99 Q1475.07 1435.99 1476.43 1434.79 Q1477.79 1433.6 1477.79 1431.63 Q1477.79 1428.12 1472.8 1427.23 Q1469.92 1426.64 1468.72 1426.27 Q1467.53 1425.87 1466.47 1425 Q1464.41 1423.31 1464.41 1420.92 Q1464.41 1418.54 1466.21 1416.78 Q1468.04 1415.02 1472.07 1415.02 Q1474.76 1415.02 1476.59 1416.38 Q1477.13 1415.96 1477.41 1415.61 Q1478.04 1415.02 1478.37 1415.02 Q1478.75 1415.02 1478.82 1415.28 Q1478.89 1415.51 1478.89 1416.19 L1478.89 1421.02 Q1478.89 1421.56 1478.86 1421.74 Q1478.84 1421.93 1478.7 1422.07 Q1478.56 1422.19 1478.25 1422.19 Q1477.71 1422.19 1477.69 1421.74 Q1477.32 1415.94 1472.07 1415.94 Q1469.24 1415.94 1467.97 1417.04 Q1466.71 1418.11 1466.71 1419.59 Q1466.71 1420.41 1467.08 1421.04 Q1467.48 1421.65 1467.97 1422.03 Q1468.49 1422.38 1469.42 1422.73 Q1470.36 1423.06 1470.92 1423.17 Q1471.51 1423.29 1472.61 1423.52 Q1476.45 1424.25 1478.07 1425.82 Q1480.08 1427.83 1480.08 1430.39 Q1480.08 1433.22 1478.16 1435.14 Q1476.24 1437.06 1472.37 1437.06 Q1469.26 1437.06 1467.08 1434.98 Q1466.8 1435.26 1466.59 1435.52 Q1466.38 1435.75 1466.28 1435.84 Q1466.21 1435.94 1466.19 1436.01 Q1466.17 1436.06 1466.12 1436.1 Q1465.16 1437.06 1464.93 1437.06 Q1464.55 1437.06 1464.48 1436.81 Q1464.41 1436.57 1464.41 1435.89 Z" fill="#000000" fill-rule="nonzero" fill-opacity="1" /><path clip-path="url(#clip120)" d="M1481.95 1436.52 L1481.95 1435.05 Q1484.51 1435.05 1485.09 1434.74 Q1485.68 1434.42 1485.68 1432.87 L1485.68 1419.96 Q1485.68 1418.18 1485.07 1417.76 Q1484.48 1417.34 1482.14 1417.34 L1482.14 1415.84 L1488.84 1415.33 L1488.84 1432.92 Q1488.84 1434.35 1489.35 1434.7 Q1489.87 1435.05 1492.21 1435.05 L1492.21 1436.52 Q1487.32 1436.38 1487.22 1436.38 Q1486.57 1436.38 1481.95 1436.52 M1483.97 1406.96 Q1483.97 1406 1484.69 1405.23 Q1485.44 1404.44 1486.5 1404.44 Q1487.55 1404.44 1488.3 1405.16 Q1489.05 1405.86 1489.05 1406.99 Q1489.05 1408.09 1488.3 1408.82 Q1487.55 1409.52 1486.5 1409.52 Q1485.4 1409.52 1484.67 1408.75 Q1483.97 1407.97 1483.97 1406.96 Z" fill="#000000" fill-rule="nonzero" fill-opacity="1" /><path clip-path="url(#clip120)" d="M1495.49 1436.52 L1495.49 1435.05 Q1498.04 1435.05 1498.63 1434.74 Q1499.21 1434.42 1499.21 1432.87 L1499.21 1420.01 Q1499.21 1418.23 1498.58 1417.79 Q1497.97 1417.34 1495.49 1417.34 L1495.49 1415.84 L1502.23 1415.33 L1502.23 1420.36 Q1504.48 1415.33 1509.33 1415.33 Q1512.94 1415.33 1514.37 1417.11 Q1515.42 1418.3 1515.63 1419.64 Q1515.87 1420.97 1515.87 1424.44 L1515.87 1433.6 Q1515.91 1434.6 1516.68 1434.84 Q1517.46 1435.05 1519.61 1435.05 L1519.61 1436.52 Q1514.72 1436.38 1514.23 1436.38 Q1513.85 1436.38 1508.81 1436.52 L1508.81 1435.05 Q1511.37 1435.05 1511.95 1434.74 Q1512.56 1434.42 1512.56 1432.87 L1512.56 1421.7 Q1512.56 1419.26 1511.81 1417.83 Q1511.06 1416.38 1509 1416.38 Q1506.52 1416.38 1504.53 1418.47 Q1502.54 1420.55 1502.54 1424.06 L1502.54 1432.87 Q1502.54 1434.42 1503.12 1434.74 Q1503.73 1435.05 1506.26 1435.05 L1506.26 1436.52 Q1501.37 1436.38 1500.9 1436.38 Q1500.52 1436.38 1495.49 1436.52 Z" fill="#000000" fill-rule="nonzero" fill-opacity="1" /><path clip-path="url(#clip120)" d="M1521.84 1424.53 Q1521.84 1416.43 1524.86 1409.89 Q1526.14 1407.15 1527.95 1404.86 Q1529.75 1402.56 1530.95 1401.55 Q1532.14 1400.55 1532.47 1400.55 Q1532.94 1400.55 1532.96 1401.02 Q1532.96 1401.25 1532.33 1401.84 Q1524.6 1409.71 1524.62 1424.53 Q1524.62 1439.41 1532.14 1446.97 Q1532.96 1447.79 1532.96 1448.05 Q1532.96 1448.52 1532.47 1448.52 Q1532.14 1448.52 1530.99 1447.56 Q1529.85 1446.6 1528.07 1444.39 Q1526.29 1442.19 1525 1439.5 Q1521.84 1432.96 1521.84 1424.53 Z" fill="#000000" fill-rule="nonzero" fill-opacity="1" /><path clip-path="url(#clip120)" d="M1562.53 1423.95 Q1562.53 1426.31 1561.31 1428.68 Q1560.09 1431.04 1558.1 1432.87 Q1556.11 1434.67 1553.39 1435.84 Q1550.67 1437.02 1547.84 1437.11 L1546.01 1444.25 Q1545.66 1445.99 1545.47 1446.17 Q1545.29 1446.36 1545.01 1446.36 Q1544.42 1446.36 1544.42 1445.82 Q1544.42 1445.66 1545.47 1441.61 L1546.6 1437.11 Q1542.34 1436.88 1539.85 1434.42 Q1537.37 1431.96 1537.37 1428.42 Q1537.37 1426.03 1538.59 1423.67 Q1539.83 1421.28 1541.82 1419.47 Q1543.84 1417.67 1546.55 1416.52 Q1549.27 1415.37 1552.06 1415.28 L1554.84 1404.2 Q1554.98 1403.57 1555.1 1403.4 Q1555.22 1403.24 1555.57 1403.24 Q1555.83 1403.24 1555.97 1403.36 Q1556.11 1403.47 1556.11 1403.59 L1556.13 1403.71 L1555.99 1404.39 L1553.3 1415.28 Q1555.69 1415.44 1557.54 1416.29 Q1559.39 1417.13 1560.44 1418.4 Q1561.5 1419.64 1562.01 1421.04 Q1562.53 1422.45 1562.53 1423.95 M1551.78 1416.33 Q1549.2 1416.57 1547.02 1417.83 Q1544.84 1419.1 1543.44 1420.97 Q1542.03 1422.82 1541.26 1425.05 Q1540.49 1427.25 1540.49 1429.43 Q1540.49 1431.14 1541.05 1432.45 Q1541.63 1433.76 1542.59 1434.51 Q1543.55 1435.24 1544.61 1435.63 Q1545.69 1436.01 1546.83 1436.06 L1551.78 1416.33 M1559.39 1422.94 Q1559.39 1419.89 1557.63 1418.18 Q1555.87 1416.47 1553.02 1416.33 L1548.07 1436.06 Q1550.16 1435.89 1551.99 1435.03 Q1553.84 1434.13 1555.17 1432.82 Q1556.51 1431.49 1557.47 1429.85 Q1558.43 1428.19 1558.9 1426.43 Q1559.39 1424.65 1559.39 1422.94 Z" fill="#000000" fill-rule="nonzero" fill-opacity="1" /><path clip-path="url(#clip120)" d="M1567.01 1448.05 Q1567.01 1447.81 1567.62 1447.23 Q1575.35 1439.36 1575.35 1424.53 Q1575.35 1409.66 1567.92 1402.14 Q1567.01 1401.27 1567.01 1401.02 Q1567.01 1400.55 1567.48 1400.55 Q1567.81 1400.55 1568.95 1401.51 Q1570.13 1402.47 1571.88 1404.67 Q1573.66 1406.87 1574.97 1409.56 Q1578.14 1416.1 1578.14 1424.53 Q1578.14 1432.64 1575.11 1439.17 Q1573.83 1441.91 1572.02 1444.21 Q1570.22 1446.5 1569.02 1447.51 Q1567.83 1448.52 1567.48 1448.52 Q1567.01 1448.52 1567.01 1448.05 Z" fill="#000000" fill-rule="nonzero" fill-opacity="1" /><path clip-path="url(#clip120)" d="M1630.4 1423.85 Q1630.68 1424.13 1630.68 1424.53 Q1630.68 1424.93 1630.4 1425.21 Q1630.12 1425.49 1629.72 1425.49 L1599.69 1425.49 Q1599.29 1425.49 1599.01 1425.21 Q1598.73 1424.93 1598.73 1424.53 Q1598.73 1424.13 1599.01 1423.85 Q1599.29 1423.57 1599.69 1423.57 L1629.72 1423.57 Q1630.12 1423.57 1630.4 1423.85 Z" fill="#000000" fill-rule="nonzero" fill-opacity="1" /><path clip-path="url(#clip120)" d="M1667.46 1430.97 Q1667.65 1431.18 1667.65 1431.39 Q1667.65 1431.61 1667.18 1432.21 Q1666.74 1432.82 1665.78 1433.64 Q1664.82 1434.46 1663.57 1435.24 Q1662.33 1436.01 1660.51 1436.52 Q1658.68 1437.06 1656.76 1437.06 Q1653.18 1437.06 1651.07 1434.7 Q1648.98 1432.33 1648.98 1428.94 Q1648.98 1425.63 1650.83 1422.47 Q1652.68 1419.29 1655.68 1417.32 Q1658.68 1415.33 1661.84 1415.33 Q1664.35 1415.33 1665.92 1416.5 Q1667.49 1417.67 1667.49 1419.45 Q1667.49 1420.83 1666.69 1421.67 Q1665.89 1422.52 1664.82 1422.52 Q1664.07 1422.52 1663.55 1422.1 Q1663.04 1421.65 1663.04 1420.83 Q1663.04 1419.78 1663.9 1418.96 Q1664.23 1418.63 1664.61 1418.49 Q1665 1418.32 1665.24 1418.32 Q1665.47 1418.3 1666.01 1418.3 Q1665.52 1417.39 1664.35 1416.9 Q1663.2 1416.38 1661.89 1416.38 Q1659.94 1416.38 1658.09 1417.74 Q1656.24 1419.07 1655.12 1421.18 Q1653.99 1423.24 1653.27 1426.17 Q1652.54 1429.08 1652.54 1430.76 Q1652.54 1433.08 1653.62 1434.53 Q1654.7 1435.99 1656.85 1435.99 Q1657.27 1435.99 1657.72 1435.96 Q1658.19 1435.94 1659.36 1435.68 Q1660.55 1435.42 1661.61 1434.98 Q1662.66 1434.53 1664 1433.57 Q1665.35 1432.59 1666.43 1431.25 Q1666.81 1430.76 1667.06 1430.76 Q1667.28 1430.76 1667.46 1430.97 Z" fill="#000000" fill-rule="nonzero" fill-opacity="1" /><path clip-path="url(#clip120)" d="M1669.53 1448.05 Q1669.53 1447.81 1670.14 1447.23 Q1677.87 1439.36 1677.87 1424.53 Q1677.87 1409.66 1670.45 1402.14 Q1669.53 1401.27 1669.53 1401.02 Q1669.53 1400.55 1670 1400.55 Q1670.33 1400.55 1671.48 1401.51 Q1672.65 1402.47 1674.4 1404.67 Q1676.18 1406.87 1677.5 1409.56 Q1680.66 1416.1 1680.66 1424.53 Q1680.66 1432.64 1677.64 1439.17 Q1676.35 1441.91 1674.54 1444.21 Q1672.74 1446.5 1671.55 1447.51 Q1670.35 1448.52 1670 1448.52 Q1669.53 1448.52 1669.53 1448.05 Z" fill="#000000" fill-rule="nonzero" fill-opacity="1" /><path clip-path="url(#clip120)" d="M1685.67 1407.54 Q1685.67 1406.94 1685.72 1406.76 Q1685.78 1406.58 1686.04 1406.3 L1692.49 1399.12 Q1696.01 1395.15 1696.01 1391.69 Q1696.01 1389.44 1694.83 1387.84 Q1693.67 1386.23 1691.52 1386.23 Q1690.05 1386.23 1688.8 1387.13 Q1687.55 1388.03 1686.98 1389.64 Q1687.08 1389.61 1687.42 1389.61 Q1688.26 1389.61 1688.72 1390.13 Q1689.19 1390.66 1689.19 1391.36 Q1689.19 1392.26 1688.6 1392.71 Q1688.03 1393.13 1687.45 1393.13 Q1687.23 1393.13 1686.91 1393.08 Q1686.62 1393.03 1686.14 1392.57 Q1685.67 1392.1 1685.67 1391.26 Q1685.67 1388.92 1687.44 1387.05 Q1689.23 1385.18 1691.95 1385.18 Q1695.03 1385.18 1697.05 1387.02 Q1699.08 1388.84 1699.08 1391.69 Q1699.08 1392.69 1698.77 1393.61 Q1698.47 1394.51 1698.06 1395.21 Q1697.67 1395.92 1696.59 1397.05 Q1695.5 1398.18 1694.64 1398.99 Q1693.77 1399.79 1691.82 1401.49 L1688.26 1404.95 L1694.31 1404.95 Q1697.26 1404.95 1697.49 1404.69 Q1697.82 1404.22 1698.23 1401.71 L1699.08 1401.71 L1698.13 1407.54 L1685.67 1407.54 Z" fill="#000000" fill-rule="nonzero" fill-opacity="1" /></svg>