<?xml version="1.0" encoding="utf-8"?>
<svg xmlns="http://www.w3.org/2000/svg" xmlns:xlink="http://www.w3.org/1999/xlink" width="600" height="400" viewBox="0 0 2400 1600">
<defs>
  <clipPath id="clip480">
    <rect x="0" y="0" width="2400" height="1600"/>
  </clipPath>
</defs>
<path clip-path="url(#clip480)" d="M0 1600 L2400 1600 L2400 0 L0 0  Z" fill="#ffffff" fill-rule="evenodd" fill-opacity="1"/>
<defs>
  <clipPath id="clip481">
    <rect x="480" y="0" width="1681" height="1600"/>
  </clipPath>
</defs>
<path clip-path="url(#clip480)" d="M178.867 1486.45 L2352.76 1486.45 L2352.76 47.2441 L178.867 47.2441  Z" fill="#ffffff" fill-rule="evenodd" fill-opacity="1"/>
<defs>
  <clipPath id="clip482">
    <rect x="178" y="47" width="2175" height="1440"/>
  </clipPath>
</defs>
<polyline clip-path="url(#clip482)" style="stroke:#000000; stroke-linecap:round; stroke-linejoin:round; stroke-width:2; stroke-opacity:0.1; fill:none" points="240.392,1486.45 240.392,47.2441 "/>
<polyline clip-path="url(#clip482)" style="stroke:#000000; stroke-linecap:round; stroke-linejoin:round; stroke-width:2; stroke-opacity:0.1; fill:none" points="753.102,1486.45 753.102,47.2441 "/>
<polyline clip-path="url(#clip482)" style="stroke:#000000; stroke-linecap:round; stroke-linejoin:round; stroke-width:2; stroke-opacity:0.1; fill:none" points="1265.81,1486.45 1265.81,47.2441 "/>
<polyline clip-path="url(#clip482)" style="stroke:#000000; stroke-linecap:round; stroke-linejoin:round; stroke-width:2; stroke-opacity:0.1; fill:none" points="1778.52,1486.45 1778.52,47.2441 "/>
<polyline clip-path="url(#clip482)" style="stroke:#000000; stroke-linecap:round; stroke-linejoin:round; stroke-width:2; stroke-opacity:0.1; fill:none" points="2291.23,1486.45 2291.23,47.2441 "/>
<polyline clip-path="url(#clip480)" style="stroke:#000000; stroke-linecap:round; stroke-linejoin:round; stroke-width:4; stroke-opacity:1; fill:none" points="178.867,1486.45 2352.76,1486.45 "/>
<polyline clip-path="url(#clip480)" style="stroke:#000000; stroke-linecap:round; stroke-linejoin:round; stroke-width:4; stroke-opacity:1; fill:none" points="240.392,1486.45 240.392,1467.55 "/>
<polyline clip-path="url(#clip480)" style="stroke:#000000; stroke-linecap:round; stroke-linejoin:round; stroke-width:4; stroke-opacity:1; fill:none" points="753.102,1486.45 753.102,1467.55 "/>
<polyline clip-path="url(#clip480)" style="stroke:#000000; stroke-linecap:round; stroke-linejoin:round; stroke-width:4; stroke-opacity:1; fill:none" points="1265.81,1486.45 1265.81,1467.55 "/>
<polyline clip-path="url(#clip480)" style="stroke:#000000; stroke-linecap:round; stroke-linejoin:round; stroke-width:4; stroke-opacity:1; fill:none" points="1778.52,1486.45 1778.52,1467.55 "/>
<polyline clip-path="url(#clip480)" style="stroke:#000000; stroke-linecap:round; stroke-linejoin:round; stroke-width:4; stroke-opacity:1; fill:none" points="2291.23,1486.45 2291.23,1467.55 "/>
<path clip-path="url(#clip480)" d="M194.455 1532.02 L224.13 1532.02 L224.13 1535.95 L194.455 1535.95 L194.455 1532.02 Z" fill="#000000" fill-rule="nonzero" fill-opacity="1" /><path clip-path="url(#clip480)" d="M235.033 1544.91 L242.672 1544.91 L242.672 1518.55 L234.362 1520.21 L234.362 1515.95 L242.626 1514.29 L247.301 1514.29 L247.301 1544.91 L254.94 1544.91 L254.94 1548.85 L235.033 1548.85 L235.033 1544.91 Z" fill="#000000" fill-rule="nonzero" fill-opacity="1" /><path clip-path="url(#clip480)" d="M274.385 1517.37 Q270.774 1517.37 268.945 1520.93 Q267.139 1524.47 267.139 1531.6 Q267.139 1538.71 268.945 1542.27 Q270.774 1545.82 274.385 1545.82 Q278.019 1545.82 279.824 1542.27 Q281.653 1538.71 281.653 1531.6 Q281.653 1524.47 279.824 1520.93 Q278.019 1517.37 274.385 1517.37 M274.385 1513.66 Q280.195 1513.66 283.25 1518.27 Q286.329 1522.85 286.329 1531.6 Q286.329 1540.33 283.25 1544.94 Q280.195 1549.52 274.385 1549.52 Q268.575 1549.52 265.496 1544.94 Q262.44 1540.33 262.44 1531.6 Q262.44 1522.85 265.496 1518.27 Q268.575 1513.66 274.385 1513.66 Z" fill="#000000" fill-rule="nonzero" fill-opacity="1" /><path clip-path="url(#clip480)" d="M722.743 1532.02 L752.419 1532.02 L752.419 1535.95 L722.743 1535.95 L722.743 1532.02 Z" fill="#000000" fill-rule="nonzero" fill-opacity="1" /><path clip-path="url(#clip480)" d="M762.558 1514.29 L780.914 1514.29 L780.914 1518.22 L766.84 1518.22 L766.84 1526.7 Q767.858 1526.35 768.877 1526.19 Q769.895 1526 770.914 1526 Q776.701 1526 780.081 1529.17 Q783.46 1532.34 783.46 1537.76 Q783.46 1543.34 779.988 1546.44 Q776.516 1549.52 770.196 1549.52 Q768.02 1549.52 765.752 1549.15 Q763.507 1548.78 761.099 1548.04 L761.099 1543.34 Q763.183 1544.47 765.405 1545.03 Q767.627 1545.58 770.104 1545.58 Q774.108 1545.58 776.446 1543.48 Q778.784 1541.37 778.784 1537.76 Q778.784 1534.15 776.446 1532.04 Q774.108 1529.94 770.104 1529.94 Q768.229 1529.94 766.354 1530.35 Q764.502 1530.77 762.558 1531.65 L762.558 1514.29 Z" fill="#000000" fill-rule="nonzero" fill-opacity="1" /><path clip-path="url(#clip480)" d="M1265.81 1517.37 Q1262.2 1517.37 1260.37 1520.93 Q1258.57 1524.47 1258.57 1531.6 Q1258.57 1538.71 1260.37 1542.27 Q1262.2 1545.82 1265.81 1545.82 Q1269.45 1545.82 1271.25 1542.27 Q1273.08 1538.71 1273.08 1531.6 Q1273.08 1524.47 1271.25 1520.93 Q1269.45 1517.37 1265.81 1517.37 M1265.81 1513.66 Q1271.62 1513.66 1274.68 1518.27 Q1277.76 1522.85 1277.76 1531.6 Q1277.76 1540.33 1274.68 1544.94 Q1271.62 1549.52 1265.81 1549.52 Q1260 1549.52 1256.92 1544.94 Q1253.87 1540.33 1253.87 1531.6 Q1253.87 1522.85 1256.92 1518.27 Q1260 1513.66 1265.81 1513.66 Z" fill="#000000" fill-rule="nonzero" fill-opacity="1" /><path clip-path="url(#clip480)" d="M1768.8 1514.29 L1787.16 1514.29 L1787.16 1518.22 L1773.08 1518.22 L1773.08 1526.7 Q1774.1 1526.35 1775.12 1526.19 Q1776.14 1526 1777.16 1526 Q1782.94 1526 1786.32 1529.17 Q1789.7 1532.34 1789.7 1537.76 Q1789.7 1543.34 1786.23 1546.44 Q1782.76 1549.52 1776.44 1549.52 Q1774.26 1549.52 1771.99 1549.15 Q1769.75 1548.78 1767.34 1548.04 L1767.34 1543.34 Q1769.42 1544.47 1771.65 1545.03 Q1773.87 1545.58 1776.35 1545.58 Q1780.35 1545.58 1782.69 1543.48 Q1785.03 1541.37 1785.03 1537.76 Q1785.03 1534.15 1782.69 1532.04 Q1780.35 1529.94 1776.35 1529.94 Q1774.47 1529.94 1772.6 1530.35 Q1770.74 1530.77 1768.8 1531.65 L1768.8 1514.29 Z" fill="#000000" fill-rule="nonzero" fill-opacity="1" /><path clip-path="url(#clip480)" d="M2265.92 1544.91 L2273.56 1544.91 L2273.56 1518.55 L2265.25 1520.21 L2265.25 1515.95 L2273.51 1514.29 L2278.19 1514.29 L2278.19 1544.91 L2285.83 1544.91 L2285.83 1548.85 L2265.92 1548.85 L2265.92 1544.91 Z" fill="#000000" fill-rule="nonzero" fill-opacity="1" /><path clip-path="url(#clip480)" d="M2305.27 1517.37 Q2301.66 1517.37 2299.83 1520.93 Q2298.02 1524.47 2298.02 1531.6 Q2298.02 1538.71 2299.83 1542.27 Q2301.66 1545.82 2305.27 1545.82 Q2308.9 1545.82 2310.71 1542.27 Q2312.54 1538.71 2312.54 1531.6 Q2312.54 1524.47 2310.71 1520.93 Q2308.9 1517.37 2305.27 1517.37 M2305.27 1513.66 Q2311.08 1513.66 2314.14 1518.27 Q2317.21 1522.85 2317.21 1531.6 Q2317.21 1540.33 2314.14 1544.94 Q2311.08 1549.52 2305.27 1549.52 Q2299.46 1549.52 2296.38 1544.94 Q2293.33 1540.33 2293.33 1531.6 Q2293.33 1522.85 2296.38 1518.27 Q2299.46 1513.66 2305.27 1513.66 Z" fill="#000000" fill-rule="nonzero" fill-opacity="1" /><polyline clip-path="url(#clip482)" style="stroke:#000000; stroke-linecap:round; stroke-linejoin:round; stroke-width:2; stroke-opacity:0.1; fill:none" points="178.867,1479.66 2352.76,1479.66 "/>
<polyline clip-path="url(#clip482)" style="stroke:#000000; stroke-linecap:round; stroke-linejoin:round; stroke-width:2; stroke-opacity:0.1; fill:none" points="178.867,1140.22 2352.76,1140.22 "/>
<polyline clip-path="url(#clip482)" style="stroke:#000000; stroke-linecap:round; stroke-linejoin:round; stroke-width:2; stroke-opacity:0.1; fill:none" points="178.867,800.789 2352.76,800.789 "/>
<polyline clip-path="url(#clip482)" style="stroke:#000000; stroke-linecap:round; stroke-linejoin:round; stroke-width:2; stroke-opacity:0.1; fill:none" points="178.867,461.355 2352.76,461.355 "/>
<polyline clip-path="url(#clip482)" style="stroke:#000000; stroke-linecap:round; stroke-linejoin:round; stroke-width:2; stroke-opacity:0.1; fill:none" points="178.867,121.92 2352.76,121.92 "/>
<polyline clip-path="url(#clip480)" style="stroke:#000000; stroke-linecap:round; stroke-linejoin:round; stroke-width:4; stroke-opacity:1; fill:none" points="178.867,1486.45 178.867,47.2441 "/>
<polyline clip-path="url(#clip480)" style="stroke:#000000; stroke-linecap:round; stroke-linejoin:round; stroke-width:4; stroke-opacity:1; fill:none" points="178.867,1479.66 197.764,1479.66 "/>
<polyline clip-path="url(#clip480)" style="stroke:#000000; stroke-linecap:round; stroke-linejoin:round; stroke-width:4; stroke-opacity:1; fill:none" points="178.867,1140.22 197.764,1140.22 "/>
<polyline clip-path="url(#clip480)" style="stroke:#000000; stroke-linecap:round; stroke-linejoin:round; stroke-width:4; stroke-opacity:1; fill:none" points="178.867,800.789 197.764,800.789 "/>
<polyline clip-path="url(#clip480)" style="stroke:#000000; stroke-linecap:round; stroke-linejoin:round; stroke-width:4; stroke-opacity:1; fill:none" points="178.867,461.355 197.764,461.355 "/>
<polyline clip-path="url(#clip480)" style="stroke:#000000; stroke-linecap:round; stroke-linejoin:round; stroke-width:4; stroke-opacity:1; fill:none" points="178.867,121.92 197.764,121.92 "/>
<path clip-path="url(#clip480)" d="M50.9921 1480.11 L80.6679 1480.11 L80.6679 1484.05 L50.9921 1484.05 L50.9921 1480.11 Z" fill="#000000" fill-rule="nonzero" fill-opacity="1" /><path clip-path="url(#clip480)" d="M94.7882 1493 L111.108 1493 L111.108 1496.94 L89.1632 1496.94 L89.1632 1493 Q91.8252 1490.25 96.4085 1485.62 Q101.015 1480.97 102.196 1479.62 Q104.441 1477.1 105.321 1475.37 Q106.223 1473.61 106.223 1471.92 Q106.223 1469.16 104.279 1467.43 Q102.358 1465.69 99.2558 1465.69 Q97.0567 1465.69 94.603 1466.45 Q92.1725 1467.22 89.3947 1468.77 L89.3947 1464.05 Q92.2188 1462.91 94.6724 1462.33 Q97.1261 1461.75 99.1632 1461.75 Q104.534 1461.75 107.728 1464.44 Q110.922 1467.12 110.922 1471.62 Q110.922 1473.74 110.112 1475.67 Q109.325 1477.56 107.219 1480.16 Q106.64 1480.83 103.538 1484.05 Q100.436 1487.24 94.7882 1493 Z" fill="#000000" fill-rule="nonzero" fill-opacity="1" /><path clip-path="url(#clip480)" d="M130.922 1465.46 Q127.311 1465.46 125.482 1469.02 Q123.677 1472.56 123.677 1479.69 Q123.677 1486.8 125.482 1490.37 Q127.311 1493.91 130.922 1493.91 Q134.556 1493.91 136.362 1490.37 Q138.191 1486.8 138.191 1479.69 Q138.191 1472.56 136.362 1469.02 Q134.556 1465.46 130.922 1465.46 M130.922 1461.75 Q136.732 1461.75 139.788 1466.36 Q142.867 1470.94 142.867 1479.69 Q142.867 1488.42 139.788 1493.03 Q136.732 1497.61 130.922 1497.61 Q125.112 1497.61 122.033 1493.03 Q118.978 1488.42 118.978 1479.69 Q118.978 1470.94 122.033 1466.36 Q125.112 1461.75 130.922 1461.75 Z" fill="#000000" fill-rule="nonzero" fill-opacity="1" /><path clip-path="url(#clip480)" d="M50.9921 1140.68 L80.6679 1140.68 L80.6679 1144.61 L50.9921 1144.61 L50.9921 1140.68 Z" fill="#000000" fill-rule="nonzero" fill-opacity="1" /><path clip-path="url(#clip480)" d="M91.5706 1153.57 L99.2095 1153.57 L99.2095 1127.2 L90.8993 1128.87 L90.8993 1124.61 L99.1632 1122.94 L103.839 1122.94 L103.839 1153.57 L111.478 1153.57 L111.478 1157.5 L91.5706 1157.5 L91.5706 1153.57 Z" fill="#000000" fill-rule="nonzero" fill-opacity="1" /><path clip-path="url(#clip480)" d="M130.922 1126.02 Q127.311 1126.02 125.482 1129.59 Q123.677 1133.13 123.677 1140.26 Q123.677 1147.37 125.482 1150.93 Q127.311 1154.47 130.922 1154.47 Q134.556 1154.47 136.362 1150.93 Q138.191 1147.37 138.191 1140.26 Q138.191 1133.13 136.362 1129.59 Q134.556 1126.02 130.922 1126.02 M130.922 1122.32 Q136.732 1122.32 139.788 1126.93 Q142.867 1131.51 142.867 1140.26 Q142.867 1148.99 139.788 1153.59 Q136.732 1158.18 130.922 1158.18 Q125.112 1158.18 122.033 1153.59 Q118.978 1148.99 118.978 1140.26 Q118.978 1131.51 122.033 1126.93 Q125.112 1122.32 130.922 1122.32 Z" fill="#000000" fill-rule="nonzero" fill-opacity="1" /><path clip-path="url(#clip480)" d="M130.922 786.588 Q127.311 786.588 125.482 790.153 Q123.677 793.695 123.677 800.824 Q123.677 807.931 125.482 811.495 Q127.311 815.037 130.922 815.037 Q134.556 815.037 136.362 811.495 Q138.191 807.931 138.191 800.824 Q138.191 793.695 136.362 790.153 Q134.556 786.588 130.922 786.588 M130.922 782.884 Q136.732 782.884 139.788 787.491 Q142.867 792.074 142.867 800.824 Q142.867 809.551 139.788 814.157 Q136.732 818.741 130.922 818.741 Q125.112 818.741 122.033 814.157 Q118.978 809.551 118.978 800.824 Q118.978 792.074 122.033 787.491 Q125.112 782.884 130.922 782.884 Z" fill="#000000" fill-rule="nonzero" fill-opacity="1" /><path clip-path="url(#clip480)" d="M91.5706 474.699 L99.2095 474.699 L99.2095 448.334 L90.8993 450.001 L90.8993 445.741 L99.1632 444.075 L103.839 444.075 L103.839 474.699 L111.478 474.699 L111.478 478.635 L91.5706 478.635 L91.5706 474.699 Z" fill="#000000" fill-rule="nonzero" fill-opacity="1" /><path clip-path="url(#clip480)" d="M130.922 447.153 Q127.311 447.153 125.482 450.718 Q123.677 454.26 123.677 461.389 Q123.677 468.496 125.482 472.061 Q127.311 475.602 130.922 475.602 Q134.556 475.602 136.362 472.061 Q138.191 468.496 138.191 461.389 Q138.191 454.26 136.362 450.718 Q134.556 447.153 130.922 447.153 M130.922 443.45 Q136.732 443.45 139.788 448.056 Q142.867 452.639 142.867 461.389 Q142.867 470.116 139.788 474.723 Q136.732 479.306 130.922 479.306 Q125.112 479.306 122.033 474.723 Q118.978 470.116 118.978 461.389 Q118.978 452.639 122.033 448.056 Q125.112 443.45 130.922 443.45 Z" fill="#000000" fill-rule="nonzero" fill-opacity="1" /><path clip-path="url(#clip480)" d="M94.7882 135.265 L111.108 135.265 L111.108 139.2 L89.1632 139.2 L89.1632 135.265 Q91.8252 132.51 96.4085 127.88 Q101.015 123.228 102.196 121.885 Q104.441 119.362 105.321 117.626 Q106.223 115.867 106.223 114.177 Q106.223 111.422 104.279 109.686 Q102.358 107.95 99.2558 107.95 Q97.0567 107.95 94.603 108.714 Q92.1725 109.478 89.3947 111.029 L89.3947 106.306 Q92.2188 105.172 94.6724 104.593 Q97.1261 104.015 99.1632 104.015 Q104.534 104.015 107.728 106.7 Q110.922 109.385 110.922 113.876 Q110.922 116.005 110.112 117.927 Q109.325 119.825 107.219 122.417 Q106.64 123.089 103.538 126.306 Q100.436 129.501 94.7882 135.265 Z" fill="#000000" fill-rule="nonzero" fill-opacity="1" /><path clip-path="url(#clip480)" d="M130.922 107.718 Q127.311 107.718 125.482 111.283 Q123.677 114.825 123.677 121.954 Q123.677 129.061 125.482 132.626 Q127.311 136.167 130.922 136.167 Q134.556 136.167 136.362 132.626 Q138.191 129.061 138.191 121.954 Q138.191 114.825 136.362 111.283 Q134.556 107.718 130.922 107.718 M130.922 104.015 Q136.732 104.015 139.788 108.621 Q142.867 113.205 142.867 121.954 Q142.867 130.681 139.788 135.288 Q136.732 139.871 130.922 139.871 Q125.112 139.871 122.033 135.288 Q118.978 130.681 118.978 121.954 Q118.978 113.205 122.033 108.621 Q125.112 104.015 130.922 104.015 Z" fill="#000000" fill-rule="nonzero" fill-opacity="1" /><polyline clip-path="url(#clip482)" style="stroke:#009af9; stroke-linecap:round; stroke-linejoin:round; stroke-width:4; stroke-opacity:1; fill:none" points="240.392,1445.72 342.934,1377.83 445.476,1309.94 548.018,1242.05 650.56,1174.17 753.102,1106.28 855.643,1038.39 958.185,970.507 1060.73,902.62 1163.27,834.733 1265.81,766.846 1368.35,698.959 1470.9,631.072 1573.44,563.185 1675.98,495.298 1778.52,427.411 1881.06,359.524 1983.6,291.637 2086.15,223.75 2188.69,155.863 2291.23,87.9763 "/>
<path clip-path="url(#clip480)" d="M251.33 198.898 L719.088 198.898 L719.088 95.2176 L251.33 95.2176  Z" fill="#ffffff" fill-rule="evenodd" fill-opacity="1"/>
<polyline clip-path="url(#clip480)" style="stroke:#000000; stroke-linecap:round; stroke-linejoin:round; stroke-width:4; stroke-opacity:1; fill:none" points="251.33,198.898 719.088,198.898 719.088,95.2176 251.33,95.2176 251.33,198.898 "/>
<polyline clip-path="url(#clip480)" style="stroke:#009af9; stroke-linecap:round; stroke-linejoin:round; stroke-width:4; stroke-opacity:1; fill:none" points="275.484,147.058 420.41,147.058 "/>
<path clip-path="url(#clip480)" d="M458.407 166.745 Q456.601 171.375 454.888 172.787 Q453.175 174.199 450.305 174.199 L446.902 174.199 L446.902 170.634 L449.402 170.634 Q451.161 170.634 452.134 169.8 Q453.106 168.967 454.286 165.865 L455.05 163.921 L444.564 138.412 L449.078 138.412 L457.18 158.689 L465.282 138.412 L469.796 138.412 L458.407 166.745 Z" fill="#000000" fill-rule="nonzero" fill-opacity="1" /><path clip-path="url(#clip480)" d="M491.3 142.81 L520.976 142.81 L520.976 146.699 L491.3 146.699 L491.3 142.81 M491.3 152.254 L520.976 152.254 L520.976 156.189 L491.3 156.189 L491.3 152.254 Z" fill="#000000" fill-rule="nonzero" fill-opacity="1" /><path clip-path="url(#clip480)" d="M550.165 160.402 L566.485 160.402 L566.485 164.338 L544.541 164.338 L544.541 160.402 Q547.203 157.648 551.786 153.018 Q556.392 148.365 557.573 147.023 Q559.818 144.5 560.698 142.764 Q561.601 141.004 561.601 139.315 Q561.601 136.56 559.656 134.824 Q557.735 133.088 554.633 133.088 Q552.434 133.088 549.98 133.852 Q547.55 134.615 544.772 136.166 L544.772 131.444 Q547.596 130.31 550.05 129.731 Q552.503 129.153 554.54 129.153 Q559.911 129.153 563.105 131.838 Q566.3 134.523 566.3 139.014 Q566.3 141.143 565.489 143.065 Q564.702 144.963 562.596 147.555 Q562.017 148.227 558.915 151.444 Q555.814 154.639 550.165 160.402 Z" fill="#000000" fill-rule="nonzero" fill-opacity="1" /><path clip-path="url(#clip480)" d="M597.249 138.412 L587.874 151.027 L597.735 164.338 L592.712 164.338 L585.165 154.152 L577.619 164.338 L572.596 164.338 L582.665 150.773 L573.452 138.412 L578.476 138.412 L585.35 147.648 L592.225 138.412 L597.249 138.412 Z" fill="#000000" fill-rule="nonzero" fill-opacity="1" /><path clip-path="url(#clip480)" d="M636.16 134.615 L636.16 147.509 L649.054 147.509 L649.054 151.444 L636.16 151.444 L636.16 164.338 L632.272 164.338 L632.272 151.444 L619.378 151.444 L619.378 147.509 L632.272 147.509 L632.272 134.615 L636.16 134.615 Z" fill="#000000" fill-rule="nonzero" fill-opacity="1" /><path clip-path="url(#clip480)" d="M675.026 160.402 L682.665 160.402 L682.665 134.037 L674.355 135.703 L674.355 131.444 L682.618 129.778 L687.294 129.778 L687.294 160.402 L694.933 160.402 L694.933 164.338 L675.026 164.338 L675.026 160.402 Z" fill="#000000" fill-rule="nonzero" fill-opacity="1" /></svg>