<?xml version="1.0" encoding="utf-8"?>
<svg xmlns="http://www.w3.org/2000/svg" xmlns:xlink="http://www.w3.org/1999/xlink" width="600" height="400" viewBox="0 0 2400 1600">
<defs>
  <clipPath id="clip300">
    <rect x="0" y="0" width="2400" height="1600"/>
  </clipPath>
</defs>
<path clip-path="url(#clip300)" d="M0 1600 L2400 1600 L2400 0 L0 0  Z" fill="#ffffff" fill-rule="evenodd" fill-opacity="1"/>
<defs>
  <clipPath id="clip301">
    <rect x="480" y="0" width="1681" height="1600"/>
  </clipPath>
</defs>
<path clip-path="url(#clip300)" d="M194.422 1486.45 L2352.76 1486.45 L2352.76 47.2441 L194.422 47.2441  Z" fill="#ffffff" fill-rule="evenodd" fill-opacity="1"/>
<defs>
  <clipPath id="clip302">
    <rect x="194" y="47" width="2159" height="1440"/>
  </clipPath>
</defs>
<polyline clip-path="url(#clip302)" style="stroke:#000000; stroke-linecap:round; stroke-linejoin:round; stroke-width:2; stroke-opacity:0.1; fill:none" points="255.507,1486.45 255.507,47.2441 "/>
<polyline clip-path="url(#clip302)" style="stroke:#000000; stroke-linecap:round; stroke-linejoin:round; stroke-width:2; stroke-opacity:0.1; fill:none" points="615.487,1486.45 615.487,47.2441 "/>
<polyline clip-path="url(#clip302)" style="stroke:#000000; stroke-linecap:round; stroke-linejoin:round; stroke-width:2; stroke-opacity:0.1; fill:none" points="975.468,1486.45 975.468,47.2441 "/>
<polyline clip-path="url(#clip302)" style="stroke:#000000; stroke-linecap:round; stroke-linejoin:round; stroke-width:2; stroke-opacity:0.1; fill:none" points="1335.45,1486.45 1335.45,47.2441 "/>
<polyline clip-path="url(#clip302)" style="stroke:#000000; stroke-linecap:round; stroke-linejoin:round; stroke-width:2; stroke-opacity:0.1; fill:none" points="1695.43,1486.45 1695.43,47.2441 "/>
<polyline clip-path="url(#clip302)" style="stroke:#000000; stroke-linecap:round; stroke-linejoin:round; stroke-width:2; stroke-opacity:0.1; fill:none" points="2055.41,1486.45 2055.41,47.2441 "/>
<polyline clip-path="url(#clip300)" style="stroke:#000000; stroke-linecap:round; stroke-linejoin:round; stroke-width:4; stroke-opacity:1; fill:none" points="194.422,1486.45 2352.76,1486.45 "/>
<polyline clip-path="url(#clip300)" style="stroke:#000000; stroke-linecap:round; stroke-linejoin:round; stroke-width:4; stroke-opacity:1; fill:none" points="255.507,1486.45 255.507,1467.55 "/>
<polyline clip-path="url(#clip300)" style="stroke:#000000; stroke-linecap:round; stroke-linejoin:round; stroke-width:4; stroke-opacity:1; fill:none" points="615.487,1486.45 615.487,1467.55 "/>
<polyline clip-path="url(#clip300)" style="stroke:#000000; stroke-linecap:round; stroke-linejoin:round; stroke-width:4; stroke-opacity:1; fill:none" points="975.468,1486.45 975.468,1467.55 "/>
<polyline clip-path="url(#clip300)" style="stroke:#000000; stroke-linecap:round; stroke-linejoin:round; stroke-width:4; stroke-opacity:1; fill:none" points="1335.45,1486.45 1335.45,1467.55 "/>
<polyline clip-path="url(#clip300)" style="stroke:#000000; stroke-linecap:round; stroke-linejoin:round; stroke-width:4; stroke-opacity:1; fill:none" points="1695.43,1486.45 1695.43,1467.55 "/>
<polyline clip-path="url(#clip300)" style="stroke:#000000; stroke-linecap:round; stroke-linejoin:round; stroke-width:4; stroke-opacity:1; fill:none" points="2055.41,1486.45 2055.41,1467.55 "/>
<path clip-path="url(#clip300)" d="M217.81 1517.37 Q214.199 1517.37 212.371 1520.93 Q210.565 1524.47 210.565 1531.6 Q210.565 1538.71 212.371 1542.27 Q214.199 1545.82 217.81 1545.82 Q221.445 1545.82 223.25 1542.27 Q225.079 1538.71 225.079 1531.6 Q225.079 1524.47 223.25 1520.93 Q221.445 1517.37 217.81 1517.37 M217.81 1513.66 Q223.621 1513.66 226.676 1518.27 Q229.755 1522.85 229.755 1531.6 Q229.755 1540.33 226.676 1544.94 Q223.621 1549.52 217.81 1549.52 Q212 1549.52 208.922 1544.94 Q205.866 1540.33 205.866 1531.6 Q205.866 1522.85 208.922 1518.27 Q212 1513.66 217.81 1513.66 Z" fill="#000000" fill-rule="nonzero" fill-opacity="1" /><path clip-path="url(#clip300)" d="M237.972 1542.97 L242.857 1542.97 L242.857 1548.85 L237.972 1548.85 L237.972 1542.97 Z" fill="#000000" fill-rule="nonzero" fill-opacity="1" /><path clip-path="url(#clip300)" d="M263.042 1517.37 Q259.431 1517.37 257.602 1520.93 Q255.796 1524.47 255.796 1531.6 Q255.796 1538.71 257.602 1542.27 Q259.431 1545.82 263.042 1545.82 Q266.676 1545.82 268.481 1542.27 Q270.31 1538.71 270.31 1531.6 Q270.31 1524.47 268.481 1520.93 Q266.676 1517.37 263.042 1517.37 M263.042 1513.66 Q268.852 1513.66 271.907 1518.27 Q274.986 1522.85 274.986 1531.6 Q274.986 1540.33 271.907 1544.94 Q268.852 1549.52 263.042 1549.52 Q257.232 1549.52 254.153 1544.94 Q251.097 1540.33 251.097 1531.6 Q251.097 1522.85 254.153 1518.27 Q257.232 1513.66 263.042 1513.66 Z" fill="#000000" fill-rule="nonzero" fill-opacity="1" /><path clip-path="url(#clip300)" d="M293.204 1517.37 Q289.592 1517.37 287.764 1520.93 Q285.958 1524.47 285.958 1531.6 Q285.958 1538.71 287.764 1542.27 Q289.592 1545.82 293.204 1545.82 Q296.838 1545.82 298.643 1542.27 Q300.472 1538.71 300.472 1531.6 Q300.472 1524.47 298.643 1520.93 Q296.838 1517.37 293.204 1517.37 M293.204 1513.66 Q299.014 1513.66 302.069 1518.27 Q305.148 1522.85 305.148 1531.6 Q305.148 1540.33 302.069 1544.94 Q299.014 1549.52 293.204 1549.52 Q287.393 1549.52 284.315 1544.94 Q281.259 1540.33 281.259 1531.6 Q281.259 1522.85 284.315 1518.27 Q287.393 1513.66 293.204 1513.66 Z" fill="#000000" fill-rule="nonzero" fill-opacity="1" /><path clip-path="url(#clip300)" d="M578.288 1517.37 Q574.677 1517.37 572.849 1520.93 Q571.043 1524.47 571.043 1531.6 Q571.043 1538.71 572.849 1542.27 Q574.677 1545.82 578.288 1545.82 Q581.923 1545.82 583.728 1542.27 Q585.557 1538.71 585.557 1531.6 Q585.557 1524.47 583.728 1520.93 Q581.923 1517.37 578.288 1517.37 M578.288 1513.66 Q584.099 1513.66 587.154 1518.27 Q590.233 1522.85 590.233 1531.6 Q590.233 1540.33 587.154 1544.94 Q584.099 1549.52 578.288 1549.52 Q572.478 1549.52 569.4 1544.94 Q566.344 1540.33 566.344 1531.6 Q566.344 1522.85 569.4 1518.27 Q572.478 1513.66 578.288 1513.66 Z" fill="#000000" fill-rule="nonzero" fill-opacity="1" /><path clip-path="url(#clip300)" d="M598.45 1542.97 L603.335 1542.97 L603.335 1548.85 L598.45 1548.85 L598.45 1542.97 Z" fill="#000000" fill-rule="nonzero" fill-opacity="1" /><path clip-path="url(#clip300)" d="M617.548 1544.91 L633.867 1544.91 L633.867 1548.85 L611.923 1548.85 L611.923 1544.91 Q614.585 1542.16 619.168 1537.53 Q623.774 1532.88 624.955 1531.53 Q627.2 1529.01 628.08 1527.27 Q628.983 1525.51 628.983 1523.82 Q628.983 1521.07 627.038 1519.33 Q625.117 1517.6 622.015 1517.6 Q619.816 1517.6 617.362 1518.36 Q614.932 1519.13 612.154 1520.68 L612.154 1515.95 Q614.978 1514.82 617.432 1514.24 Q619.885 1513.66 621.922 1513.66 Q627.293 1513.66 630.487 1516.35 Q633.682 1519.03 633.682 1523.52 Q633.682 1525.65 632.872 1527.57 Q632.084 1529.47 629.978 1532.07 Q629.399 1532.74 626.297 1535.95 Q623.196 1539.15 617.548 1544.91 Z" fill="#000000" fill-rule="nonzero" fill-opacity="1" /><path clip-path="url(#clip300)" d="M643.728 1514.29 L662.084 1514.29 L662.084 1518.22 L648.01 1518.22 L648.01 1526.7 Q649.029 1526.35 650.047 1526.19 Q651.066 1526 652.084 1526 Q657.871 1526 661.251 1529.17 Q664.631 1532.34 664.631 1537.76 Q664.631 1543.34 661.158 1546.44 Q657.686 1549.52 651.367 1549.52 Q649.191 1549.52 646.922 1549.15 Q644.677 1548.78 642.27 1548.04 L642.27 1543.34 Q644.353 1544.47 646.575 1545.03 Q648.797 1545.58 651.274 1545.58 Q655.279 1545.58 657.617 1543.48 Q659.955 1541.37 659.955 1537.76 Q659.955 1534.15 657.617 1532.04 Q655.279 1529.94 651.274 1529.94 Q649.399 1529.94 647.524 1530.35 Q645.672 1530.77 643.728 1531.65 L643.728 1514.29 Z" fill="#000000" fill-rule="nonzero" fill-opacity="1" /><path clip-path="url(#clip300)" d="M937.771 1517.37 Q934.16 1517.37 932.331 1520.93 Q930.526 1524.47 930.526 1531.6 Q930.526 1538.71 932.331 1542.27 Q934.16 1545.82 937.771 1545.82 Q941.405 1545.82 943.211 1542.27 Q945.04 1538.71 945.04 1531.6 Q945.04 1524.47 943.211 1520.93 Q941.405 1517.37 937.771 1517.37 M937.771 1513.66 Q943.581 1513.66 946.637 1518.27 Q949.715 1522.85 949.715 1531.6 Q949.715 1540.33 946.637 1544.94 Q943.581 1549.52 937.771 1549.52 Q931.961 1549.52 928.882 1544.94 Q925.827 1540.33 925.827 1531.6 Q925.827 1522.85 928.882 1518.27 Q931.961 1513.66 937.771 1513.66 Z" fill="#000000" fill-rule="nonzero" fill-opacity="1" /><path clip-path="url(#clip300)" d="M957.933 1542.97 L962.817 1542.97 L962.817 1548.85 L957.933 1548.85 L957.933 1542.97 Z" fill="#000000" fill-rule="nonzero" fill-opacity="1" /><path clip-path="url(#clip300)" d="M973.049 1514.29 L991.405 1514.29 L991.405 1518.22 L977.331 1518.22 L977.331 1526.7 Q978.35 1526.35 979.368 1526.19 Q980.387 1526 981.405 1526 Q987.192 1526 990.572 1529.17 Q993.951 1532.34 993.951 1537.76 Q993.951 1543.34 990.479 1546.44 Q987.007 1549.52 980.688 1549.52 Q978.512 1549.52 976.243 1549.15 Q973.998 1548.78 971.59 1548.04 L971.59 1543.34 Q973.674 1544.47 975.896 1545.03 Q978.118 1545.58 980.595 1545.58 Q984.6 1545.58 986.938 1543.48 Q989.275 1541.37 989.275 1537.76 Q989.275 1534.15 986.938 1532.04 Q984.6 1529.94 980.595 1529.94 Q978.72 1529.94 976.845 1530.35 Q974.993 1530.77 973.049 1531.65 L973.049 1514.29 Z" fill="#000000" fill-rule="nonzero" fill-opacity="1" /><path clip-path="url(#clip300)" d="M1013.16 1517.37 Q1009.55 1517.37 1007.72 1520.93 Q1005.92 1524.47 1005.92 1531.6 Q1005.92 1538.71 1007.72 1542.27 Q1009.55 1545.82 1013.16 1545.82 Q1016.8 1545.82 1018.6 1542.27 Q1020.43 1538.71 1020.43 1531.6 Q1020.43 1524.47 1018.6 1520.93 Q1016.8 1517.37 1013.16 1517.37 M1013.16 1513.66 Q1018.97 1513.66 1022.03 1518.27 Q1025.11 1522.85 1025.11 1531.6 Q1025.11 1540.33 1022.03 1544.94 Q1018.97 1549.52 1013.16 1549.52 Q1007.35 1549.52 1004.28 1544.94 Q1001.22 1540.33 1001.22 1531.6 Q1001.22 1522.85 1004.28 1518.27 Q1007.35 1513.66 1013.16 1513.66 Z" fill="#000000" fill-rule="nonzero" fill-opacity="1" /><path clip-path="url(#clip300)" d="M1298.25 1517.37 Q1294.64 1517.37 1292.81 1520.93 Q1291 1524.47 1291 1531.6 Q1291 1538.71 1292.81 1542.27 Q1294.64 1545.82 1298.25 1545.82 Q1301.88 1545.82 1303.69 1542.27 Q1305.52 1538.71 1305.52 1531.6 Q1305.52 1524.47 1303.69 1520.93 Q1301.88 1517.37 1298.25 1517.37 M1298.25 1513.66 Q1304.06 1513.66 1307.11 1518.27 Q1310.19 1522.85 1310.19 1531.6 Q1310.19 1540.33 1307.11 1544.94 Q1304.06 1549.52 1298.25 1549.52 Q1292.44 1549.52 1289.36 1544.94 Q1286.3 1540.33 1286.3 1531.6 Q1286.3 1522.85 1289.36 1518.27 Q1292.44 1513.66 1298.25 1513.66 Z" fill="#000000" fill-rule="nonzero" fill-opacity="1" /><path clip-path="url(#clip300)" d="M1318.41 1542.97 L1323.3 1542.97 L1323.3 1548.85 L1318.41 1548.85 L1318.41 1542.97 Z" fill="#000000" fill-rule="nonzero" fill-opacity="1" /><path clip-path="url(#clip300)" d="M1332.3 1514.29 L1354.52 1514.29 L1354.52 1516.28 L1341.98 1548.85 L1337.09 1548.85 L1348.9 1518.22 L1332.3 1518.22 L1332.3 1514.29 Z" fill="#000000" fill-rule="nonzero" fill-opacity="1" /><path clip-path="url(#clip300)" d="M1363.69 1514.29 L1382.04 1514.29 L1382.04 1518.22 L1367.97 1518.22 L1367.97 1526.7 Q1368.99 1526.35 1370.01 1526.19 Q1371.03 1526 1372.05 1526 Q1377.83 1526 1381.21 1529.17 Q1384.59 1532.34 1384.59 1537.76 Q1384.59 1543.34 1381.12 1546.44 Q1377.65 1549.52 1371.33 1549.52 Q1369.15 1549.52 1366.88 1549.15 Q1364.64 1548.78 1362.23 1548.04 L1362.23 1543.34 Q1364.31 1544.47 1366.54 1545.03 Q1368.76 1545.58 1371.23 1545.58 Q1375.24 1545.58 1377.58 1543.48 Q1379.92 1541.37 1379.92 1537.76 Q1379.92 1534.15 1377.58 1532.04 Q1375.24 1529.94 1371.23 1529.94 Q1369.36 1529.94 1367.48 1530.35 Q1365.63 1530.77 1363.69 1531.65 L1363.69 1514.29 Z" fill="#000000" fill-rule="nonzero" fill-opacity="1" /><path clip-path="url(#clip300)" d="M1647.5 1544.91 L1655.14 1544.91 L1655.14 1518.55 L1646.83 1520.21 L1646.83 1515.95 L1655.09 1514.29 L1659.77 1514.29 L1659.77 1544.91 L1667.41 1544.91 L1667.41 1548.85 L1647.5 1548.85 L1647.5 1544.91 Z" fill="#000000" fill-rule="nonzero" fill-opacity="1" /><path clip-path="url(#clip300)" d="M1676.85 1542.97 L1681.74 1542.97 L1681.74 1548.85 L1676.85 1548.85 L1676.85 1542.97 Z" fill="#000000" fill-rule="nonzero" fill-opacity="1" /><path clip-path="url(#clip300)" d="M1701.92 1517.37 Q1698.31 1517.37 1696.48 1520.93 Q1694.68 1524.47 1694.68 1531.6 Q1694.68 1538.71 1696.48 1542.27 Q1698.31 1545.82 1701.92 1545.82 Q1705.56 1545.82 1707.36 1542.27 Q1709.19 1538.71 1709.19 1531.6 Q1709.19 1524.47 1707.36 1520.93 Q1705.56 1517.37 1701.92 1517.37 M1701.92 1513.66 Q1707.73 1513.66 1710.79 1518.27 Q1713.87 1522.85 1713.87 1531.6 Q1713.87 1540.33 1710.79 1544.94 Q1707.73 1549.52 1701.92 1549.52 Q1696.11 1549.52 1693.03 1544.94 Q1689.98 1540.33 1689.98 1531.6 Q1689.98 1522.85 1693.03 1518.27 Q1696.11 1513.66 1701.92 1513.66 Z" fill="#000000" fill-rule="nonzero" fill-opacity="1" /><path clip-path="url(#clip300)" d="M1732.08 1517.37 Q1728.47 1517.37 1726.64 1520.93 Q1724.84 1524.47 1724.84 1531.6 Q1724.84 1538.71 1726.64 1542.27 Q1728.47 1545.82 1732.08 1545.82 Q1735.72 1545.82 1737.52 1542.27 Q1739.35 1538.71 1739.35 1531.6 Q1739.35 1524.47 1737.52 1520.93 Q1735.72 1517.37 1732.08 1517.37 M1732.08 1513.66 Q1737.89 1513.66 1740.95 1518.27 Q1744.03 1522.85 1744.03 1531.6 Q1744.03 1540.33 1740.95 1544.94 Q1737.89 1549.52 1732.08 1549.52 Q1726.27 1549.52 1723.19 1544.94 Q1720.14 1540.33 1720.14 1531.6 Q1720.14 1522.85 1723.19 1518.27 Q1726.27 1513.66 1732.08 1513.66 Z" fill="#000000" fill-rule="nonzero" fill-opacity="1" /><path clip-path="url(#clip300)" d="M2007.98 1544.91 L2015.62 1544.91 L2015.62 1518.55 L2007.31 1520.21 L2007.31 1515.95 L2015.57 1514.29 L2020.25 1514.29 L2020.25 1544.91 L2027.89 1544.91 L2027.89 1548.85 L2007.98 1548.85 L2007.98 1544.91 Z" fill="#000000" fill-rule="nonzero" fill-opacity="1" /><path clip-path="url(#clip300)" d="M2037.33 1542.97 L2042.21 1542.97 L2042.21 1548.85 L2037.33 1548.85 L2037.33 1542.97 Z" fill="#000000" fill-rule="nonzero" fill-opacity="1" /><path clip-path="url(#clip300)" d="M2056.43 1544.91 L2072.75 1544.91 L2072.75 1548.85 L2050.8 1548.85 L2050.8 1544.91 Q2053.46 1542.16 2058.05 1537.53 Q2062.65 1532.88 2063.83 1531.53 Q2066.08 1529.01 2066.96 1527.27 Q2067.86 1525.51 2067.86 1523.82 Q2067.86 1521.07 2065.92 1519.33 Q2064 1517.6 2060.89 1517.6 Q2058.7 1517.6 2056.24 1518.36 Q2053.81 1519.13 2051.03 1520.68 L2051.03 1515.95 Q2053.86 1514.82 2056.31 1514.24 Q2058.77 1513.66 2060.8 1513.66 Q2066.17 1513.66 2069.37 1516.35 Q2072.56 1519.03 2072.56 1523.52 Q2072.56 1525.65 2071.75 1527.57 Q2070.96 1529.47 2068.86 1532.07 Q2068.28 1532.74 2065.18 1535.95 Q2062.08 1539.15 2056.43 1544.91 Z" fill="#000000" fill-rule="nonzero" fill-opacity="1" /><path clip-path="url(#clip300)" d="M2082.61 1514.29 L2100.96 1514.29 L2100.96 1518.22 L2086.89 1518.22 L2086.89 1526.7 Q2087.91 1526.35 2088.93 1526.19 Q2089.95 1526 2090.96 1526 Q2096.75 1526 2100.13 1529.17 Q2103.51 1532.34 2103.51 1537.76 Q2103.51 1543.34 2100.04 1546.44 Q2096.57 1549.52 2090.25 1549.52 Q2088.07 1549.52 2085.8 1549.15 Q2083.56 1548.78 2081.15 1548.04 L2081.15 1543.34 Q2083.23 1544.47 2085.45 1545.03 Q2087.68 1545.58 2090.15 1545.58 Q2094.16 1545.58 2096.5 1543.48 Q2098.83 1541.37 2098.83 1537.76 Q2098.83 1534.15 2096.5 1532.04 Q2094.16 1529.94 2090.15 1529.94 Q2088.28 1529.94 2086.4 1530.35 Q2084.55 1530.77 2082.61 1531.65 L2082.61 1514.29 Z" fill="#000000" fill-rule="nonzero" fill-opacity="1" /><polyline clip-path="url(#clip302)" style="stroke:#000000; stroke-linecap:round; stroke-linejoin:round; stroke-width:2; stroke-opacity:0.1; fill:none" points="194.422,1310.15 2352.76,1310.15 "/>
<polyline clip-path="url(#clip302)" style="stroke:#000000; stroke-linecap:round; stroke-linejoin:round; stroke-width:2; stroke-opacity:0.1; fill:none" points="194.422,1038.5 2352.76,1038.5 "/>
<polyline clip-path="url(#clip302)" style="stroke:#000000; stroke-linecap:round; stroke-linejoin:round; stroke-width:2; stroke-opacity:0.1; fill:none" points="194.422,766.846 2352.76,766.846 "/>
<polyline clip-path="url(#clip302)" style="stroke:#000000; stroke-linecap:round; stroke-linejoin:round; stroke-width:2; stroke-opacity:0.1; fill:none" points="194.422,495.196 2352.76,495.196 "/>
<polyline clip-path="url(#clip302)" style="stroke:#000000; stroke-linecap:round; stroke-linejoin:round; stroke-width:2; stroke-opacity:0.1; fill:none" points="194.422,223.547 2352.76,223.547 "/>
<polyline clip-path="url(#clip300)" style="stroke:#000000; stroke-linecap:round; stroke-linejoin:round; stroke-width:4; stroke-opacity:1; fill:none" points="194.422,1486.45 194.422,47.2441 "/>
<polyline clip-path="url(#clip300)" style="stroke:#000000; stroke-linecap:round; stroke-linejoin:round; stroke-width:4; stroke-opacity:1; fill:none" points="194.422,1310.15 213.32,1310.15 "/>
<polyline clip-path="url(#clip300)" style="stroke:#000000; stroke-linecap:round; stroke-linejoin:round; stroke-width:4; stroke-opacity:1; fill:none" points="194.422,1038.5 213.32,1038.5 "/>
<polyline clip-path="url(#clip300)" style="stroke:#000000; stroke-linecap:round; stroke-linejoin:round; stroke-width:4; stroke-opacity:1; fill:none" points="194.422,766.846 213.32,766.846 "/>
<polyline clip-path="url(#clip300)" style="stroke:#000000; stroke-linecap:round; stroke-linejoin:round; stroke-width:4; stroke-opacity:1; fill:none" points="194.422,495.196 213.32,495.196 "/>
<polyline clip-path="url(#clip300)" style="stroke:#000000; stroke-linecap:round; stroke-linejoin:round; stroke-width:4; stroke-opacity:1; fill:none" points="194.422,223.547 213.32,223.547 "/>
<path clip-path="url(#clip300)" d="M50.9921 1310.6 L80.6679 1310.6 L80.6679 1314.53 L50.9921 1314.53 L50.9921 1310.6 Z" fill="#000000" fill-rule="nonzero" fill-opacity="1" /><path clip-path="url(#clip300)" d="M100.76 1295.94 Q97.1493 1295.94 95.3206 1299.51 Q93.515 1303.05 93.515 1310.18 Q93.515 1317.29 95.3206 1320.85 Q97.1493 1324.39 100.76 1324.39 Q104.395 1324.39 106.2 1320.85 Q108.029 1317.29 108.029 1310.18 Q108.029 1303.05 106.2 1299.51 Q104.395 1295.94 100.76 1295.94 M100.76 1292.24 Q106.571 1292.24 109.626 1296.85 Q112.705 1301.43 112.705 1310.18 Q112.705 1318.91 109.626 1323.51 Q106.571 1328.1 100.76 1328.1 Q94.9502 1328.1 91.8715 1323.51 Q88.816 1318.91 88.816 1310.18 Q88.816 1301.43 91.8715 1296.85 Q94.9502 1292.24 100.76 1292.24 Z" fill="#000000" fill-rule="nonzero" fill-opacity="1" /><path clip-path="url(#clip300)" d="M120.922 1321.55 L125.807 1321.55 L125.807 1327.43 L120.922 1327.43 L120.922 1321.55 Z" fill="#000000" fill-rule="nonzero" fill-opacity="1" /><path clip-path="url(#clip300)" d="M148.839 1296.94 L137.033 1315.39 L148.839 1315.39 L148.839 1296.94 M147.612 1292.87 L153.492 1292.87 L153.492 1315.39 L158.422 1315.39 L158.422 1319.28 L153.492 1319.28 L153.492 1327.43 L148.839 1327.43 L148.839 1319.28 L133.237 1319.28 L133.237 1314.76 L147.612 1292.87 Z" fill="#000000" fill-rule="nonzero" fill-opacity="1" /><path clip-path="url(#clip300)" d="M53.0754 1038.95 L82.7512 1038.95 L82.7512 1042.88 L53.0754 1042.88 L53.0754 1038.95 Z" fill="#000000" fill-rule="nonzero" fill-opacity="1" /><path clip-path="url(#clip300)" d="M102.844 1024.29 Q99.2326 1024.29 97.4039 1027.86 Q95.5984 1031.4 95.5984 1038.53 Q95.5984 1045.64 97.4039 1049.2 Q99.2326 1052.74 102.844 1052.74 Q106.478 1052.74 108.283 1049.2 Q110.112 1045.64 110.112 1038.53 Q110.112 1031.4 108.283 1027.86 Q106.478 1024.29 102.844 1024.29 M102.844 1020.59 Q108.654 1020.59 111.709 1025.2 Q114.788 1029.78 114.788 1038.53 Q114.788 1047.26 111.709 1051.86 Q108.654 1056.45 102.844 1056.45 Q97.0335 1056.45 93.9549 1051.86 Q90.8993 1047.26 90.8993 1038.53 Q90.8993 1029.78 93.9549 1025.2 Q97.0335 1020.59 102.844 1020.59 Z" fill="#000000" fill-rule="nonzero" fill-opacity="1" /><path clip-path="url(#clip300)" d="M123.006 1049.9 L127.89 1049.9 L127.89 1055.78 L123.006 1055.78 L123.006 1049.9 Z" fill="#000000" fill-rule="nonzero" fill-opacity="1" /><path clip-path="url(#clip300)" d="M142.103 1051.84 L158.422 1051.84 L158.422 1055.78 L136.478 1055.78 L136.478 1051.84 Q139.14 1049.09 143.723 1044.46 Q148.33 1039.8 149.51 1038.46 Q151.755 1035.94 152.635 1034.2 Q153.538 1032.44 153.538 1030.75 Q153.538 1028 151.593 1026.26 Q149.672 1024.53 146.57 1024.53 Q144.371 1024.53 141.918 1025.29 Q139.487 1026.05 136.709 1027.6 L136.709 1022.88 Q139.533 1021.75 141.987 1021.17 Q144.441 1020.59 146.478 1020.59 Q151.848 1020.59 155.042 1023.28 Q158.237 1025.96 158.237 1030.45 Q158.237 1032.58 157.427 1034.5 Q156.64 1036.4 154.533 1038.99 Q153.955 1039.66 150.853 1042.88 Q147.751 1046.08 142.103 1051.84 Z" fill="#000000" fill-rule="nonzero" fill-opacity="1" /><path clip-path="url(#clip300)" d="M101.246 752.645 Q97.6354 752.645 95.8067 756.209 Q94.0012 759.751 94.0012 766.881 Q94.0012 773.987 95.8067 777.552 Q97.6354 781.094 101.246 781.094 Q104.881 781.094 106.686 777.552 Q108.515 773.987 108.515 766.881 Q108.515 759.751 106.686 756.209 Q104.881 752.645 101.246 752.645 M101.246 748.941 Q107.057 748.941 110.112 753.547 Q113.191 758.131 113.191 766.881 Q113.191 775.608 110.112 780.214 Q107.057 784.797 101.246 784.797 Q95.4363 784.797 92.3576 780.214 Q89.3021 775.608 89.3021 766.881 Q89.3021 758.131 92.3576 753.547 Q95.4363 748.941 101.246 748.941 Z" fill="#000000" fill-rule="nonzero" fill-opacity="1" /><path clip-path="url(#clip300)" d="M121.408 778.246 L126.293 778.246 L126.293 784.126 L121.408 784.126 L121.408 778.246 Z" fill="#000000" fill-rule="nonzero" fill-opacity="1" /><path clip-path="url(#clip300)" d="M146.478 752.645 Q142.867 752.645 141.038 756.209 Q139.232 759.751 139.232 766.881 Q139.232 773.987 141.038 777.552 Q142.867 781.094 146.478 781.094 Q150.112 781.094 151.918 777.552 Q153.746 773.987 153.746 766.881 Q153.746 759.751 151.918 756.209 Q150.112 752.645 146.478 752.645 M146.478 748.941 Q152.288 748.941 155.343 753.547 Q158.422 758.131 158.422 766.881 Q158.422 775.608 155.343 780.214 Q152.288 784.797 146.478 784.797 Q140.668 784.797 137.589 780.214 Q134.533 775.608 134.533 766.881 Q134.533 758.131 137.589 753.547 Q140.668 748.941 146.478 748.941 Z" fill="#000000" fill-rule="nonzero" fill-opacity="1" /><path clip-path="url(#clip300)" d="M102.844 480.995 Q99.2326 480.995 97.4039 484.56 Q95.5984 488.102 95.5984 495.231 Q95.5984 502.338 97.4039 505.902 Q99.2326 509.444 102.844 509.444 Q106.478 509.444 108.283 505.902 Q110.112 502.338 110.112 495.231 Q110.112 488.102 108.283 484.56 Q106.478 480.995 102.844 480.995 M102.844 477.291 Q108.654 477.291 111.709 481.898 Q114.788 486.481 114.788 495.231 Q114.788 503.958 111.709 508.564 Q108.654 513.148 102.844 513.148 Q97.0335 513.148 93.9549 508.564 Q90.8993 503.958 90.8993 495.231 Q90.8993 486.481 93.9549 481.898 Q97.0335 477.291 102.844 477.291 Z" fill="#000000" fill-rule="nonzero" fill-opacity="1" /><path clip-path="url(#clip300)" d="M123.006 506.597 L127.89 506.597 L127.89 512.476 L123.006 512.476 L123.006 506.597 Z" fill="#000000" fill-rule="nonzero" fill-opacity="1" /><path clip-path="url(#clip300)" d="M142.103 508.541 L158.422 508.541 L158.422 512.476 L136.478 512.476 L136.478 508.541 Q139.14 505.787 143.723 501.157 Q148.33 496.504 149.51 495.162 Q151.755 492.639 152.635 490.902 Q153.538 489.143 153.538 487.453 Q153.538 484.699 151.593 482.963 Q149.672 481.227 146.57 481.227 Q144.371 481.227 141.918 481.99 Q139.487 482.754 136.709 484.305 L136.709 479.583 Q139.533 478.449 141.987 477.87 Q144.441 477.291 146.478 477.291 Q151.848 477.291 155.042 479.977 Q158.237 482.662 158.237 487.153 Q158.237 489.282 157.427 491.203 Q156.64 493.102 154.533 495.694 Q153.955 496.365 150.853 499.583 Q147.751 502.777 142.103 508.541 Z" fill="#000000" fill-rule="nonzero" fill-opacity="1" /><path clip-path="url(#clip300)" d="M100.76 209.346 Q97.1493 209.346 95.3206 212.91 Q93.515 216.452 93.515 223.582 Q93.515 230.688 95.3206 234.253 Q97.1493 237.795 100.76 237.795 Q104.395 237.795 106.2 234.253 Q108.029 230.688 108.029 223.582 Q108.029 216.452 106.2 212.91 Q104.395 209.346 100.76 209.346 M100.76 205.642 Q106.571 205.642 109.626 210.248 Q112.705 214.832 112.705 223.582 Q112.705 232.308 109.626 236.915 Q106.571 241.498 100.76 241.498 Q94.9502 241.498 91.8715 236.915 Q88.816 232.308 88.816 223.582 Q88.816 214.832 91.8715 210.248 Q94.9502 205.642 100.76 205.642 Z" fill="#000000" fill-rule="nonzero" fill-opacity="1" /><path clip-path="url(#clip300)" d="M120.922 234.947 L125.807 234.947 L125.807 240.827 L120.922 240.827 L120.922 234.947 Z" fill="#000000" fill-rule="nonzero" fill-opacity="1" /><path clip-path="url(#clip300)" d="M148.839 210.341 L137.033 228.79 L148.839 228.79 L148.839 210.341 M147.612 206.267 L153.492 206.267 L153.492 228.79 L158.422 228.79 L158.422 232.679 L153.492 232.679 L153.492 240.827 L148.839 240.827 L148.839 232.679 L133.237 232.679 L133.237 228.165 L147.612 206.267 Z" fill="#000000" fill-rule="nonzero" fill-opacity="1" /><polyline clip-path="url(#clip302)" style="stroke:#ff0000; stroke-linecap:round; stroke-linejoin:round; stroke-width:4; stroke-opacity:1; fill:none" points="255.507,766.846 516.028,1004.91 629.461,1097.88 720.072,1165.21 799.291,1218.48 871.426,1262.26 938.624,1298.88 1002.11,1329.78 1062.66,1355.88 1120.79,1377.85 1176.83,1396.15 1231.04,1411.18 1283.61,1423.22 1334.66,1432.51 1384.28,1439.24 1432.55,1443.6 1479.51,1445.71 1525.21,1445.72 1569.65,1443.72 1612.87,1439.83 1654.86,1434.14 1695.63,1426.73 1735.17,1417.69 1773.48,1407.08 1810.55,1394.98 1846.36,1381.46 1880.91,1366.58 1914.17,1350.41 1946.14,1333 1976.8,1314.42 2006.13,1294.72 2034.11,1273.96 2060.73,1252.2 2085.98,1229.5 2109.83,1205.91 2132.27,1181.48 2153.29,1156.27 2172.87,1130.33 2191,1103.72 2207.66,1076.5 2222.85,1048.71 2236.56,1020.41 2248.76,991.651 2259.46,962.491 2268.65,932.983 2276.31,903.179 2282.45,873.133 2287.06,842.9 2290.13,812.532 2291.67,782.084 2291.67,751.608 2290.13,721.16 2287.06,690.792 2282.45,660.559 2276.31,630.513 2268.65,600.709 2259.46,571.201 2248.76,542.041 2236.56,513.285 2222.85,484.984 2207.66,457.194 2191,429.969 2172.87,403.361 2153.29,377.425 2132.27,352.216 2109.83,327.787 2085.98,304.193 2060.73,281.489 2034.11,259.731 2006.13,238.975 1976.8,219.277 1946.14,200.694 1914.17,183.286 1880.91,167.111 1846.36,152.231 1810.55,138.71 1773.48,126.611 1735.17,116.003 1695.63,106.958 1654.86,99.5494 1612.87,93.8579 1569.65,89.9692 1525.21,87.9763 1479.51,87.981 1432.55,90.0965 1384.28,94.4499 1334.66,101.186 1283.61,110.474 1231.04,122.512 1176.83,137.538 1120.79,155.847 1062.66,177.81 1002.11,203.912 938.624,234.809 871.426,271.436 799.291,315.207 720.072,368.482 629.461,435.809 516.028,528.779 255.507,766.846 "/>
<path clip-path="url(#clip300)" d="M266.367 198.898 L534.63 198.898 L534.63 95.2176 L266.367 95.2176  Z" fill="#ffffff" fill-rule="evenodd" fill-opacity="1"/>
<polyline clip-path="url(#clip300)" style="stroke:#000000; stroke-linecap:round; stroke-linejoin:round; stroke-width:4; stroke-opacity:1; fill:none" points="266.367,198.898 534.63,198.898 534.63,95.2176 266.367,95.2176 266.367,198.898 "/>
<polyline clip-path="url(#clip300)" style="stroke:#ff0000; stroke-linecap:round; stroke-linejoin:round; stroke-width:4; stroke-opacity:1; fill:none" points="290.348,147.058 434.237,147.058 "/>
<path clip-path="url(#clip300)" d="M472.061 166.745 Q470.255 171.375 468.542 172.787 Q466.83 174.199 463.959 174.199 L460.556 174.199 L460.556 170.634 L463.056 170.634 Q464.816 170.634 465.788 169.8 Q466.76 168.967 467.941 165.865 L468.705 163.921 L458.218 138.412 L462.732 138.412 L470.834 158.689 L478.936 138.412 L483.45 138.412 L472.061 166.745 Z" fill="#000000" fill-rule="nonzero" fill-opacity="1" /><path clip-path="url(#clip300)" d="M490.741 160.402 L498.38 160.402 L498.38 134.037 L490.07 135.703 L490.07 131.444 L498.334 129.778 L503.01 129.778 L503.01 160.402 L510.649 160.402 L510.649 164.338 L490.741 164.338 L490.741 160.402 Z" fill="#000000" fill-rule="nonzero" fill-opacity="1" /></svg>