<?xml version="1.0" encoding="utf-8"?>
<svg xmlns="http://www.w3.org/2000/svg" xmlns:xlink="http://www.w3.org/1999/xlink" width="600" height="400" viewBox="0 0 2400 1600">
<defs>
  <clipPath id="clip570">
    <rect x="0" y="0" width="2400" height="1600"/>
  </clipPath>
</defs>
<path clip-path="url(#clip570)" d="M0 1600 L2400 1600 L2400 0 L0 0  Z" fill="#ffffff" fill-rule="evenodd" fill-opacity="1"/>
<defs>
  <clipPath id="clip571">
    <rect x="480" y="0" width="1681" height="1600"/>
  </clipPath>
</defs>
<path clip-path="url(#clip570)" d="M138.959 1486.45 L2352.76 1486.45 L2352.76 47.2441 L138.959 47.2441  Z" fill="#ffffff" fill-rule="evenodd" fill-opacity="1"/>
<defs>
  <clipPath id="clip572">
    <rect x="138" y="47" width="2215" height="1440"/>
  </clipPath>
</defs>
<polyline clip-path="url(#clip572)" style="stroke:#000000; stroke-linecap:round; stroke-linejoin:round; stroke-width:2; stroke-opacity:0.1; fill:none" points="201.614,1486.45 201.614,47.2441 "/>
<polyline clip-path="url(#clip572)" style="stroke:#000000; stroke-linecap:round; stroke-linejoin:round; stroke-width:2; stroke-opacity:0.1; fill:none" points="723.736,1486.45 723.736,47.2441 "/>
<polyline clip-path="url(#clip572)" style="stroke:#000000; stroke-linecap:round; stroke-linejoin:round; stroke-width:2; stroke-opacity:0.1; fill:none" points="1245.86,1486.45 1245.86,47.2441 "/>
<polyline clip-path="url(#clip572)" style="stroke:#000000; stroke-linecap:round; stroke-linejoin:round; stroke-width:2; stroke-opacity:0.1; fill:none" points="1767.98,1486.45 1767.98,47.2441 "/>
<polyline clip-path="url(#clip572)" style="stroke:#000000; stroke-linecap:round; stroke-linejoin:round; stroke-width:2; stroke-opacity:0.1; fill:none" points="2290.1,1486.45 2290.1,47.2441 "/>
<polyline clip-path="url(#clip570)" style="stroke:#000000; stroke-linecap:round; stroke-linejoin:round; stroke-width:4; stroke-opacity:1; fill:none" points="138.959,1486.45 2352.76,1486.45 "/>
<polyline clip-path="url(#clip570)" style="stroke:#000000; stroke-linecap:round; stroke-linejoin:round; stroke-width:4; stroke-opacity:1; fill:none" points="201.614,1486.45 201.614,1467.55 "/>
<polyline clip-path="url(#clip570)" style="stroke:#000000; stroke-linecap:round; stroke-linejoin:round; stroke-width:4; stroke-opacity:1; fill:none" points="723.736,1486.45 723.736,1467.55 "/>
<polyline clip-path="url(#clip570)" style="stroke:#000000; stroke-linecap:round; stroke-linejoin:round; stroke-width:4; stroke-opacity:1; fill:none" points="1245.86,1486.45 1245.86,1467.55 "/>
<polyline clip-path="url(#clip570)" style="stroke:#000000; stroke-linecap:round; stroke-linejoin:round; stroke-width:4; stroke-opacity:1; fill:none" points="1767.98,1486.45 1767.98,1467.55 "/>
<polyline clip-path="url(#clip570)" style="stroke:#000000; stroke-linecap:round; stroke-linejoin:round; stroke-width:4; stroke-opacity:1; fill:none" points="2290.1,1486.45 2290.1,1467.55 "/>
<path clip-path="url(#clip570)" d="M171.556 1532.02 L201.232 1532.02 L201.232 1535.95 L171.556 1535.95 L171.556 1532.02 Z" fill="#000000" fill-rule="nonzero" fill-opacity="1" /><path clip-path="url(#clip570)" d="M215.352 1544.91 L231.672 1544.91 L231.672 1548.85 L209.727 1548.85 L209.727 1544.91 Q212.389 1542.16 216.973 1537.53 Q221.579 1532.88 222.76 1531.53 Q225.005 1529.01 225.885 1527.27 Q226.788 1525.51 226.788 1523.82 Q226.788 1521.07 224.843 1519.33 Q222.922 1517.6 219.82 1517.6 Q217.621 1517.6 215.167 1518.36 Q212.737 1519.13 209.959 1520.68 L209.959 1515.95 Q212.783 1514.82 215.237 1514.24 Q217.69 1513.66 219.727 1513.66 Q225.098 1513.66 228.292 1516.35 Q231.487 1519.03 231.487 1523.52 Q231.487 1525.65 230.676 1527.57 Q229.889 1529.47 227.783 1532.07 Q227.204 1532.74 224.102 1535.95 Q221.001 1539.15 215.352 1544.91 Z" fill="#000000" fill-rule="nonzero" fill-opacity="1" /><path clip-path="url(#clip570)" d="M723.736 1517.37 Q720.125 1517.37 718.296 1520.93 Q716.491 1524.47 716.491 1531.6 Q716.491 1538.71 718.296 1542.27 Q720.125 1545.82 723.736 1545.82 Q727.37 1545.82 729.176 1542.27 Q731.004 1538.71 731.004 1531.6 Q731.004 1524.47 729.176 1520.93 Q727.37 1517.37 723.736 1517.37 M723.736 1513.66 Q729.546 1513.66 732.602 1518.27 Q735.68 1522.85 735.68 1531.6 Q735.68 1540.33 732.602 1544.94 Q729.546 1549.52 723.736 1549.52 Q717.926 1549.52 714.847 1544.94 Q711.791 1540.33 711.791 1531.6 Q711.791 1522.85 714.847 1518.27 Q717.926 1513.66 723.736 1513.66 Z" fill="#000000" fill-rule="nonzero" fill-opacity="1" /><path clip-path="url(#clip570)" d="M1240.51 1544.91 L1256.83 1544.91 L1256.83 1548.85 L1234.89 1548.85 L1234.89 1544.91 Q1237.55 1542.16 1242.13 1537.53 Q1246.74 1532.88 1247.92 1531.53 Q1250.16 1529.01 1251.04 1527.27 Q1251.95 1525.51 1251.95 1523.82 Q1251.95 1521.07 1250 1519.33 Q1248.08 1517.6 1244.98 1517.6 Q1242.78 1517.6 1240.33 1518.36 Q1237.89 1519.13 1235.12 1520.68 L1235.12 1515.95 Q1237.94 1514.82 1240.39 1514.24 Q1242.85 1513.66 1244.89 1513.66 Q1250.26 1513.66 1253.45 1516.35 Q1256.64 1519.03 1256.64 1523.52 Q1256.64 1525.65 1255.83 1527.57 Q1255.05 1529.47 1252.94 1532.07 Q1252.36 1532.74 1249.26 1535.95 Q1246.16 1539.15 1240.51 1544.91 Z" fill="#000000" fill-rule="nonzero" fill-opacity="1" /><path clip-path="url(#clip570)" d="M1770.99 1518.36 L1759.18 1536.81 L1770.99 1536.81 L1770.99 1518.36 M1769.76 1514.29 L1775.64 1514.29 L1775.64 1536.81 L1780.57 1536.81 L1780.57 1540.7 L1775.64 1540.7 L1775.64 1548.85 L1770.99 1548.85 L1770.99 1540.7 L1755.39 1540.7 L1755.39 1536.19 L1769.76 1514.29 Z" fill="#000000" fill-rule="nonzero" fill-opacity="1" /><path clip-path="url(#clip570)" d="M2290.51 1529.7 Q2287.36 1529.7 2285.51 1531.86 Q2283.68 1534.01 2283.68 1537.76 Q2283.68 1541.49 2285.51 1543.66 Q2287.36 1545.82 2290.51 1545.82 Q2293.65 1545.82 2295.48 1543.66 Q2297.34 1541.49 2297.34 1537.76 Q2297.34 1534.01 2295.48 1531.86 Q2293.65 1529.7 2290.51 1529.7 M2299.79 1515.05 L2299.79 1519.31 Q2298.03 1518.48 2296.22 1518.04 Q2294.44 1517.6 2292.68 1517.6 Q2288.05 1517.6 2285.6 1520.72 Q2283.17 1523.85 2282.82 1530.17 Q2284.19 1528.15 2286.25 1527.09 Q2288.31 1526 2290.78 1526 Q2295.99 1526 2299 1529.17 Q2302.03 1532.32 2302.03 1537.76 Q2302.03 1543.08 2298.89 1546.3 Q2295.74 1549.52 2290.51 1549.52 Q2284.51 1549.52 2281.34 1544.94 Q2278.17 1540.33 2278.17 1531.6 Q2278.17 1523.41 2282.06 1518.55 Q2285.95 1513.66 2292.5 1513.66 Q2294.26 1513.66 2296.04 1514.01 Q2297.84 1514.36 2299.79 1515.05 Z" fill="#000000" fill-rule="nonzero" fill-opacity="1" /><polyline clip-path="url(#clip572)" style="stroke:#000000; stroke-linecap:round; stroke-linejoin:round; stroke-width:2; stroke-opacity:0.1; fill:none" points="138.959,1445.72 2352.76,1445.72 "/>
<polyline clip-path="url(#clip572)" style="stroke:#000000; stroke-linecap:round; stroke-linejoin:round; stroke-width:2; stroke-opacity:0.1; fill:none" points="138.959,1021.42 2352.76,1021.42 "/>
<polyline clip-path="url(#clip572)" style="stroke:#000000; stroke-linecap:round; stroke-linejoin:round; stroke-width:2; stroke-opacity:0.1; fill:none" points="138.959,597.129 2352.76,597.129 "/>
<polyline clip-path="url(#clip572)" style="stroke:#000000; stroke-linecap:round; stroke-linejoin:round; stroke-width:2; stroke-opacity:0.1; fill:none" points="138.959,172.835 2352.76,172.835 "/>
<polyline clip-path="url(#clip570)" style="stroke:#000000; stroke-linecap:round; stroke-linejoin:round; stroke-width:4; stroke-opacity:1; fill:none" points="138.959,1486.45 138.959,47.2441 "/>
<polyline clip-path="url(#clip570)" style="stroke:#000000; stroke-linecap:round; stroke-linejoin:round; stroke-width:4; stroke-opacity:1; fill:none" points="138.959,1445.72 157.857,1445.72 "/>
<polyline clip-path="url(#clip570)" style="stroke:#000000; stroke-linecap:round; stroke-linejoin:round; stroke-width:4; stroke-opacity:1; fill:none" points="138.959,1021.42 157.857,1021.42 "/>
<polyline clip-path="url(#clip570)" style="stroke:#000000; stroke-linecap:round; stroke-linejoin:round; stroke-width:4; stroke-opacity:1; fill:none" points="138.959,597.129 157.857,597.129 "/>
<polyline clip-path="url(#clip570)" style="stroke:#000000; stroke-linecap:round; stroke-linejoin:round; stroke-width:4; stroke-opacity:1; fill:none" points="138.959,172.835 157.857,172.835 "/>
<path clip-path="url(#clip570)" d="M91.0151 1431.51 Q87.404 1431.51 85.5753 1435.08 Q83.7697 1438.62 83.7697 1445.75 Q83.7697 1452.86 85.5753 1456.42 Q87.404 1459.96 91.0151 1459.96 Q94.6493 1459.96 96.4548 1456.42 Q98.2835 1452.86 98.2835 1445.75 Q98.2835 1438.62 96.4548 1435.08 Q94.6493 1431.51 91.0151 1431.51 M91.0151 1427.81 Q96.8252 1427.81 99.8808 1432.42 Q102.959 1437 102.959 1445.75 Q102.959 1454.48 99.8808 1459.08 Q96.8252 1463.67 91.0151 1463.67 Q85.2049 1463.67 82.1262 1459.08 Q79.0707 1454.48 79.0707 1445.75 Q79.0707 1437 82.1262 1432.42 Q85.2049 1427.81 91.0151 1427.81 Z" fill="#000000" fill-rule="nonzero" fill-opacity="1" /><path clip-path="url(#clip570)" d="M82.0568 1004.14 L100.413 1004.14 L100.413 1008.08 L86.3392 1008.08 L86.3392 1016.55 Q87.3577 1016.2 88.3762 1016.04 Q89.3947 1015.86 90.4132 1015.86 Q96.2002 1015.86 99.5798 1019.03 Q102.959 1022.2 102.959 1027.61 Q102.959 1033.19 99.4872 1036.29 Q96.015 1039.37 89.6956 1039.37 Q87.5197 1039.37 85.2512 1039 Q83.0058 1038.63 80.5984 1037.89 L80.5984 1033.19 Q82.6818 1034.33 84.904 1034.88 Q87.1262 1035.44 89.603 1035.44 Q93.6076 1035.44 95.9456 1033.33 Q98.2835 1031.23 98.2835 1027.61 Q98.2835 1024 95.9456 1021.9 Q93.6076 1019.79 89.603 1019.79 Q87.728 1019.79 85.8531 1020.21 Q84.0012 1020.62 82.0568 1021.5 L82.0568 1004.14 Z" fill="#000000" fill-rule="nonzero" fill-opacity="1" /><path clip-path="url(#clip570)" d="M51.6634 610.473 L59.3023 610.473 L59.3023 584.108 L50.9921 585.774 L50.9921 581.515 L59.256 579.849 L63.9319 579.849 L63.9319 610.473 L71.5707 610.473 L71.5707 614.409 L51.6634 614.409 L51.6634 610.473 Z" fill="#000000" fill-rule="nonzero" fill-opacity="1" /><path clip-path="url(#clip570)" d="M91.0151 582.927 Q87.404 582.927 85.5753 586.492 Q83.7697 590.034 83.7697 597.163 Q83.7697 604.27 85.5753 607.835 Q87.404 611.376 91.0151 611.376 Q94.6493 611.376 96.4548 607.835 Q98.2835 604.27 98.2835 597.163 Q98.2835 590.034 96.4548 586.492 Q94.6493 582.927 91.0151 582.927 M91.0151 579.224 Q96.8252 579.224 99.8808 583.83 Q102.959 588.413 102.959 597.163 Q102.959 605.89 99.8808 610.497 Q96.8252 615.08 91.0151 615.08 Q85.2049 615.08 82.1262 610.497 Q79.0707 605.89 79.0707 597.163 Q79.0707 588.413 82.1262 583.83 Q85.2049 579.224 91.0151 579.224 Z" fill="#000000" fill-rule="nonzero" fill-opacity="1" /><path clip-path="url(#clip570)" d="M52.6588 186.18 L60.2976 186.18 L60.2976 159.814 L51.9875 161.481 L51.9875 157.222 L60.2513 155.555 L64.9272 155.555 L64.9272 186.18 L72.5661 186.18 L72.5661 190.115 L52.6588 190.115 L52.6588 186.18 Z" fill="#000000" fill-rule="nonzero" fill-opacity="1" /><path clip-path="url(#clip570)" d="M82.0568 155.555 L100.413 155.555 L100.413 159.49 L86.3392 159.49 L86.3392 167.962 Q87.3577 167.615 88.3762 167.453 Q89.3947 167.268 90.4132 167.268 Q96.2002 167.268 99.5798 170.439 Q102.959 173.61 102.959 179.027 Q102.959 184.606 99.4872 187.708 Q96.015 190.786 89.6956 190.786 Q87.5197 190.786 85.2512 190.416 Q83.0058 190.046 80.5984 189.305 L80.5984 184.606 Q82.6818 185.74 84.904 186.296 Q87.1262 186.851 89.603 186.851 Q93.6076 186.851 95.9456 184.745 Q98.2835 182.638 98.2835 179.027 Q98.2835 175.416 95.9456 173.31 Q93.6076 171.203 89.603 171.203 Q87.728 171.203 85.8531 171.62 Q84.0012 172.036 82.0568 172.916 L82.0568 155.555 Z" fill="#000000" fill-rule="nonzero" fill-opacity="1" /><polyline clip-path="url(#clip572)" style="stroke:#009af9; stroke-linecap:round; stroke-linejoin:round; stroke-width:4; stroke-opacity:1; fill:none" points="201.614,87.9763 227.72,155.015 253.826,220.356 279.932,284 306.038,345.947 332.145,406.196 358.251,464.749 384.357,521.604 410.463,576.762 436.569,630.223 462.675,681.987 488.781,732.054 514.887,780.423 540.993,827.096 567.099,872.071 593.205,915.349 619.312,956.93 645.418,996.813 671.524,1035 697.63,1071.49 723.736,1106.28 749.842,1139.38 775.948,1170.77 802.054,1200.47 828.16,1228.48 854.266,1254.78 880.372,1279.39 906.478,1302.3 932.585,1323.52 958.691,1343.04 984.797,1360.86 1010.9,1376.98 1037.01,1391.41 1063.12,1404.13 1089.22,1415.17 1115.33,1424.5 1141.43,1432.14 1167.54,1438.08 1193.65,1442.32 1219.75,1444.87 1245.86,1445.72 1271.96,1444.87 1298.07,1442.32 1324.18,1438.08 1350.28,1432.14 1376.39,1424.5 1402.49,1415.17 1428.6,1404.13 1454.71,1391.41 1480.81,1376.98 1506.92,1360.86 1533.02,1343.04 1559.13,1323.52 1585.24,1302.3 1611.34,1279.39 1637.45,1254.78 1663.56,1228.48 1689.66,1200.47 1715.77,1170.77 1741.87,1139.38 1767.98,1106.28 1794.09,1071.49 1820.19,1035 1846.3,996.813 1872.4,956.93 1898.51,915.349 1924.62,872.071 1950.72,827.096 1976.83,780.423 2002.93,732.054 2029.04,681.987 2055.15,630.223 2081.25,576.762 2107.36,521.604 2133.46,464.749 2159.57,406.196 2185.68,345.947 2211.78,284 2237.89,220.356 2264,155.015 2290.1,87.9763 "/>
<path clip-path="url(#clip570)" d="M1660.32 1438.47 L2278.96 1438.47 L2278.96 1334.79 L1660.32 1334.79  Z" fill="#ffffff" fill-rule="evenodd" fill-opacity="1"/>
<polyline clip-path="url(#clip570)" style="stroke:#000000; stroke-linecap:round; stroke-linejoin:round; stroke-width:4; stroke-opacity:1; fill:none" points="1660.32,1438.47 2278.96,1438.47 2278.96,1334.79 1660.32,1334.79 1660.32,1438.47 "/>
<polyline clip-path="url(#clip570)" style="stroke:#009af9; stroke-linecap:round; stroke-linejoin:round; stroke-width:4; stroke-opacity:1; fill:none" points="1684.91,1386.63 1832.5,1386.63 "/>
<path clip-path="url(#clip570)" d="M1870.94 1406.32 Q1869.14 1410.95 1867.42 1412.36 Q1865.71 1413.78 1862.84 1413.78 L1859.44 1413.78 L1859.44 1410.21 L1861.94 1410.21 Q1863.7 1410.21 1864.67 1409.38 Q1865.64 1408.54 1866.82 1405.44 L1867.58 1403.5 L1857.1 1377.99 L1861.61 1377.99 L1869.71 1398.27 L1877.82 1377.99 L1882.33 1377.99 L1870.94 1406.32 Z" fill="#000000" fill-rule="nonzero" fill-opacity="1" /><path clip-path="url(#clip570)" d="M1903.83 1382.39 L1933.51 1382.39 L1933.51 1386.28 L1903.83 1386.28 L1903.83 1382.39 M1903.83 1391.83 L1933.51 1391.83 L1933.51 1395.77 L1903.83 1395.77 L1903.83 1391.83 Z" fill="#000000" fill-rule="nonzero" fill-opacity="1" /><path clip-path="url(#clip570)" d="M1979.62 1377.99 L1970.25 1390.6 L1980.11 1403.91 L1975.08 1403.91 L1967.54 1393.73 L1959.99 1403.91 L1954.97 1403.91 L1965.04 1390.35 L1955.82 1377.99 L1960.85 1377.99 L1967.72 1387.22 L1974.6 1377.99 L1979.62 1377.99 Z" fill="#000000" fill-rule="nonzero" fill-opacity="1" /><path clip-path="url(#clip570)" d="M2003.79 1369.35 L2016.36 1382.25 L2011.7 1382.25 L2001.52 1373.1 L1991.33 1382.25 L1986.68 1382.25 L1999.25 1369.35 L2003.79 1369.35 Z" fill="#000000" fill-rule="nonzero" fill-opacity="1" /><path clip-path="url(#clip570)" d="M2030.48 1399.98 L2046.8 1399.98 L2046.8 1403.91 L2024.85 1403.91 L2024.85 1399.98 Q2027.51 1397.22 2032.1 1392.6 Q2036.7 1387.94 2037.88 1386.6 Q2040.13 1384.08 2041.01 1382.34 Q2041.91 1380.58 2041.91 1378.89 Q2041.91 1376.14 2039.97 1374.4 Q2038.05 1372.66 2034.94 1372.66 Q2032.75 1372.66 2030.29 1373.43 Q2027.86 1374.19 2025.08 1375.74 L2025.08 1371.02 Q2027.91 1369.89 2030.36 1369.31 Q2032.82 1368.73 2034.85 1368.73 Q2040.22 1368.73 2043.42 1371.41 Q2046.61 1374.1 2046.61 1378.59 Q2046.61 1380.72 2045.8 1382.64 Q2045.01 1384.54 2042.91 1387.13 Q2042.33 1387.8 2039.23 1391.02 Q2036.13 1394.22 2030.48 1399.98 Z" fill="#000000" fill-rule="nonzero" fill-opacity="1" /><path clip-path="url(#clip570)" d="M2068.93 1389.03 L2081.4 1389.03 L2081.4 1392.83 L2068.93 1392.83 L2068.93 1389.03 Z" fill="#000000" fill-rule="nonzero" fill-opacity="1" /><path clip-path="url(#clip570)" d="M2116.7 1373.43 L2104.9 1391.88 L2116.7 1391.88 L2116.7 1373.43 M2115.48 1369.35 L2121.36 1369.35 L2121.36 1391.88 L2126.29 1391.88 L2126.29 1395.77 L2121.36 1395.77 L2121.36 1403.91 L2116.7 1403.91 L2116.7 1395.77 L2101.1 1395.77 L2101.1 1391.25 L2115.48 1369.35 Z" fill="#000000" fill-rule="nonzero" fill-opacity="1" /><path clip-path="url(#clip570)" d="M2154.97 1377.99 L2145.59 1390.6 L2155.45 1403.91 L2150.43 1403.91 L2142.88 1393.73 L2135.34 1403.91 L2130.31 1403.91 L2140.38 1390.35 L2131.17 1377.99 L2136.19 1377.99 L2143.07 1387.22 L2149.94 1377.99 L2154.97 1377.99 Z" fill="#000000" fill-rule="nonzero" fill-opacity="1" /><path clip-path="url(#clip570)" d="M2193.88 1374.19 L2193.88 1387.09 L2206.77 1387.09 L2206.77 1391.02 L2193.88 1391.02 L2193.88 1403.91 L2189.99 1403.91 L2189.99 1391.02 L2177.1 1391.02 L2177.1 1387.09 L2189.99 1387.09 L2189.99 1374.19 L2193.88 1374.19 Z" fill="#000000" fill-rule="nonzero" fill-opacity="1" /><path clip-path="url(#clip570)" d="M2244.78 1373.43 L2232.98 1391.88 L2244.78 1391.88 L2244.78 1373.43 M2243.55 1369.35 L2249.43 1369.35 L2249.43 1391.88 L2254.36 1391.88 L2254.36 1395.77 L2249.43 1395.77 L2249.43 1403.91 L2244.78 1403.91 L2244.78 1395.77 L2229.18 1395.77 L2229.18 1391.25 L2243.55 1369.35 Z" fill="#000000" fill-rule="nonzero" fill-opacity="1" /></svg>