<?xml version="1.0" encoding="utf-8"?>
<svg xmlns="http://www.w3.org/2000/svg" xmlns:xlink="http://www.w3.org/1999/xlink" width="600" height="400" viewBox="0 0 2400 1600">
<defs>
  <clipPath id="clip660">
    <rect x="0" y="0" width="2400" height="1600"/>
  </clipPath>
</defs>
<path clip-path="url(#clip660)" d="M0 1600 L2400 1600 L2400 0 L0 0  Z" fill="#ffffff" fill-rule="evenodd" fill-opacity="1"/>
<defs>
  <clipPath id="clip661">
    <rect x="480" y="0" width="1681" height="1600"/>
  </clipPath>
</defs>
<path clip-path="url(#clip660)" d="M219.866 1423.18 L2352.76 1423.18 L2352.76 123.472 L219.866 123.472  Z" fill="#ffffff" fill-rule="evenodd" fill-opacity="1"/>
<defs>
  <clipPath id="clip662">
    <rect x="219" y="123" width="2134" height="1301"/>
  </clipPath>
</defs>
<polyline clip-path="url(#clip662)" style="stroke:#000000; stroke-linecap:round; stroke-linejoin:round; stroke-width:2; stroke-opacity:0.1; fill:none" points="246.127,1423.18 246.127,123.472 "/>
<polyline clip-path="url(#clip662)" style="stroke:#000000; stroke-linecap:round; stroke-linejoin:round; stroke-width:2; stroke-opacity:0.1; fill:none" points="587.171,1423.18 587.171,123.472 "/>
<polyline clip-path="url(#clip662)" style="stroke:#000000; stroke-linecap:round; stroke-linejoin:round; stroke-width:2; stroke-opacity:0.1; fill:none" points="928.215,1423.18 928.215,123.472 "/>
<polyline clip-path="url(#clip662)" style="stroke:#000000; stroke-linecap:round; stroke-linejoin:round; stroke-width:2; stroke-opacity:0.1; fill:none" points="1269.26,1423.18 1269.26,123.472 "/>
<polyline clip-path="url(#clip662)" style="stroke:#000000; stroke-linecap:round; stroke-linejoin:round; stroke-width:2; stroke-opacity:0.1; fill:none" points="1610.3,1423.18 1610.3,123.472 "/>
<polyline clip-path="url(#clip662)" style="stroke:#000000; stroke-linecap:round; stroke-linejoin:round; stroke-width:2; stroke-opacity:0.1; fill:none" points="1951.35,1423.18 1951.35,123.472 "/>
<polyline clip-path="url(#clip662)" style="stroke:#000000; stroke-linecap:round; stroke-linejoin:round; stroke-width:2; stroke-opacity:0.1; fill:none" points="2292.39,1423.18 2292.39,123.472 "/>
<polyline clip-path="url(#clip660)" style="stroke:#000000; stroke-linecap:round; stroke-linejoin:round; stroke-width:4; stroke-opacity:1; fill:none" points="219.866,1423.18 2352.76,1423.18 "/>
<polyline clip-path="url(#clip660)" style="stroke:#000000; stroke-linecap:round; stroke-linejoin:round; stroke-width:4; stroke-opacity:1; fill:none" points="246.127,1423.18 246.127,1404.28 "/>
<polyline clip-path="url(#clip660)" style="stroke:#000000; stroke-linecap:round; stroke-linejoin:round; stroke-width:4; stroke-opacity:1; fill:none" points="587.171,1423.18 587.171,1404.28 "/>
<polyline clip-path="url(#clip660)" style="stroke:#000000; stroke-linecap:round; stroke-linejoin:round; stroke-width:4; stroke-opacity:1; fill:none" points="928.215,1423.18 928.215,1404.28 "/>
<polyline clip-path="url(#clip660)" style="stroke:#000000; stroke-linecap:round; stroke-linejoin:round; stroke-width:4; stroke-opacity:1; fill:none" points="1269.26,1423.18 1269.26,1404.28 "/>
<polyline clip-path="url(#clip660)" style="stroke:#000000; stroke-linecap:round; stroke-linejoin:round; stroke-width:4; stroke-opacity:1; fill:none" points="1610.3,1423.18 1610.3,1404.28 "/>
<polyline clip-path="url(#clip660)" style="stroke:#000000; stroke-linecap:round; stroke-linejoin:round; stroke-width:4; stroke-opacity:1; fill:none" points="1951.35,1423.18 1951.35,1404.28 "/>
<polyline clip-path="url(#clip660)" style="stroke:#000000; stroke-linecap:round; stroke-linejoin:round; stroke-width:4; stroke-opacity:1; fill:none" points="2292.39,1423.18 2292.39,1404.28 "/>
<path clip-path="url(#clip660)" d="M246.127 1454.1 Q242.516 1454.1 240.687 1457.66 Q238.881 1461.2 238.881 1468.33 Q238.881 1475.44 240.687 1479.01 Q242.516 1482.55 246.127 1482.55 Q249.761 1482.55 251.566 1479.01 Q253.395 1475.44 253.395 1468.33 Q253.395 1461.2 251.566 1457.66 Q249.761 1454.1 246.127 1454.1 M246.127 1450.39 Q251.937 1450.39 254.992 1455 Q258.071 1459.58 258.071 1468.33 Q258.071 1477.06 254.992 1481.67 Q251.937 1486.25 246.127 1486.25 Q240.317 1486.25 237.238 1481.67 Q234.182 1477.06 234.182 1468.33 Q234.182 1459.58 237.238 1455 Q240.317 1450.39 246.127 1450.39 Z" fill="#000000" fill-rule="nonzero" fill-opacity="1" /><path clip-path="url(#clip660)" d="M561.858 1481.64 L569.497 1481.64 L569.497 1455.28 L561.187 1456.95 L561.187 1452.69 L569.451 1451.02 L574.127 1451.02 L574.127 1481.64 L581.766 1481.64 L581.766 1485.58 L561.858 1485.58 L561.858 1481.64 Z" fill="#000000" fill-rule="nonzero" fill-opacity="1" /><path clip-path="url(#clip660)" d="M601.21 1454.1 Q597.599 1454.1 595.77 1457.66 Q593.965 1461.2 593.965 1468.33 Q593.965 1475.44 595.77 1479.01 Q597.599 1482.55 601.21 1482.55 Q604.844 1482.55 606.65 1479.01 Q608.478 1475.44 608.478 1468.33 Q608.478 1461.2 606.65 1457.66 Q604.844 1454.1 601.21 1454.1 M601.21 1450.39 Q607.02 1450.39 610.076 1455 Q613.154 1459.58 613.154 1468.33 Q613.154 1477.06 610.076 1481.67 Q607.02 1486.25 601.21 1486.25 Q595.4 1486.25 592.321 1481.67 Q589.266 1477.06 589.266 1468.33 Q589.266 1459.58 592.321 1455 Q595.4 1450.39 601.21 1450.39 Z" fill="#000000" fill-rule="nonzero" fill-opacity="1" /><path clip-path="url(#clip660)" d="M906.988 1481.64 L923.307 1481.64 L923.307 1485.58 L901.363 1485.58 L901.363 1481.64 Q904.025 1478.89 908.608 1474.26 Q913.215 1469.61 914.395 1468.27 Q916.641 1465.74 917.52 1464.01 Q918.423 1462.25 918.423 1460.56 Q918.423 1457.8 916.479 1456.07 Q914.557 1454.33 911.456 1454.33 Q909.257 1454.33 906.803 1455.09 Q904.372 1455.86 901.595 1457.41 L901.595 1452.69 Q904.419 1451.55 906.872 1450.97 Q909.326 1450.39 911.363 1450.39 Q916.733 1450.39 919.928 1453.08 Q923.122 1455.77 923.122 1460.26 Q923.122 1462.39 922.312 1464.31 Q921.525 1466.2 919.419 1468.8 Q918.84 1469.47 915.738 1472.69 Q912.636 1475.88 906.988 1481.64 Z" fill="#000000" fill-rule="nonzero" fill-opacity="1" /><path clip-path="url(#clip660)" d="M943.122 1454.1 Q939.511 1454.1 937.682 1457.66 Q935.877 1461.2 935.877 1468.33 Q935.877 1475.44 937.682 1479.01 Q939.511 1482.55 943.122 1482.55 Q946.756 1482.55 948.562 1479.01 Q950.391 1475.44 950.391 1468.33 Q950.391 1461.2 948.562 1457.66 Q946.756 1454.1 943.122 1454.1 M943.122 1450.39 Q948.932 1450.39 951.988 1455 Q955.067 1459.58 955.067 1468.33 Q955.067 1477.06 951.988 1481.67 Q948.932 1486.25 943.122 1486.25 Q937.312 1486.25 934.233 1481.67 Q931.178 1477.06 931.178 1468.33 Q931.178 1459.58 934.233 1455 Q937.312 1450.39 943.122 1450.39 Z" fill="#000000" fill-rule="nonzero" fill-opacity="1" /><path clip-path="url(#clip660)" d="M1258.1 1466.95 Q1261.46 1467.66 1263.33 1469.93 Q1265.23 1472.2 1265.23 1475.53 Q1265.23 1480.65 1261.71 1483.45 Q1258.19 1486.25 1251.71 1486.25 Q1249.54 1486.25 1247.22 1485.81 Q1244.93 1485.39 1242.48 1484.54 L1242.48 1480.02 Q1244.42 1481.16 1246.74 1481.74 Q1249.05 1482.32 1251.57 1482.32 Q1255.97 1482.32 1258.26 1480.58 Q1260.58 1478.84 1260.58 1475.53 Q1260.58 1472.48 1258.43 1470.77 Q1256.3 1469.03 1252.48 1469.03 L1248.45 1469.03 L1248.45 1465.19 L1252.66 1465.19 Q1256.11 1465.19 1257.94 1463.82 Q1259.77 1462.43 1259.77 1459.84 Q1259.77 1457.18 1257.87 1455.77 Q1256 1454.33 1252.48 1454.33 Q1250.56 1454.33 1248.36 1454.75 Q1246.16 1455.16 1243.52 1456.04 L1243.52 1451.88 Q1246.18 1451.14 1248.5 1450.77 Q1250.83 1450.39 1252.89 1450.39 Q1258.22 1450.39 1261.32 1452.83 Q1264.42 1455.23 1264.42 1459.35 Q1264.42 1462.22 1262.78 1464.21 Q1261.13 1466.18 1258.1 1466.95 Z" fill="#000000" fill-rule="nonzero" fill-opacity="1" /><path clip-path="url(#clip660)" d="M1284.1 1454.1 Q1280.49 1454.1 1278.66 1457.66 Q1276.85 1461.2 1276.85 1468.33 Q1276.85 1475.44 1278.66 1479.01 Q1280.49 1482.55 1284.1 1482.55 Q1287.73 1482.55 1289.54 1479.01 Q1291.37 1475.44 1291.37 1468.33 Q1291.37 1461.2 1289.54 1457.66 Q1287.73 1454.1 1284.1 1454.1 M1284.1 1450.39 Q1289.91 1450.39 1292.96 1455 Q1296.04 1459.58 1296.04 1468.33 Q1296.04 1477.06 1292.96 1481.67 Q1289.91 1486.25 1284.1 1486.25 Q1278.29 1486.25 1275.21 1481.67 Q1272.15 1477.06 1272.15 1468.33 Q1272.15 1459.58 1275.21 1455 Q1278.29 1450.39 1284.1 1450.39 Z" fill="#000000" fill-rule="nonzero" fill-opacity="1" /><path clip-path="url(#clip660)" d="M1598.47 1455.09 L1586.67 1473.54 L1598.47 1473.54 L1598.47 1455.09 M1597.25 1451.02 L1603.13 1451.02 L1603.13 1473.54 L1608.06 1473.54 L1608.06 1477.43 L1603.13 1477.43 L1603.13 1485.58 L1598.47 1485.58 L1598.47 1477.43 L1582.87 1477.43 L1582.87 1472.92 L1597.25 1451.02 Z" fill="#000000" fill-rule="nonzero" fill-opacity="1" /><path clip-path="url(#clip660)" d="M1625.79 1454.1 Q1622.18 1454.1 1620.35 1457.66 Q1618.54 1461.2 1618.54 1468.33 Q1618.54 1475.44 1620.35 1479.01 Q1622.18 1482.55 1625.79 1482.55 Q1629.42 1482.55 1631.23 1479.01 Q1633.06 1475.44 1633.06 1468.33 Q1633.06 1461.2 1631.23 1457.66 Q1629.42 1454.1 1625.79 1454.1 M1625.79 1450.39 Q1631.6 1450.39 1634.65 1455 Q1637.73 1459.58 1637.73 1468.33 Q1637.73 1477.06 1634.65 1481.67 Q1631.6 1486.25 1625.79 1486.25 Q1619.98 1486.25 1616.9 1481.67 Q1613.84 1477.06 1613.84 1468.33 Q1613.84 1459.58 1616.9 1455 Q1619.98 1450.39 1625.79 1450.39 Z" fill="#000000" fill-rule="nonzero" fill-opacity="1" /><path clip-path="url(#clip660)" d="M1926.05 1451.02 L1944.4 1451.02 L1944.4 1454.96 L1930.33 1454.96 L1930.33 1463.43 Q1931.35 1463.08 1932.37 1462.92 Q1933.38 1462.73 1934.4 1462.73 Q1940.19 1462.73 1943.57 1465.9 Q1946.95 1469.08 1946.95 1474.49 Q1946.95 1480.07 1943.48 1483.17 Q1940 1486.25 1933.69 1486.25 Q1931.51 1486.25 1929.24 1485.88 Q1927 1485.51 1924.59 1484.77 L1924.59 1480.07 Q1926.67 1481.2 1928.89 1481.76 Q1931.12 1482.32 1933.59 1482.32 Q1937.6 1482.32 1939.94 1480.21 Q1942.27 1478.1 1942.27 1474.49 Q1942.27 1470.88 1939.94 1468.77 Q1937.6 1466.67 1933.59 1466.67 Q1931.72 1466.67 1929.84 1467.08 Q1927.99 1467.5 1926.05 1468.38 L1926.05 1451.02 Z" fill="#000000" fill-rule="nonzero" fill-opacity="1" /><path clip-path="url(#clip660)" d="M1966.16 1454.1 Q1962.55 1454.1 1960.72 1457.66 Q1958.92 1461.2 1958.92 1468.33 Q1958.92 1475.44 1960.72 1479.01 Q1962.55 1482.55 1966.16 1482.55 Q1969.8 1482.55 1971.6 1479.01 Q1973.43 1475.44 1973.43 1468.33 Q1973.43 1461.2 1971.6 1457.66 Q1969.8 1454.1 1966.16 1454.1 M1966.16 1450.39 Q1971.97 1450.39 1975.03 1455 Q1978.11 1459.58 1978.11 1468.33 Q1978.11 1477.06 1975.03 1481.67 Q1971.97 1486.25 1966.16 1486.25 Q1960.35 1486.25 1957.27 1481.67 Q1954.22 1477.06 1954.22 1468.33 Q1954.22 1459.58 1957.27 1455 Q1960.35 1450.39 1966.16 1450.39 Z" fill="#000000" fill-rule="nonzero" fill-opacity="1" /><path clip-path="url(#clip660)" d="M2277.8 1466.44 Q2274.65 1466.44 2272.8 1468.59 Q2270.97 1470.74 2270.97 1474.49 Q2270.97 1478.22 2272.8 1480.39 Q2274.65 1482.55 2277.8 1482.55 Q2280.94 1482.55 2282.77 1480.39 Q2284.62 1478.22 2284.62 1474.49 Q2284.62 1470.74 2282.77 1468.59 Q2280.94 1466.44 2277.8 1466.44 M2287.08 1451.78 L2287.08 1456.04 Q2285.32 1455.21 2283.51 1454.77 Q2281.73 1454.33 2279.97 1454.33 Q2275.34 1454.33 2272.89 1457.45 Q2270.46 1460.58 2270.11 1466.9 Q2271.48 1464.89 2273.54 1463.82 Q2275.6 1462.73 2278.07 1462.73 Q2283.28 1462.73 2286.29 1465.9 Q2289.32 1469.05 2289.32 1474.49 Q2289.32 1479.82 2286.18 1483.03 Q2283.03 1486.25 2277.8 1486.25 Q2271.8 1486.25 2268.63 1481.67 Q2265.46 1477.06 2265.46 1468.33 Q2265.46 1460.14 2269.35 1455.28 Q2273.24 1450.39 2279.79 1450.39 Q2281.55 1450.39 2283.33 1450.74 Q2285.13 1451.09 2287.08 1451.78 Z" fill="#000000" fill-rule="nonzero" fill-opacity="1" /><path clip-path="url(#clip660)" d="M2307.38 1454.1 Q2303.77 1454.1 2301.94 1457.66 Q2300.13 1461.2 2300.13 1468.33 Q2300.13 1475.44 2301.94 1479.01 Q2303.77 1482.55 2307.38 1482.55 Q2311.01 1482.55 2312.82 1479.01 Q2314.65 1475.44 2314.65 1468.33 Q2314.65 1461.2 2312.82 1457.66 Q2311.01 1454.1 2307.38 1454.1 M2307.38 1450.39 Q2313.19 1450.39 2316.25 1455 Q2319.32 1459.58 2319.32 1468.33 Q2319.32 1477.06 2316.25 1481.67 Q2313.19 1486.25 2307.38 1486.25 Q2301.57 1486.25 2298.49 1481.67 Q2295.44 1477.06 2295.44 1468.33 Q2295.44 1459.58 2298.49 1455 Q2301.57 1450.39 2307.38 1450.39 Z" fill="#000000" fill-rule="nonzero" fill-opacity="1" /><path clip-path="url(#clip660)" d="M1016.12 1532.4 L1022.33 1532.4 L1033.47 1562.31 L1044.61 1532.4 L1050.81 1532.4 L1037.44 1568.04 L1029.49 1568.04 L1016.12 1532.4 Z" fill="#000000" fill-rule="nonzero" fill-opacity="1" /><path clip-path="url(#clip660)" d="M1089.39 1548.76 L1089.39 1551.62 L1062.46 1551.62 Q1062.84 1557.67 1066.09 1560.85 Q1069.37 1564 1075.19 1564 Q1078.57 1564 1081.72 1563.17 Q1084.9 1562.35 1088.02 1560.69 L1088.02 1566.23 Q1084.87 1567.57 1081.56 1568.27 Q1078.25 1568.97 1074.84 1568.97 Q1066.31 1568.97 1061.32 1564 Q1056.35 1559.04 1056.35 1550.57 Q1056.35 1541.82 1061.06 1536.69 Q1065.8 1531.54 1073.82 1531.54 Q1081.02 1531.54 1085.19 1536.18 Q1089.39 1540.8 1089.39 1548.76 M1083.53 1547.04 Q1083.47 1542.23 1080.83 1539.37 Q1078.22 1536.5 1073.89 1536.5 Q1068.99 1536.5 1066.03 1539.27 Q1063.1 1542.04 1062.65 1547.07 L1083.53 1547.04 Z" fill="#000000" fill-rule="nonzero" fill-opacity="1" /><path clip-path="url(#clip660)" d="M1119.66 1537.87 Q1118.67 1537.3 1117.49 1537.04 Q1116.35 1536.76 1114.95 1536.76 Q1109.98 1536.76 1107.31 1540 Q1104.67 1543.22 1104.67 1549.27 L1104.67 1568.04 L1098.78 1568.04 L1098.78 1532.4 L1104.67 1532.4 L1104.67 1537.93 Q1106.51 1534.69 1109.47 1533.13 Q1112.43 1531.54 1116.67 1531.54 Q1117.27 1531.54 1118 1531.63 Q1118.73 1531.7 1119.63 1531.85 L1119.66 1537.87 Z" fill="#000000" fill-rule="nonzero" fill-opacity="1" /><path clip-path="url(#clip660)" d="M1148.11 1537.81 L1148.11 1518.52 L1153.97 1518.52 L1153.97 1568.04 L1148.11 1568.04 L1148.11 1562.7 Q1146.27 1565.88 1143.43 1567.44 Q1140.63 1568.97 1136.69 1568.97 Q1130.22 1568.97 1126.15 1563.81 Q1122.11 1558.65 1122.11 1550.25 Q1122.11 1541.85 1126.15 1536.69 Q1130.22 1531.54 1136.69 1531.54 Q1140.63 1531.54 1143.43 1533.1 Q1146.27 1534.62 1148.11 1537.81 M1128.16 1550.25 Q1128.16 1556.71 1130.8 1560.4 Q1133.47 1564.07 1138.12 1564.07 Q1142.76 1564.07 1145.44 1560.4 Q1148.11 1556.71 1148.11 1550.25 Q1148.11 1543.79 1145.44 1540.13 Q1142.76 1536.44 1138.12 1536.44 Q1133.47 1536.44 1130.8 1540.13 Q1128.16 1543.79 1128.16 1550.25 Z" fill="#000000" fill-rule="nonzero" fill-opacity="1" /><path clip-path="url(#clip660)" d="M1166.03 1532.4 L1171.89 1532.4 L1171.89 1568.04 L1166.03 1568.04 L1166.03 1532.4 M1166.03 1518.52 L1171.89 1518.52 L1171.89 1525.93 L1166.03 1525.93 L1166.03 1518.52 Z" fill="#000000" fill-rule="nonzero" fill-opacity="1" /><path clip-path="url(#clip660)" d="M1214.63 1548.76 L1214.63 1551.62 L1187.71 1551.62 Q1188.09 1557.67 1191.33 1560.85 Q1194.61 1564 1200.44 1564 Q1203.81 1564 1206.96 1563.17 Q1210.15 1562.35 1213.26 1560.69 L1213.26 1566.23 Q1210.11 1567.57 1206.8 1568.27 Q1203.49 1568.97 1200.09 1568.97 Q1191.56 1568.97 1186.56 1564 Q1181.6 1559.04 1181.6 1550.57 Q1181.6 1541.82 1186.31 1536.69 Q1191.05 1531.54 1199.07 1531.54 Q1206.26 1531.54 1210.43 1536.18 Q1214.63 1540.8 1214.63 1548.76 M1208.78 1547.04 Q1208.71 1542.23 1206.07 1539.37 Q1203.46 1536.5 1199.13 1536.5 Q1194.23 1536.5 1191.27 1539.27 Q1188.34 1542.04 1187.9 1547.07 L1208.78 1547.04 Z" fill="#000000" fill-rule="nonzero" fill-opacity="1" /><path clip-path="url(#clip660)" d="M1244.9 1537.87 Q1243.92 1537.3 1242.74 1537.04 Q1241.59 1536.76 1240.19 1536.76 Q1235.23 1536.76 1232.55 1540 Q1229.91 1543.22 1229.91 1549.27 L1229.91 1568.04 L1224.02 1568.04 L1224.02 1532.4 L1229.91 1532.4 L1229.91 1537.93 Q1231.76 1534.69 1234.72 1533.13 Q1237.68 1531.54 1241.91 1531.54 Q1242.52 1531.54 1243.25 1531.63 Q1243.98 1531.7 1244.87 1531.85 L1244.9 1537.87 Z" fill="#000000" fill-rule="nonzero" fill-opacity="1" /><path clip-path="url(#clip660)" d="M1289.81 1518.52 L1289.81 1523.39 L1284.21 1523.39 Q1281.06 1523.39 1279.82 1524.66 Q1278.61 1525.93 1278.61 1529.24 L1278.61 1532.4 L1288.25 1532.4 L1288.25 1536.95 L1278.61 1536.95 L1278.61 1568.04 L1272.72 1568.04 L1272.72 1536.95 L1267.12 1536.95 L1267.12 1532.4 L1272.72 1532.4 L1272.72 1529.91 Q1272.72 1523.96 1275.49 1521.26 Q1278.26 1518.52 1284.27 1518.52 L1289.81 1518.52 Z" fill="#000000" fill-rule="nonzero" fill-opacity="1" /><path clip-path="url(#clip660)" d="M1315.37 1537.87 Q1314.38 1537.3 1313.21 1537.04 Q1312.06 1536.76 1310.66 1536.76 Q1305.69 1536.76 1303.02 1540 Q1300.38 1543.22 1300.38 1549.27 L1300.38 1568.04 L1294.49 1568.04 L1294.49 1532.4 L1300.38 1532.4 L1300.38 1537.93 Q1302.23 1534.69 1305.19 1533.13 Q1308.15 1531.54 1312.38 1531.54 Q1312.98 1531.54 1313.72 1531.63 Q1314.45 1531.7 1315.34 1531.85 L1315.37 1537.87 Z" fill="#000000" fill-rule="nonzero" fill-opacity="1" /><path clip-path="url(#clip660)" d="M1337.71 1550.12 Q1330.62 1550.12 1327.88 1551.75 Q1325.14 1553.37 1325.14 1557.29 Q1325.14 1560.4 1327.18 1562.25 Q1329.25 1564.07 1332.78 1564.07 Q1337.65 1564.07 1340.58 1560.63 Q1343.54 1557.16 1343.54 1551.43 L1343.54 1550.12 L1337.71 1550.12 M1349.4 1547.71 L1349.4 1568.04 L1343.54 1568.04 L1343.54 1562.63 Q1341.53 1565.88 1338.54 1567.44 Q1335.55 1568.97 1331.22 1568.97 Q1325.75 1568.97 1322.5 1565.91 Q1319.29 1562.82 1319.29 1557.67 Q1319.29 1551.65 1323.3 1548.6 Q1327.34 1545.54 1335.33 1545.54 L1343.54 1545.54 L1343.54 1544.97 Q1343.54 1540.93 1340.87 1538.73 Q1338.22 1536.5 1333.42 1536.5 Q1330.36 1536.5 1327.47 1537.23 Q1324.57 1537.97 1321.9 1539.43 L1321.9 1534.02 Q1325.11 1532.78 1328.13 1532.17 Q1331.16 1531.54 1334.02 1531.54 Q1341.76 1531.54 1345.58 1535.55 Q1349.4 1539.56 1349.4 1547.71 Z" fill="#000000" fill-rule="nonzero" fill-opacity="1" /><path clip-path="url(#clip660)" d="M1384.12 1562.63 L1394.62 1562.63 L1394.62 1526.38 L1383.2 1528.67 L1383.2 1522.82 L1394.56 1520.52 L1400.99 1520.52 L1400.99 1562.63 L1411.49 1562.63 L1411.49 1568.04 L1384.12 1568.04 L1384.12 1562.63 Z" fill="#000000" fill-rule="nonzero" fill-opacity="1" /><path clip-path="url(#clip660)" d="M1450.16 1522.27 L1450.16 1532.4 L1462.23 1532.4 L1462.23 1536.95 L1450.16 1536.95 L1450.16 1556.3 Q1450.16 1560.66 1451.34 1561.9 Q1452.55 1563.14 1456.21 1563.14 L1462.23 1563.14 L1462.23 1568.04 L1456.21 1568.04 Q1449.43 1568.04 1446.85 1565.53 Q1444.28 1562.98 1444.28 1556.3 L1444.28 1536.95 L1439.98 1536.95 L1439.98 1532.4 L1444.28 1532.4 L1444.28 1522.27 L1450.16 1522.27 Z" fill="#000000" fill-rule="nonzero" fill-opacity="1" /><path clip-path="url(#clip660)" d="M1469.93 1532.4 L1475.79 1532.4 L1475.79 1568.04 L1469.93 1568.04 L1469.93 1532.4 M1469.93 1518.52 L1475.79 1518.52 L1475.79 1525.93 L1469.93 1525.93 L1469.93 1518.52 Z" fill="#000000" fill-rule="nonzero" fill-opacity="1" /><path clip-path="url(#clip660)" d="M1488.04 1518.52 L1493.9 1518.52 L1493.9 1568.04 L1488.04 1568.04 L1488.04 1518.52 Z" fill="#000000" fill-rule="nonzero" fill-opacity="1" /><path clip-path="url(#clip660)" d="M1556.5 1546.53 L1556.5 1568.04 L1550.65 1568.04 L1550.65 1546.72 Q1550.65 1541.66 1548.67 1539.14 Q1546.7 1536.63 1542.75 1536.63 Q1538.01 1536.63 1535.27 1539.65 Q1532.54 1542.68 1532.54 1547.9 L1532.54 1568.04 L1526.65 1568.04 L1526.65 1532.4 L1532.54 1532.4 L1532.54 1537.93 Q1534.64 1534.72 1537.47 1533.13 Q1540.33 1531.54 1544.06 1531.54 Q1550.2 1531.54 1553.35 1535.36 Q1556.5 1539.14 1556.5 1546.53 Z" fill="#000000" fill-rule="nonzero" fill-opacity="1" /><polyline clip-path="url(#clip662)" style="stroke:#000000; stroke-linecap:round; stroke-linejoin:round; stroke-width:2; stroke-opacity:0.1; fill:none" points="219.866,1392.14 2352.76,1392.14 "/>
<polyline clip-path="url(#clip662)" style="stroke:#000000; stroke-linecap:round; stroke-linejoin:round; stroke-width:2; stroke-opacity:0.1; fill:none" points="219.866,1124.17 2352.76,1124.17 "/>
<polyline clip-path="url(#clip662)" style="stroke:#000000; stroke-linecap:round; stroke-linejoin:round; stroke-width:2; stroke-opacity:0.1; fill:none" points="219.866,856.213 2352.76,856.213 "/>
<polyline clip-path="url(#clip662)" style="stroke:#000000; stroke-linecap:round; stroke-linejoin:round; stroke-width:2; stroke-opacity:0.1; fill:none" points="219.866,588.251 2352.76,588.251 "/>
<polyline clip-path="url(#clip662)" style="stroke:#000000; stroke-linecap:round; stroke-linejoin:round; stroke-width:2; stroke-opacity:0.1; fill:none" points="219.866,320.289 2352.76,320.289 "/>
<polyline clip-path="url(#clip660)" style="stroke:#000000; stroke-linecap:round; stroke-linejoin:round; stroke-width:4; stroke-opacity:1; fill:none" points="219.866,1423.18 219.866,123.472 "/>
<polyline clip-path="url(#clip660)" style="stroke:#000000; stroke-linecap:round; stroke-linejoin:round; stroke-width:4; stroke-opacity:1; fill:none" points="219.866,1392.14 238.764,1392.14 "/>
<polyline clip-path="url(#clip660)" style="stroke:#000000; stroke-linecap:round; stroke-linejoin:round; stroke-width:4; stroke-opacity:1; fill:none" points="219.866,1124.17 238.764,1124.17 "/>
<polyline clip-path="url(#clip660)" style="stroke:#000000; stroke-linecap:round; stroke-linejoin:round; stroke-width:4; stroke-opacity:1; fill:none" points="219.866,856.213 238.764,856.213 "/>
<polyline clip-path="url(#clip660)" style="stroke:#000000; stroke-linecap:round; stroke-linejoin:round; stroke-width:4; stroke-opacity:1; fill:none" points="219.866,588.251 238.764,588.251 "/>
<polyline clip-path="url(#clip660)" style="stroke:#000000; stroke-linecap:round; stroke-linejoin:round; stroke-width:4; stroke-opacity:1; fill:none" points="219.866,320.289 238.764,320.289 "/>
<path clip-path="url(#clip660)" d="M126.691 1377.94 Q123.08 1377.94 121.251 1381.5 Q119.445 1385.04 119.445 1392.17 Q119.445 1399.28 121.251 1402.84 Q123.08 1406.38 126.691 1406.38 Q130.325 1406.38 132.13 1402.84 Q133.959 1399.28 133.959 1392.17 Q133.959 1385.04 132.13 1381.5 Q130.325 1377.94 126.691 1377.94 M126.691 1374.23 Q132.501 1374.23 135.556 1378.84 Q138.635 1383.42 138.635 1392.17 Q138.635 1400.9 135.556 1405.5 Q132.501 1410.09 126.691 1410.09 Q120.88 1410.09 117.802 1405.5 Q114.746 1400.9 114.746 1392.17 Q114.746 1383.42 117.802 1378.84 Q120.88 1374.23 126.691 1374.23 Z" fill="#000000" fill-rule="nonzero" fill-opacity="1" /><path clip-path="url(#clip660)" d="M146.853 1403.54 L151.737 1403.54 L151.737 1409.42 L146.853 1409.42 L146.853 1403.54 Z" fill="#000000" fill-rule="nonzero" fill-opacity="1" /><path clip-path="url(#clip660)" d="M171.922 1377.94 Q168.311 1377.94 166.482 1381.5 Q164.677 1385.04 164.677 1392.17 Q164.677 1399.28 166.482 1402.84 Q168.311 1406.38 171.922 1406.38 Q175.556 1406.38 177.362 1402.84 Q179.19 1399.28 179.19 1392.17 Q179.19 1385.04 177.362 1381.5 Q175.556 1377.94 171.922 1377.94 M171.922 1374.23 Q177.732 1374.23 180.788 1378.84 Q183.866 1383.42 183.866 1392.17 Q183.866 1400.9 180.788 1405.5 Q177.732 1410.09 171.922 1410.09 Q166.112 1410.09 163.033 1405.5 Q159.978 1400.9 159.978 1392.17 Q159.978 1383.42 163.033 1378.84 Q166.112 1374.23 171.922 1374.23 Z" fill="#000000" fill-rule="nonzero" fill-opacity="1" /><path clip-path="url(#clip660)" d="M128.288 1109.97 Q124.677 1109.97 122.848 1113.54 Q121.043 1117.08 121.043 1124.21 Q121.043 1131.32 122.848 1134.88 Q124.677 1138.42 128.288 1138.42 Q131.922 1138.42 133.728 1134.88 Q135.556 1131.32 135.556 1124.21 Q135.556 1117.08 133.728 1113.54 Q131.922 1109.97 128.288 1109.97 M128.288 1106.27 Q134.098 1106.27 137.154 1110.88 Q140.232 1115.46 140.232 1124.21 Q140.232 1132.94 137.154 1137.54 Q134.098 1142.13 128.288 1142.13 Q122.478 1142.13 119.399 1137.54 Q116.343 1132.94 116.343 1124.21 Q116.343 1115.46 119.399 1110.88 Q122.478 1106.27 128.288 1106.27 Z" fill="#000000" fill-rule="nonzero" fill-opacity="1" /><path clip-path="url(#clip660)" d="M148.45 1135.58 L153.334 1135.58 L153.334 1141.45 L148.45 1141.45 L148.45 1135.58 Z" fill="#000000" fill-rule="nonzero" fill-opacity="1" /><path clip-path="url(#clip660)" d="M167.547 1137.52 L183.866 1137.52 L183.866 1141.45 L161.922 1141.45 L161.922 1137.52 Q164.584 1134.77 169.167 1130.14 Q173.774 1125.48 174.954 1124.14 Q177.2 1121.62 178.079 1119.88 Q178.982 1118.12 178.982 1116.43 Q178.982 1113.68 177.038 1111.94 Q175.116 1110.21 172.014 1110.21 Q169.815 1110.21 167.362 1110.97 Q164.931 1111.73 162.153 1113.28 L162.153 1108.56 Q164.977 1107.43 167.431 1106.85 Q169.885 1106.27 171.922 1106.27 Q177.292 1106.27 180.487 1108.96 Q183.681 1111.64 183.681 1116.13 Q183.681 1118.26 182.871 1120.18 Q182.084 1122.08 179.977 1124.67 Q179.399 1125.34 176.297 1128.56 Q173.195 1131.76 167.547 1137.52 Z" fill="#000000" fill-rule="nonzero" fill-opacity="1" /><path clip-path="url(#clip660)" d="M126.205 842.012 Q122.593 842.012 120.765 845.576 Q118.959 849.118 118.959 856.248 Q118.959 863.354 120.765 866.919 Q122.593 870.461 126.205 870.461 Q129.839 870.461 131.644 866.919 Q133.473 863.354 133.473 856.248 Q133.473 849.118 131.644 845.576 Q129.839 842.012 126.205 842.012 M126.205 838.308 Q132.015 838.308 135.07 842.914 Q138.149 847.498 138.149 856.248 Q138.149 864.975 135.07 869.581 Q132.015 874.164 126.205 874.164 Q120.394 874.164 117.316 869.581 Q114.26 864.975 114.26 856.248 Q114.26 847.498 117.316 842.914 Q120.394 838.308 126.205 838.308 Z" fill="#000000" fill-rule="nonzero" fill-opacity="1" /><path clip-path="url(#clip660)" d="M146.366 867.613 L151.251 867.613 L151.251 873.493 L146.366 873.493 L146.366 867.613 Z" fill="#000000" fill-rule="nonzero" fill-opacity="1" /><path clip-path="url(#clip660)" d="M174.283 843.007 L162.477 861.456 L174.283 861.456 L174.283 843.007 M173.056 838.933 L178.936 838.933 L178.936 861.456 L183.866 861.456 L183.866 865.345 L178.936 865.345 L178.936 873.493 L174.283 873.493 L174.283 865.345 L158.681 865.345 L158.681 860.831 L173.056 838.933 Z" fill="#000000" fill-rule="nonzero" fill-opacity="1" /><path clip-path="url(#clip660)" d="M126.529 574.05 Q122.918 574.05 121.089 577.614 Q119.283 581.156 119.283 588.286 Q119.283 595.392 121.089 598.957 Q122.918 602.499 126.529 602.499 Q130.163 602.499 131.968 598.957 Q133.797 595.392 133.797 588.286 Q133.797 581.156 131.968 577.614 Q130.163 574.05 126.529 574.05 M126.529 570.346 Q132.339 570.346 135.394 574.952 Q138.473 579.536 138.473 588.286 Q138.473 597.013 135.394 601.619 Q132.339 606.202 126.529 606.202 Q120.718 606.202 117.64 601.619 Q114.584 597.013 114.584 588.286 Q114.584 579.536 117.64 574.952 Q120.718 570.346 126.529 570.346 Z" fill="#000000" fill-rule="nonzero" fill-opacity="1" /><path clip-path="url(#clip660)" d="M146.691 599.651 L151.575 599.651 L151.575 605.531 L146.691 605.531 L146.691 599.651 Z" fill="#000000" fill-rule="nonzero" fill-opacity="1" /><path clip-path="url(#clip660)" d="M172.339 586.388 Q169.19 586.388 167.339 588.54 Q165.51 590.693 165.51 594.443 Q165.51 598.17 167.339 600.346 Q169.19 602.499 172.339 602.499 Q175.487 602.499 177.315 600.346 Q179.167 598.17 179.167 594.443 Q179.167 590.693 177.315 588.54 Q175.487 586.388 172.339 586.388 M181.621 571.735 L181.621 575.994 Q179.862 575.161 178.056 574.721 Q176.274 574.281 174.514 574.281 Q169.885 574.281 167.431 577.406 Q165.001 580.531 164.653 586.851 Q166.019 584.837 168.079 583.772 Q170.139 582.684 172.616 582.684 Q177.825 582.684 180.834 585.855 Q183.866 589.003 183.866 594.443 Q183.866 599.767 180.718 602.985 Q177.57 606.202 172.339 606.202 Q166.343 606.202 163.172 601.619 Q160.001 597.013 160.001 588.286 Q160.001 580.091 163.89 575.23 Q167.778 570.346 174.329 570.346 Q176.089 570.346 177.871 570.693 Q179.676 571.04 181.621 571.735 Z" fill="#000000" fill-rule="nonzero" fill-opacity="1" /><path clip-path="url(#clip660)" d="M126.783 306.088 Q123.172 306.088 121.343 309.652 Q119.538 313.194 119.538 320.324 Q119.538 327.43 121.343 330.995 Q123.172 334.537 126.783 334.537 Q130.417 334.537 132.223 330.995 Q134.052 327.43 134.052 320.324 Q134.052 313.194 132.223 309.652 Q130.417 306.088 126.783 306.088 M126.783 302.384 Q132.593 302.384 135.649 306.99 Q138.728 311.574 138.728 320.324 Q138.728 329.051 135.649 333.657 Q132.593 338.24 126.783 338.24 Q120.973 338.24 117.894 333.657 Q114.839 329.051 114.839 320.324 Q114.839 311.574 117.894 306.99 Q120.973 302.384 126.783 302.384 Z" fill="#000000" fill-rule="nonzero" fill-opacity="1" /><path clip-path="url(#clip660)" d="M146.945 331.689 L151.829 331.689 L151.829 337.569 L146.945 337.569 L146.945 331.689 Z" fill="#000000" fill-rule="nonzero" fill-opacity="1" /><path clip-path="url(#clip660)" d="M172.014 321.157 Q168.681 321.157 166.76 322.939 Q164.862 324.722 164.862 327.847 Q164.862 330.972 166.76 332.754 Q168.681 334.537 172.014 334.537 Q175.348 334.537 177.269 332.754 Q179.19 330.949 179.19 327.847 Q179.19 324.722 177.269 322.939 Q175.371 321.157 172.014 321.157 M167.339 319.166 Q164.329 318.426 162.64 316.365 Q160.973 314.305 160.973 311.342 Q160.973 307.199 163.913 304.791 Q166.876 302.384 172.014 302.384 Q177.176 302.384 180.116 304.791 Q183.056 307.199 183.056 311.342 Q183.056 314.305 181.366 316.365 Q179.7 318.426 176.714 319.166 Q180.093 319.953 181.968 322.245 Q183.866 324.537 183.866 327.847 Q183.866 332.87 180.788 335.555 Q177.732 338.24 172.014 338.24 Q166.297 338.24 163.218 335.555 Q160.163 332.87 160.163 327.847 Q160.163 324.537 162.061 322.245 Q163.959 319.953 167.339 319.166 M165.626 311.782 Q165.626 314.467 167.292 315.972 Q168.982 317.477 172.014 317.477 Q175.024 317.477 176.714 315.972 Q178.426 314.467 178.426 311.782 Q178.426 309.097 176.714 307.592 Q175.024 306.088 172.014 306.088 Q168.982 306.088 167.292 307.592 Q165.626 309.097 165.626 311.782 Z" fill="#000000" fill-rule="nonzero" fill-opacity="1" /><path clip-path="url(#clip660)" d="M33.7671 1120.89 L14.479 1120.89 L14.479 1115.04 L64.0042 1115.04 L64.0042 1120.89 L58.657 1120.89 Q61.8398 1122.74 63.3994 1125.57 Q64.9272 1128.37 64.9272 1132.32 Q64.9272 1138.78 59.771 1142.86 Q54.6147 1146.9 46.212 1146.9 Q37.8093 1146.9 32.6531 1142.86 Q27.4968 1138.78 27.4968 1132.32 Q27.4968 1128.37 29.0564 1125.57 Q30.5842 1122.74 33.7671 1120.89 M46.212 1140.85 Q52.6732 1140.85 56.3653 1138.21 Q60.0256 1135.53 60.0256 1130.89 Q60.0256 1126.24 56.3653 1123.57 Q52.6732 1120.89 46.212 1120.89 Q39.7508 1120.89 36.0905 1123.57 Q32.3984 1126.24 32.3984 1130.89 Q32.3984 1135.53 36.0905 1138.21 Q39.7508 1140.85 46.212 1140.85 Z" fill="#000000" fill-rule="nonzero" fill-opacity="1" /><path clip-path="url(#clip660)" d="M44.7161 1072.48 L47.5806 1072.48 L47.5806 1099.41 Q53.6281 1099.03 56.8109 1095.78 Q59.9619 1092.5 59.9619 1086.68 Q59.9619 1083.3 59.1344 1080.15 Q58.3069 1076.97 56.6518 1073.85 L62.1899 1073.85 Q63.5267 1077 64.227 1080.31 Q64.9272 1083.62 64.9272 1087.03 Q64.9272 1095.56 59.9619 1100.56 Q54.9967 1105.52 46.5303 1105.52 Q37.7774 1105.52 32.6531 1100.81 Q27.4968 1096.07 27.4968 1088.05 Q27.4968 1080.85 32.1438 1076.68 Q36.7589 1072.48 44.7161 1072.48 M42.9973 1078.34 Q38.1912 1078.4 35.3266 1081.04 Q32.4621 1083.65 32.4621 1087.98 Q32.4621 1092.88 35.2312 1095.84 Q38.0002 1098.77 43.0292 1099.22 L42.9973 1078.34 Z" fill="#000000" fill-rule="nonzero" fill-opacity="1" /><path clip-path="url(#clip660)" d="M42.4881 1012.52 L64.0042 1012.52 L64.0042 1018.37 L42.679 1018.37 Q37.6183 1018.37 35.1038 1020.35 Q32.5894 1022.32 32.5894 1026.27 Q32.5894 1031.01 35.6131 1033.75 Q38.6368 1036.48 43.8567 1036.48 L64.0042 1036.48 L64.0042 1042.37 L28.3562 1042.37 L28.3562 1036.48 L33.8944 1036.48 Q30.6797 1034.38 29.0883 1031.55 Q27.4968 1028.69 27.4968 1024.96 Q27.4968 1018.82 31.3163 1015.67 Q35.1038 1012.52 42.4881 1012.52 Z" fill="#000000" fill-rule="nonzero" fill-opacity="1" /><path clip-path="url(#clip660)" d="M18.2347 974.323 L28.3562 974.323 L28.3562 962.26 L32.9077 962.26 L32.9077 974.323 L52.2594 974.323 Q56.6199 974.323 57.8613 973.146 Q59.1026 971.936 59.1026 968.276 L59.1026 962.26 L64.0042 962.26 L64.0042 968.276 Q64.0042 975.055 61.4897 977.633 Q58.9434 980.211 52.2594 980.211 L32.9077 980.211 L32.9077 984.508 L28.3562 984.508 L28.3562 980.211 L18.2347 980.211 L18.2347 974.323 Z" fill="#000000" fill-rule="nonzero" fill-opacity="1" /><path clip-path="url(#clip660)" d="M28.3562 954.558 L28.3562 948.701 L64.0042 948.701 L64.0042 954.558 L28.3562 954.558 M14.479 954.558 L14.479 948.701 L21.895 948.701 L21.895 954.558 L14.479 954.558 Z" fill="#000000" fill-rule="nonzero" fill-opacity="1" /><path clip-path="url(#clip660)" d="M14.479 936.447 L14.479 930.591 L64.0042 930.591 L64.0042 936.447 L14.479 936.447 Z" fill="#000000" fill-rule="nonzero" fill-opacity="1" /><path clip-path="url(#clip660)" d="M14.479 900.29 L19.3487 900.29 L19.3487 905.892 Q19.3487 909.043 20.6219 910.284 Q21.895 911.494 25.2052 911.494 L28.3562 911.494 L28.3562 901.85 L32.9077 901.85 L32.9077 911.494 L64.0042 911.494 L64.0042 917.382 L32.9077 917.382 L32.9077 922.984 L28.3562 922.984 L28.3562 917.382 L25.8736 917.382 Q19.9216 917.382 17.2162 914.613 Q14.479 911.844 14.479 905.828 L14.479 900.29 Z" fill="#000000" fill-rule="nonzero" fill-opacity="1" /><path clip-path="url(#clip660)" d="M44.7161 864.897 L47.5806 864.897 L47.5806 891.824 Q53.6281 891.442 56.8109 888.195 Q59.9619 884.917 59.9619 879.092 Q59.9619 875.718 59.1344 872.567 Q58.3069 869.384 56.6518 866.265 L62.1899 866.265 Q63.5267 869.416 64.227 872.726 Q64.9272 876.037 64.9272 879.442 Q64.9272 887.972 59.9619 892.969 Q54.9967 897.935 46.5303 897.935 Q37.7774 897.935 32.6531 893.224 Q27.4968 888.482 27.4968 880.461 Q27.4968 873.268 32.1438 869.098 Q36.7589 864.897 44.7161 864.897 M42.9973 870.753 Q38.1912 870.817 35.3266 873.459 Q32.4621 876.068 32.4621 880.397 Q32.4621 885.299 35.2312 888.259 Q38.0002 891.187 43.0292 891.633 L42.9973 870.753 Z" fill="#000000" fill-rule="nonzero" fill-opacity="1" /><path clip-path="url(#clip660)" d="M14.479 855.284 L14.479 849.428 L64.0042 849.428 L64.0042 855.284 L14.479 855.284 Z" fill="#000000" fill-rule="nonzero" fill-opacity="1" /><path clip-path="url(#clip660)" d="M33.7671 813.716 L14.479 813.716 L14.479 807.86 L64.0042 807.86 L64.0042 813.716 L58.657 813.716 Q61.8398 815.562 63.3994 818.395 Q64.9272 821.196 64.9272 825.143 Q64.9272 831.604 59.771 835.678 Q54.6147 839.72 46.212 839.72 Q37.8093 839.72 32.6531 835.678 Q27.4968 831.604 27.4968 825.143 Q27.4968 821.196 29.0564 818.395 Q30.5842 815.562 33.7671 813.716 M46.212 833.673 Q52.6732 833.673 56.3653 831.031 Q60.0256 828.358 60.0256 823.711 Q60.0256 819.064 56.3653 816.39 Q52.6732 813.716 46.212 813.716 Q39.7508 813.716 36.0905 816.39 Q32.3984 819.064 32.3984 823.711 Q32.3984 828.358 36.0905 831.031 Q39.7508 833.673 46.212 833.673 Z" fill="#000000" fill-rule="nonzero" fill-opacity="1" /><path clip-path="url(#clip660)" d="M28.3562 795.797 L28.3562 789.94 L64.0042 789.94 L64.0042 795.797 L28.3562 795.797 M14.479 795.797 L14.479 789.94 L21.895 789.94 L21.895 795.797 L14.479 795.797 Z" fill="#000000" fill-rule="nonzero" fill-opacity="1" /><path clip-path="url(#clip660)" d="M45.7664 754.229 Q39.4007 754.229 35.8996 756.871 Q32.3984 759.481 32.3984 764.223 Q32.3984 768.934 35.8996 771.575 Q39.4007 774.185 45.7664 774.185 Q52.1003 774.185 55.6014 771.575 Q59.1026 768.934 59.1026 764.223 Q59.1026 759.481 55.6014 756.871 Q52.1003 754.229 45.7664 754.229 M59.58 748.372 Q68.683 748.372 73.1071 752.415 Q77.5631 756.457 77.5631 764.796 Q77.5631 767.883 77.0857 770.621 Q76.6401 773.358 75.6852 775.936 L69.9879 775.936 Q71.3884 773.358 72.0568 770.843 Q72.7252 768.329 72.7252 765.719 Q72.7252 759.958 69.7015 757.093 Q66.7096 754.229 60.6303 754.229 L57.7339 754.229 Q60.885 756.043 62.4446 758.876 Q64.0042 761.709 64.0042 765.655 Q64.0042 772.212 59.0071 776.222 Q54.01 780.233 45.7664 780.233 Q37.491 780.233 32.4939 776.222 Q27.4968 772.212 27.4968 765.655 Q27.4968 761.709 29.0564 758.876 Q30.616 756.043 33.7671 754.229 L28.3562 754.229 L28.3562 748.372 L59.58 748.372 Z" fill="#000000" fill-rule="nonzero" fill-opacity="1" /><path clip-path="url(#clip660)" d="M44.7161 705.818 L47.5806 705.818 L47.5806 732.745 Q53.6281 732.363 56.8109 729.116 Q59.9619 725.838 59.9619 720.013 Q59.9619 716.639 59.1344 713.488 Q58.3069 710.305 56.6518 707.186 L62.1899 707.186 Q63.5267 710.337 64.227 713.647 Q64.9272 716.958 64.9272 720.363 Q64.9272 728.893 59.9619 733.89 Q54.9967 738.856 46.5303 738.856 Q37.7774 738.856 32.6531 734.145 Q27.4968 729.403 27.4968 721.382 Q27.4968 714.189 32.1438 710.019 Q36.7589 705.818 44.7161 705.818 M42.9973 711.674 Q38.1912 711.738 35.3266 714.38 Q32.4621 716.989 32.4621 721.318 Q32.4621 726.22 35.2312 729.18 Q38.0002 732.108 43.0292 732.554 L42.9973 711.674 Z" fill="#000000" fill-rule="nonzero" fill-opacity="1" /><path clip-path="url(#clip660)" d="M28.3562 679.686 L28.3562 673.48 L58.275 662.34 L28.3562 651.2 L28.3562 644.993 L64.0042 658.361 L64.0042 666.318 L28.3562 679.686 Z" fill="#000000" fill-rule="nonzero" fill-opacity="1" /><path clip-path="url(#clip660)" d="M44.7161 606.417 L47.5806 606.417 L47.5806 633.344 Q53.6281 632.962 56.8109 629.716 Q59.9619 626.437 59.9619 620.613 Q59.9619 617.239 59.1344 614.088 Q58.3069 610.905 56.6518 607.786 L62.1899 607.786 Q63.5267 610.937 64.227 614.247 Q64.9272 617.557 64.9272 620.963 Q64.9272 629.493 59.9619 634.49 Q54.9967 639.455 46.5303 639.455 Q37.7774 639.455 32.6531 634.745 Q27.4968 630.002 27.4968 621.981 Q27.4968 614.788 32.1438 610.619 Q36.7589 606.417 44.7161 606.417 M42.9973 612.274 Q38.1912 612.337 35.3266 614.979 Q32.4621 617.589 32.4621 621.918 Q32.4621 626.819 35.2312 629.779 Q38.0002 632.708 43.0292 633.153 L42.9973 612.274 Z" fill="#000000" fill-rule="nonzero" fill-opacity="1" /><path clip-path="url(#clip660)" d="M33.8307 576.148 Q33.2578 577.135 33.0032 578.313 Q32.7167 579.458 32.7167 580.859 Q32.7167 585.824 35.9632 588.498 Q39.1779 591.139 45.2253 591.139 L64.0042 591.139 L64.0042 597.028 L28.3562 597.028 L28.3562 591.139 L33.8944 591.139 Q30.6479 589.293 29.0883 586.333 Q27.4968 583.373 27.4968 579.14 Q27.4968 578.535 27.5923 577.803 Q27.656 577.071 27.8151 576.18 L33.8307 576.148 Z" fill="#000000" fill-rule="nonzero" fill-opacity="1" /><path clip-path="url(#clip660)" d="M33.7671 547.694 L14.479 547.694 L14.479 541.837 L64.0042 541.837 L64.0042 547.694 L58.657 547.694 Q61.8398 549.54 63.3994 552.372 Q64.9272 555.173 64.9272 559.12 Q64.9272 565.581 59.771 569.655 Q54.6147 573.697 46.212 573.697 Q37.8093 573.697 32.6531 569.655 Q27.4968 565.581 27.4968 559.12 Q27.4968 555.173 29.0564 552.372 Q30.5842 549.54 33.7671 547.694 M46.212 567.65 Q52.6732 567.65 56.3653 565.008 Q60.0256 562.335 60.0256 557.688 Q60.0256 553.041 56.3653 550.367 Q52.6732 547.694 46.212 547.694 Q39.7508 547.694 36.0905 550.367 Q32.3984 553.041 32.3984 557.688 Q32.3984 562.335 36.0905 565.008 Q39.7508 567.65 46.212 567.65 Z" fill="#000000" fill-rule="nonzero" fill-opacity="1" /><path clip-path="url(#clip660)" d="M28.3562 529.774 L28.3562 523.918 L64.0042 523.918 L64.0042 529.774 L28.3562 529.774 M14.479 529.774 L14.479 523.918 L21.895 523.918 L21.895 529.774 L14.479 529.774 Z" fill="#000000" fill-rule="nonzero" fill-opacity="1" /><path clip-path="url(#clip660)" d="M44.7161 481.172 L47.5806 481.172 L47.5806 508.099 Q53.6281 507.717 56.8109 504.47 Q59.9619 501.192 59.9619 495.367 Q59.9619 491.994 59.1344 488.843 Q58.3069 485.66 56.6518 482.541 L62.1899 482.541 Q63.5267 485.692 64.227 489.002 Q64.9272 492.312 64.9272 495.718 Q64.9272 504.248 59.9619 509.245 Q54.9967 514.21 46.5303 514.21 Q37.7774 514.21 32.6531 509.499 Q27.4968 504.757 27.4968 496.736 Q27.4968 489.543 32.1438 485.373 Q36.7589 481.172 44.7161 481.172 M42.9973 487.028 Q38.1912 487.092 35.3266 489.734 Q32.4621 492.344 32.4621 496.672 Q32.4621 501.574 35.2312 504.534 Q38.0002 507.462 43.0292 507.908 L42.9973 487.028 Z" fill="#000000" fill-rule="nonzero" fill-opacity="1" /><path clip-path="url(#clip660)" d="M42.4881 441.927 L64.0042 441.927 L64.0042 447.784 L42.679 447.784 Q37.6183 447.784 35.1038 449.757 Q32.5894 451.73 32.5894 455.677 Q32.5894 460.42 35.6131 463.157 Q38.6368 465.894 43.8567 465.894 L64.0042 465.894 L64.0042 471.782 L28.3562 471.782 L28.3562 465.894 L33.8944 465.894 Q30.6797 463.793 29.0883 460.961 Q27.4968 458.096 27.4968 454.372 Q27.4968 448.229 31.3163 445.078 Q35.1038 441.927 42.4881 441.927 Z" fill="#000000" fill-rule="nonzero" fill-opacity="1" /><path clip-path="url(#clip660)" d="M44.7161 399.754 L47.5806 399.754 L47.5806 426.681 Q53.6281 426.299 56.8109 423.053 Q59.9619 419.775 59.9619 413.95 Q59.9619 410.576 59.1344 407.425 Q58.3069 404.242 56.6518 401.123 L62.1899 401.123 Q63.5267 404.274 64.227 407.584 Q64.9272 410.894 64.9272 414.3 Q64.9272 422.83 59.9619 427.827 Q54.9967 432.793 46.5303 432.793 Q37.7774 432.793 32.6531 428.082 Q27.4968 423.339 27.4968 415.319 Q27.4968 408.125 32.1438 403.956 Q36.7589 399.754 44.7161 399.754 M42.9973 405.611 Q38.1912 405.675 35.3266 408.316 Q32.4621 410.926 32.4621 415.255 Q32.4621 420.157 35.2312 423.117 Q38.0002 426.045 43.0292 426.49 L42.9973 405.611 Z" fill="#000000" fill-rule="nonzero" fill-opacity="1" /><path clip-path="url(#clip660)" d="M756.412 18.8205 L756.412 41.5461 L766.702 41.5461 Q772.413 41.5461 775.533 38.5889 Q778.652 35.6318 778.652 30.163 Q778.652 24.7348 775.533 21.7777 Q772.413 18.8205 766.702 18.8205 L756.412 18.8205 M748.229 12.096 L766.702 12.096 Q776.869 12.096 782.055 16.714 Q787.28 21.2916 787.28 30.163 Q787.28 39.1155 782.055 43.6931 Q776.869 48.2706 766.702 48.2706 L756.412 48.2706 L756.412 72.576 L748.229 72.576 L748.229 12.096 Z" fill="#000000" fill-rule="nonzero" fill-opacity="1" /><path clip-path="url(#clip660)" d="M797.934 9.54393 L805.388 9.54393 L805.388 72.576 L797.934 72.576 L797.934 9.54393 Z" fill="#000000" fill-rule="nonzero" fill-opacity="1" /><path clip-path="url(#clip660)" d="M838.565 32.4315 Q832.569 32.4315 829.086 37.1306 Q825.602 41.7891 825.602 49.9314 Q825.602 58.0738 829.045 62.7728 Q832.529 67.4314 838.565 67.4314 Q844.519 67.4314 848.003 62.7323 Q851.487 58.0333 851.487 49.9314 Q851.487 41.8701 848.003 37.1711 Q844.519 32.4315 838.565 32.4315 M838.565 26.1121 Q848.287 26.1121 853.837 32.4315 Q859.386 38.7509 859.386 49.9314 Q859.386 61.0714 853.837 67.4314 Q848.287 73.7508 838.565 73.7508 Q828.802 73.7508 823.252 67.4314 Q817.743 61.0714 817.743 49.9314 Q817.743 38.7509 823.252 32.4315 Q828.802 26.1121 838.565 26.1121 Z" fill="#000000" fill-rule="nonzero" fill-opacity="1" /><path clip-path="url(#clip660)" d="M879.114 14.324 L879.114 27.2059 L894.467 27.2059 L894.467 32.9987 L879.114 32.9987 L879.114 57.6282 Q879.114 63.1779 880.613 64.7578 Q882.152 66.3376 886.811 66.3376 L894.467 66.3376 L894.467 72.576 L886.811 72.576 Q878.182 72.576 874.901 69.3758 Q871.62 66.1351 871.62 57.6282 L871.62 32.9987 L866.151 32.9987 L866.151 27.2059 L871.62 27.2059 L871.62 14.324 L879.114 14.324 Z" fill="#000000" fill-rule="nonzero" fill-opacity="1" /><path clip-path="url(#clip660)" d="M911.643 14.324 L911.643 27.2059 L926.996 27.2059 L926.996 32.9987 L911.643 32.9987 L911.643 57.6282 Q911.643 63.1779 913.142 64.7578 Q914.681 66.3376 919.34 66.3376 L926.996 66.3376 L926.996 72.576 L919.34 72.576 Q910.711 72.576 907.43 69.3758 Q904.149 66.1351 904.149 57.6282 L904.149 32.9987 L898.68 32.9987 L898.68 27.2059 L904.149 27.2059 L904.149 14.324 L911.643 14.324 Z" fill="#000000" fill-rule="nonzero" fill-opacity="1" /><path clip-path="url(#clip660)" d="M983.79 49.7694 Q974.756 49.7694 971.272 51.8354 Q967.788 53.9013 967.788 58.8839 Q967.788 62.8538 970.381 65.2034 Q973.014 67.5124 977.511 67.5124 Q983.709 67.5124 987.435 63.1374 Q991.203 58.7219 991.203 51.4303 L991.203 49.7694 L983.79 49.7694 M998.656 46.6907 L998.656 72.576 L991.203 72.576 L991.203 65.6895 Q988.651 69.8214 984.843 71.8063 Q981.035 73.7508 975.526 73.7508 Q968.558 73.7508 964.426 69.8619 Q960.335 65.9325 960.335 59.3701 Q960.335 51.7138 965.439 47.825 Q970.584 43.9361 980.751 43.9361 L991.203 43.9361 L991.203 43.2069 Q991.203 38.0623 987.8 35.2672 Q984.438 32.4315 978.321 32.4315 Q974.432 32.4315 970.746 33.3632 Q967.059 34.295 963.657 36.1584 L963.657 29.2718 Q967.748 27.692 971.596 26.9223 Q975.445 26.1121 979.091 26.1121 Q988.934 26.1121 993.795 31.2163 Q998.656 36.3204 998.656 46.6907 Z" fill="#000000" fill-rule="nonzero" fill-opacity="1" /><path clip-path="url(#clip660)" d="M1008.66 27.2059 L1016.56 27.2059 L1030.74 65.2844 L1044.92 27.2059 L1052.82 27.2059 L1035.8 72.576 L1025.68 72.576 L1008.66 27.2059 Z" fill="#000000" fill-rule="nonzero" fill-opacity="1" /><path clip-path="url(#clip660)" d="M1127.19 45.1919 L1127.19 72.576 L1119.74 72.576 L1119.74 45.4349 Q1119.74 38.994 1117.23 35.7938 Q1114.71 32.5936 1109.69 32.5936 Q1103.66 32.5936 1100.17 36.4419 Q1096.69 40.2903 1096.69 46.9338 L1096.69 72.576 L1089.19 72.576 L1089.19 27.2059 L1096.69 27.2059 L1096.69 34.2544 Q1099.36 30.163 1102.97 28.1376 Q1106.61 26.1121 1111.35 26.1121 Q1119.17 26.1121 1123.18 30.9732 Q1127.19 35.7938 1127.19 45.1919 Z" fill="#000000" fill-rule="nonzero" fill-opacity="1" /><path clip-path="url(#clip660)" d="M1159.64 32.4315 Q1153.64 32.4315 1150.16 37.1306 Q1146.68 41.7891 1146.68 49.9314 Q1146.68 58.0738 1150.12 62.7728 Q1153.6 67.4314 1159.64 67.4314 Q1165.59 67.4314 1169.08 62.7323 Q1172.56 58.0333 1172.56 49.9314 Q1172.56 41.8701 1169.08 37.1711 Q1165.59 32.4315 1159.64 32.4315 M1159.64 26.1121 Q1169.36 26.1121 1174.91 32.4315 Q1180.46 38.7509 1180.46 49.9314 Q1180.46 61.0714 1174.91 67.4314 Q1169.36 73.7508 1159.64 73.7508 Q1149.88 73.7508 1144.33 67.4314 Q1138.82 61.0714 1138.82 49.9314 Q1138.82 38.7509 1144.33 32.4315 Q1149.88 26.1121 1159.64 26.1121 Z" fill="#000000" fill-rule="nonzero" fill-opacity="1" /><path clip-path="url(#clip660)" d="M1231.62 48.0275 L1231.62 51.6733 L1197.35 51.6733 Q1197.84 59.3701 1201.97 63.421 Q1206.14 67.4314 1213.56 67.4314 Q1217.85 67.4314 1221.86 66.3781 Q1225.91 65.3249 1229.88 63.2184 L1229.88 70.267 Q1225.87 71.9684 1221.66 72.8596 Q1217.45 73.7508 1213.11 73.7508 Q1202.25 73.7508 1195.89 67.4314 Q1189.58 61.1119 1189.58 50.3365 Q1189.58 39.1965 1195.57 32.6746 Q1201.61 26.1121 1211.81 26.1121 Q1220.97 26.1121 1226.28 32.0264 Q1231.62 37.9003 1231.62 48.0275 M1224.17 45.84 Q1224.09 39.7232 1220.73 36.0774 Q1217.41 32.4315 1211.9 32.4315 Q1205.66 32.4315 1201.89 35.9558 Q1198.16 39.4801 1197.6 45.8805 L1224.17 45.84 Z" fill="#000000" fill-rule="nonzero" fill-opacity="1" /><path clip-path="url(#clip660)" d="M1281.57 45.1919 L1281.57 72.576 L1274.12 72.576 L1274.12 45.4349 Q1274.12 38.994 1271.61 35.7938 Q1269.09 32.5936 1264.07 32.5936 Q1258.04 32.5936 1254.55 36.4419 Q1251.07 40.2903 1251.07 46.9338 L1251.07 72.576 L1243.57 72.576 L1243.57 27.2059 L1251.07 27.2059 L1251.07 34.2544 Q1253.74 30.163 1257.35 28.1376 Q1260.99 26.1121 1265.73 26.1121 Q1273.55 26.1121 1277.56 30.9732 Q1281.57 35.7938 1281.57 45.1919 Z" fill="#000000" fill-rule="nonzero" fill-opacity="1" /><path clip-path="url(#clip660)" d="M1330.18 14.324 L1330.18 27.2059 L1345.54 27.2059 L1345.54 32.9987 L1330.18 32.9987 L1330.18 57.6282 Q1330.18 63.1779 1331.68 64.7578 Q1333.22 66.3376 1337.88 66.3376 L1345.54 66.3376 L1345.54 72.576 L1337.88 72.576 Q1329.25 72.576 1325.97 69.3758 Q1322.69 66.1351 1322.69 57.6282 L1322.69 32.9987 L1317.22 32.9987 L1317.22 27.2059 L1322.69 27.2059 L1322.69 14.324 L1330.18 14.324 Z" fill="#000000" fill-rule="nonzero" fill-opacity="1" /><path clip-path="url(#clip660)" d="M1355.34 27.2059 L1362.79 27.2059 L1362.79 72.576 L1355.34 72.576 L1355.34 27.2059 M1355.34 9.54393 L1362.79 9.54393 L1362.79 18.9825 L1355.34 18.9825 L1355.34 9.54393 Z" fill="#000000" fill-rule="nonzero" fill-opacity="1" /><path clip-path="url(#clip660)" d="M1378.39 9.54393 L1385.84 9.54393 L1385.84 72.576 L1378.39 72.576 L1378.39 9.54393 Z" fill="#000000" fill-rule="nonzero" fill-opacity="1" /><path clip-path="url(#clip660)" d="M1424.41 9.54393 L1424.41 15.7418 L1417.28 15.7418 Q1413.27 15.7418 1411.69 17.3622 Q1410.15 18.9825 1410.15 23.1955 L1410.15 27.2059 L1422.42 27.2059 L1422.42 32.9987 L1410.15 32.9987 L1410.15 72.576 L1402.65 72.576 L1402.65 32.9987 L1395.52 32.9987 L1395.52 27.2059 L1402.65 27.2059 L1402.65 24.0462 Q1402.65 16.471 1406.18 13.0277 Q1409.7 9.54393 1417.36 9.54393 L1424.41 9.54393 Z" fill="#000000" fill-rule="nonzero" fill-opacity="1" /><path clip-path="url(#clip660)" d="M1469.45 48.0275 L1469.45 51.6733 L1435.18 51.6733 Q1435.67 59.3701 1439.8 63.421 Q1443.97 67.4314 1451.39 67.4314 Q1455.68 67.4314 1459.69 66.3781 Q1463.74 65.3249 1467.71 63.2184 L1467.71 70.267 Q1463.7 71.9684 1459.49 72.8596 Q1455.27 73.7508 1450.94 73.7508 Q1440.08 73.7508 1433.72 67.4314 Q1427.4 61.1119 1427.4 50.3365 Q1427.4 39.1965 1433.4 32.6746 Q1439.44 26.1121 1449.64 26.1121 Q1458.8 26.1121 1464.11 32.0264 Q1469.45 37.9003 1469.45 48.0275 M1462 45.84 Q1461.92 39.7232 1458.56 36.0774 Q1455.23 32.4315 1449.72 32.4315 Q1443.49 32.4315 1439.72 35.9558 Q1435.99 39.4801 1435.42 45.8805 L1462 45.84 Z" fill="#000000" fill-rule="nonzero" fill-opacity="1" /><path clip-path="url(#clip660)" d="M1481.69 9.54393 L1489.14 9.54393 L1489.14 72.576 L1481.69 72.576 L1481.69 9.54393 Z" fill="#000000" fill-rule="nonzero" fill-opacity="1" /><path clip-path="url(#clip660)" d="M1534.59 34.0924 L1534.59 9.54393 L1542.04 9.54393 L1542.04 72.576 L1534.59 72.576 L1534.59 65.7705 Q1532.24 69.8214 1528.64 71.8063 Q1525.07 73.7508 1520.05 73.7508 Q1511.82 73.7508 1506.64 67.1883 Q1501.5 60.6258 1501.5 49.9314 Q1501.5 39.2371 1506.64 32.6746 Q1511.82 26.1121 1520.05 26.1121 Q1525.07 26.1121 1528.64 28.0971 Q1532.24 30.0415 1534.59 34.0924 M1509.19 49.9314 Q1509.19 58.1548 1512.55 62.8538 Q1515.96 67.5124 1521.87 67.5124 Q1527.79 67.5124 1531.19 62.8538 Q1534.59 58.1548 1534.59 49.9314 Q1534.59 41.7081 1531.19 37.0496 Q1527.79 32.3505 1521.87 32.3505 Q1515.96 32.3505 1512.55 37.0496 Q1509.19 41.7081 1509.19 49.9314 Z" fill="#000000" fill-rule="nonzero" fill-opacity="1" /><path clip-path="url(#clip660)" d="M1557.4 27.2059 L1564.85 27.2059 L1564.85 72.576 L1557.4 72.576 L1557.4 27.2059 M1557.4 9.54393 L1564.85 9.54393 L1564.85 18.9825 L1557.4 18.9825 L1557.4 9.54393 Z" fill="#000000" fill-rule="nonzero" fill-opacity="1" /><path clip-path="url(#clip660)" d="M1610.3 49.3643 Q1610.3 41.2625 1606.94 36.8065 Q1603.62 32.3505 1597.58 32.3505 Q1591.59 32.3505 1588.22 36.8065 Q1584.9 41.2625 1584.9 49.3643 Q1584.9 57.4256 1588.22 61.8816 Q1591.59 66.3376 1597.58 66.3376 Q1603.62 66.3376 1606.94 61.8816 Q1610.3 57.4256 1610.3 49.3643 M1617.76 66.9452 Q1617.76 78.5308 1612.61 84.1616 Q1607.47 89.8329 1596.85 89.8329 Q1592.92 89.8329 1589.44 89.2252 Q1585.96 88.6581 1582.68 87.4428 L1582.68 80.1917 Q1585.96 81.9741 1589.16 82.8248 Q1592.36 83.6755 1595.68 83.6755 Q1603.01 83.6755 1606.66 79.8271 Q1610.3 76.0193 1610.3 68.282 L1610.3 64.5957 Q1607.99 68.6061 1604.39 70.5911 Q1600.78 72.576 1595.76 72.576 Q1587.41 72.576 1582.31 66.2161 Q1577.21 59.8562 1577.21 49.3643 Q1577.21 38.832 1582.31 32.472 Q1587.41 26.1121 1595.76 26.1121 Q1600.78 26.1121 1604.39 28.0971 Q1607.99 30.082 1610.3 34.0924 L1610.3 27.2059 L1617.76 27.2059 L1617.76 66.9452 Z" fill="#000000" fill-rule="nonzero" fill-opacity="1" /><path clip-path="url(#clip660)" d="M1671.92 48.0275 L1671.92 51.6733 L1637.65 51.6733 Q1638.13 59.3701 1642.26 63.421 Q1646.44 67.4314 1653.85 67.4314 Q1658.14 67.4314 1662.15 66.3781 Q1666.2 65.3249 1670.17 63.2184 L1670.17 70.267 Q1666.16 71.9684 1661.95 72.8596 Q1657.74 73.7508 1653.4 73.7508 Q1642.55 73.7508 1636.19 67.4314 Q1629.87 61.1119 1629.87 50.3365 Q1629.87 39.1965 1635.86 32.6746 Q1641.9 26.1121 1652.11 26.1121 Q1661.26 26.1121 1666.57 32.0264 Q1671.92 37.9003 1671.92 48.0275 M1664.46 45.84 Q1664.38 39.7232 1661.02 36.0774 Q1657.7 32.4315 1652.19 32.4315 Q1645.95 32.4315 1642.18 35.9558 Q1638.46 39.4801 1637.89 45.8805 L1664.46 45.84 Z" fill="#000000" fill-rule="nonzero" fill-opacity="1" /><path clip-path="url(#clip660)" d="M1717.89 14.324 L1717.89 27.2059 L1733.25 27.2059 L1733.25 32.9987 L1717.89 32.9987 L1717.89 57.6282 Q1717.89 63.1779 1719.39 64.7578 Q1720.93 66.3376 1725.59 66.3376 L1733.25 66.3376 L1733.25 72.576 L1725.59 72.576 Q1716.96 72.576 1713.68 69.3758 Q1710.4 66.1351 1710.4 57.6282 L1710.4 32.9987 L1704.93 32.9987 L1704.93 27.2059 L1710.4 27.2059 L1710.4 14.324 L1717.89 14.324 Z" fill="#000000" fill-rule="nonzero" fill-opacity="1" /><path clip-path="url(#clip660)" d="M1763.67 49.7694 Q1754.64 49.7694 1751.15 51.8354 Q1747.67 53.9013 1747.67 58.8839 Q1747.67 62.8538 1750.26 65.2034 Q1752.89 67.5124 1757.39 67.5124 Q1763.59 67.5124 1767.32 63.1374 Q1771.08 58.7219 1771.08 51.4303 L1771.08 49.7694 L1763.67 49.7694 M1778.54 46.6907 L1778.54 72.576 L1771.08 72.576 L1771.08 65.6895 Q1768.53 69.8214 1764.72 71.8063 Q1760.92 73.7508 1755.41 73.7508 Q1748.44 73.7508 1744.31 69.8619 Q1740.21 65.9325 1740.21 59.3701 Q1740.21 51.7138 1745.32 47.825 Q1750.46 43.9361 1760.63 43.9361 L1771.08 43.9361 L1771.08 43.2069 Q1771.08 38.0623 1767.68 35.2672 Q1764.32 32.4315 1758.2 32.4315 Q1754.31 32.4315 1750.63 33.3632 Q1746.94 34.295 1743.54 36.1584 L1743.54 29.2718 Q1747.63 27.692 1751.48 26.9223 Q1755.32 26.1121 1758.97 26.1121 Q1768.81 26.1121 1773.68 31.2163 Q1778.54 36.3204 1778.54 46.6907 Z" fill="#000000" fill-rule="nonzero" fill-opacity="1" /><path clip-path="url(#clip660)" d="M1793.89 9.54393 L1801.34 9.54393 L1801.34 72.576 L1793.89 72.576 L1793.89 9.54393 Z" fill="#000000" fill-rule="nonzero" fill-opacity="1" /><path clip-path="url(#clip660)" d="M1816.94 9.54393 L1824.39 9.54393 L1824.39 72.576 L1816.94 72.576 L1816.94 9.54393 Z" fill="#000000" fill-rule="nonzero" fill-opacity="1" /><polyline clip-path="url(#clip662)" style="stroke:#009af9; stroke-linecap:round; stroke-linejoin:round; stroke-width:4; stroke-opacity:1; fill:none" points="280.231,590.31 314.335,1111.7 348.44,1264.18 382.544,969.052 416.649,1317.19 450.753,498.088 484.858,1386.4 518.962,300.647 553.066,779.044 587.171,663.803 621.275,1121.28 655.38,1119.91 689.484,659.203 723.588,283.836 757.693,226.853 791.797,606.252 825.902,160.256 860.006,398.206 894.11,512.307 928.215,1273.25 962.319,297.274 996.424,837.862 1030.53,623.401 1064.63,190.637 1098.74,555.318 1132.84,385.518 1166.95,253.632 1201.05,790.807 1235.15,763.622 1269.26,168.899 1303.36,945.205 1337.47,1087.21 1371.57,490.365 1405.68,435.076 1439.78,229.922 1473.89,992.432 1507.99,903.828 1542.09,653.739 1576.2,546.593 1610.3,377.953 1644.41,210.31 1678.51,624.594 1712.62,958.189 1746.72,994.74 1780.82,517.598 1814.93,991.664 1849.03,614.183 1883.14,728.799 1917.24,570.067 1951.35,1134.03 1985.45,762.96 2019.56,488.486 2053.66,1223.24 2087.76,1288.19 2121.87,373.705 2155.97,966.727 2190.08,1206.73 2224.18,546.467 2258.29,882.101 2292.39,793.82 "/>
<circle clip-path="url(#clip662)" cx="280.231" cy="590.31" r="14.4" fill="#009af9" fill-rule="evenodd" fill-opacity="1" stroke="#000000" stroke-opacity="1" stroke-width="3.2"/>
<circle clip-path="url(#clip662)" cx="314.335" cy="1111.7" r="14.4" fill="#009af9" fill-rule="evenodd" fill-opacity="1" stroke="#000000" stroke-opacity="1" stroke-width="3.2"/>
<circle clip-path="url(#clip662)" cx="348.44" cy="1264.18" r="14.4" fill="#009af9" fill-rule="evenodd" fill-opacity="1" stroke="#000000" stroke-opacity="1" stroke-width="3.2"/>
<circle clip-path="url(#clip662)" cx="382.544" cy="969.052" r="14.4" fill="#009af9" fill-rule="evenodd" fill-opacity="1" stroke="#000000" stroke-opacity="1" stroke-width="3.2"/>
<circle clip-path="url(#clip662)" cx="416.649" cy="1317.19" r="14.4" fill="#009af9" fill-rule="evenodd" fill-opacity="1" stroke="#000000" stroke-opacity="1" stroke-width="3.2"/>
<circle clip-path="url(#clip662)" cx="450.753" cy="498.088" r="14.4" fill="#009af9" fill-rule="evenodd" fill-opacity="1" stroke="#000000" stroke-opacity="1" stroke-width="3.2"/>
<circle clip-path="url(#clip662)" cx="484.858" cy="1386.4" r="14.4" fill="#009af9" fill-rule="evenodd" fill-opacity="1" stroke="#000000" stroke-opacity="1" stroke-width="3.2"/>
<circle clip-path="url(#clip662)" cx="518.962" cy="300.647" r="14.4" fill="#009af9" fill-rule="evenodd" fill-opacity="1" stroke="#000000" stroke-opacity="1" stroke-width="3.2"/>
<circle clip-path="url(#clip662)" cx="553.066" cy="779.044" r="14.4" fill="#009af9" fill-rule="evenodd" fill-opacity="1" stroke="#000000" stroke-opacity="1" stroke-width="3.2"/>
<circle clip-path="url(#clip662)" cx="587.171" cy="663.803" r="14.4" fill="#009af9" fill-rule="evenodd" fill-opacity="1" stroke="#000000" stroke-opacity="1" stroke-width="3.2"/>
<circle clip-path="url(#clip662)" cx="621.275" cy="1121.28" r="14.4" fill="#009af9" fill-rule="evenodd" fill-opacity="1" stroke="#000000" stroke-opacity="1" stroke-width="3.2"/>
<circle clip-path="url(#clip662)" cx="655.38" cy="1119.91" r="14.4" fill="#009af9" fill-rule="evenodd" fill-opacity="1" stroke="#000000" stroke-opacity="1" stroke-width="3.2"/>
<circle clip-path="url(#clip662)" cx="689.484" cy="659.203" r="14.4" fill="#009af9" fill-rule="evenodd" fill-opacity="1" stroke="#000000" stroke-opacity="1" stroke-width="3.2"/>
<circle clip-path="url(#clip662)" cx="723.588" cy="283.836" r="14.4" fill="#009af9" fill-rule="evenodd" fill-opacity="1" stroke="#000000" stroke-opacity="1" stroke-width="3.2"/>
<circle clip-path="url(#clip662)" cx="757.693" cy="226.853" r="14.4" fill="#009af9" fill-rule="evenodd" fill-opacity="1" stroke="#000000" stroke-opacity="1" stroke-width="3.2"/>
<circle clip-path="url(#clip662)" cx="791.797" cy="606.252" r="14.4" fill="#009af9" fill-rule="evenodd" fill-opacity="1" stroke="#000000" stroke-opacity="1" stroke-width="3.2"/>
<circle clip-path="url(#clip662)" cx="825.902" cy="160.256" r="14.4" fill="#009af9" fill-rule="evenodd" fill-opacity="1" stroke="#000000" stroke-opacity="1" stroke-width="3.2"/>
<circle clip-path="url(#clip662)" cx="860.006" cy="398.206" r="14.4" fill="#009af9" fill-rule="evenodd" fill-opacity="1" stroke="#000000" stroke-opacity="1" stroke-width="3.2"/>
<circle clip-path="url(#clip662)" cx="894.11" cy="512.307" r="14.4" fill="#009af9" fill-rule="evenodd" fill-opacity="1" stroke="#000000" stroke-opacity="1" stroke-width="3.2"/>
<circle clip-path="url(#clip662)" cx="928.215" cy="1273.25" r="14.4" fill="#009af9" fill-rule="evenodd" fill-opacity="1" stroke="#000000" stroke-opacity="1" stroke-width="3.2"/>
<circle clip-path="url(#clip662)" cx="962.319" cy="297.274" r="14.4" fill="#009af9" fill-rule="evenodd" fill-opacity="1" stroke="#000000" stroke-opacity="1" stroke-width="3.2"/>
<circle clip-path="url(#clip662)" cx="996.424" cy="837.862" r="14.4" fill="#009af9" fill-rule="evenodd" fill-opacity="1" stroke="#000000" stroke-opacity="1" stroke-width="3.2"/>
<circle clip-path="url(#clip662)" cx="1030.53" cy="623.401" r="14.4" fill="#009af9" fill-rule="evenodd" fill-opacity="1" stroke="#000000" stroke-opacity="1" stroke-width="3.2"/>
<circle clip-path="url(#clip662)" cx="1064.63" cy="190.637" r="14.4" fill="#009af9" fill-rule="evenodd" fill-opacity="1" stroke="#000000" stroke-opacity="1" stroke-width="3.2"/>
<circle clip-path="url(#clip662)" cx="1098.74" cy="555.318" r="14.4" fill="#009af9" fill-rule="evenodd" fill-opacity="1" stroke="#000000" stroke-opacity="1" stroke-width="3.2"/>
<circle clip-path="url(#clip662)" cx="1132.84" cy="385.518" r="14.4" fill="#009af9" fill-rule="evenodd" fill-opacity="1" stroke="#000000" stroke-opacity="1" stroke-width="3.2"/>
<circle clip-path="url(#clip662)" cx="1166.95" cy="253.632" r="14.4" fill="#009af9" fill-rule="evenodd" fill-opacity="1" stroke="#000000" stroke-opacity="1" stroke-width="3.2"/>
<circle clip-path="url(#clip662)" cx="1201.05" cy="790.807" r="14.4" fill="#009af9" fill-rule="evenodd" fill-opacity="1" stroke="#000000" stroke-opacity="1" stroke-width="3.2"/>
<circle clip-path="url(#clip662)" cx="1235.15" cy="763.622" r="14.4" fill="#009af9" fill-rule="evenodd" fill-opacity="1" stroke="#000000" stroke-opacity="1" stroke-width="3.2"/>
<circle clip-path="url(#clip662)" cx="1269.26" cy="168.899" r="14.4" fill="#009af9" fill-rule="evenodd" fill-opacity="1" stroke="#000000" stroke-opacity="1" stroke-width="3.2"/>
<circle clip-path="url(#clip662)" cx="1303.36" cy="945.205" r="14.4" fill="#009af9" fill-rule="evenodd" fill-opacity="1" stroke="#000000" stroke-opacity="1" stroke-width="3.2"/>
<circle clip-path="url(#clip662)" cx="1337.47" cy="1087.21" r="14.4" fill="#009af9" fill-rule="evenodd" fill-opacity="1" stroke="#000000" stroke-opacity="1" stroke-width="3.2"/>
<circle clip-path="url(#clip662)" cx="1371.57" cy="490.365" r="14.4" fill="#009af9" fill-rule="evenodd" fill-opacity="1" stroke="#000000" stroke-opacity="1" stroke-width="3.2"/>
<circle clip-path="url(#clip662)" cx="1405.68" cy="435.076" r="14.4" fill="#009af9" fill-rule="evenodd" fill-opacity="1" stroke="#000000" stroke-opacity="1" stroke-width="3.2"/>
<circle clip-path="url(#clip662)" cx="1439.78" cy="229.922" r="14.4" fill="#009af9" fill-rule="evenodd" fill-opacity="1" stroke="#000000" stroke-opacity="1" stroke-width="3.2"/>
<circle clip-path="url(#clip662)" cx="1473.89" cy="992.432" r="14.4" fill="#009af9" fill-rule="evenodd" fill-opacity="1" stroke="#000000" stroke-opacity="1" stroke-width="3.2"/>
<circle clip-path="url(#clip662)" cx="1507.99" cy="903.828" r="14.4" fill="#009af9" fill-rule="evenodd" fill-opacity="1" stroke="#000000" stroke-opacity="1" stroke-width="3.2"/>
<circle clip-path="url(#clip662)" cx="1542.09" cy="653.739" r="14.4" fill="#009af9" fill-rule="evenodd" fill-opacity="1" stroke="#000000" stroke-opacity="1" stroke-width="3.2"/>
<circle clip-path="url(#clip662)" cx="1576.2" cy="546.593" r="14.4" fill="#009af9" fill-rule="evenodd" fill-opacity="1" stroke="#000000" stroke-opacity="1" stroke-width="3.2"/>
<circle clip-path="url(#clip662)" cx="1610.3" cy="377.953" r="14.4" fill="#009af9" fill-rule="evenodd" fill-opacity="1" stroke="#000000" stroke-opacity="1" stroke-width="3.2"/>
<circle clip-path="url(#clip662)" cx="1644.41" cy="210.31" r="14.4" fill="#009af9" fill-rule="evenodd" fill-opacity="1" stroke="#000000" stroke-opacity="1" stroke-width="3.2"/>
<circle clip-path="url(#clip662)" cx="1678.51" cy="624.594" r="14.4" fill="#009af9" fill-rule="evenodd" fill-opacity="1" stroke="#000000" stroke-opacity="1" stroke-width="3.2"/>
<circle clip-path="url(#clip662)" cx="1712.62" cy="958.189" r="14.4" fill="#009af9" fill-rule="evenodd" fill-opacity="1" stroke="#000000" stroke-opacity="1" stroke-width="3.2"/>
<circle clip-path="url(#clip662)" cx="1746.72" cy="994.74" r="14.4" fill="#009af9" fill-rule="evenodd" fill-opacity="1" stroke="#000000" stroke-opacity="1" stroke-width="3.2"/>
<circle clip-path="url(#clip662)" cx="1780.82" cy="517.598" r="14.4" fill="#009af9" fill-rule="evenodd" fill-opacity="1" stroke="#000000" stroke-opacity="1" stroke-width="3.2"/>
<circle clip-path="url(#clip662)" cx="1814.93" cy="991.664" r="14.4" fill="#009af9" fill-rule="evenodd" fill-opacity="1" stroke="#000000" stroke-opacity="1" stroke-width="3.2"/>
<circle clip-path="url(#clip662)" cx="1849.03" cy="614.183" r="14.4" fill="#009af9" fill-rule="evenodd" fill-opacity="1" stroke="#000000" stroke-opacity="1" stroke-width="3.2"/>
<circle clip-path="url(#clip662)" cx="1883.14" cy="728.799" r="14.4" fill="#009af9" fill-rule="evenodd" fill-opacity="1" stroke="#000000" stroke-opacity="1" stroke-width="3.2"/>
<circle clip-path="url(#clip662)" cx="1917.24" cy="570.067" r="14.4" fill="#009af9" fill-rule="evenodd" fill-opacity="1" stroke="#000000" stroke-opacity="1" stroke-width="3.2"/>
<circle clip-path="url(#clip662)" cx="1951.35" cy="1134.03" r="14.4" fill="#009af9" fill-rule="evenodd" fill-opacity="1" stroke="#000000" stroke-opacity="1" stroke-width="3.2"/>
<circle clip-path="url(#clip662)" cx="1985.45" cy="762.96" r="14.4" fill="#009af9" fill-rule="evenodd" fill-opacity="1" stroke="#000000" stroke-opacity="1" stroke-width="3.2"/>
<circle clip-path="url(#clip662)" cx="2019.56" cy="488.486" r="14.4" fill="#009af9" fill-rule="evenodd" fill-opacity="1" stroke="#000000" stroke-opacity="1" stroke-width="3.2"/>
<circle clip-path="url(#clip662)" cx="2053.66" cy="1223.24" r="14.4" fill="#009af9" fill-rule="evenodd" fill-opacity="1" stroke="#000000" stroke-opacity="1" stroke-width="3.2"/>
<circle clip-path="url(#clip662)" cx="2087.76" cy="1288.19" r="14.4" fill="#009af9" fill-rule="evenodd" fill-opacity="1" stroke="#000000" stroke-opacity="1" stroke-width="3.2"/>
<circle clip-path="url(#clip662)" cx="2121.87" cy="373.705" r="14.4" fill="#009af9" fill-rule="evenodd" fill-opacity="1" stroke="#000000" stroke-opacity="1" stroke-width="3.2"/>
<circle clip-path="url(#clip662)" cx="2155.97" cy="966.727" r="14.4" fill="#009af9" fill-rule="evenodd" fill-opacity="1" stroke="#000000" stroke-opacity="1" stroke-width="3.2"/>
<circle clip-path="url(#clip662)" cx="2190.08" cy="1206.73" r="14.4" fill="#009af9" fill-rule="evenodd" fill-opacity="1" stroke="#000000" stroke-opacity="1" stroke-width="3.2"/>
<circle clip-path="url(#clip662)" cx="2224.18" cy="546.467" r="14.4" fill="#009af9" fill-rule="evenodd" fill-opacity="1" stroke="#000000" stroke-opacity="1" stroke-width="3.2"/>
<circle clip-path="url(#clip662)" cx="2258.29" cy="882.101" r="14.4" fill="#009af9" fill-rule="evenodd" fill-opacity="1" stroke="#000000" stroke-opacity="1" stroke-width="3.2"/>
<circle clip-path="url(#clip662)" cx="2292.39" cy="793.82" r="14.4" fill="#009af9" fill-rule="evenodd" fill-opacity="1" stroke="#000000" stroke-opacity="1" stroke-width="3.2"/>
</svg>