<?xml version="1.0" encoding="utf-8"?>
<svg xmlns="http://www.w3.org/2000/svg" xmlns:xlink="http://www.w3.org/1999/xlink" width="600" height="400" viewBox="0 0 2400 1600">
<defs>
  <clipPath id="clip110">
    <rect x="0" y="0" width="2400" height="1600"/>
  </clipPath>
</defs>
<path clip-path="url(#clip110)" d="M0 1600 L2400 1600 L2400 0 L0 0  Z" fill="#ffffff" fill-rule="evenodd" fill-opacity="1"/>
<defs>
  <clipPath id="clip111">
    <rect x="480" y="0" width="1681" height="1600"/>
  </clipPath>
</defs>
<path clip-path="url(#clip110)" d="M205.121 1423.18 L2352.76 1423.18 L2352.76 123.472 L205.121 123.472  Z" fill="#ffffff" fill-rule="evenodd" fill-opacity="1"/>
<defs>
  <clipPath id="clip112">
    <rect x="205" y="123" width="2149" height="1301"/>
  </clipPath>
</defs>
<polyline clip-path="url(#clip112)" style="stroke:#000000; stroke-linecap:round; stroke-linejoin:round; stroke-width:2; stroke-opacity:0.1; fill:none" points="265.903,1423.18 265.903,123.472 "/>
<polyline clip-path="url(#clip112)" style="stroke:#000000; stroke-linecap:round; stroke-linejoin:round; stroke-width:2; stroke-opacity:0.1; fill:none" points="671.117,1423.18 671.117,123.472 "/>
<polyline clip-path="url(#clip112)" style="stroke:#000000; stroke-linecap:round; stroke-linejoin:round; stroke-width:2; stroke-opacity:0.1; fill:none" points="1076.33,1423.18 1076.33,123.472 "/>
<polyline clip-path="url(#clip112)" style="stroke:#000000; stroke-linecap:round; stroke-linejoin:round; stroke-width:2; stroke-opacity:0.1; fill:none" points="1481.55,1423.18 1481.55,123.472 "/>
<polyline clip-path="url(#clip112)" style="stroke:#000000; stroke-linecap:round; stroke-linejoin:round; stroke-width:2; stroke-opacity:0.1; fill:none" points="1886.76,1423.18 1886.76,123.472 "/>
<polyline clip-path="url(#clip112)" style="stroke:#000000; stroke-linecap:round; stroke-linejoin:round; stroke-width:2; stroke-opacity:0.1; fill:none" points="2291.97,1423.18 2291.97,123.472 "/>
<polyline clip-path="url(#clip110)" style="stroke:#000000; stroke-linecap:round; stroke-linejoin:round; stroke-width:4; stroke-opacity:1; fill:none" points="205.121,1423.18 2352.76,1423.18 "/>
<polyline clip-path="url(#clip110)" style="stroke:#000000; stroke-linecap:round; stroke-linejoin:round; stroke-width:4; stroke-opacity:1; fill:none" points="265.903,1423.18 265.903,1404.28 "/>
<polyline clip-path="url(#clip110)" style="stroke:#000000; stroke-linecap:round; stroke-linejoin:round; stroke-width:4; stroke-opacity:1; fill:none" points="671.117,1423.18 671.117,1404.28 "/>
<polyline clip-path="url(#clip110)" style="stroke:#000000; stroke-linecap:round; stroke-linejoin:round; stroke-width:4; stroke-opacity:1; fill:none" points="1076.33,1423.18 1076.33,1404.28 "/>
<polyline clip-path="url(#clip110)" style="stroke:#000000; stroke-linecap:round; stroke-linejoin:round; stroke-width:4; stroke-opacity:1; fill:none" points="1481.55,1423.18 1481.55,1404.28 "/>
<polyline clip-path="url(#clip110)" style="stroke:#000000; stroke-linecap:round; stroke-linejoin:round; stroke-width:4; stroke-opacity:1; fill:none" points="1886.76,1423.18 1886.76,1404.28 "/>
<polyline clip-path="url(#clip110)" style="stroke:#000000; stroke-linecap:round; stroke-linejoin:round; stroke-width:4; stroke-opacity:1; fill:none" points="2291.97,1423.18 2291.97,1404.28 "/>
<path clip-path="url(#clip110)" d="M265.903 1454.1 Q262.292 1454.1 260.463 1457.66 Q258.658 1461.2 258.658 1468.33 Q258.658 1475.44 260.463 1479.01 Q262.292 1482.55 265.903 1482.55 Q269.537 1482.55 271.343 1479.01 Q273.172 1475.44 273.172 1468.33 Q273.172 1461.2 271.343 1457.66 Q269.537 1454.1 265.903 1454.1 M265.903 1450.39 Q271.713 1450.39 274.769 1455 Q277.847 1459.58 277.847 1468.33 Q277.847 1477.06 274.769 1481.67 Q271.713 1486.25 265.903 1486.25 Q260.093 1486.25 257.014 1481.67 Q253.959 1477.06 253.959 1468.33 Q253.959 1459.58 257.014 1455 Q260.093 1450.39 265.903 1450.39 Z" fill="#000000" fill-rule="nonzero" fill-opacity="1" /><path clip-path="url(#clip110)" d="M661.395 1451.02 L679.751 1451.02 L679.751 1454.96 L665.677 1454.96 L665.677 1463.43 Q666.696 1463.08 667.714 1462.92 Q668.733 1462.73 669.751 1462.73 Q675.539 1462.73 678.918 1465.9 Q682.298 1469.08 682.298 1474.49 Q682.298 1480.07 678.826 1483.17 Q675.353 1486.25 669.034 1486.25 Q666.858 1486.25 664.589 1485.88 Q662.344 1485.51 659.937 1484.77 L659.937 1480.07 Q662.02 1481.2 664.242 1481.76 Q666.464 1482.32 668.941 1482.32 Q672.946 1482.32 675.284 1480.21 Q677.622 1478.1 677.622 1474.49 Q677.622 1470.88 675.284 1468.77 Q672.946 1466.67 668.941 1466.67 Q667.066 1466.67 665.191 1467.08 Q663.339 1467.5 661.395 1468.38 L661.395 1451.02 Z" fill="#000000" fill-rule="nonzero" fill-opacity="1" /><path clip-path="url(#clip110)" d="M1051.02 1481.64 L1058.66 1481.64 L1058.66 1455.28 L1050.35 1456.95 L1050.35 1452.69 L1058.61 1451.02 L1063.29 1451.02 L1063.29 1481.64 L1070.93 1481.64 L1070.93 1485.58 L1051.02 1485.58 L1051.02 1481.64 Z" fill="#000000" fill-rule="nonzero" fill-opacity="1" /><path clip-path="url(#clip110)" d="M1090.37 1454.1 Q1086.76 1454.1 1084.93 1457.66 Q1083.13 1461.2 1083.13 1468.33 Q1083.13 1475.44 1084.93 1479.01 Q1086.76 1482.55 1090.37 1482.55 Q1094 1482.55 1095.81 1479.01 Q1097.64 1475.44 1097.64 1468.33 Q1097.64 1461.2 1095.81 1457.66 Q1094 1454.1 1090.37 1454.1 M1090.37 1450.39 Q1096.18 1450.39 1099.24 1455 Q1102.32 1459.58 1102.32 1468.33 Q1102.32 1477.06 1099.24 1481.67 Q1096.18 1486.25 1090.37 1486.25 Q1084.56 1486.25 1081.48 1481.67 Q1078.43 1477.06 1078.43 1468.33 Q1078.43 1459.58 1081.48 1455 Q1084.56 1450.39 1090.37 1450.39 Z" fill="#000000" fill-rule="nonzero" fill-opacity="1" /><path clip-path="url(#clip110)" d="M1456.73 1481.64 L1464.37 1481.64 L1464.37 1455.28 L1456.06 1456.95 L1456.06 1452.69 L1464.32 1451.02 L1469 1451.02 L1469 1481.64 L1476.64 1481.64 L1476.64 1485.58 L1456.73 1485.58 L1456.73 1481.64 Z" fill="#000000" fill-rule="nonzero" fill-opacity="1" /><path clip-path="url(#clip110)" d="M1486.13 1451.02 L1504.49 1451.02 L1504.49 1454.96 L1490.41 1454.96 L1490.41 1463.43 Q1491.43 1463.08 1492.45 1462.92 Q1493.47 1462.73 1494.49 1462.73 Q1500.27 1462.73 1503.65 1465.9 Q1507.03 1469.08 1507.03 1474.49 Q1507.03 1480.07 1503.56 1483.17 Q1500.09 1486.25 1493.77 1486.25 Q1491.59 1486.25 1489.32 1485.88 Q1487.08 1485.51 1484.67 1484.77 L1484.67 1480.07 Q1486.75 1481.2 1488.98 1481.76 Q1491.2 1482.32 1493.68 1482.32 Q1497.68 1482.32 1500.02 1480.21 Q1502.36 1478.1 1502.36 1474.49 Q1502.36 1470.88 1500.02 1468.77 Q1497.68 1466.67 1493.68 1466.67 Q1491.8 1466.67 1489.93 1467.08 Q1488.07 1467.5 1486.13 1468.38 L1486.13 1451.02 Z" fill="#000000" fill-rule="nonzero" fill-opacity="1" /><path clip-path="url(#clip110)" d="M1865.53 1481.64 L1881.85 1481.64 L1881.85 1485.58 L1859.91 1485.58 L1859.91 1481.64 Q1862.57 1478.89 1867.15 1474.26 Q1871.76 1469.61 1872.94 1468.27 Q1875.19 1465.74 1876.07 1464.01 Q1876.97 1462.25 1876.97 1460.56 Q1876.97 1457.8 1875.02 1456.07 Q1873.1 1454.33 1870 1454.33 Q1867.8 1454.33 1865.35 1455.09 Q1862.92 1455.86 1860.14 1457.41 L1860.14 1452.69 Q1862.96 1451.55 1865.42 1450.97 Q1867.87 1450.39 1869.91 1450.39 Q1875.28 1450.39 1878.47 1453.08 Q1881.67 1455.77 1881.67 1460.26 Q1881.67 1462.39 1880.86 1464.31 Q1880.07 1466.2 1877.96 1468.8 Q1877.38 1469.47 1874.28 1472.69 Q1871.18 1475.88 1865.53 1481.64 Z" fill="#000000" fill-rule="nonzero" fill-opacity="1" /><path clip-path="url(#clip110)" d="M1901.67 1454.1 Q1898.06 1454.1 1896.23 1457.66 Q1894.42 1461.2 1894.42 1468.33 Q1894.42 1475.44 1896.23 1479.01 Q1898.06 1482.55 1901.67 1482.55 Q1905.3 1482.55 1907.11 1479.01 Q1908.94 1475.44 1908.94 1468.33 Q1908.94 1461.2 1907.11 1457.66 Q1905.3 1454.1 1901.67 1454.1 M1901.67 1450.39 Q1907.48 1450.39 1910.53 1455 Q1913.61 1459.58 1913.61 1468.33 Q1913.61 1477.06 1910.53 1481.67 Q1907.48 1486.25 1901.67 1486.25 Q1895.86 1486.25 1892.78 1481.67 Q1889.72 1477.06 1889.72 1468.33 Q1889.72 1459.58 1892.78 1455 Q1895.86 1450.39 1901.67 1450.39 Z" fill="#000000" fill-rule="nonzero" fill-opacity="1" /><path clip-path="url(#clip110)" d="M2271.24 1481.64 L2287.56 1481.64 L2287.56 1485.58 L2265.62 1485.58 L2265.62 1481.64 Q2268.28 1478.89 2272.87 1474.26 Q2277.47 1469.61 2278.65 1468.27 Q2280.9 1465.74 2281.78 1464.01 Q2282.68 1462.25 2282.68 1460.56 Q2282.68 1457.8 2280.74 1456.07 Q2278.81 1454.33 2275.71 1454.33 Q2273.51 1454.33 2271.06 1455.09 Q2268.63 1455.86 2265.85 1457.41 L2265.85 1452.69 Q2268.68 1451.55 2271.13 1450.97 Q2273.58 1450.39 2275.62 1450.39 Q2280.99 1450.39 2284.18 1453.08 Q2287.38 1455.77 2287.38 1460.26 Q2287.38 1462.39 2286.57 1464.31 Q2285.78 1466.2 2283.68 1468.8 Q2283.1 1469.47 2279.99 1472.69 Q2276.89 1475.88 2271.24 1481.64 Z" fill="#000000" fill-rule="nonzero" fill-opacity="1" /><path clip-path="url(#clip110)" d="M2297.43 1451.02 L2315.78 1451.02 L2315.78 1454.96 L2301.71 1454.96 L2301.71 1463.43 Q2302.73 1463.08 2303.74 1462.92 Q2304.76 1462.73 2305.78 1462.73 Q2311.57 1462.73 2314.95 1465.9 Q2318.33 1469.08 2318.33 1474.49 Q2318.33 1480.07 2314.86 1483.17 Q2311.38 1486.25 2305.06 1486.25 Q2302.89 1486.25 2300.62 1485.88 Q2298.37 1485.51 2295.97 1484.77 L2295.97 1480.07 Q2298.05 1481.2 2300.27 1481.76 Q2302.49 1482.32 2304.97 1482.32 Q2308.98 1482.32 2311.31 1480.21 Q2313.65 1478.1 2313.65 1474.49 Q2313.65 1470.88 2311.31 1468.77 Q2308.98 1466.67 2304.97 1466.67 Q2303.1 1466.67 2301.22 1467.08 Q2299.37 1467.5 2297.43 1468.38 L2297.43 1451.02 Z" fill="#000000" fill-rule="nonzero" fill-opacity="1" /><path clip-path="url(#clip110)" d="M1231.64 1525.81 L1231.64 1543.66 L1239.73 1543.66 Q1244.21 1543.66 1246.66 1541.34 Q1249.12 1539.02 1249.12 1534.72 Q1249.12 1530.45 1246.66 1528.13 Q1244.21 1525.81 1239.73 1525.81 L1231.64 1525.81 M1225.21 1520.52 L1239.73 1520.52 Q1247.71 1520.52 1251.79 1524.15 Q1255.89 1527.75 1255.89 1534.72 Q1255.89 1541.75 1251.79 1545.35 Q1247.71 1548.95 1239.73 1548.95 L1231.64 1548.95 L1231.64 1568.04 L1225.21 1568.04 L1225.21 1520.52 Z" fill="#000000" fill-rule="nonzero" fill-opacity="1" /><path clip-path="url(#clip110)" d="M1283.78 1537.87 Q1282.79 1537.3 1281.61 1537.04 Q1280.47 1536.76 1279.07 1536.76 Q1274.1 1536.76 1271.43 1540 Q1268.79 1543.22 1268.79 1549.27 L1268.79 1568.04 L1262.9 1568.04 L1262.9 1532.4 L1268.79 1532.4 L1268.79 1537.93 Q1270.63 1534.69 1273.59 1533.13 Q1276.55 1531.54 1280.78 1531.54 Q1281.39 1531.54 1282.12 1531.63 Q1282.85 1531.7 1283.74 1531.85 L1283.78 1537.87 Z" fill="#000000" fill-rule="nonzero" fill-opacity="1" /><path clip-path="url(#clip110)" d="M1289.92 1532.4 L1295.78 1532.4 L1295.78 1568.04 L1289.92 1568.04 L1289.92 1532.4 M1289.92 1518.52 L1295.78 1518.52 L1295.78 1525.93 L1289.92 1525.93 L1289.92 1518.52 Z" fill="#000000" fill-rule="nonzero" fill-opacity="1" /><path clip-path="url(#clip110)" d="M1330.76 1533.45 L1330.76 1538.98 Q1328.27 1537.71 1325.6 1537.07 Q1322.93 1536.44 1320.06 1536.44 Q1315.7 1536.44 1313.5 1537.77 Q1311.34 1539.11 1311.34 1541.79 Q1311.34 1543.82 1312.9 1545 Q1314.46 1546.15 1319.17 1547.2 L1321.17 1547.64 Q1327.41 1548.98 1330.02 1551.43 Q1332.67 1553.85 1332.67 1558.21 Q1332.67 1563.17 1328.72 1566.07 Q1324.8 1568.97 1317.93 1568.97 Q1315.06 1568.97 1311.94 1568.39 Q1308.86 1567.85 1305.42 1566.74 L1305.42 1560.69 Q1308.67 1562.38 1311.82 1563.24 Q1314.97 1564.07 1318.06 1564.07 Q1322.19 1564.07 1324.42 1562.66 Q1326.65 1561.23 1326.65 1558.65 Q1326.65 1556.27 1325.03 1554.99 Q1323.43 1553.72 1317.99 1552.54 L1315.96 1552.07 Q1310.51 1550.92 1308.09 1548.56 Q1305.67 1546.18 1305.67 1542.04 Q1305.67 1537.01 1309.24 1534.27 Q1312.8 1531.54 1319.36 1531.54 Q1322.61 1531.54 1325.47 1532.01 Q1328.34 1532.49 1330.76 1533.45 Z" fill="#000000" fill-rule="nonzero" fill-opacity="1" /><polyline clip-path="url(#clip112)" style="stroke:#000000; stroke-linecap:round; stroke-linejoin:round; stroke-width:2; stroke-opacity:0.1; fill:none" points="205.121,1222.91 2352.76,1222.91 "/>
<polyline clip-path="url(#clip112)" style="stroke:#000000; stroke-linecap:round; stroke-linejoin:round; stroke-width:2; stroke-opacity:0.1; fill:none" points="205.121,895.94 2352.76,895.94 "/>
<polyline clip-path="url(#clip112)" style="stroke:#000000; stroke-linecap:round; stroke-linejoin:round; stroke-width:2; stroke-opacity:0.1; fill:none" points="205.121,568.969 2352.76,568.969 "/>
<polyline clip-path="url(#clip112)" style="stroke:#000000; stroke-linecap:round; stroke-linejoin:round; stroke-width:2; stroke-opacity:0.1; fill:none" points="205.121,241.999 2352.76,241.999 "/>
<polyline clip-path="url(#clip110)" style="stroke:#000000; stroke-linecap:round; stroke-linejoin:round; stroke-width:4; stroke-opacity:1; fill:none" points="205.121,1423.18 205.121,123.472 "/>
<polyline clip-path="url(#clip110)" style="stroke:#000000; stroke-linecap:round; stroke-linejoin:round; stroke-width:4; stroke-opacity:1; fill:none" points="205.121,1222.91 224.019,1222.91 "/>
<polyline clip-path="url(#clip110)" style="stroke:#000000; stroke-linecap:round; stroke-linejoin:round; stroke-width:4; stroke-opacity:1; fill:none" points="205.121,895.94 224.019,895.94 "/>
<polyline clip-path="url(#clip110)" style="stroke:#000000; stroke-linecap:round; stroke-linejoin:round; stroke-width:4; stroke-opacity:1; fill:none" points="205.121,568.969 224.019,568.969 "/>
<polyline clip-path="url(#clip110)" style="stroke:#000000; stroke-linecap:round; stroke-linejoin:round; stroke-width:4; stroke-opacity:1; fill:none" points="205.121,241.999 224.019,241.999 "/>
<path clip-path="url(#clip110)" d="M157.177 1208.71 Q153.566 1208.71 151.737 1212.27 Q149.931 1215.82 149.931 1222.95 Q149.931 1230.05 151.737 1233.62 Q153.566 1237.16 157.177 1237.16 Q160.811 1237.16 162.616 1233.62 Q164.445 1230.05 164.445 1222.95 Q164.445 1215.82 162.616 1212.27 Q160.811 1208.71 157.177 1208.71 M157.177 1205.01 Q162.987 1205.01 166.042 1209.61 Q169.121 1214.2 169.121 1222.95 Q169.121 1231.67 166.042 1236.28 Q162.987 1240.86 157.177 1240.86 Q151.366 1240.86 148.288 1236.28 Q145.232 1231.67 145.232 1222.95 Q145.232 1214.2 148.288 1209.61 Q151.366 1205.01 157.177 1205.01 Z" fill="#000000" fill-rule="nonzero" fill-opacity="1" /><path clip-path="url(#clip110)" d="M121.043 909.285 L137.362 909.285 L137.362 913.22 L115.418 913.22 L115.418 909.285 Q118.08 906.53 122.663 901.901 Q127.269 897.248 128.45 895.905 Q130.695 893.382 131.575 891.646 Q132.478 889.887 132.478 888.197 Q132.478 885.442 130.533 883.706 Q128.612 881.97 125.51 881.97 Q123.311 881.97 120.857 882.734 Q118.427 883.498 115.649 885.049 L115.649 880.327 Q118.473 879.192 120.927 878.614 Q123.38 878.035 125.418 878.035 Q130.788 878.035 133.982 880.72 Q137.177 883.405 137.177 887.896 Q137.177 890.026 136.367 891.947 Q135.579 893.845 133.473 896.438 Q132.894 897.109 129.792 900.326 Q126.691 903.521 121.043 909.285 Z" fill="#000000" fill-rule="nonzero" fill-opacity="1" /><path clip-path="url(#clip110)" d="M157.177 881.739 Q153.566 881.739 151.737 885.303 Q149.931 888.845 149.931 895.975 Q149.931 903.081 151.737 906.646 Q153.566 910.188 157.177 910.188 Q160.811 910.188 162.616 906.646 Q164.445 903.081 164.445 895.975 Q164.445 888.845 162.616 885.303 Q160.811 881.739 157.177 881.739 M157.177 878.035 Q162.987 878.035 166.042 882.641 Q169.121 887.225 169.121 895.975 Q169.121 904.701 166.042 909.308 Q162.987 913.891 157.177 913.891 Q151.366 913.891 148.288 909.308 Q145.232 904.701 145.232 895.975 Q145.232 887.225 148.288 882.641 Q151.366 878.035 157.177 878.035 Z" fill="#000000" fill-rule="nonzero" fill-opacity="1" /><path clip-path="url(#clip110)" d="M129.862 555.763 L118.056 574.212 L129.862 574.212 L129.862 555.763 M128.635 551.689 L134.515 551.689 L134.515 574.212 L139.445 574.212 L139.445 578.101 L134.515 578.101 L134.515 586.249 L129.862 586.249 L129.862 578.101 L114.26 578.101 L114.26 573.587 L128.635 551.689 Z" fill="#000000" fill-rule="nonzero" fill-opacity="1" /><path clip-path="url(#clip110)" d="M157.177 554.768 Q153.566 554.768 151.737 558.333 Q149.931 561.875 149.931 569.004 Q149.931 576.111 151.737 579.675 Q153.566 583.217 157.177 583.217 Q160.811 583.217 162.616 579.675 Q164.445 576.111 164.445 569.004 Q164.445 561.875 162.616 558.333 Q160.811 554.768 157.177 554.768 M157.177 551.064 Q162.987 551.064 166.042 555.671 Q169.121 560.254 169.121 569.004 Q169.121 577.731 166.042 582.337 Q162.987 586.921 157.177 586.921 Q151.366 586.921 148.288 582.337 Q145.232 577.731 145.232 569.004 Q145.232 560.254 148.288 555.671 Q151.366 551.064 157.177 551.064 Z" fill="#000000" fill-rule="nonzero" fill-opacity="1" /><path clip-path="url(#clip110)" d="M127.593 240.136 Q124.445 240.136 122.593 242.288 Q120.765 244.441 120.765 248.191 Q120.765 251.918 122.593 254.094 Q124.445 256.247 127.593 256.247 Q130.742 256.247 132.57 254.094 Q134.422 251.918 134.422 248.191 Q134.422 244.441 132.57 242.288 Q130.742 240.136 127.593 240.136 M136.876 225.483 L136.876 229.742 Q135.117 228.909 133.311 228.469 Q131.529 228.029 129.769 228.029 Q125.14 228.029 122.686 231.154 Q120.255 234.279 119.908 240.598 Q121.274 238.585 123.334 237.52 Q125.394 236.432 127.871 236.432 Q133.08 236.432 136.089 239.603 Q139.121 242.751 139.121 248.191 Q139.121 253.515 135.973 256.733 Q132.825 259.95 127.593 259.95 Q121.598 259.95 118.427 255.367 Q115.256 250.76 115.256 242.034 Q115.256 233.839 119.144 228.978 Q123.033 224.094 129.584 224.094 Q131.343 224.094 133.126 224.441 Q134.931 224.788 136.876 225.483 Z" fill="#000000" fill-rule="nonzero" fill-opacity="1" /><path clip-path="url(#clip110)" d="M157.177 227.798 Q153.566 227.798 151.737 231.362 Q149.931 234.904 149.931 242.034 Q149.931 249.14 151.737 252.705 Q153.566 256.247 157.177 256.247 Q160.811 256.247 162.616 252.705 Q164.445 249.14 164.445 242.034 Q164.445 234.904 162.616 231.362 Q160.811 227.798 157.177 227.798 M157.177 224.094 Q162.987 224.094 166.042 228.7 Q169.121 233.284 169.121 242.034 Q169.121 250.76 166.042 255.367 Q162.987 259.95 157.177 259.95 Q151.366 259.95 148.288 255.367 Q145.232 250.76 145.232 242.034 Q145.232 233.284 148.288 228.7 Q151.366 224.094 157.177 224.094 Z" fill="#000000" fill-rule="nonzero" fill-opacity="1" /><path clip-path="url(#clip110)" d="M16.4842 869.512 L16.4842 829.312 L21.895 829.312 L21.895 846.181 L64.0042 846.181 L64.0042 852.643 L21.895 852.643 L21.895 869.512 L16.4842 869.512 Z" fill="#000000" fill-rule="nonzero" fill-opacity="1" /><path clip-path="url(#clip110)" d="M28.3562 825.366 L28.3562 819.509 L64.0042 819.509 L64.0042 825.366 L28.3562 825.366 M14.479 825.366 L14.479 819.509 L21.895 819.509 L21.895 825.366 L14.479 825.366 Z" fill="#000000" fill-rule="nonzero" fill-opacity="1" /><path clip-path="url(#clip110)" d="M14.479 807.255 L14.479 801.399 L64.0042 801.399 L64.0042 807.255 L14.479 807.255 Z" fill="#000000" fill-rule="nonzero" fill-opacity="1" /><path clip-path="url(#clip110)" d="M46.212 763.555 Q39.7508 763.555 36.0905 766.228 Q32.3984 768.87 32.3984 773.517 Q32.3984 778.164 36.0905 780.838 Q39.7508 783.479 46.212 783.479 Q52.6732 783.479 56.3653 780.838 Q60.0256 778.164 60.0256 773.517 Q60.0256 768.87 56.3653 766.228 Q52.6732 763.555 46.212 763.555 M33.7671 783.479 Q30.5842 781.633 29.0564 778.832 Q27.4968 776 27.4968 772.085 Q27.4968 765.592 32.6531 761.549 Q37.8093 757.475 46.212 757.475 Q54.6147 757.475 59.771 761.549 Q64.9272 765.592 64.9272 772.085 Q64.9272 776 63.3994 778.832 Q61.8398 781.633 58.657 783.479 L64.0042 783.479 L64.0042 789.368 L14.479 789.368 L14.479 783.479 L33.7671 783.479 Z" fill="#000000" fill-rule="nonzero" fill-opacity="1" /><path clip-path="url(#clip110)" d="M49.9359 748.372 L28.3562 748.372 L28.3562 742.516 L49.7131 742.516 Q54.7739 742.516 57.3202 740.543 Q59.8346 738.569 59.8346 734.622 Q59.8346 729.88 56.8109 727.143 Q53.7872 724.374 48.5673 724.374 L28.3562 724.374 L28.3562 718.517 L64.0042 718.517 L64.0042 724.374 L58.5296 724.374 Q61.7762 726.506 63.3676 729.339 Q64.9272 732.14 64.9272 735.864 Q64.9272 742.007 61.1078 745.19 Q57.2883 748.372 49.9359 748.372 M27.4968 733.636 L27.4968 733.636 Z" fill="#000000" fill-rule="nonzero" fill-opacity="1" /><path clip-path="url(#clip110)" d="M33.7671 682.997 L14.479 682.997 L14.479 677.14 L64.0042 677.14 L64.0042 682.997 L58.657 682.997 Q61.8398 684.843 63.3994 687.675 Q64.9272 690.476 64.9272 694.423 Q64.9272 700.884 59.771 704.958 Q54.6147 709.001 46.212 709.001 Q37.8093 709.001 32.6531 704.958 Q27.4968 700.884 27.4968 694.423 Q27.4968 690.476 29.0564 687.675 Q30.5842 684.843 33.7671 682.997 M46.212 702.953 Q52.6732 702.953 56.3653 700.311 Q60.0256 697.638 60.0256 692.991 Q60.0256 688.344 56.3653 685.67 Q52.6732 682.997 46.212 682.997 Q39.7508 682.997 36.0905 685.67 Q32.3984 688.344 32.3984 692.991 Q32.3984 697.638 36.0905 700.311 Q39.7508 702.953 46.212 702.953 Z" fill="#000000" fill-rule="nonzero" fill-opacity="1" /><path clip-path="url(#clip110)" d="M712.136 12.096 L763.299 12.096 L763.299 18.9825 L741.829 18.9825 L741.829 72.576 L733.606 72.576 L733.606 18.9825 L712.136 18.9825 L712.136 12.096 Z" fill="#000000" fill-rule="nonzero" fill-opacity="1" /><path clip-path="url(#clip110)" d="M768.322 27.2059 L775.776 27.2059 L775.776 72.576 L768.322 72.576 L768.322 27.2059 M768.322 9.54393 L775.776 9.54393 L775.776 18.9825 L768.322 18.9825 L768.322 9.54393 Z" fill="#000000" fill-rule="nonzero" fill-opacity="1" /><path clip-path="url(#clip110)" d="M791.372 9.54393 L798.825 9.54393 L798.825 72.576 L791.372 72.576 L791.372 9.54393 Z" fill="#000000" fill-rule="nonzero" fill-opacity="1" /><path clip-path="url(#clip110)" d="M846.991 49.9314 Q846.991 41.7081 843.588 37.0496 Q840.226 32.3505 834.311 32.3505 Q828.397 32.3505 824.994 37.0496 Q821.632 41.7081 821.632 49.9314 Q821.632 58.1548 824.994 62.8538 Q828.397 67.5124 834.311 67.5124 Q840.226 67.5124 843.588 62.8538 Q846.991 58.1548 846.991 49.9314 M821.632 34.0924 Q823.981 30.0415 827.546 28.0971 Q831.151 26.1121 836.134 26.1121 Q844.398 26.1121 849.543 32.6746 Q854.728 39.2371 854.728 49.9314 Q854.728 60.6258 849.543 67.1883 Q844.398 73.7508 836.134 73.7508 Q831.151 73.7508 827.546 71.8063 Q823.981 69.8214 821.632 65.7705 L821.632 72.576 L814.138 72.576 L814.138 9.54393 L821.632 9.54393 L821.632 34.0924 Z" fill="#000000" fill-rule="nonzero" fill-opacity="1" /><path clip-path="url(#clip110)" d="M866.313 54.671 L866.313 27.2059 L873.767 27.2059 L873.767 54.3874 Q873.767 60.8284 876.279 64.0691 Q878.79 67.2693 883.813 67.2693 Q889.849 67.2693 893.333 63.421 Q896.857 59.5726 896.857 52.9291 L896.857 27.2059 L904.311 27.2059 L904.311 72.576 L896.857 72.576 L896.857 65.6084 Q894.143 69.7404 890.538 71.7658 Q886.973 73.7508 882.233 73.7508 Q874.415 73.7508 870.364 68.8897 Q866.313 64.0286 866.313 54.671 M885.069 26.1121 L885.069 26.1121 Z" fill="#000000" fill-rule="nonzero" fill-opacity="1" /><path clip-path="url(#clip110)" d="M949.519 34.0924 L949.519 9.54393 L956.973 9.54393 L956.973 72.576 L949.519 72.576 L949.519 65.7705 Q947.169 69.8214 943.564 71.8063 Q939.999 73.7508 934.976 73.7508 Q926.753 73.7508 921.568 67.1883 Q916.423 60.6258 916.423 49.9314 Q916.423 39.2371 921.568 32.6746 Q926.753 26.1121 934.976 26.1121 Q939.999 26.1121 943.564 28.0971 Q947.169 30.0415 949.519 34.0924 M924.12 49.9314 Q924.12 58.1548 927.482 62.8538 Q930.885 67.5124 936.799 67.5124 Q942.713 67.5124 946.116 62.8538 Q949.519 58.1548 949.519 49.9314 Q949.519 41.7081 946.116 37.0496 Q942.713 32.3505 936.799 32.3505 Q930.885 32.3505 927.482 37.0496 Q924.12 41.7081 924.12 49.9314 Z" fill="#000000" fill-rule="nonzero" fill-opacity="1" /><path clip-path="url(#clip110)" d="M1027.62 28.5427 L1027.62 35.5912 Q1024.46 33.9709 1021.06 33.1607 Q1017.66 32.3505 1014.01 32.3505 Q1008.46 32.3505 1005.66 34.0519 Q1002.91 35.7533 1002.91 39.156 Q1002.91 41.7486 1004.89 43.2475 Q1006.88 44.7058 1012.88 46.0426 L1015.43 46.6097 Q1023.37 48.3111 1026.69 51.4303 Q1030.05 54.509 1030.05 60.0587 Q1030.05 66.3781 1025.03 70.0644 Q1020.05 73.7508 1011.3 73.7508 Q1007.65 73.7508 1003.68 73.0216 Q999.75 72.3329 995.375 70.9151 L995.375 63.2184 Q999.507 65.3654 1003.52 66.4591 Q1007.53 67.5124 1011.46 67.5124 Q1016.72 67.5124 1019.56 65.73 Q1022.39 63.9071 1022.39 60.6258 Q1022.39 57.5877 1020.33 55.9673 Q1018.3 54.3469 1011.38 52.8481 L1008.78 52.2405 Q1001.86 50.7821 998.778 47.7845 Q995.699 44.7463 995.699 39.4801 Q995.699 33.0797 1000.24 29.5959 Q1004.77 26.1121 1013.12 26.1121 Q1017.25 26.1121 1020.9 26.7198 Q1024.54 27.3274 1027.62 28.5427 Z" fill="#000000" fill-rule="nonzero" fill-opacity="1" /><path clip-path="url(#clip110)" d="M1059.5 32.4315 Q1053.51 32.4315 1050.02 37.1306 Q1046.54 41.7891 1046.54 49.9314 Q1046.54 58.0738 1049.98 62.7728 Q1053.47 67.4314 1059.5 67.4314 Q1065.46 67.4314 1068.94 62.7323 Q1072.42 58.0333 1072.42 49.9314 Q1072.42 41.8701 1068.94 37.1711 Q1065.46 32.4315 1059.5 32.4315 M1059.5 26.1121 Q1069.22 26.1121 1074.77 32.4315 Q1080.32 38.7509 1080.32 49.9314 Q1080.32 61.0714 1074.77 67.4314 Q1069.22 73.7508 1059.5 73.7508 Q1049.74 73.7508 1044.19 67.4314 Q1038.68 61.0714 1038.68 49.9314 Q1038.68 38.7509 1044.19 32.4315 Q1049.74 26.1121 1059.5 26.1121 Z" fill="#000000" fill-rule="nonzero" fill-opacity="1" /><path clip-path="url(#clip110)" d="M1128 35.9153 Q1130.8 30.8922 1134.69 28.5022 Q1138.57 26.1121 1143.84 26.1121 Q1150.93 26.1121 1154.78 31.0947 Q1158.63 36.0368 1158.63 45.1919 L1158.63 72.576 L1151.13 72.576 L1151.13 45.4349 Q1151.13 38.913 1148.82 35.7533 Q1146.51 32.5936 1141.77 32.5936 Q1135.98 32.5936 1132.62 36.4419 Q1129.26 40.2903 1129.26 46.9338 L1129.26 72.576 L1121.76 72.576 L1121.76 45.4349 Q1121.76 38.8725 1119.45 35.7533 Q1117.15 32.5936 1112.32 32.5936 Q1106.61 32.5936 1103.25 36.4824 Q1099.89 40.3308 1099.89 46.9338 L1099.89 72.576 L1092.39 72.576 L1092.39 27.2059 L1099.89 27.2059 L1099.89 34.2544 Q1102.44 30.082 1106.01 28.0971 Q1109.57 26.1121 1114.47 26.1121 Q1119.41 26.1121 1122.86 28.6237 Q1126.34 31.1352 1128 35.9153 Z" fill="#000000" fill-rule="nonzero" fill-opacity="1" /><path clip-path="url(#clip110)" d="M1222.83 9.54393 L1222.83 15.7418 L1215.7 15.7418 Q1211.69 15.7418 1210.11 17.3622 Q1208.57 18.9825 1208.57 23.1955 L1208.57 27.2059 L1220.85 27.2059 L1220.85 32.9987 L1208.57 32.9987 L1208.57 72.576 L1201.08 72.576 L1201.08 32.9987 L1193.95 32.9987 L1193.95 27.2059 L1201.08 27.2059 L1201.08 24.0462 Q1201.08 16.471 1204.6 13.0277 Q1208.13 9.54393 1215.78 9.54393 L1222.83 9.54393 Z" fill="#000000" fill-rule="nonzero" fill-opacity="1" /><path clip-path="url(#clip110)" d="M1228.3 54.671 L1228.3 27.2059 L1235.76 27.2059 L1235.76 54.3874 Q1235.76 60.8284 1238.27 64.0691 Q1240.78 67.2693 1245.8 67.2693 Q1251.84 67.2693 1255.32 63.421 Q1258.85 59.5726 1258.85 52.9291 L1258.85 27.2059 L1266.3 27.2059 L1266.3 72.576 L1258.85 72.576 L1258.85 65.6084 Q1256.13 69.7404 1252.53 71.7658 Q1248.96 73.7508 1244.22 73.7508 Q1236.4 73.7508 1232.35 68.8897 Q1228.3 64.0286 1228.3 54.671 M1247.06 26.1121 L1247.06 26.1121 Z" fill="#000000" fill-rule="nonzero" fill-opacity="1" /><path clip-path="url(#clip110)" d="M1319.37 45.1919 L1319.37 72.576 L1311.91 72.576 L1311.91 45.4349 Q1311.91 38.994 1309.4 35.7938 Q1306.89 32.5936 1301.87 32.5936 Q1295.83 32.5936 1292.35 36.4419 Q1288.86 40.2903 1288.86 46.9338 L1288.86 72.576 L1281.37 72.576 L1281.37 27.2059 L1288.86 27.2059 L1288.86 34.2544 Q1291.54 30.163 1295.14 28.1376 Q1298.79 26.1121 1303.53 26.1121 Q1311.35 26.1121 1315.36 30.9732 Q1319.37 35.7938 1319.37 45.1919 Z" fill="#000000" fill-rule="nonzero" fill-opacity="1" /><path clip-path="url(#clip110)" d="M1333.95 9.54393 L1341.44 9.54393 L1341.44 46.7717 L1363.68 27.2059 L1373.2 27.2059 L1349.14 48.4326 L1374.22 72.576 L1364.49 72.576 L1341.44 50.4176 L1341.44 72.576 L1333.95 72.576 L1333.95 9.54393 Z" fill="#000000" fill-rule="nonzero" fill-opacity="1" /><path clip-path="url(#clip110)" d="M1411.2 28.5427 L1411.2 35.5912 Q1408.04 33.9709 1404.64 33.1607 Q1401.24 32.3505 1397.59 32.3505 Q1392.04 32.3505 1389.24 34.0519 Q1386.49 35.7533 1386.49 39.156 Q1386.49 41.7486 1388.47 43.2475 Q1390.46 44.7058 1396.46 46.0426 L1399.01 46.6097 Q1406.95 48.3111 1410.27 51.4303 Q1413.63 54.509 1413.63 60.0587 Q1413.63 66.3781 1408.61 70.0644 Q1403.63 73.7508 1394.88 73.7508 Q1391.23 73.7508 1387.26 73.0216 Q1383.33 72.3329 1378.96 70.9151 L1378.96 63.2184 Q1383.09 65.3654 1387.1 66.4591 Q1391.11 67.5124 1395.04 67.5124 Q1400.3 67.5124 1403.14 65.73 Q1405.97 63.9071 1405.97 60.6258 Q1405.97 57.5877 1403.91 55.9673 Q1401.88 54.3469 1394.96 52.8481 L1392.36 52.2405 Q1385.44 50.7821 1382.36 47.7845 Q1379.28 44.7463 1379.28 39.4801 Q1379.28 33.0797 1383.82 29.5959 Q1388.35 26.1121 1396.7 26.1121 Q1400.83 26.1121 1404.48 26.7198 Q1408.12 27.3274 1411.2 28.5427 Z" fill="#000000" fill-rule="nonzero" fill-opacity="1" /><path clip-path="url(#clip110)" d="M1425.5 27.2059 L1432.95 27.2059 L1432.95 73.3862 Q1432.95 82.0551 1429.63 85.944 Q1426.35 89.8329 1419.02 89.8329 L1416.18 89.8329 L1416.18 83.5134 L1418.17 83.5134 Q1422.42 83.5134 1423.96 81.5285 Q1425.5 79.5841 1425.5 73.3862 L1425.5 27.2059 M1425.5 9.54393 L1432.95 9.54393 L1432.95 18.9825 L1425.5 18.9825 L1425.5 9.54393 Z" fill="#000000" fill-rule="nonzero" fill-opacity="1" /><path clip-path="url(#clip110)" d="M1466.13 32.4315 Q1460.14 32.4315 1456.65 37.1306 Q1453.17 41.7891 1453.17 49.9314 Q1453.17 58.0738 1456.61 62.7728 Q1460.09 67.4314 1466.13 67.4314 Q1472.09 67.4314 1475.57 62.7323 Q1479.05 58.0333 1479.05 49.9314 Q1479.05 41.8701 1475.57 37.1711 Q1472.09 32.4315 1466.13 32.4315 M1466.13 26.1121 Q1475.85 26.1121 1481.4 32.4315 Q1486.95 38.7509 1486.95 49.9314 Q1486.95 61.0714 1481.4 67.4314 Q1475.85 73.7508 1466.13 73.7508 Q1456.37 73.7508 1450.82 67.4314 Q1445.31 61.0714 1445.31 49.9314 Q1445.31 38.7509 1450.82 32.4315 Q1456.37 26.1121 1466.13 26.1121 Z" fill="#000000" fill-rule="nonzero" fill-opacity="1" /><path clip-path="url(#clip110)" d="M1537.02 45.1919 L1537.02 72.576 L1529.57 72.576 L1529.57 45.4349 Q1529.57 38.994 1527.06 35.7938 Q1524.54 32.5936 1519.52 32.5936 Q1513.49 32.5936 1510 36.4419 Q1506.52 40.2903 1506.52 46.9338 L1506.52 72.576 L1499.02 72.576 L1499.02 27.2059 L1506.52 27.2059 L1506.52 34.2544 Q1509.19 30.163 1512.8 28.1376 Q1516.44 26.1121 1521.18 26.1121 Q1529 26.1121 1533.01 30.9732 Q1537.02 35.7938 1537.02 45.1919 Z" fill="#000000" fill-rule="nonzero" fill-opacity="1" /><path clip-path="url(#clip110)" d="M1598.88 49.7694 Q1589.85 49.7694 1586.36 51.8354 Q1582.88 53.9013 1582.88 58.8839 Q1582.88 62.8538 1585.47 65.2034 Q1588.1 67.5124 1592.6 67.5124 Q1598.8 67.5124 1602.52 63.1374 Q1606.29 58.7219 1606.29 51.4303 L1606.29 49.7694 L1598.88 49.7694 M1613.75 46.6907 L1613.75 72.576 L1606.29 72.576 L1606.29 65.6895 Q1603.74 69.8214 1599.93 71.8063 Q1596.12 73.7508 1590.62 73.7508 Q1583.65 73.7508 1579.52 69.8619 Q1575.42 65.9325 1575.42 59.3701 Q1575.42 51.7138 1580.53 47.825 Q1585.67 43.9361 1595.84 43.9361 L1606.29 43.9361 L1606.29 43.2069 Q1606.29 38.0623 1602.89 35.2672 Q1599.53 32.4315 1593.41 32.4315 Q1589.52 32.4315 1585.83 33.3632 Q1582.15 34.295 1578.75 36.1584 L1578.75 29.2718 Q1582.84 27.692 1586.69 26.9223 Q1590.53 26.1121 1594.18 26.1121 Q1604.02 26.1121 1608.88 31.2163 Q1613.75 36.3204 1613.75 46.6907 Z" fill="#000000" fill-rule="nonzero" fill-opacity="1" /><path clip-path="url(#clip110)" d="M1623.75 27.2059 L1631.65 27.2059 L1645.83 65.2844 L1660.01 27.2059 L1667.91 27.2059 L1650.89 72.576 L1640.77 72.576 L1623.75 27.2059 Z" fill="#000000" fill-rule="nonzero" fill-opacity="1" /><path clip-path="url(#clip110)" d="M1711.78 65.7705 L1711.78 89.8329 L1704.28 89.8329 L1704.28 27.2059 L1711.78 27.2059 L1711.78 34.0924 Q1714.13 30.0415 1717.69 28.0971 Q1721.3 26.1121 1726.28 26.1121 Q1734.54 26.1121 1739.69 32.6746 Q1744.87 39.2371 1744.87 49.9314 Q1744.87 60.6258 1739.69 67.1883 Q1734.54 73.7508 1726.28 73.7508 Q1721.3 73.7508 1717.69 71.8063 Q1714.13 69.8214 1711.78 65.7705 M1737.14 49.9314 Q1737.14 41.7081 1733.73 37.0496 Q1730.37 32.3505 1724.46 32.3505 Q1718.54 32.3505 1715.14 37.0496 Q1711.78 41.7081 1711.78 49.9314 Q1711.78 58.1548 1715.14 62.8538 Q1718.54 67.5124 1724.46 67.5124 Q1730.37 67.5124 1733.73 62.8538 Q1737.14 58.1548 1737.14 49.9314 Z" fill="#000000" fill-rule="nonzero" fill-opacity="1" /><path clip-path="url(#clip110)" d="M1783.52 34.1734 Q1782.26 33.4443 1780.76 33.1202 Q1779.31 32.7556 1777.52 32.7556 Q1771.2 32.7556 1767.8 36.8875 Q1764.44 40.9789 1764.44 48.6757 L1764.44 72.576 L1756.95 72.576 L1756.95 27.2059 L1764.44 27.2059 L1764.44 34.2544 Q1766.79 30.1225 1770.56 28.1376 Q1774.32 26.1121 1779.71 26.1121 Q1780.48 26.1121 1781.41 26.2337 Q1782.34 26.3147 1783.48 26.5172 L1783.52 34.1734 Z" fill="#000000" fill-rule="nonzero" fill-opacity="1" /><path clip-path="url(#clip110)" d="M1791.34 27.2059 L1798.79 27.2059 L1798.79 72.576 L1791.34 72.576 L1791.34 27.2059 M1791.34 9.54393 L1798.79 9.54393 L1798.79 18.9825 L1791.34 18.9825 L1791.34 9.54393 Z" fill="#000000" fill-rule="nonzero" fill-opacity="1" /><path clip-path="url(#clip110)" d="M1843.31 28.5427 L1843.31 35.5912 Q1840.15 33.9709 1836.75 33.1607 Q1833.35 32.3505 1829.7 32.3505 Q1824.15 32.3505 1821.35 34.0519 Q1818.6 35.7533 1818.6 39.156 Q1818.6 41.7486 1820.58 43.2475 Q1822.57 44.7058 1828.57 46.0426 L1831.12 46.6097 Q1839.06 48.3111 1842.38 51.4303 Q1845.74 54.509 1845.74 60.0587 Q1845.74 66.3781 1840.72 70.0644 Q1835.74 73.7508 1826.99 73.7508 Q1823.34 73.7508 1819.37 73.0216 Q1815.44 72.3329 1811.07 70.9151 L1811.07 63.2184 Q1815.2 65.3654 1819.21 66.4591 Q1823.22 67.5124 1827.15 67.5124 Q1832.41 67.5124 1835.25 65.73 Q1838.08 63.9071 1838.08 60.6258 Q1838.08 57.5877 1836.02 55.9673 Q1833.99 54.3469 1827.07 52.8481 L1824.47 52.2405 Q1817.55 50.7821 1814.47 47.7845 Q1811.39 44.7463 1811.39 39.4801 Q1811.39 33.0797 1815.93 29.5959 Q1820.46 26.1121 1828.81 26.1121 Q1832.94 26.1121 1836.59 26.7198 Q1840.23 27.3274 1843.31 28.5427 Z" fill="#000000" fill-rule="nonzero" fill-opacity="1" /><polyline clip-path="url(#clip112)" style="stroke:#009af9; stroke-linecap:round; stroke-linejoin:round; stroke-width:4; stroke-opacity:1; fill:none" points="265.903,1386.4 346.946,1337.35 427.989,1288.3 509.032,1239.26 590.074,1190.21 671.117,1141.17 752.16,1092.12 833.203,1043.08 914.246,994.031 995.289,944.985 1076.33,895.94 1157.37,846.894 1238.42,797.849 1319.46,748.803 1400.5,699.758 1481.55,650.712 1562.59,601.666 1643.63,552.621 1724.67,503.575 1805.72,454.53 1886.76,405.484 1967.8,356.439 2048.85,307.393 2129.89,258.347 2210.93,209.302 2291.97,160.256 "/>
<path clip-path="url(#clip110)" d="M276.709 270.476 L631.379 270.476 L631.379 166.796 L276.709 166.796  Z" fill="#ffffff" fill-rule="evenodd" fill-opacity="1"/>
<polyline clip-path="url(#clip110)" style="stroke:#000000; stroke-linecap:round; stroke-linejoin:round; stroke-width:4; stroke-opacity:1; fill:none" points="276.709,270.476 631.379,270.476 631.379,166.796 276.709,166.796 276.709,270.476 "/>
<polyline clip-path="url(#clip110)" style="stroke:#009af9; stroke-linecap:round; stroke-linejoin:round; stroke-width:4; stroke-opacity:1; fill:none" points="300.571,218.636 443.747,218.636 "/>
<path clip-path="url(#clip110)" d="M467.61 201.356 L496.846 201.356 L496.846 205.291 L484.577 205.291 L484.577 235.916 L479.878 235.916 L479.878 205.291 L467.61 205.291 L467.61 201.356 Z" fill="#000000" fill-rule="nonzero" fill-opacity="1" /><path clip-path="url(#clip110)" d="M499.716 209.99 L503.975 209.99 L503.975 235.916 L499.716 235.916 L499.716 209.99 M499.716 199.897 L503.975 199.897 L503.975 205.291 L499.716 205.291 L499.716 199.897 Z" fill="#000000" fill-rule="nonzero" fill-opacity="1" /><path clip-path="url(#clip110)" d="M512.887 199.897 L517.146 199.897 L517.146 235.916 L512.887 235.916 L512.887 199.897 Z" fill="#000000" fill-rule="nonzero" fill-opacity="1" /><path clip-path="url(#clip110)" d="M544.669 222.976 Q544.669 218.277 542.725 215.615 Q540.804 212.93 537.424 212.93 Q534.045 212.93 532.1 215.615 Q530.179 218.277 530.179 222.976 Q530.179 227.675 532.1 230.36 Q534.045 233.022 537.424 233.022 Q540.804 233.022 542.725 230.36 Q544.669 227.675 544.669 222.976 M530.179 213.925 Q531.521 211.61 533.558 210.499 Q535.619 209.365 538.466 209.365 Q543.188 209.365 546.128 213.115 Q549.091 216.865 549.091 222.976 Q549.091 229.087 546.128 232.837 Q543.188 236.587 538.466 236.587 Q535.619 236.587 533.558 235.476 Q531.521 234.342 530.179 232.027 L530.179 235.916 L525.896 235.916 L525.896 199.897 L530.179 199.897 L530.179 213.925 Z" fill="#000000" fill-rule="nonzero" fill-opacity="1" /><path clip-path="url(#clip110)" d="M555.711 225.684 L555.711 209.99 L559.97 209.99 L559.97 225.522 Q559.97 229.203 561.405 231.055 Q562.841 232.883 565.711 232.883 Q569.16 232.883 571.151 230.684 Q573.165 228.485 573.165 224.689 L573.165 209.99 L577.424 209.99 L577.424 235.916 L573.165 235.916 L573.165 231.934 Q571.614 234.295 569.554 235.453 Q567.517 236.587 564.808 236.587 Q560.341 236.587 558.026 233.809 Q555.711 231.031 555.711 225.684 M566.429 209.365 L566.429 209.365 Z" fill="#000000" fill-rule="nonzero" fill-opacity="1" /><path clip-path="url(#clip110)" d="M603.257 213.925 L603.257 199.897 L607.516 199.897 L607.516 235.916 L603.257 235.916 L603.257 232.027 Q601.915 234.342 599.854 235.476 Q597.817 236.587 594.947 236.587 Q590.248 236.587 587.285 232.837 Q584.345 229.087 584.345 222.976 Q584.345 216.865 587.285 213.115 Q590.248 209.365 594.947 209.365 Q597.817 209.365 599.854 210.499 Q601.915 211.61 603.257 213.925 M588.743 222.976 Q588.743 227.675 590.665 230.36 Q592.609 233.022 595.989 233.022 Q599.368 233.022 601.313 230.36 Q603.257 227.675 603.257 222.976 Q603.257 218.277 601.313 215.615 Q599.368 212.93 595.989 212.93 Q592.609 212.93 590.665 215.615 Q588.743 218.277 588.743 222.976 Z" fill="#000000" fill-rule="nonzero" fill-opacity="1" /></svg>